<svg width="64" height="64" fill="none" xmlns="http://www.w3.org/2000/svg" style="border-radius:50%"><path fill="#fff" d="M0 0h64v64H0z"/><path d="M29.031 25.171c.904-1.025 2.014-1.554 3.377-1.426 1.282.129 2.275.76 3.047 1.82.953 1.324.978 3.407 0 4.808-.287.41-.648.76-.985 1.12-.132.145-.197.256-.148.478.715 3.11 1.413 6.219 2.112 9.328.649 2.904 1.297 5.809 1.93 8.713.106.487.148.991.205 1.486.033.29-.04.564-.221.778-.239.273-.502.529-.756.785A.859.859 0 0 1 37 53.3h-9.776v-.009a.88.88 0 0 1-.501-.162 5.53 5.53 0 0 1-.353-.264c-.665-.53-.888-1.247-.724-2.076a168.9 168.9 0 0 1 .88-4.066c.657-2.947 1.331-5.894 1.997-8.84.418-1.863.812-3.734 1.223-5.604.017-.077.017-.163.041-.23.074-.274.024-.47-.214-.676a4.682 4.682 0 0 1-1.355-1.896 2.535 2.535 0 0 1-.148-.743c-.024-.35.008-.7-.016-1.051-.074-1.008.353-1.811.977-2.512Zm-9.717-14.788c.566-.436 1.125-.461 1.724-.068.756.487 1.142 1.494.847 2.289-.09.239-.28.453-.46.64-.69.692-1.438 1.325-2.095 2.042-2.596 2.82-4.214 6.16-4.74 10.029-.657 4.834.378 9.267 3.055 13.273 1.43 2.144 3.254 3.861 5.406 5.202.238.145.468.3.698.462.649.478.887 1.204.616 1.973a2.997 2.997 0 0 1-.46.846c-.452.572-1.075.734-1.708.4a15.572 15.572 0 0 1-1.725-1.041c-2.933-2.033-5.274-4.647-7-7.842-1.24-2.297-2.004-4.774-2.39-7.371-.082-.547-.1-1.11-.148-1.666-.009-.11-.025-.213-.041-.324.008-.812.008-1.623.008-2.435.025-.359.058-.726.082-1.085.099-1.306.37-2.58.715-3.835 1.224-4.407 3.573-8.047 6.966-10.96.214-.179.428-.358.65-.529Zm23.454.189c.419-.445.92-.693 1.511-.445.296.12.576.3.83.504a20.323 20.323 0 0 1 3.525 3.621 22.722 22.722 0 0 1 3.343 6.194 21.53 21.53 0 0 1 1.092 4.766c.05.419.091.829.132 1.247.008.812.008 1.623.008 2.435a1.115 1.115 0 0 0-.032.23c0 1.768-.305 3.485-.806 5.16-1.298 4.364-3.64 8.003-7.04 10.89a20.376 20.376 0 0 1-3.253 2.23c-.747.418-1.331.145-1.767-.307-.575-.598-.788-1.589-.426-2.23a2.36 2.36 0 0 1 .714-.752c.928-.632 1.865-1.247 2.72-1.998 3.335-2.913 5.396-6.587 6.127-11.045.748-4.545-.073-8.798-2.357-12.745-.88-1.52-2.021-2.818-3.27-4.014-.32-.308-.632-.632-.977-.905-1.166-.931-.789-2.076-.074-2.836ZM22.31 15.509c.665-.598 1.364-.538 2.021.077.6.555.797 1.256.633 2.05-.041.188-.19.377-.33.53-.533.581-1.1 1.127-1.61 1.734-1.52 1.828-2.497 3.93-2.776 6.338-.468 4.024.6 7.543 3.318 10.481.444.47.954.88 1.43 1.308.082.076.165.144.247.212 1.224.94.517 2.896-.534 3.272-.37.128-.715.137-1.068-.05-.707-.368-1.298-.906-1.881-1.444-2.481-2.306-4.067-5.16-4.822-8.517-.255-1.162-.37-2.332-.362-3.05.008-2.886.525-5.184 1.51-7.38.987-2.203 2.474-3.998 4.224-5.561Zm17.811-.213c.468-.273.944-.29 1.388.026a9.62 9.62 0 0 1 1.232 1.024c2.227 2.204 3.631 4.912 4.404 7.987.303 1.213.295 2.46.303 3.699.033.008.05.008.074.008-.074.974-.065 1.965-.246 2.921-.591 3.067-1.849 5.8-3.976 8.056-.715.76-1.454 1.486-2.292 2.093-.173.12-.354.221-.534.324-.411.239-.822.197-1.224-.042-.74-.453-1.142-1.453-.944-2.307.082-.359.312-.606.558-.846.756-.708 1.56-1.375 2.226-2.17a12.064 12.064 0 0 0 2.826-6.688c.419-4.177-.953-7.67-3.804-10.583a9.996 9.996 0 0 1-.804-.889c-.288-.367-.345-.794-.198-1.255.19-.581.494-1.05 1.011-1.358Zm-13.966 4.987c.666-.094 1.142.223 1.536.71.616.76.642 1.426.083 2.229-.361.521-.797 1-1.092 1.563-1.035 1.948-1.093 3.955-.206 5.979.197.453.435.897.714 1.299.477.692.304 1.802-.18 2.357-.107.12-.222.24-.345.35-.64.564-1.257.547-1.856-.059-.715-.709-1.2-1.58-1.61-2.503-.609-1.358-.888-2.785-.896-4.28-.008-2.64.961-4.877 2.588-6.842.328-.401.722-.726 1.264-.803Zm10.325.58c.69-.735 1.717-.811 2.423-.085 1.61 1.657 2.596 3.638 2.81 6.005l.05.665c.016.223.025.445.033.727-.017 2.34-.797 4.459-2.251 6.304-.682.863-1.611.854-2.318.008a2.68 2.68 0 0 1-.434-.726c-.23-.58-.19-1.136.13-1.691.33-.564.666-1.128.904-1.743.895-2.331.444-4.476-.969-6.44-.164-.222-.32-.453-.5-.65-.641-.691-.338-1.879.122-2.374Z" fill="#036"/></svg>