<svg width="414" height="184" viewBox="0 0 414 184" fill="none" xmlns="http://www.w3.org/2000/svg">
<path d="M339.541 0C353.348 0 364.541 11.3286 364.541 25.1357C364.541 38.7937 375.613 50 389.271 50C402.929 50 414.001 61.072 414.001 74.73V154.117C414.001 170.621 400.622 184 384.118 184H89.7875C73.2835 184 59.9043 170.545 59.9043 154.041C59.9043 137.537 46.4562 124.082 29.9521 124.082C13.4481 124.082 0 110.703 0 94.1988V29.8832C0 13.3792 13.3792 0 29.8832 0H339.541Z" fill="url(#paint0_radial_9511_277468)"/>
<path d="M339.541 0C353.348 0 364.541 11.3286 364.541 25.1357C364.541 38.7937 375.613 50 389.271 50C402.929 50 414.001 61.072 414.001 74.73V154.117C414.001 170.621 400.622 184 384.118 184H89.7875C73.2835 184 59.9043 170.545 59.9043 154.041C59.9043 137.537 46.4562 124.082 29.9521 124.082C13.4481 124.082 0 110.703 0 94.1988V29.8832C0 13.3792 13.3792 0 29.8832 0H339.541Z" fill="url(#paint1_radial_9511_277468)"/>
<defs>
<radialGradient id="paint0_radial_9511_277468" cx="0" cy="0" r="1" gradientUnits="userSpaceOnUse" gradientTransform="translate(229.737 184) rotate(-90) scale(323.15 727.089)">
<stop stop-color="#F3DDBE"/>
<stop offset="1" stop-color="#AF936C"/>
</radialGradient>
<radialGradient id="paint1_radial_9511_277468" cx="0" cy="0" r="1" gradientUnits="userSpaceOnUse" gradientTransform="translate(229.737 184) rotate(-90) scale(220.8 496.801)">
<stop stop-color="#F0FDE1"/>
<stop offset="1" stop-color="#B9D09C"/>
</radialGradient>
</defs>
</svg>
