<svg width="178" height="15" viewBox="0 0 178 15" fill="none" xmlns="http://www.w3.org/2000/svg">
<g opacity="0.5">
<path opacity="0.016393" d="M87.5 15C39.1751 15 1.52588e-05 11.6421 1.52588e-05 7.5C1.52588e-05 3.35786 39.1751 0 87.5 0C135.825 0 175 3.35786 175 7.5C175 11.6421 135.825 15 87.5 15Z" fill="#FCFCFC"/>
<path opacity="0.032787" d="M86 15C38.5035 15 0 11.6421 0 7.49999C0 3.35786 38.5035 0 86 0C133.496 0 172 3.35786 172 7.49999C172 11.6421 133.496 15 86 15Z" fill="#FAFAFA"/>
<path opacity="0.04918" d="M85.5 14C38.8319 14 1.00002 10.866 1.00002 6.99999C1.00002 3.134 38.8319 0 85.5 0C132.168 0 170 3.134 170 6.99999C170 10.866 132.168 14 85.5 14Z" fill="#F7F7F7"/>
<path opacity="0.065574" d="M83.5 14C37.3842 14 0 10.866 0 7C0 3.13401 37.3842 0 83.5 0C129.616 0 167 3.13401 167 7C167 10.866 129.616 14 83.5 14Z" fill="#F5F5F5"/>
<path opacity="0.081967" d="M82 15C36.7127 15 -1.52588e-05 11.866 -1.52588e-05 8C-1.52588e-05 4.13401 36.7127 1 82 1C127.287 1 164 4.13401 164 8C164 11.866 127.287 15 82 15Z" fill="#F2F2F2"/>
<path opacity="0.098361" d="M80.5 15C36.0411 15 0 11.866 0 8C0 4.134 36.0411 1 80.5 1C124.959 1 161 4.134 161 8C161 11.866 124.959 15 80.5 15Z" fill="#EFEFEF"/>
<path opacity="0.1148" d="M79 14C35.3695 14 0 11.0899 0 7.5C0 3.91015 35.3695 1 79 1C122.63 1 158 3.91015 158 7.5C158 11.0899 122.63 14 79 14Z" fill="#EDEDED"/>
<path opacity="0.1311" d="M78.5 14C35.6979 14 1 11.0898 1 7.49999C1 3.91014 35.6979 1 78.5 1C121.302 1 156 3.91014 156 7.49999C156 11.0898 121.302 14 78.5 14Z" fill="#EAEAEA"/>
<path opacity="0.1475" d="M77 14C35.0264 14 1 11.0898 1 7.49999C1 3.91014 35.0264 1 77 1C118.974 1 153 3.91014 153 7.49999C153 11.0898 118.974 14 77 14Z" fill="#E8E8E8"/>
<path opacity="0.1639" d="M75.5 14C34.3548 14 1 11.0898 1 7.5C1 3.91015 34.3548 1 75.5 1C116.645 1 150 3.91015 150 7.5C150 11.0898 116.645 14 75.5 14Z" fill="#E5E5E5"/>
<path opacity="0.1803" d="M73.5 13C32.9071 13 0 10.3137 0 7C0 3.68629 32.9071 1 73.5 1C114.093 1 147 3.68629 147 7C147 10.3137 114.093 13 73.5 13Z" fill="#E2E2E2"/>
<path opacity="0.1967" d="M73 13C33.2355 13 1 10.3137 1 7C1 3.68629 33.2355 1 73 1C112.764 1 145 3.68629 145 7C145 10.3137 112.764 13 73 13Z" fill="#E0E0E0"/>
<path opacity="0.2131" d="M71.5 14C32.5639 14 1 11.3137 1 7.99999C1 4.68628 32.5639 2 71.5 2C110.436 2 142 4.68628 142 7.99999C142 11.3137 110.436 14 71.5 14Z" fill="#DDDDDD"/>
<path opacity="0.2295" d="M70 14C31.8924 14 1 11.3137 1 7.99999C1 4.68628 31.8924 2 70 2C108.108 2 139 4.68628 139 7.99999C139 11.3137 108.108 14 70 14Z" fill="#DBDBDB"/>
<path opacity="0.2459" d="M68.5 13C31.2208 13 1 10.5376 1 7.5C1 4.46244 31.2208 2 68.5 2C105.779 2 136 4.46244 136 7.5C136 10.5376 105.779 13 68.5 13Z" fill="#D8D8D8"/>
<path opacity="0.2623" d="M67 13C30.5492 13 1 10.5376 1 7.5C1 4.46243 30.5492 2 67 2C103.451 2 133 4.46243 133 7.5C133 10.5376 103.451 13 67 13Z" fill="#D5D5D5"/>
<path opacity="0.2787" d="M66.5 13C30.8776 13 2 10.5376 2 7.5C2 4.46243 30.8776 2 66.5 2C102.122 2 131 4.46243 131 7.5C131 10.5376 102.122 13 66.5 13Z" fill="#D3D3D3"/>
<path opacity="0.2951" d="M65 13C30.2061 13 2 10.5376 2 7.49999C2 4.46243 30.2061 2 65 2C99.7939 2 128 4.46243 128 7.49999C128 10.5376 99.7939 13 65 13Z" fill="#D0D0D0"/>
<path opacity="0.3115" d="M63 12C28.7584 12 1 9.76142 1 6.99999C1 4.23857 28.7584 2 63 2C97.2417 2 125 4.23857 125 6.99999C125 9.76142 97.2417 12 63 12Z" fill="#CDCDCD"/>
<path opacity="0.3279" d="M61.5 12C28.0868 12 1 9.76142 1 6.99999C1 4.23857 28.0868 2 61.5 2C94.9132 2 122 4.23857 122 6.99999C122 9.76142 94.9132 12 61.5 12Z" fill="#CBCBCB"/>
<path opacity="0.3443" d="M60 12C27.4152 12 1.00001 9.76142 1.00001 7C1.00001 4.23858 27.4152 2 60 2C92.5848 2 119 4.23858 119 7C119 9.76142 92.5848 12 60 12Z" fill="#C8C8C8"/>
<path opacity="0.3607" d="M59.5 13C27.7436 13 2 10.7614 2 8C2 5.23858 27.7436 3 59.5 3C91.2564 3 117 5.23858 117 8C117 10.7614 91.2564 13 59.5 13Z" fill="#C6C6C6"/>
<path opacity="0.377" d="M58 13C27.072 13 2 10.7614 2 8C2 5.23857 27.072 3 58 3C88.9279 3 114 5.23857 114 8C114 10.7614 88.9279 13 58 13Z" fill="#C3C3C3"/>
<path opacity="0.3934" d="M56.5 12C26.4005 12 2 9.98527 2 7.49999C2 5.01471 26.4005 3 56.5 3C86.5995 3 111 5.01471 111 7.49999C111 9.98527 86.5995 12 56.5 12Z" fill="#C0C0C0"/>
<path opacity="0.4098" d="M55 12C25.7289 12 1.99999 9.98527 1.99999 7.49999C1.99999 5.01471 25.7289 3 55 3C84.2711 3 108 5.01471 108 7.49999C108 9.98527 84.2711 12 55 12Z" fill="#BEBEBE"/>
<path opacity="0.4262" d="M53 12C24.2812 12 1 9.98528 1 7.5C1 5.01472 24.2812 3 53 3C81.7188 3 105 5.01472 105 7.5C105 9.98528 81.7188 12 53 12Z" fill="#BBBBBB"/>
<path opacity="0.4426" d="M52.5 12C24.6096 12 2 9.98528 2 7.5C2 5.01472 24.6096 3 52.5 3C80.3904 3 103 5.01472 103 7.5C103 9.98528 80.3904 12 52.5 12Z" fill="#B9B9B9"/>
<path opacity="0.459" d="M51 11C23.9381 11 2 9.20914 2 7C2 4.79086 23.9381 3 51 3C78.062 3 100 4.79086 100 7C100 9.20914 78.062 11 51 11Z" fill="#B6B6B6"/>
<path opacity="0.4754" d="M49.5 11C23.2665 11 2 9.20913 2 6.99999C2 4.79085 23.2665 3 49.5 3C75.7335 3 97 4.79085 97 6.99999C97 9.20913 75.7335 11 49.5 11Z" fill="#B3B3B3"/>
<path opacity="0.4918" d="M48 12C22.5949 12 2 10.2091 2 7.99999C2 5.79085 22.5949 4 48 4C73.4051 4 94 5.79085 94 7.99999C94 10.2091 73.4051 12 48 12Z" fill="#B1B1B1"/>
<path opacity="0.5082" d="M47.5 12C22.9233 12 3 10.2091 3 8C3 5.79086 22.9233 4 47.5 4C72.0767 4 92 5.79086 92 8C92 10.2091 72.0767 12 47.5 12Z" fill="#AEAEAE"/>
<path opacity="0.5246" d="M46 11C22.2517 11 3 9.43299 3 7.5C3 5.56701 22.2517 4 46 4C69.7482 4 89 5.56701 89 7.5C89 9.43299 69.7482 11 46 11Z" fill="#ACACAC"/>
<path opacity="0.541" d="M44 11C20.804 11 2 9.433 2 7.5C2 5.567 20.804 4 44 4C67.196 4 86 5.567 86 7.5C86 9.433 67.196 11 44 11Z" fill="#A9A9A9"/>
<path opacity="0.5574" d="M42.5 11C20.1325 11 2 9.433 2 7.5C2 5.567 20.1325 4 42.5 4C64.8675 4 83 5.567 83 7.5C83 9.433 64.8675 11 42.5 11Z" fill="#A6A6A6"/>
<path opacity="0.5738" d="M41 11C19.4609 11 2 9.43299 2 7.49999C2 5.567 19.4609 4 41 4C62.5391 4 80 5.567 80 7.49999C80 9.43299 62.5391 11 41 11Z" fill="#A4A4A4"/>
<path opacity="0.5902" d="M40.5 10C19.7893 10 3 8.65685 3 6.99999C3 5.34314 19.7893 4 40.5 4C61.2107 4 78 5.34314 78 6.99999C78 8.65685 61.2107 10 40.5 10Z" fill="#A1A1A1"/>
<path opacity="0.6066" d="M39 10C19.1177 10 3 8.65685 3 7C3 5.34315 19.1177 4 39 4C58.8822 4 75 5.34315 75 7C75 8.65685 58.8822 10 39 10Z" fill="#9F9F9F"/>
<path opacity="0.623" d="M37.5 11C18.4462 11 3 9.65685 3 8C3 6.34315 18.4462 5 37.5 5C56.5538 5 72 6.34315 72 8C72 9.65685 56.5538 11 37.5 11Z" fill="#9C9C9C"/>
<path opacity="0.6393" d="M36 11C17.7746 11 3 9.65686 3 8C3 6.34314 17.7746 5 36 5C54.2254 5 69 6.34314 69 8C69 9.65686 54.2254 11 36 11Z" fill="#999999"/>
<path opacity="0.6557" d="M34.5 11C17.103 11 3 9.65684 3 7.99999C3 6.34314 17.103 5 34.5 5C51.897 5 66 6.34314 66 7.99999C66 9.65684 51.897 11 34.5 11Z" fill="#979797"/>
<path opacity="0.6721" d="M33.5 10C16.6553 10 3 8.88071 3 7.49999C3 6.11928 16.6553 5 33.5 5C50.3447 5 64 6.11928 64 7.49999C64 8.88071 50.3447 10 33.5 10Z" fill="#949494"/>
<path opacity="0.6885" d="M32 10C15.9837 10 3 8.88071 3 7.5C3 6.11929 15.9837 5 32 5C48.0162 5 61 6.11929 61 7.5C61 8.88071 48.0162 10 32 10Z" fill="#929292"/>
<path opacity="0.7049" d="M30.5 10C15.3122 10 3 8.88071 3 7.5C3 6.11929 15.3122 5 30.5 5C45.6878 5 58 6.11929 58 7.5C58 8.88071 45.6878 10 30.5 10Z" fill="#8F8F8F"/>
<path opacity="0.7213" d="M29 10C14.6406 10 3 8.88071 3 7.5C3 6.11929 14.6406 5 29 5C43.3594 5 55 6.11929 55 7.5C55 8.88071 43.3594 10 29 10Z" fill="#8C8C8C"/>
<path opacity="0.7377" d="M28.5 9C14.969 9 4 8.10457 4 7C4 5.89543 14.969 5 28.5 5C42.031 5 53 5.89543 53 7C53 8.10457 42.031 9 28.5 9Z" fill="#8A8A8A"/>
<path opacity="0.7541" d="M27 9C14.2974 9 4 8.10456 4 6.99999C4 5.89542 14.2974 5 27 5C39.7025 5 50 5.89542 50 6.99999C50 8.10456 39.7025 9 27 9Z" fill="#878787"/>
<path opacity="0.7705" d="M25.5 10C13.6259 10 4 9.10456 4 7.99999C4 6.89542 13.6259 6 25.5 6C37.3741 6 47 6.89542 47 7.99999C47 9.10456 37.3741 10 25.5 10Z" fill="#848484"/>
<path opacity="0.7869" d="M23.5 10C12.1782 10 3 9.10457 3 8C3 6.89543 12.1782 6 23.5 6C34.8218 6 44 6.89543 44 8C44 9.10457 34.8218 10 23.5 10Z" fill="#828282"/>
<path opacity="0.8033" d="M41 7.5C41 8.33077 32.5 9 22 9C11.5132 9 3 8.33077 3 7.5C3 6.66923 11.5 6 22 6C32.4868 6 41 6.66923 41 7.5Z" fill="#7F7F7F"/>
<path opacity="0.8197" d="M21.5 9C11.835 9 4 8.32843 4 7.5C4 6.67157 11.835 6 21.5 6C31.165 6 39 6.67157 39 7.5C39 8.32843 31.165 9 21.5 9Z" fill="#7D7D7D"/>
<path opacity="0.8361" d="M20 9C11.1634 9 4 8.32842 4 7.49999C4 6.67157 11.1634 6 20 6C28.8366 6 36 6.67157 36 7.49999C36 8.32842 28.8366 9 20 9Z" fill="#7A7A7A"/>
<path opacity="0.8525" d="M18.5 9C10.4919 9 4 8.32842 4 7.49999C4 6.67156 10.4919 6 18.5 6C26.5081 6 33 6.67156 33 7.49999C33 8.32842 26.5081 9 18.5 9Z" fill="#777777"/>
<path opacity="0.8689" d="M17 8C9.8203 8 4 7.55228 4 7C4 6.44772 9.8203 6 17 6C24.1797 6 30 6.44772 30 7C30 7.55228 24.1797 8 17 8Z" fill="#757575"/>
<path opacity="0.8852" d="M27 7C27 7.55294 21.8532 8 15.5 8C9.14676 8 4 7.55294 4 7C4 6.44706 9.14676 6 15.5 6C21.8661 6.01176 27 6.45882 27 7Z" fill="#727272"/>
<path opacity="0.9016" d="M14.5 9C8.70101 9 4 8.55229 4 8C4 7.44771 8.70101 7 14.5 7C20.299 7 25 7.44771 25 8C25 8.55229 20.299 9 14.5 9Z" fill="#707070"/>
<path opacity="0.918" d="M22 7.99999C22 8.55223 17.966 9 13 9C8.03402 9 4 8.55223 4 7.99999C4 7.44775 8.03402 7 13 7C17.966 7 22 7.46268 22 7.99999Z" fill="#6D6D6D"/>
<path opacity="0.9344" d="M11.5 9C7.35787 9 4 8.55228 4 7.99999C4 7.4477 7.35787 7 11.5 7C15.6421 7 19 7.4477 19 7.99999C19 8.55228 15.6421 9 11.5 9Z" fill="#6A6A6A"/>
<path opacity="0.9508" d="M16 7.49999C16 7.78124 13.3085 8 10 8C6.69147 8 4 7.77083 4 7.49999C4 7.21874 6.69147 7 10 7C13.3085 7 16 7.22916 16 7.49999Z" fill="#686868"/>
<path opacity="0.9672" d="M13 7.5C13 7.78205 10.9899 8 8.5 8C6.01008 8 4 7.76923 4 7.5C4 7.21795 6.01008 7 8.5 7C10.9899 7 13 7.23077 13 7.5Z" fill="#656565"/>
<path opacity="0.9836" d="M11 7.5C11 7.78333 9.66386 8 7.99999 8C6.34873 8 5 7.76667 5 7.5C5 7.21667 6.33613 7 7.99999 7C9.65125 7 11 7.23333 11 7.5Z" fill="#636363"/>
<path d="M8 7.5C8 7.78572 7.33202 8 6.49999 8C5.66796 8 5 7.78572 5 7.5C5 7.21428 5.66796 7 6.49999 7C7.33202 7 8 7.23809 8 7.5Z" fill="#606060"/>
</g>
</svg>
