<?xml version="1.0" encoding="utf-8"?>
<!-- Generator: Adobe Illustrator 25.2.0, SVG Export Plug-In . SVG Version: 6.00 Build 0)  -->
<svg version="1.1" id="Слой_1" xmlns="http://www.w3.org/2000/svg" xmlns:xlink="http://www.w3.org/1999/xlink" x="0px" y="0px"
	 viewBox="0 0 60.02 80.84" style="enable-background:new 0 0 60.02 80.84;" xml:space="preserve">
<style type="text/css">
	.st0{fill-rule:evenodd;clip-rule:evenodd;fill:#00529C;}
	.st1{fill:#FFFFFF;}
</style>
<g>
	<g>
		<path class="st0" d="M51.41,13.64v5.14v43.7v5.14c0,2.83-2.31,5.14-5.14,5.14h-5.14H23.13h-5.14c-2.83,0-5.14-2.31-5.14-5.14
			v-5.14V23.71v-4.93L23.13,8.5h7.89h10.1h5.14C49.1,8.5,51.41,10.81,51.41,13.64z"/>
		<path class="st1" d="M32.13,45.75L32.13,45.75c-1.18,0-2.13-0.95-2.13-2.13v-4.03c0-0.65,0.53-1.18,1.18-1.18h1.9
			c0.65,0,1.18,0.53,1.18,1.18v4.03C34.26,44.8,33.31,45.75,32.13,45.75z"/>
		<path class="st1" d="M43.95,47.69l-0.59-1.81c-0.2-0.62-0.86-0.96-1.48-0.76L34.9,47.4l-0.36,0.12l-0.77,0.25
			c-1.06,0.35-2.22,0.35-3.28,0l-1.09-0.36l-0.55-0.18l-6.46-2.1c-0.62-0.2-1.28,0.14-1.48,0.75l-0.59,1.81
			c-0.2,0.62,0.14,1.28,0.76,1.48l6.97,2.26c0.32,0.11,0.45,0.5,0.25,0.77l-4.31,5.93c-0.38,0.53-0.27,1.26,0.26,1.65l1.53,1.12
			c0.53,0.38,1.26,0.27,1.65-0.26l4.31-5.93c0.2-0.28,0.61-0.28,0.81,0l4.3,5.93c0.38,0.53,1.12,0.64,1.65,0.26l1.54-1.12
			c0.53-0.38,0.64-1.12,0.26-1.65l-4.3-5.93c-0.2-0.28-0.08-0.67,0.25-0.77l6.97-2.26C43.81,48.97,44.15,48.31,43.95,47.69z
			 M32.13,50.53L32.13,50.53L32.13,50.53L32.13,50.53L32.13,50.53z"/>
	</g>
</g>
</svg>
