<svg width="64" height="64" viewBox="0 0 64 64" fill="none" xmlns="http://www.w3.org/2000/svg" style="
    border-radius: 50%;
">
<rect width="64" height="64" fill="white"/>
<path d="M29.0312 25.1711C29.9349 24.1462 31.0446 23.6172 32.4082 23.7454C33.6895 23.8736 34.683 24.5057 35.4551 25.5647C36.408 26.8887 36.4327 28.9724 35.4551 30.3733C35.1676 30.7833 34.8065 31.1337 34.4697 31.4924C34.3383 31.6376 34.273 31.7489 34.3223 31.9709C35.037 35.0802 35.7353 38.1898 36.4336 41.2991C37.0826 44.2032 37.7307 47.1078 38.3633 50.012C38.47 50.4988 38.5118 51.003 38.5693 51.4983C38.6021 51.7886 38.5283 52.0622 38.3477 52.2756C38.1095 52.5489 37.8464 52.8046 37.5918 53.0608C37.4357 53.2145 37.2136 53.3 37 53.3H27.2236V53.2913C27.043 53.2912 26.8704 53.2316 26.7227 53.1292C26.5996 53.0439 26.485 52.9583 26.3701 52.8645C25.7048 52.335 25.4824 51.6177 25.6465 50.7893C25.9176 49.4312 26.2214 48.0725 26.5254 46.7229C27.1826 43.7759 27.857 40.8291 28.5225 37.8821C28.9414 36.02 29.3353 34.1492 29.7461 32.2786C29.7625 32.2018 29.7626 32.1164 29.7871 32.0481C29.861 31.7748 29.8115 31.5783 29.5732 31.3733C28.9736 30.8608 28.5053 30.2285 28.2178 29.4768C28.1274 29.2462 28.0867 28.9813 28.0703 28.7336C28.0457 28.3834 28.0784 28.0331 28.0537 27.6829C27.9798 26.6749 28.4069 25.8716 29.0312 25.1711ZM19.3135 10.3831C19.8802 9.94749 20.4385 9.92193 21.0381 10.3147C21.7938 10.8016 22.1804 11.8094 21.8848 12.6038C21.7944 12.8429 21.6055 13.0565 21.4248 13.2444C20.7347 13.9363 19.9873 14.5689 19.3301 15.2864C16.7341 18.1052 15.1156 21.4452 14.5898 25.3147C13.9328 30.1492 14.9676 34.5821 17.6455 38.5881C19.0748 40.732 20.8986 42.4492 23.0508 43.7903C23.289 43.9355 23.519 44.0899 23.749 44.2522C24.398 44.7305 24.6363 45.4561 24.3652 46.2249C24.2584 46.5238 24.1024 46.8228 23.9053 47.0706C23.4535 47.6427 22.8297 47.8049 22.1973 47.4719C21.6058 47.1644 21.0221 46.8143 20.4717 46.4299C17.5389 44.3969 15.1978 41.7828 13.4727 38.5881C12.2323 36.2905 11.4681 33.8136 11.082 31.217C10.9999 30.6704 10.9829 30.1063 10.9336 29.551C10.9254 29.4401 10.909 29.3377 10.8926 29.2268C10.9008 28.4154 10.9014 27.6037 10.9014 26.7922C10.926 26.4335 10.9588 26.066 10.9834 25.7073C11.082 24.4005 11.3533 23.1279 11.6982 21.8723C12.9223 17.4647 15.2713 13.8252 18.6641 10.9124C18.8777 10.733 19.0917 10.5539 19.3135 10.3831ZM42.7676 10.5715C43.1865 10.1274 43.6878 9.87948 44.2793 10.1272C44.575 10.2468 44.8547 10.4261 45.1094 10.6311C46.4319 11.6817 47.5988 12.8942 48.6338 14.2522C50.0632 16.1314 51.1797 18.1991 51.9766 20.4456C52.527 21.9917 52.8804 23.5806 53.0693 25.2122C53.1186 25.6307 53.1601 26.0407 53.2012 26.4592C53.2094 27.2707 53.209 28.0824 53.209 28.8938C53.1926 28.9706 53.1768 29.0475 53.1768 29.1243C53.1768 30.8924 52.8722 32.6093 52.3711 34.2834C51.0732 38.6483 48.7319 42.2869 45.3311 45.1741C44.3207 46.0282 43.2281 46.763 42.0781 47.4036C41.3307 47.8221 40.7469 47.5495 40.3115 47.0969C39.7365 46.499 39.5234 45.5081 39.8848 44.8674C40.0572 44.5686 40.3195 44.3034 40.5986 44.1155C41.5269 43.4834 42.464 42.8681 43.3184 42.1165C46.6536 39.2037 48.7152 35.5304 49.4463 31.0715C50.1938 26.5273 49.3726 22.2737 47.0889 18.3274C46.2099 16.807 45.068 15.5086 43.8193 14.3127C43.499 14.0053 43.1867 13.6808 42.8418 13.4075C41.6755 12.4766 42.0531 11.3318 42.7676 10.5715ZM22.3105 15.509C22.976 14.9111 23.6748 14.9712 24.332 15.5862C24.9316 16.1413 25.1289 16.8418 24.9648 17.636C24.9238 17.8239 24.7754 18.0125 24.6357 18.1663C24.1018 18.747 23.5347 19.2933 23.0254 19.8997C21.5056 21.7276 20.5283 23.8297 20.249 26.2385C19.7809 30.2615 20.8485 33.7807 23.5674 36.719C24.011 37.1888 24.5206 37.5995 24.9971 38.0266C25.0792 38.1034 25.162 38.1712 25.2441 38.2395C26.4678 39.1791 25.7613 41.1349 24.71 41.511C24.3403 41.6391 23.9948 41.6481 23.6416 41.4602C22.9353 41.093 22.3439 40.5549 21.7607 40.0168C19.2798 37.7106 17.6943 34.8571 16.9385 31.5002C16.6838 30.3385 16.5689 29.168 16.5771 28.4504C16.5854 25.5635 17.1022 23.2657 18.0879 21.0706C19.0737 18.8667 20.5607 17.0722 22.3105 15.509ZM40.1221 15.2961C40.5903 15.0228 41.0662 15.0056 41.5098 15.3215C41.945 15.629 42.3644 15.9702 42.7422 16.3459C44.9685 18.5498 46.3733 21.2581 47.1455 24.3333C47.4494 25.5461 47.441 26.793 47.4492 28.0315C47.482 28.04 47.4988 28.0403 47.5234 28.0403C47.4495 29.0139 47.458 30.0046 47.2773 30.9612C46.6859 34.0277 45.4285 36.7618 43.3008 39.0168C42.5861 39.777 41.8467 40.5032 41.0088 41.1096C40.8363 41.2292 40.6553 41.3314 40.4746 41.4338C40.064 41.6729 39.6534 41.6309 39.251 41.3918C38.5116 40.9391 38.1095 39.9394 38.3066 39.0852C38.3888 38.7264 38.6188 38.4787 38.8652 38.2395C39.621 37.5306 40.4255 36.8639 41.0908 36.0696C42.701 34.1562 43.6623 31.9181 43.917 29.3811C44.3359 25.2042 42.9638 21.7108 40.1133 18.7981C39.834 18.5162 39.555 18.2255 39.3086 17.9094C39.0211 17.5421 38.9635 17.1148 39.1113 16.6536C39.3003 16.0728 39.6046 15.6036 40.1221 15.2961ZM26.1562 20.2834C26.8216 20.1895 27.2981 20.5056 27.6924 20.9924C28.3085 21.7526 28.334 22.419 27.7754 23.2219C27.4139 23.743 26.9784 24.2216 26.6826 24.7854C25.6477 26.7327 25.5896 28.7397 26.4766 30.7639C26.6737 31.2166 26.9121 31.6613 27.1914 32.0627C27.6679 32.7546 27.4954 33.8649 27.0107 34.4202C26.904 34.5397 26.7892 34.6597 26.666 34.7708C26.0254 35.3343 25.4091 35.3173 24.8096 34.7112C24.0949 34.0023 23.6099 33.1307 23.1992 32.2083C22.5913 30.8501 22.3119 29.4228 22.3037 27.928C22.2956 25.2887 23.2651 23.0507 24.8916 21.0862C25.2201 20.6849 25.6143 20.3604 26.1562 20.2834ZM36.4814 20.8625C37.1715 20.1281 38.1978 20.0516 38.9043 20.7776C40.5144 22.4347 41.5003 24.4163 41.7139 26.7825C41.7303 27.0045 41.7472 27.2265 41.7637 27.4485C41.7801 27.6706 41.7887 27.8932 41.7969 28.175C41.7803 30.5153 40.9998 32.6338 39.5459 34.4788C38.8641 35.3415 37.935 35.3331 37.2285 34.4875C37.0478 34.274 36.9007 34.0257 36.7939 33.761C36.5639 33.1801 36.6044 32.6248 36.9248 32.0696C37.2533 31.5059 37.5899 30.9423 37.8281 30.3274C38.7235 27.9956 38.2722 25.8515 36.8594 23.887C36.6951 23.665 36.539 23.434 36.3584 23.2375C35.7176 22.5457 36.0214 21.358 36.4814 20.8625Z" fill="#003366"/>
</svg>
