<svg width="32" height="32" viewBox="0 0 32 32" fill="none" xmlns="http://www.w3.org/2000/svg">
<path d="M24.226 18.274C24.2315 16.7526 23.8447 15.2573 23.1057 13.9431C22.3667 12.6289 21.3024 11.5435 20.0231 10.7995C18.7437 10.0554 17.2958 9.67972 15.8294 9.71131C14.363 9.74291 12.9314 10.1806 11.6829 10.9792C10.4345 11.7777 9.41452 12.9079 8.72878 14.2529C8.04305 15.5978 7.71646 17.1084 7.78285 18.6283C7.84923 20.1482 8.30619 21.622 9.10636 22.8971C9.90654 24.1721 11.0208 25.2021 12.3338 25.8802V30.0734C12.3399 30.3213 12.4392 30.5569 12.6104 30.73C12.7817 30.9031 13.0113 30.9999 13.2504 30.9998H18.7499C18.989 30.9999 19.2187 30.9031 19.3899 30.73C19.5611 30.5569 19.6604 30.3213 19.6665 30.0734V25.8071C21.0208 25.1078 22.163 24.0346 22.9674 22.7056C23.7718 21.3765 24.2073 19.8432 24.226 18.274V18.274Z" stroke="#2C3E50" stroke-width="2" stroke-linecap="round" stroke-linejoin="round"/>
<path d="M16.4839 1V4.87097" stroke="#2C3E50" stroke-width="2" stroke-linecap="round" stroke-linejoin="round"/>
<path d="M25.1938 4.87109L23.2583 7.77432" stroke="#2C3E50" stroke-width="2" stroke-linecap="round" stroke-linejoin="round"/>
<path d="M30.9999 11.645H27.1289" stroke="#2C3E50" stroke-width="2" stroke-linecap="round" stroke-linejoin="round"/>
<path d="M5.83887 4.87109L7.77435 7.77432" stroke="#2C3E50" stroke-width="2" stroke-linecap="round" stroke-linejoin="round"/>
<path d="M1 11.645H4.87097" stroke="#2C3E50" stroke-width="2" stroke-linecap="round" stroke-linejoin="round"/>
</svg>
