<svg width="119" height="30" viewBox="0 0 119 30" fill="none" xmlns="http://www.w3.org/2000/svg">
<g clip-path="url(#clip0_9010_149498)">
<path fill-rule="evenodd" clip-rule="evenodd" d="M14.4204 29.9636C7.62255 29.9636 4.22362 29.9636 2.11182 27.8573C4.88364e-07 25.751 3.52909e-07 22.361 5.32063e-08 15.581L2.25746e-10 14.3824C-2.99478e-07 7.60244 -4.88364e-07 4.21243 2.11181 2.10615C4.22362 4.87082e-07 7.62255 3.45992e-07 14.4203 5.2162e-08L15.6221 2.19443e-10C22.4199 -2.93614e-07 25.8188 -4.87082e-07 27.9306 2.10615C30.0424 4.2124 30.0424 7.60244 30.0424 14.3824V15.581C30.0424 22.361 30.0424 25.751 27.9306 27.8573C25.8188 29.9636 22.4199 29.9636 15.6221 29.9636H14.4204Z" fill="#0077FF"/>
<path d="M17.4009 18.4765C16.5912 18.2744 16.0234 17.5506 16.0234 16.7206V6.94122C16.0234 5.9984 16.915 5.30694 17.8347 5.53649L23.6587 6.99026C24.4684 7.19235 25.0362 7.91609 25.0362 8.74617V18.5255C25.0362 19.4683 24.1446 20.1598 23.2249 19.9303L17.4009 18.4765Z" fill="white"/>
<path d="M6.38524 22.9687C5.57553 22.7666 5.00781 22.0429 5.00781 21.2128V11.4334C5.00781 10.4906 5.89938 9.79912 6.81905 10.0287L12.6431 11.4825C13.4528 11.6845 14.0205 12.4083 14.0205 13.2384V23.0177C14.0205 23.9605 13.1289 24.652 12.2093 24.4225L6.38524 22.9687Z" fill="white"/>
<path d="M11.8931 20.9765C11.0833 20.7744 10.5156 20.0506 10.5156 19.2206V9.44126C10.5156 8.49843 11.4072 7.80693 12.3269 8.03649L18.1509 9.49026C18.9606 9.69238 19.5284 10.4161 19.5284 11.2462V21.0255C19.5284 21.9684 18.6368 22.6598 17.7171 22.4303L11.8931 20.9765Z" fill="white"/>
<path d="M15.5231 21.4722C15.2573 21.4076 15.0682 21.1832 15.0589 20.9216L14.795 13.4859C14.7186 12.5018 13.9535 11.7191 13.1541 11.4886C13.1092 11.4757 13.0612 11.4931 13.0347 11.53C13.0077 11.5674 13.0181 11.6193 13.0558 11.6472C13.2532 11.7931 13.7966 12.2693 13.7966 13.0907L13.795 21.0541L15.5231 21.4722Z" fill="#0077FF"/>
<path d="M21.0309 19.48C20.7654 19.4166 20.576 19.1928 20.5668 18.9316L20.3027 11.4943C20.2264 10.5099 19.4614 9.72699 18.6619 9.49644C18.617 9.48349 18.5691 9.50092 18.5425 9.5378C18.5154 9.57528 18.5259 9.62718 18.5636 9.65504C18.761 9.80101 19.3044 10.2774 19.3044 11.099L19.3028 19.0674L21.0309 19.48Z" fill="#0077FF"/>
<path d="M47.3282 22.271C49.6012 21.6972 51.0948 19.9759 51.0948 17.7233C51.0948 14.9394 48.8433 12.9844 45.6829 12.9844H40.0547V27.9662H42.6524V22.4622H44.4925L48.5186 27.9662H51.571L47.3282 22.271ZM45.6829 15.322C47.3064 15.322 48.4323 16.2995 48.4323 17.7233C48.4323 19.1471 47.3064 20.1246 45.6829 20.1246H42.6524V15.322H45.6829Z" fill="white"/>
<path d="M57.3378 28.4626C58.7152 28.4626 59.9833 27.7474 60.7051 26.5555L61.2077 28.2459H63.0884V16.9766H60.5738V23.4998C60.5738 25.1035 59.5024 26.2304 58.0375 26.2304C56.5944 26.2304 55.5884 25.1035 55.5884 23.4998V16.9766H53.0742V23.7815C53.0742 26.4905 54.9108 28.4626 57.3378 28.4626Z" fill="white"/>
<path d="M70.9077 28.4656C73.7524 28.4656 76.1054 26.8427 76.1054 24.1522C76.1054 21.1413 73.6456 20.2659 71.5281 19.5399C69.8811 18.9847 68.4482 18.4722 68.4482 17.1269C68.4482 15.9525 69.5387 15.3332 70.8221 15.3332C72.1698 15.3332 73.1323 16.0379 73.6671 17.2337L76.1054 16.828C75.3353 14.4791 73.3888 12.9844 70.7368 12.9844C67.9989 12.9844 65.8171 14.5645 65.8171 17.2551C65.8171 20.2872 68.277 21.12 70.3944 21.8247C72.0201 22.3585 73.4744 22.871 73.4744 24.2376C73.4744 25.4334 72.3838 26.1167 70.9292 26.1167C69.2607 26.1167 68.3626 25.3266 67.5713 23.8959L65.0898 24.323C65.8171 26.8641 68.1273 28.4656 70.9077 28.4656Z" fill="white"/>
<path d="M82.7682 26.3052C81.9123 26.3052 81.4952 25.8945 81.4952 25.0515V19.3883H84.8972V17.2267H81.4952V13.9844H79.6076L78.9709 17.2267H77.1055V19.3883H78.9709V25.0515C78.9709 27.2563 80.2661 28.4668 82.7682 28.4668H84.8972L85.1168 26.3052H82.7682Z" fill="white"/>
<path d="M92.1297 28.4626C95.6527 28.4626 98.1381 26.0803 98.1381 22.7196C98.1381 19.3588 95.6527 16.9766 92.1297 16.9766C88.6068 16.9766 86.1211 19.3588 86.1211 22.7196C86.1211 26.0803 88.6068 28.4626 92.1297 28.4626ZM92.1297 26.2292C90.098 26.2292 88.7147 24.8041 88.7147 22.7196C88.7147 20.6351 90.098 19.21 92.1297 19.21C94.1615 19.21 95.5444 20.6351 95.5444 22.7196C95.5444 24.8041 94.1615 26.2292 92.1297 26.2292Z" fill="white"/>
<path d="M102.582 27.9632V21.4769C102.582 20.0824 103.261 19.3007 104.748 19.3007H106.149L105.937 16.9766H105.47C104.174 16.9766 103.176 17.3357 102.433 18.5612L101.966 16.9766H100.141V27.9632H102.582Z" fill="white"/>
<path d="M118.665 22.592C118.665 19.4014 116.276 16.9766 112.907 16.9766C109.537 16.9766 107.148 19.3801 107.148 22.7196C107.148 26.059 109.537 28.4626 112.907 28.4626C115.21 28.4626 117.385 27.3778 118.217 25.272L115.914 24.8892C115.381 25.6762 114.357 26.2292 113.056 26.2292C111.179 26.2292 109.942 25.0806 109.708 23.379H118.622C118.644 23.145 118.665 22.8897 118.665 22.592ZM112.907 19.1036C114.442 19.1036 115.594 20.082 115.999 21.4646H109.857C110.262 20.0395 111.414 19.1036 112.907 19.1036Z" fill="white"/>
<path d="M40.0586 9.76864V7.52137H40.2017C40.3871 7.52137 40.5355 7.47472 40.6468 7.38143C40.7581 7.28814 40.8508 7.10155 40.925 6.82167C41.0045 6.5363 41.0654 6.11648 41.1078 5.56221L41.3383 2.5H44.8676V7.52137H45.6863V9.76864H44.8676V8.30338H40.8773V9.76864H40.0586ZM44.0489 7.52137V3.28202H42.0935L41.9266 5.60337C41.863 6.53081 41.6987 7.17015 41.4337 7.52137H44.0489Z" fill="white"/>
<path d="M48.2889 8.3857C47.8703 8.3857 47.4967 8.29241 47.1682 8.10582C46.8396 7.91924 46.5826 7.65856 46.3971 7.32381C46.2116 6.98905 46.1189 6.60764 46.1189 6.17959C46.1189 5.75154 46.2116 5.37014 46.3971 5.03538C46.5826 4.70062 46.8396 4.43995 47.1682 4.25336C47.4967 4.06129 47.8703 3.96525 48.2889 3.96525C48.7076 3.96525 49.0812 4.06129 49.4097 4.25336C49.7383 4.43995 49.9953 4.70062 50.1807 5.03538C50.3662 5.37014 50.4589 5.75154 50.4589 6.17959C50.4589 6.60764 50.3662 6.98905 50.1807 7.32381C49.9953 7.65856 49.7383 7.91924 49.4097 8.10582C49.0812 8.29241 48.7076 8.3857 48.2889 8.3857ZM48.2889 7.64484C48.6917 7.64484 49.0176 7.51039 49.2666 7.24149C49.521 6.97258 49.6482 6.61862 49.6482 6.17959C49.6482 5.74057 49.521 5.3866 49.2666 5.1177C49.0176 4.84331 48.6917 4.70611 48.2889 4.70611C47.8862 4.70611 47.5603 4.84331 47.3112 5.1177C47.0622 5.3866 46.9376 5.74057 46.9376 6.17959C46.9376 6.61313 47.0622 6.9671 47.3112 7.24149C47.5603 7.51039 47.8862 7.64484 48.2889 7.64484Z" fill="white"/>
<path d="M53.1861 8.3857C52.7781 8.3857 52.4098 8.29241 52.0812 8.10582C51.758 7.91375 51.5063 7.65033 51.3261 7.31557C51.1459 6.98082 51.0558 6.60216 51.0558 6.17959C51.0558 5.75154 51.1459 5.37014 51.3261 5.03538C51.5063 4.70062 51.758 4.43995 52.0812 4.25336C52.4045 4.06129 52.7728 3.96525 53.1861 3.96525C53.626 3.96525 54.0181 4.07501 54.3625 4.29452C54.7123 4.51404 54.9613 4.82959 55.1097 5.24117L54.3784 5.36465C54.2831 5.16709 54.132 5.00794 53.9254 4.88721C53.724 4.76648 53.4935 4.70611 53.2338 4.70611C52.8311 4.70611 52.5025 4.84331 52.2482 5.1177C51.9991 5.39209 51.8746 5.74605 51.8746 6.17959C51.8746 6.61313 51.9991 6.9671 52.2482 7.24149C52.5025 7.51039 52.8311 7.64484 53.2338 7.64484C53.5041 7.64484 53.7425 7.58173 53.9492 7.45551C54.1612 7.32929 54.3148 7.16191 54.4102 6.95338L55.1415 7.07685C54.9931 7.49393 54.7388 7.81771 54.3784 8.0482C54.0234 8.2732 53.626 8.3857 53.1861 8.3857Z" fill="white"/>
<path d="M57.5466 8.30338H56.7676V4.78843H55.3448V4.04757H58.9694V4.78843H57.5466V8.30338Z" fill="white"/>
<path d="M62.6495 4.04757H63.4523L61.7354 8.94546C61.6082 9.31315 61.4413 9.57931 61.2346 9.74394C61.028 9.90858 60.7524 9.99089 60.408 9.99089H59.7959L59.7244 9.25004H60.4556C60.6093 9.25004 60.7286 9.21437 60.8133 9.14302C60.8981 9.07717 60.9697 8.95918 61.028 8.78906L61.1154 8.54211L59.2872 4.04757H60.1218L61.4254 7.33204H61.5367L62.6495 4.04757Z" fill="white"/>
<path d="M64.9357 8.30338H64.1567V4.04757H67.6542V8.30338H66.8752V4.78843H64.9357V8.30338Z" fill="white"/>
<path d="M71.4871 5.78447V4.04757H72.266V8.30338H71.4871V6.52533H69.5078V8.30338H68.7288V4.04757H69.5078V5.78447H71.4871Z" fill="white"/>
<path d="M75.2713 8.3857C74.8527 8.3857 74.4791 8.29241 74.1505 8.10582C73.822 7.91924 73.565 7.65856 73.3795 7.32381C73.194 6.98905 73.1013 6.60764 73.1013 6.17959C73.1013 5.75154 73.194 5.37014 73.3795 5.03538C73.565 4.70062 73.822 4.43995 74.1505 4.25336C74.4791 4.06129 74.8527 3.96525 75.2713 3.96525C75.6899 3.96525 76.0635 4.06129 76.3921 4.25336C76.7206 4.43995 76.9776 4.70062 77.1631 5.03538C77.3486 5.37014 77.4413 5.75154 77.4413 6.17959C77.4413 6.60764 77.3486 6.98905 77.1631 7.32381C76.9776 7.65856 76.7206 7.91924 76.3921 8.10582C76.0635 8.29241 75.6899 8.3857 75.2713 8.3857ZM75.2713 7.64484C75.674 7.64484 75.9999 7.51039 76.249 7.24149C76.5034 6.97258 76.6305 6.61862 76.6305 6.17959C76.6305 5.74057 76.5034 5.3866 76.249 5.1177C75.9999 4.84331 75.674 4.70611 75.2713 4.70611C74.8686 4.70611 74.5427 4.84331 74.2936 5.1177C74.0445 5.3866 73.92 5.74057 73.92 6.17959C73.92 6.61313 74.0445 6.9671 74.2936 7.24149C74.5427 7.51039 74.8686 7.64484 75.2713 7.64484Z" fill="white"/>
<path d="M82.9127 6.07258C83.1246 6.1549 83.2942 6.28935 83.4214 6.47594C83.5539 6.65703 83.6201 6.87106 83.6201 7.11801C83.6201 7.34301 83.5565 7.54606 83.4293 7.72716C83.3075 7.90826 83.1352 8.05094 82.9127 8.15521C82.6901 8.25399 82.4357 8.30338 82.1496 8.30338H80.1862V4.04757H82.0781C82.3483 4.04757 82.5894 4.09696 82.8014 4.19574C83.0134 4.29452 83.1776 4.42897 83.2942 4.5991C83.4161 4.76922 83.477 4.96404 83.477 5.18355C83.477 5.39209 83.4267 5.57319 83.326 5.72685C83.2306 5.87502 83.0928 5.99026 82.9127 6.07258ZM80.9652 4.7308V5.77624H82.0781C82.2582 5.77624 82.4066 5.72959 82.5232 5.6363C82.6398 5.53752 82.6981 5.4113 82.6981 5.25764C82.6981 5.10398 82.6398 4.97776 82.5232 4.87898C82.4066 4.7802 82.2582 4.7308 82.0781 4.7308H80.9652ZM82.1496 7.62015C82.3563 7.62015 82.5232 7.56527 82.6504 7.45551C82.7775 7.34576 82.8411 7.20307 82.8411 7.02746C82.8411 6.85185 82.7775 6.70917 82.6504 6.59941C82.5232 6.48966 82.3563 6.43478 82.1496 6.43478H80.9652V7.62015H82.1496Z" fill="white"/>
</g>
<defs>
<clipPath id="clip0_9010_149498">
<rect width="118.668" height="29.9636" fill="white"/>
</clipPath>
</defs>
</svg>
