<svg width="104" height="24" viewBox="0 0 104 24" fill="none" xmlns="http://www.w3.org/2000/svg">
<path fill-rule="evenodd" clip-rule="evenodd" d="M15.4565 12.409C15.4666 11.5162 15.6975 10.6404 16.1277 9.86268C16.5579 9.08495 17.1735 8.43039 17.9176 7.95954C17.4478 7.26921 16.8261 6.70051 16.1022 6.29894C15.3783 5.89737 14.5723 5.67406 13.7486 5.64686C11.9951 5.45935 10.2942 6.72462 9.40088 6.72462C8.49 6.72462 7.11317 5.6665 5.63124 5.69776C4.67096 5.73073 3.73555 6.01742 2.91661 6.52973C2.09767 7.04204 1.42328 7.76241 0.959491 8.6203C-1.06108 12.2081 0.446246 17.4817 2.38099 20.3819C3.34967 21.8017 4.48126 23.3884 5.96144 23.3312C7.41009 23.2696 7.95136 22.3847 9.70042 22.3847C11.4328 22.3847 11.9408 23.3312 13.4508 23.2955C15.0054 23.2696 15.9855 21.8695 16.9191 20.4355C17.6151 19.423 18.1504 18.305 18.5053 17.1227C17.6 16.7276 16.8286 16.0702 16.2866 15.2321C15.7446 14.394 15.4559 13.412 15.4565 12.4081V12.409ZM12.6047 3.74046C13.4534 2.69443 13.871 1.35356 13.7696 0C12.4726 0.140214 11.2755 0.775293 10.4186 1.77781C9.56942 2.77054 9.13995 4.06546 9.22396 5.37988C9.87259 5.38625 10.5141 5.24194 11.0999 4.95788C11.6857 4.67383 12.2003 4.25749 12.6047 3.74046Z" fill="white"/>
<path d="M37.8906 5.1116H39.1557C39.2411 5.1116 39.3479 5.10622 39.476 5.09547C39.6041 5.07935 39.7402 5.0471 39.8844 4.99872C40.0285 4.94497 40.1699 4.86972 40.3087 4.77297C40.4529 4.67622 40.581 4.54454 40.6931 4.37791C40.816 4.18687 40.9079 3.9773 40.9653 3.7571C41.04 3.50448 41.0774 3.2008 41.0774 2.84605C41.0814 2.53648 41.0464 2.22764 40.9733 1.92693C40.919 1.67321 40.8066 1.43578 40.645 1.23356C40.4928 1.03798 40.2908 0.887537 40.0605 0.798183C39.8203 0.696059 39.524 0.644996 39.1717 0.644996H37.8906V5.1116ZM37.1299 0H39.0917C39.9724 0 40.6504 0.225748 41.1255 0.677246C41.6005 1.12874 41.8381 1.81674 41.8381 2.74123C41.8381 3.22498 41.7847 3.65498 41.6779 4.03123C41.5712 4.4021 41.4057 4.71654 41.1815 4.97454C40.9465 5.23461 40.6525 5.43374 40.3247 5.55503C39.9778 5.68941 39.5667 5.75659 39.0917 5.75659H37.1299V0ZM43.3123 3.67648C43.3123 3.9291 43.3443 4.15485 43.4084 4.35373C43.4778 4.54722 43.5712 4.71116 43.6886 4.84554C43.806 4.97453 43.9422 5.07397 44.097 5.14385C44.3349 5.24757 44.5988 5.27458 44.8526 5.22116C45.1064 5.16775 45.3375 5.03653 45.5142 4.84554C45.6317 4.71116 45.7224 4.54722 45.7865 4.35373C45.8559 4.15485 45.8906 3.9291 45.8906 3.67648C45.8906 3.42386 45.855 3.20079 45.7865 3.0073C45.7307 2.82363 45.6381 2.65347 45.5142 2.50742C45.3999 2.37532 45.2576 2.27064 45.0979 2.20105C44.9399 2.13193 44.7696 2.09627 44.5974 2.09627C44.4252 2.09627 44.2549 2.13193 44.097 2.20105C43.9401 2.27211 43.8005 2.37665 43.6877 2.50742C43.5712 2.6418 43.4778 2.80842 43.4084 3.0073C43.3409 3.22373 43.3085 3.44967 43.3123 3.67648ZM42.5916 3.67648C42.5916 3.37011 42.6343 3.08523 42.7198 2.82186C42.8052 2.55311 42.9333 2.32199 43.1041 2.12849C43.2777 1.92748 43.4934 1.76777 43.7358 1.66087C44.0092 1.54362 44.3042 1.48593 44.6014 1.49155C44.9324 1.49155 45.2206 1.54799 45.4662 1.66087C45.7171 1.77374 45.9279 1.92961 46.0979 2.12849C46.2696 2.32199 46.3977 2.55311 46.4831 2.82186C46.5685 3.08523 46.6112 3.37011 46.6112 3.67648C46.6112 3.98285 46.5685 4.26773 46.4831 4.5311C46.3977 4.79447 46.2696 5.0256 46.0987 5.22447C45.923 5.42155 45.7073 5.57828 45.4662 5.68403C45.2206 5.79153 44.9324 5.84528 44.6014 5.84528C44.2758 5.84528 43.9875 5.79153 43.7367 5.68403C43.4955 5.57828 43.2798 5.42155 43.1041 5.22447C42.9311 5.02166 42.8004 4.78585 42.7198 4.5311C42.6324 4.25485 42.5891 3.96639 42.5916 3.67648ZM51.6735 5.75659H50.9528L50.1121 2.44292H50.0961L49.2633 5.75659H48.5267L47.1975 1.5883H47.9502L48.887 4.99872H48.903L49.7357 1.5883H50.4804L51.3452 4.99872H51.3612L52.29 1.5883H52.9946L51.6735 5.75659ZM53.8016 1.5883H54.4421V2.24942H54.4581C54.7411 1.74418 55.1894 1.49155 55.8033 1.49155C56.0756 1.49155 56.3024 1.52918 56.4839 1.60443C56.6654 1.67968 56.8131 1.78449 56.9243 1.91886C57.0364 2.05324 57.1138 2.21449 57.1565 2.40261C57.2046 2.58536 57.2286 2.78961 57.2286 3.01536V5.75659H56.548V2.93473C56.548 2.67674 56.4732 2.47249 56.3238 2.32199C56.1743 2.17149 55.9688 2.09624 55.7072 2.09624C55.4991 2.09624 55.3176 2.12849 55.1628 2.19299C55.0181 2.25402 54.8893 2.34782 54.7864 2.46711C54.6827 2.59018 54.6041 2.73265 54.5551 2.88636C54.5051 3.05368 54.4805 3.22764 54.4822 3.40236V5.75659H53.8016V1.5883ZM58.451 0H59.1316V5.75659H58.451V0ZM60.8424 3.67648C60.8424 3.9291 60.8745 4.15485 60.9385 4.35373C61.0079 4.54722 61.1013 4.71116 61.2188 4.84554C61.3362 4.97453 61.4723 5.07397 61.628 5.14385C61.8658 5.24736 62.1296 5.27426 62.3832 5.22085C62.6368 5.16744 62.8677 5.03634 63.0444 4.84554C63.1618 4.71116 63.2526 4.54722 63.3166 4.35373C63.386 4.15485 63.4207 3.9291 63.4207 3.67648C63.4207 3.42386 63.386 3.20079 63.3166 3.0073C63.2609 2.82363 63.1682 2.65347 63.0444 2.50742C62.93 2.37532 62.7878 2.27064 62.628 2.20105C62.4701 2.13193 62.2998 2.09627 62.1276 2.09627C61.9554 2.09627 61.785 2.13193 61.6271 2.20105C61.4706 2.27222 61.3313 2.37675 61.2188 2.50742C61.1013 2.6418 61.0079 2.80842 60.9385 3.0073C60.8711 3.22373 60.8386 3.44967 60.8424 3.67648ZM60.1218 3.67648C60.1218 3.37011 60.1645 3.08523 60.2499 2.82186C60.3353 2.55311 60.4634 2.32199 60.6343 2.12849C60.8081 1.92738 61.0242 1.76766 61.2668 1.66087C61.5177 1.54799 61.806 1.49155 62.1316 1.49155C62.4625 1.49155 62.7508 1.54799 62.9963 1.66087C63.2391 1.7674 63.4552 1.92716 63.6289 2.12849C63.7997 2.32199 63.9278 2.55311 64.0132 2.82186C64.0987 3.08523 64.1414 3.37011 64.1414 3.67648C64.1414 3.98285 64.0987 4.26773 64.0132 4.5311C63.9278 4.79447 63.7997 5.0256 63.6289 5.22447C63.4535 5.42144 63.2381 5.57816 62.9972 5.68403C62.7508 5.79153 62.4634 5.84528 62.1316 5.84528C61.806 5.84528 61.5177 5.79153 61.2668 5.68403C61.026 5.57816 60.8106 5.42144 60.6352 5.22447C60.4618 5.02173 60.3308 4.78592 60.2499 4.5311C60.1626 4.25485 60.1193 3.96639 60.1218 3.67648ZM68.7712 5.74047C68.6538 5.81034 68.491 5.84528 68.2828 5.84528C68.1282 5.85285 67.9765 5.80097 67.8584 5.70016C67.757 5.59803 67.7072 5.4341 67.7072 5.20835C67.5203 5.4341 67.3006 5.59803 67.0497 5.70016C66.7942 5.79874 66.5226 5.84798 66.249 5.84528C66.0622 5.84528 65.8842 5.82378 65.7125 5.78078C65.5568 5.74236 65.41 5.67391 65.2801 5.57922C65.1555 5.48563 65.0541 5.3642 64.9839 5.22447C64.9105 5.0542 64.875 4.86983 64.8798 4.68429C64.8798 4.44779 64.9198 4.25429 64.9999 4.10379C65.08 3.95329 65.1841 3.83235 65.3122 3.74098C65.4456 3.64423 65.5951 3.57167 65.7606 3.52329C65.9314 3.47492 66.1049 3.43461 66.281 3.40236C66.4679 3.36473 66.644 3.33786 66.8095 3.32173C66.9604 3.30385 67.1102 3.27693 67.2579 3.24111C67.3689 3.21224 67.4726 3.16003 67.5622 3.08792C67.6369 3.01805 67.6743 2.91861 67.6743 2.78961C67.6802 2.66265 67.6497 2.53666 67.5862 2.4268C67.5352 2.33776 67.4603 2.26508 67.37 2.21718C67.2781 2.16665 67.1776 2.13384 67.0737 2.12043C66.9677 2.10436 66.8607 2.09627 66.7534 2.09624C66.4652 2.09624 66.225 2.15268 66.0328 2.26555C65.8406 2.37305 65.7365 2.57999 65.7214 2.88636H65.0399C65.0506 2.62836 65.104 2.41067 65.2001 2.2333C65.2962 2.05593 65.4243 1.91349 65.5844 1.80599C65.7446 1.69312 65.926 1.61249 66.1289 1.56412C66.3371 1.51574 66.5586 1.49155 66.7935 1.49155C66.9803 1.49155 67.1645 1.50499 67.346 1.53187C67.5328 1.55874 67.7018 1.61518 67.8504 1.70118C67.9999 1.7818 68.12 1.89736 68.2107 2.04786C68.3015 2.19836 68.3469 2.39455 68.3469 2.63642V4.78104C68.3469 4.94228 68.3558 5.06053 68.3709 5.13578C68.3922 5.21103 68.4563 5.24866 68.563 5.24866C68.6341 5.24636 68.7044 5.23275 68.7712 5.20835V5.74047ZM67.6663 3.60392C67.5654 3.67523 67.4508 3.72465 67.33 3.74904C67.1912 3.77592 67.0453 3.8001 66.8896 3.8216C66.7368 3.8382 66.5846 3.85971 66.4332 3.8861C66.2899 3.90444 66.1498 3.94241 66.0168 3.99898C65.8975 4.05004 65.7929 4.13043 65.7125 4.23279C65.6378 4.32954 65.6004 4.46391 65.6004 4.63591C65.5976 4.7365 65.6197 4.83622 65.6645 4.92616C65.7125 5.00141 65.7712 5.06322 65.8406 5.1116C65.9154 5.15997 66.0008 5.19491 66.0969 5.21641C66.193 5.23791 66.2944 5.24866 66.4011 5.24866C66.6253 5.24866 66.8175 5.2191 66.9776 5.15997C67.1378 5.09547 67.2686 5.01754 67.37 4.92616C67.4714 4.82941 67.5462 4.72729 67.5942 4.61979C67.6391 4.52097 67.6636 4.41399 67.6663 4.30535V3.60392ZM70.0613 3.70873C70.0613 3.90223 70.0853 4.09304 70.1333 4.28116C70.1867 4.46391 70.2641 4.62785 70.3655 4.77297C70.4723 4.9181 70.6057 5.03366 70.7659 5.11966C70.9314 5.20566 71.1235 5.24866 71.3424 5.24866C71.5719 5.24866 71.7668 5.20297 71.9269 5.1116C72.0871 5.02022 72.2178 4.90197 72.3193 4.75685C72.4207 4.60635 72.4927 4.43704 72.5354 4.24891C72.6317 3.86798 72.6317 3.46885 72.5354 3.08792C72.4925 2.90488 72.4138 2.73223 72.3041 2.57999C72.2008 2.43323 72.0634 2.31419 71.9038 2.2333C71.7181 2.13703 71.5111 2.08986 71.3024 2.09624C71.0728 2.09624 70.878 2.14193 70.7178 2.2333C70.5577 2.32467 70.4296 2.44561 70.3335 2.59611C70.2374 2.74661 70.168 2.91861 70.1253 3.11211C70.0823 3.30802 70.0609 3.5081 70.0613 3.70873ZM73.2641 5.75659H72.5835V5.19222H72.5675C72.4595 5.41944 72.271 5.59776 72.039 5.69209C71.7988 5.79422 71.5346 5.84528 71.2472 5.84528C70.9269 5.84528 70.6458 5.78616 70.4056 5.66791C70.1763 5.55419 69.9742 5.39193 69.813 5.19222C69.654 4.98505 69.5345 4.74994 69.4607 4.49885C69.3794 4.22694 69.3389 3.94432 69.3406 3.66035C69.3406 3.36473 69.378 3.08523 69.4527 2.82186C69.5328 2.55849 69.6502 2.33005 69.805 2.13655C69.9652 1.93768 70.1627 1.7818 70.3976 1.66893C70.6378 1.55068 70.9153 1.49155 71.2303 1.49155C71.3371 1.49155 71.4527 1.5023 71.5746 1.5238C71.6974 1.5453 71.8202 1.58293 71.9429 1.63668C72.0657 1.68505 72.1805 1.75224 72.2872 1.83824C72.3993 1.91886 72.4927 2.02099 72.5675 2.14461H72.5835V0H73.2641V5.75659ZM77.3566 3.67648C77.3566 3.9291 77.3886 4.15485 77.4527 4.35373C77.5221 4.54722 77.6155 4.71116 77.7329 4.84554C77.8504 4.97453 77.9865 5.07397 78.1422 5.14385C78.38 5.24736 78.6438 5.27426 78.8973 5.22085C79.1509 5.16744 79.3819 5.03634 79.5585 4.84554C79.676 4.71116 79.7667 4.54722 79.8308 4.35373C79.9002 4.15485 79.9349 3.9291 79.9349 3.67648C79.9349 3.42386 79.9002 3.20079 79.8308 3.0073C79.7751 2.82363 79.6824 2.65347 79.5585 2.50742C79.4442 2.37532 79.3019 2.27064 79.1422 2.20105C78.9843 2.13193 78.8139 2.09627 78.6417 2.09627C78.4696 2.09627 78.2992 2.13193 78.1413 2.20105C77.9848 2.27222 77.8454 2.37675 77.7329 2.50742C77.6155 2.6418 77.5221 2.80842 77.4527 3.0073C77.3852 3.22373 77.3528 3.44967 77.3566 3.67648ZM76.636 3.67648C76.636 3.37011 76.6787 3.08523 76.7641 2.82186C76.8495 2.55311 76.9776 2.32199 77.1484 2.12849C77.3223 1.92738 77.5383 1.76766 77.781 1.66087C78.0319 1.54799 78.3201 1.49155 78.6457 1.49155C78.9767 1.49155 79.265 1.54799 79.5105 1.66087C79.7614 1.77374 79.9723 1.92961 80.1431 2.12849C80.3139 2.32199 80.442 2.55311 80.5274 2.82186C80.6128 3.08523 80.6555 3.37011 80.6555 3.67648C80.6555 3.98285 80.6128 4.26773 80.5274 4.5311C80.442 4.79447 80.3139 5.0256 80.1431 5.22447C79.9674 5.42155 79.7516 5.57828 79.5105 5.68403C79.265 5.79153 78.9767 5.84528 78.6457 5.84528C78.3201 5.84528 78.0319 5.79153 77.781 5.68403C77.5402 5.57816 77.3247 5.42144 77.1493 5.22447C76.976 5.02173 76.845 4.78592 76.7641 4.5311C76.6767 4.25485 76.6335 3.96639 76.636 3.67648ZM81.6181 1.5883H82.2587V2.24942H82.2747C82.5576 1.74418 83.006 1.49155 83.6199 1.49155C83.8922 1.49155 84.119 1.52918 84.3005 1.60443C84.482 1.67968 84.6288 1.78449 84.7409 1.91886C84.853 2.05324 84.9304 2.21449 84.9731 2.40261C85.0212 2.58536 85.0452 2.78961 85.0452 3.01536V5.75659H84.3646V2.93473C84.3646 2.67674 84.2898 2.47249 84.1404 2.32199C83.9909 2.17149 83.7854 2.09624 83.5238 2.09624C83.3156 2.09624 83.1342 2.12849 82.9794 2.19299C82.8346 2.25402 82.7059 2.34782 82.603 2.46711C82.499 2.59011 82.4201 2.73258 82.3708 2.88636C82.3211 3.05372 82.2968 3.22768 82.2987 3.40236V5.75659H81.6181V1.5883ZM89.5612 1.5883H90.3859V2.19299H89.5612V4.78104C89.5612 4.86166 89.5665 4.92616 89.5772 4.97454C89.5911 5.01989 89.6191 5.05949 89.6572 5.08741C89.6946 5.11428 89.7453 5.1331 89.8094 5.14385C89.8788 5.14922 89.9669 5.15191 90.0736 5.15191H90.3859V5.75659H89.8654C89.6893 5.75659 89.5371 5.74584 89.409 5.72434C89.2984 5.70304 89.1943 5.65611 89.1048 5.58728C89.0243 5.51362 88.966 5.41862 88.9366 5.31316C88.8949 5.16097 88.876 5.00335 88.8806 4.84554V2.19299H88.1759V1.5883H88.8806V0.338623H89.5612V1.5883ZM91.3023 0H91.9829V2.20105H91.9989C92.0483 2.07777 92.1249 1.96747 92.2231 1.87855C92.3192 1.78718 92.4259 1.71462 92.5434 1.66087C92.6661 1.60174 92.7916 1.55874 92.9197 1.53187C93.0532 1.50499 93.1813 1.49155 93.304 1.49155C93.5763 1.49155 93.8031 1.52918 93.9846 1.60443C94.1661 1.67968 94.3129 1.78449 94.425 1.91886C94.5371 2.05324 94.6145 2.21449 94.6572 2.40261C94.7053 2.58536 94.7293 2.78961 94.7293 3.01536V5.75659H94.0487V2.93473C94.0487 2.67674 93.974 2.47249 93.8245 2.32199C93.675 2.17149 93.4695 2.09624 93.208 2.09624C92.9998 2.09624 92.8183 2.12849 92.6635 2.19299C92.5188 2.25402 92.39 2.34782 92.2871 2.46711C92.1831 2.59011 92.1042 2.73258 92.0549 2.88636C92.0053 3.05372 91.981 3.22768 91.9829 3.40236V5.75659H91.3023V0ZM98.7862 3.27336C98.7762 3.11469 98.7382 2.95909 98.6741 2.8138C98.6188 2.67367 98.5341 2.54718 98.4259 2.44292C98.3224 2.33396 98.1967 2.24872 98.0576 2.19299C97.9116 2.12697 97.7531 2.09395 97.5932 2.09624C97.417 2.09624 97.2569 2.12849 97.1127 2.19299C96.9767 2.2502 96.854 2.33532 96.7524 2.44292C96.651 2.55042 96.5709 2.67674 96.5122 2.82186C96.4526 2.96541 96.4174 3.11804 96.4081 3.27336H98.7862ZM99.4428 4.43435C99.352 4.90197 99.1519 5.25403 98.8423 5.49053C98.5327 5.72703 98.143 5.84528 97.6732 5.84528C97.3423 5.84528 97.054 5.79153 96.8085 5.68403C96.5746 5.58126 96.3667 5.42697 96.1999 5.23253C96.0292 5.02943 95.9012 4.79355 95.8236 4.53916C95.7408 4.25335 95.6951 3.95797 95.6875 3.66035C95.684 3.36381 95.7328 3.069 95.8316 2.78961C95.9277 2.52624 96.0611 2.2978 96.232 2.1043C96.4081 1.9108 96.6136 1.7603 96.8485 1.6528C97.0887 1.5453 97.3503 1.49155 97.6332 1.49155C98.0015 1.49155 98.3058 1.56949 98.546 1.72537C98.7916 1.87586 98.9864 2.06936 99.1305 2.30586C99.28 2.54236 99.3814 2.80036 99.4348 3.07986C99.4935 3.35936 99.5175 3.62542 99.5069 3.87804H96.4081C96.4028 4.06079 96.4241 4.23548 96.4722 4.4021C96.5202 4.56335 96.5976 4.70848 96.7044 4.83747C96.8111 4.9611 96.9473 5.06053 97.1127 5.13578C97.2782 5.21103 97.4731 5.24866 97.6973 5.24866C97.9855 5.24866 98.2204 5.18147 98.4019 5.0471C98.5887 4.91272 98.7115 4.70847 98.7702 4.43435H99.4428ZM51.5587 12.4547C53.6032 12.4547 54.9501 14.0815 54.9501 16.5952C54.9501 19.1152 53.6112 20.734 51.5889 20.734C51.077 20.7608 50.5679 20.6421 50.1198 20.3913C49.6717 20.1405 49.3027 19.7678 49.0551 19.3159H49.0169V23.3327H47.363V12.5389H48.9635V13.888H48.9937C49.2527 13.438 49.628 13.0671 50.0796 12.8147C50.5313 12.5623 51.0424 12.4379 51.5587 12.4547ZM60.4243 12.4547C62.4688 12.4547 63.8157 14.0815 63.8157 16.5952C63.8157 19.1152 62.4759 20.734 60.4545 20.734C59.9424 20.761 59.4331 20.6423 58.9849 20.3916C58.5366 20.1408 58.1675 19.768 57.9199 19.3159H57.8816V23.3327H56.2295V12.5389H57.83V13.888H57.8603C58.1192 13.438 58.4945 13.0671 58.9461 12.8147C59.3978 12.5623 59.908 12.4379 60.4243 12.4547ZM72.2943 9.33991C74.6289 9.33991 76.2285 10.6586 76.2828 12.5774H74.6137C74.5141 11.4675 73.6022 10.7974 72.2703 10.7974C70.9385 10.7974 70.0275 11.4756 70.0275 12.4619C70.0275 13.2484 70.6093 13.7115 72.0337 14.0654L73.2508 14.3664C75.5176 14.9066 76.4589 15.823 76.4589 17.4507C76.4589 19.5317 74.813 20.8352 72.1938 20.8352C69.7436 20.8352 68.0897 19.5631 67.983 17.5502H69.6751C69.7979 18.6538 70.862 19.3777 72.3166 19.3777C73.7098 19.3777 74.7125 18.6538 74.7125 17.6586C74.7125 16.795 74.1075 16.279 72.676 15.9242L71.2436 15.5767C69.2152 15.084 68.2739 14.1281 68.2739 12.5774C68.2739 10.6586 69.9349 9.33991 72.2943 9.33991ZM86.2667 12.4395C88.6021 12.4395 90.0879 14.043 90.0879 16.5952C90.0879 19.1537 88.6092 20.7501 86.2667 20.7501C83.9242 20.7501 82.4464 19.1537 82.4464 16.5952C82.4464 14.043 83.9384 12.4395 86.2667 12.4395ZM99.6545 12.4395C101.883 12.4395 103.285 13.9803 103.285 16.4402V17.0109H97.5958V17.1112C97.5695 17.4097 97.6065 17.7105 97.7046 17.9935C97.8026 18.2765 97.9593 18.5352 98.1643 18.7525C98.3693 18.9697 98.6179 19.1406 98.8936 19.2536C99.1692 19.3667 99.4656 19.4193 99.7631 19.4081C100.154 19.445 100.546 19.354 100.881 19.1485C101.216 18.943 101.476 18.6341 101.622 18.2677H103.193C102.97 19.7396 101.546 20.7501 99.7248 20.7501C97.3814 20.7501 95.9268 19.1698 95.9268 16.6337C95.9268 14.0896 97.3894 12.4395 99.6545 12.4395ZM80.0274 10.62V12.5389H81.5594V13.8576H80.0274V18.3286C80.0274 19.0238 80.3343 19.3472 81.0078 19.3472C81.1896 19.344 81.371 19.3312 81.5514 19.3087V20.6193C81.2489 20.6757 80.9411 20.7017 80.6333 20.6963C79.0025 20.6963 78.3664 20.0791 78.3664 18.506V13.8576H77.1947V12.5389H78.3664V10.6209L80.0274 10.62ZM42.347 9.52534L46.3363 20.6497H44.5213L43.5116 17.6433H39.3007L38.2892 20.6497H36.5054L40.4938 9.52534H42.347ZM95.0033 12.4547C95.1937 12.4538 95.3841 12.4744 95.57 12.5165V14.0735C95.3295 13.9996 95.0786 13.9658 94.8272 13.9731C94.587 13.9635 94.3476 14.0062 94.1253 14.0984C93.9031 14.1906 93.7033 14.3301 93.5396 14.5074C93.3759 14.6846 93.2523 14.8954 93.177 15.1252C93.1018 15.3551 93.0769 15.5986 93.1039 15.8391V20.6497H91.4508V12.5389H93.0273V13.9194H93.0656C93.1725 13.4884 93.4235 13.1075 93.7763 12.8408C94.1292 12.5741 94.5624 12.4378 95.0033 12.4547ZM86.2667 13.811C84.9268 13.811 84.1306 14.8519 84.1306 16.5952C84.1306 18.3528 84.9268 19.3777 86.2667 19.3777C87.6066 19.3777 88.4028 18.3528 88.4028 16.5952C88.4028 14.8448 87.6066 13.811 86.2667 13.811ZM51.1227 13.8737C49.8594 13.8737 49.0098 14.9756 49.0098 16.5952C49.0098 18.2292 49.8594 19.3239 51.1227 19.3239C52.4083 19.3239 53.2508 18.2516 53.2508 16.5952C53.2508 14.9532 52.4083 13.8737 51.1227 13.8737ZM59.9875 13.8737C58.7241 13.8737 57.8745 14.9756 57.8745 16.5952C57.8745 18.2292 58.725 19.3239 59.9875 19.3239C61.2739 19.3239 62.1165 18.2516 62.1165 16.5952C62.1165 14.9532 61.2739 13.8737 59.9875 13.8737ZM41.4288 11.3761H41.3835L39.7367 16.2557H43.0747L41.4288 11.3761ZM99.6545 13.7886C99.3853 13.7868 99.1183 13.8388 98.8691 13.9416C98.6199 14.0443 98.3934 14.1958 98.2027 14.3872C98.012 14.5786 97.8609 14.8062 97.7581 15.0568C97.6553 15.3074 97.6029 15.5761 97.6038 15.8472H101.631C101.645 15.5788 101.605 15.3102 101.512 15.0583C101.418 14.8064 101.275 14.5766 101.089 14.3833C100.904 14.19 100.68 14.0374 100.433 13.9351C100.187 13.8327 99.9214 13.7829 99.6545 13.7886Z" fill="white"/>
</svg>
