<svg width="115" height="29" viewBox="0 0 115 29" fill="none" xmlns="http://www.w3.org/2000/svg">
<path d="M12.395 13.6777L0.802734 25.8564C0.802734 25.859 0.802734 25.8617 0.804494 25.8635C1.15999 27.1858 2.37957 28.1601 3.82882 28.1601C4.38557 28.1612 4.933 28.0141 5.4171 27.7332L5.45405 27.7116L18.5034 20.2592L12.395 13.6777Z" fill="#E43D32"/>
<path d="M24.1062 11.334L24.0956 11.3267L18.4384 8.0459L12.0664 13.719L18.4613 20.1146L24.0876 16.8675C25.0745 16.334 25.7442 15.2942 25.7442 14.0948C25.7442 12.9027 25.0833 11.8684 24.1062 11.334Z" fill="#F8BD01"/>
<path d="M0.105334 2.41406C0.0359891 2.67085 0 2.94033 0 3.21889V24.9429C0 25.2214 0.0351108 25.4918 0.106211 25.7468L12.0687 13.7678L0.105334 2.41406Z" fill="#5A7FBF"/>
<path d="M12.4957 13.6778L18.5034 7.81818L5.45279 0.437306C4.96068 0.149755 4.40158 -0.00114858 3.83258 6.58255e-06C2.38242 6.58255e-06 1.15955 0.962421 0.802734 2.269V2.27255L12.4957 13.6778Z" fill="#34A24A"/>
<path fill-rule="evenodd" clip-rule="evenodd" d="M97.5294 24.501H99.1941V13.2788H97.5294V24.501ZM112.523 17.3212L110.615 22.1867H110.558L108.577 17.3212H106.784L109.754 24.1213L108.061 27.9042H109.798L114.374 17.3212H112.523ZM103.083 23.2262C102.537 23.2262 101.777 22.9524 101.777 22.2738C101.777 21.4075 102.724 21.0754 103.541 21.0754C104.274 21.0754 104.617 21.2342 105.062 21.4506C105.001 21.9372 104.767 22.3852 104.403 22.7116C104.039 23.038 103.57 23.2208 103.083 23.2262ZM103.284 17.0761C102.078 17.0761 100.83 17.6102 100.314 18.7943L101.791 19.4146C102.107 18.7943 102.695 18.5914 103.312 18.5914C104.173 18.5914 105.048 19.1112 105.062 20.0358V20.1507C104.761 19.9775 104.116 19.718 103.326 19.718C101.734 19.718 100.112 20.5987 100.112 22.2442C100.112 23.746 101.418 24.7137 102.881 24.7137C104.001 24.7137 104.617 24.2083 105.005 23.6158H105.062V24.4821H106.669V20.1803C106.669 18.1874 105.192 17.0761 103.284 17.0761ZM92.9957 18.6875H90.628V14.8408H92.9957C94.2402 14.8408 94.9467 15.8777 94.9467 16.7637C94.9467 17.6336 94.2402 18.6875 92.9957 18.6875ZM92.9529 13.2788H88.9642V24.501H90.628V20.2495H92.9529C94.7978 20.2495 96.6114 18.9047 96.6114 16.7637C96.6114 14.6227 94.7978 13.2788 92.9529 13.2788ZM71.2021 23.228C70.0522 23.228 69.0896 22.2594 69.0896 20.929C69.0896 19.5843 70.0522 18.6004 71.2021 18.6004C72.3378 18.6004 73.2281 19.5843 73.2281 20.929C73.2281 22.2594 72.3378 23.228 71.2021 23.228ZM73.113 17.9496H73.0559C72.6821 17.5016 71.964 17.0967 71.0585 17.0967C69.1609 17.0967 67.4222 18.7736 67.4222 20.929C67.4222 23.0692 69.1609 24.7326 71.0585 24.7326C71.964 24.7326 72.6821 24.3277 73.0559 23.8645H73.113V24.4139C73.113 25.8754 72.3378 26.6564 71.087 26.6564C70.0664 26.6564 69.4339 25.9185 69.1752 25.2964L67.7237 25.9041C68.1404 26.9167 69.2475 28.16 71.087 28.16C73.0417 28.16 74.6947 27.0029 74.6947 24.1832V17.3274H73.113V17.9496ZM75.8447 24.501H77.5121V13.2779H75.8447V24.501ZM79.969 20.7989C79.9261 19.3239 81.1046 18.5717 81.9521 18.5717C82.6141 18.5717 83.1743 18.9038 83.3608 19.3814L79.969 20.7989ZM85.1432 19.5259C84.8274 18.6731 83.864 17.0967 81.895 17.0967C79.9404 17.0967 78.3168 18.6435 78.3168 20.9147C78.3168 23.0548 79.9261 24.7326 82.0815 24.7326C83.8211 24.7326 84.8274 23.6625 85.2441 23.0404L83.9505 22.1723C83.5196 22.8088 82.9299 23.228 82.0815 23.228C81.234 23.228 80.63 22.8375 80.2419 22.0718L85.3154 19.9604L85.1432 19.5259ZM44.7231 18.2682V19.8877H48.5744C48.4593 20.7989 48.1578 21.4641 47.6983 21.9273C47.1372 22.491 46.2602 23.1122 44.7231 23.1122C42.3519 23.1122 40.4972 21.1894 40.4972 18.8033C40.4972 16.4163 42.3519 14.4934 44.7231 14.4934C46.0024 14.4934 46.9365 14.9997 47.6261 15.6505L48.7617 14.5078C47.7983 13.5822 46.5198 12.873 44.7231 12.873C41.4749 12.873 38.7441 15.5347 38.7441 18.8033C38.7441 22.0718 41.4749 24.7326 44.7231 24.7326C46.4761 24.7326 47.7983 24.1545 48.8331 23.0692C49.8965 21.9991 50.2275 20.4954 50.2275 19.2799C50.2275 18.9038 50.1989 18.5573 50.141 18.2682H44.7231ZM54.6069 23.228C53.457 23.228 52.4649 22.2738 52.4649 20.9147C52.4649 19.5403 53.457 18.6004 54.6069 18.6004C55.756 18.6004 56.748 19.5403 56.748 20.9147C56.748 22.2738 55.756 23.228 54.6069 23.228ZM54.6069 17.0967C52.5078 17.0967 50.7976 18.7018 50.7976 20.9147C50.7976 23.1122 52.5078 24.7326 54.6069 24.7326C56.7052 24.7326 58.4154 23.1122 58.4154 20.9147C58.4154 18.7018 56.7052 17.0967 54.6069 17.0967ZM62.9152 23.228C61.7653 23.228 60.7732 22.2738 60.7732 20.9147C60.7732 19.5403 61.7653 18.6004 62.9152 18.6004C64.0652 18.6004 65.0563 19.5403 65.0563 20.9147C65.0563 22.2738 64.0652 23.228 62.9152 23.228ZM62.9152 17.0967C60.8169 17.0967 59.1068 18.7018 59.1068 20.9147C59.1068 23.1122 60.8169 24.7326 62.9152 24.7326C65.0135 24.7326 66.7237 23.1122 66.7237 20.9147C66.7237 18.7018 65.0135 17.0967 62.9152 17.0967Z" fill="#FFFFFE"/>
<path d="M43.9753 6.04611V8.05239C43.8785 8.17924 43.7645 8.29331 43.6363 8.39163C43.4811 8.51413 43.2677 8.62292 42.9941 8.71544C42.7233 8.80539 42.3735 8.85079 41.9457 8.85079C41.5959 8.85079 41.2748 8.7934 40.9797 8.67775C40.6905 8.56133 40.4311 8.38658 40.2192 8.16547C39.9984 7.92614 39.8297 7.64713 39.7232 7.34479C39.6024 6.99005 39.5436 6.61871 39.5492 6.24571V5.81995C39.5492 5.41133 39.5994 5.04639 39.699 4.72515C39.8012 4.40304 39.951 4.13148 40.1483 3.9079C40.3431 3.68351 40.5922 3.5077 40.8739 3.39562C41.1861 3.27329 41.5213 3.21324 41.8587 3.21915C42.2981 3.21915 42.6641 3.29196 42.9583 3.43759C43.2551 3.58066 43.4874 3.77854 43.6524 4.03211C43.8202 4.28568 43.9287 4.57437 43.9753 4.89733H43.2148C43.1833 4.70609 43.1139 4.52233 43.0103 4.35593C42.9073 4.19004 42.7583 4.05456 42.5798 3.96444C42.3941 3.86421 42.1537 3.81367 41.8587 3.81367C41.6205 3.8081 41.3843 3.85593 41.169 3.9533C40.9759 4.04493 40.8105 4.18202 40.6882 4.35164C40.5627 4.52555 40.4676 4.73457 40.4048 4.98043C40.3411 5.25343 40.3107 5.53256 40.3142 5.81224V6.24571C40.3142 6.56181 40.3519 6.84451 40.4281 7.09294C40.5071 7.34137 40.6183 7.55296 40.7636 7.72858C40.9071 7.90248 41.0802 8.03354 41.2793 8.12435C41.482 8.2143 41.7053 8.2597 41.9493 8.2597C42.2201 8.2597 42.4399 8.23829 42.6076 8.19545C42.7467 8.16241 42.8798 8.10926 43.0022 8.03783C43.0816 7.98738 43.1542 7.92783 43.2183 7.8605V6.63291H41.891V6.04611H43.9753ZM48.64 8.18432V8.77626H45.6014V8.18517L48.64 8.18432ZM45.7556 3.29453V8.77541H44.9942V3.29453H45.7556ZM48.2382 5.65033V6.24142H45.6014V5.65033H48.2382ZM48.6005 3.29453V3.88905H45.6014V3.29368L48.6005 3.29453ZM51.5396 3.29453V8.77541H50.7907V3.29453H51.5396ZM53.3836 3.29453V3.88905H48.9503V3.29368H53.3845L53.3836 3.29453ZM56.4115 3.29453V8.77541H55.6509V3.29453H56.4115ZM59.5551 3.29453V8.77541H58.8062V3.29453H59.5551ZM61.3991 3.29453V3.88905H56.9658V3.29368H61.4L61.3991 3.29453ZM68.0297 5.86193V6.20801C68.0297 6.61921 67.9759 6.98843 67.8683 7.31481C67.7725 7.61902 67.6139 7.90184 67.4019 8.14662C67.2001 8.37535 66.9571 8.54925 66.6737 8.67004C66.3929 8.78997 66.0772 8.84994 65.7274 8.84994C65.3884 8.84994 65.0772 8.78997 64.7938 8.67004C64.512 8.54952 64.2615 8.37109 64.0601 8.14748C63.8458 7.90239 63.684 7.61948 63.5839 7.31481C63.4656 6.95692 63.4081 6.58327 63.4135 6.20801V5.86193C63.4135 5.45073 63.4691 5.08237 63.5794 4.75856C63.6798 4.45407 63.8419 4.17143 64.0565 3.92674C64.261 3.69545 64.505 3.51983 64.7857 3.3999C65.08 3.27713 65.3983 3.21551 65.7194 3.21915C66.0691 3.21915 66.3849 3.27911 66.6656 3.39904C66.9499 3.51983 67.1929 3.69545 67.3947 3.92674C67.6001 4.15461 67.7562 4.43217 67.8638 4.75856C67.9741 5.08237 68.0297 5.44987 68.0297 5.86193ZM67.2764 6.20801V5.85422C67.2764 5.52783 67.2405 5.23914 67.1705 4.989C67.1135 4.76076 67.0102 4.54539 66.8665 4.35507C66.7383 4.18921 66.5691 4.0562 66.3741 3.96786C66.1691 3.87724 65.9452 3.83213 65.7194 3.83594C65.4835 3.83594 65.2691 3.88048 65.0772 3.96786C64.8845 4.05852 64.7169 4.1915 64.5884 4.35593C64.4539 4.52726 64.3507 4.73714 64.2772 4.98814C64.1995 5.27044 64.1624 5.56151 64.1669 5.85336V6.20801C64.1669 6.53697 64.2036 6.82823 64.2772 7.0818C64.3507 7.3328 64.4566 7.54439 64.5929 7.71744C64.7319 7.88877 64.896 8.01727 65.0853 8.1055C65.2772 8.19288 65.4916 8.23743 65.7274 8.23743C65.975 8.23743 66.1938 8.19288 66.3858 8.1055C66.5777 8.01727 66.7391 7.88791 66.8701 7.71744C67.0046 7.54439 67.1059 7.33194 67.175 7.0818C67.2469 6.79573 67.2809 6.50218 67.2764 6.20801ZM73.3411 3.29453V8.77541H72.576L69.6872 4.54782V8.77541H68.9266V3.29453H69.6872L72.5877 7.53326V3.29368L73.3411 3.29453Z" fill="white"/>
</svg>
