<svg width="1242" height="487" viewBox="0 0 1242 487" fill="none" xmlns="http://www.w3.org/2000/svg">
<path d="M1240 388C1240 407.882 1223.88 424 1204 424H964.5C947.103 424 933 438.103 933 455.5C933 472.897 918.897 487 901.5 487H36C16.1177 487 0 470.882 0 451V124C0 104.118 16.1178 88 36 88H52C71.8822 88 88 71.8822 88 52V36C88 16.1178 104.118 0 124 0H1204C1223.88 0 1240 16.1178 1240 36V388Z" fill="#DEE4EE"/>
<rect x="949.5" y="438.5" width="292" height="48" rx="19.5" fill="#2C3E50"/>
<rect x="949.5" y="438.5" width="292" height="48" rx="19.5" stroke="#DEE4EE"/>
<path fill-rule="evenodd" clip-rule="evenodd" d="M23.9419 0H35.7381C38.9715 0 41.6185 2.79907 41.6185 6.28889V12.6292C41.6185 16.1189 38.9716 18.918 35.7381 18.918H6.21756C5.34066 18.918 4.75512 18.9505 3.99036 18.7479C3.10136 18.511 2.29796 17.8163 1.9048 16.5803C1.85277 16.2186 1.91602 15.7582 2.05618 15.2748C2.19752 14.7871 2.40874 14.3041 2.61938 13.9242C7.08246 5.89658 14.6607 0 23.9419 0Z" fill="#2C3E50"/>
<path fill-rule="evenodd" clip-rule="evenodd" d="M6.26135 23.6484H12.5911C16.05 23.6484 18.8525 26.4353 18.8525 29.8751V44.4431C18.8525 48.2184 21.9285 51.2773 25.7248 51.2773H35.5769C37.2955 51.2773 39.8558 51.9712 40.7208 53.0962C41.5928 54.2303 41.5514 55.1156 41.5514 56.8713L41.6238 64.2608C41.6238 68.3002 39.1544 69.8521 34.8657 70.0022H25.0825C11.2967 70.0077 0.179827 59.0087 0 45.3205V29.8751C0 26.4353 2.80243 23.6484 6.26135 23.6484Z" fill="#2C3E50"/>
<path fill-rule="evenodd" clip-rule="evenodd" d="M48.3508 0.945319C49.4886 0.946495 50.7133 1.09813 51.6177 1.19031C56.9434 1.973 59.5597 3.974 63.3775 7.44751C69.7397 13.2366 70.0356 22.7553 69.9954 30.7289C69.8961 31.602 69.5239 32.2191 69.0847 32.6608C67.8853 33.8673 66.3988 33.9043 64.7855 33.9877C61.4508 34.1602 56.5107 33.9669 55.0976 33.7996C52.5459 33.4973 50.4355 32.6611 48.8452 31.3308C48.7324 31.2365 48.6222 31.1396 48.5146 31.0402C47.4787 30.0835 46.6797 28.8902 46.1502 27.4624C45.6298 26.059 45.6655 25.2916 45.6328 23.8307C45.5564 20.4192 45.573 17.0136 45.5639 13.5699C45.5623 13.0175 45.5288 12.0432 45.4929 10.8856C45.457 9.72436 45.4184 8.37146 45.4062 7.05186C45.3941 5.73099 45.4084 4.44949 45.4775 3.42955C45.5619 2.18341 45.4239 1.37555 46.7963 1.07942C47.2471 0.982146 47.7814 0.944732 48.3508 0.945319Z" fill="#2C3E50"/>
<path fill-rule="evenodd" clip-rule="evenodd" d="M22.6992 28.753C22.7209 25.9266 24.0172 24.427 26.3476 23.8387C27.0309 23.6663 27.4052 23.6793 28.0963 23.6769L35.5538 23.6511C38.4651 23.641 40.8365 23.5261 41.4096 26.8961C41.5315 27.6133 41.6472 28.2278 41.7857 28.7995C42.0725 29.9831 42.458 30.9841 43.2028 32.337C44.692 35.0419 48.9672 37.8117 52.0017 38.3774C56.1631 39.1532 59.9875 38.8348 64.2217 38.8469C66.6187 38.8866 68.501 39.4692 69.3377 41.8737C70.0414 43.8961 70.1228 46.2783 69.8643 49.1388C69.7156 50.7852 69.2099 52.6393 68.5363 54.3501C68.0668 55.5429 67.4753 56.6631 67.0348 57.6098C66.5854 58.576 65.8521 59.5941 65.0763 60.6257C64.376 61.5569 63.6518 62.5158 62.8694 63.17C61.978 63.9153 61.2037 64.721 60.3803 65.3696C58.909 66.529 57.4013 67.4237 55.6466 68.2559C54.4124 68.8411 53.0044 69.4771 51.3767 69.7912C49.6493 70.0474 45.4115 70.5148 45.4115 68.0263L45.4263 54.824C45.4279 53.3917 45.384 53.031 44.9182 51.6044C44.5169 50.375 43.7121 49.684 42.7656 49.0742C41.3663 48.1723 39.8292 47.5099 37.8108 47.4681L29.1372 47.476C25.0115 47.7565 22.8156 47.0033 22.799 42.2733L22.6992 28.753Z" fill="#2C3E50"/>
</svg>
