<svg width="392" height="296" viewBox="0 0 392 296" fill="none" xmlns="http://www.w3.org/2000/svg">
<path fill-rule="evenodd" clip-rule="evenodd" d="M17.3214 0H25.6904C27.9844 0 29.8624 1.97264 29.8624 4.43209V8.90042C29.8624 11.3598 27.9845 13.3325 25.6904 13.3325H4.74644C4.1243 13.3325 3.70887 13.3553 3.1663 13.2126C2.53558 13.0456 1.96559 12.556 1.68665 11.685C1.64974 11.4301 1.69462 11.1056 1.79406 10.7649C1.89433 10.4212 2.04419 10.0808 2.19363 9.81305C5.36006 4.15561 10.7366 0 17.3214 0Z" fill="#2C3E50"/>
<path fill-rule="evenodd" clip-rule="evenodd" d="M4.49757 16.6641H9.03639C11.5166 16.6641 13.5261 18.6682 13.5261 21.1418V31.6182C13.5261 34.3331 15.7318 36.5329 18.4541 36.5329H25.5185C26.7509 36.5329 28.5868 37.0319 29.207 37.8409C29.8323 38.6565 29.8026 39.2931 29.8026 40.5557L29.8546 45.8697C29.8546 48.7746 28.0839 49.8906 25.0086 49.9986H17.9935C8.10821 50.0025 0.136759 42.0928 0.0078125 32.2491V21.1418C0.0078125 18.6682 2.01732 16.6641 4.49757 16.6641Z" fill="#2C3E50"/>
<path fill-rule="evenodd" clip-rule="evenodd" d="M34.4289 0.835942C35.2343 0.836771 36.1012 0.943637 36.7414 1.0086C40.5113 1.5602 42.3633 2.9704 45.0658 5.41836C49.5694 9.4982 49.7788 16.2065 49.7504 21.8259C49.6801 22.4412 49.4166 22.8761 49.1058 23.1874C48.2567 24.0377 47.2045 24.0638 46.0624 24.1226C43.7019 24.2441 40.205 24.1079 39.2047 23.9899C37.3985 23.7769 35.9046 23.1876 34.7789 22.2501C34.699 22.1836 34.621 22.1153 34.5448 22.0453C33.8116 21.3711 33.246 20.5301 32.8711 19.5239C32.5028 18.5348 32.528 17.9939 32.5049 16.9644C32.4508 14.5601 32.4626 12.16 32.4561 9.73313C32.455 9.34383 32.4313 8.65719 32.4059 7.84132C32.3805 7.02297 32.3532 6.06951 32.3446 5.13952C32.3359 4.20864 32.3461 3.30551 32.395 2.5867C32.4547 1.70849 32.3571 1.13915 33.3285 0.930449C33.6477 0.861896 34.0258 0.835528 34.4289 0.835942Z" fill="#2C3E50"/>
<path fill-rule="evenodd" clip-rule="evenodd" d="M15.7637 20.335C15.7792 18.3024 16.7108 17.224 18.3856 16.8009C18.8767 16.6769 19.1456 16.6862 19.6423 16.6845L25.0017 16.666C27.0939 16.6587 28.7981 16.5761 29.2099 18.9995C29.2975 19.5153 29.3807 19.9573 29.4802 20.3683C29.6863 21.2195 29.9634 21.9394 30.4986 22.9123C31.5688 24.8575 34.6412 26.8493 36.822 27.2561C39.8126 27.8141 42.561 27.5851 45.6039 27.5937C47.3265 27.6223 48.6792 28.0412 49.2805 29.7704C49.7862 31.2248 49.8447 32.9379 49.659 34.995C49.5521 36.179 49.1887 37.5123 48.7046 38.7426C48.3672 39.6004 47.9421 40.406 47.6256 41.0868C47.3026 41.7816 46.7756 42.5137 46.218 43.2556C45.7148 43.9252 45.1944 44.6148 44.6321 45.0853C43.9915 45.6213 43.435 46.2006 42.8433 46.6671C41.7859 47.5008 40.7024 48.1442 39.4414 48.7427C38.5544 49.1636 37.5425 49.6209 36.3728 49.8468C35.1314 50.031 32.0859 50.3672 32.0859 48.5776L32.0965 39.0834C32.0977 38.0534 32.0662 37.794 31.7314 36.7681C31.443 35.884 30.8646 35.3871 30.1844 34.9485C29.1788 34.3 28.0742 33.8236 26.6237 33.7936L20.3903 33.7992C17.4254 34.001 15.8473 33.4593 15.8354 30.0578L15.7637 20.335Z" fill="#2C3E50"/>
<path d="M390 260C390 279.882 373.882 296 354 296H36C16.1177 296 0 279.882 0 260V90C0 73.4315 13.4315 60 30 60C46.5685 60 60 46.5685 60 30C60 13.4315 73.4315 0 90 0H354C373.882 0 390 16.1178 390 36V260Z" fill="#DEE4EE"/>
</svg>
