<svg width="30" height="30" viewBox="0 0 30 30" fill="none" xmlns="http://www.w3.org/2000/svg">
<path d="M29 17L20.6041 29L15 24.5055" stroke="#2C3E50" stroke-width="2" stroke-linecap="round" stroke-linejoin="round"/>
<path d="M11 11C13.7614 11 16 8.76142 16 6C16 3.23858 13.7614 1 11 1C8.23858 1 6 3.23858 6 6C6 8.76142 8.23858 11 11 11Z" stroke="#2C3E50" stroke-width="2" stroke-linecap="round" stroke-linejoin="round"/>
<path d="M6.20833 27H1V23.7479C1.00163 21.8195 1.55235 19.9348 2.5826 18.332C3.61285 16.7291 5.07641 15.4799 6.78846 14.7422C8.5005 14.0045 10.3842 13.8113 12.2017 14.187C14.0192 14.5627 15.6889 15.4906 17 16.8533" stroke="#2C3E50" stroke-width="2" stroke-linecap="round" stroke-linejoin="round"/>
</svg>
