<svg width="398" height="415" viewBox="0 0 398 415" fill="none" xmlns="http://www.w3.org/2000/svg">
<mask id="path-1-inside-1_9010_183168" fill="white">
<path d="M295.5 0C313.449 0 328 14.5507 328 32.5C328 50.4493 342.551 65 360.5 65H363C382.33 65 398 80.67 398 100V313C398 332.882 381.882 349 362 349H250.547C232.321 349 217.547 363.775 217.547 382C217.547 400.225 202.772 415 184.547 415H36C16.1177 415 0 398.882 0 379V36C0 16.1178 16.1178 0 36 0H295.5Z"/>
</mask>
<path d="M360.5 65V67H363V65V63H360.5V65ZM398 100H396V313H398H400V100H398ZM362 349V347H250.547V349V351H362V349ZM184.547 415V413H36V415V417H184.547V415ZM0 379H2V36H0H-2V379H0ZM36 0V2H295.5V0V-2H36V0ZM0 36H2C2 17.2223 17.2223 2 36 2V0V-2C15.0132 -2 -2 15.0132 -2 36H0ZM36 415V413C17.2223 413 2 397.778 2 379H0H-2C-2 399.987 15.0132 417 36 417V415ZM217.547 382H215.547C215.547 399.121 201.668 413 184.547 413V415V417C203.877 417 219.547 401.33 219.547 382H217.547ZM250.547 349V347C231.217 347 215.547 362.67 215.547 382H217.547H219.547C219.547 364.879 233.426 351 250.547 351V349ZM398 313H396C396 331.778 380.778 347 362 347V349V351C382.987 351 400 333.987 400 313H398ZM363 65V67C381.225 67 396 81.7746 396 100H398H400C400 79.5655 383.435 63 363 63V65ZM328 32.5H326C326 51.5538 341.446 67 360.5 67V65V63C343.655 63 330 49.3447 330 32.5H328ZM328 32.5H330C330 13.4462 314.554 -2 295.5 -2V0V2C312.345 2 326 15.6553 326 32.5H328Z" fill="#2C3E50" mask="url(#path-1-inside-1_9010_183168)"/>
</svg>
