<svg width="191" height="155" viewBox="0 0 191 155" fill="none" xmlns="http://www.w3.org/2000/svg">
<path d="M157.332 11.4814L190.128 64.9492C191.829 67.7123 190.966 71.3265 188.192 73.0289L56.2214 154.128C53.4611 155.83 49.8504 154.966 48.1498 152.19L0.871506 75.098C-0.829163 72.3349 0.0342407 68.7206 2.80763 67.0182L111.179 0.429015C111.833 0.0230636 112.631 -0.094791 113.377 0.0754468L155.527 10.1719C156.285 10.3552 156.94 10.8266 157.332 11.4814Z" fill="url(#paint0_linear_9010_140778)"/>
<path d="M20.4966 83.7166L53.471 137.408C54.4423 138.982 56.5032 139.467 58.0653 138.51L119.407 100.875C120.982 99.9039 121.467 97.8444 120.509 96.2834L87.5349 42.5923C86.5635 41.0182 84.5026 40.5328 82.9405 41.4904L21.5992 79.1254C20.024 80.083 19.5252 82.1424 20.4966 83.7166Z" fill="url(#paint1_linear_9010_140778)"/>
<path d="M55.7739 140C56.4438 140 57.1006 139.816 57.6785 139.462L119.258 101.682C120.979 100.632 121.518 98.3736 120.454 96.6671L87.3388 42.7405C86.2879 41.0209 84.0286 40.4826 82.321 41.5459L20.7411 79.326C19.9136 79.838 19.3225 80.6388 19.0992 81.5839C18.8759 82.5291 19.0335 83.5136 19.5327 84.3406L52.6476 138.267C53.1599 139.094 53.9611 139.685 54.9069 139.908C55.209 139.974 55.498 140 55.7739 140ZM84.2256 41.8479C85.1714 41.8479 86.104 42.3204 86.6295 43.1868L119.744 97.1134C120.559 98.4393 120.138 100.172 118.812 100.986L57.2319 138.766C56.5883 139.16 55.8395 139.278 55.104 139.107C54.3684 138.937 53.751 138.477 53.3569 137.847L20.242 83.9206C19.4276 82.5947 19.8479 80.8619 21.1746 80.048L82.7544 42.2548C83.2142 41.9791 83.7265 41.8479 84.2256 41.8479Z" fill="#474747"/>
<path d="M100.598 112C101.309 112 102.006 111.803 102.625 111.423L119.153 101.304C120.969 100.189 121.548 97.8002 120.43 95.9892L111.718 81.8419C110.599 80.0308 108.204 79.4534 106.388 80.5689L89.8469 90.6872C88.0309 91.8027 87.4519 94.1912 88.5705 96.0023L97.282 110.15C97.8216 111.029 98.6769 111.646 99.6771 111.882C99.9797 111.961 100.296 112 100.598 112ZM108.402 80.8576C109.415 80.8576 110.415 81.3694 110.981 82.2881L119.693 96.4354C120.561 97.8527 120.114 99.7032 118.706 100.582L102.177 110.701C101.493 111.121 100.677 111.252 99.9008 111.068C99.1112 110.884 98.4532 110.399 98.0321 109.716L89.3205 95.5692C88.452 94.1519 88.8994 92.3014 90.3075 91.4221L106.823 81.3038C107.323 81.002 107.862 80.8576 108.402 80.8576Z" fill="#474747"/>
<path d="M76.5912 73C77.3022 73 77.9999 72.8031 78.6187 72.4225L95.1551 62.3033C96.0372 61.7651 96.656 60.912 96.893 59.9146C97.13 58.9039 96.972 57.8671 96.4322 56.9877L87.7164 42.8391C87.1766 41.9598 86.3208 41.3429 85.3202 41.1067C84.3064 40.8704 83.2663 41.0279 82.3842 41.566L65.8478 51.6853C64.0309 52.8009 63.4516 55.1896 64.5707 57.0008L73.2866 71.1494C73.8264 72.0288 74.6821 72.6456 75.6828 72.8819C75.9856 72.9606 76.2884 73 76.5912 73ZM84.4117 41.8548C84.6487 41.8548 84.8857 41.881 85.1227 41.9335C85.9126 42.1173 86.5709 42.6029 86.9923 43.2854L95.7081 57.434C96.1294 58.1164 96.261 58.9302 96.0767 59.7045C95.8924 60.492 95.4053 61.1483 94.7206 61.5683L78.1843 71.6875C77.4996 72.1075 76.6834 72.2388 75.9066 72.055C75.1166 71.8713 74.4583 71.3856 74.037 70.7032L65.3212 56.5546C64.4522 55.1371 64.8999 53.2865 66.3086 52.4072L82.845 42.2879C83.319 42.0123 83.8588 41.8548 84.4117 41.8548Z" fill="#474747"/>
<path d="M78.5883 126C79.2992 126 79.997 125.803 80.6158 125.423L97.1522 115.303C98.9691 114.188 99.5484 111.799 98.4293 109.988L89.7134 95.8391C89.1736 94.9598 88.3179 94.3429 87.3172 94.1067C86.3035 93.8704 85.2634 94.0279 84.3813 94.566L67.8449 104.685C66.9628 105.223 66.344 106.077 66.107 107.074C65.87 108.085 66.028 109.121 66.5678 110.001L75.2836 124.149C75.8234 125.029 76.6792 125.646 77.6798 125.882C77.9826 125.961 78.2855 126 78.5883 126ZM86.3956 94.8548C86.6326 94.8548 86.8696 94.881 87.1066 94.9335C87.8965 95.1173 88.5549 95.6029 88.9762 96.2854L97.692 110.434C98.5609 111.851 98.1133 113.702 96.7045 114.581L80.1682 124.701C79.4836 125.121 78.6673 125.252 77.8905 125.068C77.1005 124.884 76.4422 124.399 76.0209 123.716L67.3051 109.568C66.8838 108.885 66.7521 108.071 66.9365 107.297C67.1208 106.51 67.6079 105.853 68.2925 105.433L84.8289 95.3141C85.3029 95.0123 85.8558 94.8548 86.3956 94.8548Z" fill="#474747"/>
<path d="M56.5901 140C57.2878 140 57.9855 139.816 58.6174 139.435L75.1523 129.313C76.9691 128.197 77.5483 125.808 76.4293 123.996L67.7143 109.843C66.5953 108.031 64.1993 107.453 62.3825 108.569L45.8477 118.692C44.0309 119.808 43.4517 122.197 44.5707 124.009L53.2857 138.162C54.0098 139.344 55.2868 140 56.5901 140ZM64.4099 108.845C65.4236 108.845 66.4241 109.357 66.9902 110.276L75.7053 124.429C76.5741 125.847 76.1265 127.698 74.7179 128.578L58.183 138.7C56.7612 139.567 54.905 139.12 54.023 137.716L45.3079 123.562C44.439 122.145 44.8866 120.293 46.2953 119.414L62.8302 109.291C63.3304 108.989 63.8702 108.845 64.4099 108.845Z" fill="#474747"/>
<path d="M54.6044 87C55.3022 87 56 86.8163 56.6319 86.4357L73.1551 76.3042C74.0372 75.7662 74.656 74.9131 74.893 73.9157C75.13 72.9052 74.972 71.8685 74.4322 70.9892L65.7164 56.8419C64.5973 55.0308 62.2011 54.4534 60.3842 55.5689L43.8478 65.6872C42.0309 66.8027 41.4516 69.1912 42.5707 71.0023L51.2866 85.1496C52.0239 86.3438 53.2878 87 54.6044 87ZM62.4117 55.8576C63.4255 55.8576 64.4261 56.3695 64.9923 57.2881L73.7081 71.4354C74.1294 72.1178 74.261 72.9315 74.0767 73.7058C73.8924 74.4932 73.4053 75.1494 72.7206 75.5693L56.1843 85.6876C54.7624 86.5538 52.906 86.1076 52.0239 84.7034L43.308 70.5561C42.4391 69.1387 42.8867 67.2883 44.2955 66.409L60.8318 56.2907C61.3321 56.002 61.8719 55.8576 62.4117 55.8576Z" fill="#474747"/>
<path d="M32.5894 100C33.2872 100 33.9851 99.8162 34.6171 99.4355L51.1549 89.313C52.0371 88.7747 52.656 87.9213 52.893 86.9235C53.13 85.9126 52.972 84.8754 52.4321 83.9957L43.7156 69.8427C42.5964 68.0309 40.1999 67.4532 38.3829 68.5691L21.8451 78.6916C20.9629 79.2299 20.344 80.0833 20.107 81.0811C19.87 82.092 20.028 83.1292 20.5679 84.0089L29.2844 98.1619C30.0086 99.3435 31.2859 100 32.5894 100ZM40.4106 68.8448C41.4245 68.8448 42.4252 69.3569 42.9914 70.2759L51.708 84.429C52.1293 85.1117 52.261 85.9257 52.0766 86.7003C51.8923 87.4881 51.4051 88.1445 50.7204 88.5646L34.1826 98.6871C32.7606 99.5536 30.904 99.1072 30.0218 97.7024L21.3052 83.5493C20.8839 82.8666 20.7522 82.0526 20.9365 81.278C21.1209 80.4903 21.6081 79.8338 22.2927 79.4137L38.8306 69.2912C39.3177 68.9893 39.8708 68.8448 40.4106 68.8448Z" fill="#474747"/>
<path d="M53.8508 114C54.9563 114 56.036 113.686 57 113.085L56.563 112.352C55.3804 113.098 53.9794 113.32 52.6297 112.993C51.2801 112.666 50.1361 111.816 49.4035 110.613L43.6064 101.016C42.8738 99.8126 42.6553 98.3873 42.9766 97.0143C43.2979 95.6413 44.1334 94.4776 45.316 93.7323L44.8789 93C43.5036 93.863 42.5396 95.2098 42.1668 96.8051C41.7941 98.4004 42.0511 100.048 42.8866 101.447L48.6836 111.045C49.532 112.444 50.8559 113.425 52.4241 113.804C52.8997 113.948 53.3753 114 53.8508 114Z" fill="#474747"/>
<path d="M96.1182 88C98.9612 86.2326 99.8488 82.4359 98.1121 79.5425L92.3103 69.9329C90.5737 67.0395 86.843 66.1362 84 67.9036L84.4374 68.6367C86.8816 67.105 90.0977 67.8905 91.5899 70.378L97.3917 79.9876C98.8969 82.4751 98.125 85.7482 95.6808 87.2668L96.1182 88Z" fill="#474747"/>
<defs>
<linearGradient id="paint0_linear_9010_140778" x1="143.228" y1="2.99031" x2="39.903" y2="147.823" gradientUnits="userSpaceOnUse">
<stop offset="0.0307263" stop-color="#F2F2F2"/>
<stop offset="1" stop-color="#C7C7C7"/>
</linearGradient>
<linearGradient id="paint1_linear_9010_140778" x1="112.234" y1="64.3936" x2="-210.455" y2="262.641" gradientUnits="userSpaceOnUse">
<stop stop-color="#FFF888"/>
<stop offset="0.0487233" stop-color="#FCF284"/>
<stop offset="0.1142" stop-color="#F4E178"/>
<stop offset="0.1893" stop-color="#E8C564"/>
<stop offset="0.2709" stop-color="#D69E49"/>
<stop offset="0.2745" stop-color="#D59C48"/>
<stop offset="0.301" stop-color="#DFB257"/>
<stop offset="0.3477" stop-color="#EFD46F"/>
<stop offset="0.3863" stop-color="#F9E97D"/>
<stop offset="0.4118" stop-color="#FCF182"/>
<stop offset="0.5784" stop-color="#D49740"/>
<stop offset="0.6102" stop-color="#E2B858"/>
<stop offset="0.6461" stop-color="#EFD56E"/>
<stop offset="0.6817" stop-color="#F8EA7D"/>
<stop offset="0.7164" stop-color="#FDF787"/>
<stop offset="0.7492" stop-color="#FFFB8A"/>
<stop offset="0.9561" stop-color="#D08E31"/>
</linearGradient>
</defs>
</svg>
