<svg width="124" height="124" fill="none" xmlns="http://www.w3.org/2000/svg"><path d="M30.24 3.45h-3.45V1.724C26.79.747 27.537 0 28.515 0h1.724v3.45Z" fill="#2C3E50"/><path d="M33.587 3.45h-3.45V0h1.725c.978 0 1.725.747 1.725 1.725v1.724Zm8.323 0a1.725 1.725 0 1 0 0-3.45 1.725 1.725 0 0 0 0 3.45Zm10.042 0a1.725 1.725 0 1 0 0-3.45 1.725 1.725 0 0 0 0 3.45Zm11.772 0h-3.45V1.724C60.274.747 61.022 0 62 0c.977 0 1.724.747 1.724 1.725v1.724Zm16.743 0h-1.725a1.694 1.694 0 0 1-1.724-1.725c0-.978.747-1.725 1.724-1.725h1.725v3.45Z" fill="#2C3E50"/><path d="M82.09 3.45h-1.725V0h1.725c.977 0 1.724.747 1.724 1.725 0 .977-.747 1.724-1.724 1.724Zm6.698 0a1.725 1.725 0 1 0 0-3.45 1.725 1.725 0 0 0 0 3.45Zm6.697 0a1.725 1.725 0 1 0 0-3.45 1.725 1.725 0 0 0 0 3.45ZM30.24 3.349h-3.45v3.449h3.45v-3.45Z" fill="#2C3E50"/><path d="M31.862 6.798h-1.724v-3.45h3.449v1.725c0 .977-.748 1.725-1.725 1.725Zm6.698 0a1.725 1.725 0 1 0 0-3.45 1.725 1.725 0 0 0 0 3.45Zm21.814 0h-1.725a1.694 1.694 0 0 1-1.724-1.725c0-.977.747-1.724 1.724-1.724h1.725v3.449Z" fill="#2C3E50"/><path d="M63.724 3.349h-3.45v3.449h3.45v-3.45Z" fill="#2C3E50"/><path d="M67.072 3.349h-3.449v3.449h3.45v-3.45Z" fill="#2C3E50"/><path d="M68.697 6.798h-1.724v-3.45h1.724c.977 0 1.725.748 1.725 1.725 0 .977-.748 1.725-1.725 1.725Zm23.441 0a1.725 1.725 0 1 0 0-3.45 1.725 1.725 0 0 0 0 3.45Zm-63.623 3.348a1.694 1.694 0 0 1-1.725-1.724V6.697h3.45v1.725c0 .977-.748 1.724-1.725 1.724Zm8.422 0h-3.449V8.422c0-.977.748-1.725 1.725-1.725.977 0 1.724.748 1.724 1.725v1.724Zm6.698 0h-3.45V8.422c0-.977.748-1.725 1.725-1.725h1.725v3.45Z" fill="#2C3E50"/><path d="M46.98 10.146h-3.45V6.697h1.725c.977 0 1.724.748 1.724 1.725v1.724Zm10.046 0h-3.449V8.422c0-.977.748-1.725 1.725-1.725.977 0 1.724.748 1.724 1.725v1.724Zm6.698-3.449h-3.45v3.45h3.45v-3.45Z" fill="#2C3E50"/><path d="M65.348 10.146h-1.725V6.697h3.45v1.725c0 .977-.748 1.724-1.725 1.724Zm15.119 0h-1.725a1.694 1.694 0 0 1-1.724-1.724c0-.977.747-1.725 1.724-1.725h1.725v3.45Z" fill="#2C3E50"/><path d="M83.814 10.146h-3.449V6.697h1.725c.977 0 1.724.748 1.724 1.725v1.724Zm6.699 0h-3.45V8.422c0-.977.748-1.725 1.725-1.725.977 0 1.725.748 1.725 1.725v1.724Zm4.972 0a1.725 1.725 0 1 0 0-3.449 1.725 1.725 0 0 0 0 3.45Zm-61.898 3.349h-1.725a1.694 1.694 0 0 1-1.724-1.725c0-.977.747-1.724 1.724-1.724h1.725v3.449Z" fill="#2C3E50"/><path d="M36.937 10.046h-3.449v3.449h3.45v-3.45Z" fill="#2C3E50"/><path d="M40.285 10.046h-3.45v3.449h3.45v-3.45Z" fill="#2C3E50"/><path d="M43.635 10.046h-3.45v3.449h3.45v-3.45Z" fill="#2C3E50"/><path d="M46.98 10.046h-3.45v3.449h3.45v-3.45Z" fill="#2C3E50"/><path d="M50.329 10.046h-3.45v3.449h3.45v-3.45Z" fill="#2C3E50"/><path d="M53.677 10.046h-3.45v3.449h3.45v-3.45Z" fill="#2C3E50"/><path d="M55.302 13.495h-1.725v-3.45h3.45v1.725c0 .978-.748 1.725-1.725 1.725Zm8.422-3.449h-3.45v3.449h3.45v-3.45Zm6.698 3.449h-1.725a1.694 1.694 0 0 1-1.724-1.725c0-.977.747-1.724 1.724-1.724h1.725v3.449Z" fill="#2C3E50"/><path d="M73.77 13.495h-3.45v-3.45h1.725c.977 0 1.724.748 1.724 1.725v1.725Zm10.044-3.449h-3.449v3.449h3.45v-3.45Z" fill="#2C3E50"/><path d="M87.164 10.046h-3.45v3.449h3.45v-3.45Z" fill="#2C3E50"/><path d="M90.513 10.046h-3.45v3.449h3.45v-3.45Zm-50.228 3.349h-3.45v3.449h3.45v-3.45Z" fill="#2C3E50"/><path d="M43.635 13.395h-3.45v3.449h3.45v-3.45Zm16.739 3.449h-3.45v-1.725c0-.977.748-1.724 1.725-1.724h1.725v3.449Z" fill="#2C3E50"/><path d="M61.999 16.844h-1.725v-3.45h3.45v1.725c0 .977-.748 1.725-1.725 1.725Zm11.771-3.449h-3.45v3.449h3.45v-3.45Z" fill="#2C3E50"/><path d="M75.392 16.844h-1.724v-3.45h1.724c.978 0 1.725.748 1.725 1.725 0 .977-.747 1.725-1.725 1.725Zm8.422 0H82.09a1.694 1.694 0 0 1-1.725-1.725v-1.724h3.45v3.449Z" fill="#2C3E50"/><path d="M87.164 13.395h-3.45v3.449h3.45v-3.45Z" fill="#2C3E50"/><path d="M90.513 13.395h-3.45v3.449h3.45v-3.45ZM30.24 20.192h-3.45v-1.724c0-.977.747-1.725 1.725-1.725h1.724v3.45Z" fill="#2C3E50"/><path d="M31.862 20.192h-1.724v-3.449h1.724c.978 0 1.725.748 1.725 1.725 0 .977-.748 1.724-1.725 1.724Zm8.423 0h-1.724a1.694 1.694 0 0 1-1.725-1.724v-1.725h3.449v3.45Z" fill="#2C3E50"/><path d="M43.635 16.743h-3.45v3.45h3.45v-3.45Zm6.694 3.449h-3.45v-1.724c0-.977.748-1.725 1.725-1.725h1.725v3.45Z" fill="#2C3E50"/><path d="M53.677 16.743h-3.45v3.45h3.45v-3.45Z" fill="#2C3E50"/><path d="M57.026 16.743h-3.449v3.45h3.45v-3.45Z" fill="#2C3E50"/><path d="M58.65 20.192h-1.725v-3.449h3.449v1.725c0 .977-.747 1.724-1.725 1.724Zm13.395 0a1.694 1.694 0 0 1-1.725-1.724v-1.725h3.45v1.725c0 .977-.748 1.724-1.725 1.724Zm6.697 0a1.725 1.725 0 1 0 0-3.449 1.725 1.725 0 0 0 0 3.45Zm8.422 0h-1.725a1.694 1.694 0 0 1-1.724-1.724v-1.725h3.449v3.45Z" fill="#2C3E50"/><path d="M90.513 16.743h-3.45v3.45h3.45v-3.45Z" fill="#2C3E50"/><path d="M93.862 16.743h-3.449v3.45h3.45v-3.45Z" fill="#2C3E50"/><path d="M97.21 20.192h-3.45v-3.449h1.725c.978 0 1.725.748 1.725 1.725v1.724Zm-66.97-.1h-3.45v3.449h3.45v-3.45Zm4.973 3.448a1.725 1.725 0 1 0 0-3.448 1.725 1.725 0 0 0 0 3.449Zm6.697 0a1.694 1.694 0 0 1-1.724-1.724v-1.724h3.449v1.724c0 .978-.748 1.725-1.725 1.725Zm6.694 0a1.694 1.694 0 0 1-1.724-1.724v-1.724h3.449v1.724c0 .978-.747 1.725-1.725 1.725Zm8.422-3.448h-3.449v3.449h3.45v-3.45Zm4.973 3.448a1.725 1.725 0 1 0 0-3.448 1.725 1.725 0 0 0 0 3.449Zm6.698 0a1.725 1.725 0 1 0 0-3.448 1.725 1.725 0 0 0 0 3.449Zm6.695 0a1.725 1.725 0 1 0 0-3.448 1.725 1.725 0 0 0 0 3.449Zm6.698 0a1.725 1.725 0 1 0 0-3.448 1.725 1.725 0 0 0 0 3.449Zm6.698 0a1.694 1.694 0 0 1-1.724-1.724v-1.724h3.449v1.724c0 .978-.748 1.725-1.725 1.725Z" fill="#2C3E50"/><path d="M97.21 20.092h-3.45v3.449h3.45v-3.45ZM30.24 23.44h-3.45v3.45h3.45v-3.45Z" fill="#2C3E50"/><path d="M33.587 26.89h-3.45v-3.45h1.725c.978 0 1.725.748 1.725 1.725v1.725Zm13.393 0h-3.45v-1.725c0-.977.748-1.725 1.725-1.725.977 0 1.724.748 1.724 1.725v1.725Zm10.046 0h-1.724a1.694 1.694 0 0 1-1.725-1.725V23.44h3.45v3.45Z" fill="#2C3E50"/><path d="M58.65 26.89h-1.725v-3.45h1.724c.978 0 1.725.748 1.725 1.725 0 .977-.747 1.725-1.725 1.725Zm8.422 0h-3.449v-1.725c0-.977.747-1.725 1.725-1.725.977 0 1.724.748 1.724 1.725v1.725Zm11.67 0a1.725 1.725 0 1 0 0-3.45 1.725 1.725 0 0 0 0 3.45Zm6.698 0a1.725 1.725 0 1 0 0-3.45 1.725 1.725 0 0 0 0 3.45Zm10.045 0a1.694 1.694 0 0 1-1.724-1.725V23.44h3.449v1.725c0 .977-.747 1.725-1.725 1.725Zm-85.339 3.348H8.422a1.694 1.694 0 0 1-1.725-1.724c0-.978.748-1.725 1.725-1.725h1.724v3.45Z" fill="#2C3E50"/><path d="M13.494 26.79h-3.45v3.448h3.45V26.79Z" fill="#2C3E50"/><path d="M16.845 30.238h-3.45V26.79h1.725c.977 0 1.725.747 1.725 1.725v1.724Zm4.968 0a1.725 1.725 0 1 0 0-3.45 1.725 1.725 0 0 0 0 3.45Zm8.427-3.448h-3.45v3.448h3.45V26.79Z" fill="#2C3E50"/><path d="M33.587 26.79h-3.45v3.448h3.45V26.79Zm10.048 3.448H41.91a1.694 1.694 0 0 1-1.724-1.724c0-.978.747-1.725 1.724-1.725h1.725v3.45Z" fill="#2C3E50"/><path d="M46.98 26.79h-3.45v3.448h3.45V26.79Z" fill="#2C3E50"/><path d="M50.329 26.79h-3.45v3.448h3.45V26.79Z" fill="#2C3E50"/><path d="M51.952 30.238h-1.724V26.79h1.724c.977 0 1.725.747 1.725 1.725 0 .977-.748 1.724-1.725 1.724Zm11.772 0h-1.725a1.694 1.694 0 0 1-1.725-1.724c0-.978.748-1.725 1.725-1.725h1.724v3.45Z" fill="#2C3E50"/><path d="M67.072 26.79h-3.449v3.448h3.45V26.79Z" fill="#2C3E50"/><path d="M70.422 26.79h-3.45v3.448h3.45V26.79Z" fill="#2C3E50"/><path d="M73.77 26.79h-3.45v3.448h3.45V26.79Z" fill="#2C3E50"/><path d="M75.392 30.238h-1.724V26.79h1.724c.978 0 1.725.747 1.725 1.725 0 .977-.747 1.724-1.725 1.724Zm8.422 0h-3.449v-1.724c0-.978.748-1.725 1.725-1.725.977 0 1.724.747 1.724 1.725v1.724Zm4.974 0a1.725 1.725 0 1 0 0-3.45 1.725 1.725 0 0 0 0 3.45Zm11.771 0h-1.724a1.694 1.694 0 0 1-1.725-1.724c0-.978.748-1.725 1.725-1.725h1.724v3.45Z" fill="#2C3E50"/><path d="M103.907 26.79h-3.449v3.448h3.449V26.79Z" fill="#2C3E50"/><path d="M107.257 30.238h-3.449V26.79h1.724c.977 0 1.725.747 1.725 1.725v1.724Zm10.046 0h-1.725a1.694 1.694 0 0 1-1.724-1.724c0-.978.747-1.725 1.724-1.725h1.725v3.45Z" fill="#2C3E50"/><path d="M120.65 26.79h-3.449v3.448h3.449V26.79Z" fill="#2C3E50"/><path d="M122.275 30.238h-1.724V26.79h1.724c.978 0 1.725.747 1.725 1.725 0 .977-.747 1.724-1.725 1.724ZM3.45 33.587H1.724A1.694 1.694 0 0 1 0 31.862c0-.977.747-1.724 1.725-1.724h1.724v3.449Z" fill="#2C3E50"/><path d="M6.797 33.587h-3.45v-3.45h1.725c.977 0 1.725.748 1.725 1.725v1.725Zm10.048-3.449h-3.45v3.449h3.45v-3.45Z" fill="#2C3E50"/><path d="M18.468 33.587h-1.725v-3.45h1.725c.977 0 1.724.748 1.724 1.725 0 .978-.747 1.725-1.724 1.725Zm11.772 0h-1.725a1.694 1.694 0 0 1-1.725-1.725v-1.724h3.45v3.449Z" fill="#2C3E50"/><path d="M33.587 30.138h-3.45v3.449h3.45v-3.45Z" fill="#2C3E50"/><path d="M36.937 30.138h-3.449v3.449h3.45v-3.45Z" fill="#2C3E50"/><path d="M40.285 33.587h-3.45v-3.45h1.725c.978 0 1.725.748 1.725 1.725v1.725Zm8.319 0a1.694 1.694 0 0 1-1.724-1.725v-1.724h3.449v1.724c0 .978-.747 1.725-1.725 1.725Zm8.422 0h-3.449v-1.725c0-.977.748-1.724 1.725-1.724h1.724v3.449Z" fill="#2C3E50"/><path d="M60.374 33.587h-3.45v-3.45h1.725c.978 0 1.725.748 1.725 1.725v1.725Zm10.048-3.449h-3.45v3.449h3.45v-3.45Zm13.392 3.449H82.09a1.694 1.694 0 0 1-1.725-1.725v-1.724h3.45v3.449Z" fill="#2C3E50"/><path d="M87.164 33.587h-3.45v-3.45h1.725c.978 0 1.725.748 1.725 1.725v1.725Zm6.698 0h-3.449v-1.725c0-.977.747-1.724 1.725-1.724.977 0 1.724.747 1.724 1.724v1.725Zm13.395-3.449h-3.449v3.449h3.449v-3.45Zm4.973 3.449a1.725 1.725 0 1 0 0-3.45 1.725 1.725 0 0 0 0 3.45ZM6.797 33.486h-3.45v3.45h3.45v-3.45Zm6.697 3.449H11.77a1.694 1.694 0 0 1-1.725-1.724c0-.977.747-1.725 1.725-1.725h1.724v3.45Z" fill="#2C3E50"/><path d="M15.12 36.935h-1.724v-3.449h3.449v1.725c0 .977-.748 1.724-1.725 1.724Zm8.418 0h-1.725a1.694 1.694 0 0 1-1.724-1.724c0-.977.747-1.725 1.724-1.725h1.725v3.45Z" fill="#2C3E50"/><path d="M26.89 36.935h-3.45v-3.449h1.725c.977 0 1.725.748 1.725 1.725v1.724Zm10.047-3.449h-3.449v3.45h3.45v-3.45Z" fill="#2C3E50"/><path d="M40.285 33.486h-3.45v3.45h3.45v-3.45Zm4.97 3.449a1.725 1.725 0 1 0 0-3.449 1.725 1.725 0 0 0 0 3.45Zm11.771-3.449h-3.449v3.45h3.45v-3.45Z" fill="#2C3E50"/><path d="M60.374 33.486h-3.45v3.45h3.45v-3.45Z" fill="#2C3E50"/><path d="M61.999 36.935h-1.725v-3.449H62c.977 0 1.724.748 1.724 1.725 0 .977-.747 1.724-1.724 1.724Zm8.423-3.449h-3.45v3.45h3.45v-3.45Zm6.695 3.449h-3.449v-1.724c0-.977.747-1.725 1.724-1.725h1.725v3.45Z" fill="#2C3E50"/><path d="M80.467 36.935h-3.45v-3.449h1.725c.977 0 1.725.748 1.725 1.725v1.724Zm6.697 0h-1.725a1.694 1.694 0 0 1-1.724-1.724v-1.725h3.449v3.45Z" fill="#2C3E50"/><path d="M90.513 33.486h-3.45v3.45h3.45v-3.45Z" fill="#2C3E50"/><path d="M93.862 33.486h-3.449v3.45h3.45v-3.45Z" fill="#2C3E50"/><path d="M97.21 36.935h-3.45v-3.449h1.725c.978 0 1.725.748 1.725 1.725v1.724Zm6.697 0h-3.449v-1.724c0-.977.747-1.725 1.725-1.725h1.724v3.45Z" fill="#2C3E50"/><path d="M105.532 36.935h-1.724v-3.449h3.449v1.725c0 .977-.748 1.724-1.725 1.724Zm11.771 0h-1.725a1.693 1.693 0 0 1-1.724-1.724c0-.977.747-1.725 1.724-1.725h1.725v3.45Z" fill="#2C3E50"/><path d="M120.65 33.486h-3.449v3.45h3.449v-3.45Z" fill="#2C3E50"/><path d="M124 36.935h-3.449v-3.449h1.724c.978 0 1.725.748 1.725 1.725v1.724ZM3.45 40.284H0V38.56c0-.978.747-1.725 1.725-1.725h1.724v3.449Z" fill="#2C3E50"/><path d="M5.072 40.284H3.348v-3.449h3.449v1.724c0 .978-.748 1.725-1.725 1.725Zm20.093 0a1.694 1.694 0 0 1-1.725-1.724v-1.725h3.45v1.724c0 .978-.748 1.725-1.725 1.725Zm11.772-3.449h-3.449v3.449h3.45v-3.449Z" fill="#2C3E50"/><path d="M40.285 36.835h-3.45v3.449h3.45v-3.449Zm15.017 3.449a1.694 1.694 0 0 1-1.725-1.724v-1.725h3.45v1.724c0 .978-.748 1.725-1.725 1.725Zm11.77 0h-3.449V38.56c0-.978.747-1.725 1.725-1.725h1.724v3.449Z" fill="#2C3E50"/><path d="M70.422 36.835h-3.45v3.449h3.45v-3.449Z" fill="#2C3E50"/><path d="M73.77 36.835h-3.45v3.449h3.45v-3.449Z" fill="#2C3E50"/><path d="M77.117 36.835h-3.449v3.449h3.45v-3.449Z" fill="#2C3E50"/><path d="M78.742 40.284h-1.724v-3.449h3.449v1.724c0 .978-.748 1.725-1.725 1.725Zm11.771-3.449h-3.45v3.449h3.45v-3.449Zm4.972 3.449a1.694 1.694 0 0 1-1.724-1.724v-1.725h3.449v1.724c0 .978-.747 1.725-1.725 1.725Zm8.422-3.449h-3.449v3.449h3.449v-3.449Zm6.698 3.449h-3.449V38.56c0-.978.748-1.725 1.725-1.725.977 0 1.724.747 1.724 1.724v1.725Zm10.045-3.449h-3.449v3.449h3.449v-3.449Z" fill="#2C3E50"/><path d="M122.275 40.284h-1.724v-3.449H124v1.724c0 .978-.747 1.725-1.725 1.725ZM1.725 43.633A1.694 1.694 0 0 1 0 41.908v-1.724h3.45v1.724c0 .977-.748 1.725-1.725 1.725Zm11.769 0h-3.45v-1.725c0-.977.748-1.724 1.726-1.724h1.724v3.449Z" fill="#2C3E50"/><path d="M16.845 40.184h-3.45v3.449h3.45v-3.45Z" fill="#2C3E50"/><path d="M20.192 40.184h-3.449v3.449h3.45v-3.45Z" fill="#2C3E50"/><path d="M21.813 43.633H20.09v-3.45h1.724c.978 0 1.725.748 1.725 1.725 0 .977-.747 1.725-1.725 1.725Zm11.774 0h-1.725a1.694 1.694 0 0 1-1.724-1.725c0-.977.747-1.724 1.724-1.724h1.725v3.449Z" fill="#2C3E50"/><path d="M36.937 40.184h-3.449v3.449h3.45v-3.45Z" fill="#2C3E50"/><path d="M40.285 40.184h-3.45v3.449h3.45v-3.45Z" fill="#2C3E50"/><path d="M41.91 43.633h-1.724v-3.45h1.724c.977 0 1.725.748 1.725 1.725 0 .977-.748 1.725-1.725 1.725Zm6.694 0a1.725 1.725 0 1 0 0-3.45 1.725 1.725 0 0 0 0 3.45Zm11.77 0h-3.45v-1.725c0-.977.748-1.724 1.725-1.724h1.725v3.449Z" fill="#2C3E50"/><path d="M63.724 40.184h-3.45v3.449h3.45v-3.45Z" fill="#2C3E50"/><path d="M67.072 40.184h-3.449v3.449h3.45v-3.45Z" fill="#2C3E50"/><path d="M68.697 43.633h-1.724v-3.45h3.449v1.725c0 .977-.748 1.725-1.725 1.725Zm15.117 0h-3.449v-1.725c0-.977.748-1.724 1.725-1.724h1.724v3.449Z" fill="#2C3E50"/><path d="M87.164 40.184h-3.45v3.449h3.45v-3.45Z" fill="#2C3E50"/><path d="M88.788 43.633h-1.724v-3.45h3.449v1.725c0 .977-.748 1.725-1.725 1.725Zm11.771 0H97.11v-1.725c0-.977.748-1.724 1.725-1.724h1.724v3.449Z" fill="#2C3E50"/><path d="M102.183 43.633h-1.725v-3.45h3.449v1.725c0 .977-.747 1.725-1.724 1.725Zm8.422 0h-1.724a1.694 1.694 0 0 1-1.725-1.725v-1.724h3.449v3.449Z" fill="#2C3E50"/><path d="M113.955 40.184h-3.449v3.449h3.449v-3.45Z" fill="#2C3E50"/><path d="M117.303 40.184h-3.449v3.449h3.449v-3.45Z" fill="#2C3E50"/><path d="M118.926 43.633h-1.725v-3.45h3.449v1.725c0 .977-.747 1.725-1.724 1.725ZM6.797 46.981h-3.45v-1.724c0-.977.748-1.725 1.725-1.725h1.725v3.45Z" fill="#2C3E50"/><path d="M10.146 43.532H6.697v3.45h3.45v-3.45Z" fill="#2C3E50"/><path d="M13.494 43.532h-3.45v3.45h3.45v-3.45Zm15.021 3.449a1.725 1.725 0 1 0 0-3.449 1.725 1.725 0 0 0 0 3.45Zm10.045 0a1.694 1.694 0 0 1-1.724-1.724v-1.725h3.449v1.725c0 .977-.747 1.724-1.724 1.724Zm6.695 0a1.725 1.725 0 1 0 0-3.449 1.725 1.725 0 0 0 0 3.45Zm11.771 0h-3.449v-1.724c0-.977.748-1.725 1.725-1.725h1.724v3.45Z" fill="#2C3E50"/><path d="M60.374 43.532h-3.45v3.45h3.45v-3.45Z" fill="#2C3E50"/><path d="M63.724 43.532h-3.45v3.45h3.45v-3.45Z" fill="#2C3E50"/><path d="M65.348 46.981h-1.725v-3.449h3.45v1.725c0 .977-.748 1.724-1.725 1.724Zm8.422 0h-3.45v-1.724c0-.977.748-1.725 1.725-1.725.977 0 1.724.748 1.724 1.725v1.724Zm10.044-3.449h-3.449v3.45h3.45v-3.45Zm13.396 3.449h-3.45v-1.724c0-.977.748-1.725 1.725-1.725h1.725v3.45Z" fill="#2C3E50"/><path d="M98.835 46.981H97.11v-3.449h3.449v1.725c0 .977-.747 1.724-1.724 1.724Zm8.422 0h-3.449v-1.724c0-.977.747-1.725 1.724-1.725s1.725.748 1.725 1.725v1.724Zm6.698-3.449h-3.449v3.45h3.449v-3.45Z" fill="#2C3E50"/><path d="M115.578 46.981h-1.724v-3.449h3.449v1.725c0 .977-.748 1.724-1.725 1.724ZM3.45 50.33H1.724A1.694 1.694 0 0 1 0 48.605c0-.977.747-1.724 1.725-1.724h1.724v3.449Z" fill="#2C3E50"/><path d="M6.797 46.88h-3.45v3.45h3.45v-3.45Z" fill="#2C3E50"/><path d="M10.146 46.88H6.697v3.45h3.45v-3.45Z" fill="#2C3E50"/><path d="M13.494 46.88h-3.45v3.45h3.45v-3.45Z" fill="#2C3E50"/><path d="M16.845 46.88h-3.45v3.45h3.45v-3.45Z" fill="#2C3E50"/><path d="M20.192 46.88h-3.449v3.45h3.45v-3.45Z" fill="#2C3E50"/><path d="M23.538 46.88h-3.45v3.45h3.45v-3.45Z" fill="#2C3E50"/><path d="M26.89 50.33h-3.45v-3.45h1.725c.977 0 1.725.748 1.725 1.725v1.725Zm10.047 0h-3.449v-1.725c0-.977.748-1.724 1.725-1.724.977 0 1.724.747 1.724 1.724v1.725Zm6.698 0h-3.45v-1.725c0-.977.748-1.724 1.725-1.724.977 0 1.725.747 1.725 1.724v1.725Zm4.969 0a1.725 1.725 0 1 0 0-3.45 1.725 1.725 0 0 0 0 3.45Zm8.422-3.45h-3.449v3.45h3.45v-3.45Z" fill="#2C3E50"/><path d="M60.374 46.88h-3.45v3.45h3.45v-3.45Z" fill="#2C3E50"/><path d="M63.724 46.88h-3.45v3.45h3.45v-3.45Zm6.698 3.45h-3.45v-1.725c0-.977.748-1.724 1.725-1.724h1.725v3.449Z" fill="#2C3E50"/><path d="M73.77 46.88h-3.45v3.45h3.45v-3.45Zm6.697 3.45h-3.45v-1.725c0-.977.748-1.724 1.725-1.724h1.725v3.449Z" fill="#2C3E50"/><path d="M83.814 46.88h-3.449v3.45h3.45v-3.45Z" fill="#2C3E50"/><path d="M85.44 50.33h-1.725v-3.45h1.724c.978 0 1.725.748 1.725 1.725 0 .978-.747 1.725-1.725 1.725Zm8.422 0h-3.449v-1.725c0-.977.747-1.724 1.725-1.724h1.724v3.449Z" fill="#2C3E50"/><path d="M97.21 46.88h-3.45v3.45h3.45v-3.45Zm8.322 3.45a1.693 1.693 0 0 1-1.724-1.725v-1.724h3.449v1.724c0 .978-.748 1.725-1.725 1.725Zm6.698 0a1.693 1.693 0 0 1-1.724-1.725v-1.724h3.449v1.724c0 .978-.747 1.725-1.725 1.725Zm8.42 0h-3.449v-1.725c0-.977.747-1.724 1.725-1.724h1.724v3.449Z" fill="#2C3E50"/><path d="M122.275 50.33h-1.724v-3.45h1.724c.978 0 1.725.748 1.725 1.725 0 .978-.747 1.725-1.725 1.725ZM15.12 53.679a1.694 1.694 0 0 1-1.724-1.725V50.23h3.449v1.724c0 .977-.748 1.725-1.725 1.725Zm11.77 0h-1.725a1.694 1.694 0 0 1-1.725-1.725V50.23h3.45v3.449Z" fill="#2C3E50"/><path d="M30.24 53.679h-3.45v-3.45h1.725c.977 0 1.724.748 1.724 1.725v1.725Zm6.697-3.449h-3.449v3.449h3.45v-3.45Zm6.698 0h-3.45v3.449h3.45v-3.45Zm11.667 3.449a1.694 1.694 0 0 1-1.725-1.725V50.23h3.45v1.724c0 .977-.748 1.725-1.725 1.725Zm8.422-3.449h-3.45v3.449h3.45v-3.45Z" fill="#2C3E50"/><path d="M67.072 50.23h-3.449v3.449h3.45v-3.45Z" fill="#2C3E50"/><path d="M70.422 50.23h-3.45v3.449h3.45v-3.45Z" fill="#2C3E50"/><path d="M73.77 50.23h-3.45v3.449h3.45v-3.45Z" fill="#2C3E50"/><path d="M77.117 50.23h-3.449v3.449h3.45v-3.45Z" fill="#2C3E50"/><path d="M78.742 53.679h-1.724v-3.45h3.449v1.725c0 .977-.748 1.725-1.725 1.725Zm15.12 0h-1.724a1.694 1.694 0 0 1-1.725-1.725V50.23h3.45v3.449Z" fill="#2C3E50"/><path d="M97.21 50.23h-3.45v3.449h3.45v-3.45Z" fill="#2C3E50"/><path d="M100.559 50.23H97.11v3.449h3.449v-3.45Z" fill="#2C3E50"/><path d="M103.907 53.679h-3.449v-3.45h1.725c.977 0 1.724.748 1.724 1.725v1.725Zm6.698 0h-3.449v-1.725c0-.977.748-1.724 1.725-1.724.977 0 1.724.747 1.724 1.724v1.725Zm10.045-3.449h-3.449v3.449h3.449v-3.45ZM6.797 57.027H5.072a1.694 1.694 0 0 1-1.724-1.724c0-.978.747-1.725 1.724-1.725h1.725v3.45Z" fill="#2C3E50"/><path d="M10.146 53.578H6.697v3.45h3.45v-3.45Z" fill="#2C3E50"/><path d="M11.77 57.027h-1.725v-3.449h1.725c.977 0 1.724.747 1.724 1.725 0 .977-.747 1.724-1.724 1.724Zm10.043 0a1.725 1.725 0 1 0 0-3.449 1.725 1.725 0 0 0 0 3.45Zm8.427-3.449h-3.45v3.45h3.45v-3.45Zm4.973 3.449a1.694 1.694 0 0 1-1.725-1.724v-1.725h3.45v1.725c0 .977-.748 1.724-1.725 1.724Zm8.422-3.449h-3.45v3.45h3.45v-3.45Zm10.042 3.449h-3.45v-1.724c0-.978.748-1.725 1.725-1.725.977 0 1.725.747 1.725 1.725v1.724Zm6.697 0h-1.725a1.694 1.694 0 0 1-1.724-1.724c0-.978.747-1.725 1.724-1.725h1.725v3.45Z" fill="#2C3E50"/><path d="M63.724 53.578h-3.45v3.45h3.45v-3.45Z" fill="#2C3E50"/><path d="M65.348 57.027h-1.725v-3.449h3.45v1.725c0 .977-.748 1.724-1.725 1.724Zm11.769-3.449h-3.449v3.45h3.45v-3.45Zm6.697 3.449h-3.449v-1.724c0-.978.748-1.725 1.725-1.725h1.724v3.45Z" fill="#2C3E50"/><path d="M87.164 53.578h-3.45v3.45h3.45v-3.45Z" fill="#2C3E50"/><path d="M90.513 57.027h-3.45v-3.449h1.725c.977 0 1.725.747 1.725 1.725v1.724Zm10.046 0h-1.724a1.694 1.694 0 0 1-1.725-1.724v-1.725h3.449v3.45Z" fill="#2C3E50"/><path d="M102.183 57.027h-1.725v-3.449h3.449v1.725c0 .977-.747 1.724-1.724 1.724Zm6.698 0a1.694 1.694 0 0 1-1.725-1.724v-1.725h3.449v1.725c0 .977-.747 1.724-1.724 1.724Zm8.422 0h-3.449v-1.724c0-.978.747-1.725 1.724-1.725h1.725v3.45Z" fill="#2C3E50"/><path d="M118.926 57.027h-1.725v-3.449h3.449v1.725c0 .977-.747 1.724-1.724 1.724ZM3.45 60.376H0V58.65c0-.977.747-1.724 1.725-1.724.977 0 1.724.747 1.724 1.724v1.725Zm4.972 0a1.694 1.694 0 0 1-1.725-1.725v-1.724h3.45v1.724c0 .977-.748 1.725-1.725 1.725Zm8.423 0h-3.45V58.65c0-.977.748-1.724 1.725-1.724h1.725v3.449Z" fill="#2C3E50"/><path d="M20.192 60.376h-3.449v-3.45h1.725c.977 0 1.724.748 1.724 1.725v1.725Zm6.698 0h-3.45V58.65c0-.977.748-1.724 1.725-1.724h1.725v3.449Z" fill="#2C3E50"/><path d="M30.24 56.927h-3.45v3.449h3.45v-3.45Z" fill="#2C3E50"/><path d="M31.862 60.376h-1.724v-3.45h1.724c.978 0 1.725.748 1.725 1.725 0 .977-.748 1.725-1.725 1.725Zm11.773-3.449h-3.45v3.449h3.45v-3.45Zm8.317 3.449a1.694 1.694 0 0 1-1.724-1.725v-1.724h3.449v1.724c0 .977-.748 1.725-1.725 1.725Zm23.44 0a1.694 1.694 0 0 1-1.724-1.725v-1.724h3.45v1.724c0 .977-.748 1.725-1.725 1.725Zm6.698 0a1.694 1.694 0 0 1-1.725-1.725v-1.724h3.45v1.724c0 .977-.748 1.725-1.725 1.725Zm6.698 0a1.694 1.694 0 0 1-1.724-1.725v-1.724h3.449v1.724c0 .977-.748 1.725-1.725 1.725Zm16.744 0a1.725 1.725 0 1 0 0-3.45 1.725 1.725 0 0 0 0 3.45Zm10.046 0a1.693 1.693 0 0 1-1.724-1.725v-1.724h3.449v1.724c0 .977-.748 1.725-1.725 1.725ZM1.725 63.724A1.694 1.694 0 0 1 0 62v-1.725h3.45V62c0 .977-.748 1.724-1.725 1.724Zm15.12-3.449h-3.45v3.45h3.45v-3.45Z" fill="#2C3E50"/><path d="M20.192 60.275h-3.449v3.45h3.45v-3.45Z" fill="#2C3E50"/><path d="M23.538 60.275h-3.45v3.45h3.45v-3.45Z" fill="#2C3E50"/><path d="M26.89 60.275h-3.45v3.45h3.45v-3.45Zm10.047 3.449h-3.449V62c0-.977.748-1.725 1.725-1.725.977 0 1.724.748 1.724 1.725v1.724Zm6.698 0H41.91A1.694 1.694 0 0 1 40.186 62v-1.725h3.449v3.45Z" fill="#2C3E50"/><path d="M46.98 63.724h-3.45v-3.449h1.725c.977 0 1.724.748 1.724 1.725v1.724Zm13.394 0h-1.725A1.694 1.694 0 0 1 56.925 62c0-.977.747-1.725 1.724-1.725h1.725v3.45Z" fill="#2C3E50"/><path d="M61.999 63.724h-1.725v-3.449H62c.977 0 1.724.748 1.724 1.725 0 .977-.747 1.724-1.724 1.724Zm8.423 0h-3.45V62c0-.977.748-1.725 1.725-1.725h1.725v3.45Z" fill="#2C3E50"/><path d="M72.045 63.724H70.32v-3.449h1.725c.977 0 1.724.748 1.724 1.725 0 .977-.747 1.724-1.724 1.724Zm21.817 0h-3.449V62c0-.977.747-1.725 1.725-1.725h1.724v3.45Z" fill="#2C3E50"/><path d="M97.21 60.275h-3.45v3.45h3.45v-3.45Z" fill="#2C3E50"/><path d="M98.835 63.724H97.11v-3.449h1.725c.977 0 1.724.748 1.724 1.725 0 .977-.747 1.724-1.724 1.724Zm10.046 0a1.724 1.724 0 1 0 0-3.448 1.724 1.724 0 0 0 0 3.448Zm11.769 0h-1.724A1.694 1.694 0 0 1 117.201 62c0-.977.747-1.725 1.725-1.725h1.724v3.45Z" fill="#2C3E50"/><path d="M124 63.724h-3.449v-3.449h1.724c.978 0 1.725.748 1.725 1.725v1.724ZM10.146 67.073H6.697V65.35c0-.978.748-1.725 1.725-1.725h1.724v3.45Z" fill="#2C3E50"/><path d="M13.494 63.624h-3.45v3.45h3.45v-3.45Z" fill="#2C3E50"/><path d="M16.845 63.624h-3.45v3.45h3.45v-3.45Z" fill="#2C3E50"/><path d="M20.192 63.624h-3.449v3.45h3.45v-3.45Zm6.698 3.449h-1.725a1.694 1.694 0 0 1-1.725-1.724v-1.725h3.45v3.45Z" fill="#2C3E50"/><path d="M30.24 67.073h-3.45v-3.449h1.725c.977 0 1.724.747 1.724 1.725v1.724Zm6.697-3.449h-3.449v3.45h3.45v-3.45Z" fill="#2C3E50"/><path d="M38.56 67.073h-1.724v-3.449h1.724c.978 0 1.725.747 1.725 1.725 0 .977-.747 1.724-1.724 1.724Zm8.42 0h-1.725a1.694 1.694 0 0 1-1.725-1.724v-1.725h3.45v3.45Z" fill="#2C3E50"/><path d="M50.329 63.624h-3.45v3.45h3.45v-3.45Z" fill="#2C3E50"/><path d="M51.952 67.073h-1.724v-3.449h1.724c.977 0 1.725.747 1.725 1.725 0 .977-.748 1.724-1.725 1.724Zm18.47-3.449h-3.45v3.45h3.45v-3.45Zm6.695 3.449h-1.725a1.694 1.694 0 0 1-1.724-1.724c0-.978.747-1.725 1.724-1.725h1.725v3.45Z" fill="#2C3E50"/><path d="M80.467 63.624h-3.45v3.45h3.45v-3.45Z" fill="#2C3E50"/><path d="M82.09 67.073h-1.725v-3.449h1.725c.977 0 1.724.747 1.724 1.725 0 .977-.747 1.724-1.724 1.724Zm11.772-3.449h-3.449v3.45h3.45v-3.45Z" fill="#2C3E50"/><path d="M95.485 67.073h-1.724v-3.449h3.449v1.725c0 .977-.747 1.724-1.725 1.724Zm8.422 0h-3.449V65.35c0-.978.747-1.725 1.725-1.725.977 0 1.724.747 1.724 1.725v1.724Zm18.368 0a1.693 1.693 0 0 1-1.724-1.724v-1.725H124v1.725c0 .977-.747 1.724-1.725 1.724ZM6.797 70.422h-3.45v-1.725c0-.977.748-1.724 1.725-1.724h1.725v3.449Z" fill="#2C3E50"/><path d="M8.422 70.422H6.697v-3.45h3.45v1.725c0 .977-.748 1.725-1.725 1.725Zm8.423 0H15.12a1.694 1.694 0 0 1-1.724-1.725v-1.724h3.449v3.449Z" fill="#2C3E50"/><path d="M20.192 66.973h-3.449v3.449h3.45v-3.45Z" fill="#2C3E50"/><path d="M21.813 70.422H20.09v-3.45h1.724c.978 0 1.725.748 1.725 1.725 0 .977-.747 1.725-1.725 1.725Zm8.427-3.449h-3.45v3.449h3.45v-3.45Zm6.697 0h-3.449v3.449h3.45v-3.45Zm30.135 3.449h-1.724a1.694 1.694 0 0 1-1.725-1.725c0-.977.747-1.724 1.725-1.724h1.724v3.449Z" fill="#2C3E50"/><path d="M70.422 66.973h-3.45v3.449h3.45v-3.45Zm16.742 3.449h-1.725a1.694 1.694 0 0 1-1.724-1.725c0-.977.747-1.724 1.724-1.724h1.725v3.449Z" fill="#2C3E50"/><path d="M90.513 66.973h-3.45v3.449h3.45v-3.45Z" fill="#2C3E50"/><path d="M92.138 70.422h-1.725v-3.45h3.45v1.725c0 .977-.748 1.725-1.725 1.725Zm8.421 0h-1.724a1.694 1.694 0 0 1-1.725-1.725c0-.977.748-1.724 1.725-1.724h1.724v3.449Z" fill="#2C3E50"/><path d="M103.907 66.973h-3.449v3.449h3.449v-3.45Z" fill="#2C3E50"/><path d="M107.257 66.973h-3.449v3.449h3.449v-3.45Z" fill="#2C3E50"/><path d="M110.605 66.973h-3.449v3.449h3.449v-3.45Z" fill="#2C3E50"/><path d="M113.955 66.973h-3.449v3.449h3.449v-3.45Z" fill="#2C3E50"/><path d="M117.303 70.422h-3.449v-3.45h1.724c.977 0 1.725.748 1.725 1.725v1.725ZM6.797 70.321h-3.45v3.45h3.45v-3.45Zm13.395 0h-3.449v3.45h3.45v-3.45Zm8.323 3.449a1.694 1.694 0 0 1-1.725-1.724V70.32h3.45v1.725c0 .977-.748 1.724-1.725 1.724Zm8.422-3.449h-3.449v3.45h3.45v-3.45Z" fill="#2C3E50"/><path d="M38.56 73.77h-1.724v-3.449h1.724c.978 0 1.725.748 1.725 1.725 0 .977-.747 1.724-1.724 1.724Zm6.695 0a1.725 1.725 0 1 0 0-3.449 1.725 1.725 0 0 0 0 3.45Zm8.422 0h-3.45v-1.724c0-.977.748-1.725 1.725-1.725.977 0 1.725.748 1.725 1.725v1.724Zm6.697 0h-3.45v-1.724c0-.977.748-1.725 1.725-1.725h1.725v3.45Z" fill="#2C3E50"/><path d="M61.999 73.77h-1.725v-3.449H62c.977 0 1.724.748 1.724 1.725 0 .977-.747 1.724-1.724 1.724Zm6.698 0a1.694 1.694 0 0 1-1.724-1.724V70.32h3.449v1.725c0 .977-.748 1.724-1.725 1.724Zm8.42 0h-3.449v-1.724c0-.977.747-1.725 1.724-1.725.978 0 1.725.748 1.725 1.725v1.724Zm11.671 0a1.694 1.694 0 0 1-1.724-1.724V70.32h3.449v1.725c0 .977-.748 1.724-1.725 1.724Zm16.744 0a1.693 1.693 0 0 1-1.724-1.724V70.32h3.449v1.725c0 .977-.748 1.724-1.725 1.724Zm11.771-3.449h-3.449v3.45h3.449v-3.45ZM5.072 77.119a1.694 1.694 0 0 1-1.724-1.725V73.67h3.449v1.724c0 .978-.748 1.725-1.725 1.725Zm15.12 0h-1.724a1.694 1.694 0 0 1-1.725-1.725V73.67h3.45v3.449Z" fill="#2C3E50"/><path d="M21.813 77.119H20.09v-3.45h1.724c.978 0 1.725.748 1.725 1.725 0 .978-.747 1.725-1.725 1.725Zm11.774 0h-1.725a1.694 1.694 0 0 1-1.724-1.725c0-.977.747-1.724 1.724-1.724h1.725v3.449Z" fill="#2C3E50"/><path d="M36.937 73.67h-3.449v3.449h3.45v-3.45Zm13.392 3.449h-3.45v-1.725c0-.977.748-1.724 1.725-1.724h1.725v3.449Z" fill="#2C3E50"/><path d="M53.677 73.67h-3.45v3.449h3.45v-3.45Zm6.697 0h-3.45v3.449h3.45v-3.45Zm4.974 3.449a1.725 1.725 0 1 0 0-3.449 1.725 1.725 0 0 0 0 3.449Zm11.769 0h-1.725a1.694 1.694 0 0 1-1.724-1.725V73.67h3.45v3.449Z" fill="#2C3E50"/><path d="M78.742 77.119h-1.724v-3.45h1.724c.977 0 1.725.748 1.725 1.725 0 .978-.748 1.725-1.725 1.725Zm13.396 0a1.725 1.725 0 1 0 0-3.45 1.725 1.725 0 0 0 0 3.45Zm8.421 0H97.11v-1.725c0-.977.748-1.724 1.725-1.724.977 0 1.724.747 1.724 1.724v1.725Zm16.744 0h-1.725a1.693 1.693 0 0 1-1.724-1.725V73.67h3.449v3.449Z" fill="#2C3E50"/><path d="M120.65 73.67h-3.449v3.449h3.449v-3.45Z" fill="#2C3E50"/><path d="M124 77.119h-3.449v-3.45h1.724c.978 0 1.725.748 1.725 1.725v1.725ZM10.146 80.468H6.697v-1.725c0-.977.748-1.724 1.725-1.724.977 0 1.724.747 1.724 1.724v1.725Zm20.094 0h-3.45v-1.725c0-.977.747-1.724 1.725-1.724.977 0 1.724.747 1.724 1.724v1.725Zm6.697 0h-1.724a1.694 1.694 0 0 1-1.725-1.725V77.02h3.45v3.449Z" fill="#2C3E50"/><path d="M38.56 80.468h-1.724v-3.45h1.724c.978 0 1.725.748 1.725 1.725 0 .977-.747 1.725-1.724 1.725Zm8.42 0h-1.725a1.694 1.694 0 0 1-1.725-1.725c0-.977.748-1.724 1.725-1.724h1.724v3.449Z" fill="#2C3E50"/><path d="M50.329 77.019h-3.45v3.449h3.45v-3.45Z" fill="#2C3E50"/><path d="M53.677 77.019h-3.45v3.449h3.45v-3.45Z" fill="#2C3E50"/><path d="M57.026 77.019h-3.449v3.449h3.45v-3.45Z" fill="#2C3E50"/><path d="M60.374 77.019h-3.45v3.449h3.45v-3.45Zm10.048 3.449h-1.725a1.694 1.694 0 0 1-1.724-1.725c0-.977.747-1.724 1.724-1.724h1.725v3.449Z" fill="#2C3E50"/><path d="M72.045 80.468H70.32v-3.45h1.725c.977 0 1.724.748 1.724 1.725 0 .977-.747 1.725-1.724 1.725Zm10.045 0a1.725 1.725 0 1 0 0-3.45 1.725 1.725 0 0 0 0 3.45Zm6.698 0a1.725 1.725 0 1 0 0-3.45 1.725 1.725 0 0 0 0 3.45Zm11.771-3.449H97.11v3.449h3.449v-3.45Zm4.973 3.449a1.725 1.725 0 1 0 0-3.45 1.725 1.725 0 0 0 0 3.45Zm15.118 0h-1.724a1.694 1.694 0 0 1-1.725-1.725V77.02h3.449v3.449Z" fill="#2C3E50"/><path d="M122.275 80.468h-1.724v-3.45H124v1.725c0 .977-.747 1.725-1.725 1.725ZM3.45 83.816H0v-1.724c0-.977.747-1.725 1.725-1.725h1.724v3.45Z" fill="#2C3E50"/><path d="M6.797 80.367h-3.45v3.45h3.45v-3.45Z" fill="#2C3E50"/><path d="M10.146 80.367H6.697v3.45h3.45v-3.45Z" fill="#2C3E50"/><path d="M13.494 80.367h-3.45v3.45h3.45v-3.45Z" fill="#2C3E50"/><path d="M16.845 80.367h-3.45v3.45h3.45v-3.45Z" fill="#2C3E50"/><path d="M20.192 80.367h-3.449v3.45h3.45v-3.45Z" fill="#2C3E50"/><path d="M21.813 83.816H20.09v-3.449h1.724c.978 0 1.725.748 1.725 1.725 0 .977-.747 1.724-1.725 1.724Zm8.427 0h-1.725a1.694 1.694 0 0 1-1.725-1.724v-1.725h3.45v3.45Z" fill="#2C3E50"/><path d="M31.862 83.816h-1.724v-3.449h1.724c.978 0 1.725.748 1.725 1.725 0 .977-.748 1.724-1.725 1.724Zm16.742 0a1.694 1.694 0 0 1-1.724-1.724v-1.725h3.449v1.725c0 .977-.747 1.724-1.725 1.724Zm8.422 0h-1.724a1.694 1.694 0 0 1-1.725-1.724v-1.725h3.45v3.45Z" fill="#2C3E50"/><path d="M58.65 83.816h-1.725v-3.449h3.449v1.725c0 .977-.747 1.724-1.725 1.724Zm20.092 0a1.725 1.725 0 1 0 0-3.449 1.725 1.725 0 0 0 0 3.45Zm21.817 0h-1.724a1.694 1.694 0 0 1-1.725-1.724v-1.725h3.449v3.45Z" fill="#2C3E50"/><path d="M102.183 83.816h-1.725v-3.449h1.725c.977 0 1.724.748 1.724 1.725 0 .977-.747 1.724-1.724 1.724Zm8.422 0h-1.724a1.694 1.694 0 0 1-1.725-1.724c0-.977.748-1.725 1.725-1.725h1.724v3.45Z" fill="#2C3E50"/><path d="M113.955 80.367h-3.449v3.45h3.449v-3.45Z" fill="#2C3E50"/><path d="M115.578 83.816h-1.724v-3.449h1.724c.977 0 1.725.748 1.725 1.725 0 .977-.748 1.724-1.725 1.724Zm-112.128-.1H0v3.449h3.45v-3.45Z" fill="#2C3E50"/><path d="M6.797 83.716h-3.45v3.449h3.45v-3.45Z" fill="#2C3E50"/><path d="M8.422 87.165H6.697v-3.45h3.45v1.725c0 .978-.748 1.725-1.725 1.725Zm36.833 0a1.725 1.725 0 1 0 0-3.45 1.725 1.725 0 0 0 0 3.45Zm8.422 0h-3.45V85.44c0-.977.748-1.724 1.725-1.724.977 0 1.725.747 1.725 1.724v1.725Zm10.047 0h-3.45V85.44c0-.977.748-1.724 1.725-1.724.977 0 1.724.747 1.724 1.724v1.725Zm10.046 0h-1.725a1.694 1.694 0 0 1-1.725-1.725c0-.977.748-1.724 1.725-1.724h1.724v3.449Z" fill="#2C3E50"/><path d="M75.392 87.165h-1.724v-3.45h1.724c.978 0 1.725.748 1.725 1.725 0 .978-.747 1.725-1.725 1.725Zm6.698 0a1.725 1.725 0 1 0 0-3.45 1.725 1.725 0 0 0 0 3.45Zm8.423 0h-3.45V85.44c0-.977.748-1.724 1.725-1.724.977 0 1.725.747 1.725 1.724v1.725Zm15.019 0a1.725 1.725 0 1 0 0-3.45 1.725 1.725 0 0 0 0 3.45Zm6.698 0a1.693 1.693 0 0 1-1.724-1.725v-1.724h3.449v1.724c0 .978-.747 1.725-1.725 1.725ZM3.45 87.064H0v3.45h3.45v-3.45Zm13.395 3.449h-3.45V88.79c0-.977.748-1.725 1.725-1.725h1.725v3.45Z" fill="#2C3E50"/><path d="M20.192 87.064h-3.449v3.45h3.45v-3.45Z" fill="#2C3E50"/><path d="M21.813 90.513H20.09v-3.449h1.724c.978 0 1.725.748 1.725 1.725 0 .977-.747 1.724-1.725 1.724Zm6.702 0a1.725 1.725 0 1 0 0-3.449 1.725 1.725 0 0 0 0 3.45Zm8.422 0h-3.449V88.79c0-.977.748-1.725 1.725-1.725.977 0 1.724.748 1.724 1.725v1.724Zm13.392 0h-1.725a1.694 1.694 0 0 1-1.724-1.724c0-.977.747-1.725 1.724-1.725h1.725v3.45Z" fill="#2C3E50"/><path d="M51.952 90.513h-1.724v-3.449h3.449v1.725c0 .977-.748 1.724-1.725 1.724Zm10.047 0a1.694 1.694 0 0 1-1.725-1.724v-1.725h3.45v1.725c0 .977-.748 1.724-1.725 1.724Zm6.698 0a1.725 1.725 0 1 0 0-3.449 1.725 1.725 0 0 0 0 3.45Zm21.816-3.449h-3.45v3.45h3.45v-3.45Z" fill="#2C3E50"/><path d="M92.138 90.513h-1.725v-3.449h1.725c.977 0 1.724.748 1.724 1.725 0 .977-.747 1.724-1.724 1.724Zm10.045 0a1.724 1.724 0 1 0 0-3.448 1.724 1.724 0 0 0 0 3.448Zm18.467 0h-3.449V88.79c0-.977.747-1.725 1.725-1.725h1.724v3.45Z" fill="#2C3E50"/><path d="M122.275 90.513h-1.724v-3.449h1.724c.978 0 1.725.748 1.725 1.725 0 .977-.747 1.724-1.725 1.724Zm-118.825-.1H0v3.45h3.45v-3.45Zm13.395 3.449H15.12a1.694 1.694 0 0 1-1.724-1.724v-1.725h3.449v3.45Z" fill="#2C3E50"/><path d="M20.192 90.413h-3.449v3.45h3.45v-3.45Zm13.395 3.449h-1.725a1.694 1.694 0 0 1-1.724-1.724c0-.978.747-1.725 1.724-1.725h1.725v3.45Z" fill="#2C3E50"/><path d="M36.937 90.413h-3.449v3.45h3.45v-3.45Zm6.698 3.449H41.91a1.694 1.694 0 0 1-1.724-1.724c0-.978.747-1.725 1.724-1.725h1.725v3.45Z" fill="#2C3E50"/><path d="M45.255 93.862H43.53v-3.449h1.725c.977 0 1.724.747 1.724 1.725 0 .977-.747 1.724-1.724 1.724Zm20.093 0a1.725 1.725 0 1 0 0-3.449 1.725 1.725 0 0 0 0 3.45Zm8.422 0h-1.725a1.694 1.694 0 0 1-1.725-1.724c0-.978.748-1.725 1.725-1.725h1.724v3.45Z" fill="#2C3E50"/><path d="M75.392 93.862h-1.724v-3.449h1.724c.978 0 1.725.747 1.725 1.725 0 .977-.747 1.724-1.725 1.724Zm8.422 0h-3.449v-1.724c0-.978.748-1.725 1.725-1.725.977 0 1.724.747 1.724 1.725v1.724Zm6.699-3.449h-3.45v3.45h3.45v-3.45Zm6.697 3.449h-3.45v-1.724c0-.978.748-1.725 1.725-1.725h1.725v3.45Z" fill="#2C3E50"/><path d="M100.559 93.862H97.11v-3.449h1.725c.977 0 1.724.747 1.724 1.725v1.724Zm6.698 0h-3.449v-1.724c0-.978.747-1.725 1.724-1.725s1.725.747 1.725 1.725v1.724Zm13.393-3.449h-3.449v3.45h3.449v-3.45ZM1.725 97.21A1.694 1.694 0 0 1 0 95.487v-1.724h3.45v1.724c0 .977-.748 1.725-1.725 1.725Zm18.467 0h-1.724a1.694 1.694 0 0 1-1.725-1.724v-1.724h3.45v3.449Z" fill="#2C3E50"/><path d="M21.813 97.21H20.09v-3.448h1.724c.978 0 1.725.747 1.725 1.724s-.747 1.725-1.725 1.725Zm15.124 0h-1.724a1.694 1.694 0 0 1-1.725-1.724v-1.724h3.45v3.449Z" fill="#2C3E50"/><path d="M38.56 97.21h-1.724v-3.448h1.724c.978 0 1.725.747 1.725 1.724s-.747 1.725-1.724 1.725Zm18.466 0h-3.449v-1.724c0-.977.748-1.724 1.725-1.724h1.724v3.449Z" fill="#2C3E50"/><path d="M60.374 97.21h-3.45v-3.448h1.725c.978 0 1.725.747 1.725 1.724v1.725Zm10.048 0h-3.45v-1.724c0-.977.748-1.724 1.725-1.724.977 0 1.725.747 1.725 1.724v1.725Zm13.392 0H82.09a1.694 1.694 0 0 1-1.725-1.724v-1.724h3.45v3.449Z" fill="#2C3E50"/><path d="M87.164 93.762h-3.45v3.449h3.45v-3.45Z" fill="#2C3E50"/><path d="M88.788 97.21h-1.724v-3.448h3.449v1.724c0 .977-.748 1.725-1.725 1.725Zm8.422-3.448h-3.45v3.449h3.45v-3.45Z" fill="#2C3E50"/><path d="M100.559 93.762H97.11v3.449h3.449v-3.45Z" fill="#2C3E50"/><path d="M103.907 93.762h-3.449v3.449h3.449v-3.45Z" fill="#2C3E50"/><path d="M107.257 93.762h-3.449v3.449h3.449v-3.45Z" fill="#2C3E50"/><path d="M110.605 97.21h-3.449v-3.448h1.725c.977 0 1.724.747 1.724 1.724v1.725Zm6.698 0h-1.725a1.693 1.693 0 0 1-1.724-1.724c0-.977.747-1.724 1.724-1.724h1.725v3.449Z" fill="#2C3E50"/><path d="M118.926 97.21h-1.725v-3.448h3.449v1.724c0 .977-.747 1.725-1.724 1.725Zm-88.686 3.349h-1.725a1.693 1.693 0 0 1-1.725-1.724c0-.977.747-1.725 1.725-1.725h1.724v3.449Z" fill="#2C3E50"/><path d="M33.587 100.559h-3.45V97.11h1.725c.978 0 1.725.748 1.725 1.725v1.724Zm10.048 0H41.91a1.693 1.693 0 0 1-1.724-1.724c0-.977.747-1.725 1.724-1.725h1.725v3.449Z" fill="#2C3E50"/><path d="M46.98 97.11h-3.45v3.449h3.45V97.11Z" fill="#2C3E50"/><path d="M50.329 97.11h-3.45v3.449h3.45V97.11Z" fill="#2C3E50"/><path d="M53.677 97.11h-3.45v3.449h3.45V97.11Z" fill="#2C3E50"/><path d="M57.026 97.11h-3.449v3.449h3.45V97.11Z" fill="#2C3E50"/><path d="M60.374 97.11h-3.45v3.449h3.45V97.11Z" fill="#2C3E50"/><path d="M63.724 100.559h-3.45V97.11H62c.977 0 1.724.748 1.724 1.725v1.724Zm6.698 0h-1.725a1.693 1.693 0 0 1-1.724-1.724V97.11h3.449v3.449Z" fill="#2C3E50"/><path d="M73.77 97.11h-3.45v3.449h3.45V97.11Z" fill="#2C3E50"/><path d="M77.117 97.11h-3.449v3.449h3.45V97.11Z" fill="#2C3E50"/><path d="M78.742 100.559h-1.724V97.11h1.724c.977 0 1.725.748 1.725 1.725 0 .977-.748 1.724-1.725 1.724Zm15.12 0h-1.724a1.693 1.693 0 0 1-1.725-1.724c0-.977.747-1.725 1.725-1.725h1.724v3.449Z" fill="#2C3E50"/><path d="M97.21 97.11h-3.45v3.449h3.45V97.11Zm13.395 0h-3.449v3.449h3.449V97.11Zm-77.018 3.349h-3.45v3.449h3.45v-3.449Zm4.973 3.449a1.724 1.724 0 1 0 0-3.449 1.724 1.724 0 0 0 0 3.449Zm6.695 0a1.693 1.693 0 0 1-1.725-1.724v-1.725h3.45v1.725c0 .977-.748 1.724-1.725 1.724Zm10.047 0a1.694 1.694 0 0 1-1.725-1.724v-1.725h3.45v1.725c0 .977-.748 1.724-1.725 1.724Zm6.697 0a1.693 1.693 0 0 1-1.725-1.724v-1.725h3.45v1.725c0 .977-.748 1.724-1.725 1.724Zm11.771-3.449h-3.45v3.449h3.45v-3.449Z" fill="#2C3E50"/><path d="M77.117 100.459h-3.449v3.449h3.45v-3.449Zm4.973 3.449a1.724 1.724 0 1 0 0-3.449 1.724 1.724 0 0 0 0 3.449Zm8.423 0h-3.45v-1.724c0-.978.748-1.725 1.725-1.725.977 0 1.725.747 1.725 1.725v1.724Zm6.697-3.449h-3.45v3.449h3.45v-3.449Zm4.973 3.449a1.724 1.724 0 1 0 0-3.448 1.724 1.724 0 0 0 0 3.448Zm8.422-3.449h-3.449v3.449h3.449v-3.449Z" fill="#2C3E50"/><path d="M112.23 103.908h-1.724v-3.449h1.724c.978 0 1.725.747 1.725 1.725 0 .977-.747 1.724-1.725 1.724Zm8.42 0h-3.449v-1.724c0-.978.747-1.725 1.725-1.725h1.724v3.449Z" fill="#2C3E50"/><path d="M122.275 103.908h-1.724v-3.449h1.724c.978 0 1.725.747 1.725 1.725 0 .977-.747 1.724-1.725 1.724Zm-88.688-.1h-3.45v3.449h3.45v-3.449Zm18.365 3.449a1.725 1.725 0 1 0 0-3.45 1.725 1.725 0 0 0 0 3.45Zm8.422 0h-3.45v-1.725c0-.977.748-1.724 1.725-1.724.978 0 1.725.747 1.725 1.724v1.725Zm6.698 0h-3.449v-1.725c0-.977.747-1.724 1.725-1.724h1.724v3.449Z" fill="#2C3E50"/><path d="M70.422 103.808h-3.45v3.449h3.45v-3.449Z" fill="#2C3E50"/><path d="M73.77 103.808h-3.45v3.449h3.45v-3.449Z" fill="#2C3E50"/><path d="M77.117 103.808h-3.449v3.449h3.45v-3.449Zm13.396 3.449h-1.725a1.694 1.694 0 0 1-1.724-1.725v-1.724h3.449v3.449Z" fill="#2C3E50"/><path d="M93.862 103.808h-3.449v3.449h3.45v-3.449Z" fill="#2C3E50"/><path d="M97.21 103.808h-3.45v3.449h3.45v-3.449Zm13.395 0h-3.449v3.449h3.449v-3.449Zm8.321 3.449a1.694 1.694 0 0 1-1.725-1.725v-1.724h3.449v1.724c0 .977-.747 1.725-1.724 1.725Zm-88.686 3.348h-3.45v-1.724c0-.977.747-1.725 1.725-1.725h1.724v3.449Z" fill="#2C3E50"/><path d="M33.587 107.156h-3.45v3.449h3.45v-3.449Z" fill="#2C3E50"/><path d="M36.937 107.156h-3.449v3.449h3.45v-3.449Z" fill="#2C3E50"/><path d="M40.285 107.156h-3.45v3.449h3.45v-3.449Z" fill="#2C3E50"/><path d="M43.635 107.156h-3.45v3.449h3.45v-3.449Z" fill="#2C3E50"/><path d="M46.98 110.605h-3.45v-3.449h1.725c.977 0 1.724.748 1.724 1.725v1.724Zm13.394-3.449h-3.45v3.449h3.45v-3.449Zm4.974 3.449a1.693 1.693 0 0 1-1.725-1.724v-1.725h3.45v1.725c0 .977-.748 1.724-1.725 1.724Zm11.769 0h-1.725a1.693 1.693 0 0 1-1.724-1.724v-1.725h3.45v3.449Z" fill="#2C3E50"/><path d="M80.467 107.156h-3.45v3.449h3.45v-3.449Z" fill="#2C3E50"/><path d="M83.814 107.156h-3.449v3.449h3.45v-3.449Z" fill="#2C3E50"/><path d="M85.44 110.605h-1.725v-3.449h1.724c.978 0 1.725.748 1.725 1.725 0 .977-.747 1.724-1.725 1.724Zm8.422 0h-1.724a1.693 1.693 0 0 1-1.725-1.724v-1.725h3.45v3.449Z" fill="#2C3E50"/><path d="M97.21 107.156h-3.45v3.449h3.45v-3.449Z" fill="#2C3E50"/><path d="M100.559 107.156H97.11v3.449h3.449v-3.449Z" fill="#2C3E50"/><path d="M103.907 107.156h-3.449v3.449h3.449v-3.449Z" fill="#2C3E50"/><path d="M107.257 107.156h-3.449v3.449h3.449v-3.449Z" fill="#2C3E50"/><path d="M110.605 107.156h-3.449v3.449h3.449v-3.449Zm6.698 3.449h-3.449v-1.724c0-.977.747-1.725 1.724-1.725s1.725.748 1.725 1.725v1.724Zm-87.063-.1h-3.45v3.449h3.45v-3.449Zm6.697 3.449h-1.724a1.694 1.694 0 0 1-1.725-1.725v-1.724h3.45v3.449Z" fill="#2C3E50"/><path d="M38.56 113.954h-1.724v-3.449h3.449v1.724c0 .978-.747 1.725-1.724 1.725Zm8.42 0h-1.725a1.694 1.694 0 0 1-1.725-1.725v-1.724h3.45v3.449Z" fill="#2C3E50"/><path d="M50.329 110.505h-3.45v3.449h3.45v-3.449Z" fill="#2C3E50"/><path d="M53.677 110.505h-3.45v3.449h3.45v-3.449Z" fill="#2C3E50"/><path d="M57.026 110.505h-3.449v3.449h3.45v-3.449Z" fill="#2C3E50"/><path d="M60.374 110.505h-3.45v3.449h3.45v-3.449Z" fill="#2C3E50"/><path d="M61.999 113.954h-1.725v-3.449H62c.977 0 1.724.747 1.724 1.724 0 .978-.747 1.725-1.724 1.725Zm11.771 0h-3.45v-1.725c0-.977.748-1.724 1.725-1.724.977 0 1.724.747 1.724 1.724v1.725Zm28.413 0a1.694 1.694 0 0 1-1.725-1.725v-1.724h3.449v1.724c0 .978-.747 1.725-1.724 1.725Zm6.698 0a1.694 1.694 0 0 1-1.725-1.725v-1.724h3.449v1.724c0 .978-.747 1.725-1.724 1.725Zm8.422-3.449h-3.449v3.449h3.449v-3.449Zm-88.788 6.798a1.694 1.694 0 0 1-1.725-1.725v-1.724h3.45v1.724c0 .977-.748 1.725-1.725 1.725Zm15.12 0h-3.45v-1.725c0-.977.748-1.724 1.725-1.724.977 0 1.725.747 1.725 1.724v1.725Zm8.317 0a1.694 1.694 0 0 1-1.724-1.725v-1.724h3.449v1.724c0 .977-.748 1.725-1.725 1.725Z" fill="#2C3E50"/><path d="M58.65 117.303a1.694 1.694 0 0 1-1.725-1.725v-1.724h3.449v1.724c0 .977-.747 1.725-1.725 1.725Zm11.772 0h-3.45v-1.725c0-.977.748-1.724 1.725-1.724h1.725v3.449Z" fill="#2C3E50"/><path d="M73.77 113.854h-3.45v3.449h3.45v-3.449Z" fill="#2C3E50"/><path d="M77.117 113.854h-3.449v3.449h3.45v-3.449Z" fill="#2C3E50"/><path d="M80.467 113.854h-3.45v3.449h3.45v-3.449Z" fill="#2C3E50"/><path d="M82.09 117.303h-1.725v-3.449h1.725c.977 0 1.724.747 1.724 1.724s-.747 1.725-1.724 1.725Zm18.469 0H97.11v-1.725c0-.977.748-1.724 1.725-1.724.977 0 1.724.747 1.724 1.724v1.725Zm4.973 0a1.725 1.725 0 1 0 0-3.45 1.725 1.725 0 0 0 0 3.45Zm10.046 0a1.694 1.694 0 0 1-1.724-1.725v-1.724h3.449v1.724c0 .977-.748 1.725-1.725 1.725Zm8.422 0h-3.449v-1.725c0-.977.747-1.724 1.724-1.724.978 0 1.725.747 1.725 1.724v1.725Zm-90.413 3.348h-1.725a1.693 1.693 0 0 1-1.724-1.724c0-.978.747-1.725 1.724-1.725h1.725v3.449Z" fill="#2C3E50"/><path d="M36.937 120.651h-3.449v-3.449h1.725c.977 0 1.724.747 1.724 1.725v1.724Zm4.973 0a1.693 1.693 0 0 1-1.724-1.724v-1.725h3.449v1.725c0 .977-.748 1.724-1.725 1.724Zm13.392 0a1.724 1.724 0 1 0 0-3.449 1.724 1.724 0 0 0 0 3.449Zm8.422 0h-3.45v-1.724c0-.978.748-1.725 1.725-1.725h1.724v3.449Z" fill="#2C3E50"/><path d="M67.072 117.202h-3.449v3.449h3.45v-3.449Z" fill="#2C3E50"/><path d="M68.697 120.651h-1.724v-3.449h3.449v1.725c0 .977-.748 1.724-1.725 1.724Zm8.42 0h-1.725a1.693 1.693 0 0 1-1.724-1.724v-1.725h3.45v3.449Z" fill="#2C3E50"/><path d="M80.467 117.202h-3.45v3.449h3.45v-3.449Zm13.395 3.449h-1.724a1.693 1.693 0 0 1-1.725-1.724c0-.978.747-1.725 1.725-1.725h1.724v3.449Z" fill="#2C3E50"/><path d="M97.21 117.202h-3.45v3.449h3.45v-3.449Z" fill="#2C3E50"/><path d="M98.835 120.651H97.11v-3.449h3.449v1.725c0 .977-.747 1.724-1.724 1.724Zm10.046 0a1.724 1.724 0 1 0 0-3.448 1.724 1.724 0 0 0 0 3.448ZM124 117.202h-3.449v3.449H124v-3.449ZM36.937 124h-1.724a1.694 1.694 0 0 1-1.725-1.725v-1.724h3.45V124Z" fill="#2C3E50"/><path d="M38.56 124h-1.724v-3.449h1.724c.978 0 1.725.747 1.725 1.724 0 .978-.747 1.725-1.724 1.725Zm10.044 0a1.725 1.725 0 1 0 0-3.45 1.725 1.725 0 0 0 0 3.45Zm11.77 0h-1.725a1.694 1.694 0 0 1-1.724-1.725c0-.977.747-1.724 1.724-1.724h1.725V124Z" fill="#2C3E50"/><path d="M61.999 124h-1.725v-3.449h3.45v1.724c0 .978-.748 1.725-1.725 1.725Zm18.468 0h-1.725a1.694 1.694 0 0 1-1.724-1.725v-1.724h3.449V124Z" fill="#2C3E50"/><path d="M83.814 120.551h-3.449V124h3.45v-3.449Z" fill="#2C3E50"/><path d="M87.164 120.551h-3.45V124h3.45v-3.449Z" fill="#2C3E50"/><path d="M88.788 124h-1.724v-3.449h1.724c.977 0 1.725.747 1.725 1.724 0 .978-.748 1.725-1.725 1.725Zm13.395 0a1.724 1.724 0 1 0 0-3.449 1.724 1.724 0 0 0 0 3.449Zm11.772 0h-1.725a1.693 1.693 0 0 1-1.724-1.725c0-.977.747-1.724 1.724-1.724h1.725V124Z" fill="#2C3E50"/><path d="M117.303 120.551h-3.449V124h3.449v-3.449Z" fill="#2C3E50"/><path d="M120.65 120.551h-3.449V124h3.449v-3.449Z" fill="#2C3E50"/><path d="M122.275 124h-1.724v-3.449H124v1.724c0 .978-.747 1.725-1.725 1.725ZM7.534 23.44h8.54c4.018 0 7.366-3.348 7.366-7.367V7.534A7.503 7.503 0 0 0 15.906 0H7.367C3.349 0 0 3.349 0 7.367v8.539a7.503 7.503 0 0 0 7.534 7.534ZM20.092 8.037v7.367c0 2.511-2.177 4.688-4.688 4.688H8.037c-2.68 0-4.688-2.01-4.688-4.688V8.037c0-2.512 2.176-4.688 4.688-4.688h7.367c2.679 0 4.688 2.009 4.688 4.688Zm87.9 15.403h8.539c4.018 0 7.367-3.348 7.367-7.367V7.534A7.503 7.503 0 0 0 116.364 0h-8.539c-4.019 0-7.367 3.349-7.367 7.367v8.539a7.503 7.503 0 0 0 7.534 7.534Zm12.557-15.403v7.367c0 2.511-2.176 4.688-4.688 4.688h-7.367c-2.679 0-4.688-2.01-4.688-4.688V8.037c0-2.512 2.177-4.688 4.688-4.688h7.367c2.679 0 4.688 2.009 4.688 4.688ZM7.534 123.899h8.54c4.018 0 7.366-3.348 7.366-7.367v-8.539a7.503 7.503 0 0 0-7.534-7.534H7.367c-4.018 0-7.367 3.349-7.367 7.367v8.539a7.503 7.503 0 0 0 7.534 7.534Zm12.558-15.403v7.367c0 2.511-2.177 4.688-4.688 4.688H8.037c-2.68 0-4.688-2.009-4.688-4.688v-7.367c0-2.512 2.176-4.688 4.688-4.688h7.367c2.679 0 4.688 2.009 4.688 4.688Z" fill="#2C3E50"/><path d="M16.743 9.544v4.52c0 1.34-1.34 2.68-2.846 2.68H9.544c-1.675 0-2.847-1.173-2.847-2.847V9.544c0-1.507 1.34-2.847 2.847-2.847h4.52c1.507 0 2.68 1.172 2.68 2.847Zm100.459 0v4.52c0 1.34-1.339 2.68-2.846 2.68h-4.353c-1.675 0-2.847-1.173-2.847-2.847V9.544c0-1.507 1.34-2.847 2.847-2.847h4.52c1.507 0 2.679 1.172 2.679 2.847ZM16.743 110.003v4.52c0 1.34-1.34 2.679-2.846 2.679H9.544c-1.675 0-2.847-1.172-2.847-2.846v-4.353c0-1.507 1.34-2.847 2.847-2.847h4.52c1.507 0 2.68 1.172 2.68 2.847Z" fill="#2C3E50"/></svg>