<svg width="109" height="34" fill="none" xmlns="http://www.w3.org/2000/svg"><path d="M105.253.501H3.747C1.677.501 0 2.23 0 4.363v25.276c0 2.133 1.678 3.862 3.747 3.862h101.506c2.069 0 3.747-1.729 3.747-3.862V4.363C109 2.23 107.322.5 105.253.5Z" fill="#2C3E50"/><path fill-rule="evenodd" clip-rule="evenodd" d="M19.693 18.069a4.222 4.222 0 0 1 .508-1.964c.326-.6.791-1.105 1.354-1.469a4.054 4.054 0 0 0-1.373-1.28 3.879 3.879 0 0 0-1.78-.504c-1.327-.144-2.614.832-3.29.832-.689 0-1.73-.816-2.852-.792a4.083 4.083 0 0 0-2.053.641c-.62.396-1.13.951-1.481 1.613-1.529 2.768-.388 6.836 1.075 9.074.733 1.095 1.59 2.319 2.71 2.275 1.095-.048 1.505-.73 2.828-.73 1.31 0 1.695.73 2.837.702 1.176-.02 1.918-1.1 2.624-2.206a9.238 9.238 0 0 0 1.2-2.556 3.844 3.844 0 0 1-1.679-1.458 4.068 4.068 0 0 1-.628-2.179v.001Zm-2.157-6.687a4.152 4.152 0 0 0 .881-2.886 3.864 3.864 0 0 0-2.535 1.372 3.945 3.945 0 0 0-.904 2.778c.491.005.976-.106 1.42-.325.443-.22.832-.54 1.138-.94Z" fill="#fff"/><path d="M37.058 13.44h.966a1.529 1.529 0 0 0 .557-.088c.11-.041.218-.1.324-.174.11-.074.207-.176.293-.305.094-.147.164-.309.208-.478a2.53 2.53 0 0 0 .086-.703 2.878 2.878 0 0 0-.08-.71 1.295 1.295 0 0 0-.25-.534 1.046 1.046 0 0 0-.447-.336 1.721 1.721 0 0 0-.679-.118h-.978v3.445Zm-.581-3.944h1.498c.673 0 1.19.174 1.553.523.363.348.545.879.545 1.592 0 .373-.041.705-.123.995a1.894 1.894 0 0 1-.379.728c-.18.2-.404.354-.654.447a2.58 2.58 0 0 1-.942.156h-1.498v-4.44Zm4.722 2.836c0 .195.024.37.073.523.053.149.124.275.214.38.09.099.194.175.312.23a.943.943 0 0 0 1.29-.61c.053-.154.08-.328.08-.523s-.028-.367-.08-.516a1.086 1.086 0 0 0-.208-.386.893.893 0 0 0-.318-.236.945.945 0 0 0-.764 0 .908.908 0 0 0-.313.236c-.089.104-.16.233-.213.386a1.655 1.655 0 0 0-.073.516Zm-.55 0c0-.236.032-.456.097-.659.065-.207.163-.386.293-.535.133-.155.298-.278.483-.36.209-.091.434-.136.661-.131.253 0 .473.043.66.13.192.087.353.208.483.361.13.15.229.328.294.535.065.203.098.423.098.66 0 .236-.033.455-.098.659a1.545 1.545 0 0 1-.293.534 1.403 1.403 0 0 1-.484.355 1.62 1.62 0 0 1-.66.124c-.249 0-.469-.041-.66-.124a1.402 1.402 0 0 1-.484-.354 1.545 1.545 0 0 1-.293-.535 2.146 2.146 0 0 1-.098-.66Zm6.935 1.605h-.55l-.642-2.556h-.013l-.636 2.556h-.562l-1.015-3.216h.574l.716 2.631h.012l.636-2.63h.569l.66 2.63h.012l.71-2.63h.538l-1.01 3.215Zm1.625-3.216h.49v.51h.012c.216-.39.558-.584 1.027-.584.208 0 .381.029.52.087a.85.85 0 0 1 .336.242.879.879 0 0 1 .177.374c.037.14.055.298.055.472v2.115h-.52V11.76c0-.199-.056-.357-.17-.473-.115-.116-.272-.174-.472-.174-.159 0-.297.025-.415.075a.78.78 0 0 0-.288.211.953.953 0 0 0-.176.324 1.363 1.363 0 0 0-.056.398v1.816h-.52v-3.216Zm3.55-1.225h.52v4.441h-.52v-4.44Zm1.827 2.836c0 .195.025.37.074.523.053.149.124.275.214.38.09.099.193.175.312.23a.944.944 0 0 0 1.082-.23c.09-.104.159-.231.208-.38a1.6 1.6 0 0 0 .08-.523 1.54 1.54 0 0 0-.08-.516 1.085 1.085 0 0 0-.208-.386.892.892 0 0 0-.318-.236.945.945 0 0 0-.764 0 .907.907 0 0 0-.312.236c-.09.104-.161.233-.214.386a1.655 1.655 0 0 0-.074.516Zm-.55 0c0-.236.032-.456.098-.659.065-.207.163-.386.293-.535.133-.155.298-.278.483-.36a1.58 1.58 0 0 1 .66-.131c.254 0 .474.043.661.13.186.083.35.206.483.361.13.15.229.328.294.535.065.203.098.423.098.66 0 .236-.033.455-.098.659a1.543 1.543 0 0 1-.294.534 1.4 1.4 0 0 1-.482.355 1.624 1.624 0 0 1-.661.124c-.249 0-.469-.041-.66-.124a1.4 1.4 0 0 1-.483-.354 1.543 1.543 0 0 1-.294-.535 2.146 2.146 0 0 1-.098-.66Zm6.605 1.593a.725.725 0 0 1-.372.08.461.461 0 0 1-.325-.112c-.077-.078-.115-.205-.115-.379-.143.174-.31.3-.502.38a1.64 1.64 0 0 1-.612.111c-.142 0-.278-.016-.41-.05a.942.942 0 0 1-.33-.155.778.778 0 0 1-.226-.274.997.997 0 0 1-.08-.416c0-.183.031-.332.092-.448a.795.795 0 0 1 .239-.28c.102-.075.216-.13.342-.168.13-.037.263-.068.398-.093.142-.03.277-.05.403-.062.116-.014.23-.035.343-.063a.615.615 0 0 0 .232-.118.3.3 0 0 0 .086-.23.516.516 0 0 0-.068-.28.417.417 0 0 0-.165-.162.634.634 0 0 0-.226-.074 1.628 1.628 0 0 0-.245-.019c-.22 0-.403.044-.55.13-.147.084-.226.243-.238.48h-.52c.008-.2.049-.367.122-.504a.91.91 0 0 1 .294-.33c.122-.087.26-.149.416-.186a2.17 2.17 0 0 1 .507-.056c.143 0 .283.01.422.03.143.022.272.065.385.132a.715.715 0 0 1 .276.267.88.88 0 0 1 .103.454v1.654c0 .125.007.216.019.274.016.058.065.087.147.087a.508.508 0 0 0 .159-.03v.41Zm-.843-1.649a.673.673 0 0 1-.257.112 5.6 5.6 0 0 1-.336.056c-.117.013-.233.03-.35.05a1.186 1.186 0 0 0-.317.087.593.593 0 0 0-.232.18.501.501 0 0 0-.086.312.475.475 0 0 0 .049.223.498.498 0 0 0 .134.143.594.594 0 0 0 .196.081 1.28 1.28 0 0 0 .673-.043 1 1 0 0 0 .3-.18.757.757 0 0 0 .17-.237.627.627 0 0 0 .056-.243v-.54Zm1.829.081c0 .15.018.297.055.442.04.14.1.267.177.38a.91.91 0 0 0 .306.267c.126.066.273.1.44.1a.88.88 0 0 0 .447-.107.914.914 0 0 0 .3-.273c.077-.116.132-.247.164-.392a1.846 1.846 0 0 0 0-.896 1.108 1.108 0 0 0-.176-.392.84.84 0 0 0-.306-.267.928.928 0 0 0-.46-.106.88.88 0 0 0-.446.106.834.834 0 0 0-.293.28 1.23 1.23 0 0 0-.16.398 2.151 2.151 0 0 0-.048.46Zm2.446 1.58h-.52v-.435h-.012a.77.77 0 0 1-.404.385 1.517 1.517 0 0 1-.605.118c-.244 0-.459-.045-.642-.136a1.357 1.357 0 0 1-.453-.367 1.642 1.642 0 0 1-.269-.535 2.38 2.38 0 0 1-.006-1.294c.061-.203.15-.38.269-.529.122-.153.273-.273.453-.36a1.41 1.41 0 0 1 .636-.137c.081 0 .17.008.262.025.094.016.188.045.282.087.093.037.181.089.263.155a.789.789 0 0 1 .214.237h.012V9.496h.52v4.441Zm3.125-1.605c0 .195.025.37.074.523.053.149.124.275.214.38.09.099.193.175.312.23a.944.944 0 0 0 1.082-.23c.09-.104.159-.231.208-.38a1.6 1.6 0 0 0 .08-.523 1.54 1.54 0 0 0-.08-.516 1.085 1.085 0 0 0-.208-.386.892.892 0 0 0-.318-.236.945.945 0 0 0-.764 0 .907.907 0 0 0-.312.236c-.09.104-.161.233-.214.386a1.655 1.655 0 0 0-.074.516Zm-.55 0c0-.236.032-.456.098-.659.065-.207.163-.386.293-.535.133-.155.298-.278.483-.36a1.58 1.58 0 0 1 .66-.131c.254 0 .474.043.661.13.192.087.353.208.483.361.13.15.229.328.294.535.065.203.098.423.098.66 0 .236-.033.455-.098.659a1.543 1.543 0 0 1-.294.534 1.402 1.402 0 0 1-.483.355 1.62 1.62 0 0 1-.66.124 1.64 1.64 0 0 1-.66-.124 1.4 1.4 0 0 1-.483-.354 1.543 1.543 0 0 1-.294-.535 2.146 2.146 0 0 1-.098-.66Zm3.805-1.61h.489v.51h.012c.216-.39.559-.585 1.028-.585.207 0 .38.029.52.087.138.058.25.139.336.242a.879.879 0 0 1 .177.374c.037.14.055.298.055.472v2.115h-.52V11.76c0-.199-.057-.357-.171-.473-.114-.116-.271-.174-.47-.174-.16 0-.299.025-.417.075a.78.78 0 0 0-.287.211.95.95 0 0 0-.177.324 1.36 1.36 0 0 0-.056.398v1.816h-.52v-3.216Zm6.066 0h.63v.466h-.63v1.996c0 .063.004.112.012.15a.17.17 0 0 0 .061.087c.029.02.067.035.116.043.053.005.12.006.202.006h.239v.467h-.398a2.07 2.07 0 0 1-.348-.025.55.55 0 0 1-.233-.106.45.45 0 0 1-.128-.211 1.24 1.24 0 0 1-.043-.36v-2.047h-.538v-.467h.538v-.964h.52v.964Zm1.33-1.226h.52v1.698h.011a.675.675 0 0 1 .172-.249.888.888 0 0 1 .244-.168c.094-.045.19-.078.288-.1.102-.02.2-.03.293-.03.208 0 .382.029.52.087.139.058.25.139.336.242a.879.879 0 0 1 .178.374 1.9 1.9 0 0 1 .055.472v2.115h-.52V11.76c0-.199-.057-.357-.171-.473-.114-.116-.271-.174-.471-.174-.16 0-.298.025-.416.075a.78.78 0 0 0-.287.211.95.95 0 0 0-.178.324 1.36 1.36 0 0 0-.055.398v1.816h-.52v-4.44Zm5.715 2.525a1.047 1.047 0 0 0-.086-.354.81.81 0 0 0-.19-.286.797.797 0 0 0-.28-.193.825.825 0 0 0-.355-.075.88.88 0 0 0-.642.268.93.93 0 0 0-.184.292c-.045.11-.072.229-.08.348h1.817Zm.502.896c-.07.36-.223.632-.46.815-.236.182-.533.273-.892.273a1.62 1.62 0 0 1-.66-.124 1.304 1.304 0 0 1-.465-.348 1.524 1.524 0 0 1-.287-.535 2.709 2.709 0 0 1-.105-.678 1.965 1.965 0 0 1 .11-.672c.074-.203.176-.38.306-.528.135-.15.292-.266.471-.349.184-.083.383-.124.6-.124.28 0 .513.06.697.18.187.116.336.265.446.448.114.182.192.381.232.597.045.216.064.42.055.616h-2.366c-.004.14.012.276.049.404a.949.949 0 0 0 .177.336.896.896 0 0 0 .312.23c.126.058.275.087.446.087.22 0 .4-.052.538-.155.143-.104.237-.262.282-.473h.513Zm-36.57 6.187c1.562 0 2.59 1.255 2.59 3.194 0 1.945-1.022 3.193-2.567 3.193-.39.021-.78-.07-1.122-.264a2.104 2.104 0 0 1-.813-.83h-.029v3.1h-1.263v-8.328h1.222v1.041h.023a2.2 2.2 0 0 1 .83-.828 2.16 2.16 0 0 1 1.13-.278Zm6.77 0c1.562 0 2.591 1.255 2.591 3.194 0 1.945-1.023 3.193-2.567 3.193a2.05 2.05 0 0 1-1.122-.264 2.104 2.104 0 0 1-.814-.83h-.029v3.1h-1.262v-8.328h1.223v1.041h.023a2.2 2.2 0 0 1 .83-.828c.344-.195.734-.29 1.128-.278Zm9.066-2.403c1.783 0 3.005 1.018 3.046 2.498h-1.275c-.076-.856-.772-1.373-1.79-1.373-1.016 0-1.712.523-1.712 1.284 0 .607.444.964 1.532 1.237l.93.232c1.73.417 2.45 1.124 2.45 2.38 0 1.605-1.257 2.61-3.258 2.61-1.87 0-3.134-.981-3.216-2.534h1.293c.094.852.906 1.41 2.017 1.41 1.064 0 1.83-.558 1.83-1.326 0-.666-.462-1.064-1.555-1.338l-1.094-.268c-1.55-.38-2.268-1.118-2.268-2.314 0-1.48 1.268-2.498 3.07-2.498Zm10.67 2.392c1.784 0 2.92 1.236 2.92 3.205 0 1.974-1.13 3.206-2.92 3.206-1.788 0-2.917-1.232-2.917-3.206 0-1.968 1.14-3.205 2.918-3.205Zm10.225 0c1.702 0 2.773 1.188 2.773 3.086v.44h-4.345v.078a1.655 1.655 0 0 0 .434 1.266 1.6 1.6 0 0 0 1.221.505c.298.029.598-.041.854-.2a1.41 1.41 0 0 0 .566-.68h1.2c-.17 1.136-1.258 1.916-2.65 1.916-1.789 0-2.9-1.22-2.9-3.176 0-1.962 1.117-3.235 2.847-3.235Zm-14.99-1.404v1.48h1.17v1.017h-1.17v3.45c0 .536.235.786.75.786a3.87 3.87 0 0 0 .415-.03v1.01a3.457 3.457 0 0 1-.701.06c-1.246 0-1.732-.476-1.732-1.69v-3.585h-.894v-1.018h.894v-1.48h1.269Zm-28.776-.845 3.047 8.582h-1.386l-.771-2.319h-3.216l-.773 2.32H36l3.046-8.583h1.415Zm40.214 2.26c.145 0 .29.015.433.048v1.201a1.742 1.742 0 0 0-.568-.077 1.254 1.254 0 0 0-.983.412 1.3 1.3 0 0 0-.333 1.027v3.711h-1.262V19.17h1.204v1.065h.03a1.49 1.49 0 0 1 .542-.832c.27-.206.6-.31.937-.298Zm-6.672 1.047c-1.023 0-1.632.803-1.632 2.147 0 1.356.609 2.147 1.632 2.147s1.631-.79 1.631-2.147c0-1.35-.608-2.147-1.631-2.147Zm-26.84.048c-.964 0-1.613.85-1.613 2.1 0 1.26.649 2.105 1.613 2.105.982 0 1.626-.828 1.626-2.106 0-1.266-.644-2.1-1.626-2.1Zm6.77 0c-.965 0-1.613.85-1.613 2.1 0 1.26.65 2.105 1.613 2.105.983 0 1.626-.828 1.626-2.106 0-1.266-.643-2.1-1.626-2.1ZM39.76 18.272h-.035l-1.257 3.765h2.549l-1.257-3.765Zm44.467 1.861a1.532 1.532 0 0 0-1.109.462 1.583 1.583 0 0 0-.457 1.126h3.075a1.53 1.53 0 0 0-.413-1.129 1.479 1.479 0 0 0-1.096-.459Z" fill="#fff"/></svg>