<svg width="34" height="34" fill="none" xmlns="http://www.w3.org/2000/svg"><path d="M22.667 2.833v2.834m-12.75 25.5v-2.834A2.833 2.833 0 0 1 12.75 25.5h8.5a2.833 2.833 0 0 1 2.833 2.833v2.834M11.333 2.833v2.834m9.917 9.916a4.25 4.25 0 1 1-8.5 0 4.25 4.25 0 0 1 8.5 0ZM7.083 5.667h19.834A2.833 2.833 0 0 1 29.75 8.5v19.833a2.833 2.833 0 0 1-2.833 2.834H7.083a2.833 2.833 0 0 1-2.833-2.834V8.5a2.833 2.833 0 0 1 2.833-2.833Z" stroke="#4f6271" stroke-linecap="round" stroke-linejoin="round" style="mix-blend-mode:exclusion"/></svg>