<svg width="117" height="21" fill="none" xmlns="http://www.w3.org/2000/svg"><path data-keep-colors="true" d="M17.932 9.811c-.37-3.493-3.45-6.21-7.233-6.21-.223 0-.445 0-.668.036-3.524.282-6.343 3.034-6.603 6.386-.26 4.022 3.08 7.374 7.27 7.374 3.747 0 6.863-2.717 7.234-6.21h-9.05v-1.41h9.05v.034ZM10.7 6.46c.074-.352.408-.67.779-.74a.993.993 0 0 1 1.187 1.129c-.074.388-.408.67-.78.74H11.7c-.63 0-1.112-.529-1.001-1.129Z" fill="#FF8200"/><path data-keep-colors="true" d="M21.286 9.415C20.78 4.719 16.769.91 11.824.429c-.39-.037-.778-.074-1.168-.074C4.387.355-.635 5.532.066 11.596c.506 4.697 4.516 8.505 9.461 8.986 6.775.702 12.499-4.733 11.759-11.167Zm-1.48 1.812c-.35 4.215-3.932 7.617-8.371 7.95-.273.037-.506.037-.779.037-5.295 0-9.54-4.29-9.111-9.43.35-4.215 3.933-7.617 8.371-7.95 5.646-.443 10.357 4.031 9.89 9.393Z" fill="#FF8200"/><path d="M32.123 5.227c1.64 0 2.925.442 3.944 1.368 1.02.885 1.506 2.092 1.506 3.54 0 1.45-.487 2.617-1.506 3.502-.974.885-2.304 1.328-3.944 1.328-1.683 0-3.013-.483-3.943-1.448l1.285-1.127c.665.684 1.55 1.045 2.614 1.045.975 0 1.728-.241 2.349-.764.62-.523.975-1.167 1.063-2.012H31.06V9.17h4.386c-.133-.683-.487-1.247-1.063-1.73-.62-.482-1.33-.683-2.127-.683-1.152 0-2.038.362-2.702 1.046l-.71-.644a9.63 9.63 0 0 1-.62-.523c.398-.443.975-.805 1.684-1.046a6.892 6.892 0 0 1 2.215-.362ZM49.53 14.88h-2.093V6.779h-3.959v2.31c0 1.93-.318 3.442-.91 4.407-.5.965-1.456 1.469-2.775 1.469-.5 0-.956-.042-1.365-.126l.181-1.595c.228.084.456.084.683.084.728 0 1.32-.336 1.684-1.05.364-.713.546-1.93.546-3.693V5.227h8.008v9.654Zm7.01-9.654c1.515 0 2.718.443 3.61 1.288.89.845 1.336 2.012 1.336 3.5v.604h-8.154c.045.805.357 1.449 1.025 2.012a3.64 3.64 0 0 0 2.317.804c1.292 0 2.272-.482 2.985-1.408l1.426 1.046c-1.114 1.248-2.585 1.892-4.456 1.892-1.56 0-2.851-.443-3.876-1.328-1.025-.886-1.515-2.053-1.515-3.501 0-1.449.49-2.616 1.515-3.501 1.025-.966 2.272-1.408 3.787-1.408Zm9.483 4.446h.044l4.258-4.446h2.679l-4.697 4.615 5.135 5.123h-2.721l-4.654-4.784h-.044v4.784h-1.975V5.227h1.975v4.446Zm12.921-4.446c.76 0 1.477.12 2.193.402.715.282 1.252.644 1.655 1.127l-1.477 1.087c-.223-.322-.536-.564-.984-.765a3.277 3.277 0 0 0-1.387-.282c-1.028 0-1.833.322-2.46.966-.626.644-.894 1.448-.894 2.374 0 .925.312 1.69.938 2.374.627.644 1.433.966 2.461.966 1.073 0 1.88-.322 2.46-1.006l1.388 1.127c-.94.885-2.238 1.368-3.848 1.368-1.61 0-2.907-.443-3.981-1.328-1.029-.886-1.566-2.052-1.566-3.541 0-1.449.537-2.616 1.566-3.501 1.03-.885 2.326-1.368 3.936-1.368Zm8.33 3.853h4.748V5.227h1.916v9.738h-1.916v-4.277h-4.749v4.277h-1.875V5.227h1.875V9.08Zm14.529-3.853c1.515 0 2.717.444 3.609 1.293.891.848 1.337 2.02 1.337 3.515v.607h-8.11c.045.808.357 1.454 1.025 2.02a3.631 3.631 0 0 0 2.317.808c1.292 0 2.273-.485 2.986-1.414l1.426 1.05c-1.159 1.213-2.63 1.859-4.501 1.859-1.56 0-2.852-.444-3.876-1.333-1.026-.89-1.515-2.061-1.515-3.516 0-1.454.49-2.626 1.515-3.515 1.024-.93 2.272-1.374 3.787-1.374Zm15.194 1.609h-3.313v8.129h-1.913v-8.13h-3.314V5.228h8.54v1.609Zm-60.412-.16c-.847 0-1.604.24-2.184.763-.668.483-1.024 1.128-1.069 1.852h6.105c-.045-.765-.268-1.409-.758-1.892-.49-.482-1.203-.723-2.094-.723Zm45.263-.035c-.847 0-1.605.243-2.184.768-.668.485-.98 1.131-1.07 1.859h6.105c-.044-.768-.267-1.415-.758-1.9-.489-.485-1.202-.727-2.093-.727Z" fill="#252728"/></svg>