<svg width="34" height="34" fill="none" xmlns="http://www.w3.org/2000/svg"><path d="M4.25 12.75a2.834 2.834 0 0 1 2.833-2.833h19.834a2.833 2.833 0 0 1 2.833 2.833m-25.5 2.833H8.5c1.133 0 2.267.425 2.975 1.275l1.558 1.275c2.267 2.267 5.809 2.267 8.075 0l1.559-1.275c.708-.708 1.841-1.275 2.975-1.275h4.108M7.083 4.25h19.834a2.833 2.833 0 0 1 2.833 2.833v19.834a2.833 2.833 0 0 1-2.833 2.833H7.083a2.833 2.833 0 0 1-2.833-2.833V7.083A2.833 2.833 0 0 1 7.083 4.25Z" stroke="#4f6271" stroke-linecap="round" stroke-linejoin="round" style="mix-blend-mode:exclusion"/></svg>