<svg width="109" height="34" fill="none" xmlns="http://www.w3.org/2000/svg"><path d="M105.253.5H3.747C1.677.5 0 2.229 0 4.362v25.276C0 31.771 1.678 33.5 3.747 33.5h101.506c2.069 0 3.747-1.729 3.747-3.862V4.362C109 2.229 107.322.5 105.253.5Z" fill="#2C3E50"/><path fill-rule="evenodd" clip-rule="evenodd" d="M80.305 24.628h1.254v-8.81h-1.254v8.81Zm11.3-5.636-1.438 3.82h-.043l-1.493-3.82H87.28l2.238 5.338-1.276 2.97h1.309L93 18.991h-1.395Zm-7.115 4.635c-.411 0-.984-.215-.984-.748 0-.68.714-.94 1.33-.94.552 0 .81.124 1.146.294a1.62 1.62 0 0 1-.497.99c-.274.256-.628.4-.995.404Zm.151-4.828c-.908 0-1.849.42-2.238 1.35l1.113.486c.238-.487.681-.646 1.147-.646.649 0 1.308.408 1.319 1.134v.09a2.677 2.677 0 0 0-1.308-.34c-1.2 0-2.423.691-2.423 1.983 0 1.18.984 1.939 2.087 1.939.844 0 1.308-.397 1.6-.862h.044v.68h1.21v-3.377c0-1.564-1.113-2.437-2.55-2.437Zm-7.753 1.265h-1.785v-3.02h1.785c.938 0 1.47.815 1.47 1.51 0 .683-.532 1.51-1.47 1.51Zm-.033-4.245H73.85v8.809h1.254V21.29h1.752c1.39 0 2.758-1.055 2.758-2.736 0-1.68-1.367-2.735-2.758-2.735Zm-16.393 7.81c-.866 0-1.592-.76-1.592-1.805 0-1.056.726-1.828 1.593-1.828.855 0 1.526.772 1.526 1.828 0 1.044-.67 1.804-1.526 1.804Zm1.44-4.144h-.042c-.282-.352-.823-.67-1.506-.67-1.43 0-2.74 1.317-2.74 3.009 0 1.68 1.31 2.985 2.74 2.985.683 0 1.224-.317 1.506-.68h.043v.43c0 1.148-.585 1.76-1.527 1.76-.77 0-1.246-.579-1.441-1.067l-1.094.477c.314.795 1.148 1.771 2.535 1.771 1.473 0 2.719-.908 2.719-3.122v-5.381h-1.192v.488Zm2.06 5.143h1.256v-8.81h-1.257v8.81Zm3.108-2.906c-.032-1.158.856-1.749 1.494-1.749.5 0 .922.261 1.062.636l-2.556 1.113Zm3.9-1c-.239-.67-.965-1.907-2.449-1.907-1.473 0-2.696 1.215-2.696 2.997 0 1.68 1.212 2.997 2.837 2.997 1.311 0 2.07-.84 2.383-1.328l-.975-.681c-.324.5-.769.828-1.408.828-.639 0-1.094-.306-1.387-.907l3.824-1.657-.13-.342Zm-30.464-.987v1.271h2.903c-.087.716-.314 1.238-.66 1.601-.423.443-1.084.93-2.243.93-1.787 0-3.185-1.509-3.185-3.382 0-1.874 1.398-3.383 3.185-3.383.964 0 1.668.397 2.188.908l.856-.897c-.726-.726-1.69-1.283-3.044-1.283-2.448 0-4.506 2.09-4.506 4.655 0 2.566 2.058 4.654 4.506 4.654 1.321 0 2.318-.453 3.098-1.305.801-.84 1.05-2.02 1.05-2.975a4.3 4.3 0 0 0-.065-.794h-4.083Zm7.45 3.893c-.867 0-1.615-.749-1.615-1.816 0-1.078.748-1.816 1.614-1.816.866 0 1.614.738 1.614 1.817 0 1.066-.748 1.816-1.614 1.816Zm0-4.813c-1.583 0-2.872 1.26-2.872 2.997 0 1.726 1.29 2.997 2.871 2.997 1.582 0 2.87-1.271 2.87-2.997 0-1.736-1.288-2.997-2.87-2.997Zm6.26 4.813c-.866 0-1.613-.749-1.613-1.816 0-1.078.747-1.816 1.614-1.816.867 0 1.614.738 1.614 1.817 0 1.066-.747 1.816-1.614 1.816Zm0-4.813c-1.58 0-2.87 1.26-2.87 2.997 0 1.726 1.29 2.997 2.87 2.997 1.582 0 2.871-1.271 2.871-2.997 0-1.736-1.289-2.997-2.87-2.997Z" fill="#FFFFFE"/><path d="M40.406 10.508v1.425c-.075.09-.163.171-.261.24-.12.088-.284.165-.494.23a2.814 2.814 0 0 1-.807.097c-.269 0-.516-.04-.743-.123a1.692 1.692 0 0 1-.585-.364c-.17-.17-.3-.368-.382-.583a2.15 2.15 0 0 1-.134-.78v-.303c0-.29.039-.549.115-.777a1.56 1.56 0 0 1 .346-.58c.15-.16.342-.285.559-.364.24-.087.498-.13.757-.126.338 0 .62.052.846.155.229.102.407.243.534.423.13.18.213.385.249.614h-.585a1.002 1.002 0 0 0-.158-.384.808.808 0 0 0-.331-.278 1.246 1.246 0 0 0-.555-.107 1.308 1.308 0 0 0-.53.099.951.951 0 0 0-.37.283c-.097.123-.17.272-.218.446a2.283 2.283 0 0 0-.07.591v.308c0 .224.029.425.087.601a1.3 1.3 0 0 0 .259.452c.11.123.243.217.396.281.156.064.328.096.516.096.208 0 .377-.015.506-.045.108-.024.21-.062.304-.112a.876.876 0 0 0 .166-.126v-.872h-1.02v-.417h1.603Zm3.589 1.519v.42h-2.338v-.42h2.338Zm-2.22-3.473v3.893h-.585V8.553h.586Zm1.91 1.673v.42h-2.028v-.42h2.029Zm.28-1.673v.422h-2.308v-.423h2.308Zm2.26 0v3.893h-.575V8.553h.576Zm1.42 0v.422h-3.411v-.423h3.411Zm2.33 0v3.893h-.586V8.553h.585Zm2.418 0v3.893h-.576V8.553h.576Zm1.419 0v.422H50.4v-.423h3.411Zm5.101 1.823v.246c0 .292-.041.554-.124.786a1.638 1.638 0 0 1-.359.59 1.548 1.548 0 0 1-.56.373 1.97 1.97 0 0 1-.728.127c-.26 0-.5-.042-.718-.127a1.616 1.616 0 0 1-.565-.371 1.683 1.683 0 0 1-.366-.592 2.23 2.23 0 0 1-.131-.786v-.246c0-.292.042-.553.127-.783a1.68 1.68 0 0 1 .367-.591 1.56 1.56 0 0 1 .561-.374c.227-.088.472-.131.719-.129.269 0 .512.043.728.128a1.606 1.606 0 0 1 .922.966c.085.23.127.49.127.783Zm-.58.246v-.251a2.12 2.12 0 0 0-.08-.615 1.212 1.212 0 0 0-.235-.45.99.99 0 0 0-.379-.275 1.283 1.283 0 0 0-.503-.094 1.26 1.26 0 0 0-.494.094 1.027 1.027 0 0 0-.376.276 1.28 1.28 0 0 0-.24.449c-.06.2-.088.407-.085.614v.252c0 .234.029.44.085.62.057.179.138.33.243.452.107.122.233.213.379.276.148.062.313.093.494.093.19 0 .359-.031.506-.093a.972.972 0 0 0 .373-.276 1.24 1.24 0 0 0 .235-.451c.055-.204.081-.412.078-.621ZM63 8.553v3.893h-.589L60.19 9.445v3.002h-.586V8.555h.586l2.231 3.01v-3.01H63Z" fill="#fff"/><path d="m15.871 16.006-8.79 9.666c0 .002 0 .004.002.006.27 1.05 1.194 1.822 2.292 1.822.44 0 .851-.123 1.205-.339l.028-.017 9.894-5.915-4.631-5.223Z" fill="#EA4335"/><path d="m24.763 14.36-.008-.005-4.272-2.565-4.812 4.436 4.83 5.003 4.248-2.54a2.477 2.477 0 0 0 1.25-2.168 2.47 2.47 0 0 0-1.236-2.16Z" fill="#FBBC04"/><path d="M7.08 7.327c-.052.202-.08.414-.08.633v17.08c0 .219.028.43.082.632l9.091-9.419-9.092-8.926Z" fill="#4285F4"/><path d="m15.936 16.5 4.55-4.712-9.883-5.936A2.314 2.314 0 0 0 9.376 5.5c-1.098 0-2.024.774-2.294 1.825v.002l8.854 9.173Z" fill="#34A853"/></svg>