<svg width="100" height="25" fill="none" xmlns="http://www.w3.org/2000/svg"><path fill-rule="evenodd" clip-rule="evenodd" d="M59.994 6.121c-2.148.301-2.62 1.41-2.616 6.16.002 3.824.251 5.249 1.044 5.963.653.588 1.58.746 4.076.698 1.896-.037 2.357-.122 2.958-.547.954-.676 1.31-2.113 1.214-4.907-.053-1.534-.169-2.215-.484-2.84-.514-1.023-1.38-1.258-4.453-1.207l-1.756.03v-.462c.001-.592.097-.924.33-1.138l.187-.172 2.413-.035c2.91-.042 2.726.023 2.767-.99l.025-.633-2.626.008c-1.444.005-2.83.038-3.08.072Zm22.012.126c-.2.196-.211.237-.211.812v.605h1.983c1.33 0 2.043-.026 2.164-.08.27-.12.404-.467.404-1.042V6.04h-4.129l-.211.206ZM.16 9.434c0 .53.014.585.202.768l.201.197 2.092.038c1.235.022 2.202.07 2.36.117.518.155.683.582.722 1.875l.022.706-1.969.019-1.969.019v1.409h3.996l-.05.9c-.058 1.07-.135 1.388-.397 1.644-.273.267-.622.303-2.95.31l-1.968.005-.2.196c-.179.174-.202.254-.226.759L0 18.959h2.64c3.482 0 4.174-.102 4.858-.718.703-.633.856-1.371.856-4.117 0-2.15-.055-2.738-.333-3.565-.123-.364-.239-.54-.564-.858-.727-.71-1.458-.83-5.076-.834L.16 8.864v.57Zm23.828-.502c-2.012.163-2.702.671-3.075 2.262-.187.796-.186 4.95 0 5.718.411 1.688 1.208 2.048 4.53 2.047 3.107-.001 3.97-.369 4.383-1.867.263-.952.295-4.403.054-5.755-.256-1.436-.837-2.038-2.214-2.295-.656-.122-2.754-.185-3.678-.11Zm25.57 0c-2.231.181-2.922.81-3.165 2.878-.128 1.091-.06 4.562.102 5.218.297 1.199.959 1.686 2.539 1.868.979.113 3.963.043 4.57-.107 1.19-.293 1.674-.871 1.897-2.266.12-.749.122-4.115.003-4.87-.274-1.736-.797-2.337-2.274-2.613-.649-.12-2.75-.183-3.671-.108Zm20.804-.02-1.354.026v.497c0 .978.01.981 2.651.985 1.144.002 2.222.03 2.395.063.725.137.964.534 1.009 1.675l.03.789-2.41.029c-2.043.024-2.47.047-2.797.151-.524.167-.977.585-1.164 1.075-.214.558-.31 1.54-.222 2.24.11.86.266 1.22.724 1.679.738.737 1.47.875 4.333.818 1.835-.036 2.63-.1 3.578-.284l.433-.084.021-3.142c.012-1.813-.01-3.43-.053-3.824-.17-1.565-.76-2.287-2.1-2.566-.589-.123-2.637-.174-5.074-.127Zm-60.015 4.417c0 2.66.027 4.279.075 4.446.1.35.396.682.752.84.218.097.47.13.996.13l.705.002v-4.094h.5c.276 0 .586.031.688.07.125.046.372.346.739.9 1.886 2.842 1.864 2.812 2.207 2.974.3.142.417.152 1.525.134l1.2-.019-1.598-2.365c-.879-1.3-1.609-2.412-1.623-2.47-.014-.059.667-1.139 1.514-2.4l1.538-2.295-1.087-.02c-1.31-.026-1.49.001-1.806.272-.135.116-.69.885-1.234 1.709-.545.824-1.085 1.585-1.2 1.692-.193.179-.256.194-.787.194h-.576V9.147h-2.529v4.182Zm21.818.07c.002 3.985.01 4.272.135 4.537.275.582.726.811 1.594.811h.58l.019-3.643.018-3.644 1.077 3.359c.593 1.847 1.123 3.451 1.179 3.564.154.311.362.364 1.429.364 1.053 0 1.292-.058 1.437-.349.05-.099.592-1.707 1.205-3.573l1.114-3.392.037 3.428c.02 1.885.064 3.484.099 3.554.128.257.43.332 1.342.332h.87v-9.6h-1.69c-1.503 0-1.706.013-1.846.124-.117.093-.442.991-1.301 3.602a360.625 360.625 0 0 1-1.196 3.6c-.055.13-.321-.643-1.623-4.714-.579-1.81-.771-2.328-.913-2.454-.176-.155-.219-.158-1.874-.158h-1.693l.001 4.253Zm47.607.112.036 4.364.194.287c.305.45.69.595 1.508.57l.669-.02L84.1 15.67a304.116 304.116 0 0 1 2.044-3.212c.116-.161.122-.009.126 2.877l.004 3.047.222.183c.215.176.254.182 1.192.182h.97v-9.6H87.51c-.989 0-1.168.017-1.296.123-.08.068-.997 1.474-2.036 3.124-1.039 1.65-1.919 3.03-1.956 3.067-.04.041-.066-1.094-.066-2.917V9.559l-.211-.206-.211-.206h-1.998l.036 4.364Zm13.48-4.206c-.143.126-.374.732-1.094 2.877-1.242 3.703-2.14 6.37-2.181 6.477-.026.068.181.088.895.087 1.063-.002 1.394-.1 1.707-.503.127-.163.537-1.32 1.31-3.696.927-2.854 1.156-3.487 1.31-3.618.174-.149.25-.159 1.227-.159h1.042l.02 3.783.02 3.782.236.206.236.206H100v-9.6h-6.566l-.182.158ZM26.94 10.741c.399.287.471.69.51 2.818.021 1.139.005 2.15-.04 2.511-.15 1.185-.208 1.223-1.899 1.253-1.55.029-1.723-.018-1.962-.532-.147-.316-.16-.467-.185-2.318-.04-2.863.069-3.506.64-3.793.216-.11.416-.123 1.491-.106 1.126.018 1.26.034 1.445.167Zm25.513-.041c.48.302.588 1.032.553 3.777-.036 2.85-.042 2.859-2.074 2.858-1.371 0-1.588-.062-1.826-.529-.137-.266-.145-.424-.145-2.753 0-3.573-.039-3.508 2.095-3.477.944.014 1.267.042 1.397.124Zm11.046.513c.483.258.596.812.595 2.91-.001 2.212-.14 2.85-.673 3.097-.373.173-2.362.167-2.72-.008-.59-.288-.721-1.026-.722-4.056v-2.025l.378-.029c.21-.016.949-.025 1.644-.021 1.062.006 1.302.027 1.498.132Zm11.578 4.642c0 1.349-.011 1.49-.126 1.533-.07.026-.793.049-1.608.05-1.365.003-1.5-.008-1.734-.141-.385-.22-.466-.448-.493-1.38-.018-.62.003-.881.088-1.079.182-.427.349-.461 2.23-.465l1.643-.002v1.484Z" fill="#036"/></svg>