<svg width="33" height="44" fill="none" xmlns="http://www.w3.org/2000/svg"><g style="mix-blend-mode:exclusion"><path d="M5 13.374C8.3 10.557 12.572 9 17 9s8.7 1.557 12 4.374M8.6 18c2.243-2.098 5.259-3.274 8.4-3.274s6.157 1.176 8.4 3.274" stroke="#4f6271" stroke-linecap="round" stroke-linejoin="round"/><path d="M30 30.408a.408.408 0 0 1-.408.409h-5.81a1 1 0 0 0-1 1v3.775a1 1 0 0 0 1 1h4.693a.408.408 0 1 1 0 .816h-4.694a1 1 0 0 0-1 1v3.775a1 1 0 0 0 1 1h5.81a.408.408 0 0 1 0 .817H23a1 1 0 0 1-1-1V31a1 1 0 0 1 1-1h6.592c.225 0 .408.183.408.408ZM19.592 30a.408.408 0 1 1 0 .817h-3.687a1 1 0 0 0-1 1v11.778a.405.405 0 1 1-.81 0V31.817a1 1 0 0 0-1-1H9.408a.408.408 0 0 1 0-.817h10.184ZM3.42 30a.42.42 0 0 1 .42.42v11.763a1 1 0 0 0 1 1h5.752a.408.408 0 0 1 0 .817H4a1 1 0 0 1-1-1V30.42a.42.42 0 0 1 .42-.42Z" fill="#4f6271"/></g></svg>