<svg width="34" height="34" fill="none" xmlns="http://www.w3.org/2000/svg"><path d="m17 27.272-5.558 3.323a2.805 2.805 0 0 1-2.884 0l-4.2-2.513A2.797 2.797 0 0 1 3 25.694v-4.525a2.787 2.787 0 0 1 1.358-2.387L10 15.402m7 11.87v-7.68m0 7.68 5.558 3.323a2.805 2.805 0 0 0 2.884 0l4.2-2.513A2.798 2.798 0 0 0 31 25.694v-4.525a2.788 2.788 0 0 0-1.358-2.387L24 15.402m-7 4.19-7-4.19m7 4.19-7 4.189m7-4.19 7-4.189m-7 4.19 7 4.189m-7-4.19v-7.68m-7 3.491V9.3a2.788 2.788 0 0 1 1.358-2.388l4.2-2.513a2.806 2.806 0 0 1 2.884 0l4.2 2.513A2.797 2.797 0 0 1 24 9.3v6.102m-14 8.379L3.364 19.8M10 23.781V31m14-7.22 6.636-3.979M24 23.781V31m-7-19.089-6.636-3.98M17 11.912l6.636-3.98" stroke="#4f6271" stroke-linecap="round" stroke-linejoin="round" style="mix-blend-mode:exclusion"/></svg>