<svg width="34" height="34" fill="none" xmlns="http://www.w3.org/2000/svg"><path d="M21.25 25.5h-7.083M25.5 19.833H14.167m-8.5 11.334h22.666a2.833 2.833 0 0 0 2.834-2.834V5.667a2.833 2.833 0 0 0-2.834-2.834h-17A2.833 2.833 0 0 0 8.5 5.667v22.666a2.833 2.833 0 0 1-2.833 2.834Zm0 0a2.833 2.833 0 0 1-2.834-2.834v-12.75a2.833 2.833 0 0 1 2.834-2.833H8.5m7.083-4.25h8.5c.783 0 1.417.634 1.417 1.417v2.833c0 .782-.634 1.417-1.417 1.417h-8.5a1.417 1.417 0 0 1-1.416-1.417V9.917c0-.783.634-1.417 1.416-1.417Z" stroke="#4f6271" stroke-linecap="round" stroke-linejoin="round" style="mix-blend-mode:exclusion"/></svg>