<svg width="109" height="33" fill="none" xmlns="http://www.w3.org/2000/svg"><path d="M104.963 0H4.037C1.807 0 0 1.847 0 4.125v24.75C0 31.153 1.807 33 4.037 33h100.926c2.23 0 4.037-1.847 4.037-4.125V4.125C109 1.847 107.193 0 104.963 0Z" fill="#2C3E50"/><path d="M45.684 22.438c1.777-.46 2.944-1.838 2.944-3.642 0-2.23-1.76-3.796-4.23-3.796H40v12h2.03v-4.409h1.438L46.615 27H49l-3.316-4.562Zm-1.286-5.566c1.27 0 2.15.783 2.15 1.924 0 1.14-.88 1.923-2.15 1.923H42.03v-3.847h2.368ZM53.406 27c1.1 0 2.114-.56 2.69-1.494l.402 1.324H58V18h-2.009v5.111c0 1.257-.856 2.14-2.026 2.14-1.153 0-1.957-.883-1.957-2.14V18H50v5.332C50 25.455 51.467 27 53.406 27Zm9.819 0C65.291 27 67 25.742 67 23.657c0-2.334-1.787-3.013-3.324-3.576-1.196-.43-2.237-.827-2.237-1.87 0-.91.792-1.39 1.724-1.39.979 0 1.678.546 2.066 1.473L67 17.979C66.44 16.16 65.027 15 63.101 15c-1.988 0-3.573 1.225-3.573 3.31 0 2.35 1.787 2.996 3.324 3.542 1.181.414 2.237.811 2.237 1.87 0 .928-.792 1.457-1.848 1.457-1.212 0-1.864-.612-2.439-1.721L59 23.789c.528 1.97 2.206 3.211 4.225 3.211Zm9.016-1.642c-.641 0-.953-.312-.953-.952v-4.301h2.547v-1.642h-2.547V16h-1.414l-.477 2.463H68v1.642h1.397v4.301c0 1.675.97 2.594 2.844 2.594h1.594L74 25.358h-1.759ZM79.5 27c2.639 0 4.5-1.867 4.5-4.5S82.139 18 79.5 18c-2.638 0-4.5 1.867-4.5 4.5s1.862 4.5 4.5 4.5Zm0-1.75c-1.522 0-2.558-1.117-2.558-2.75s1.037-2.75 2.558-2.75c1.522 0 2.558 1.117 2.558 2.75s-1.036 2.75-2.558 2.75ZM87.032 27v-5.314c0-1.142.565-1.782 1.802-1.782H90L89.823 18h-.388c-1.078 0-1.909.294-2.527 1.298L86.519 18H85v9h2.032ZM99 22.4c0-2.5-1.867-4.4-4.5-4.4S90 19.883 90 22.5s1.867 4.5 4.5 4.5c1.8 0 3.5-.85 4.15-2.5l-1.8-.3c-.416.617-1.217 1.05-2.233 1.05-1.467 0-2.433-.9-2.617-2.233h6.967c.017-.184.033-.384.033-.617Zm-4.5-2.733c1.2 0 2.1.766 2.417 1.85h-4.8c.317-1.117 1.216-1.85 2.383-1.85ZM40 12.822v-1.8h.108a.49.49 0 0 0 .338-.112c.084-.075.154-.224.21-.449.06-.228.107-.564.139-1.008L40.969 7h2.674v4.022h.62v1.8h-.62v-1.174H40.62v1.174H40Zm3.023-1.8V7.626H41.54l-.126 1.86c-.048.743-.172 1.255-.373 1.536h1.98Zm3.212.692a1.556 1.556 0 0 1-1.433-.85 1.945 1.945 0 0 1-.211-.917c0-.343.07-.648.21-.916a1.582 1.582 0 0 1 1.433-.857 1.582 1.582 0 0 1 1.434.857c.14.268.21.573.21.916 0 .343-.07.649-.21.917-.14.268-.335.477-.584.626-.249.15-.532.224-.85.224Zm0-.593a.937.937 0 0 0 .74-.323c.193-.216.29-.5.29-.85 0-.352-.097-.636-.29-.851a.929.929 0 0 0-.74-.33.93.93 0 0 0-.74.33c-.19.215-.284.499-.284.85 0 .348.095.631.283.85a.938.938 0 0 0 .74.324Zm3.71.593c-.31 0-.588-.074-.837-.224a1.574 1.574 0 0 1-.572-.633 1.977 1.977 0 0 1-.205-.91c0-.343.068-.648.205-.916a1.54 1.54 0 0 1 1.409-.857c.333 0 .63.088.89.263.266.176.455.429.567.759l-.554.099a.867.867 0 0 0-.343-.383.958.958 0 0 0-.524-.145.947.947 0 0 0-.747.33c-.189.22-.283.503-.283.85 0 .348.094.631.283.85a.956.956 0 0 0 .747.324.97.97 0 0 0 .542-.152.88.88 0 0 0 .35-.402l.553.099a1.477 1.477 0 0 1-.578.778c-.269.18-.57.27-.903.27Zm3.303-.066h-.59V8.833H51.58V8.24h2.746v.593h-1.078v2.815Zm3.866-3.408h.608l-1.3 3.923c-.097.294-.223.507-.38.64-.157.131-.365.197-.626.197h-.464l-.054-.593h.554a.394.394 0 0 0 .27-.086.587.587 0 0 0 .163-.284l.067-.197-1.385-3.6h.632l.987 2.63h.085l.843-2.63Zm1.732 3.408h-.59V8.24h2.649v3.408h-.59V8.833h-1.47v2.815Zm4.963-2.018V8.24h.59v3.408h-.59v-1.424h-1.5v1.424h-.59V8.24h.59v1.39h1.5Zm2.866 2.084a1.555 1.555 0 0 1-1.433-.85 1.945 1.945 0 0 1-.21-.917c0-.343.07-.648.21-.916a1.582 1.582 0 0 1 1.433-.857 1.582 1.582 0 0 1 1.434.857c.14.268.21.573.21.916 0 .343-.07.649-.21.917a1.558 1.558 0 0 1-.585.626 1.61 1.61 0 0 1-.849.224Zm0-.593a.938.938 0 0 0 .741-.323c.193-.216.289-.5.289-.85 0-.352-.096-.636-.289-.851a.93.93 0 0 0-.74-.33.93.93 0 0 0-.741.33c-.189.215-.283.499-.283.85 0 .348.094.631.283.85a.938.938 0 0 0 .74.324Zm5.789-1.259a.82.82 0 0 1 .386.323c.1.145.15.316.15.514 0 .18-.048.343-.144.488a.952.952 0 0 1-.392.343 1.344 1.344 0 0 1-.578.118h-1.487V8.24h1.433c.205 0 .387.04.548.118.16.08.285.187.373.323a.815.815 0 0 1 .139.468.81.81 0 0 1-.115.436.725.725 0 0 1-.313.277ZM70.99 8.787v.837h.843a.504.504 0 0 0 .337-.112.39.39 0 0 0 .133-.303.39.39 0 0 0-.133-.304.486.486 0 0 0-.337-.118h-.843Zm.897 2.314a.541.541 0 0 0 .38-.132.443.443 0 0 0 .144-.343.443.443 0 0 0-.145-.342.541.541 0 0 0-.379-.132h-.897v.95h.897Z" fill="#fff"/><path d="M11.546 26.383C13.094 28 15.582 28 20.56 28h.88c4.978 0 7.467 0 9.013-1.617C32 24.766 32 22.164 32 16.96v-.92c0-5.204 0-7.807-1.547-9.423C28.907 5 26.418 5 21.44 5h-.88c-4.978 0-7.467 0-9.013 1.617C10 8.233 10 10.836 10 16.04v.92c0 5.204 0 7.806 1.546 9.423Z" fill="#07F"/><path fill-rule="evenodd" clip-rule="evenodd" d="m27.64 20.407-1.525-.4a.461.461 0 0 1-.32-.431l-.19-5.9c-.055-.781-.607-1.402-1.183-1.585a.076.076 0 0 0-.086.032.071.071 0 0 0 .015.093c.143.116.534.494.534 1.146v7.714c0 .745-.67 1.291-1.361 1.11l-1.549-.407a.465.465 0 0 1-.297-.425l-.19-5.9c-.055-.781-.606-1.402-1.183-1.585a.076.076 0 0 0-.086.033c-.02.03-.012.07.015.093.143.115.534.493.534 1.145v7.715c0 .745-.67 1.291-1.36 1.11l-4.374-1.149c-.608-.16-1.034-.731-1.034-1.387v-7.726c0-.745.67-1.291 1.36-1.11l2.756.724v-1.393c0-.745.67-1.291 1.36-1.11l2.756.724v-1.393c0-.745.67-1.291 1.36-1.11l4.374 1.149c.608.16 1.034.731 1.034 1.387v7.726c0 .745-.67 1.291-1.36 1.11Z" fill="#fff"/></svg>