<svg width="63" height="25" fill="none" xmlns="http://www.w3.org/2000/svg"><path data-keep-colors="true" d="m6.07 12.496-3.147 1.88L0 19.622l11.916-7.126H6.07Z" fill="#8F4794"/><path data-keep-colors="true" d="m15.062 7.125-3.147 1.88-2.923 5.246L20.91 7.125h-5.847Z" fill="#E40646"/><path data-keep-colors="true" d="M11.916 5.246 8.992 0v25l2.924-5.246V5.246Z" fill="#F9B429"/><path data-keep-colors="true" d="m8.992 0 2.923 5.246 3.147 1.88h5.847L8.992 0Z" fill="#EF8019"/><path data-keep-colors="true" d="M8.992 10.748V25l2.924-5.246v-3.76l-2.924-5.246Z" fill="#78B72A"/><path data-keep-colors="true" d="m15.062 17.875-3.147 1.88-2.923 5.246 11.917-7.126h-5.847Z" fill="#00853F"/><path data-keep-colors="true" d="M0 5.377v14.245l2.924-5.24v-3.766L0 5.377Z" fill="#5B57A2"/><path data-keep-colors="true" d="m8.993 10.748.006.006L0 5.377l2.923 5.24 12.14 7.257h5.847L8.993 10.748Z" fill="#0698D6"/><path d="M57.836 14.74h.39v.65h.367c.17 0 .309.018.422.061a.69.69 0 0 1 .265.167c.07.068.113.149.145.241.025.093.044.186.044.279a.867.867 0 0 1-.044.284.676.676 0 0 1-.151.247.707.707 0 0 1-.284.174 1.28 1.28 0 0 1-.435.068h-.713v-2.17h-.006Zm.39 1.008v.798h.285c.195 0 .334-.031.416-.1.082-.067.12-.166.12-.296 0-.13-.038-.229-.12-.297-.082-.068-.22-.099-.41-.099h-.29v-.006Zm1.66-1.008h.39v2.164h-.39V14.74Zm2.279 1.045.84 1.12h-.48l-.65-.879-.655.878h-.454l.832-1.1-.788-1.064h.479l.599.816.612-.816h.454l-.789 1.045Zm-34.174.809a.94.94 0 0 1-.365.272 1.248 1.248 0 0 1-.48.093 1.32 1.32 0 0 1-.479-.08 1.047 1.047 0 0 1-.618-.587 1.242 1.242 0 0 1-.006-.91 1.078 1.078 0 0 1 .586-.6 1.07 1.07 0 0 1 .448-.087c.177 0 .34.025.485.068a.876.876 0 0 1 .379.217l-.183.303a.833.833 0 0 0-.303-.173 1.18 1.18 0 0 0-.334-.05.782.782 0 0 0-.53.21.717.717 0 0 0-.164.242.83.83 0 0 0 0 .636.84.84 0 0 0 .17.242c.07.068.158.117.253.154a.855.855 0 0 0 .309.056.8.8 0 0 0 .63-.278l.202.272Zm.509.31V14.74h.39v1.614l1.28-1.614h.392v2.164h-.391v-1.613l-1.274 1.613H28.5Zm4.655-.31a.94.94 0 0 1-.365.272 1.247 1.247 0 0 1-.48.093 1.32 1.32 0 0 1-.479-.08 1.072 1.072 0 0 1-.372-.23 1.14 1.14 0 0 1-.246-.358 1.24 1.24 0 0 1-.088-.464c0-.155.025-.303.082-.445a1.076 1.076 0 0 1 .586-.6c.14-.062.284-.087.448-.087.177 0 .34.025.486.068a.876.876 0 0 1 .378.217l-.183.303a.833.833 0 0 0-.303-.173 1.18 1.18 0 0 0-.334-.05.784.784 0 0 0-.53.21.717.717 0 0 0-.163.242.83.83 0 0 0 0 .636c.044.093.1.174.17.242s.157.117.252.154a.855.855 0 0 0 .309.056.8.8 0 0 0 .63-.278l.202.272Zm.205-1.854h2.01v.384h-.813v1.78h-.39v-1.78h-.808v-.384Zm4.239 1.928c-.107.1-.24.167-.385.217a1.405 1.405 0 0 1-.441.068 1.33 1.33 0 0 1-.486-.08 1.068 1.068 0 0 1-.372-.23 1.032 1.032 0 0 1-.24-.358 1.24 1.24 0 0 1-.081-.464c0-.155.025-.303.075-.445.05-.136.127-.26.221-.359.095-.099.215-.18.353-.241.139-.062.303-.086.486-.086a1.077 1.077 0 0 1 .725.278.957.957 0 0 1 .22.315c.057.124.083.26.083.402 0 .099-.007.185-.026.26h-1.709c.02.204.095.364.234.476a.841.841 0 0 0 .536.173.977.977 0 0 0 .39-.068.867.867 0 0 0 .285-.16l.132.302Zm-.895-1.62a.715.715 0 0 0-.486.16.651.651 0 0 0-.214.415h1.343a.61.61 0 0 0-.183-.426.717.717 0 0 0-.46-.149Zm1.577-.308h.36l.845 1.07.807-1.076h.346V16.9h-.39v-1.577l-.763 1.008h-.013l-.794-1.008V16.9h-.391v-2.16h-.007Zm3.092.147c.101-.062.209-.111.34-.142a1.4 1.4 0 0 1 .398-.055c.315 0 .53.074.656.228.126.155.189.371.189.656v1.33h-.366v-.28a.847.847 0 0 1-.265.217.914.914 0 0 1-.44.093.69.69 0 0 1-.493-.173c-.126-.118-.189-.284-.189-.495a.66.66 0 0 1 .063-.297.6.6 0 0 1 .177-.216.877.877 0 0 1 .265-.13c.1-.03.214-.043.334-.043.082 0 .176.012.283.03.101.02.19.056.265.112 0-.099-.006-.192-.019-.278a.549.549 0 0 0-.069-.217.37.37 0 0 0-.151-.142.65.65 0 0 0-.265-.05c-.139 0-.252.013-.34.044a2.4 2.4 0 0 0-.265.111l-.108-.303Zm.644 1.707a.623.623 0 0 0 .353-.093c.088-.062.164-.123.22-.185v-.272a.828.828 0 0 0-.498-.143.582.582 0 0 0-.176.025.55.55 0 0 0-.152.062.362.362 0 0 0-.107.111.32.32 0 0 0-.038.161.31.31 0 0 0 .101.247c.07.05.164.087.297.087Zm4.62-2.807a.666.666 0 0 1-.22.186 1.145 1.145 0 0 1-.26.08c-.094.019-.195.037-.302.056-.107.018-.22.056-.34.111a.656.656 0 0 0-.259.186 1.251 1.251 0 0 0-.259.556 2.44 2.44 0 0 0-.044.31h.013a.673.673 0 0 1 .145-.205 1.079 1.079 0 0 1 .454-.265 1.198 1.198 0 0 1 .706.037.888.888 0 0 1 .524.556c.05.13.069.278.069.445a1.093 1.093 0 0 1-.315.78 1.212 1.212 0 0 1-.36.24c-.138.062-.29.087-.46.087-.183 0-.34-.03-.486-.093a1.046 1.046 0 0 1-.365-.265 1.263 1.263 0 0 1-.233-.427 1.734 1.734 0 0 1-.083-.563c0-.16.013-.328.032-.5a1.94 1.94 0 0 1 .12-.502c.063-.16.139-.303.246-.432.107-.13.246-.23.422-.303.126-.056.246-.093.347-.112.107-.018.202-.03.284-.05a1.22 1.22 0 0 0 .227-.061.437.437 0 0 0 .189-.155l.208.303Zm-1.658 1.893c0 .142.019.265.056.383.038.111.089.21.152.284a.671.671 0 0 0 .53.254.766.766 0 0 0 .296-.056.734.734 0 0 0 .227-.154.717.717 0 0 0 .208-.513c0-.21-.063-.39-.183-.526-.12-.142-.296-.21-.523-.21a.8.8 0 0 0-.284.049.998.998 0 0 0-.227.124.856.856 0 0 0-.164.173.452.452 0 0 0-.088.192Zm2.451-.94h.39v.65h.366c.17 0 .31.018.423.061a.689.689 0 0 1 .265.167.606.606 0 0 1 .145.241c.025.093.044.186.044.279a.867.867 0 0 1-.044.284.676.676 0 0 1-.152.247.706.706 0 0 1-.283.174 1.28 1.28 0 0 1-.436.068h-.718v-2.17Zm.39 1.008v.798h.284c.196 0 .335-.031.416-.1.082-.067.12-.166.12-.296 0-.13-.038-.229-.12-.297-.081-.068-.22-.099-.41-.099h-.29v-.006Zm1.659-1.008h.39v2.164h-.39V14.74Zm2.989 1.854a.94.94 0 0 1-.366.272 1.247 1.247 0 0 1-.48.093 1.32 1.32 0 0 1-.478-.08 1.046 1.046 0 0 1-.618-.587 1.24 1.24 0 0 1-.088-.465c0-.155.025-.303.081-.445a1.076 1.076 0 0 1 .587-.6 1.07 1.07 0 0 1 .448-.087c.176 0 .34.025.485.068a.876.876 0 0 1 .378.217l-.182.303a.833.833 0 0 0-.303-.173 1.18 1.18 0 0 0-.334-.05.784.784 0 0 0-.53.21.717.717 0 0 0-.164.242.83.83 0 0 0 0 .636.843.843 0 0 0 .17.242c.07.068.158.117.253.154a.855.855 0 0 0 .309.056.801.801 0 0 0 .63-.278l.202.272Zm.196-1.854h2.011v.384h-.813v1.78h-.39v-1.78h-.808v-.384Zm2.442-.001h.391v.253a.856.856 0 0 1 .316-.216 1.161 1.161 0 0 1 .857-.006.954.954 0 0 1 .523.575c.05.136.07.284.07.445 0 .16-.025.316-.082.458a1.134 1.134 0 0 1-.233.37 1.077 1.077 0 0 1-.366.248 1.149 1.149 0 0 1-.473.087c-.12 0-.233-.013-.34-.037a.964.964 0 0 1-.284-.112v1.064h-.391v-3.13h.012Zm1.028.31a.849.849 0 0 0-.637.297v1.075a.93.93 0 0 0 .29.13c.095.024.196.037.297.037.12 0 .227-.019.321-.062a.65.65 0 0 0 .24-.16.818.818 0 0 0 .208-.563.926.926 0 0 0-.044-.304.656.656 0 0 0-.139-.24.64.64 0 0 0-.227-.155.83.83 0 0 0-.309-.056Zm-28.437 4.532h-1.204v1.806h-.391v-2.164h1.986v2.164h-.391V19.58Zm2.618.025h-.775l-.026.365a3.81 3.81 0 0 1-.12.748c-.05.192-.113.334-.189.44a.529.529 0 0 1-.258.204.9.9 0 0 1-.322.055l-.031-.377a.269.269 0 0 0 .145-.031.398.398 0 0 0 .164-.16c.05-.081.1-.199.145-.353.044-.155.07-.353.082-.606l.038-.674h1.538v2.164h-.39v-1.775Zm1.113-.234c.1-.062.208-.112.34-.142a1.4 1.4 0 0 1 .398-.056c.315 0 .53.074.656.229.126.154.189.37.189.655v1.33h-.366v-.279a.848.848 0 0 1-.265.217.914.914 0 0 1-.441.092.69.69 0 0 1-.492-.173c-.126-.117-.19-.284-.19-.494a.66.66 0 0 1 .064-.297.595.595 0 0 1 .176-.217.876.876 0 0 1 .265-.13c.101-.03.215-.043.334-.043.082 0 .177.013.284.031.101.019.19.056.265.111 0-.098-.006-.191-.019-.278a.548.548 0 0 0-.07-.216.37.37 0 0 0-.15-.142.65.65 0 0 0-.265-.05c-.14 0-.253.012-.34.043a2.4 2.4 0 0 0-.266.112l-.107-.303Zm.643 1.706a.62.62 0 0 0 .353-.092c.089-.062.164-.124.221-.186v-.272a.828.828 0 0 0-.498-.142.582.582 0 0 0-.177.024.55.55 0 0 0-.151.062.362.362 0 0 0-.107.112.32.32 0 0 0-.038.16.31.31 0 0 0 .1.248c.07.055.171.086.297.086Zm1.327-1.855h2.012v.383h-.813v1.78h-.392v-1.78h-.807v-.383Zm4.232 1.929c-.107.1-.24.168-.385.217a1.37 1.37 0 0 1-.44.068c-.184 0-.341-.025-.486-.08a1.072 1.072 0 0 1-.372-.23 1.03 1.03 0 0 1-.24-.358 1.238 1.238 0 0 1-.082-.464c0-.154.025-.303.076-.445.05-.136.126-.26.22-.358a1.1 1.1 0 0 1 .354-.242 1.2 1.2 0 0 1 .485-.086 1.08 1.08 0 0 1 .725.278.954.954 0 0 1 .22.315.94.94 0 0 1 .083.402c0 .1-.006.186-.025.26h-1.697c.02.204.095.365.234.476a.84.84 0 0 0 .536.173.977.977 0 0 0 .39-.068.865.865 0 0 0 .284-.16l.12.302Zm-.895-1.613a.715.715 0 0 0-.486.16.651.651 0 0 0-.214.415h1.343a.61.61 0 0 0-.183-.427c-.113-.099-.265-.148-.46-.148Zm1.24-.316h.498l.757 1.045-.813 1.119h-.48l.852-1.12-.814-1.044Zm1.35 0h.39v2.164h-.39v-2.164Zm.932 1.045.864 1.119h-.485l-.82-1.12.763-1.044h.485l-.807 1.045Zm3.037.884c-.107.1-.24.168-.384.217-.152.05-.297.068-.442.068-.183 0-.34-.025-.485-.08a1.071 1.071 0 0 1-.372-.23 1.033 1.033 0 0 1-.24-.358 1.24 1.24 0 0 1-.082-.464c0-.154.025-.303.076-.445.05-.136.126-.26.22-.358.095-.1.215-.18.353-.242.14-.061.303-.086.486-.086a1.08 1.08 0 0 1 .725.278.956.956 0 0 1 .22.315.94.94 0 0 1 .083.402c0 .1-.006.186-.025.26H41.73c.02.204.095.365.234.476a.841.841 0 0 0 .536.173.978.978 0 0 0 .39-.068.866.866 0 0 0 .284-.16l.12.302ZM42.4 19.54a.715.715 0 0 0-.486.16.651.651 0 0 0-.214.415h1.343a.61.61 0 0 0-.183-.427c-.113-.099-.265-.148-.46-.148Zm1.584 1.846v-2.164h.391v1.614l1.28-1.614h.391v2.164h-.39v-1.614l-1.28 1.614h-.392Zm.681-3.27c.02.253.145.383.379.383.22 0 .34-.124.36-.384h.365a.715.715 0 0 1-.05.266.552.552 0 0 1-.146.21.776.776 0 0 1-.53.198.875.875 0 0 1-.32-.055.67.67 0 0 1-.234-.143.702.702 0 0 1-.145-.21.74.74 0 0 1-.05-.266h.371ZM47.743 5v7H45.39V7.08h-2.263V12h-2.354V5h6.97Zm-8.484 3.758C39.289 10.65 37.858 12 35.83 12c-1.92 0-3.542-1.242-3.542-4.268 0-2.566 1.538-4.687 3.81-4.726.995 0 3.16-.006 3.16-.006l-1.002 1.93h-1.932c-.978 0-1.854.707-1.98 1.783.526-.522 1.336-.834 2.171-.834 1.568.006 2.719 1.427 2.743 2.879Zm-2.14.146c0-.751-.543-1.382-1.277-1.382-.727 0-1.3.637-1.287 1.395 0 .803.667 1.344 1.246 1.344.739 0 1.317-.592 1.317-1.357Zm-6.802.64s-.731.523-1.704.504c-.61 0-1.425-.569-1.425-1.57.012-1.022.821-1.571 1.431-1.571.949-.033 1.698.504 1.698.504l.81-1.564c-.72-.55-1.408-.84-2.387-.847-2.12 0-3.576 1.842-3.576 3.484 0 1.92 1.619 3.503 3.564 3.516a3.671 3.671 0 0 0 2.41-.867l-.821-1.59Z" fill="#1D1346"/></svg>