<svg width="34" height="34" fill="none" xmlns="http://www.w3.org/2000/svg"><path d="m13.188 16.998 2.874 2.8 5.75-5.6m7.188 4.2c0 6.999-5.031 10.498-11.011 12.528a1.475 1.475 0 0 1-.963-.014C11.03 28.896 6 25.397 6 18.398V8.6c0-.372.151-.728.421-.99.27-.263.635-.41 1.016-.41 2.875 0 6.47-1.68 8.97-3.807A1.709 1.709 0 0 1 17.5 3c.4 0 .788.14 1.093.393 2.515 2.141 6.095 3.807 8.97 3.807.38 0 .746.147 1.016.41.27.262.421.618.421.99v9.798Z" stroke="#4f6271" stroke-linecap="round" stroke-linejoin="round" style="mix-blend-mode:exclusion"/></svg>