<svg width="70" height="175" fill="none" xmlns="http://www.w3.org/2000/svg"><path d="M128.982 164.781c-12.517 6.66-26.161 9.927-40.337 10.085-.308.004-.617.005-.927.005-17.316.071-34.945-5.123-49.304-14.96-14.558-9.874-26.08-24.28-32.448-40.684C1.964 108.991-.05 98.01 0 87.038a87.862 87.862 0 0 1 2.293-19.644C6.254 50.3 15.584 34.51 28.54 22.74c8.782-8.013 19.213-14.212 30.435-18.054A86.554 86.554 0 0 1 74.103.977 87.646 87.646 0 0 1 85.682.005a25.24 25.24 0 0 1 1.439.012c.382.016.598.04.597.066 0 .025-.218.048-.6.07-.383.02-.9.039-1.438.054a87.374 87.374 0 0 0-11.63 1.107 86.224 86.224 0 0 0-12.596 3.044c-.68.11-1.6.32-3.26.88-.847.285-2.075.745-2.958 1.123-.795.34-1.38.62-1.937.891-.581.285-1.13.56-1.84.897a58.52 58.52 0 0 0-3.495 1.825c-.423.237-.852.482-1.291.737a86.734 86.734 0 0 0-10.398 6.675 72.874 72.874 0 0 0-3.4 2.628 52.61 52.61 0 0 0-2.365 2.078 87.119 87.119 0 0 0-9.826 10.306 81.826 81.826 0 0 0-6.424 8.86 94.22 94.22 0 0 0-2.811 4.772 74.178 74.178 0 0 0-3.215 6.565 123.484 123.484 0 0 0-1.708 4.187c-.734 1.912-1.398 3.861-1.885 5.648a72.365 72.365 0 0 0-.779 3.14c-.346 1.535-.608 2.89-.856 4.117a71.64 71.64 0 0 0-.947 6.082c-.244 2.141-.372 3.932-.508 5.512-.02.24-.044.515-.068.824a64.013 64.013 0 0 0-.15 7.988c.058 1.324.162 2.583.287 3.8.183 1.769.413 3.496.652 5.329.036.274.066.56.095.822.036.332.07.626.108.795.111.499.278 1.29.475 2.143.144.627.304 1.283.464 1.896a85.66 85.66 0 0 0 6.848 19.771 62.545 62.545 0 0 0 1.485 3.16c.719 1.42 1.716 3.222 3.128 5.476a91.797 91.797 0 0 0 3.88 5.689c2.904 3.967 6.36 7.673 8.705 9.899.494.473.996.942 1.54 1.438 2.078 1.853 4.656 4.221 10.107 7.952a88.033 88.033 0 0 0 13.572 7.528 82.534 82.534 0 0 0 4.65 1.898 87.17 87.17 0 0 0 7.3 2.356c4.121 1.146 8.366 1.896 10.782 2.214.856.117 1.76.225 2.74.326a89.693 89.693 0 0 0 10.53.455c4.747-.087 7.688-.39 10.728-.763 1.229-.157 2.324-.292 3.446-.449 1.588-.226 3.252-.494 5.45-1.049a59.92 59.92 0 0 0 1.627-.439c1.047-.297 2.17-.638 3.318-.985.401-.121.758-.223 1.105-.325.383-.113.758-.225 1.177-.367 1.563-.53 3.071-1.1 4.395-1.636 1.704-.69 3.119-1.33 3.991-1.724a67.892 67.892 0 0 0 4.88-2.467 105.97 105.97 0 0 0 3.733-2.175c3.457-2.088 8.016-5.304 12.259-9.145a121.744 121.744 0 0 0 4.62-4.352 78.78 78.78 0 0 0 3.553-3.785 46.655 46.655 0 0 0 1.949-2.388c.515-.671.984-1.3 1.478-1.935.437-.562.731-.901 1.011-1.226.311-.361.602-.702 1.027-1.319.225-.329.486-.737.791-1.226.121-.193.248-.4.383-.619-.001.015.003.021.007.024.028.02.466-.605.885-1.227l.469-.7c.507-.748 1.391-2.206 2.028-3.345.271-.481.523-.915.811-1.422.255-.45.54-.959.887-1.619.197-.377.353-.664.481-.902.092-.173.17-.32.24-.458.06-.119.098-.221.14-.335.031-.082.065-.172.11-.279.108-.256.256-.58.367-.805.05-.104.093-.186.134-.266.049-.095.097-.188.159-.319.284-.602.537-1.199.793-1.823.281-.687.563-1.4.891-2.194l.322-.772c.113-.269.22-.532.307-.757a40.68 40.68 0 0 0 .887-2.596c.166-.538.318-1.047.465-1.518.27-.865.377-1.334.458-1.683.042-.18.075-.328.117-.48l.123-.418c.039-.127.078-.258.112-.382l.008-.027c.224-.774.439-1.545.639-2.302a64.64 64.64 0 0 0 1.171-5.232c.07-.392.128-.794.185-1.203.07-.502.137-1.017.217-1.538.19-1.236.373-2.49.527-3.733.231-1.86.394-3.694.437-5.383.014-.555.015-1.097.011-1.642-.002-.304-.006-.61-.01-.918.015.066.03.1.044.133.029.068.054.126.069.423.037.7.076 1.494.131 1.408.015-.023.029-.003.044.019.037.054.077.11.116-.54.028-.437.082-1.567.054-2.289a3.452 3.452 0 0 0-.032-.36 5.934 5.934 0 0 1-.021-.168 10.2 10.2 0 0 1-.048-.933l-.008-.368c-.011-.515-.03-1.088-.058-1.302-.031-.246-.057-.193-.087-.13-.04.081-.085.177-.163-.35-.015-.105-.026-.305-.036-.456a2 2 0 0 0-.015-.196c-.005-.008-.012.026-.021.07-.032.154-.083.42-.138-.683l-.047-.952c-.023-.454-.047-.83-.061-.88a.245.245 0 0 0-.016-.043c-.024-.36-.051-.72-.08-1.08a40.39 40.39 0 0 0-.171-1.912l-.069-.618a86.912 86.912 0 0 0-.26-2.121c-.072-.56-.15-1.15-.237-1.783-.174-1.264-.329-2.36-.497-3.426a60.5 60.5 0 0 0-.226-1.351c.04.174.076.332.106.453.2.83.308 1.151.411 1.451.068.2.132.387.209.705.14.582.165.517.184.469.011-.026.019-.045.04.032.017.063.046.208.075.359.025.131.051.267.07.353.232 1.05.209.727.178.256-.017-.26-.039-.564-.023-.708.021-.125.042-.088.154.465a81.308 81.308 0 0 0-.168-1.308 3.695 3.695 0 0 0-.126-.47c-.099-.315-.319-1.356-.51-2.17a41.029 41.029 0 0 0-.215-.888c-.259-.975-.238-.678-.216-.418.011.143.021.275-.017.18-.017-.042-.009.02-.001.083a.386.386 0 0 1 .007.1c-.036.022-.197-.551-.355-1.08a18.01 18.01 0 0 0-.233-.746 3.06 3.06 0 0 0-.046-.121c-.02-.052-.04-.102-.066-.182-.061-.183-.169-.564-.291-.98a50.227 50.227 0 0 0-.194-.645c-.084-.271-.127-.365-.172-.465a3.62 3.62 0 0 1-.116-.282c-.09-.25-.247-.762-.398-1.235a63.12 63.12 0 0 0-.186-.573.52.52 0 0 0-.042-.107 80.349 80.349 0 0 0-.774-2.227c-1.316-3.569-2.588-6.61-4.77-11.013a61.739 61.739 0 0 0-1.379-2.59 86.542 86.542 0 0 0-5.118-8.21c-.342-.54-.776-1.19-1.314-1.944a65.934 65.934 0 0 0-3.486-4.432 98.381 98.381 0 0 0-3.562-3.957 81.65 81.65 0 0 0-7.962-7.357c-3.049-2.484-6.77-5.028-9.506-6.662a117.598 117.598 0 0 0-4.556-2.627c-2.103-1.145-4.041-2.073-5.265-2.55a25.98 25.98 0 0 0-1.15-.41c-.265-.09-.528-.177-.784-.266A86.134 86.134 0 0 0 118.574 6a48.953 48.953 0 0 0-4.901-1.736 86.962 86.962 0 0 0-6.608-1.832 84.823 84.823 0 0 0-1.493-.337l-.015-.003A86.372 86.372 0 0 0 96.181.595a87.539 87.539 0 0 0-7.504-.457 20.833 20.833 0 0 1-.678-.021c-.18-.01-.28-.021-.28-.033" fill="#2C3E50"/></svg>