<svg width="40" height="40" fill="none" xmlns="http://www.w3.org/2000/svg"><path d="M17.83 24.45h3.296a3.294 3.294 0 0 0 3.295-3.3 3.294 3.294 0 0 0-3.296-3.3h-4.943c-.988 0-1.812.33-2.307.99l-9.227 8.91m6.59 6.6 2.637-2.31c.495-.66 1.319-.99 2.307-.99h6.591c1.813 0 3.46-.66 4.614-1.98l7.58-7.26a3.305 3.305 0 0 0-2.172-5.703 3.296 3.296 0 0 0-2.36.902l-6.92 6.434M3 26.1l9.887 9.9m17.96-21.45a4.782 4.782 0 0 1-4.778 4.785 4.782 4.782 0 0 1-4.779-4.785 4.782 4.782 0 0 1 4.779-4.785 4.782 4.782 0 0 1 4.779 4.785Zm-16.313-6.6a4.947 4.947 0 0 1-4.943 4.95 4.947 4.947 0 0 1-4.943-4.95A4.947 4.947 0 0 1 9.59 3a4.947 4.947 0 0 1 4.944 4.95Z" stroke="#2C3E50" stroke-linecap="round" stroke-linejoin="round" style="mix-blend-mode:exclusion"/></svg>