<svg width="34" height="34" fill="none" xmlns="http://www.w3.org/2000/svg"><path d="M13.5 18.263v-4.634m6 4.634v-4.634M11.25 32H6a2.974 2.974 0 0 1-2.121-.894A3.08 3.08 0 0 1 3 28.947V15.21c0-.444.095-.883.279-1.286a3.03 3.03 0 0 1 .785-1.046l10.5-9.157A2.97 2.97 0 0 1 16.5 3a2.97 2.97 0 0 1 1.936.721l10.5 9.157A3.082 3.082 0 0 1 30 15.21v13.737a3.08 3.08 0 0 1-.879 2.159A2.974 2.974 0 0 1 27 32h-7.5a2.974 2.974 0 0 1-2.121-.894 3.08 3.08 0 0 1-.879-2.159v-3.052m4.5-7.632c.398 0 .78.16 1.06.447.282.286.44.674.44 1.08v3.052A3.08 3.08 0 0 1 21.621 25a2.974 2.974 0 0 1-2.121.895h-6A2.974 2.974 0 0 1 11.379 25a3.08 3.08 0 0 1-.879-2.158v-3.053c0-.405.158-.793.44-1.08a1.487 1.487 0 0 1 1.06-.446h9Z" stroke="#4f6271" stroke-linecap="round" stroke-linejoin="round" style="mix-blend-mode:exclusion"/></svg>