<?xml version="1.0" encoding="utf-8"?><svg xmlns="http://www.w3.org/2000/svg" xmlns:xlink="http://www.w3.org/1999/xlink"><symbol viewBox="0 0 16 9" fill="none" id="arrow-down"><path d="M15 1L8 8L1 1" stroke="currentColor" stroke-width="2" stroke-linecap="round" stroke-linejoin="round"/></symbol><symbol viewBox="0 0 17 17" fill="none" id="arrow-left-line"><path d="M8.2782 0.5L0.500023 8.27818M0.500023 8.27818L8.2782 16.0564M0.500023 8.27818H16.0564" stroke="currentColor" stroke-linecap="round" stroke-linejoin="round"/></symbol><symbol viewBox="0 0 8 14" fill="none" id="arrow-right"><path d="M1 1L7 7L1 13" stroke="currentColor" stroke-width="2" stroke-linecap="round" stroke-linejoin="round"/></symbol><symbol viewBox="0 0 17 17" fill="none" id="arrow-right-line"><path d="M8.2782 0.5L16.0564 8.27818M16.0564 8.27818L8.2782 16.0564M16.0564 8.27818H0.500023" stroke="currentColor" stroke-linecap="round" stroke-linejoin="round"/></symbol><symbol viewBox="0 0 46 46" fill="none" id="brand"><path d="M22.5996 17.3493C24.8084 17.3495 26.5994 19.1405 26.5996 21.3493C26.5996 22.6666 25.9623 23.8348 24.9795 24.5632C24.5793 24.8599 24.3338 25.357 24.4717 25.8356L29.1592 42.072C29.3438 42.7114 28.8637 43.3493 28.1982 43.3493H17.001C16.3355 43.3493 15.8555 42.7114 16.04 42.072L20.7275 25.8356C20.8654 25.357 20.6198 24.86 20.2197 24.5632C19.2372 23.8347 18.5996 22.6665 18.5996 21.3493C18.5998 19.1404 20.3907 17.3495 22.5996 17.3493ZM29.3975 1.93915C29.569 1.39984 30.1466 1.09848 30.6768 1.29657C34.2907 2.64714 37.4576 4.99353 39.8047 8.07294C42.3592 11.4246 43.8186 15.4831 43.9844 19.694C44.15 23.9049 43.0136 28.0651 40.7305 31.6071C38.6327 34.8614 35.6596 37.4484 32.1631 39.0788L32.0664 39.1179C31.6095 39.2742 31.1091 39.0633 30.8818 38.6345L30.8379 38.5397C30.6248 38.0154 30.878 37.4195 31.3896 37.1774C34.4964 35.7078 37.1374 33.3958 39.0068 30.4958C41.0617 27.3079 42.0847 23.564 41.9355 19.7741C41.7863 15.9844 40.4728 12.3326 38.1738 9.3161C36.213 6.74343 33.6164 4.73937 30.6523 3.49286L30.0547 3.2536C29.5256 3.05248 29.2261 2.47863 29.3975 1.93915ZM14.5342 1.95966C15.0556 1.7399 15.6451 2.01701 15.8389 2.54852C16.0325 3.08042 15.7566 3.66644 15.2363 3.88934L14.6738 4.1413C11.8823 5.44886 9.45421 7.44015 7.62109 9.94012C5.46357 12.8827 4.22661 16.3993 4.06738 20.0446C3.90824 23.69 4.83371 27.3011 6.72656 30.4206C8.44198 33.2475 10.8825 35.5562 13.7861 37.112C14.285 37.3793 14.5086 37.9867 14.2695 38.4997L14.2207 38.5925C13.9724 39.0091 13.462 39.195 13.0137 39.0163L12.9189 38.9724C9.64845 37.2433 6.90039 34.6576 4.97461 31.4841C2.87132 28.0179 1.84268 24.0054 2.01953 19.9548C2.19651 15.9043 3.57043 11.9968 5.96777 8.72723C8.1628 5.73372 11.1255 3.39705 14.5342 1.95966ZM27.6475 6.77509C27.8333 6.16082 28.4843 5.80967 29.083 6.04071C31.6925 7.04832 33.9887 8.74614 35.7188 10.9626C37.6878 13.4853 38.8281 16.5562 38.9824 19.7526C39.1366 22.949 38.297 26.1156 36.5801 28.8161C35.0714 31.1888 32.9496 33.1011 30.4492 34.3552L30.3398 34.402C29.8278 34.5918 29.2595 34.354 29 33.8688L28.9492 33.7614C28.7054 33.1677 28.9916 32.4923 29.5615 32.197C31.6195 31.1305 33.3671 29.5365 34.6182 27.569C36.0777 25.2735 36.7912 22.582 36.6602 19.8649C36.529 17.1479 35.5594 14.5376 33.8857 12.3932C32.5408 10.6703 30.794 9.31514 28.8086 8.4411L28.4082 8.27313C27.8124 8.03394 27.4617 7.38964 27.6475 6.77509ZM16.3701 6.61298C16.9595 6.35956 17.6229 6.68615 17.832 7.29266C18.041 7.89963 17.716 8.55725 17.1299 8.81903L16.7549 8.99286C14.8977 9.89276 13.2708 11.2203 12.0127 12.8747C10.4356 14.9487 9.50881 17.444 9.34961 20.0446C9.19054 22.6454 9.80651 25.2361 11.1191 27.487C12.2359 29.4018 13.8148 30.9982 15.7031 32.1354C16.253 32.4666 16.4961 33.159 16.2148 33.736L16.1572 33.8395C15.8674 34.3073 15.2851 34.5088 14.7861 34.2868L14.6807 34.2321C12.3805 32.8882 10.459 30.9704 9.11035 28.6579C7.56607 26.0098 6.84215 22.9628 7.0293 19.903C7.21651 16.8433 8.30662 13.9076 10.1621 11.4675C11.7825 9.3366 13.9234 7.66655 16.3701 6.61298ZM18.2744 11.237C18.8052 11.0038 19.4008 11.3107 19.5801 11.862C19.7591 12.4134 19.4534 13.0002 18.9287 13.2468L18.4941 13.4665C17.4961 14.008 16.6129 14.749 15.9033 15.6491C14.8749 16.9537 14.2564 18.5341 14.126 20.1901C13.9956 21.8463 14.3592 23.5043 15.1709 24.9538C15.8109 26.0966 16.7073 27.0693 17.7832 27.7995C18.2629 28.125 18.4729 28.7526 18.21 29.2692L18.1562 29.363C17.8869 29.7805 17.3572 29.9528 16.916 29.735L16.8232 29.6823C15.3808 28.7552 14.182 27.4855 13.3389 25.9802C12.3242 24.1683 11.8693 22.0953 12.0322 20.0251C12.1953 17.9552 12.9686 15.9799 14.2539 14.3493C15.3221 12.9944 16.7046 11.9271 18.2744 11.237ZM26.0234 11.3932C26.1784 10.8346 26.7603 10.5018 27.3008 10.7116C28.9903 11.3676 30.4872 12.4527 31.6396 13.8669C33.014 15.5536 33.8309 17.6266 33.9766 19.7975C34.1221 21.9684 33.5889 24.1309 32.4521 25.986C31.545 27.4663 30.2887 28.6923 28.8018 29.5622C28.7261 29.6065 28.6501 29.6506 28.5732 29.6931L28.4766 29.739C28.0217 29.9268 27.5044 29.7198 27.2637 29.2849L27.2168 29.1882C27.0168 28.7202 27.1865 28.1919 27.5693 27.8718L27.6523 27.8083C27.681 27.7881 27.7106 27.7686 27.7412 27.7507C28.9309 27.0548 29.9363 26.0736 30.6621 24.8893C31.5715 23.4053 31.9972 21.6748 31.8809 19.9382C31.7644 18.2015 31.1112 16.5434 30.0117 15.194C29.189 14.1843 28.147 13.3837 26.9717 12.8503L26.7354 12.7477C26.2003 12.5244 25.8688 11.9519 26.0234 11.3932Z" fill="currentColor"/></symbol><symbol viewBox="0 0 36 36" fill="none" id="burger"><path d="M8.55556 10.4444H27.4444M8.55556 18H27.4444M8.55556 25.5556H27.4444M4.77778 1H31.2222C33.3086 1 35 2.69137 35 4.77778V31.2222C35 33.3086 33.3086 35 31.2222 35H4.77778C2.69137 35 1 33.3086 1 31.2222V4.77778C1 2.69137 2.69137 1 4.77778 1Z" stroke="currentColor" stroke-width="2" stroke-linecap="round" stroke-linejoin="round"/></symbol><symbol viewBox="0 0 30 30" fill="none" id="checkbox-success"><path d="M10 13.4L13.6923 17L26 5" stroke="currentColor" stroke-width="2" stroke-linecap="round" stroke-linejoin="round"/><path d="M25 15V23.5556C25 24.2039 24.7425 24.8256 24.284 25.284C23.8256 25.7425 23.2039 26 22.5556 26H5.44444C4.79614 26 4.17438 25.7425 3.71596 25.284C3.25754 24.8256 3 24.2039 3 23.5556V6.44444C3 5.79614 3.25754 5.17438 3.71596 4.71596C4.17438 4.25754 4.79614 4 5.44444 4H18.8889" stroke="currentColor" stroke-width="2" stroke-linecap="round" stroke-linejoin="round"/></symbol><symbol viewBox="0 0 117 21" fill="none" id="elecsnet"><path data-keep-colors="true" d="M17.9323 9.81133C17.5614 6.31834 14.4825 3.60156 10.6988 3.60156C10.4763 3.60156 10.2537 3.60156 10.0311 3.63685C6.50714 3.91911 3.68791 6.67119 3.42825 10.023C3.16858 14.0453 6.50714 17.3972 10.6988 17.3972C14.4454 17.3972 17.5614 14.6804 17.9323 11.1874H8.8812V9.77605H17.9323V9.81133ZM10.6988 6.45948C10.773 6.10665 11.1069 5.7891 11.4778 5.71854C12.1826 5.57741 12.7762 6.17722 12.6649 6.84762C12.5907 7.23569 12.2568 7.51796 11.8859 7.58853C11.8116 7.58853 11.7375 7.58853 11.7004 7.58853C11.0698 7.58853 10.5875 7.05926 10.6988 6.45948Z" fill="#FF8200"/><path data-keep-colors="true" d="M21.2858 9.41483C20.7796 4.71875 16.7692 0.910122 11.8242 0.429423C11.4349 0.392446 11.0455 0.355469 10.6562 0.355469C4.38738 0.355469 -0.635423 5.53223 0.0654303 11.5964C0.571605 16.2925 4.58206 20.1011 9.52702 20.5818C16.3019 21.2844 22.0256 15.8488 21.2858 9.41483ZM19.8062 11.2267C19.4558 15.442 15.8737 18.8439 11.4349 19.1767C11.1623 19.2137 10.9287 19.2137 10.6562 19.2137C5.36079 19.2137 1.11671 14.9244 1.54502 9.78455C1.89544 5.56921 5.4776 2.16733 9.91638 1.83455C15.5621 1.39082 20.2735 5.86502 19.8062 11.2267Z" fill="#FF8200"/><path d="M32.123 5.22656C33.7626 5.22656 35.0482 5.66919 36.0674 6.59473C37.0864 7.47994 37.5732 8.68725 37.5732 10.1357C37.5732 11.5843 37.0864 12.7515 36.0674 13.6367C35.0925 14.522 33.7626 14.9648 32.123 14.9648C30.4395 14.9648 29.1102 14.4821 28.1797 13.5166L29.4648 12.3896C30.1295 13.0736 31.0157 13.4355 32.0791 13.4355C33.0539 13.4355 33.8074 13.194 34.4277 12.6709C35.048 12.1478 35.4026 11.5041 35.4912 10.6592H31.0596V9.16992H35.4463C35.3133 8.48599 34.9587 7.92221 34.3828 7.43945C33.7626 6.95688 33.0533 6.75586 32.2559 6.75586C31.1042 6.75595 30.2183 7.11804 29.5537 7.80176C29.3765 7.64084 29.1548 7.43975 28.8447 7.1582C28.5345 6.91674 28.3565 6.75553 28.2236 6.63477C28.6224 6.19219 29.1993 5.8303 29.9082 5.58887C30.6169 5.34757 31.37 5.2266 32.123 5.22656ZM49.5303 14.8809H47.4365V6.7793H43.4785V9.08887C43.4785 11.0195 43.1598 12.5308 42.5684 13.4961C42.0678 14.4613 41.1122 14.9648 39.793 14.9648C39.2925 14.9648 38.8373 14.9228 38.4277 14.8389L38.6094 13.2441C38.8368 13.3281 39.0646 13.3281 39.292 13.3281C40.02 13.3281 40.6116 12.9919 40.9756 12.2783C41.3396 11.5648 41.5215 10.3478 41.5215 8.58496V5.22656H49.5303V14.8809ZM56.54 5.22656C58.055 5.22656 59.2583 5.66962 60.1494 6.51465C61.0405 7.35966 61.4863 8.52681 61.4863 10.0156V10.6191H53.332C53.3766 11.4238 53.6891 12.0676 54.3574 12.6309C55.0257 13.1539 55.7829 13.4355 56.6738 13.4355C57.966 13.4355 58.9462 12.9528 59.6592 12.0273L61.085 13.0732C59.971 14.3207 58.5003 14.9648 56.6289 14.9648C55.0696 14.9648 53.7776 14.5219 52.7529 13.6367C51.7282 12.7515 51.2383 11.5844 51.2383 10.1357C51.2383 8.68723 51.7282 7.52004 52.7529 6.63477C53.7776 5.66922 55.0253 5.22661 56.54 5.22656ZM66.0234 9.67285H66.0674L70.3252 5.22656H73.0039L68.3066 9.8418L73.4424 14.9648H70.7207L66.0674 10.1807H66.0234V14.9648H64.0479V5.22656H66.0234V9.67285ZM78.9443 5.22656C79.7048 5.22656 80.4208 5.34728 81.1367 5.62891C81.8521 5.91059 82.3895 6.27297 82.792 6.75586L81.3154 7.84277C81.0916 7.52087 80.7787 7.27933 80.3311 7.07812C79.8841 6.87692 79.4365 6.7959 78.9443 6.7959C77.9156 6.79591 77.1107 7.118 76.4844 7.76172C75.8581 8.40553 75.5899 9.21033 75.5898 10.1357C75.5898 11.0611 75.9023 11.8258 76.5283 12.5098C77.1546 13.1536 77.9606 13.4755 78.9893 13.4756C80.0625 13.4756 80.8681 13.1538 81.4492 12.4697L82.8369 13.5967C81.8978 14.4819 80.5992 14.9648 78.9893 14.9648C77.3788 14.9648 76.0817 14.5219 75.0078 13.6367C73.979 12.7515 73.4424 11.5846 73.4424 10.0957C73.4424 8.64709 73.979 7.47999 75.0078 6.59473C76.0372 5.7095 77.3344 5.22657 78.9443 5.22656ZM87.2734 9.08008H92.0215V5.22656H93.9385V14.9648H92.0215V10.6885H87.2734V14.9648H85.3984V5.22656H87.2734V9.08008ZM101.803 5.22656C103.318 5.22658 104.52 5.67117 105.412 6.51953C106.303 7.36812 106.749 8.54009 106.749 10.0352V10.6416H98.6387C98.6837 11.4495 98.9961 12.0956 99.6641 12.6611C100.332 13.1864 101.09 13.4697 101.981 13.4697C103.273 13.4696 104.254 12.9848 104.967 12.0557L106.393 13.1064C105.234 14.3185 103.763 14.9648 101.892 14.9648C100.332 14.9648 99.0401 14.5207 98.0156 13.6318C96.9905 12.7429 96.501 11.5707 96.501 10.1162C96.501 8.66162 96.9905 7.48954 98.0156 6.60059C99.0402 5.67125 100.288 5.22656 101.803 5.22656ZM116.997 6.83594H113.684V14.9648H111.771V6.83594H108.457V5.22656H116.997V6.83594ZM56.585 6.67578C55.7384 6.67578 54.9806 6.91644 54.4014 7.43945C53.733 7.92231 53.3766 8.5667 53.332 9.29102H59.4365C59.392 8.52644 59.1689 7.88233 58.6787 7.39941C58.1886 6.91676 57.4759 6.67581 56.585 6.67578ZM101.848 6.64062C101.001 6.64062 100.243 6.88389 99.6641 7.40918C98.996 7.89407 98.6839 8.54037 98.5947 9.26758H104.699C104.655 8.49986 104.432 7.85302 103.941 7.36816C103.452 6.88339 102.739 6.64064 101.848 6.64062Z" fill="currentColor"/></symbol><symbol viewBox="0 0 55 76" fill="none" id="news-messengers"><path d="M41.7 28.0545C43.3709 28.0545 44.9733 28.7184 46.1548 29.9001C47.3363 31.0818 48 32.6846 48 34.3558V66.7633C47.9999 67.2057 47.8687 67.6382 47.623 68.006C47.3772 68.3738 47.028 68.6605 46.6193 68.8297C46.2107 68.999 45.7611 69.0433 45.3273 68.957C44.8935 68.8707 44.495 68.6577 44.1822 68.345L37.2459 61.4072C36.0647 60.2254 34.4625 59.5613 32.7918 59.561H10.2C8.52914 59.561 6.92671 58.8971 5.74523 57.7154C4.56375 56.5336 3.9 54.9309 3.9 53.2597V50.109M29.1 31.2052C29.1 32.8764 28.4363 34.4791 27.2548 35.6608C26.0733 36.8426 24.4709 37.5064 22.8 37.5064H0.208201C-1.46253 37.5068 -3.0647 38.1709 -4.2459 39.3527L-11.1822 46.2904C-11.495 46.6032 -11.8935 46.8162 -12.3273 46.9025C-12.7611 46.9888 -13.2107 46.9445 -13.6193 46.7752C-14.028 46.6059 -14.3772 46.3193 -14.623 45.9515C-14.8687 45.5836 -14.9999 45.1512 -15 44.7088V12.3013C-15 10.6301 -14.3363 9.02733 -13.1548 7.8456C-11.9733 6.66388 -10.3709 6 -8.7 6H22.8C24.4709 6 26.0733 6.66388 27.2548 7.8456C28.4363 9.02733 29.1 10.6301 29.1 12.3013V31.2052Z" stroke="currentColor" stroke-width="6" stroke-linecap="round" stroke-linejoin="round"/></symbol><symbol viewBox="0 0 55 76" fill="none" id="news-settings-tariff"><path d="M45.5 12.6693H23.3333M10.6667 12.6693H-11.5M45.5 38.0026H17M4.33333 38.0026H-11.5M45.5 63.3359H29.6667M17 63.3359H-11.5M23.3333 6.33594V19.0026M4.33333 31.6693V44.3359M29.6667 57.0026V69.6693" stroke="currentColor" stroke-width="6" stroke-linecap="round" stroke-linejoin="round"/></symbol><symbol viewBox="0 0 55 76" fill="none" id="news-update-app"><path d="M-5.16667 12.6693C-5.16667 10.9896 -4.49941 9.37866 -3.31168 8.19093C-2.12395 7.0032 -0.513038 6.33594 1.16667 6.33594H39.1667C40.8464 6.33594 42.4573 7.0032 43.645 8.19093C44.8327 9.37866 45.5 10.9896 45.5 12.6693V63.3359C45.5 65.0156 44.8327 66.6265 43.645 67.8143C42.4573 69.002 40.8464 69.6693 39.1667 69.6693H31.5667M4.33333 57.0026H4.365M-5.16667 25.3359H13.8333C17.3311 25.3359 20.1667 28.1715 20.1667 31.6693V63.3359C20.1667 66.8337 17.3311 69.6693 13.8333 69.6693H-5.16667C-8.66447 69.6693 -11.5 66.8337 -11.5 63.3359V31.6693C-11.5 28.1715 -8.66447 25.3359 -5.16667 25.3359Z" stroke="currentColor" stroke-width="6" stroke-linecap="round" stroke-linejoin="round"/></symbol><symbol viewBox="0 0 30 30" fill="none" stroke-width="2" id="person"><path fill-rule="evenodd" clip-rule="evenodd" d="M21 7.5C21 10.5378 18.5378 13 15.5 13C12.4622 13 10 10.5378 10 7.5C10 4.46217 12.4622 2 15.5 2C18.5378 2 21 4.46217 21 7.5Z" stroke="currentColor" stroke-linecap="round" stroke-linejoin="round"/><path fill-rule="evenodd" clip-rule="evenodd" d="M26 28H4C4 23.0302 8.103 19 13.1667 19H16.8333C21.897 19 26 23.0302 26 28Z" stroke="currentColor" stroke-linecap="round" stroke-linejoin="round"/></symbol><symbol viewBox="0 0 14 16" fill="none" id="person-login"><path fill-rule="evenodd" clip-rule="evenodd" d="M9.75 3.75C9.75 5.407 8.407 6.75 6.75 6.75C5.093 6.75 3.75 5.407 3.75 3.75C3.75 2.093 5.093 0.75 6.75 0.75C8.407 0.75 9.75 2.093 9.75 3.75Z" stroke="currentColor" stroke-width="1.5" stroke-linecap="round" stroke-linejoin="round"/><path fill-rule="evenodd" clip-rule="evenodd" d="M12.75 14.75H0.75C0.75 11.989 2.988 9.75 5.75 9.75H7.75C10.512 9.75 12.75 11.989 12.75 14.75Z" stroke="currentColor" stroke-width="1.5" stroke-linecap="round" stroke-linejoin="round"/></symbol><symbol viewBox="0 0 14 16" fill="none" id="person-login-white"><path fill-rule="evenodd" clip-rule="evenodd" d="M9.75 3.75C9.75 5.407 8.407 6.75 6.75 6.75C5.093 6.75 3.75 5.407 3.75 3.75C3.75 2.093 5.093 0.75 6.75 0.75C8.407 0.75 9.75 2.093 9.75 3.75Z" stroke="currentColor" stroke-width="1.5" stroke-linecap="round" stroke-linejoin="round"/><path fill-rule="evenodd" clip-rule="evenodd" d="M12.75 14.75H0.75C0.75 11.989 2.988 9.75 5.75 9.75H7.75C10.512 9.75 12.75 11.989 12.75 14.75Z" stroke="currentColor" stroke-width="1.5" stroke-linecap="round" stroke-linejoin="round"/></symbol><symbol viewBox="0 0 46 46" fill="none" id="phone"><path d="M28.0261 41.3942C29.9643 42.6465 32.2739 43.1923 34.5665 42.9397C36.8592 42.6871 38.9951 41.6516 40.6152 40.0073L42.0314 38.6204C42.6523 37.9843 43 37.1301 43 36.2405C43 35.351 42.6523 34.4968 42.0314 33.8607L36.0202 27.9032C35.3904 27.2833 34.5427 26.936 33.6597 26.936C32.7767 26.936 31.929 27.2833 31.2993 27.9032V27.9032C30.6642 28.5251 29.8113 28.8733 28.9231 28.8733C28.0349 28.8733 27.182 28.5251 26.5469 27.9032L17.1051 18.4469C16.7901 18.136 16.54 17.7655 16.3693 17.357C16.1985 16.9484 16.1106 16.5099 16.1106 16.0671C16.1106 15.6242 16.1985 15.1857 16.3693 14.7771C16.54 14.3686 16.7901 13.9981 17.1051 13.6872V13.6872C17.724 13.0565 18.0708 12.2075 18.0708 11.3231C18.0708 10.4388 17.724 9.5898 17.1051 8.95905L11.1253 2.97005C10.4902 2.34819 9.63727 2 8.74909 2C7.8609 2 7.008 2.34819 6.3729 2.97005L4.9881 4.3885C3.34632 6.01102 2.31241 8.15023 2.06021 10.4464C1.80802 12.7426 2.35292 15.0558 3.60331 16.9969C10.1183 26.6132 18.4079 34.8941 28.0261 41.3942V41.3942Z" stroke="currentColor" stroke-width="4" stroke-linecap="round" stroke-linejoin="round"/></symbol><symbol viewBox="0 0 27 27" fill="none" id="phone-fill"><path fill-rule="evenodd" clip-rule="evenodd" d="M21.7004 27C20.5771 27 19.2203 26.7185 17.7282 26.1554C14.4571 24.9222 10.898 22.4847 7.70678 19.2935C4.51464 16.1014 2.07717 12.5414 0.842992 9.2703C-0.278571 6.29613 -0.281296 3.85504 0.836635 2.73802C0.997378 2.57728 1.16084 2.40473 1.32976 2.22673C2.34961 1.15421 3.50205 -0.052709 5.02956 0.00177961C6.0821 0.0453705 7.10195 0.699234 8.14632 1.99879C11.2322 5.83661 9.84093 7.20427 8.23078 8.78989L7.94653 9.07142C7.68317 9.33478 7.1855 10.5544 11.8152 15.1841C13.3264 16.6953 14.6151 17.8014 15.6449 18.4707C16.2933 18.8921 17.453 19.5296 17.9289 19.0537L18.215 18.7649C19.7988 17.1584 21.1665 15.7717 25.0016 18.8549C26.3011 19.8992 26.9541 20.9182 26.9977 21.9725C27.0603 23.4991 25.8443 24.6543 24.7709 25.6732C24.5938 25.8421 24.4213 26.0056 24.2605 26.1654C23.7056 26.7212 22.8184 27 21.7004 27Z" fill="currentColor"/></symbol><symbol viewBox="0 0 63 25" fill="none" id="sbp"><path data-keep-colors="true" d="M6.07022 12.4961L2.92315 14.3763L0 19.6219L11.9165 12.4961H6.07022Z" fill="#8F4794"/><path data-keep-colors="true" d="M15.0624 7.125L11.9153 9.00516L8.99219 14.2508L20.9087 7.125H15.0624Z" fill="#E40646"/><path data-keep-colors="true" d="M11.916 5.24566L8.99219 0V10.7483V14.2516V24.9999L11.916 19.7543V5.24566Z" fill="#F9B429"/><path data-keep-colors="true" d="M8.99219 0L11.9153 5.24566L15.0624 7.12582H20.9087L8.99219 0Z" fill="#EF8019"/><path data-keep-colors="true" d="M8.99219 10.748V24.9997L11.916 19.754V15.9937L8.99219 10.748Z" fill="#78B72A"/><path data-keep-colors="true" d="M15.0624 17.875L11.9153 19.7552L8.99219 25.0008L20.9087 17.875H15.0624Z" fill="#00853F"/><path data-keep-colors="true" d="M0 5.37695V19.6223L2.92382 14.3829V10.6163L0 5.37695Z" fill="#5B57A2"/><path data-keep-colors="true" d="M8.99337 10.748L8.99942 10.7542L0 5.37695L2.92315 10.6163L15.0636 17.8738H20.9099L8.99337 10.748Z" fill="#0698D6"/><path d="M57.8359 14.7402H58.2269V15.3895H58.5926C58.7628 15.3895 58.9016 15.408 59.0151 15.4513C59.1286 15.4946 59.2168 15.5503 59.2799 15.6183C59.3493 15.6863 59.3934 15.7667 59.4249 15.8594C59.4501 15.9522 59.4691 16.0449 59.4691 16.1377C59.4691 16.2366 59.4564 16.3294 59.4249 16.4221C59.3934 16.5149 59.3429 16.5953 59.2736 16.6695C59.2042 16.7437 59.1096 16.7993 58.9898 16.8426C58.87 16.8859 58.725 16.9106 58.5548 16.9106H57.8422V14.7402H57.8359ZM58.2269 15.7481V16.5458H58.5106C58.7061 16.5458 58.8448 16.5149 58.9268 16.4469C59.0088 16.3788 59.0466 16.2799 59.0466 16.1501C59.0466 16.0202 59.0088 15.9213 58.9268 15.8533C58.8448 15.7852 58.7061 15.7543 58.5169 15.7543H58.2269V15.7481ZM59.8852 14.7402H60.2762V16.9044H59.8852V14.7402Z" fill="currentColor"/><path d="M62.1654 15.7852L63.0041 16.9044H62.5249L61.8754 16.0264L61.2196 16.9044H60.7656L61.5979 15.8038L60.8098 14.7402H61.289L61.888 15.5564L62.4996 14.7402H62.9536L62.1654 15.7852Z" fill="currentColor"/><path d="M27.9913 16.5936C27.8967 16.7111 27.7706 16.8039 27.6256 16.8657C27.4742 16.9275 27.3166 16.9585 27.1464 16.9585C26.9698 16.9585 26.8122 16.9337 26.6672 16.8781C26.5221 16.8224 26.396 16.7482 26.2951 16.6493C26.1879 16.5503 26.1123 16.4329 26.0492 16.2906C25.9925 16.1484 25.9609 15.9938 25.9609 15.8269C25.9609 15.6723 25.9862 15.5239 26.0429 15.3817C26.0997 15.2456 26.1753 15.122 26.2762 15.023C26.3771 14.9241 26.4969 14.8437 26.6293 14.7819C26.768 14.72 26.9131 14.6953 27.077 14.6953C27.2536 14.6953 27.4175 14.72 27.5625 14.7633C27.7139 14.8066 27.84 14.8808 27.9409 14.9798L27.758 15.2827C27.6634 15.2024 27.5625 15.1405 27.4553 15.1096C27.3481 15.0787 27.2409 15.0601 27.1211 15.0601C27.0203 15.0601 26.9257 15.0787 26.8374 15.1158C26.7428 15.1529 26.6671 15.2024 26.5915 15.2704C26.5221 15.3384 26.4654 15.4188 26.4275 15.5115C26.3897 15.6043 26.3645 15.7094 26.3645 15.8269C26.3645 15.9444 26.3834 16.0495 26.4275 16.1484C26.4717 16.2412 26.5284 16.3216 26.5978 16.3896C26.6672 16.4576 26.7554 16.5071 26.85 16.5442C26.9446 16.5813 27.0518 16.5998 27.159 16.5998C27.2914 16.5998 27.4112 16.5751 27.5184 16.5256C27.6256 16.4761 27.7139 16.4081 27.7895 16.3216L27.9913 16.5936Z" fill="currentColor"/><path d="M28.5 16.9044V14.7402H28.8909V16.3541L30.1709 14.7402H30.5619V16.9044H30.1709V15.2906L28.8972 16.9044H28.5Z" fill="currentColor"/><path d="M33.1554 16.5936C33.0608 16.7111 32.9347 16.8039 32.7896 16.8657C32.6383 16.9275 32.4807 16.9585 32.3104 16.9585C32.1339 16.9585 31.9762 16.9337 31.8312 16.8781C31.6862 16.8224 31.5601 16.7482 31.4592 16.6493C31.3583 16.5503 31.2763 16.4329 31.2133 16.2906C31.1565 16.1484 31.125 15.9938 31.125 15.8269C31.125 15.6723 31.1502 15.5239 31.207 15.3817C31.2637 15.2456 31.3394 15.122 31.4403 15.023C31.5412 14.9241 31.661 14.8437 31.7934 14.7819C31.9321 14.72 32.0771 14.6953 32.2411 14.6953C32.4176 14.6953 32.5816 14.72 32.7266 14.7633C32.8779 14.8066 33.004 14.8808 33.1049 14.9798L32.9221 15.2827C32.8275 15.2024 32.7266 15.1405 32.6194 15.1096C32.5122 15.0787 32.405 15.0601 32.2852 15.0601C32.1843 15.0601 32.0897 15.0787 32.0015 15.1158C31.9069 15.1529 31.8312 15.2024 31.7555 15.2704C31.6862 15.3384 31.6294 15.4188 31.5916 15.5115C31.5538 15.6043 31.5285 15.7094 31.5285 15.8269C31.5285 15.9444 31.5475 16.0495 31.5916 16.1484C31.6357 16.2412 31.6925 16.3216 31.7619 16.3896C31.8312 16.4576 31.9195 16.5071 32.0141 16.5442C32.1087 16.5813 32.2158 16.5998 32.323 16.5998C32.4555 16.5998 32.5753 16.5751 32.6824 16.5256C32.7896 16.4761 32.8779 16.4081 32.9536 16.3216L33.1554 16.5936Z" fill="currentColor"/><path d="M33.3594 14.7402H35.3708V15.1236H34.5574V16.9044H34.1665V15.1236H33.3594V14.7402Z" fill="currentColor"/><path d="M37.5989 16.6682C37.4917 16.7671 37.3593 16.8351 37.2143 16.8846C37.0629 16.934 36.9179 16.9526 36.7729 16.9526C36.59 16.9526 36.4324 16.9279 36.2874 16.8722C36.1423 16.8166 36.0162 16.7424 35.9153 16.6434C35.8144 16.5445 35.7325 16.427 35.6757 16.2848C35.619 16.1426 35.5938 15.988 35.5938 15.821C35.5938 15.6664 35.619 15.518 35.6694 15.3758C35.7199 15.2398 35.7955 15.1161 35.8901 15.0172C35.9847 14.9182 36.1045 14.8379 36.2432 14.776C36.3819 14.7142 36.5459 14.6895 36.7287 14.6895C36.8675 14.6895 36.9999 14.7142 37.126 14.7637C37.2521 14.8131 37.3593 14.8811 37.4539 14.9677C37.5484 15.0543 37.6178 15.1594 37.6746 15.2831C37.7313 15.4067 37.7565 15.5428 37.7565 15.685C37.7565 15.7839 37.7502 15.8705 37.7313 15.9447H36.0225C36.0414 16.1487 36.1171 16.3095 36.2558 16.4208C36.3945 16.5321 36.5774 16.594 36.7918 16.594C36.9368 16.594 37.0692 16.5754 37.1827 16.5259C37.3025 16.4827 37.3971 16.427 37.4665 16.3652L37.5989 16.6682ZM36.7035 15.0481C36.5017 15.0481 36.3378 15.1037 36.218 15.2089C36.0982 15.3202 36.0225 15.4562 36.0036 15.6232H37.3467C37.3341 15.4438 37.2773 15.3016 37.1638 15.1965C37.0503 15.1037 36.8927 15.0481 36.7035 15.0481Z" fill="currentColor"/><path d="M38.2812 14.7406H38.6407L39.4856 15.8103L40.2927 14.7344H40.6395V16.8986H40.2486V15.3218L39.4856 16.3297H39.473L38.6785 15.3218V16.8986H38.2876V14.7406H38.2812Z" fill="currentColor"/><path d="M41.3734 14.8873C41.4743 14.8255 41.5815 14.776 41.7139 14.7451C41.84 14.708 41.9724 14.6895 42.1111 14.6895C42.4264 14.6895 42.6408 14.7637 42.7669 14.9182C42.893 15.0728 42.956 15.2892 42.956 15.5737V16.9031H42.5903V16.6249C42.5273 16.7053 42.439 16.7795 42.3255 16.8413C42.212 16.9031 42.067 16.934 41.8841 16.934C41.6823 16.934 41.5184 16.8784 41.3923 16.7609C41.2662 16.6434 41.2031 16.4765 41.2031 16.2662C41.2031 16.1549 41.222 16.0622 41.2662 15.9694C41.3103 15.8829 41.3671 15.8087 41.4427 15.753C41.5184 15.6974 41.6067 15.6541 41.7076 15.6232C41.8084 15.5922 41.9219 15.5799 42.0418 15.5799C42.1237 15.5799 42.2183 15.5922 42.3255 15.6108C42.4264 15.6293 42.5147 15.6664 42.5903 15.7221C42.5903 15.6232 42.584 15.5304 42.5714 15.4438C42.5588 15.3573 42.5399 15.2892 42.502 15.2274C42.4705 15.1656 42.4138 15.1223 42.3507 15.0852C42.2814 15.0543 42.1931 15.0357 42.0859 15.0357C41.9472 15.0357 41.8337 15.0481 41.7454 15.079C41.6571 15.1099 41.5688 15.147 41.4806 15.1903L41.3734 14.8873ZM42.0165 16.594C42.1616 16.594 42.2751 16.563 42.3696 16.5012C42.4579 16.4394 42.5336 16.3775 42.5903 16.3157V16.0436C42.4516 15.9447 42.2877 15.9014 42.0922 15.9014C42.0354 15.9014 41.9724 15.9076 41.9156 15.9261C41.8589 15.9385 41.8084 15.9632 41.7643 15.988C41.7202 16.0189 41.6823 16.056 41.6571 16.0993C41.6319 16.1426 41.6193 16.1982 41.6193 16.26C41.6193 16.3652 41.6508 16.4456 41.7202 16.5074C41.7895 16.5569 41.8841 16.594 42.0165 16.594Z" fill="currentColor"/><path d="M46.637 13.7874C46.5676 13.8739 46.492 13.9358 46.4163 13.9729C46.3343 14.01 46.2524 14.0347 46.1578 14.0533C46.0632 14.0718 45.9623 14.0904 45.8551 14.1089C45.7479 14.1275 45.6344 14.1646 45.5146 14.2202C45.4074 14.2635 45.3255 14.3253 45.2561 14.4057C45.1867 14.4799 45.1363 14.5665 45.0922 14.6654C45.048 14.7582 45.0165 14.8633 44.9976 14.9622C44.9787 15.0612 44.9597 15.1663 44.9534 15.2714H44.9661C45.0039 15.1972 45.048 15.123 45.1111 15.0673C45.1741 15.0055 45.2372 14.956 45.3192 14.9066C45.3948 14.8633 45.4768 14.8262 45.5651 14.8015C45.6533 14.7767 45.7479 14.7643 45.8425 14.7643C46.0001 14.7643 46.1389 14.7891 46.2713 14.8386C46.3974 14.888 46.5046 14.9622 46.5929 15.055C46.6811 15.1477 46.7505 15.2652 46.7946 15.3951C46.8451 15.5249 46.864 15.6733 46.864 15.8403C46.864 15.9887 46.8388 16.1309 46.782 16.2669C46.7253 16.403 46.6496 16.5204 46.5487 16.6194C46.4478 16.7183 46.328 16.7987 46.1893 16.8605C46.0506 16.9224 45.8993 16.9471 45.729 16.9471C45.5462 16.9471 45.3885 16.9162 45.2435 16.8544C45.0985 16.7925 44.9787 16.6998 44.8778 16.5885C44.7769 16.471 44.7012 16.3288 44.6445 16.1618C44.5877 15.9949 44.5625 15.8094 44.5625 15.5991C44.5625 15.4383 44.5751 15.2714 44.594 15.0983C44.6129 14.9251 44.6508 14.7582 44.7138 14.5974C44.7769 14.4366 44.8526 14.2944 44.9597 14.1646C45.0669 14.0347 45.2057 13.9358 45.3822 13.8616C45.5083 13.8059 45.6281 13.7688 45.729 13.7503C45.8362 13.7317 45.9308 13.7193 46.0128 13.7008C46.0947 13.6884 46.1704 13.6637 46.2398 13.639C46.3091 13.6142 46.3722 13.5586 46.4289 13.4844L46.637 13.7874ZM44.9787 15.6795C44.9787 15.8217 44.9976 15.9454 45.0354 16.0629C45.0732 16.1742 45.1237 16.2731 45.1867 16.3473C45.2498 16.4277 45.3318 16.4895 45.42 16.5328C45.5146 16.5761 45.6092 16.6008 45.7164 16.6008C45.8236 16.6008 45.9245 16.5823 46.0128 16.5452C46.101 16.5081 46.1767 16.4524 46.2398 16.3906C46.3028 16.3226 46.3533 16.2484 46.3911 16.1618C46.4289 16.0752 46.4478 15.9763 46.4478 15.8774C46.4478 15.6671 46.3848 15.4878 46.265 15.3518C46.1452 15.2096 45.9686 15.1415 45.7416 15.1415C45.6344 15.1415 45.5398 15.1601 45.4579 15.191C45.3759 15.2219 45.3002 15.2652 45.2309 15.3147C45.1678 15.3641 45.1111 15.426 45.0669 15.4878C45.0228 15.5373 44.9976 15.6053 44.9787 15.6795Z" fill="currentColor"/><path d="M47.4297 14.7402H47.8206V15.3895H48.1863C48.3566 15.3895 48.4953 15.408 48.6088 15.4513C48.7223 15.4946 48.8106 15.5503 48.8736 15.6183C48.943 15.6863 48.9871 15.7667 49.0187 15.8594C49.0439 15.9522 49.0628 16.0449 49.0628 16.1377C49.0628 16.2366 49.0502 16.3294 49.0187 16.4221C48.9871 16.5149 48.9367 16.5953 48.8673 16.6695C48.798 16.7437 48.7034 16.7993 48.5836 16.8426C48.4638 16.8859 48.3188 16.9106 48.1485 16.9106H47.4297V14.7402ZM47.8206 15.7481V16.5458H48.1044C48.2998 16.5458 48.4386 16.5149 48.5205 16.4469C48.6025 16.3788 48.6403 16.2799 48.6403 16.1501C48.6403 16.0202 48.6025 15.9213 48.5205 15.8533C48.4386 15.7852 48.2998 15.7543 48.1107 15.7543H47.8206V15.7481ZM49.479 14.7402H49.8699V16.9044H49.479V14.7402Z" fill="currentColor"/><path d="M52.4679 16.5936C52.3733 16.7111 52.2472 16.8039 52.1021 16.8657C51.9508 16.9275 51.7932 16.9585 51.6229 16.9585C51.4464 16.9585 51.2887 16.9337 51.1437 16.8781C50.9987 16.8224 50.8726 16.7482 50.7717 16.6493C50.6645 16.5503 50.5888 16.4329 50.5258 16.2906C50.469 16.1484 50.4375 15.9938 50.4375 15.8269C50.4375 15.6723 50.4627 15.5239 50.5195 15.3817C50.5762 15.2456 50.6519 15.122 50.7528 15.023C50.8537 14.9241 50.9735 14.8437 51.1059 14.7819C51.2446 14.72 51.3896 14.6953 51.5536 14.6953C51.7301 14.6953 51.8941 14.72 52.0391 14.7633C52.1904 14.8066 52.3165 14.8808 52.4174 14.9798L52.2346 15.2827C52.14 15.2024 52.0391 15.1405 51.9319 15.1096C51.8247 15.0787 51.7175 15.0601 51.5977 15.0601C51.4968 15.0601 51.4022 15.0787 51.314 15.1158C51.2194 15.1529 51.1437 15.2024 51.068 15.2704C50.9987 15.3384 50.9419 15.4188 50.9041 15.5115C50.8663 15.6043 50.841 15.7094 50.841 15.8269C50.841 15.9444 50.86 16.0495 50.9041 16.1484C50.9482 16.2412 51.005 16.3216 51.0744 16.3896C51.1437 16.4576 51.232 16.5071 51.3266 16.5442C51.4212 16.5813 51.5283 16.5998 51.6355 16.5998C51.768 16.5998 51.8878 16.5751 51.995 16.5256C52.1021 16.4761 52.1904 16.4081 52.2661 16.3216L52.4679 16.5936Z" fill="currentColor"/><path d="M52.6641 14.7402H54.6755V15.1236H53.8621V16.9044H53.4712V15.1236H52.6641V14.7402Z" fill="currentColor"/><path d="M55.1064 14.7389H55.4973V14.9924C55.573 14.9059 55.6802 14.8317 55.8126 14.776C55.9513 14.7204 56.0963 14.6895 56.2477 14.6895C56.4053 14.6895 56.544 14.7142 56.6701 14.7698C56.7962 14.8255 56.9034 14.8997 56.9917 14.9986C57.08 15.0976 57.1493 15.2089 57.1935 15.3449C57.2439 15.4809 57.2628 15.6293 57.2628 15.7901C57.2628 15.9509 57.2376 16.1055 57.1809 16.2477C57.1241 16.3899 57.0484 16.5136 56.9476 16.6187C56.8467 16.7238 56.7269 16.8042 56.5818 16.866C56.4431 16.9279 56.2855 16.9526 56.1089 16.9526C55.9891 16.9526 55.8756 16.9402 55.7684 16.9155C55.6612 16.8908 55.5667 16.8537 55.4847 16.8042V17.8677H55.0938V14.7389H55.1064ZM56.1342 15.0481C56.0017 15.0481 55.8819 15.079 55.7684 15.1347C55.6549 15.1903 55.5667 15.2645 55.4973 15.3449V16.4208C55.5982 16.4827 55.6928 16.5321 55.7874 16.5507C55.8819 16.5754 55.9828 16.5878 56.0837 16.5878C56.2035 16.5878 56.3107 16.5692 56.4053 16.5259C56.4999 16.4888 56.5818 16.4332 56.6449 16.3652C56.708 16.2972 56.7584 16.2106 56.7962 16.1178C56.8341 16.0189 56.853 15.9138 56.853 15.8025C56.853 15.6912 56.8404 15.5922 56.8088 15.4995C56.7773 15.4067 56.7332 15.3263 56.6701 15.2583C56.6071 15.1903 56.5314 15.1408 56.4431 15.1037C56.3485 15.0666 56.2477 15.0481 56.1342 15.0481Z" fill="currentColor"/><path d="M27.6968 19.5813H26.4925V21.3869H26.1016V19.2227H28.0878V21.3869H27.6968V19.5813Z" fill="currentColor"/><path d="M30.3151 19.6064H29.5396L29.5143 19.9712C29.4891 20.2803 29.4513 20.5277 29.3945 20.7194C29.3441 20.9111 29.281 21.0533 29.2054 21.1584C29.1297 21.2635 29.0414 21.3315 28.9469 21.3625C28.846 21.3996 28.7451 21.4181 28.6253 21.4181L28.5938 21.0409C28.6379 21.0471 28.682 21.0347 28.7388 21.01C28.7955 20.9853 28.846 20.9358 28.9027 20.8492C28.9532 20.7688 29.0036 20.6514 29.0477 20.4968C29.0919 20.3422 29.1171 20.1443 29.1297 19.8908L29.1675 19.2168H30.7061V21.381H30.3151V19.6064Z" fill="currentColor"/><path d="M31.4281 19.3717C31.5289 19.3099 31.6361 19.2604 31.7686 19.2295C31.8947 19.1924 32.0271 19.1738 32.1658 19.1738C32.4811 19.1738 32.6955 19.248 32.8216 19.4026C32.9477 19.5572 33.0107 19.7736 33.0107 20.0581V21.3875H32.645V21.1092C32.582 21.1896 32.4937 21.2638 32.3802 21.3257C32.2667 21.3875 32.1217 21.4184 31.9388 21.4184C31.737 21.4184 31.5731 21.3628 31.447 21.2453C31.3209 21.1278 31.2578 20.9608 31.2578 20.7506C31.2578 20.6393 31.2767 20.5466 31.3209 20.4538C31.365 20.3672 31.4218 20.293 31.4974 20.2374C31.5731 20.1817 31.6614 20.1384 31.7622 20.1075C31.8631 20.0766 31.9766 20.0642 32.0964 20.0642C32.1784 20.0642 32.273 20.0766 32.3802 20.0952C32.4811 20.1137 32.5693 20.1508 32.645 20.2065C32.645 20.1075 32.6387 20.0148 32.6261 19.9282C32.6135 19.8416 32.5946 19.7736 32.5567 19.7118C32.5252 19.65 32.4685 19.6067 32.4054 19.5696C32.336 19.5387 32.2478 19.5201 32.1406 19.5201C32.0019 19.5201 31.8884 19.5325 31.8001 19.5634C31.7118 19.5943 31.6235 19.6314 31.5353 19.6747L31.4281 19.3717ZM32.0712 21.0783C32.2162 21.0783 32.3297 21.0474 32.4243 20.9856C32.5126 20.9237 32.5883 20.8619 32.645 20.8001V20.528C32.5063 20.4291 32.3424 20.3858 32.1469 20.3858C32.0901 20.3858 32.0271 20.392 31.9703 20.4105C31.9136 20.4229 31.8631 20.4476 31.819 20.4724C31.7749 20.5033 31.737 20.5404 31.7118 20.5837C31.6866 20.6269 31.674 20.6826 31.674 20.7444C31.674 20.8495 31.7055 20.9299 31.7749 20.9918C31.8442 21.0474 31.9451 21.0783 32.0712 21.0783Z" fill="currentColor"/><path d="M33.3984 19.2227H35.4099V19.606H34.5965V21.3869H34.2055V19.606H33.3984V19.2227Z" fill="currentColor"/><path d="M37.6301 21.1525C37.5229 21.2515 37.3905 21.3195 37.2455 21.369C37.0942 21.4184 36.9491 21.437 36.8041 21.437C36.6213 21.437 36.4636 21.4122 36.3186 21.3566C36.1736 21.3009 36.0475 21.2267 35.9466 21.1278C35.8457 21.0289 35.7637 20.9114 35.707 20.7692C35.6502 20.6269 35.625 20.4724 35.625 20.3054C35.625 20.1508 35.6502 20.0024 35.7007 19.8602C35.7511 19.7242 35.8268 19.6005 35.9214 19.5016C36.0159 19.4026 36.1357 19.3222 36.2745 19.2604C36.4132 19.1986 36.5771 19.1738 36.76 19.1738C36.8987 19.1738 37.0311 19.1986 37.1572 19.248C37.2833 19.2975 37.3905 19.3655 37.4851 19.4521C37.5797 19.5387 37.6491 19.6438 37.7058 19.7674C37.7626 19.8911 37.7878 20.0271 37.7878 20.1694C37.7878 20.2683 37.7815 20.3549 37.7626 20.4291H36.0664C36.0853 20.6331 36.161 20.7939 36.2997 20.9052C36.4384 21.0165 36.6213 21.0783 36.8357 21.0783C36.9807 21.0783 37.1131 21.0598 37.2266 21.0103C37.3464 20.967 37.441 20.9114 37.5103 20.8495L37.6301 21.1525ZM36.7348 19.5387C36.533 19.5387 36.369 19.5943 36.2492 19.6994C36.1294 19.8107 36.0538 19.9468 36.0349 20.1137H37.3779C37.3653 19.9344 37.3086 19.7922 37.1951 19.6871C37.0816 19.5881 36.9302 19.5387 36.7348 19.5387Z" fill="currentColor"/><path d="M37.9753 19.2227H38.4733L39.2298 20.2677L38.4166 21.3869H37.9375L38.7885 20.2677L37.9753 19.2227ZM39.3244 19.2227H39.7152V21.3869H39.3244V19.2227ZM40.2574 20.2677L41.121 21.3869H40.6356L39.8161 20.2677L40.5789 19.2227H41.0643L40.2574 20.2677Z" fill="currentColor"/><path d="M43.2942 21.1525C43.187 21.2515 43.0546 21.3195 42.9096 21.369C42.7582 21.4184 42.6132 21.437 42.4682 21.437C42.2853 21.437 42.1277 21.4122 41.9827 21.3566C41.8376 21.3009 41.7115 21.2267 41.6106 21.1278C41.5098 21.0289 41.4278 20.9114 41.371 20.7692C41.3143 20.6269 41.2891 20.4724 41.2891 20.3054C41.2891 20.1508 41.3143 20.0024 41.3647 19.8602C41.4152 19.7242 41.4908 19.6005 41.5854 19.5016C41.68 19.4026 41.7998 19.3222 41.9385 19.2604C42.0772 19.1986 42.2412 19.1738 42.424 19.1738C42.5628 19.1738 42.6952 19.1986 42.8213 19.248C42.9474 19.2975 43.0546 19.3655 43.1492 19.4521C43.2438 19.5387 43.3131 19.6438 43.3699 19.7674C43.4266 19.8911 43.4518 20.0271 43.4518 20.1694C43.4518 20.2683 43.4455 20.3549 43.4266 20.4291H41.7304C41.7494 20.6331 41.825 20.7939 41.9637 20.9052C42.1025 21.0165 42.2853 21.0783 42.4997 21.0783C42.6447 21.0783 42.7772 21.0598 42.8907 21.0103C43.0105 20.967 43.105 20.9114 43.1744 20.8495L43.2942 21.1525ZM42.3988 19.5387C42.1971 19.5387 42.0331 19.5943 41.9133 19.6994C41.7935 19.8107 41.7178 19.9468 41.6989 20.1137H43.042C43.0294 19.9344 42.9726 19.7922 42.8591 19.6871C42.7456 19.5881 42.5943 19.5387 42.3988 19.5387Z" fill="currentColor"/><path d="M43.9844 21.3863V19.2221H44.3753V20.836L45.6553 19.2221H46.0463V21.3863H45.6553V19.7724L44.3753 21.3863H43.9844ZM44.6654 18.1152C44.6843 18.3688 44.8104 18.4986 45.0437 18.4986C45.2644 18.4986 45.3842 18.3749 45.4031 18.1152H45.7688C45.7688 18.2142 45.7499 18.3007 45.7184 18.3811C45.6869 18.4615 45.6364 18.5357 45.5734 18.5914C45.5103 18.6532 45.4346 18.6965 45.3464 18.7336C45.2581 18.7707 45.1572 18.7892 45.0437 18.7892C44.9239 18.7892 44.8167 18.7707 44.7221 18.7336C44.6275 18.6965 44.5519 18.6532 44.4888 18.5914C44.4258 18.5295 44.3816 18.4615 44.3438 18.3811C44.3123 18.3007 44.2933 18.208 44.2933 18.1152H44.6654Z" fill="currentColor"/><path d="M47.7434 5V12H45.3896V7.08016H43.1273V12H40.7734V5H47.7434Z" fill="currentColor"/><path d="M39.2586 8.75796C39.2884 10.6497 37.8575 12 35.8305 12C33.9107 12 32.2891 10.758 32.2891 7.73248C32.2891 5.16561 33.8272 3.04459 36.0987 3.00637C37.0944 3.00637 39.2586 3 39.2586 3L38.257 4.92994C38.257 4.92994 36.5518 4.92994 36.3253 4.92994C35.3475 4.92994 34.4711 5.63694 34.3459 6.71338C34.8706 6.19108 35.6814 5.87898 36.5161 5.87898C38.0841 5.88535 39.2347 7.30573 39.2586 8.75796ZM37.1182 8.90446C37.1182 8.15287 36.5757 7.52229 35.8424 7.52229C35.115 7.52229 34.5427 8.15924 34.5546 8.9172C34.5546 9.71975 35.2223 10.2611 35.8006 10.2611C36.5399 10.2611 37.1182 9.66879 37.1182 8.90446Z" fill="currentColor"/><path d="M30.3168 9.5436C30.3168 9.5436 29.5859 10.0671 28.6133 10.0477C28.0032 10.0477 27.1877 9.47897 27.1877 8.47718C27.1998 7.456 28.0092 6.90663 28.6193 6.90663C29.5677 6.87432 30.3168 7.41076 30.3168 7.41076L31.1262 5.84667C30.4074 5.29731 29.7188 5.00646 28.7402 5C26.6199 5 25.1641 6.842 25.1641 8.48364C25.1641 10.4032 26.783 11.9867 28.7281 11.9996C29.5859 12.0125 30.4618 11.7088 31.1383 11.1335L30.3168 9.5436Z" fill="currentColor"/></symbol><symbol viewBox="0 0 14 14" fill="none" id="search"><path d="M12.25 12.25L9.71833 9.71833M11.0833 6.41667C11.0833 8.994 8.994 11.0833 6.41667 11.0833C3.83934 11.0833 1.75 8.994 1.75 6.41667C1.75 3.83934 3.83934 1.75 6.41667 1.75C8.994 1.75 11.0833 3.83934 11.0833 6.41667Z" stroke="currentColor" stroke-width="2" stroke-linecap="round" stroke-linejoin="round"/></symbol><symbol viewBox="0 0 14 14" fill="none" id="search-white"><path d="M12.25 12.25L9.71833 9.71833M11.0833 6.41667C11.0833 8.994 8.994 11.0833 6.41667 11.0833C3.83934 11.0833 1.75 8.994 1.75 6.41667C1.75 3.83934 3.83934 1.75 6.41667 1.75C8.994 1.75 11.0833 3.83934 11.0833 6.41667Z" stroke="currentColor" stroke-width="2" stroke-linecap="round" stroke-linejoin="round"/></symbol><symbol viewBox="0 0 30 30" fill="none" id="web"><path fill-rule="evenodd" clip-rule="evenodd" d="M15.5 28C22.4036 28 28 22.4036 28 15.5C28 8.59644 22.4036 3 15.5 3C8.59644 3 3 8.59644 3 15.5C3 22.4036 8.59644 28 15.5 28Z" stroke="currentColor" stroke-width="2" stroke-linecap="round" stroke-linejoin="round"/><path d="M3 16H28" stroke="currentColor" stroke-width="2" stroke-linecap="round" stroke-linejoin="round"/><path fill-rule="evenodd" clip-rule="evenodd" d="M16 3C19.1266 6.42294 20.9034 10.865 21 15.5C20.9034 20.135 19.1266 24.5771 16 28C12.8734 24.5771 11.0966 20.135 11 15.5C11.0966 10.865 12.8734 6.42294 16 3V3Z" stroke="currentColor" stroke-width="2" stroke-linecap="round" stroke-linejoin="round"/></symbol></svg>