<svg width="34" height="34" fill="none" xmlns="http://www.w3.org/2000/svg"><path d="M18.65.5A14.85 14.85 0 0 1 33.5 15.35M18.65 7.1a8.25 8.25 0 0 1 8.25 8.25m-6.877 9.187a1.65 1.65 0 0 0 2.001-.5l.586-.767a3.3 3.3 0 0 1 2.64-1.32h4.95a3.3 3.3 0 0 1 3.3 3.3v4.95a3.3 3.3 0 0 1-3.3 3.3A29.7 29.7 0 0 1 .5 3.8 3.3 3.3 0 0 1 3.8.5h4.95a3.3 3.3 0 0 1 3.3 3.3v4.95a3.3 3.3 0 0 1-1.32 2.64l-.772.58a1.65 1.65 0 0 0-.482 2.034 23.1 23.1 0 0 0 10.547 10.533Z" stroke="#2C3E50" stroke-linecap="round" stroke-linejoin="round" style="mix-blend-mode:exclusion"/></svg>