<svg width="45" height="45" fill="none" xmlns="http://www.w3.org/2000/svg"><path d="M5.788 21.396a7.46 7.46 0 0 1 .205-.099c1.168-.544 2.351-1.054 3.533-1.564.063 0 .17-.075.23-.099l.274-.118c.176-.076.352-.15.526-.227l1.052-.453c.701-.302 1.402-.603 2.103-.907l4.208-1.812c1.402-.604 2.805-1.21 4.207-1.813l4.208-1.812 4.208-1.813c.312-.135.65-.336.983-.395.281-.05.555-.147.837-.201.536-.103 1.127-.144 1.64.08.178.078.341.187.477.324.651.649.56 1.713.422 2.626-.96 6.358-1.919 12.718-2.88 19.076-.13.873-.31 1.83-.993 2.381-.58.467-1.402.519-2.117.321-.715-.2-1.345-.617-1.964-1.028l-7.695-5.13c-.61-.406-1.288-.937-1.281-1.674.003-.444.266-.84.535-1.192 2.229-2.927 5.445-4.94 7.837-7.732.337-.393.603-1.104.14-1.332-.276-.135-.593.05-.845.224-3.162 2.212-6.322 4.425-9.485 6.636-1.031.721-2.113 1.464-3.356 1.64-1.113.16-2.233-.152-3.31-.471a158.47 158.47 0 0 1-2.7-.824c-.477-.15-.97-.31-1.338-.649-.369-.338-.58-.907-.358-1.358.14-.282.41-.461.694-.607l.003.002Z" fill="#036"/></svg>