<svg width="842" height="170" viewBox="0 0 842 170" fill="none" xmlns="http://www.w3.org/2000/svg">
<g clip-path="url(#clip0_9010_189247)">
<g clip-path="url(#clip1_9010_189247)">
<path fill-rule="evenodd" clip-rule="evenodd" d="M803.101 114H811.527C813.837 114 815.727 115.999 815.727 118.491V123.019C815.727 125.511 813.837 127.51 811.527 127.51H790.441C789.815 127.51 789.397 127.533 788.85 127.389C788.215 127.219 787.641 126.723 787.361 125.841C787.323 125.582 787.369 125.254 787.469 124.908C787.57 124.56 787.721 124.215 787.871 123.944C791.059 118.211 796.472 114 803.101 114Z" fill="#E1FA3F"/>
<path fill-rule="evenodd" clip-rule="evenodd" d="M790.472 130.896H794.994C797.464 130.896 799.466 132.887 799.466 135.343V145.747C799.466 148.443 801.663 150.627 804.375 150.627H811.412C812.64 150.627 814.468 151.123 815.086 151.926C815.709 152.736 815.679 153.368 815.679 154.622L815.731 159.899C815.731 162.784 813.967 163.892 810.904 164H803.916C794.069 164.003 786.128 156.149 786 146.373V135.343C786 132.887 788.002 130.896 790.472 130.896Z" fill="#E1FA3F"/>
<path fill-rule="evenodd" clip-rule="evenodd" d="M820.538 114.67C821.35 114.671 822.225 114.779 822.871 114.845C826.675 115.404 828.544 116.833 831.271 119.313C835.815 123.448 836.027 130.245 835.998 135.94C835.927 136.563 835.661 137.004 835.348 137.319C834.491 138.181 833.429 138.207 832.277 138.267C829.895 138.39 826.366 138.252 825.357 138.132C823.534 137.917 822.027 137.319 820.891 136.369C820.81 136.302 820.732 136.233 820.655 136.162C819.915 135.479 819.344 134.626 818.966 133.607C818.594 132.605 818.62 132.057 818.596 131.013C818.542 128.577 818.554 126.145 818.547 123.686C818.546 123.291 818.522 122.595 818.496 121.769C818.471 120.939 818.443 119.973 818.434 119.031C818.426 118.088 818.436 117.172 818.485 116.444C818.546 115.554 818.447 114.977 819.427 114.766C819.749 114.696 820.131 114.67 820.538 114.67Z" fill="#E1FA3F"/>
<path fill-rule="evenodd" clip-rule="evenodd" d="M802.215 134.542C802.23 132.523 803.156 131.453 804.821 131.032C805.309 130.909 805.576 130.918 806.07 130.917L811.397 130.898C813.476 130.891 815.17 130.809 815.579 133.216C815.666 133.728 815.749 134.167 815.848 134.575C816.053 135.42 816.328 136.135 816.86 137.101C817.924 139.033 820.978 141.011 823.145 141.415C826.117 141.969 828.849 141.742 831.874 141.75C833.586 141.779 834.93 142.195 835.528 143.912C836.031 145.356 836.089 147.057 835.904 149.1C835.798 150.276 835.437 151.6 834.955 152.822C834.62 153.674 834.198 154.474 833.883 155.15C833.562 155.84 833.038 156.567 832.484 157.303C831.984 157.968 831.467 158.653 830.908 159.12C830.271 159.653 829.718 160.228 829.13 160.691C828.079 161.519 827.002 162.158 825.749 162.752C824.867 163.17 823.861 163.625 822.699 163.849C821.465 164.032 818.438 164.366 818.438 162.588L818.448 153.16C818.45 152.137 818.418 151.88 818.085 150.861C817.799 149.983 817.224 149.489 816.548 149.054C815.548 148.41 814.451 147.937 813.009 147.907L806.813 147.913C803.866 148.113 802.298 147.575 802.286 144.197L802.215 134.542Z" fill="#E1FA3F"/>
</g>
<path d="M842 82C842 95.2548 831.255 106 818 106H803C789.745 106 779 116.745 779 130V146C779 159.255 768.255 170 755 170H24C10.7452 170 0 159.255 0 146V24C0 10.7452 10.7452 0 24 0H818C831.255 0 842 10.7452 842 24V82Z" fill="#2C3E50"/>
<path d="M81.6367 106L89.1 106C90.6648 106 92.1655 106.615 93.2719 107.709C94.3784 108.803 95 110.286 95 111.833V170.167C95 171.714 94.3784 173.197 93.2719 174.291C92.1655 175.385 90.6648 176 89.1 176H41.9C40.3352 176 38.8345 175.385 37.7281 174.291C36.6216 173.197 36 171.714 36 170.167V111.833C36 110.286 36.6216 108.803 37.7281 107.709C38.8345 106.615 40.3352 106 41.9 106H50.75" stroke="#5E6B79" stroke-width="5" stroke-linecap="round" stroke-linejoin="round"/>
<path d="M76 100H58C54.6863 100 52 102.507 52 105.6V108.4C52 111.493 54.6863 114 58 114H76C79.3137 114 82 111.493 82 108.4V105.6C82 102.507 79.3137 100 76 100Z" stroke="#5E6B79" stroke-width="5" stroke-linecap="round" stroke-linejoin="round"/>
<path d="M50 147.375L62.4444 156L78 133" stroke="#5E6B79" stroke-width="5" stroke-linecap="round" stroke-linejoin="round"/>
</g>
<defs>
<clipPath id="clip0_9010_189247">
<rect width="842" height="170" fill="white"/>
</clipPath>
<clipPath id="clip1_9010_189247">
<rect x="786" y="114" width="50" height="50" rx="20" fill="white"/>
</clipPath>
</defs>
</svg>
