<svg width="1240" height="250" viewBox="0 0 1240 250" fill="none" xmlns="http://www.w3.org/2000/svg">
<g clip-path="url(#clip0_9010_186304)">
<path fill-rule="evenodd" clip-rule="evenodd" d="M1183.31 168H1195.78C1199.2 168 1202 170.958 1202 174.647V181.348C1202 185.037 1199.2 187.995 1195.78 187.995H1164.57C1163.65 187.995 1163.03 188.03 1162.22 187.815C1161.28 187.565 1160.43 186.831 1160.02 185.524C1159.96 185.142 1160.03 184.655 1160.18 184.145C1160.32 183.629 1160.55 183.119 1160.77 182.717C1165.49 174.232 1173.5 168 1183.31 168Z" fill="#E1FA3F"/>
<path fill-rule="evenodd" clip-rule="evenodd" d="M1164.62 193.008H1171.31C1174.97 193.008 1177.93 195.953 1177.93 199.589V214.987C1177.93 218.977 1181.18 222.21 1185.2 222.21H1195.61C1197.43 222.21 1200.13 222.943 1201.05 224.132C1201.97 225.331 1201.93 226.267 1201.93 228.122L1202 235.933C1202 240.202 1199.39 241.842 1194.86 242.001H1184.52C1169.94 242.007 1158.19 230.381 1158 215.914V199.589C1158 195.953 1160.96 193.008 1164.62 193.008Z" fill="#E1FA3F"/>
<path fill-rule="evenodd" clip-rule="evenodd" d="M1209.12 168.992C1210.32 168.993 1211.61 169.154 1212.57 169.251C1218.2 170.078 1220.97 172.193 1225 175.865C1231.73 181.983 1232.04 192.044 1232 200.472C1231.89 201.395 1231.5 202.047 1231.04 202.514C1229.77 203.789 1228.2 203.828 1226.49 203.916C1222.97 204.098 1217.74 203.894 1216.25 203.717C1213.55 203.398 1211.32 202.514 1209.64 201.108C1209.52 201.008 1209.4 200.906 1209.29 200.801C1208.2 199.789 1207.35 198.528 1206.79 197.019C1206.24 195.536 1206.28 194.725 1206.24 193.181C1206.16 189.575 1206.18 185.975 1206.17 182.336C1206.17 181.752 1206.13 180.722 1206.1 179.498C1206.06 178.271 1206.02 176.841 1206 175.446C1205.99 174.05 1206.01 172.696 1206.08 171.618C1206.17 170.301 1206.02 169.447 1207.47 169.134C1207.95 169.031 1208.51 168.992 1209.12 168.992Z" fill="#E1FA3F"/>
<path fill-rule="evenodd" clip-rule="evenodd" d="M1182 198.403C1182.02 195.416 1183.39 193.831 1185.85 193.209C1186.58 193.027 1186.97 193.04 1187.7 193.038L1195.59 193.011C1198.66 193 1201.17 192.878 1201.78 196.44C1201.9 197.198 1202.03 197.848 1202.17 198.452C1202.48 199.703 1202.88 200.761 1203.67 202.191C1205.25 205.05 1209.77 207.977 1212.97 208.575C1217.37 209.395 1221.42 209.059 1225.89 209.072C1228.43 209.114 1230.42 209.729 1231.3 212.271C1232.04 214.408 1232.13 216.926 1231.86 219.95C1231.7 221.69 1231.16 223.649 1230.45 225.458C1229.96 226.718 1229.33 227.902 1228.87 228.903C1228.39 229.924 1227.62 231 1226.8 232.091C1226.05 233.075 1225.29 234.088 1224.46 234.78C1223.52 235.567 1222.7 236.419 1221.83 237.105C1220.28 238.33 1218.68 239.276 1216.83 240.155C1215.52 240.774 1214.03 241.446 1212.31 241.778C1210.49 242.049 1206.01 242.543 1206.01 239.913L1206.02 225.959C1206.02 224.445 1205.98 224.063 1205.48 222.556C1205.06 221.256 1204.21 220.526 1203.21 219.881C1201.73 218.928 1200.11 218.228 1197.97 218.184L1188.8 218.192C1184.44 218.489 1182.12 217.693 1182.1 212.693L1182 198.403Z" fill="#E1FA3F"/>
<path d="M1240 120C1240 139.882 1223.88 156 1204 156H1183C1163.12 156 1147 172.118 1147 192V214C1147 233.882 1130.88 250 1111 250H36C16.1177 250 0 233.882 0 214V36C0 16.1177 16.1178 0 36 0H1204C1223.88 0 1240 16.1178 1240 36V120Z" fill="#2C3E50"/>
<path d="M138.466 241.518L144.652 238.964M144.652 223.613L138.466 221.053M155.536 212.755L152.969 206.584M155.536 249.822L152.969 256M170.924 212.755L173.49 206.584M173.484 256L170.924 249.822M56 251.347C56.0008 242.929 57.9931 234.63 61.8149 227.125C65.6367 219.62 71.1802 213.121 77.9944 208.157C84.8085 203.192 92.7011 199.902 101.03 198.554C109.359 197.206 117.889 197.839 125.927 200.4M181.807 223.613L188 221.053M181.807 238.964L188 241.525M143.124 164.43C143.124 182.892 128.122 197.859 109.615 197.859C91.1082 197.859 76.1056 182.892 76.1056 164.43C76.1056 145.967 91.1082 131 109.615 131C128.122 131 143.124 145.967 143.124 164.43ZM183.336 231.289C183.336 242.366 174.334 251.347 163.23 251.347C152.126 251.347 143.124 242.366 143.124 231.289C143.124 220.211 152.126 211.231 163.23 211.231C174.334 211.231 183.336 220.211 183.336 231.289Z" stroke="#5E6B79" stroke-width="6" stroke-linecap="round" stroke-linejoin="round"/>
</g>
<defs>
<clipPath id="clip0_9010_186304">
<rect width="1240" height="250" fill="white"/>
</clipPath>
</defs>
</svg>
