<svg width="390" height="325" viewBox="0 0 390 325" fill="none" xmlns="http://www.w3.org/2000/svg">
<g clip-path="url(#clip0_9010_185140)">
<path d="M390 230C390 243.255 379.255 254 366 254H349C335.745 254 325 264.745 325 278V301C325 314.255 314.255 325 301 325H24C10.7452 325 0 314.255 0 301V24C0 10.7452 10.7452 0 24 0H366C379.255 0 390 10.7452 390 24V230Z" fill="#2C3E50"/>
<g clip-path="url(#clip1_9010_185140)">
<path fill-rule="evenodd" clip-rule="evenodd" d="M357.102 275H365.528C367.838 275 369.728 276.999 369.728 279.491V284.019C369.728 286.511 367.838 288.51 365.528 288.51H344.442C343.816 288.51 343.397 288.533 342.851 288.389C342.216 288.219 341.642 287.723 341.362 286.841C341.324 286.582 341.37 286.254 341.47 285.908C341.571 285.56 341.722 285.215 341.872 284.944C345.06 279.211 350.473 275 357.102 275Z" fill="#E1FA3F"/>
<path fill-rule="evenodd" clip-rule="evenodd" d="M344.472 291.898H348.994C351.464 291.898 353.466 293.889 353.466 296.345V306.749C353.466 309.445 355.663 311.629 358.375 311.629H365.412C366.64 311.629 368.468 312.125 369.086 312.928C369.709 313.738 369.679 314.37 369.679 315.624L369.731 320.901C369.731 323.786 367.967 324.894 364.904 325.001H357.916C348.069 325.005 340.128 317.151 340 307.375V296.345C340 293.889 342.002 291.898 344.472 291.898Z" fill="#E1FA3F"/>
<path fill-rule="evenodd" clip-rule="evenodd" d="M374.538 275.668C375.35 275.669 376.225 275.777 376.871 275.843C380.675 276.402 382.544 277.831 385.271 280.311C389.815 284.446 390.027 291.243 389.998 296.938C389.927 297.561 389.661 298.002 389.348 298.317C388.491 299.179 387.429 299.205 386.277 299.265C383.895 299.388 380.366 299.25 379.357 299.13C377.534 298.915 376.027 298.317 374.891 297.367C374.81 297.3 374.732 297.231 374.655 297.16C373.915 296.477 373.344 295.624 372.966 294.605C372.594 293.603 372.62 293.055 372.596 292.011C372.542 289.575 372.554 287.143 372.547 284.684C372.546 284.289 372.522 283.593 372.496 282.767C372.471 281.937 372.443 280.971 372.434 280.029C372.426 279.086 372.436 278.17 372.485 277.442C372.546 276.552 372.447 275.975 373.427 275.764C373.749 275.694 374.131 275.668 374.538 275.668Z" fill="#E1FA3F"/>
<path fill-rule="evenodd" clip-rule="evenodd" d="M356.214 295.544C356.229 293.525 357.155 292.454 358.82 292.034C359.308 291.911 359.575 291.92 360.069 291.919L365.396 291.9C367.475 291.893 369.169 291.811 369.578 294.218C369.665 294.73 369.748 295.169 369.847 295.577C370.052 296.422 370.327 297.137 370.859 298.103C371.923 300.035 374.977 302.013 377.144 302.417C380.117 302.971 382.848 302.744 385.873 302.752C387.585 302.781 388.929 303.197 389.527 304.914C390.03 306.358 390.088 308.059 389.903 310.102C389.797 311.278 389.436 312.602 388.955 313.824C388.619 314.676 388.197 315.476 387.882 316.152C387.561 316.842 387.037 317.569 386.483 318.305C385.983 318.97 385.466 319.655 384.907 320.122C384.27 320.655 383.717 321.23 383.129 321.693C382.078 322.521 381.001 323.16 379.748 323.754C378.866 324.172 377.86 324.626 376.698 324.851C375.464 325.034 372.437 325.368 372.437 323.59L372.447 314.162C372.449 313.139 372.417 312.882 372.085 311.863C371.798 310.985 371.223 310.491 370.547 310.056C369.547 309.412 368.45 308.939 367.008 308.909L360.812 308.915C357.865 309.115 356.297 308.577 356.285 305.199L356.214 295.544Z" fill="#E1FA3F"/>
</g>
<path d="M49.4444 283.056H85.5556M49.4444 297.5H85.5556M49.4444 311.944H85.5556M42.2222 265H92.7778C96.7665 265 100 268.233 100 272.222V322.778C100 326.767 96.7665 330 92.7778 330H42.2222C38.2335 330 35 326.767 35 322.778V272.222C35 268.233 38.2335 265 42.2222 265Z" stroke="#5E6B79" stroke-width="5" stroke-linecap="round" stroke-linejoin="round"/>
</g>
<defs>
<clipPath id="clip0_9010_185140">
<rect width="390" height="325" fill="white"/>
</clipPath>
<clipPath id="clip1_9010_185140">
<rect x="340" y="275" width="50" height="50" rx="20" fill="white"/>
</clipPath>
</defs>
</svg>
