<svg width="390" height="325" viewBox="0 0 390 325" fill="none" xmlns="http://www.w3.org/2000/svg">
<g clip-path="url(#clip0_9010_186715)">
<path d="M390 230C390 243.255 379.255 254 366 254H349C335.745 254 325 264.745 325 278V301C325 314.255 314.255 325 301 325H24C10.7452 325 0 314.255 0 301V24C0 10.7452 10.7452 0 24 0H366C379.255 0 390 10.7452 390 24V230Z" fill="#2C3E50"/>
<g clip-path="url(#clip1_9010_186715)">
<path fill-rule="evenodd" clip-rule="evenodd" d="M357.101 275H365.527C367.837 275 369.727 276.999 369.727 279.491V284.019C369.727 286.511 367.837 288.51 365.527 288.51H344.441C343.815 288.51 343.397 288.533 342.85 288.389C342.215 288.219 341.641 287.723 341.361 286.841C341.323 286.582 341.369 286.254 341.469 285.908C341.57 285.56 341.721 285.215 341.871 284.944C345.059 279.211 350.472 275 357.101 275Z" fill="#E1FA3F"/>
<path fill-rule="evenodd" clip-rule="evenodd" d="M344.471 291.898H348.993C351.463 291.898 353.465 293.889 353.465 296.345V306.749C353.465 309.445 355.662 311.629 358.374 311.629H365.411C366.639 311.629 368.467 312.125 369.085 312.928C369.708 313.738 369.678 314.37 369.678 315.624L369.73 320.901C369.73 323.786 367.966 324.894 364.903 325.001H357.915C348.068 325.005 340.127 317.151 339.999 307.375V296.345C339.999 293.889 342.001 291.898 344.471 291.898Z" fill="#E1FA3F"/>
<path fill-rule="evenodd" clip-rule="evenodd" d="M374.537 275.668C375.349 275.669 376.224 275.777 376.87 275.843C380.674 276.402 382.543 277.831 385.27 280.311C389.814 284.446 390.026 291.243 389.997 296.938C389.926 297.561 389.66 298.002 389.347 298.317C388.49 299.179 387.428 299.205 386.276 299.265C383.894 299.388 380.365 299.25 379.356 299.13C377.533 298.915 376.026 298.317 374.89 297.367C374.809 297.3 374.731 297.231 374.654 297.16C373.914 296.477 373.343 295.624 372.965 294.605C372.593 293.603 372.619 293.055 372.595 292.011C372.541 289.575 372.553 287.143 372.546 284.684C372.545 284.289 372.521 283.593 372.495 282.767C372.47 281.937 372.442 280.971 372.433 280.029C372.425 279.086 372.435 278.17 372.484 277.442C372.545 276.552 372.446 275.975 373.426 275.764C373.748 275.694 374.13 275.668 374.537 275.668Z" fill="#E1FA3F"/>
<path fill-rule="evenodd" clip-rule="evenodd" d="M356.213 295.544C356.228 293.525 357.154 292.454 358.819 292.034C359.307 291.911 359.574 291.92 360.068 291.919L365.395 291.9C367.474 291.893 369.168 291.811 369.577 294.218C369.664 294.73 369.747 295.169 369.846 295.577C370.051 296.422 370.326 297.137 370.858 298.103C371.922 300.035 374.976 302.013 377.143 302.417C380.116 302.971 382.847 302.744 385.872 302.752C387.584 302.781 388.928 303.197 389.526 304.914C390.029 306.358 390.087 308.059 389.902 310.102C389.796 311.278 389.435 312.602 388.954 313.824C388.618 314.676 388.196 315.476 387.881 316.152C387.56 316.842 387.036 317.569 386.482 318.305C385.982 318.97 385.465 319.655 384.906 320.122C384.269 320.655 383.716 321.23 383.128 321.693C382.077 322.521 381 323.16 379.747 323.754C378.865 324.172 377.859 324.626 376.697 324.851C375.463 325.034 372.436 325.368 372.436 323.59L372.446 314.162C372.448 313.139 372.416 312.882 372.084 311.863C371.797 310.985 371.222 310.491 370.546 310.056C369.546 309.412 368.449 308.939 367.007 308.909L360.811 308.915C357.864 309.115 356.296 308.577 356.284 305.199L356.213 295.544Z" fill="#E1FA3F"/>
</g>
<g clip-path="url(#clip2_9010_186715)">
<path d="M74 278C78.9706 278 83 273.971 83 269C83 264.029 78.9706 260 74 260C69.0294 260 65 264.029 65 269C65 273.971 69.0294 278 74 278Z" stroke="#5E6B79" stroke-width="5" stroke-linecap="round" stroke-linejoin="round"/>
<path d="M43 330C47.9706 330 52 325.971 52 321C52 316.029 47.9706 312 43 312C38.0294 312 34 316.029 34 321C34 325.971 38.0294 330 43 330Z" stroke="#5E6B79" stroke-width="5" stroke-linecap="round" stroke-linejoin="round"/>
<path d="M74 330C78.9706 330 83 325.971 83 321C83 316.029 78.9706 312 74 312C69.0294 312 65 316.029 65 321C65 325.971 69.0294 330 74 330Z" stroke="#5E6B79" stroke-width="5" stroke-linecap="round" stroke-linejoin="round"/>
<path d="M103 330C107.971 330 112 325.971 112 321C112 316.029 107.971 312 103 312C98.0294 312 94 316.029 94 321C94 325.971 98.0294 330 103 330Z" stroke="#5E6B79" stroke-width="5" stroke-linecap="round" stroke-linejoin="round"/>
<path d="M43 311V300.333C43 298.919 43.6321 297.562 44.7574 296.562C45.8826 295.562 47.4087 295 49 295H97C98.5913 295 100.117 295.562 101.243 296.562C102.368 297.562 103 298.919 103 300.333V311" stroke="#5E6B79" stroke-width="5" stroke-linecap="round" stroke-linejoin="round"/>
<path d="M74 279L74 311" stroke="#5E6B79" stroke-width="5" stroke-linecap="round" stroke-linejoin="round"/>
</g>
</g>
<defs>
<clipPath id="clip0_9010_186715">
<rect width="390" height="325" fill="white"/>
</clipPath>
<clipPath id="clip1_9010_186715">
<rect x="340" y="275" width="50" height="50" rx="20" fill="white"/>
</clipPath>
<clipPath id="clip2_9010_186715">
<rect width="83" height="83" fill="white" transform="translate(31 255)"/>
</clipPath>
</defs>
</svg>
