<svg width="390" height="325" viewBox="0 0 390 325" fill="none" xmlns="http://www.w3.org/2000/svg">
<g clip-path="url(#clip0_9010_185391)">
<path d="M390 230C390 243.255 379.255 254 366 254H349C335.745 254 325 264.745 325 278V301C325 314.255 314.255 325 301 325H24C10.7452 325 0 314.255 0 301V24C0 10.7452 10.7452 0 24 0H366C379.255 0 390 10.7452 390 24V230Z" fill="#2C3E50"/>
<g clip-path="url(#clip1_9010_185391)">
<path fill-rule="evenodd" clip-rule="evenodd" d="M357.101 275H365.527C367.837 275 369.727 276.999 369.727 279.491V284.019C369.727 286.511 367.837 288.51 365.527 288.51H344.441C343.815 288.51 343.397 288.533 342.85 288.389C342.215 288.219 341.641 287.723 341.361 286.841C341.323 286.582 341.369 286.254 341.469 285.908C341.57 285.56 341.721 285.215 341.871 284.944C345.059 279.211 350.472 275 357.101 275Z" fill="#E1FA3F"/>
<path fill-rule="evenodd" clip-rule="evenodd" d="M344.471 291.896H348.993C351.463 291.896 353.465 293.887 353.465 296.343V306.747C353.465 309.443 355.662 311.627 358.374 311.627H365.411C366.639 311.627 368.467 312.123 369.085 312.926C369.708 313.736 369.678 314.368 369.678 315.622L369.73 320.899C369.73 323.784 367.966 324.892 364.903 325H357.915C348.068 325.003 340.127 317.149 339.999 307.373V296.343C339.999 293.887 342.001 291.896 344.471 291.896Z" fill="#E1FA3F"/>
<path fill-rule="evenodd" clip-rule="evenodd" d="M374.537 275.67C375.349 275.671 376.224 275.779 376.87 275.845C380.674 276.404 382.543 277.833 385.27 280.313C389.814 284.448 390.026 291.245 389.997 296.94C389.926 297.563 389.66 298.004 389.347 298.319C388.49 299.181 387.428 299.207 386.276 299.267C383.894 299.39 380.365 299.252 379.356 299.132C377.533 298.917 376.026 298.319 374.89 297.369C374.809 297.302 374.731 297.233 374.654 297.162C373.914 296.479 373.343 295.626 372.965 294.607C372.593 293.605 372.619 293.057 372.595 292.013C372.541 289.577 372.553 287.145 372.546 284.686C372.545 284.291 372.521 283.595 372.495 282.769C372.47 281.939 372.442 280.973 372.433 280.031C372.425 279.088 372.435 278.172 372.484 277.444C372.545 276.554 372.446 275.977 373.426 275.766C373.748 275.696 374.13 275.67 374.537 275.67Z" fill="#E1FA3F"/>
<path fill-rule="evenodd" clip-rule="evenodd" d="M356.213 295.542C356.228 293.523 357.154 292.453 358.819 292.032C359.307 291.909 359.574 291.918 360.068 291.917L365.395 291.898C367.474 291.891 369.168 291.809 369.577 294.216C369.664 294.728 369.747 295.167 369.846 295.575C370.051 296.42 370.326 297.135 370.858 298.101C371.922 300.033 374.976 302.011 377.143 302.415C380.116 302.969 382.847 302.742 385.872 302.75C387.584 302.779 388.928 303.195 389.526 304.912C390.029 306.356 390.087 308.057 389.902 310.1C389.796 311.276 389.435 312.6 388.954 313.822C388.618 314.674 388.196 315.474 387.881 316.15C387.56 316.84 387.036 317.567 386.482 318.303C385.982 318.968 385.465 319.653 384.906 320.12C384.269 320.653 383.716 321.228 383.128 321.691C382.077 322.519 381 323.158 379.747 323.752C378.865 324.17 377.859 324.625 376.697 324.849C375.463 325.032 372.436 325.366 372.436 323.588L372.446 314.16C372.448 313.137 372.416 312.88 372.084 311.861C371.797 310.983 371.222 310.489 370.546 310.054C369.546 309.41 368.449 308.937 367.007 308.907L360.811 308.913C357.864 309.113 356.296 308.575 356.284 305.197L356.213 295.542Z" fill="#E1FA3F"/>
</g>
<g clip-path="url(#clip2_9010_185391)">
<path d="M116.231 273H41.7692C38.0307 273 35 275.935 35 279.556V325.444C35 329.065 38.0307 332 41.7692 332H116.231C119.969 332 123 329.065 123 325.444V279.556C123 275.935 119.969 273 116.231 273Z" stroke="#5E6B79" stroke-width="5" stroke-linecap="round" stroke-linejoin="round"/>
<path d="M35 299H123" stroke="#5E6B79" stroke-width="5" stroke-linecap="round" stroke-linejoin="round"/>
<path d="M80 293V307" stroke="#5E6B79" stroke-width="5" stroke-linecap="round" stroke-linejoin="round"/>
<path d="M101 273C101 267.43 98.8402 262.089 94.9957 258.151C91.1512 254.212 85.9369 252 80.5 252V252C75.0631 252 69.8488 254.212 66.0043 258.151C62.1598 262.089 60 267.43 60 273" stroke="#5E6B79" stroke-width="5" stroke-linecap="round" stroke-linejoin="round"/>
</g>
</g>
<defs>
<clipPath id="clip0_9010_185391">
<rect width="390" height="325" fill="white"/>
</clipPath>
<clipPath id="clip1_9010_185391">
<rect x="340" y="275" width="50" height="50" rx="20" fill="white"/>
</clipPath>
<clipPath id="clip2_9010_185391">
<rect width="94" height="94" fill="white" transform="translate(31 242)"/>
</clipPath>
</defs>
</svg>
