<svg width="390" height="325" viewBox="0 0 390 325" fill="none" xmlns="http://www.w3.org/2000/svg">
<g clip-path="url(#clip0_9010_184545)">
<path d="M390 230C390 243.255 379.255 254 366 254H349C335.745 254 325 264.745 325 278V301C325 314.255 314.255 325 301 325H24C10.7452 325 0 314.255 0 301V24C0 10.7452 10.7452 0 24 0H366C379.255 0 390 10.7452 390 24V230Z" fill="#2C3E50"/>
<g clip-path="url(#clip1_9010_184545)">
<path fill-rule="evenodd" clip-rule="evenodd" d="M349.101 264H357.527C359.837 264 361.727 265.999 361.727 268.491V273.019C361.727 275.511 359.837 277.51 357.527 277.51H336.441C335.815 277.51 335.397 277.533 334.85 277.389C334.215 277.219 333.641 276.723 333.361 275.841C333.323 275.582 333.369 275.254 333.469 274.908C333.57 274.56 333.721 274.215 333.871 273.944C337.059 268.211 342.472 264 349.101 264Z" fill="#E1FA3F"/>
<path fill-rule="evenodd" clip-rule="evenodd" d="M336.472 280.898H340.994C343.464 280.898 345.466 282.889 345.466 285.345V295.749C345.466 298.445 347.663 300.629 350.375 300.629H357.412C358.64 300.629 360.468 301.125 361.086 301.928C361.709 302.738 361.679 303.37 361.679 304.624L361.731 309.901C361.731 312.786 359.967 313.894 356.904 314.001H349.916C340.069 314.005 332.128 306.151 332 296.375V285.345C332 282.889 334.002 280.898 336.472 280.898Z" fill="#E1FA3F"/>
<path fill-rule="evenodd" clip-rule="evenodd" d="M366.538 264.672C367.35 264.673 368.225 264.781 368.871 264.847C372.675 265.406 374.544 266.835 377.271 269.315C381.815 273.45 382.027 280.247 381.998 285.942C381.927 286.565 381.661 287.006 381.348 287.321C380.491 288.183 379.429 288.209 378.277 288.269C375.895 288.392 372.366 288.254 371.357 288.134C369.534 287.918 368.027 287.321 366.891 286.371C366.81 286.304 366.732 286.235 366.655 286.164C365.915 285.481 365.344 284.628 364.966 283.609C364.594 282.607 364.62 282.058 364.596 281.015C364.542 278.579 364.554 276.147 364.547 273.688C364.546 273.293 364.522 272.597 364.496 271.771C364.471 270.941 364.443 269.975 364.434 269.033C364.426 268.09 364.436 267.174 364.485 266.446C364.546 265.556 364.447 264.979 365.427 264.768C365.749 264.698 366.131 264.671 366.538 264.672Z" fill="#E1FA3F"/>
<path fill-rule="evenodd" clip-rule="evenodd" d="M348.215 284.544C348.23 282.525 349.156 281.454 350.821 281.034C351.309 280.911 351.576 280.92 352.07 280.919L357.397 280.9C359.476 280.893 361.17 280.811 361.579 283.218C361.666 283.73 361.749 284.169 361.848 284.577C362.053 285.422 362.328 286.137 362.86 287.103C363.924 289.035 366.978 291.013 369.145 291.417C372.117 291.971 374.849 291.744 377.874 291.752C379.586 291.781 380.93 292.197 381.528 293.914C382.031 295.358 382.089 297.059 381.904 299.102C381.798 300.278 381.437 301.602 380.955 302.824C380.62 303.676 380.198 304.476 379.883 305.152C379.562 305.842 379.038 306.569 378.484 307.305C377.984 307.97 377.467 308.655 376.908 309.122C376.271 309.655 375.718 310.23 375.13 310.693C374.079 311.521 373.002 312.16 371.749 312.754C370.867 313.172 369.861 313.626 368.699 313.851C367.465 314.034 364.438 314.368 364.438 312.59L364.448 303.162C364.45 302.139 364.418 301.882 364.085 300.863C363.799 299.985 363.224 299.491 362.548 299.056C361.548 298.412 360.451 297.939 359.009 297.909L352.813 297.915C349.866 298.115 348.298 297.577 348.286 294.199L348.215 284.544Z" fill="#E1FA3F"/>
</g>
<path opacity="0.5" d="M60.7389 299.464L87.3 315.186M87.2611 271.815L60.7389 287.535M109 265.85C109 272.395 103.777 277.7 97.3333 277.7C90.89 277.7 85.6667 272.395 85.6667 265.85C85.6667 259.305 90.89 254 97.3333 254C103.777 254 109 259.305 109 265.85ZM62.3333 293.5C62.3333 300.045 57.11 305.35 50.6667 305.35C44.2233 305.35 39 300.045 39 293.5C39 286.955 44.2233 281.65 50.6667 281.65C57.11 281.65 62.3333 286.955 62.3333 293.5ZM109 321.15C109 327.695 103.777 333 97.3333 333C90.89 333 85.6667 327.695 85.6667 321.15C85.6667 314.605 90.89 309.3 97.3333 309.3C103.777 309.3 109 314.605 109 321.15Z" stroke="#5E6B79" stroke-width="5" stroke-linecap="round" stroke-linejoin="round"/>
</g>
<defs>
<clipPath id="clip0_9010_184545">
<rect width="390" height="325" fill="white"/>
</clipPath>
<clipPath id="clip1_9010_184545">
<rect x="332" y="264" width="50" height="50" rx="20" fill="white"/>
</clipPath>
</defs>
</svg>
