<svg width="390" height="325" viewBox="0 0 390 325" fill="none" xmlns="http://www.w3.org/2000/svg">
<g clip-path="url(#clip0_9010_184348)">
<path d="M390 230C390 243.255 379.255 254 366 254H349C335.745 254 325 264.745 325 278V301C325 314.255 314.255 325 301 325H24C10.7452 325 0 314.255 0 301V24C0 10.7452 10.7452 0 24 0H366C379.255 0 390 10.7452 390 24V230Z" fill="#2C3E50"/>
<g clip-path="url(#clip1_9010_184348)">
<path fill-rule="evenodd" clip-rule="evenodd" d="M349.101 264H357.527C359.837 264 361.727 265.999 361.727 268.491V273.019C361.727 275.511 359.837 277.51 357.527 277.51H336.441C335.815 277.51 335.397 277.533 334.85 277.389C334.215 277.219 333.641 276.723 333.361 275.841C333.323 275.582 333.369 275.254 333.469 274.908C333.57 274.56 333.721 274.215 333.871 273.944C337.059 268.211 342.472 264 349.101 264Z" fill="#E1FA3F"/>
<path fill-rule="evenodd" clip-rule="evenodd" d="M336.471 280.898H340.993C343.463 280.898 345.465 282.889 345.465 285.345V295.749C345.465 298.445 347.662 300.629 350.374 300.629H357.411C358.639 300.629 360.467 301.125 361.085 301.928C361.708 302.738 361.678 303.37 361.678 304.624L361.73 309.901C361.73 312.786 359.966 313.894 356.903 314.001H349.915C340.068 314.005 332.127 306.151 331.999 296.375V285.345C331.999 282.889 334.001 280.898 336.471 280.898Z" fill="#E1FA3F"/>
<path fill-rule="evenodd" clip-rule="evenodd" d="M366.537 264.668C367.349 264.669 368.224 264.777 368.87 264.843C372.674 265.402 374.543 266.831 377.27 269.311C381.814 273.446 382.026 280.243 381.997 285.938C381.926 286.561 381.66 287.002 381.347 287.317C380.49 288.179 379.428 288.205 378.276 288.265C375.894 288.388 372.365 288.25 371.356 288.13C369.533 287.915 368.026 287.317 366.89 286.367C366.809 286.3 366.731 286.231 366.654 286.16C365.914 285.477 365.343 284.624 364.965 283.605C364.593 282.603 364.619 282.055 364.595 281.011C364.541 278.575 364.553 276.143 364.546 273.684C364.545 273.289 364.521 272.593 364.495 271.767C364.47 270.937 364.442 269.971 364.433 269.029C364.425 268.086 364.435 267.17 364.484 266.442C364.545 265.552 364.446 264.975 365.426 264.764C365.748 264.694 366.13 264.668 366.537 264.668Z" fill="#E1FA3F"/>
<path fill-rule="evenodd" clip-rule="evenodd" d="M348.213 284.544C348.228 282.525 349.154 281.454 350.819 281.034C351.307 280.911 351.574 280.92 352.068 280.919L357.395 280.9C359.474 280.893 361.168 280.811 361.577 283.218C361.664 283.73 361.747 284.169 361.846 284.577C362.051 285.422 362.326 286.137 362.858 287.103C363.922 289.035 366.976 291.013 369.143 291.417C372.116 291.971 374.847 291.744 377.872 291.752C379.584 291.781 380.928 292.197 381.526 293.914C382.029 295.358 382.087 297.059 381.902 299.102C381.796 300.278 381.435 301.602 380.954 302.824C380.618 303.676 380.196 304.476 379.881 305.152C379.56 305.842 379.036 306.569 378.482 307.305C377.982 307.97 377.465 308.655 376.906 309.122C376.269 309.655 375.716 310.23 375.128 310.693C374.077 311.521 373 312.16 371.747 312.754C370.865 313.172 369.859 313.626 368.697 313.851C367.463 314.034 364.436 314.368 364.436 312.59L364.446 303.162C364.448 302.139 364.416 301.882 364.084 300.863C363.797 299.985 363.222 299.491 362.546 299.056C361.546 298.412 360.449 297.939 359.007 297.909L352.811 297.915C349.864 298.115 348.296 297.577 348.284 294.199L348.213 284.544Z" fill="#E1FA3F"/>
</g>
<path d="M110 310.667V335.667C110 337.877 109.122 339.996 107.559 341.559C105.996 343.122 103.877 344 101.667 344H43.3333C41.1232 344 39.0036 343.122 37.4408 341.559C35.878 339.996 35 337.877 35 335.667V277.333C35 275.123 35.878 273.004 37.4408 271.441C39.0036 269.878 41.1232 269 43.3333 269H68.3333M110 269L72.5 306.5M110 269H85M110 269V294" stroke="#5E6B79" stroke-width="5" stroke-linecap="round" stroke-linejoin="round"/>
</g>
<defs>
<clipPath id="clip0_9010_184348">
<rect width="390" height="325" fill="white"/>
</clipPath>
<clipPath id="clip1_9010_184348">
<rect x="332" y="264" width="50" height="50" rx="20" fill="white"/>
</clipPath>
</defs>
</svg>
