<svg width="842" height="170" viewBox="0 0 842 170" fill="none" xmlns="http://www.w3.org/2000/svg">
<g clip-path="url(#clip0_9010_183498)">
<path fill-rule="evenodd" clip-rule="evenodd" d="M809.102 120H817.528C819.838 120 821.728 121.999 821.728 124.491V129.019C821.728 131.511 819.838 133.51 817.528 133.51H796.442C795.816 133.51 795.397 133.533 794.851 133.389C794.216 133.219 793.642 132.723 793.362 131.841C793.324 131.582 793.37 131.254 793.47 130.908C793.571 130.56 793.722 130.215 793.872 129.944C797.06 124.211 802.473 120 809.102 120Z" fill="#E1FA3F"/>
<path fill-rule="evenodd" clip-rule="evenodd" d="M796.472 136.898H800.994C803.464 136.898 805.466 138.889 805.466 141.345V151.749C805.466 154.445 807.663 156.629 810.375 156.629H817.412C818.64 156.629 820.468 157.125 821.086 157.928C821.709 158.738 821.679 159.37 821.679 160.624L821.731 165.901C821.731 168.786 819.967 169.894 816.904 170.001H809.916C800.069 170.005 792.128 162.151 792 152.375V141.345C792 138.889 794.002 136.898 796.472 136.898Z" fill="#E1FA3F"/>
<path fill-rule="evenodd" clip-rule="evenodd" d="M826.538 120.668C827.35 120.669 828.225 120.777 828.871 120.843C832.675 121.402 834.544 122.831 837.271 125.311C841.815 129.446 842.027 136.243 841.998 141.938C841.927 142.561 841.661 143.002 841.348 143.317C840.491 144.179 839.429 144.205 838.277 144.265C835.895 144.388 832.366 144.25 831.357 144.13C829.534 143.915 828.027 143.317 826.891 142.367C826.81 142.3 826.732 142.231 826.655 142.16C825.915 141.477 825.344 140.624 824.966 139.605C824.594 138.603 824.62 138.055 824.596 137.011C824.542 134.575 824.554 132.143 824.547 129.684C824.546 129.289 824.522 128.593 824.496 127.767C824.471 126.937 824.443 125.971 824.434 125.029C824.426 124.086 824.436 123.17 824.485 122.442C824.546 121.552 824.447 120.975 825.427 120.764C825.749 120.694 826.131 120.668 826.538 120.668Z" fill="#E1FA3F"/>
<path fill-rule="evenodd" clip-rule="evenodd" d="M808.214 140.544C808.229 138.525 809.155 137.454 810.82 137.034C811.308 136.911 811.575 136.92 812.069 136.919L817.396 136.9C819.475 136.893 821.169 136.811 821.578 139.218C821.665 139.73 821.748 140.169 821.847 140.577C822.052 141.422 822.327 142.137 822.859 143.103C823.923 145.035 826.977 147.013 829.144 147.417C832.117 147.971 834.848 147.744 837.873 147.752C839.585 147.781 840.929 148.197 841.527 149.914C842.03 151.358 842.088 153.059 841.903 155.102C841.797 156.278 841.436 157.602 840.955 158.824C840.619 159.676 840.197 160.476 839.882 161.152C839.561 161.842 839.037 162.569 838.483 163.305C837.983 163.97 837.466 164.655 836.907 165.122C836.27 165.655 835.717 166.23 835.129 166.693C834.078 167.521 833.001 168.16 831.748 168.754C830.866 169.172 829.86 169.626 828.698 169.851C827.464 170.034 824.437 170.368 824.437 168.59L824.447 159.162C824.449 158.139 824.417 157.882 824.085 156.863C823.798 155.985 823.223 155.491 822.547 155.056C821.547 154.412 820.45 153.939 819.008 153.909L812.812 153.915C809.865 154.115 808.297 153.577 808.285 150.199L808.214 140.544Z" fill="#E1FA3F"/>
<path d="M842 82C842 95.2548 831.255 106 818 106H803C789.745 106 779 116.745 779 130V146C779 159.255 768.255 170 755 170H24C10.7452 170 0 159.255 0 146V24C0 10.7452 10.7452 0 24 0H818C831.255 0 842 10.7452 842 24V82Z" fill="#2C3E50"/>
<path d="M110 156.667V181.667C110 183.877 109.122 185.996 107.559 187.559C105.996 189.122 103.877 190 101.667 190H43.3333C41.1232 190 39.0036 189.122 37.4408 187.559C35.878 185.996 35 183.877 35 181.667V123.333C35 121.123 35.878 119.004 37.4408 117.441C39.0036 115.878 41.1232 115 43.3333 115H68.3333M110 115L72.5 152.5M110 115H85M110 115V140" stroke="#5E6B79" stroke-width="5" stroke-linecap="round" stroke-linejoin="round"/>
</g>
<defs>
<clipPath id="clip0_9010_183498">
<rect width="842" height="170" fill="white"/>
</clipPath>
</defs>
</svg>
