<svg width="390" height="325" viewBox="0 0 390 325" fill="none" xmlns="http://www.w3.org/2000/svg">
<g clip-path="url(#clip0_9010_187760)">
<path d="M390 230C390 243.255 379.255 254 366 254H349C335.745 254 325 264.745 325 278V301C325 314.255 314.255 325 301 325H24C10.7452 325 0 314.255 0 301V24C0 10.7452 10.7452 0 24 0H366C379.255 0 390 10.7452 390 24V230Z" fill="#2C3E50"/>
<g clip-path="url(#clip1_9010_187760)">
<path fill-rule="evenodd" clip-rule="evenodd" d="M357.101 275H365.527C367.837 275 369.727 276.999 369.727 279.491V284.019C369.727 286.511 367.837 288.51 365.527 288.51H344.441C343.815 288.51 343.397 288.533 342.85 288.389C342.215 288.219 341.641 287.723 341.361 286.841C341.323 286.582 341.369 286.254 341.469 285.908C341.57 285.56 341.721 285.215 341.871 284.944C345.059 279.211 350.472 275 357.101 275Z" fill="#E1FA3F"/>
<path fill-rule="evenodd" clip-rule="evenodd" d="M344.471 291.898H348.993C351.463 291.898 353.465 293.889 353.465 296.345V306.749C353.465 309.445 355.662 311.629 358.374 311.629H365.411C366.639 311.629 368.467 312.125 369.085 312.928C369.708 313.738 369.678 314.37 369.678 315.624L369.73 320.901C369.73 323.786 367.966 324.894 364.903 325.001H357.915C348.068 325.005 340.127 317.151 339.999 307.375V296.345C339.999 293.889 342.001 291.898 344.471 291.898Z" fill="#E1FA3F"/>
<path fill-rule="evenodd" clip-rule="evenodd" d="M374.537 275.668C375.349 275.669 376.224 275.777 376.87 275.843C380.674 276.402 382.543 277.831 385.27 280.311C389.814 284.446 390.026 291.243 389.997 296.938C389.926 297.561 389.66 298.002 389.347 298.317C388.49 299.179 387.428 299.205 386.276 299.265C383.894 299.388 380.365 299.25 379.356 299.13C377.533 298.915 376.026 298.317 374.89 297.367C374.809 297.3 374.731 297.231 374.654 297.16C373.914 296.477 373.343 295.624 372.965 294.605C372.593 293.603 372.619 293.055 372.595 292.011C372.541 289.575 372.553 287.143 372.546 284.684C372.545 284.289 372.521 283.593 372.495 282.767C372.47 281.937 372.442 280.971 372.433 280.029C372.425 279.086 372.435 278.17 372.484 277.442C372.545 276.552 372.446 275.975 373.426 275.764C373.748 275.694 374.13 275.668 374.537 275.668Z" fill="#E1FA3F"/>
<path fill-rule="evenodd" clip-rule="evenodd" d="M356.213 295.544C356.228 293.525 357.154 292.454 358.819 292.034C359.307 291.911 359.574 291.92 360.068 291.919L365.395 291.9C367.474 291.893 369.168 291.811 369.577 294.218C369.664 294.73 369.747 295.169 369.846 295.577C370.051 296.422 370.326 297.137 370.858 298.103C371.922 300.035 374.976 302.013 377.143 302.417C380.116 302.971 382.847 302.744 385.872 302.752C387.584 302.781 388.928 303.197 389.526 304.914C390.029 306.358 390.087 308.059 389.902 310.102C389.796 311.278 389.435 312.602 388.954 313.824C388.618 314.676 388.196 315.476 387.881 316.152C387.56 316.842 387.036 317.569 386.482 318.305C385.982 318.97 385.465 319.655 384.906 320.122C384.269 320.655 383.716 321.23 383.128 321.693C382.077 322.521 381 323.16 379.747 323.754C378.865 324.172 377.859 324.626 376.697 324.851C375.463 325.034 372.436 325.368 372.436 323.59L372.446 314.162C372.448 313.139 372.416 312.882 372.084 311.863C371.797 310.985 371.222 310.491 370.546 310.056C369.546 309.412 368.449 308.939 367.007 308.909L360.811 308.915C357.864 309.115 356.296 308.577 356.284 305.199L356.213 295.544Z" fill="#E1FA3F"/>
</g>
<path d="M111.7 275.056C113.901 275.056 116.012 275.931 117.569 277.487C119.126 279.044 120 281.156 120 283.358V326.053C120 326.636 119.827 327.206 119.503 327.69C119.18 328.175 118.719 328.553 118.181 328.776C117.643 328.999 117.05 329.057 116.479 328.943C115.907 328.83 115.382 328.549 114.97 328.137L105.832 318.997C104.276 317.44 102.165 316.565 99.9638 316.564H70.2C67.9987 316.564 65.8876 315.69 64.331 314.133C62.7745 312.576 61.9 310.464 61.9 308.263V304.112M95.1 279.207C95.1 281.409 94.2255 283.52 92.669 285.077C91.1124 286.634 89.0013 287.508 86.8 287.508H57.0362C54.8351 287.509 52.7243 288.384 51.1681 289.941L42.0298 299.081C41.6177 299.493 41.0927 299.774 40.5212 299.887C39.9497 300.001 39.3573 299.943 38.819 299.72C38.2806 299.497 37.8205 299.119 37.4967 298.634C37.1729 298.15 37.0001 297.58 37 296.997V254.302C37 252.1 37.8745 249.988 39.431 248.432C40.9876 246.875 43.0987 246 45.3 246H86.8C89.0013 246 91.1124 246.875 92.669 248.432C94.2255 249.988 95.1 252.1 95.1 254.302V279.207Z" stroke="#5E6B79" stroke-width="5" stroke-linecap="round" stroke-linejoin="round"/>
</g>
<defs>
<clipPath id="clip0_9010_187760">
<rect width="390" height="325" fill="white"/>
</clipPath>
<clipPath id="clip1_9010_187760">
<rect x="340" y="275" width="50" height="50" rx="20" fill="white"/>
</clipPath>
</defs>
</svg>
