<svg width="390" height="325" viewBox="0 0 390 325" fill="none" xmlns="http://www.w3.org/2000/svg">
<g clip-path="url(#clip0_9010_187651)">
<path d="M390 230C390 243.255 379.255 254 366 254H349C335.745 254 325 264.745 325 278V301C325 314.255 314.255 325 301 325H24C10.7452 325 0 314.255 0 301V24C0 10.7452 10.7452 0 24 0H366C379.255 0 390 10.7452 390 24V230Z" fill="#2C3E50"/>
<g clip-path="url(#clip1_9010_187651)">
<path fill-rule="evenodd" clip-rule="evenodd" d="M349.101 264H357.527C359.837 264 361.727 265.999 361.727 268.491V273.019C361.727 275.511 359.837 277.51 357.527 277.51H336.441C335.815 277.51 335.397 277.533 334.85 277.389C334.215 277.219 333.641 276.723 333.361 275.841C333.323 275.582 333.369 275.254 333.469 274.908C333.57 274.56 333.721 274.215 333.871 273.944C337.059 268.211 342.472 264 349.101 264Z" fill="#E1FA3F"/>
<path fill-rule="evenodd" clip-rule="evenodd" d="M336.472 280.898H340.994C343.464 280.898 345.466 282.889 345.466 285.345V295.749C345.466 298.445 347.663 300.629 350.375 300.629H357.412C358.64 300.629 360.468 301.125 361.086 301.928C361.709 302.738 361.679 303.37 361.679 304.624L361.731 309.901C361.731 312.786 359.967 313.894 356.904 314.001H349.916C340.069 314.005 332.128 306.151 332 296.375V285.345C332 282.889 334.002 280.898 336.472 280.898Z" fill="#E1FA3F"/>
<path fill-rule="evenodd" clip-rule="evenodd" d="M366.538 264.668C367.35 264.669 368.225 264.777 368.871 264.843C372.675 265.402 374.544 266.831 377.271 269.311C381.815 273.446 382.027 280.243 381.998 285.938C381.927 286.561 381.661 287.002 381.348 287.317C380.491 288.179 379.429 288.205 378.277 288.265C375.895 288.388 372.366 288.25 371.357 288.13C369.534 287.915 368.027 287.317 366.891 286.367C366.81 286.3 366.732 286.231 366.655 286.16C365.915 285.477 365.344 284.624 364.966 283.605C364.594 282.603 364.62 282.055 364.596 281.011C364.542 278.575 364.554 276.143 364.547 273.684C364.546 273.289 364.522 272.593 364.496 271.767C364.471 270.937 364.443 269.971 364.434 269.029C364.426 268.086 364.436 267.17 364.485 266.442C364.546 265.552 364.447 264.975 365.427 264.764C365.749 264.694 366.131 264.668 366.538 264.668Z" fill="#E1FA3F"/>
<path fill-rule="evenodd" clip-rule="evenodd" d="M348.213 284.544C348.228 282.525 349.154 281.454 350.819 281.034C351.307 280.911 351.574 280.92 352.068 280.919L357.395 280.9C359.474 280.893 361.168 280.811 361.577 283.218C361.664 283.73 361.747 284.169 361.846 284.577C362.051 285.422 362.326 286.137 362.858 287.103C363.922 289.035 366.976 291.013 369.143 291.417C372.116 291.971 374.847 291.744 377.872 291.752C379.584 291.781 380.928 292.197 381.526 293.914C382.029 295.358 382.087 297.059 381.902 299.102C381.796 300.278 381.435 301.602 380.954 302.824C380.618 303.676 380.196 304.476 379.881 305.152C379.56 305.842 379.036 306.569 378.482 307.305C377.982 307.97 377.465 308.655 376.906 309.122C376.269 309.655 375.716 310.23 375.128 310.693C374.077 311.521 373 312.16 371.747 312.754C370.865 313.172 369.859 313.626 368.697 313.851C367.463 314.034 364.436 314.368 364.436 312.59L364.446 303.162C364.448 302.139 364.416 301.882 364.084 300.863C363.797 299.985 363.222 299.491 362.546 299.056C361.546 298.412 360.449 297.939 359.007 297.909L352.811 297.915C349.864 298.115 348.296 297.577 348.284 294.199L348.213 284.544Z" fill="#E1FA3F"/>
</g>
<path d="M64.5 309.667V269M64.5 309.667L47.5556 292.722M64.5 309.667L81.4444 292.722M95 309.667V323.222C95 325.02 94.2859 326.744 93.0148 328.015C91.7438 329.286 90.0198 330 88.2222 330H40.7778C38.9802 330 37.2562 329.286 35.9852 328.015C34.7141 326.744 34 325.02 34 323.222V309.667" stroke="#5E6B79" stroke-width="5" stroke-linecap="round" stroke-linejoin="round"/>
</g>
<defs>
<clipPath id="clip0_9010_187651">
<rect width="390" height="325" fill="white"/>
</clipPath>
<clipPath id="clip1_9010_187651">
<rect x="332" y="264" width="50" height="50" rx="20" fill="white"/>
</clipPath>
</defs>
</svg>
