<svg width="1240" height="250" viewBox="0 0 1240 250" fill="none" xmlns="http://www.w3.org/2000/svg">
<g clip-path="url(#clip0_9010_182690)">
<path fill-rule="evenodd" clip-rule="evenodd" d="M1191.31 176H1203.78C1207.2 176 1210 178.958 1210 182.647V189.348C1210 193.037 1207.2 195.995 1203.78 195.995H1172.57C1171.65 195.995 1171.03 196.03 1170.22 195.815C1169.28 195.565 1168.43 194.831 1168.01 193.524C1167.96 193.142 1168.03 192.655 1168.17 192.145C1168.32 191.629 1168.55 191.119 1168.77 190.717C1173.49 182.232 1181.5 176 1191.31 176Z" fill="#E1FA3F"/>
<path fill-rule="evenodd" clip-rule="evenodd" d="M1172.62 201.008H1179.31C1182.97 201.008 1185.93 203.953 1185.93 207.589V222.987C1185.93 226.977 1189.18 230.21 1193.2 230.21H1203.61C1205.43 230.21 1208.13 230.943 1209.05 232.132C1209.97 233.331 1209.93 234.267 1209.93 236.122L1210 243.933C1210 248.202 1207.39 249.842 1202.86 250.001H1192.52C1177.94 250.007 1166.19 238.381 1166 223.914V207.589C1166 203.953 1168.96 201.008 1172.62 201.008Z" fill="#E1FA3F"/>
<path fill-rule="evenodd" clip-rule="evenodd" d="M1217.12 176.99C1218.32 176.991 1219.61 177.152 1220.57 177.249C1226.2 178.076 1228.97 180.191 1233 183.863C1239.73 189.981 1240.04 200.042 1240 208.47C1239.89 209.393 1239.5 210.045 1239.03 210.512C1237.77 211.787 1236.2 211.826 1234.49 211.914C1230.96 212.096 1225.74 211.892 1224.25 211.715C1221.55 211.396 1219.32 210.512 1217.64 209.106C1217.52 209.006 1217.4 208.904 1217.29 208.799C1216.19 207.788 1215.35 206.526 1214.79 205.017C1214.24 203.534 1214.28 202.723 1214.24 201.179C1214.16 197.573 1214.18 193.973 1214.17 190.334C1214.17 189.75 1214.13 188.72 1214.09 187.496C1214.06 186.269 1214.02 184.839 1214 183.444C1213.99 182.048 1214.01 180.694 1214.08 179.616C1214.17 178.299 1214.02 177.445 1215.47 177.132C1215.95 177.029 1216.51 176.99 1217.12 176.99Z" fill="#E1FA3F"/>
<path fill-rule="evenodd" clip-rule="evenodd" d="M1190 206.403C1190.02 203.416 1191.39 201.831 1193.85 201.209C1194.58 201.027 1194.97 201.04 1195.7 201.038L1203.59 201.011C1206.66 201 1209.17 200.878 1209.78 204.44C1209.91 205.198 1210.03 205.848 1210.17 206.452C1210.48 207.703 1210.89 208.761 1211.67 210.191C1213.25 213.05 1217.77 215.977 1220.97 216.575C1225.37 217.395 1229.42 217.059 1233.89 217.072C1236.43 217.114 1238.42 217.729 1239.3 220.271C1240.04 222.408 1240.13 224.926 1239.86 227.95C1239.7 229.69 1239.17 231.649 1238.45 233.458C1237.96 234.718 1237.33 235.902 1236.87 236.903C1236.39 237.924 1235.62 239 1234.8 240.091C1234.06 241.075 1233.29 242.088 1232.46 242.78C1231.52 243.567 1230.7 244.419 1229.83 245.105C1228.28 246.33 1226.68 247.276 1224.83 248.155C1223.52 248.774 1222.03 249.446 1220.31 249.778C1218.49 250.049 1214.01 250.543 1214.01 247.913L1214.02 233.959C1214.02 232.445 1213.98 232.063 1213.49 230.556C1213.06 229.256 1212.21 228.526 1211.21 227.881C1209.73 226.928 1208.11 226.228 1205.97 226.184L1196.8 226.192C1192.44 226.489 1190.12 225.693 1190.1 220.693L1190 206.403Z" fill="#E1FA3F"/>
<path d="M1240 120C1240 139.882 1223.88 156 1204 156H1183C1163.12 156 1147 172.118 1147 192V214C1147 233.882 1130.88 250 1111 250H36C16.1177 250 0 233.882 0 214V36C0 16.1177 16.1178 0 36 0H1204C1223.88 0 1240 16.1178 1240 36V120Z" fill="#2C3E50"/>
<path d="M58 184H167V254.875C167 257.56 165.956 260.136 164.098 262.034C162.239 263.933 159.719 265 157.091 265H67.9091C65.281 265 62.7606 263.933 60.9023 262.034C59.044 260.136 58 257.56 58 254.875V184V184Z" stroke="#5E6B79" stroke-width="6" stroke-linecap="round" stroke-linejoin="round"/>
<path d="M177 173.5V152.5C177 146.701 172.523 142 167 142H57C51.4771 142 47 146.701 47 152.5V173.5C47 179.299 51.4771 184 57 184H167C172.523 184 177 179.299 177 173.5Z" stroke="#5E6B79" stroke-width="6" stroke-linecap="round" stroke-linejoin="round"/>
<path d="M96 212H128" stroke="#5E6B79" stroke-width="6" stroke-linecap="round" stroke-linejoin="round"/>
</g>
<defs>
<clipPath id="clip0_9010_182690">
<rect width="1240" height="250" fill="white"/>
</clipPath>
</defs>
</svg>
