<svg width="842" height="170" viewBox="0 0 842 170" fill="none" xmlns="http://www.w3.org/2000/svg">
<g clip-path="url(#clip0_9010_187497)">
<g clip-path="url(#clip1_9010_187497)">
<path fill-rule="evenodd" clip-rule="evenodd" d="M809.101 120H817.527C819.837 120 821.727 121.999 821.727 124.491V129.019C821.727 131.511 819.837 133.51 817.527 133.51H796.441C795.815 133.51 795.397 133.533 794.85 133.389C794.215 133.219 793.641 132.723 793.361 131.841C793.323 131.582 793.369 131.254 793.469 130.908C793.57 130.56 793.721 130.215 793.871 129.944C797.059 124.211 802.472 120 809.101 120Z" fill="#E1FA3F"/>
<path fill-rule="evenodd" clip-rule="evenodd" d="M796.471 136.898H800.993C803.463 136.898 805.465 138.889 805.465 141.345V151.749C805.465 154.445 807.662 156.629 810.374 156.629H817.411C818.639 156.629 820.467 157.125 821.085 157.928C821.708 158.738 821.678 159.37 821.678 160.624L821.73 165.901C821.73 168.786 819.966 169.894 816.903 170.001H809.915C800.068 170.005 792.127 162.151 791.999 152.375V141.345C791.999 138.889 794.001 136.898 796.471 136.898Z" fill="#E1FA3F"/>
<path fill-rule="evenodd" clip-rule="evenodd" d="M826.537 120.668C827.349 120.669 828.224 120.777 828.87 120.843C832.674 121.402 834.543 122.831 837.27 125.311C841.814 129.446 842.026 136.243 841.997 141.938C841.926 142.561 841.66 143.002 841.347 143.317C840.49 144.179 839.428 144.205 838.276 144.265C835.894 144.388 832.365 144.25 831.356 144.13C829.533 143.915 828.026 143.317 826.89 142.367C826.809 142.3 826.731 142.231 826.654 142.16C825.914 141.477 825.343 140.624 824.965 139.605C824.593 138.603 824.619 138.055 824.595 137.011C824.541 134.575 824.553 132.143 824.546 129.684C824.545 129.289 824.521 128.593 824.495 127.767C824.47 126.937 824.442 125.971 824.433 125.029C824.425 124.086 824.435 123.17 824.484 122.442C824.545 121.552 824.446 120.975 825.426 120.764C825.748 120.694 826.13 120.668 826.537 120.668Z" fill="#E1FA3F"/>
<path fill-rule="evenodd" clip-rule="evenodd" d="M808.213 140.544C808.228 138.525 809.154 137.454 810.819 137.034C811.307 136.911 811.574 136.92 812.068 136.919L817.395 136.9C819.474 136.893 821.168 136.811 821.577 139.218C821.664 139.73 821.747 140.169 821.846 140.577C822.051 141.422 822.326 142.137 822.858 143.103C823.922 145.035 826.976 147.013 829.143 147.417C832.116 147.971 834.847 147.744 837.872 147.752C839.584 147.781 840.928 148.197 841.526 149.914C842.029 151.358 842.087 153.059 841.902 155.102C841.796 156.278 841.435 157.602 840.954 158.824C840.618 159.676 840.196 160.476 839.881 161.152C839.56 161.842 839.036 162.569 838.482 163.305C837.982 163.97 837.465 164.655 836.906 165.122C836.269 165.655 835.716 166.23 835.128 166.693C834.077 167.521 833 168.16 831.747 168.754C830.865 169.172 829.859 169.626 828.697 169.851C827.463 170.034 824.436 170.368 824.436 168.59L824.446 159.162C824.448 158.139 824.416 157.882 824.084 156.863C823.797 155.985 823.222 155.491 822.546 155.056C821.546 154.412 820.449 153.939 819.007 153.909L812.811 153.915C809.864 154.115 808.296 153.577 808.284 150.199L808.213 140.544Z" fill="#E1FA3F"/>
</g>
<path d="M842 82C842 95.2548 831.255 106 818 106H803C789.745 106 779 116.745 779 130V146C779 159.255 768.255 170 755 170H24C10.7452 170 0 159.255 0 146V24C0 10.7452 10.7452 0 24 0H818C831.255 0 842 10.7452 842 24V82Z" fill="#2C3E50"/>
<g clip-path="url(#clip2_9010_187497)">
<path d="M98 136L75.8108 166L61 154.764" stroke="#5E6B79" stroke-width="5" stroke-linecap="round" stroke-linejoin="round"/>
<path d="M58 134C65.1797 134 71 128.18 71 121C71 113.82 65.1797 108 58 108C50.8203 108 45 113.82 45 121C45 128.18 50.8203 134 58 134Z" stroke="#5E6B79" stroke-width="5" stroke-linecap="round" stroke-linejoin="round"/>
<path d="M46.6719 173H33V164.745C33.0043 159.849 34.4499 155.065 37.1543 150.997C39.8587 146.928 43.7006 143.757 48.1947 141.884C52.6888 140.011 57.6336 139.521 62.4045 140.475C67.1754 141.429 71.5584 143.784 75 147.243" stroke="#5E6B79" stroke-width="5" stroke-linecap="round" stroke-linejoin="round"/>
</g>
</g>
<defs>
<clipPath id="clip0_9010_187497">
<rect width="842" height="170" fill="white"/>
</clipPath>
<clipPath id="clip1_9010_187497">
<rect x="792" y="120" width="50" height="50" rx="20" fill="white"/>
</clipPath>
<clipPath id="clip2_9010_187497">
<rect width="89" height="89" fill="white" transform="translate(30 107)"/>
</clipPath>
</defs>
</svg>
