<svg width="390" height="325" viewBox="0 0 390 325" fill="none" xmlns="http://www.w3.org/2000/svg">
<g clip-path="url(#clip0_9010_184481)">
<path d="M390 230C390 243.255 379.255 254 366 254H349C335.745 254 325 264.745 325 278V301C325 314.255 314.255 325 301 325H24C10.7452 325 0 314.255 0 301V24C0 10.7452 10.7452 0 24 0H366C379.255 0 390 10.7452 390 24V230Z" fill="#2C3E50"/>
<g clip-path="url(#clip1_9010_184481)">
<path fill-rule="evenodd" clip-rule="evenodd" d="M349.101 264H357.527C359.837 264 361.727 265.999 361.727 268.491V273.019C361.727 275.511 359.837 277.51 357.527 277.51H336.441C335.815 277.51 335.397 277.533 334.85 277.389C334.215 277.219 333.641 276.723 333.361 275.841C333.323 275.582 333.369 275.254 333.469 274.908C333.57 274.56 333.721 274.215 333.871 273.944C337.059 268.211 342.472 264 349.101 264Z" fill="#E1FA3F"/>
<path fill-rule="evenodd" clip-rule="evenodd" d="M336.471 280.898H340.993C343.463 280.898 345.465 282.889 345.465 285.345V295.749C345.465 298.445 347.662 300.629 350.374 300.629H357.411C358.639 300.629 360.467 301.125 361.085 301.928C361.708 302.738 361.678 303.37 361.678 304.624L361.73 309.901C361.73 312.786 359.966 313.894 356.903 314.001H349.915C340.068 314.005 332.127 306.151 331.999 296.375V285.345C331.999 282.889 334.001 280.898 336.471 280.898Z" fill="#E1FA3F"/>
<path fill-rule="evenodd" clip-rule="evenodd" d="M366.537 264.668C367.349 264.669 368.224 264.777 368.87 264.843C372.674 265.402 374.543 266.831 377.27 269.311C381.814 273.446 382.026 280.243 381.997 285.938C381.926 286.561 381.66 287.002 381.347 287.317C380.49 288.179 379.428 288.205 378.276 288.265C375.894 288.388 372.365 288.25 371.356 288.13C369.533 287.915 368.026 287.317 366.89 286.367C366.809 286.3 366.731 286.231 366.654 286.16C365.914 285.477 365.343 284.624 364.965 283.605C364.593 282.603 364.619 282.055 364.595 281.011C364.541 278.575 364.553 276.143 364.546 273.684C364.545 273.289 364.521 272.593 364.495 271.767C364.47 270.937 364.442 269.971 364.433 269.029C364.425 268.086 364.435 267.17 364.484 266.442C364.545 265.552 364.446 264.975 365.426 264.764C365.748 264.694 366.13 264.668 366.537 264.668Z" fill="#E1FA3F"/>
<path fill-rule="evenodd" clip-rule="evenodd" d="M348.213 284.544C348.228 282.525 349.154 281.454 350.819 281.034C351.307 280.911 351.574 280.92 352.068 280.919L357.395 280.9C359.474 280.893 361.168 280.811 361.577 283.218C361.664 283.73 361.747 284.169 361.846 284.577C362.051 285.422 362.326 286.137 362.858 287.103C363.922 289.035 366.976 291.013 369.143 291.417C372.116 291.971 374.847 291.744 377.872 291.752C379.584 291.781 380.928 292.197 381.526 293.914C382.029 295.358 382.087 297.059 381.902 299.102C381.796 300.278 381.435 301.602 380.954 302.824C380.618 303.676 380.196 304.476 379.881 305.152C379.56 305.842 379.036 306.569 378.482 307.305C377.982 307.97 377.465 308.655 376.906 309.122C376.269 309.655 375.716 310.23 375.128 310.693C374.077 311.521 373 312.16 371.747 312.754C370.865 313.172 369.859 313.626 368.697 313.851C367.463 314.034 364.436 314.368 364.436 312.59L364.446 303.162C364.448 302.139 364.416 301.882 364.084 300.863C363.797 299.985 363.222 299.491 362.546 299.056C361.546 298.412 360.449 297.939 359.007 297.909L352.811 297.915C349.864 298.115 348.296 297.577 348.284 294.199L348.213 284.544Z" fill="#E1FA3F"/>
</g>
<path d="M69.2377 259C71.1273 259 72.9392 259.749 74.2751 261.08L87.9124 274.67C89.2487 276.001 89.9996 277.807 90 279.689V322.9C90 324.783 89.2493 326.589 87.9131 327.92C86.5769 329.252 84.7647 330 82.875 330H40.125C38.2353 330 36.4231 329.252 35.0869 327.92C33.7507 326.589 33 324.783 33 322.9V266.1C33 264.217 33.7507 262.411 35.0869 261.08C36.4231 259.748 38.2353 259 40.125 259H69.2377Z" stroke="#5E6B79" stroke-width="5" stroke-linecap="round" stroke-linejoin="round"/>
<path d="M61.3837 289.371C61.4407 289.26 61.5287 289.166 61.6378 289.1C61.7469 289.035 61.8728 289 62.0012 289C62.1296 289 62.2554 289.035 62.3645 289.1C62.4736 289.166 62.5616 289.26 62.6186 289.371L65.6213 295.259C65.8192 295.647 66.1112 295.982 66.4723 296.236C66.8334 296.49 67.2529 296.656 67.6947 296.719L74.4098 297.67C74.5371 297.688 74.6566 297.74 74.755 297.82C74.8533 297.9 74.9265 298.006 74.9662 298.124C75.006 298.242 75.0107 298.369 74.98 298.49C74.9492 298.611 74.8841 298.721 74.792 298.808L69.9357 303.386C69.6154 303.688 69.3758 304.061 69.2374 304.472C69.099 304.884 69.0661 305.322 69.1414 305.749L70.2879 312.217C70.3104 312.34 70.2966 312.467 70.2483 312.583C70.1999 312.699 70.1188 312.799 70.0144 312.873C69.9099 312.946 69.7861 312.99 69.6573 312.998C69.5285 313.007 69.3997 312.981 69.2857 312.922L63.2829 309.866C62.8873 309.665 62.4473 309.56 62.0005 309.56C61.5538 309.56 61.1137 309.665 60.7182 309.866L54.7166 312.922C54.6027 312.98 54.4741 313.006 54.3454 312.998C54.2168 312.989 54.0934 312.945 53.9891 312.872C53.8848 312.798 53.8039 312.698 53.7556 312.582C53.7072 312.467 53.6934 312.34 53.7157 312.217L54.8609 305.75C54.9366 305.323 54.9038 304.885 54.7654 304.473C54.6271 304.061 54.3872 303.688 54.0667 303.386L49.2103 298.809C49.1175 298.722 49.0517 298.612 49.0205 298.491C48.9893 298.369 48.9938 298.242 49.0336 298.123C49.0735 298.005 49.147 297.899 49.2458 297.819C49.3446 297.738 49.4647 297.686 49.5925 297.669L56.3064 296.719C56.7487 296.657 57.1687 296.491 57.5303 296.237C57.892 295.983 58.1843 295.647 58.3823 295.259L61.3837 289.371Z" stroke="#5E6B79" stroke-width="5" stroke-linecap="round" stroke-linejoin="round"/>
</g>
<defs>
<clipPath id="clip0_9010_184481">
<rect width="390" height="325" fill="white"/>
</clipPath>
<clipPath id="clip1_9010_184481">
<rect x="332" y="264" width="50" height="50" rx="20" fill="white"/>
</clipPath>
</defs>
</svg>
