<svg width="842" height="170" viewBox="0 0 842 170" fill="none" xmlns="http://www.w3.org/2000/svg">
<g clip-path="url(#clip0_9010_183599)">
<path fill-rule="evenodd" clip-rule="evenodd" d="M809.102 120H817.528C819.838 120 821.728 121.999 821.728 124.491V129.019C821.728 131.511 819.838 133.51 817.528 133.51H796.442C795.816 133.51 795.397 133.533 794.851 133.389C794.216 133.219 793.642 132.723 793.362 131.841C793.324 131.582 793.37 131.254 793.47 130.908C793.571 130.56 793.722 130.215 793.872 129.944C797.06 124.211 802.473 120 809.102 120Z" fill="#E1FA3F"/>
<path fill-rule="evenodd" clip-rule="evenodd" d="M796.472 136.898H800.994C803.464 136.898 805.466 138.889 805.466 141.345V151.749C805.466 154.445 807.663 156.629 810.375 156.629H817.412C818.64 156.629 820.468 157.125 821.086 157.928C821.709 158.738 821.679 159.37 821.679 160.624L821.731 165.901C821.731 168.786 819.967 169.894 816.904 170.001H809.916C800.069 170.005 792.128 162.151 792 152.375V141.345C792 138.889 794.002 136.898 796.472 136.898Z" fill="#E1FA3F"/>
<path fill-rule="evenodd" clip-rule="evenodd" d="M826.538 120.668C827.35 120.669 828.225 120.777 828.871 120.843C832.675 121.402 834.544 122.831 837.271 125.311C841.815 129.446 842.027 136.243 841.998 141.938C841.927 142.561 841.661 143.002 841.348 143.317C840.491 144.179 839.429 144.205 838.277 144.265C835.895 144.388 832.366 144.25 831.357 144.13C829.534 143.915 828.027 143.317 826.891 142.367C826.81 142.3 826.732 142.231 826.655 142.16C825.915 141.477 825.344 140.624 824.966 139.605C824.594 138.603 824.62 138.055 824.596 137.011C824.542 134.575 824.554 132.143 824.547 129.684C824.546 129.289 824.522 128.593 824.496 127.767C824.471 126.937 824.443 125.971 824.434 125.029C824.426 124.086 824.436 123.17 824.485 122.442C824.546 121.552 824.447 120.975 825.427 120.764C825.749 120.694 826.131 120.668 826.538 120.668Z" fill="#E1FA3F"/>
<path fill-rule="evenodd" clip-rule="evenodd" d="M808.214 140.544C808.229 138.525 809.155 137.454 810.82 137.034C811.308 136.911 811.575 136.92 812.069 136.919L817.396 136.9C819.475 136.893 821.169 136.811 821.578 139.218C821.665 139.73 821.748 140.169 821.847 140.577C822.052 141.422 822.327 142.137 822.859 143.103C823.923 145.035 826.977 147.013 829.144 147.417C832.117 147.971 834.848 147.744 837.873 147.752C839.585 147.781 840.929 148.197 841.527 149.914C842.03 151.358 842.088 153.059 841.903 155.102C841.797 156.278 841.436 157.602 840.955 158.824C840.619 159.676 840.197 160.476 839.882 161.152C839.561 161.842 839.037 162.569 838.483 163.305C837.983 163.97 837.466 164.655 836.907 165.122C836.27 165.655 835.717 166.23 835.129 166.693C834.078 167.521 833.001 168.16 831.748 168.754C830.866 169.172 829.86 169.626 828.698 169.851C827.464 170.034 824.437 170.368 824.437 168.59L824.447 159.162C824.449 158.139 824.417 157.882 824.085 156.863C823.798 155.985 823.223 155.491 822.547 155.056C821.547 154.412 820.45 153.939 819.008 153.909L812.812 153.915C809.865 154.115 808.297 153.577 808.285 150.199L808.214 140.544Z" fill="#E1FA3F"/>
<path d="M842 82C842 95.2548 831.255 106 818 106H803C789.745 106 779 116.745 779 130V146C779 159.255 768.255 170 755 170H24C10.7452 170 0 159.255 0 146V24C0 10.7452 10.7452 0 24 0H818C831.255 0 842 10.7452 842 24V82Z" fill="#2C3E50"/>
<path d="M69.2377 104C71.1273 104 72.9392 104.749 74.2751 106.08L87.9124 119.67C89.2487 121.001 89.9996 122.807 90 124.689V167.9C90 169.783 89.2493 171.589 87.9131 172.92C86.5769 174.252 84.7647 175 82.875 175H40.125C38.2353 175 36.4231 174.252 35.0869 172.92C33.7507 171.589 33 169.783 33 167.9V111.1C33 109.217 33.7507 107.411 35.0869 106.08C36.4231 104.748 38.2353 104 40.125 104H69.2377Z" stroke="#5E6B79" stroke-width="5" stroke-linecap="round" stroke-linejoin="round"/>
<path d="M61.3837 134.371C61.4407 134.26 61.5287 134.166 61.6378 134.1C61.7469 134.035 61.8728 134 62.0012 134C62.1296 134 62.2554 134.035 62.3645 134.1C62.4736 134.166 62.5616 134.26 62.6186 134.371L65.6213 140.259C65.8192 140.647 66.1112 140.982 66.4723 141.236C66.8334 141.49 67.2529 141.656 67.6947 141.719L74.4098 142.67C74.5371 142.688 74.6566 142.74 74.755 142.82C74.8533 142.9 74.9265 143.006 74.9662 143.124C75.006 143.242 75.0107 143.369 74.98 143.49C74.9492 143.611 74.8841 143.721 74.792 143.808L69.9357 148.386C69.6154 148.688 69.3758 149.061 69.2374 149.472C69.099 149.884 69.0661 150.322 69.1414 150.749L70.2879 157.217C70.3104 157.34 70.2966 157.467 70.2483 157.583C70.1999 157.699 70.1188 157.799 70.0144 157.873C69.9099 157.946 69.7861 157.99 69.6573 157.998C69.5285 158.007 69.3997 157.981 69.2857 157.922L63.2829 154.866C62.8873 154.665 62.4473 154.56 62.0005 154.56C61.5538 154.56 61.1137 154.665 60.7182 154.866L54.7166 157.922C54.6027 157.98 54.4741 158.006 54.3454 157.998C54.2168 157.989 54.0934 157.945 53.9891 157.872C53.8848 157.798 53.8039 157.698 53.7556 157.582C53.7072 157.467 53.6934 157.34 53.7157 157.217L54.8609 150.75C54.9366 150.323 54.9038 149.885 54.7654 149.473C54.6271 149.061 54.3872 148.688 54.0667 148.386L49.2103 143.809C49.1175 143.722 49.0517 143.612 49.0205 143.491C48.9893 143.369 48.9938 143.242 49.0336 143.123C49.0735 143.005 49.147 142.899 49.2458 142.819C49.3446 142.738 49.4647 142.686 49.5925 142.669L56.3064 141.719C56.7487 141.657 57.1687 141.491 57.5303 141.237C57.892 140.983 58.1843 140.647 58.3823 140.259L61.3837 134.371Z" stroke="#5E6B79" stroke-width="5" stroke-linecap="round" stroke-linejoin="round"/>
</g>
<defs>
<clipPath id="clip0_9010_183599">
<rect width="842" height="170" fill="white"/>
</clipPath>
</defs>
</svg>
