<svg width="1240" height="250" viewBox="0 0 1240 250" fill="none" xmlns="http://www.w3.org/2000/svg">
<g clip-path="url(#clip0_9010_182476)">
<path fill-rule="evenodd" clip-rule="evenodd" d="M1191.31 176H1203.78C1207.2 176 1210 178.958 1210 182.647V189.348C1210 193.037 1207.2 195.995 1203.78 195.995H1172.57C1171.65 195.995 1171.03 196.03 1170.22 195.815C1169.28 195.565 1168.43 194.831 1168.01 193.524C1167.96 193.142 1168.03 192.655 1168.17 192.145C1168.32 191.629 1168.55 191.119 1168.77 190.717C1173.49 182.232 1181.5 176 1191.31 176Z" fill="#E1FA3F"/>
<path fill-rule="evenodd" clip-rule="evenodd" d="M1172.62 201.008H1179.31C1182.97 201.008 1185.93 203.953 1185.93 207.589V222.987C1185.93 226.977 1189.18 230.21 1193.2 230.21H1203.61C1205.43 230.21 1208.13 230.943 1209.05 232.132C1209.97 233.331 1209.93 234.267 1209.93 236.122L1210 243.933C1210 248.202 1207.39 249.842 1202.86 250.001H1192.52C1177.94 250.007 1166.19 238.381 1166 223.914V207.589C1166 203.953 1168.96 201.008 1172.62 201.008Z" fill="#E1FA3F"/>
<path fill-rule="evenodd" clip-rule="evenodd" d="M1217.12 176.992C1218.32 176.993 1219.61 177.154 1220.57 177.251C1226.2 178.078 1228.97 180.193 1233 183.865C1239.73 189.983 1240.04 200.044 1240 208.472C1239.89 209.395 1239.5 210.047 1239.03 210.514C1237.77 211.789 1236.2 211.828 1234.49 211.916C1230.96 212.098 1225.74 211.894 1224.25 211.717C1221.55 211.398 1219.32 210.514 1217.64 209.108C1217.52 209.008 1217.4 208.906 1217.29 208.801C1216.19 207.789 1215.35 206.528 1214.79 205.019C1214.24 203.536 1214.28 202.725 1214.24 201.181C1214.16 197.575 1214.18 193.975 1214.17 190.336C1214.17 189.752 1214.13 188.722 1214.09 187.498C1214.06 186.271 1214.02 184.841 1214 183.446C1213.99 182.05 1214.01 180.696 1214.08 179.618C1214.17 178.301 1214.02 177.447 1215.47 177.134C1215.95 177.031 1216.51 176.992 1217.12 176.992Z" fill="#E1FA3F"/>
<path fill-rule="evenodd" clip-rule="evenodd" d="M1190 206.403C1190.02 203.416 1191.39 201.831 1193.85 201.209C1194.58 201.027 1194.97 201.04 1195.7 201.038L1203.59 201.011C1206.66 201 1209.17 200.878 1209.78 204.44C1209.91 205.198 1210.03 205.848 1210.17 206.452C1210.48 207.703 1210.89 208.761 1211.67 210.191C1213.25 213.05 1217.77 215.977 1220.97 216.575C1225.37 217.395 1229.42 217.059 1233.89 217.072C1236.43 217.114 1238.42 217.729 1239.3 220.271C1240.04 222.408 1240.13 224.926 1239.86 227.95C1239.7 229.69 1239.17 231.649 1238.45 233.458C1237.96 234.718 1237.33 235.902 1236.87 236.903C1236.39 237.924 1235.62 239 1234.8 240.091C1234.06 241.075 1233.29 242.088 1232.46 242.78C1231.52 243.567 1230.7 244.419 1229.83 245.105C1228.28 246.33 1226.68 247.276 1224.83 248.155C1223.52 248.774 1222.03 249.446 1220.31 249.778C1218.49 250.049 1214.01 250.543 1214.01 247.913L1214.02 233.959C1214.02 232.445 1213.98 232.063 1213.49 230.556C1213.06 229.256 1212.21 228.526 1211.21 227.881C1209.73 226.928 1208.11 226.228 1205.97 226.184L1196.8 226.192C1192.44 226.489 1190.12 225.693 1190.1 220.693L1190 206.403Z" fill="#E1FA3F"/>
<path d="M1240 120C1240 139.882 1223.88 156 1204 156H1183C1163.12 156 1147 172.118 1147 192V214C1147 233.882 1130.88 250 1111 250H36C16.1177 250 0 233.882 0 214V36C0 16.1177 16.1178 0 36 0H1204C1223.88 0 1240 16.1178 1240 36V120Z" fill="#2C3E50"/>
<path d="M121.025 128C124.572 128.001 127.974 129.413 130.481 131.926L156.081 157.574C158.59 160.086 159.999 163.494 160 167.048V248.6C160 252.154 158.591 255.562 156.083 258.075C153.574 260.588 150.172 262 146.625 262H66.375C62.8277 262 59.4257 260.588 56.9174 258.075C54.4091 255.562 53 252.154 53 248.6V141.4C53 137.846 54.4091 134.438 56.9174 131.925C59.4257 129.412 62.8277 128 66.375 128H121.025Z" stroke="#5E6B79" stroke-width="6" stroke-linecap="round" stroke-linejoin="round"/>
<path d="M105.339 185.711C105.446 185.498 105.612 185.318 105.817 185.192C106.023 185.067 106.26 185 106.502 185C106.744 185 106.981 185.067 107.187 185.192C107.393 185.318 107.558 185.498 107.666 185.711L113.325 196.997C113.698 197.739 114.248 198.382 114.929 198.869C115.609 199.357 116.4 199.674 117.232 199.794L129.888 201.618C130.128 201.652 130.353 201.752 130.538 201.905C130.723 202.059 130.861 202.261 130.936 202.488C131.011 202.714 131.02 202.957 130.962 203.189C130.904 203.421 130.782 203.632 130.608 203.798L121.456 212.573C120.852 213.152 120.4 213.867 120.14 214.656C119.879 215.445 119.817 216.284 119.959 217.102L122.12 229.499C122.162 229.735 122.136 229.978 122.045 230.2C121.954 230.423 121.801 230.615 121.604 230.756C121.407 230.897 121.174 230.98 120.931 230.997C120.688 231.014 120.446 230.963 120.231 230.85L108.918 224.994C108.172 224.609 107.343 224.407 106.501 224.407C105.659 224.407 104.83 224.609 104.084 224.994L92.7736 230.85C92.5589 230.962 92.3165 231.012 92.0741 230.995C91.8317 230.978 91.599 230.895 91.4025 230.754C91.206 230.613 91.0535 230.421 90.9624 230.199C90.8713 229.978 90.8453 229.735 90.8873 229.499L93.0456 217.105C93.1881 216.286 93.1264 215.446 92.8656 214.657C92.6048 213.867 92.1529 213.152 91.5487 212.573L82.3964 203.801C82.2214 203.634 82.0975 203.423 82.0386 203.191C81.9797 202.958 81.9883 202.714 82.0634 202.487C82.1385 202.259 82.277 202.056 82.4632 201.902C82.6494 201.748 82.8758 201.649 83.1166 201.615L95.7697 199.794C96.6033 199.675 97.3949 199.358 98.0764 198.871C98.7579 198.383 99.3089 197.74 99.682 196.997L105.339 185.711Z" stroke="#5E6B79" stroke-width="6" stroke-linecap="round" stroke-linejoin="round"/>
</g>
<defs>
<clipPath id="clip0_9010_182476">
<rect width="1240" height="250" fill="white"/>
</clipPath>
</defs>
</svg>
