<svg width="842" height="170" viewBox="0 0 842 170" fill="none" xmlns="http://www.w3.org/2000/svg">
<g clip-path="url(#clip0_9010_184801)">
<g clip-path="url(#clip1_9010_184801)">
<path fill-rule="evenodd" clip-rule="evenodd" d="M803.101 114H811.527C813.837 114 815.727 115.999 815.727 118.491V123.019C815.727 125.511 813.837 127.51 811.527 127.51H790.441C789.815 127.51 789.397 127.533 788.85 127.389C788.215 127.219 787.641 126.723 787.361 125.841C787.323 125.582 787.369 125.254 787.469 124.908C787.57 124.56 787.721 124.215 787.871 123.944C791.059 118.211 796.472 114 803.101 114Z" fill="#E1FA3F"/>
<path fill-rule="evenodd" clip-rule="evenodd" d="M790.472 130.896H794.994C797.464 130.896 799.466 132.887 799.466 135.343V145.747C799.466 148.443 801.663 150.627 804.375 150.627H811.412C812.64 150.627 814.468 151.123 815.086 151.926C815.709 152.736 815.679 153.368 815.679 154.622L815.731 159.899C815.731 162.784 813.967 163.892 810.904 164H803.916C794.069 164.003 786.128 156.149 786 146.373V135.343C786 132.887 788.002 130.896 790.472 130.896Z" fill="#E1FA3F"/>
<path fill-rule="evenodd" clip-rule="evenodd" d="M820.538 114.67C821.35 114.671 822.225 114.779 822.871 114.845C826.675 115.404 828.544 116.833 831.271 119.313C835.815 123.448 836.027 130.245 835.998 135.94C835.927 136.563 835.661 137.004 835.348 137.319C834.491 138.181 833.429 138.207 832.277 138.267C829.895 138.39 826.366 138.252 825.357 138.132C823.534 137.917 822.027 137.319 820.891 136.369C820.81 136.302 820.732 136.233 820.655 136.162C819.915 135.479 819.344 134.626 818.966 133.607C818.594 132.605 818.62 132.057 818.596 131.013C818.542 128.577 818.554 126.145 818.547 123.686C818.546 123.291 818.522 122.595 818.496 121.769C818.471 120.939 818.443 119.973 818.434 119.031C818.426 118.088 818.436 117.172 818.485 116.444C818.546 115.554 818.447 114.977 819.427 114.766C819.749 114.696 820.131 114.67 820.538 114.67Z" fill="#E1FA3F"/>
<path fill-rule="evenodd" clip-rule="evenodd" d="M802.213 134.542C802.228 132.523 803.154 131.453 804.819 131.032C805.307 130.909 805.574 130.918 806.068 130.917L811.395 130.898C813.474 130.891 815.168 130.809 815.577 133.216C815.664 133.728 815.747 134.167 815.846 134.575C816.051 135.42 816.326 136.135 816.858 137.101C817.922 139.033 820.976 141.011 823.143 141.415C826.116 141.969 828.847 141.742 831.872 141.75C833.584 141.779 834.928 142.195 835.526 143.912C836.029 145.356 836.087 147.057 835.902 149.1C835.796 150.276 835.435 151.6 834.954 152.822C834.618 153.674 834.196 154.474 833.881 155.15C833.56 155.84 833.036 156.567 832.482 157.303C831.982 157.968 831.465 158.653 830.906 159.12C830.269 159.653 829.716 160.228 829.128 160.691C828.077 161.519 827 162.158 825.747 162.752C824.865 163.17 823.859 163.625 822.697 163.849C821.463 164.032 818.436 164.366 818.436 162.588L818.446 153.16C818.448 152.137 818.416 151.88 818.084 150.861C817.797 149.983 817.222 149.489 816.546 149.054C815.546 148.41 814.449 147.937 813.007 147.907L806.811 147.913C803.864 148.113 802.296 147.575 802.284 144.197L802.213 134.542Z" fill="#E1FA3F"/>
</g>
<path d="M842 82C842 95.2548 831.255 106 818 106H803C789.745 106 779 116.745 779 130V146C779 159.255 768.255 170 755 170H24C10.7452 170 0 159.255 0 146V24C0 10.7452 10.7452 0 24 0H818C831.255 0 842 10.7452 842 24V82Z" fill="#2C3E50"/>
<path fill-rule="evenodd" clip-rule="evenodd" d="M66.5 178C85.5538 178 101 162.554 101 143.5C101 124.446 85.5538 109 66.5 109C47.4462 109 32 124.446 32 143.5C32 162.554 47.4462 178 66.5 178Z" stroke="#5E6B79" stroke-width="5" stroke-linecap="round" stroke-linejoin="round"/>
<path d="M66.5 157C64.6756 157 63.0466 156.58 61.6132 155.74C60.1927 154.887 59.0655 153.733 58.2315 152.28C57.4105 150.813 57 149.147 57 147.28V136.72C57 134.853 57.4105 133.187 58.2315 131.72C59.0655 130.253 60.1927 129.1 61.6132 128.26C63.0466 127.42 64.6756 127 66.5 127C68.3244 127 69.9534 127.42 71.3868 128.26C72.8203 129.1 73.9475 130.253 74.7685 131.72C75.5895 133.187 76 134.853 76 136.72V147.28C76 149.147 75.5895 150.813 74.7685 152.28C73.9475 153.733 72.8203 154.887 71.3868 155.74C69.9534 156.58 68.3244 157 66.5 157ZM66.5 153.58C67.6077 153.58 68.6111 153.307 69.5103 152.76C70.4095 152.213 71.1262 151.48 71.6605 150.56C72.1948 149.627 72.4619 148.6 72.4619 147.48V136.5C72.4619 135.367 72.1948 134.34 71.6605 133.42C71.1262 132.5 70.4095 131.767 69.5103 131.22C68.6111 130.673 67.6077 130.4 66.5 130.4C65.4053 130.4 64.4019 130.673 63.4897 131.22C62.5905 131.767 61.8738 132.5 61.3395 133.42C60.8052 134.34 60.5381 135.367 60.5381 136.5V147.48C60.5381 148.6 60.8052 149.627 61.3395 150.56C61.8738 151.48 62.5905 152.213 63.4897 152.76C64.4019 153.307 65.4053 153.58 66.5 153.58Z" fill="#5E6B79"/>
</g>
<defs>
<clipPath id="clip0_9010_184801">
<rect width="842" height="170" fill="white"/>
</clipPath>
<clipPath id="clip1_9010_184801">
<rect x="786" y="114" width="50" height="50" rx="20" fill="white"/>
</clipPath>
</defs>
</svg>
