<svg width="390" height="325" viewBox="0 0 390 325" fill="none" xmlns="http://www.w3.org/2000/svg">
<g clip-path="url(#clip0_9010_185531)">
<path d="M390 230C390 243.255 379.255 254 366 254H349C335.745 254 325 264.745 325 278V301C325 314.255 314.255 325 301 325H24C10.7452 325 0 314.255 0 301V24C0 10.7452 10.7452 0 24 0H366C379.255 0 390 10.7452 390 24V230Z" fill="#2C3E50"/>
<g clip-path="url(#clip1_9010_185531)">
<path fill-rule="evenodd" clip-rule="evenodd" d="M349.101 264H357.527C359.837 264 361.727 265.999 361.727 268.491V273.019C361.727 275.511 359.837 277.51 357.527 277.51H336.441C335.815 277.51 335.397 277.533 334.85 277.389C334.215 277.219 333.641 276.723 333.361 275.841C333.323 275.582 333.369 275.254 333.469 274.908C333.57 274.56 333.721 274.215 333.871 273.944C337.059 268.211 342.472 264 349.101 264Z" fill="#E1FA3F"/>
<path fill-rule="evenodd" clip-rule="evenodd" d="M336.471 280.896H340.993C343.463 280.896 345.465 282.887 345.465 285.343V295.747C345.465 298.443 347.662 300.627 350.374 300.627H357.411C358.639 300.627 360.467 301.123 361.085 301.926C361.708 302.736 361.678 303.368 361.678 304.622L361.73 309.899C361.73 312.784 359.966 313.892 356.903 314H349.915C340.068 314.003 332.127 306.149 331.999 296.373V285.343C331.999 282.887 334.001 280.896 336.471 280.896Z" fill="#E1FA3F"/>
<path fill-rule="evenodd" clip-rule="evenodd" d="M366.537 264.67C367.349 264.671 368.224 264.779 368.87 264.845C372.674 265.404 374.543 266.833 377.27 269.313C381.814 273.448 382.026 280.245 381.997 285.94C381.926 286.563 381.66 287.004 381.347 287.319C380.49 288.181 379.428 288.207 378.276 288.267C375.894 288.39 372.365 288.252 371.356 288.132C369.533 287.917 368.026 287.319 366.89 286.369C366.809 286.302 366.731 286.233 366.654 286.162C365.914 285.479 365.343 284.626 364.965 283.607C364.593 282.605 364.619 282.057 364.595 281.013C364.541 278.577 364.553 276.145 364.546 273.686C364.545 273.291 364.521 272.595 364.495 271.769C364.47 270.939 364.442 269.973 364.433 269.031C364.425 268.088 364.435 267.172 364.484 266.444C364.545 265.554 364.446 264.977 365.426 264.766C365.748 264.696 366.13 264.67 366.537 264.67Z" fill="#E1FA3F"/>
<path fill-rule="evenodd" clip-rule="evenodd" d="M348.213 284.542C348.228 282.523 349.154 281.453 350.819 281.032C351.307 280.909 351.574 280.918 352.068 280.917L357.395 280.898C359.474 280.891 361.168 280.809 361.577 283.216C361.664 283.728 361.747 284.167 361.846 284.575C362.051 285.42 362.326 286.135 362.858 287.101C363.922 289.033 366.976 291.011 369.143 291.415C372.116 291.969 374.847 291.742 377.872 291.75C379.584 291.779 380.928 292.195 381.526 293.912C382.029 295.356 382.087 297.057 381.902 299.1C381.796 300.276 381.435 301.6 380.954 302.822C380.618 303.674 380.196 304.474 379.881 305.15C379.56 305.84 379.036 306.567 378.482 307.303C377.982 307.968 377.465 308.653 376.906 309.12C376.269 309.653 375.716 310.228 375.128 310.691C374.077 311.519 373 312.158 371.747 312.752C370.865 313.17 369.859 313.625 368.697 313.849C367.463 314.032 364.436 314.366 364.436 312.588L364.446 303.16C364.448 302.137 364.416 301.88 364.084 300.861C363.797 299.983 363.222 299.489 362.546 299.054C361.546 298.41 360.449 297.937 359.007 297.907L352.811 297.913C349.864 298.113 348.296 297.575 348.284 294.197L348.213 284.542Z" fill="#E1FA3F"/>
</g>
<path d="M81.6367 261L89.1 261C90.6648 261 92.1655 261.615 93.2719 262.709C94.3784 263.803 95 265.286 95 266.833V325.167C95 326.714 94.3784 328.197 93.2719 329.291C92.1655 330.385 90.6648 331 89.1 331H41.9C40.3352 331 38.8345 330.385 37.7281 329.291C36.6216 328.197 36 326.714 36 325.167V266.833C36 265.286 36.6216 263.803 37.7281 262.709C38.8345 261.615 40.3352 261 41.9 261H50.75" stroke="#5E6B79" stroke-width="5" stroke-linecap="round" stroke-linejoin="round"/>
<path d="M76 255H58C54.6863 255 52 257.507 52 260.6V263.4C52 266.493 54.6863 269 58 269H76C79.3137 269 82 266.493 82 263.4V260.6C82 257.507 79.3137 255 76 255Z" stroke="#5E6B79" stroke-width="5" stroke-linecap="round" stroke-linejoin="round"/>
<path d="M50 302.375L62.4444 311L78 288" stroke="#5E6B79" stroke-width="5" stroke-linecap="round" stroke-linejoin="round"/>
</g>
<defs>
<clipPath id="clip0_9010_185531">
<rect width="390" height="325" fill="white"/>
</clipPath>
<clipPath id="clip1_9010_185531">
<rect x="332" y="264" width="50" height="50" rx="20" fill="white"/>
</clipPath>
</defs>
</svg>
