<svg width="842" height="170" viewBox="0 0 842 170" fill="none" xmlns="http://www.w3.org/2000/svg">
<g clip-path="url(#clip0_9010_184281)">
<g clip-path="url(#clip1_9010_184281)">
<path fill-rule="evenodd" clip-rule="evenodd" d="M809.101 120H817.527C819.837 120 821.727 121.999 821.727 124.491V129.019C821.727 131.511 819.837 133.51 817.527 133.51H796.441C795.815 133.51 795.397 133.533 794.85 133.389C794.215 133.219 793.641 132.723 793.361 131.841C793.323 131.582 793.369 131.254 793.469 130.908C793.57 130.56 793.721 130.215 793.871 129.944C797.059 124.211 802.472 120 809.101 120Z" fill="#E1FA3F"/>
<path fill-rule="evenodd" clip-rule="evenodd" d="M796.471 136.896H800.993C803.463 136.896 805.465 138.887 805.465 141.343V151.747C805.465 154.443 807.662 156.627 810.374 156.627H817.411C818.639 156.627 820.467 157.123 821.085 157.926C821.708 158.736 821.678 159.368 821.678 160.622L821.73 165.899C821.73 168.784 819.966 169.892 816.903 170H809.915C800.068 170.003 792.127 162.149 791.999 152.373V141.343C791.999 138.887 794.001 136.896 796.471 136.896Z" fill="#E1FA3F"/>
<path fill-rule="evenodd" clip-rule="evenodd" d="M826.537 120.67C827.349 120.671 828.224 120.779 828.87 120.845C832.674 121.404 834.543 122.833 837.27 125.313C841.814 129.448 842.026 136.245 841.997 141.94C841.926 142.563 841.66 143.004 841.347 143.319C840.49 144.181 839.428 144.207 838.276 144.267C835.894 144.39 832.365 144.252 831.356 144.132C829.533 143.917 828.026 143.319 826.89 142.369C826.809 142.302 826.731 142.233 826.654 142.162C825.914 141.479 825.343 140.626 824.965 139.607C824.593 138.605 824.619 138.057 824.595 137.013C824.541 134.577 824.553 132.145 824.546 129.686C824.545 129.291 824.521 128.595 824.495 127.769C824.47 126.939 824.442 125.973 824.433 125.031C824.425 124.088 824.435 123.172 824.484 122.444C824.545 121.554 824.446 120.977 825.426 120.766C825.748 120.696 826.13 120.67 826.537 120.67Z" fill="#E1FA3F"/>
<path fill-rule="evenodd" clip-rule="evenodd" d="M808.213 140.542C808.228 138.523 809.154 137.453 810.819 137.032C811.307 136.909 811.574 136.918 812.068 136.917L817.395 136.898C819.474 136.891 821.168 136.809 821.577 139.216C821.664 139.728 821.747 140.167 821.846 140.575C822.051 141.42 822.326 142.135 822.858 143.101C823.922 145.033 826.976 147.011 829.143 147.415C832.116 147.969 834.847 147.742 837.872 147.75C839.584 147.779 840.928 148.195 841.526 149.912C842.029 151.356 842.087 153.057 841.902 155.1C841.796 156.276 841.435 157.6 840.954 158.822C840.618 159.674 840.196 160.474 839.881 161.15C839.56 161.84 839.036 162.567 838.482 163.303C837.982 163.968 837.465 164.653 836.906 165.12C836.269 165.653 835.716 166.228 835.128 166.691C834.077 167.519 833 168.158 831.747 168.752C830.865 169.17 829.859 169.625 828.697 169.849C827.463 170.032 824.436 170.366 824.436 168.588L824.446 159.16C824.448 158.137 824.416 157.88 824.084 156.861C823.797 155.983 823.222 155.489 822.546 155.054C821.546 154.41 820.449 153.937 819.007 153.907L812.811 153.913C809.864 154.113 808.296 153.575 808.284 150.197L808.213 140.542Z" fill="#E1FA3F"/>
</g>
<path d="M842 82C842 95.2548 831.255 106 818 106H803C789.745 106 779 116.745 779 130V146C779 159.255 768.255 170 755 170H24C10.7452 170 0 159.255 0 146V24C0 10.7452 10.7452 0 24 0H818C831.255 0 842 10.7452 842 24V82Z" fill="#2C3E50"/>
<path d="M81.6367 106L89.1 106C90.6648 106 92.1655 106.615 93.2719 107.709C94.3784 108.803 95 110.286 95 111.833V170.167C95 171.714 94.3784 173.197 93.2719 174.291C92.1655 175.385 90.6648 176 89.1 176H41.9C40.3352 176 38.8345 175.385 37.7281 174.291C36.6216 173.197 36 171.714 36 170.167V111.833C36 110.286 36.6216 108.803 37.7281 107.709C38.8345 106.615 40.3352 106 41.9 106H50.75" stroke="#5E6B79" stroke-width="5" stroke-linecap="round" stroke-linejoin="round"/>
<path d="M76 100H58C54.6863 100 52 102.507 52 105.6V108.4C52 111.493 54.6863 114 58 114H76C79.3137 114 82 111.493 82 108.4V105.6C82 102.507 79.3137 100 76 100Z" stroke="#5E6B79" stroke-width="5" stroke-linecap="round" stroke-linejoin="round"/>
<path d="M50 147.375L62.4444 156L78 133" stroke="#5E6B79" stroke-width="5" stroke-linecap="round" stroke-linejoin="round"/>
</g>
<defs>
<clipPath id="clip0_9010_184281">
<rect width="842" height="170" fill="white"/>
</clipPath>
<clipPath id="clip1_9010_184281">
<rect x="792" y="120" width="50" height="50" rx="20" fill="white"/>
</clipPath>
</defs>
</svg>
