<svg width="1240" height="250" viewBox="0 0 1240 250" fill="none" xmlns="http://www.w3.org/2000/svg">
<g clip-path="url(#clip0_9010_182160)">
<path fill-rule="evenodd" clip-rule="evenodd" d="M1191.31 176H1203.78C1207.2 176 1210 178.958 1210 182.647V189.348C1210 193.037 1207.2 195.995 1203.78 195.995H1172.57C1171.65 195.995 1171.03 196.03 1170.22 195.815C1169.28 195.565 1168.43 194.831 1168.01 193.524C1167.96 193.142 1168.03 192.655 1168.17 192.145C1168.32 191.629 1168.55 191.119 1168.77 190.717C1173.49 182.232 1181.5 176 1191.31 176Z" fill="#E1FA3F"/>
<path fill-rule="evenodd" clip-rule="evenodd" d="M1172.62 201.008H1179.31C1182.97 201.008 1185.93 203.953 1185.93 207.589V222.987C1185.93 226.977 1189.18 230.21 1193.2 230.21H1203.61C1205.43 230.21 1208.13 230.943 1209.05 232.132C1209.97 233.331 1209.93 234.267 1209.93 236.122L1210 243.933C1210 248.202 1207.39 249.842 1202.86 250.001H1192.52C1177.94 250.007 1166.19 238.381 1166 223.914V207.589C1166 203.953 1168.96 201.008 1172.62 201.008Z" fill="#E1FA3F"/>
<path fill-rule="evenodd" clip-rule="evenodd" d="M1217.12 176.99C1218.32 176.991 1219.61 177.152 1220.57 177.249C1226.2 178.076 1228.97 180.191 1233 183.863C1239.73 189.981 1240.04 200.042 1240 208.47C1239.89 209.393 1239.5 210.045 1239.03 210.512C1237.77 211.787 1236.2 211.826 1234.49 211.914C1230.96 212.096 1225.74 211.892 1224.25 211.715C1221.55 211.396 1219.32 210.512 1217.64 209.106C1217.52 209.006 1217.4 208.904 1217.29 208.799C1216.19 207.788 1215.35 206.526 1214.79 205.017C1214.24 203.534 1214.28 202.723 1214.24 201.179C1214.16 197.573 1214.18 193.973 1214.17 190.334C1214.17 189.75 1214.13 188.72 1214.09 187.496C1214.06 186.269 1214.02 184.839 1214 183.444C1213.99 182.048 1214.01 180.694 1214.08 179.616C1214.17 178.299 1214.02 177.445 1215.47 177.132C1215.95 177.029 1216.51 176.99 1217.12 176.99Z" fill="#E1FA3F"/>
<path fill-rule="evenodd" clip-rule="evenodd" d="M1190 206.403C1190.02 203.416 1191.39 201.831 1193.85 201.209C1194.58 201.027 1194.97 201.04 1195.7 201.038L1203.59 201.011C1206.66 201 1209.17 200.878 1209.78 204.44C1209.91 205.198 1210.03 205.848 1210.17 206.452C1210.48 207.703 1210.89 208.761 1211.67 210.191C1213.25 213.05 1217.77 215.977 1220.97 216.575C1225.37 217.395 1229.42 217.059 1233.89 217.072C1236.43 217.114 1238.42 217.729 1239.3 220.271C1240.04 222.408 1240.13 224.926 1239.86 227.95C1239.7 229.69 1239.17 231.649 1238.45 233.458C1237.96 234.718 1237.33 235.902 1236.87 236.903C1236.39 237.924 1235.62 239 1234.8 240.091C1234.06 241.075 1233.29 242.088 1232.46 242.78C1231.52 243.567 1230.7 244.419 1229.83 245.105C1228.28 246.33 1226.68 247.276 1224.83 248.155C1223.52 248.774 1222.03 249.446 1220.31 249.778C1218.49 250.049 1214.01 250.543 1214.01 247.913L1214.02 233.959C1214.02 232.445 1213.98 232.063 1213.49 230.556C1213.06 229.256 1212.21 228.526 1211.21 227.881C1209.73 226.928 1208.11 226.228 1205.97 226.184L1196.8 226.192C1192.44 226.489 1190.12 225.693 1190.1 220.693L1190 206.403Z" fill="#E1FA3F"/>
<path d="M1240 126C1240 145.882 1223.88 162 1204 162H1188C1168.12 162 1152 178.118 1152 198V214C1152 233.882 1135.88 250 1116 250H36C16.1178 250 0 233.882 0 214V36C0 16.1177 16.1178 0 36 0H1204C1223.88 0 1240 16.1178 1240 36V126Z" fill="#2C3E50"/>
<path d="M144.409 274.36C151.216 278.759 159.328 280.675 167.38 279.788C175.432 278.901 182.934 275.264 188.624 269.489L193.598 264.618C195.779 262.384 197 259.384 197 256.259C197 253.135 195.779 250.135 193.598 247.901L172.485 226.977C170.274 224.8 167.296 223.58 164.195 223.58C161.094 223.58 158.117 224.8 155.905 226.977V226.977C153.674 229.161 150.679 230.384 147.559 230.384C144.44 230.384 141.444 229.161 139.213 226.977L106.052 193.765C104.946 192.673 104.067 191.372 103.468 189.937C102.868 188.502 102.559 186.962 102.559 185.406C102.559 183.851 102.868 182.311 103.468 180.876C104.067 179.441 104.946 178.14 106.052 177.048V177.048C108.226 174.832 109.444 171.851 109.444 168.745C109.444 165.639 108.226 162.657 106.052 160.442L85.0497 139.407C82.8192 137.223 79.8236 136 76.7041 136C73.5846 136 70.5891 137.223 68.3585 139.407L63.4948 144.389C57.7285 150.087 54.0972 157.601 53.2115 165.666C52.3257 173.73 54.2395 181.854 58.6311 188.672C81.513 222.446 110.628 251.53 144.409 274.36V274.36Z" stroke="#5E6B79" stroke-width="6" stroke-linecap="round" stroke-linejoin="round"/>
</g>
<defs>
<clipPath id="clip0_9010_182160">
<rect width="1240" height="250" fill="white"/>
</clipPath>
</defs>
</svg>
