<svg width="390" height="325" viewBox="0 0 390 325" fill="none" xmlns="http://www.w3.org/2000/svg">
<g clip-path="url(#clip0_9010_184737)">
<path d="M390 230C390 243.255 379.255 254 366 254H349C335.745 254 325 264.745 325 278V301C325 314.255 314.255 325 301 325H24C10.7452 325 0 314.255 0 301V24C0 10.7452 10.7452 0 24 0H366C379.255 0 390 10.7452 390 24V230Z" fill="#2C3E50"/>
<g clip-path="url(#clip1_9010_184737)">
<path fill-rule="evenodd" clip-rule="evenodd" d="M349.101 264H357.527C359.837 264 361.727 265.999 361.727 268.491V273.019C361.727 275.511 359.837 277.51 357.527 277.51H336.441C335.815 277.51 335.397 277.533 334.85 277.389C334.215 277.219 333.641 276.723 333.361 275.841C333.323 275.582 333.369 275.254 333.469 274.908C333.57 274.56 333.721 274.215 333.871 273.944C337.059 268.211 342.472 264 349.101 264Z" fill="#E1FA3F"/>
<path fill-rule="evenodd" clip-rule="evenodd" d="M336.472 280.896H340.994C343.464 280.896 345.466 282.887 345.466 285.343V295.747C345.466 298.443 347.663 300.627 350.375 300.627H357.412C358.64 300.627 360.468 301.123 361.086 301.926C361.709 302.736 361.679 303.368 361.679 304.622L361.731 309.899C361.731 312.784 359.967 313.892 356.904 314H349.916C340.069 314.003 332.128 306.149 332 296.373V285.343C332 282.887 334.002 280.896 336.472 280.896Z" fill="#E1FA3F"/>
<path fill-rule="evenodd" clip-rule="evenodd" d="M366.538 264.67C367.35 264.671 368.225 264.779 368.871 264.845C372.675 265.404 374.544 266.833 377.271 269.313C381.815 273.448 382.027 280.245 381.998 285.94C381.927 286.563 381.661 287.004 381.348 287.319C380.491 288.181 379.429 288.207 378.277 288.267C375.895 288.39 372.366 288.252 371.357 288.132C369.534 287.917 368.027 287.319 366.891 286.369C366.81 286.302 366.732 286.233 366.655 286.162C365.915 285.479 365.344 284.626 364.966 283.607C364.594 282.605 364.62 282.057 364.596 281.013C364.542 278.577 364.554 276.145 364.547 273.686C364.546 273.291 364.522 272.595 364.496 271.769C364.471 270.939 364.443 269.973 364.434 269.031C364.426 268.088 364.436 267.172 364.485 266.444C364.546 265.554 364.447 264.977 365.427 264.766C365.749 264.696 366.131 264.67 366.538 264.67Z" fill="#E1FA3F"/>
<path fill-rule="evenodd" clip-rule="evenodd" d="M348.213 284.542C348.228 282.523 349.154 281.453 350.819 281.032C351.307 280.909 351.574 280.918 352.068 280.917L357.395 280.898C359.474 280.891 361.168 280.809 361.577 283.216C361.664 283.728 361.747 284.167 361.846 284.575C362.051 285.42 362.326 286.135 362.858 287.101C363.922 289.033 366.976 291.011 369.143 291.415C372.116 291.969 374.847 291.742 377.872 291.75C379.584 291.779 380.928 292.195 381.526 293.912C382.029 295.356 382.087 297.057 381.902 299.1C381.796 300.276 381.435 301.6 380.954 302.822C380.618 303.674 380.196 304.474 379.881 305.15C379.56 305.84 379.036 306.567 378.482 307.303C377.982 307.968 377.465 308.653 376.906 309.12C376.269 309.653 375.716 310.228 375.128 310.691C374.077 311.519 373 312.158 371.747 312.752C370.865 313.17 369.859 313.625 368.697 313.849C367.463 314.032 364.436 314.366 364.436 312.588L364.446 303.16C364.448 302.137 364.416 301.88 364.084 300.861C363.797 299.983 363.222 299.489 362.546 299.054C361.546 298.41 360.449 297.937 359.007 297.907L352.811 297.913C349.864 298.113 348.296 297.575 348.284 294.197L348.213 284.542Z" fill="#E1FA3F"/>
</g>
<path d="M116 269.2H87.2222M70.7778 269.2H42M116 302H79M62.5556 302H42M116 334.8H95.4444M79 334.8H42M87.2222 261V277.4M62.5556 293.8V310.2M95.4444 326.6V343" stroke="#5E6B79" stroke-width="5" stroke-linecap="round" stroke-linejoin="round"/>
</g>
<defs>
<clipPath id="clip0_9010_184737">
<rect width="390" height="325" fill="white"/>
</clipPath>
<clipPath id="clip1_9010_184737">
<rect x="332" y="264" width="50" height="50" rx="20" fill="white"/>
</clipPath>
</defs>
</svg>
