<svg width="842" height="170" viewBox="0 0 842 170" fill="none" xmlns="http://www.w3.org/2000/svg">
<g clip-path="url(#clip0_9010_184673)">
<path fill-rule="evenodd" clip-rule="evenodd" d="M809.102 120H817.528C819.838 120 821.728 121.999 821.728 124.491V129.019C821.728 131.511 819.838 133.51 817.528 133.51H796.442C795.816 133.51 795.397 133.533 794.851 133.389C794.216 133.219 793.642 132.723 793.362 131.841C793.324 131.582 793.37 131.254 793.47 130.908C793.571 130.56 793.722 130.215 793.872 129.944C797.06 124.211 802.473 120 809.102 120Z" fill="#E1FA3F"/>
<path fill-rule="evenodd" clip-rule="evenodd" d="M796.472 136.896H800.994C803.464 136.896 805.466 138.887 805.466 141.343V151.747C805.466 154.443 807.663 156.627 810.375 156.627H817.412C818.64 156.627 820.468 157.123 821.086 157.926C821.709 158.736 821.679 159.368 821.679 160.622L821.731 165.899C821.731 168.784 819.967 169.892 816.904 170H809.916C800.069 170.003 792.128 162.149 792 152.373V141.343C792 138.887 794.002 136.896 796.472 136.896Z" fill="#E1FA3F"/>
<path fill-rule="evenodd" clip-rule="evenodd" d="M826.538 120.67C827.35 120.671 828.225 120.779 828.871 120.845C832.675 121.404 834.544 122.833 837.271 125.313C841.815 129.448 842.027 136.245 841.998 141.94C841.927 142.563 841.661 143.004 841.348 143.319C840.491 144.181 839.429 144.207 838.277 144.267C835.895 144.39 832.366 144.252 831.357 144.132C829.534 143.917 828.027 143.319 826.891 142.369C826.81 142.302 826.732 142.233 826.655 142.162C825.915 141.479 825.344 140.626 824.966 139.607C824.594 138.605 824.62 138.057 824.596 137.013C824.542 134.577 824.554 132.145 824.547 129.686C824.546 129.291 824.522 128.595 824.496 127.769C824.471 126.939 824.443 125.973 824.434 125.031C824.426 124.088 824.436 123.172 824.485 122.444C824.546 121.554 824.447 120.977 825.427 120.766C825.749 120.696 826.131 120.67 826.538 120.67Z" fill="#E1FA3F"/>
<path fill-rule="evenodd" clip-rule="evenodd" d="M808.214 140.542C808.229 138.523 809.155 137.453 810.82 137.032C811.308 136.909 811.575 136.918 812.069 136.917L817.396 136.898C819.475 136.891 821.169 136.809 821.578 139.216C821.665 139.728 821.748 140.167 821.847 140.575C822.052 141.42 822.327 142.135 822.859 143.101C823.923 145.033 826.977 147.011 829.144 147.415C832.117 147.969 834.848 147.742 837.873 147.75C839.585 147.779 840.929 148.195 841.527 149.912C842.03 151.356 842.088 153.057 841.903 155.1C841.797 156.276 841.436 157.6 840.955 158.822C840.619 159.674 840.197 160.474 839.882 161.15C839.561 161.84 839.037 162.567 838.483 163.303C837.983 163.968 837.466 164.653 836.907 165.12C836.27 165.653 835.717 166.228 835.129 166.691C834.078 167.519 833.001 168.158 831.748 168.752C830.866 169.17 829.86 169.625 828.698 169.849C827.464 170.032 824.437 170.366 824.437 168.588L824.447 159.16C824.449 158.137 824.417 157.88 824.085 156.861C823.798 155.983 823.223 155.489 822.547 155.054C821.547 154.41 820.45 153.937 819.008 153.907L812.812 153.913C809.865 154.113 808.297 153.575 808.285 150.197L808.214 140.542Z" fill="#E1FA3F"/>
<path d="M842 82C842 95.2548 831.255 106 818 106H803C789.745 106 779 116.745 779 130V146C779 159.255 768.255 170 755 170H24C10.7452 170 0 159.255 0 146V24C0 10.7452 10.7452 0 24 0H818C831.255 0 842 10.7452 842 24V82Z" fill="#2C3E50"/>
<path d="M69.5 152.8V168.4M55.75 152.8H83.25M76.9662 106C78.7895 106 80.5379 106.823 81.8269 108.285L94.9856 123.215C96.275 124.677 96.9996 126.661 97 128.729V176.2C97 178.269 96.2757 180.253 94.9864 181.715C93.697 183.178 91.9484 184 90.125 184H48.875C47.0516 184 45.303 183.178 44.0136 181.715C42.7243 180.253 42 178.269 42 176.2V113.8C42 111.731 42.7243 109.747 44.0136 108.285C45.303 106.822 47.0516 106 48.875 106H76.9662ZM59.1875 137.2H79.8125C81.711 137.2 83.25 138.946 83.25 141.1V164.5C83.25 166.654 81.711 168.4 79.8125 168.4H59.1875C57.289 168.4 55.75 166.654 55.75 164.5V141.1C55.75 138.946 57.289 137.2 59.1875 137.2Z" stroke="#5E6B79" stroke-width="5" stroke-linecap="round" stroke-linejoin="round"/>
<path d="M42 177H35.75C34.225 177 32.7625 176.315 31.6841 175.096C30.6058 173.877 30 172.224 30 170.5V118.5C30 116.776 30.6058 115.123 31.6841 113.904C32.7625 112.685 34.225 112 35.75 112H42" stroke="#5E6B79" stroke-width="5" stroke-linecap="round" stroke-linejoin="round"/>
</g>
<defs>
<clipPath id="clip0_9010_184673">
<rect width="842" height="170" fill="white"/>
</clipPath>
</defs>
</svg>
