<svg width="390" height="325" viewBox="0 0 390 325" fill="none" xmlns="http://www.w3.org/2000/svg">
<g clip-path="url(#clip0_9010_184612)">
<path d="M390 230C390 243.255 379.255 254 366 254H349C335.745 254 325 264.745 325 278V301C325 314.255 314.255 325 301 325H24C10.7452 325 0 314.255 0 301V24C0 10.7452 10.7452 0 24 0H366C379.255 0 390 10.7452 390 24V230Z" fill="#2C3E50"/>
<g clip-path="url(#clip1_9010_184612)">
<path fill-rule="evenodd" clip-rule="evenodd" d="M349.101 264H357.527C359.837 264 361.727 265.999 361.727 268.491V273.019C361.727 275.511 359.837 277.51 357.527 277.51H336.441C335.815 277.51 335.397 277.533 334.85 277.389C334.215 277.219 333.641 276.723 333.361 275.841C333.323 275.582 333.369 275.254 333.469 274.908C333.57 274.56 333.721 274.215 333.871 273.944C337.059 268.211 342.472 264 349.101 264Z" fill="#E1FA3F"/>
<path fill-rule="evenodd" clip-rule="evenodd" d="M336.472 280.898H340.994C343.464 280.898 345.466 282.889 345.466 285.345V295.749C345.466 298.445 347.663 300.629 350.375 300.629H357.412C358.64 300.629 360.468 301.125 361.086 301.928C361.709 302.738 361.679 303.37 361.679 304.624L361.731 309.901C361.731 312.786 359.967 313.894 356.904 314.001H349.916C340.069 314.005 332.128 306.151 332 296.375V285.345C332 282.889 334.002 280.898 336.472 280.898Z" fill="#E1FA3F"/>
<path fill-rule="evenodd" clip-rule="evenodd" d="M366.538 264.668C367.35 264.669 368.225 264.777 368.871 264.843C372.675 265.402 374.544 266.831 377.271 269.311C381.815 273.446 382.027 280.243 381.998 285.938C381.927 286.561 381.661 287.002 381.348 287.317C380.491 288.179 379.429 288.205 378.277 288.265C375.895 288.388 372.366 288.25 371.357 288.13C369.534 287.915 368.027 287.317 366.891 286.367C366.81 286.3 366.732 286.231 366.655 286.16C365.915 285.477 365.344 284.624 364.966 283.605C364.594 282.603 364.62 282.055 364.596 281.011C364.542 278.575 364.554 276.143 364.547 273.684C364.546 273.289 364.522 272.593 364.496 271.767C364.471 270.937 364.443 269.971 364.434 269.029C364.426 268.086 364.436 267.17 364.485 266.442C364.546 265.552 364.447 264.975 365.427 264.764C365.749 264.694 366.131 264.668 366.538 264.668Z" fill="#E1FA3F"/>
<path fill-rule="evenodd" clip-rule="evenodd" d="M348.213 284.544C348.228 282.525 349.154 281.454 350.819 281.034C351.307 280.911 351.574 280.92 352.068 280.919L357.395 280.9C359.474 280.893 361.168 280.811 361.577 283.218C361.664 283.73 361.747 284.169 361.846 284.577C362.051 285.422 362.326 286.137 362.858 287.103C363.922 289.035 366.976 291.013 369.143 291.417C372.116 291.971 374.847 291.744 377.872 291.752C379.584 291.781 380.928 292.197 381.526 293.914C382.029 295.358 382.087 297.059 381.902 299.102C381.796 300.278 381.435 301.602 380.954 302.824C380.618 303.676 380.196 304.476 379.881 305.152C379.56 305.842 379.036 306.569 378.482 307.305C377.982 307.97 377.465 308.655 376.906 309.122C376.269 309.655 375.716 310.23 375.128 310.693C374.077 311.521 373 312.16 371.747 312.754C370.865 313.172 369.859 313.626 368.697 313.851C367.463 314.034 364.436 314.368 364.436 312.59L364.446 303.162C364.448 302.139 364.416 301.882 364.084 300.863C363.797 299.985 363.222 299.491 362.546 299.056C361.546 298.412 360.449 297.939 359.007 297.909L352.811 297.915C349.864 298.115 348.296 297.577 348.284 294.199L348.213 284.544Z" fill="#E1FA3F"/>
</g>
<path d="M91.3846 280H99.3462C100.05 280 100.725 280.275 101.223 280.765C101.72 281.254 102 281.919 102 282.611V324.389C102 325.081 101.72 325.746 101.223 326.235C100.725 326.725 100.05 327 99.3462 327H35.6538C34.95 327 34.275 326.725 33.7773 326.235C33.2796 325.746 33 325.081 33 324.389V282.611C33 281.919 33.2796 281.254 33.7773 280.765C34.275 280.275 34.95 280 35.6538 280H43.6154" stroke="#5E6B79" stroke-width="5" stroke-linecap="round" stroke-linejoin="round"/>
<path d="M63 327L57 341" stroke="#5E6B79" stroke-width="5" stroke-linecap="round" stroke-linejoin="round"/>
<path d="M74 327L80 341" stroke="#5E6B79" stroke-width="5" stroke-linecap="round" stroke-linejoin="round"/>
<path d="M64.6149 282.027C64.8429 281.43 65.2431 280.917 65.7629 280.555C66.2828 280.194 66.898 280 67.528 280C68.1579 280 68.7732 280.194 69.293 280.555C69.8128 280.917 70.213 281.43 70.441 282.027L73.8307 290.86H82.8876C83.5315 290.869 84.158 291.074 84.6865 291.449C85.215 291.823 85.6214 292.349 85.8536 292.96C86.0324 293.533 86.0478 294.146 85.8978 294.727C85.7477 295.309 85.4386 295.835 85.0062 296.245L77.0086 303.462L80.3983 310.355C80.7051 310.961 80.8091 311.651 80.6944 312.322C80.5796 312.993 80.2525 313.607 79.7627 314.071C79.2849 314.556 78.6654 314.871 77.9971 314.968C77.3288 315.065 76.6475 314.94 76.0552 314.61L67.528 309.871L59.0007 314.61C58.4085 314.94 57.7272 315.065 57.0589 314.968C56.3905 314.871 55.7711 314.556 55.2932 314.071C54.8035 313.607 54.4763 312.993 54.3616 312.322C54.2469 311.651 54.3508 310.961 54.6577 310.355L58.0474 303.462L50.0498 296.245C49.5764 295.818 49.2419 295.254 49.0906 294.629C48.9392 294.004 48.9782 293.347 49.2024 292.745C49.4667 292.174 49.8869 291.693 50.4128 291.359C50.9388 291.025 51.5482 290.851 52.1684 290.86H61.2252L64.6149 282.027Z" stroke="#5E6B79" stroke-width="5" stroke-linecap="round" stroke-linejoin="round"/>
</g>
<defs>
<clipPath id="clip0_9010_184612">
<rect width="390" height="325" fill="white"/>
</clipPath>
<clipPath id="clip1_9010_184612">
<rect x="332" y="264" width="50" height="50" rx="20" fill="white"/>
</clipPath>
</defs>
</svg>
