<svg width="842" height="170" viewBox="0 0 842 170" fill="none" xmlns="http://www.w3.org/2000/svg">
<g clip-path="url(#clip0_9010_183699)">
<g clip-path="url(#clip1_9010_183699)">
<path fill-rule="evenodd" clip-rule="evenodd" d="M803.101 114H811.527C813.837 114 815.727 115.999 815.727 118.491V123.019C815.727 125.511 813.837 127.51 811.527 127.51H790.441C789.815 127.51 789.397 127.533 788.85 127.389C788.215 127.219 787.641 126.723 787.361 125.841C787.323 125.582 787.369 125.254 787.469 124.908C787.57 124.56 787.721 124.215 787.871 123.944C791.059 118.211 796.472 114 803.101 114Z" fill="#E1FA3F"/>
<path fill-rule="evenodd" clip-rule="evenodd" d="M790.472 130.898H794.994C797.464 130.898 799.466 132.889 799.466 135.345V145.749C799.466 148.445 801.663 150.629 804.375 150.629H811.412C812.64 150.629 814.468 151.125 815.086 151.928C815.709 152.738 815.679 153.37 815.679 154.624L815.731 159.901C815.731 162.786 813.967 163.894 810.904 164.001H803.916C794.069 164.005 786.128 156.151 786 146.375V135.345C786 132.889 788.002 130.898 790.472 130.898Z" fill="#E1FA3F"/>
<path fill-rule="evenodd" clip-rule="evenodd" d="M820.538 114.668C821.35 114.669 822.225 114.777 822.871 114.843C826.675 115.402 828.544 116.831 831.271 119.311C835.815 123.446 836.027 130.243 835.998 135.938C835.927 136.561 835.661 137.002 835.348 137.317C834.491 138.179 833.429 138.205 832.277 138.265C829.895 138.388 826.366 138.25 825.357 138.13C823.534 137.915 822.027 137.317 820.891 136.367C820.81 136.3 820.732 136.231 820.655 136.16C819.915 135.477 819.344 134.624 818.966 133.605C818.594 132.603 818.62 132.055 818.596 131.011C818.542 128.575 818.554 126.143 818.547 123.684C818.546 123.289 818.522 122.593 818.496 121.767C818.471 120.937 818.443 119.971 818.434 119.029C818.426 118.086 818.436 117.17 818.485 116.442C818.546 115.552 818.447 114.975 819.427 114.764C819.749 114.694 820.131 114.668 820.538 114.668Z" fill="#E1FA3F"/>
<path fill-rule="evenodd" clip-rule="evenodd" d="M802.215 134.544C802.23 132.525 803.156 131.454 804.821 131.034C805.309 130.911 805.576 130.92 806.07 130.919L811.397 130.9C813.476 130.893 815.17 130.811 815.579 133.218C815.666 133.73 815.749 134.169 815.848 134.577C816.053 135.422 816.328 136.137 816.86 137.103C817.924 139.035 820.978 141.013 823.145 141.417C826.117 141.971 828.849 141.744 831.874 141.752C833.586 141.781 834.93 142.197 835.528 143.914C836.031 145.358 836.089 147.059 835.904 149.102C835.798 150.278 835.437 151.602 834.955 152.824C834.62 153.676 834.198 154.476 833.883 155.152C833.562 155.842 833.038 156.569 832.484 157.305C831.984 157.97 831.467 158.655 830.908 159.122C830.271 159.655 829.718 160.23 829.13 160.693C828.079 161.521 827.002 162.16 825.749 162.754C824.867 163.172 823.861 163.626 822.699 163.851C821.465 164.034 818.438 164.368 818.438 162.59L818.448 153.162C818.45 152.139 818.418 151.882 818.085 150.863C817.799 149.985 817.224 149.491 816.548 149.056C815.548 148.412 814.451 147.939 813.009 147.909L806.813 147.915C803.866 148.115 802.298 147.577 802.286 144.199L802.215 134.544Z" fill="#E1FA3F"/>
</g>
<path d="M842 82C842 95.2548 831.255 106 818 106H803C789.745 106 779 116.745 779 130V146C779 159.255 768.255 170 755 170H24C10.7452 170 0 159.255 0 146V24C0 10.7452 10.7452 0 24 0H818C831.255 0 842 10.7452 842 24V82Z" fill="#2C3E50"/>
<path d="M91.3846 126H99.3462C100.05 126 100.725 126.275 101.223 126.765C101.72 127.254 102 127.919 102 128.611V170.389C102 171.081 101.72 171.746 101.223 172.235C100.725 172.725 100.05 173 99.3462 173H35.6538C34.95 173 34.275 172.725 33.7773 172.235C33.2796 171.746 33 171.081 33 170.389V128.611C33 127.919 33.2796 127.254 33.7773 126.765C34.275 126.275 34.95 126 35.6538 126H43.6154" stroke="#5E6B79" stroke-width="5" stroke-linecap="round" stroke-linejoin="round"/>
<path d="M64.6149 128.027C64.8429 127.43 65.2431 126.917 65.7629 126.555C66.2828 126.194 66.898 126 67.528 126C68.1579 126 68.7732 126.194 69.293 126.555C69.8128 126.917 70.213 127.43 70.441 128.027L73.8307 136.86H82.8876C83.5315 136.869 84.158 137.074 84.6865 137.449C85.215 137.823 85.6214 138.349 85.8536 138.96C86.0324 139.533 86.0478 140.146 85.8978 140.727C85.7477 141.309 85.4386 141.835 85.0062 142.245L77.0086 149.462L80.3983 156.355C80.7051 156.961 80.8091 157.651 80.6944 158.322C80.5796 158.993 80.2525 159.607 79.7627 160.071C79.2849 160.556 78.6654 160.871 77.9971 160.968C77.3288 161.065 76.6475 160.94 76.0552 160.61L67.528 155.871L59.0007 160.61C58.4085 160.94 57.7272 161.065 57.0589 160.968C56.3905 160.871 55.7711 160.556 55.2932 160.071C54.8035 159.607 54.4763 158.993 54.3616 158.322C54.2469 157.651 54.3508 156.961 54.6577 156.355L58.0474 149.462L50.0498 142.245C49.5764 141.818 49.2419 141.254 49.0906 140.629C48.9392 140.004 48.9782 139.347 49.2024 138.745C49.4667 138.174 49.8869 137.693 50.4128 137.359C50.9388 137.025 51.5482 136.851 52.1684 136.86H61.2252L64.6149 128.027Z" stroke="#5E6B79" stroke-width="5" stroke-linecap="round" stroke-linejoin="round"/>
</g>
<defs>
<clipPath id="clip0_9010_183699">
<rect width="842" height="170" fill="white"/>
</clipPath>
<clipPath id="clip1_9010_183699">
<rect x="786" y="114" width="50" height="50" rx="20" fill="white"/>
</clipPath>
</defs>
</svg>
