<svg width="276" height="82" viewBox="0 0 276 82" fill="none" xmlns="http://www.w3.org/2000/svg">
<g clip-path="url(#clip0_681_7689)">
<path d="M265.638 0.851746H10.3612C5.15704 0.851746 0.938232 5.04158 0.938232 10.21V71.4641C0.938232 76.6325 5.15704 80.8224 10.3612 80.8224H265.638C270.842 80.8224 275.061 76.6325 275.061 71.4641V10.21C275.061 5.04158 270.842 0.851746 265.638 0.851746Z" fill="black"/>
<path fill-rule="evenodd" clip-rule="evenodd" d="M50.689 42.0232C50.7089 40.322 51.1605 38.6531 52.002 37.1711C52.8435 35.6892 54.0477 34.4419 55.5033 33.5446C54.5843 32.2292 53.3682 31.1455 51.9521 30.3803C50.5361 29.6151 48.9594 29.1896 47.3481 29.1377C43.9182 28.7804 40.591 31.1915 38.8435 31.1915C37.0617 31.1915 34.3684 29.1752 31.4696 29.2347C29.5911 29.2976 27.7613 29.8439 26.1594 30.8201C24.5574 31.7963 23.2382 33.169 22.331 34.8037C18.3785 41.6404 21.327 51.6895 25.1116 57.2159C27.0065 59.9213 29.22 62.9449 32.1155 62.836C34.9492 62.7186 36.008 61.0324 39.4294 61.0324C42.8182 61.0324 43.8119 62.836 46.7656 62.7679C49.8067 62.7186 51.7238 60.0507 53.5501 57.318C54.9116 55.3886 55.9587 53.2583 56.6529 51.0055C54.8821 50.2526 53.373 48.9999 52.3127 47.4028C51.2525 45.8057 50.6879 43.9345 50.689 42.0215V42.0232ZM45.1106 25.505C46.7707 23.5118 47.5876 20.9567 47.3892 18.3774C44.8521 18.6446 42.5105 19.8548 40.8343 21.7651C39.1731 23.6568 38.333 26.1243 38.4974 28.629C39.7662 28.6411 41.0211 28.3662 42.167 27.8249C43.3128 27.2836 44.3195 26.4903 45.1106 25.505Z" fill="white"/>
<path d="M91.8391 30.2532H94.2754C94.4399 30.2532 94.6455 30.243 94.8922 30.2226C95.1389 30.192 95.401 30.1307 95.6786 30.0388C95.9561 29.9367 96.2285 29.7938 96.4958 29.61C96.7733 29.4263 97.02 29.1762 97.2359 28.8597C97.4727 28.4968 97.6497 28.0988 97.7602 27.6805C97.9041 27.2007 97.9761 26.6239 97.9761 25.9501C97.9838 25.3621 97.9164 24.7755 97.7756 24.2044C97.671 23.7225 97.4545 23.2715 97.1434 22.8874C96.8502 22.5159 96.4613 22.2302 96.0178 22.0605C95.5552 21.8665 94.9847 21.7695 94.3062 21.7695H91.8391V30.2532ZM90.3743 20.5444H94.152C95.8482 20.5444 97.1537 20.9732 98.0686 21.8308C98.9835 22.6883 99.4409 23.9951 99.4409 25.751C99.4409 26.6698 99.3381 27.4866 99.1325 28.2012C98.9269 28.9056 98.6082 29.5028 98.1765 29.9929C97.7239 30.4869 97.1579 30.8651 96.5266 31.0955C95.8585 31.3507 95.0669 31.4783 94.152 31.4783H90.3743V20.5444ZM102.28 27.5274C102.28 28.0072 102.341 28.436 102.465 28.8137C102.598 29.1813 102.778 29.4926 103.004 29.7479C103.231 29.9929 103.493 30.1817 103.791 30.3145C104.249 30.5115 104.757 30.5628 105.246 30.4613C105.735 30.3599 106.18 30.1106 106.52 29.7479C106.746 29.4926 106.921 29.1813 107.044 28.8137C107.178 28.436 107.245 28.0072 107.245 27.5274C107.245 27.0476 107.176 26.6239 107.044 26.2564C106.937 25.9075 106.759 25.5843 106.52 25.3069C106.3 25.056 106.026 24.8572 105.718 24.725C105.414 24.5937 105.086 24.526 104.755 24.526C104.423 24.526 104.095 24.5937 103.791 24.725C103.489 24.86 103.22 25.0585 103.003 25.3069C102.778 25.5622 102.598 25.8786 102.465 26.2564C102.335 26.6675 102.272 27.0966 102.28 27.5274ZM100.892 27.5274C100.892 26.9455 100.974 26.4044 101.139 25.9042C101.303 25.3937 101.55 24.9547 101.879 24.5872C102.213 24.2054 102.629 23.9021 103.095 23.699C103.622 23.4763 104.19 23.3667 104.762 23.3774C105.4 23.3774 105.955 23.4846 106.428 23.699C106.911 23.9134 107.317 24.2095 107.644 24.5872C107.975 24.9547 108.221 25.3937 108.386 25.9042C108.55 26.4044 108.633 26.9455 108.633 27.5274C108.633 28.1093 108.55 28.6504 108.386 29.1506C108.221 29.6509 107.975 30.0899 107.646 30.4676C107.307 30.8419 106.892 31.1396 106.428 31.3405C105.955 31.5446 105.4 31.6467 104.762 31.6467C104.135 31.6467 103.58 31.5446 103.097 31.3405C102.633 31.1396 102.217 30.8419 101.879 30.4676C101.546 30.0824 101.294 29.6345 101.139 29.1506C100.971 28.6259 100.887 28.078 100.892 27.5274ZM118.381 31.4783H116.993L115.374 25.1844H115.343L113.74 31.4783H112.321L109.762 23.5612H111.211L113.015 30.0388H113.046L114.65 23.5612H116.084L117.749 30.0388H117.78L119.568 23.5612H120.925L118.381 31.4783ZM122.479 23.5612H123.713V24.8169H123.744C124.288 23.8573 125.152 23.3774 126.334 23.3774C126.858 23.3774 127.295 23.4489 127.645 23.5918C127.994 23.7348 128.279 23.9338 128.493 24.1891C128.709 24.4443 128.858 24.7505 128.94 25.1079C129.032 25.455 129.079 25.8429 129.079 26.2717V31.4783H127.768V26.1186C127.768 25.6285 127.624 25.2406 127.336 24.9547C127.048 24.6689 126.653 24.5259 126.149 24.5259C125.748 24.5259 125.399 24.5872 125.101 24.7097C124.822 24.8256 124.574 25.0038 124.376 25.2304C124.176 25.4641 124.025 25.7347 123.93 26.0267C123.834 26.3445 123.787 26.6749 123.79 27.0067V31.4783H122.479V23.5612ZM131.433 20.5444H132.743V31.4783H131.433V20.5444ZM136.038 27.5274C136.038 28.0072 136.1 28.436 136.223 28.8137C136.357 29.1813 136.537 29.4926 136.763 29.7479C136.989 29.9929 137.251 30.1817 137.551 30.3145C138.009 30.5111 138.517 30.5622 139.005 30.4607C139.493 30.3593 139.938 30.1103 140.278 29.7479C140.504 29.4926 140.679 29.1813 140.803 28.8137C140.936 28.436 141.003 28.0072 141.003 27.5274C141.003 27.0476 140.936 26.6239 140.803 26.2564C140.695 25.9075 140.517 25.5843 140.278 25.3069C140.058 25.056 139.784 24.8572 139.477 24.725C139.172 24.5937 138.844 24.526 138.513 24.526C138.181 24.526 137.853 24.5937 137.549 24.725C137.248 24.8602 136.979 25.0587 136.763 25.3069C136.537 25.5622 136.357 25.8786 136.223 26.2564C136.093 26.6675 136.031 27.0966 136.038 27.5274ZM134.65 27.5274C134.65 26.9455 134.732 26.4044 134.897 25.9042C135.061 25.3937 135.308 24.9547 135.637 24.5872C135.972 24.2052 136.388 23.9019 136.855 23.699C137.338 23.4846 137.893 23.3774 138.521 23.3774C139.158 23.3774 139.713 23.4846 140.186 23.699C140.653 23.9014 141.07 24.2048 141.404 24.5872C141.733 24.9547 141.98 25.3937 142.144 25.9042C142.309 26.4044 142.391 26.9455 142.391 27.5274C142.391 28.1093 142.309 28.6504 142.144 29.1506C141.98 29.6509 141.733 30.0899 141.404 30.4676C141.066 30.8417 140.651 31.1394 140.188 31.3405C139.713 31.5446 139.16 31.6467 138.521 31.6467C137.893 31.6467 137.338 31.5446 136.855 31.3405C136.391 31.1394 135.977 30.8417 135.639 30.4676C135.305 30.0825 135.053 29.6346 134.897 29.1506C134.729 28.6259 134.645 28.078 134.65 27.5274ZM151.307 31.4477C151.08 31.5804 150.767 31.6467 150.366 31.6467C150.068 31.6611 149.776 31.5626 149.549 31.3711C149.354 31.1771 149.258 30.8657 149.258 30.437C148.898 30.8657 148.475 31.1771 147.991 31.3711C147.499 31.5583 146.976 31.6519 146.45 31.6467C146.09 31.6467 145.747 31.6059 145.416 31.5242C145.117 31.4513 144.834 31.3213 144.584 31.1414C144.344 30.9636 144.148 30.733 144.013 30.4676C143.872 30.1442 143.804 29.794 143.813 29.4416C143.813 28.9924 143.89 28.6249 144.044 28.339C144.198 28.0532 144.399 27.8235 144.645 27.6499C144.902 27.4661 145.19 27.3283 145.509 27.2364C145.838 27.1446 146.172 27.068 146.511 27.0067C146.871 26.9353 147.21 26.8842 147.529 26.8536C147.82 26.8196 148.108 26.7685 148.392 26.7005C148.606 26.6456 148.806 26.5465 148.978 26.4095C149.122 26.2768 149.194 26.0879 149.194 25.8429C149.206 25.6018 149.147 25.3625 149.025 25.1538C148.926 24.9847 148.782 24.8466 148.608 24.7557C148.431 24.6597 148.238 24.5974 148.038 24.5719C147.834 24.5414 147.627 24.526 147.421 24.5259C146.866 24.5259 146.403 24.6331 146.033 24.8475C145.663 25.0517 145.463 25.4448 145.434 26.0267H144.121C144.142 25.5366 144.245 25.1232 144.43 24.7863C144.615 24.4494 144.861 24.1788 145.17 23.9747C145.478 23.7603 145.828 23.6071 146.218 23.5153C146.619 23.4234 147.046 23.3774 147.498 23.3774C147.858 23.3774 148.212 23.403 148.562 23.454C148.922 23.505 149.247 23.6122 149.533 23.7756C149.821 23.9287 150.053 24.1482 150.227 24.4341C150.402 24.7199 150.489 25.0925 150.489 25.552V29.6254C150.489 29.9316 150.507 30.1562 150.536 30.2991C150.577 30.4421 150.7 30.5135 150.906 30.5135C151.043 30.5092 151.178 30.4833 151.307 30.437V31.4477ZM149.179 27.3896C148.984 27.525 148.764 27.6189 148.531 27.6652C148.264 27.7163 147.983 27.7622 147.683 27.803C147.389 27.8346 147.096 27.8754 146.804 27.9256C146.528 27.9604 146.259 28.0325 146.002 28.1399C145.773 28.2369 145.571 28.3896 145.416 28.584C145.273 28.7678 145.201 29.023 145.201 29.3497C145.195 29.5408 145.238 29.7302 145.324 29.901C145.416 30.0439 145.53 30.1613 145.663 30.2532C145.807 30.3451 145.972 30.4114 146.157 30.4523C146.342 30.4931 146.537 30.5135 146.742 30.5135C147.174 30.5135 147.544 30.4574 147.853 30.3451C148.161 30.2226 148.413 30.0745 148.608 29.901C148.804 29.7172 148.947 29.5233 149.04 29.3191C149.126 29.1314 149.174 28.9282 149.179 28.7219V27.3896ZM153.791 27.5887C153.791 27.9562 153.837 28.3186 153.93 28.6759C154.032 29.023 154.182 29.3344 154.377 29.61C154.582 29.8857 154.839 30.1052 155.148 30.2685C155.466 30.4319 155.837 30.5135 156.258 30.5135C156.7 30.5135 157.075 30.4268 157.384 30.2532C157.692 30.0797 157.944 29.8551 158.139 29.5794C158.334 29.2936 158.473 28.972 158.555 28.6147C158.741 27.8911 158.741 27.133 158.555 26.4095C158.473 26.0618 158.321 25.7339 158.11 25.4448C157.911 25.166 157.646 24.9399 157.339 24.7863C156.981 24.6034 156.583 24.5138 156.181 24.5259C155.739 24.5259 155.364 24.6127 155.055 24.7863C154.747 24.9598 154.5 25.1895 154.315 25.4754C154.13 25.7612 153.996 26.0879 153.914 26.4555C153.831 26.8276 153.79 27.2076 153.791 27.5887ZM159.959 31.4783H158.648V30.4063H158.617C158.409 30.8379 158.046 31.1766 157.599 31.3558C157.137 31.5498 156.628 31.6467 156.075 31.6467C155.458 31.6467 154.916 31.5344 154.454 31.3098C154.012 31.0939 153.623 30.7857 153.313 30.4063C153.007 30.0129 152.777 29.5663 152.634 29.0894C152.478 28.5729 152.4 28.0361 152.403 27.4968C152.403 26.9353 152.475 26.4044 152.619 25.9042C152.773 25.4039 152.999 24.97 153.297 24.6025C153.606 24.2248 153.986 23.9287 154.438 23.7143C154.901 23.4897 155.436 23.3774 156.042 23.3774C156.248 23.3774 156.47 23.3979 156.705 23.4387C156.942 23.4795 157.178 23.551 157.414 23.6531C157.651 23.745 157.872 23.8726 158.077 24.0359C158.293 24.1891 158.473 24.383 158.617 24.6178H158.648V20.5444H159.959V31.4783ZM167.84 27.5274C167.84 28.0072 167.901 28.436 168.025 28.8137C168.158 29.1813 168.338 29.4926 168.564 29.7479C168.791 29.9929 169.053 30.1817 169.352 30.3145C169.81 30.5111 170.318 30.5622 170.807 30.4607C171.295 30.3593 171.74 30.1103 172.08 29.7479C172.306 29.4926 172.481 29.1813 172.604 28.8137C172.738 28.436 172.805 28.0072 172.805 27.5274C172.805 27.0476 172.738 26.6239 172.604 26.2564C172.497 25.9075 172.319 25.5843 172.08 25.3069C171.86 25.056 171.586 24.8572 171.278 24.725C170.974 24.5937 170.646 24.526 170.314 24.526C169.983 24.526 169.655 24.5937 169.351 24.725C169.049 24.8602 168.781 25.0587 168.564 25.3069C168.338 25.5622 168.158 25.8786 168.025 26.2564C167.895 26.6675 167.832 27.0966 167.84 27.5274ZM166.452 27.5274C166.452 26.9455 166.534 26.4044 166.699 25.9042C166.863 25.3937 167.11 24.9547 167.439 24.5872C167.774 24.2052 168.19 23.9019 168.657 23.699C169.14 23.4846 169.695 23.3774 170.322 23.3774C170.96 23.3774 171.515 23.4846 171.987 23.699C172.471 23.9134 172.877 24.2095 173.206 24.5872C173.535 24.9547 173.781 25.3937 173.946 25.9042C174.11 26.4044 174.192 26.9455 174.192 27.5274C174.192 28.1093 174.11 28.6504 173.946 29.1506C173.781 29.6509 173.535 30.0899 173.206 30.4676C172.867 30.8419 172.452 31.1396 171.987 31.3405C171.515 31.5446 170.96 31.6467 170.322 31.6467C169.695 31.6467 169.14 31.5446 168.657 31.3405C168.193 31.1394 167.778 30.8417 167.44 30.4676C167.107 30.0825 166.854 29.6346 166.699 29.1506C166.53 28.6259 166.447 28.078 166.452 27.5274ZM176.046 23.5612H177.28V24.8169H177.311C177.855 23.8573 178.719 23.3774 179.901 23.3774C180.425 23.3774 180.862 23.4489 181.212 23.5918C181.561 23.7348 181.844 23.9338 182.06 24.1891C182.276 24.4443 182.425 24.7505 182.507 25.1079C182.599 25.455 182.646 25.8429 182.646 26.2717V31.4783H181.335V26.1186C181.335 25.6285 181.191 25.2406 180.903 24.9547C180.616 24.6689 180.22 24.5259 179.716 24.5259C179.315 24.5259 178.966 24.5872 178.668 24.7097C178.389 24.8256 178.141 25.0038 177.943 25.2304C177.742 25.464 177.59 25.7346 177.496 26.0267C177.4 26.3446 177.353 26.675 177.357 27.0067V31.4783H176.046V23.5612ZM191.342 23.5612H192.93V24.7097H191.342V29.6254C191.342 29.7785 191.353 29.901 191.373 29.9929C191.4 30.079 191.454 30.1542 191.527 30.2073C191.599 30.2583 191.697 30.294 191.82 30.3145C191.954 30.3247 192.124 30.3298 192.329 30.3298H192.93V31.4783H191.928C191.589 31.4783 191.296 31.4579 191.049 31.417C190.836 31.3766 190.636 31.2874 190.463 31.1567C190.308 31.0168 190.196 30.8364 190.14 30.636C190.059 30.347 190.023 30.0476 190.032 29.7479V24.7097H188.675V23.5612H190.032V21.1876H191.342V23.5612ZM194.695 20.5444H196.006V24.725H196.037C196.132 24.4909 196.279 24.2814 196.468 24.1125C196.653 23.9389 196.859 23.8011 197.085 23.699C197.322 23.5867 197.563 23.505 197.81 23.454C198.067 23.403 198.314 23.3774 198.55 23.3774C199.074 23.3774 199.511 23.4489 199.861 23.5918C200.21 23.7348 200.493 23.9338 200.709 24.1891C200.925 24.4443 201.074 24.7505 201.156 25.1079C201.248 25.455 201.295 25.8429 201.295 26.2717V31.4783H199.984V26.1186C199.984 25.6285 199.84 25.2406 199.552 24.9547C199.264 24.6689 198.869 24.5259 198.365 24.5259C197.964 24.5259 197.615 24.5872 197.316 24.7097C197.038 24.8256 196.79 25.0038 196.592 25.2304C196.391 25.464 196.239 25.7346 196.145 26.0267C196.049 26.3446 196.002 26.675 196.006 27.0067V31.4783H194.695V20.5444ZM209.107 26.7617C209.088 26.4604 209.015 26.1648 208.891 25.8889C208.785 25.6227 208.622 25.3825 208.413 25.1844C208.214 24.9775 207.972 24.8156 207.704 24.7097C207.423 24.5843 207.118 24.5216 206.81 24.5259C206.47 24.5259 206.162 24.5872 205.884 24.7097C205.623 24.8184 205.386 24.98 205.191 25.1844C204.995 25.3886 204.841 25.6285 204.728 25.9042C204.613 26.1768 204.545 26.4667 204.528 26.7617H209.107ZM210.372 28.9669C210.197 29.8551 209.811 30.5237 209.215 30.9729C208.619 31.4221 207.868 31.6467 206.964 31.6467C206.327 31.6467 205.771 31.5446 205.299 31.3405C204.848 31.1453 204.448 30.8522 204.127 30.4829C203.798 30.0971 203.551 29.6491 203.402 29.1659C203.243 28.6231 203.155 28.0621 203.14 27.4968C203.133 26.9335 203.227 26.3736 203.417 25.8429C203.602 25.3427 203.859 24.9088 204.188 24.5413C204.528 24.1737 204.923 23.8879 205.376 23.6837C205.838 23.4795 206.342 23.3774 206.887 23.3774C207.596 23.3774 208.182 23.5255 208.645 23.8215C209.117 24.1074 209.493 24.4749 209.77 24.9241C210.058 25.3733 210.253 25.8633 210.356 26.3942C210.469 26.9251 210.515 27.4304 210.495 27.9102H204.528C204.517 28.2573 204.558 28.5891 204.651 28.9056C204.743 29.2119 204.893 29.4875 205.098 29.7325C205.304 29.9674 205.566 30.1562 205.884 30.2991C206.203 30.4421 206.578 30.5135 207.01 30.5135C207.565 30.5135 208.018 30.3859 208.367 30.1307C208.727 29.8755 208.963 29.4875 209.076 28.9669H210.372ZM118.16 44.2004C122.097 44.2004 124.691 47.2904 124.691 52.0648C124.691 56.8511 122.113 59.9257 118.218 59.9257C117.232 59.9768 116.252 59.7512 115.389 59.2749C114.526 58.7986 113.816 58.0907 113.339 57.2322H113.265V64.8618H110.08V44.3604H113.162V46.9228H113.221C113.719 46.0681 114.442 45.3635 115.312 44.8842C116.182 44.4048 117.166 44.1685 118.16 44.2004ZM135.233 44.2004C139.17 44.2004 141.764 47.2904 141.764 52.0648C141.764 56.8511 139.184 59.9257 135.291 59.9257C134.305 59.9771 133.324 59.7517 132.461 59.2754C131.598 58.799 130.887 58.091 130.41 57.2322H130.336V64.8618H127.155V44.3604H130.237V46.9228H130.295C130.794 46.0681 131.516 45.3635 132.386 44.8842C133.256 44.4048 134.239 44.1685 135.233 44.2004ZM158.091 38.2843C162.587 38.2843 165.667 40.7889 165.772 44.4335H162.558C162.366 42.3254 160.61 41.0526 158.045 41.0526C155.48 41.0526 153.726 42.3407 153.726 44.214C153.726 45.708 154.846 46.5876 157.589 47.2597L159.933 47.8314C164.298 48.8574 166.111 50.5981 166.111 53.6897C166.111 57.6423 162.941 60.118 157.898 60.118C153.179 60.118 149.994 57.7018 149.789 53.8786H153.047C153.284 55.9748 155.333 57.3496 158.134 57.3496C160.817 57.3496 162.748 55.9748 162.748 54.0844C162.748 52.4442 161.583 51.4641 158.826 50.7903L156.068 50.1302C152.162 49.1943 150.349 47.3788 150.349 44.4335C150.349 40.7889 153.548 38.2843 158.091 38.2843ZM184.998 44.1715C189.495 44.1715 192.357 47.2172 192.357 52.0648C192.357 56.9243 189.509 59.9563 184.998 59.9563C180.487 59.9563 177.641 56.9243 177.641 52.0648C177.641 47.2172 180.514 44.1715 184.998 44.1715ZM210.779 44.1715C215.071 44.1715 217.771 47.0981 217.771 51.7704V52.8543H206.815V53.0448C206.764 53.6118 206.835 54.1831 207.024 54.7206C207.213 55.2581 207.515 55.7495 207.91 56.1622C208.304 56.5749 208.783 56.8993 209.314 57.1141C209.845 57.3288 210.416 57.4288 210.988 57.4075C211.74 57.4776 212.495 57.3047 213.14 56.9144C213.786 56.5241 214.287 55.9374 214.569 55.2415H217.593C217.165 58.037 214.422 59.9563 210.915 59.9563C206.402 59.9563 203.601 56.9549 203.601 52.1379C203.601 47.3057 206.417 44.1715 210.779 44.1715ZM172.983 40.7157V44.3604H175.933V46.865H172.983V55.3572C172.983 56.6775 173.574 57.2918 174.871 57.2918C175.221 57.2858 175.57 57.2613 175.918 57.2186V59.7079C175.335 59.8151 174.742 59.8645 174.15 59.8542C171.009 59.8542 169.784 58.6819 169.784 55.6941V46.865H167.528V44.3604H169.784V40.7174L172.983 40.7157ZM100.421 38.6365L108.103 59.7658H104.608L102.664 54.0555H94.5547L92.6067 59.7658H89.1716L96.8522 38.6365H100.421ZM201.822 44.2004C202.189 44.1987 202.556 44.2379 202.914 44.3178V47.275C202.45 47.1348 201.967 47.0705 201.483 47.0845C201.021 47.0661 200.56 47.1473 200.132 47.3224C199.704 47.4976 199.319 47.7625 199.004 48.0992C198.688 48.4358 198.45 48.8361 198.305 49.2728C198.161 49.7094 198.113 50.1719 198.164 50.6287V59.7658H194.981V44.3604H198.017V46.9824H198.091C198.297 46.1637 198.78 45.4404 199.459 44.9338C200.139 44.4272 200.973 44.1682 201.822 44.2004ZM184.998 46.7765C182.418 46.7765 180.884 48.7536 180.884 52.0648C180.884 55.4031 182.418 57.3496 184.998 57.3496C187.578 57.3496 189.112 55.4031 189.112 52.0648C189.112 48.74 187.578 46.7765 184.998 46.7765ZM117.321 46.8956C114.888 46.8956 113.252 48.9885 113.252 52.0648C113.252 55.1683 114.888 57.2475 117.321 57.2475C119.796 57.2475 121.419 55.2109 121.419 52.0648C121.419 48.9459 119.796 46.8956 117.321 46.8956ZM134.392 46.8956C131.959 46.8956 130.323 48.9885 130.323 52.0648C130.323 55.1683 131.96 57.2475 134.392 57.2475C136.869 57.2475 138.491 55.2109 138.491 52.0648C138.491 48.9459 136.869 46.8956 134.392 46.8956ZM98.6528 42.1518H98.5654L95.3942 51.4199H101.822L98.6528 42.1518ZM210.779 46.734C210.261 46.7306 209.747 46.8293 209.267 47.0245C208.787 47.2196 208.351 47.5073 207.984 47.8709C207.616 48.2345 207.325 48.6668 207.127 49.1428C206.929 49.6188 206.828 50.129 206.83 50.644H214.584C214.613 50.1342 214.535 49.6241 214.356 49.1456C214.176 48.6672 213.899 48.2307 213.542 47.8636C213.185 47.4964 212.755 47.2066 212.279 47.0122C211.804 46.8178 211.293 46.7231 210.779 46.734Z" fill="white"/>
<path d="M265.638 0.851746H10.3612C5.15704 0.851746 0.938232 5.04158 0.938232 10.21V71.4641C0.938232 76.6325 5.15704 80.8224 10.3612 80.8224H265.638C270.842 80.8224 275.061 76.6325 275.061 71.4641V10.21C275.061 5.04158 270.842 0.851746 265.638 0.851746Z" stroke="#A6A6A6" stroke-width="1.54098"/>
</g>
<defs>
<clipPath id="clip0_681_7689">
<rect width="275.836" height="81.6721" fill="white" transform="translate(0.0819702)"/>
</clipPath>
</defs>
</svg>
