<svg width="21" height="22" viewBox="0 0 21 22" fill="none" xmlns="http://www.w3.org/2000/svg">
<path d="M17.818 11.6444C17.9821 11.4725 18.0742 11.2394 18.0742 10.9963C18.0742 10.7533 17.9821 10.5201 17.818 10.3482L12.8682 5.16266C12.7874 5.07511 12.6909 5.00528 12.5841 4.95723C12.4774 4.90919 12.3626 4.88391 12.2464 4.88285C12.1302 4.88179 12.015 4.90498 11.9074 4.95107C11.7999 4.99717 11.7022 5.06523 11.6201 5.1513C11.5379 5.23737 11.4729 5.33971 11.4289 5.45237C11.3849 5.56502 11.3628 5.68573 11.3638 5.80745C11.3648 5.92916 11.389 6.04944 11.4348 6.16128C11.4807 6.27312 11.5473 6.37427 11.6309 6.45883L15.0872 10.0797L3.49953 10.0797C3.26747 10.0797 3.04491 10.1762 2.88081 10.3481C2.71672 10.5201 2.62453 10.7532 2.62453 10.9963C2.62453 11.2394 2.71672 11.4726 2.88081 11.6445C3.04491 11.8164 3.26747 11.913 3.49953 11.913L15.0872 11.913L11.6309 15.5338C11.4715 15.7067 11.3833 15.9383 11.3853 16.1786C11.3873 16.419 11.4793 16.6489 11.6416 16.8188C11.8038 16.9888 12.0233 17.0852 12.2527 17.0873C12.4821 17.0894 12.7031 16.997 12.8682 16.83L17.818 11.6444Z" fill="#2C3E50"/>
</svg>
