<svg width="942" height="668" viewBox="0 0 942 668" fill="none" xmlns="http://www.w3.org/2000/svg">
<g clip-path="url(#clip0_13_2522)">
<rect width="942" height="668" rx="20" fill="#EEF1F6"/>
<path d="M660.609 18.513C545.309 -31.5687 340 -65.2612 340 -65.2612L1068.73 -485.996L1534.45 320.638C1534.45 320.638 1418.87 178.681 1299.99 171.895C1186.43 165.414 1126.77 279.141 1009.3 278.818C827.033 278.317 822.102 88.6587 660.609 18.513Z" fill="url(#paint0_linear_13_2522)"/>
<g filter="url(#filter0_d_13_2522)">
<path d="M1299.99 171.898C1186.43 165.416 1126.77 279.144 1009.3 278.821C827.032 278.319 822.101 88.6615 660.608 18.5157C660.608 18.5157 625.688 4.13601 602.806 -3.67952C573.757 -13.6015 527.296 -25.5176 527.296 -25.5176" stroke="#EEEFF0"/>
</g>
</g>
<defs>
<filter id="filter0_d_13_2522" x="512.472" y="-41.7018" width="802.246" height="334.723" filterUnits="userSpaceOnUse" color-interpolation-filters="sRGB">
<feFlood flood-opacity="0" result="BackgroundImageFix"/>
<feColorMatrix in="SourceAlpha" type="matrix" values="0 0 0 0 0 0 0 0 0 0 0 0 0 0 0 0 0 0 127 0" result="hardAlpha"/>
<feOffset dy="-1"/>
<feGaussianBlur stdDeviation="7.35"/>
<feComposite in2="hardAlpha" operator="out"/>
<feColorMatrix type="matrix" values="0 0 0 0 0 0 0 0 0 0 0 0 0 0 0 0 0 0 1 0"/>
<feBlend mode="normal" in2="BackgroundImageFix" result="effect1_dropShadow_13_2522"/>
<feBlend mode="normal" in="SourceGraphic" in2="effect1_dropShadow_13_2522" result="shape"/>
</filter>
<linearGradient id="paint0_linear_13_2522" x1="405.384" y1="-81.4706" x2="1360.63" y2="358.405" gradientUnits="userSpaceOnUse">
<stop stop-color="#283C5F"/>
<stop offset="1" stop-color="#D2DFF5"/>
</linearGradient>
<clipPath id="clip0_13_2522">
<rect width="942" height="668" rx="20" fill="white"/>
</clipPath>
</defs>
</svg>
