<svg width="276" height="84" viewBox="0 0 276 84" fill="none" xmlns="http://www.w3.org/2000/svg">
<g clip-path="url(#clip0_681_7694)">
<path d="M265.638 1.65369H10.3615C5.15735 1.65369 0.938538 5.92258 0.938538 11.1885V73.5984C0.938538 78.8643 5.15735 83.1332 10.3615 83.1332H265.638C270.843 83.1332 275.061 78.8643 275.061 73.5984V11.1885C275.061 5.92258 270.843 1.65369 265.638 1.65369Z" fill="black"/>
<path fill-rule="evenodd" clip-rule="evenodd" d="M205.492 61.3816H208.689V39.7098H205.492V61.3816ZM234.287 47.5163L230.622 56.9124H230.513L226.709 47.5163H223.266L228.969 60.6483L225.717 67.9537H229.053L237.842 47.5163H234.287ZM216.157 58.9199C215.109 58.9199 213.649 58.3912 213.649 57.0806C213.649 55.4076 215.469 54.7662 217.038 54.7662C218.445 54.7662 219.104 55.0731 219.959 55.4909C219.842 56.4307 219.392 57.2957 218.693 57.926C217.994 58.5563 217.093 58.9094 216.157 58.9199ZM216.543 47.043C214.228 47.043 211.831 48.0745 210.839 50.3611L213.676 51.559C214.283 50.3611 215.412 49.9693 216.598 49.9693C218.251 49.9693 219.932 50.9731 219.959 52.7587V52.9806C219.38 52.646 218.141 52.145 216.625 52.145C213.567 52.145 210.452 53.8457 210.452 57.0234C210.452 59.9237 212.96 61.7925 215.77 61.7925C217.92 61.7925 219.104 60.8165 219.849 59.6723H219.959V61.3452H223.045V53.0378C223.045 49.1892 220.207 47.043 216.543 47.043ZM196.785 50.1548H192.238V42.7263H196.785C199.175 42.7263 200.532 44.7286 200.532 46.4397C200.532 48.1196 199.175 50.1548 196.785 50.1548ZM196.703 39.7098H189.043V61.3816H192.238V53.1713H196.703C200.246 53.1713 203.729 50.5743 203.729 46.4397C203.729 42.305 200.246 39.7098 196.703 39.7098ZM154.932 58.9234C152.724 58.9234 150.875 57.0528 150.875 54.4836C150.875 51.8867 152.724 49.9866 154.932 49.9866C157.113 49.9866 158.823 51.8867 158.823 54.4836C158.823 57.0528 157.113 58.9234 154.932 58.9234ZM158.602 48.7298H158.492C157.774 47.8647 156.395 47.0829 154.656 47.0829C151.012 47.0829 147.673 50.3212 147.673 54.4836C147.673 58.6165 151.012 61.8289 154.656 61.8289C156.395 61.8289 157.774 61.0471 158.492 60.1525H158.602V61.2135C158.602 64.0358 157.113 65.544 154.711 65.544C152.751 65.544 151.536 64.119 151.039 62.9176L148.252 64.0913C149.052 66.0468 151.178 68.4478 154.711 68.4478C158.465 68.4478 161.639 66.2132 161.639 60.7679V47.5284H158.602V48.7298ZM163.848 61.3816H167.05V39.7081H163.848V61.3816ZM171.768 54.2323C171.686 51.3839 173.949 49.9312 175.577 49.9312C176.848 49.9312 177.924 50.5726 178.282 51.4949L171.768 54.2323ZM181.705 51.774C181.099 50.1271 179.248 47.0829 175.467 47.0829C171.713 47.0829 168.595 50.0699 168.595 54.4559C168.595 58.5888 171.686 61.8289 175.825 61.8289C179.166 61.8289 181.099 59.7625 181.899 58.5611L179.415 56.8847C178.587 58.1138 177.455 58.9234 175.825 58.9234C174.198 58.9234 173.038 58.1693 172.292 56.6905L182.036 52.6131L181.705 51.774ZM104.08 49.3452V52.4726H111.477C111.256 54.2323 110.677 55.5169 109.794 56.4114C108.717 57.5001 107.032 58.6998 104.08 58.6998C99.5266 58.6998 95.9647 54.9864 95.9647 50.3784C95.9647 45.7688 99.5266 42.0554 104.08 42.0554C106.537 42.0554 108.331 43.0332 109.655 44.29L111.836 42.0831C109.986 40.2958 107.531 38.9262 104.08 38.9262C97.8425 38.9262 92.5981 44.0664 92.5981 50.3784C92.5981 56.6905 97.8425 61.8289 104.08 61.8289C107.447 61.8289 109.986 60.7125 111.973 58.6165C114.016 56.5501 114.651 53.6463 114.651 51.299C114.651 50.5726 114.597 49.9034 114.485 49.3452H104.08ZM123.062 58.9234C120.853 58.9234 118.948 57.0806 118.948 54.4559C118.948 51.8017 120.853 49.9866 123.062 49.9866C125.268 49.9866 127.174 51.8017 127.174 54.4559C127.174 57.0806 125.268 58.9234 123.062 58.9234ZM123.062 47.0829C119.03 47.0829 115.746 50.1825 115.746 54.4559C115.746 58.6998 119.03 61.8289 123.062 61.8289C127.091 61.8289 130.376 58.6998 130.376 54.4559C130.376 50.1825 127.091 47.0829 123.062 47.0829ZM139.017 58.9234C136.809 58.9234 134.904 57.0806 134.904 54.4559C134.904 51.8017 136.809 49.9866 139.017 49.9866C141.226 49.9866 143.129 51.8017 143.129 54.4559C143.129 57.0806 141.226 58.9234 139.017 58.9234ZM139.017 47.0829C134.988 47.0829 131.703 50.1825 131.703 54.4559C131.703 58.6998 134.988 61.8289 139.017 61.8289C143.047 61.8289 146.331 58.6998 146.331 54.4559C146.331 50.1825 143.047 47.0829 139.017 47.0829Z" fill="#FFFFFE"/>
<path d="M101.972 26.4663V30.5264C101.787 30.7831 101.569 31.0139 101.324 31.2129C101.028 31.4608 100.62 31.681 100.097 31.8682C99.5801 32.0502 98.9119 32.1421 98.0947 32.1421C97.4265 32.1421 96.8131 32.026 96.2495 31.7919C95.697 31.5563 95.2014 31.2027 94.7966 30.7552C94.3748 30.2709 94.0527 29.7063 93.8492 29.0944C93.6184 28.3765 93.5061 27.6251 93.5168 26.8702V26.0086C93.5168 25.1817 93.6128 24.4432 93.8029 23.7931C93.9982 23.1412 94.2844 22.5917 94.6613 22.1392C95.0335 21.6851 95.5091 21.3293 96.0473 21.1025C96.6438 20.8549 97.2839 20.7334 97.9285 20.7454C98.768 20.7454 99.467 20.8927 100.029 21.1874C100.596 21.477 101.04 21.8774 101.355 22.3906C101.675 22.9037 101.883 23.4879 101.972 24.1415H100.519C100.459 23.7545 100.326 23.3826 100.128 23.0459C99.9316 22.7102 99.647 22.436 99.3059 22.2536C98.9513 22.0508 98.4921 21.9485 97.9285 21.9485C97.4735 21.9372 97.0223 22.034 96.611 22.2311C96.2422 22.4165 95.9261 22.6939 95.6927 23.0372C95.4528 23.3891 95.2712 23.8121 95.1513 24.3097C95.0296 24.8621 94.9715 25.427 94.9782 25.993V26.8702C94.9782 27.5099 95.0502 28.082 95.1958 28.5847C95.3466 29.0875 95.559 29.5157 95.8366 29.8711C96.1107 30.223 96.4414 30.4882 96.8217 30.672C97.2089 30.854 97.6355 30.9459 98.1015 30.9459C98.6189 30.9459 99.0387 30.9026 99.3591 30.8159C99.6249 30.749 99.8791 30.6415 100.113 30.4969C100.265 30.3948 100.403 30.2743 100.526 30.1381V27.6538H97.9902V26.4663H101.972ZM110.882 30.7934V31.9913H105.078V30.7951L110.882 30.7934ZM105.373 20.8979V31.9895H103.918V20.8979H105.373ZM110.115 25.6653V26.8615H105.078V25.6653H110.115ZM110.807 20.8979V22.1011H105.078V20.8962L110.807 20.8979ZM116.421 20.8979V31.9895H114.991V20.8979H116.421ZM119.944 20.8979V22.1011H111.475V20.8962H119.946L119.944 20.8979ZM125.728 20.8979V31.9895H124.275V20.8979H125.728ZM131.733 20.8979V31.9895H130.302V20.8979H131.733ZM135.255 20.8979V22.1011H126.787V20.8962H135.257L135.255 20.8979ZM147.922 26.0935V26.7939C147.922 27.6261 147.819 28.3732 147.613 29.0337C147.43 29.6494 147.127 30.2217 146.722 30.7171C146.337 31.1799 145.873 31.5319 145.331 31.7763C144.795 32.019 144.192 32.1404 143.524 32.1404C142.876 32.1404 142.282 32.019 141.74 31.7763C141.202 31.5324 140.723 31.1713 140.339 30.7188C139.929 30.2228 139.62 29.6503 139.429 29.0337C139.203 28.3095 139.093 27.5533 139.103 26.7939V26.0935C139.103 25.2614 139.21 24.516 139.42 23.8607C139.612 23.2445 139.922 22.6725 140.332 22.1773C140.722 21.7093 141.188 21.3539 141.725 21.1112C142.287 20.8627 142.895 20.738 143.508 20.7454C144.176 20.7454 144.779 20.8667 145.316 21.1094C145.859 21.3539 146.323 21.7093 146.709 22.1773C147.101 22.6385 147.399 23.2002 147.605 23.8607C147.815 24.516 147.922 25.2597 147.922 26.0935ZM146.482 26.7939V26.0779C146.482 25.4174 146.414 24.8332 146.28 24.327C146.171 23.8651 145.974 23.4293 145.7 23.0441C145.455 22.7085 145.131 22.4393 144.759 22.2605C144.367 22.0771 143.94 21.9859 143.508 21.9936C143.058 21.9936 142.648 22.0837 142.282 22.2605C141.913 22.444 141.593 22.7131 141.348 23.0459C141.091 23.3926 140.894 23.8173 140.753 24.3253C140.605 24.8966 140.534 25.4856 140.543 26.0762V26.7939C140.543 27.4596 140.613 28.0491 140.753 28.5622C140.894 29.0702 141.096 29.4984 141.356 29.8485C141.622 30.1953 141.935 30.4553 142.297 30.6339C142.664 30.8107 143.073 30.9008 143.524 30.9008C143.997 30.9008 144.415 30.8107 144.781 30.6339C145.148 30.4553 145.456 30.1935 145.706 29.8485C145.963 29.4984 146.157 29.0684 146.289 28.5622C146.426 27.9833 146.491 27.3892 146.482 26.7939ZM158.068 20.8979V31.9895H156.606L151.088 23.4342V31.9895H149.635V20.8979H151.088L156.628 29.4758V20.8962L158.068 20.8979Z" fill="white"/>
<path d="M41.9547 40.8795L19.3842 64.3682C19.3842 64.3734 19.3842 64.3786 19.3876 64.3821C20.0797 66.9322 22.4543 68.8114 25.2761 68.8114C26.3601 68.8136 27.426 68.5297 28.3685 67.988L28.4405 67.9463L53.8482 53.573L41.9547 40.8795Z" fill="#E43D32"/>
<path d="M64.7884 36.8811L64.7678 36.8672L53.7978 30.6314L41.4417 41.4144L53.8423 53.5705L64.7524 47.3988C66.6662 46.3847 67.9648 44.4084 67.9648 42.1287C67.9648 39.8629 66.6833 37.897 64.7884 36.8811Z" fill="#F8BD01"/>
<path d="M19.382 19.7873C19.2467 20.2779 19.1765 20.7928 19.1765 21.325V62.831C19.1765 63.3633 19.245 63.8799 19.3838 64.367L42.7322 41.4799L19.382 19.7873Z" fill="#5A7FBF"/>
<path d="M42.1225 42.0805L53.8052 30.6283L28.4266 16.2029C27.4696 15.641 26.3824 15.346 25.2759 15.3483C22.4559 15.3483 20.0778 17.2292 19.384 19.7828V19.7898L42.1225 42.0805Z" fill="#34A24A"/>
<path d="M265.638 1.65369H10.3615C5.15735 1.65369 0.938538 5.92258 0.938538 11.1885V73.5984C0.938538 78.8643 5.15735 83.1332 10.3615 83.1332H265.638C270.843 83.1332 275.061 78.8643 275.061 73.5984V11.1885C275.061 5.92258 270.843 1.65369 265.638 1.65369Z" stroke="#B0ADAB" stroke-width="1.54098"/>
</g>
<defs>
<clipPath id="clip0_681_7694">
<rect width="275.836" height="83.2131" fill="white" transform="translate(0.0819702 0.786896)"/>
</clipPath>
</defs>
</svg>
