<svg width="180" height="48" fill="none" xmlns="http://www.w3.org/2000/svg"><path fill-rule="evenodd" clip-rule="evenodd" d="M124 17.453c-3.006.427-3.666 2-3.661 8.742.003 5.428.352 7.45 1.461 8.463.914.835 2.211 1.06 5.706.991 2.654-.052 3.299-.173 4.14-.776 1.336-.96 1.834-3 1.699-6.965-.074-2.178-.236-3.143-.676-4.032-.72-1.451-1.931-1.784-6.234-1.711l-2.458.041.001-.656c.001-.84.135-1.31.462-1.615l.261-.243 3.377-.05c4.074-.06 3.816.033 3.873-1.405l.035-.9-3.675.013c-2.022.007-3.962.053-4.311.102Zm30.812.178c-.28.278-.295.336-.295 1.152v.86h2.776c1.861 0 2.859-.038 3.029-.115.377-.17.566-.663.566-1.479v-.711h-5.78l-.296.293ZM40.247 22.155c0 .752.02.829.283 1.089l.282.28 2.928.053c1.728.032 3.082.1 3.303.167.726.22.956.825 1.011 2.662l.03 1.002-2.755.026-2.756.027v2h5.593l-.07 1.278c-.081 1.52-.189 1.969-.556 2.333-.382.378-.871.43-4.13.44l-2.754.007-.28.278c-.25.248-.283.361-.316 1.077l-.037.8h3.695c4.875 0 5.843-.146 6.801-1.02.984-.899 1.198-1.946 1.199-5.844 0-3.05-.077-3.885-.467-5.059-.172-.516-.334-.767-.79-1.218-1.017-1.008-2.04-1.178-7.104-1.184l-3.11-.003v.809Zm33.354-.713c-2.817.232-3.783.952-4.304 3.21-.261 1.13-.26 7.025.001 8.116.574 2.395 1.69 2.907 6.34 2.905 4.35-.002 5.557-.523 6.135-2.65.368-1.35.413-6.25.076-8.167-.36-2.038-1.173-2.894-3.1-3.258-.918-.174-3.854-.263-5.148-.156Zm35.793 0c-3.124.257-4.091 1.148-4.431 4.084-.179 1.55-.084 6.475.143 7.406.416 1.702 1.342 2.393 3.553 2.652 1.371.16 5.548.061 6.397-.151 1.666-.417 2.343-1.237 2.656-3.217.168-1.063.17-5.84.004-6.913-.383-2.463-1.116-3.317-3.184-3.708-.907-.172-3.849-.26-5.138-.153Zm29.12-.029-1.896.037v.706c0 1.387.014 1.393 3.711 1.398 1.602.003 3.111.043 3.353.089 1.014.194 1.349.758 1.412 2.377l.043 1.12-3.375.041c-2.859.034-3.457.067-3.915.215-.733.238-1.367.83-1.629 1.525-.299.792-.435 2.187-.31 3.18.153 1.22.371 1.732 1.013 2.383 1.032 1.046 2.058 1.242 6.065 1.161 2.569-.052 3.682-.141 5.008-.403l.607-.12.029-4.458c.017-2.575-.015-4.869-.075-5.429-.237-2.22-1.064-3.245-2.939-3.641-.824-.175-3.691-.247-7.102-.18Zm-84.008 6.27c0 3.775.039 6.072.105 6.31.14.498.555.967 1.053 1.192.306.137.658.184 1.395.186l.986.002v-5.811h.701c.386 0 .82.044.963.098.174.066.52.493 1.033 1.278 2.64 4.034 2.61 3.991 3.09 4.222.42.201.584.216 2.135.19l1.68-.027-2.237-3.357c-1.23-1.846-2.253-3.424-2.272-3.507-.02-.082.934-1.615 2.119-3.406l2.153-3.256-1.522-.03c-1.833-.036-2.085.003-2.528.388-.188.164-.966 1.255-1.728 2.425-.761 1.17-1.517 2.25-1.679 2.402-.27.253-.359.275-1.1.275h-.808v-5.511h-3.54l.001 5.937Zm30.541.1c.002 5.655.014 6.062.189 6.438.385.826 1.016 1.152 2.232 1.152h.811l.026-5.172.026-5.172 1.508 4.768c.829 2.623 1.571 4.899 1.65 5.059.215.442.506.517 2 .517 1.474 0 1.808-.082 2.011-.495.07-.141.829-2.423 1.687-5.072l1.56-4.815.05 4.865c.029 2.676.09 4.946.14 5.045.18.366.603.472 1.878.472h1.219V21.746h-2.366c-2.104 0-2.389.02-2.584.176-.165.132-.619 1.407-1.822 5.113a519.474 519.474 0 0 1-1.674 5.11c-.077.184-.45-.913-2.271-6.691-.81-2.57-1.08-3.304-1.279-3.482-.246-.22-.306-.226-2.622-.226h-2.371l.002 6.037Zm66.638.158.051 6.194.271.407c.427.638.966.845 2.111.81l.937-.029 2.689-4.318a429.716 429.716 0 0 1 2.86-4.56c.163-.227.172-.012.177 4.085l.005 4.324.312.26c.3.25.355.26 1.668.26h1.358V21.745h-1.607c-1.384 0-1.636.025-1.814.176-.113.096-1.396 2.091-2.85 4.433-1.454 2.343-2.686 4.302-2.737 4.354-.057.058-.094-1.554-.094-4.14v-4.237l-.295-.293-.296-.293h-2.796l.05 6.195Zm18.869-5.97c-.2.179-.523 1.039-1.531 4.084a1985.095 1985.095 0 0 1-3.054 9.193c-.036.096.255.125 1.253.123 1.488-.003 1.952-.141 2.391-.713.177-.232.75-1.874 1.832-5.247 1.299-4.05 1.62-4.949 1.834-5.135.244-.211.351-.225 1.718-.225h1.458l.028 5.369.028 5.368.33.293.331.292H180V21.746h-9.191l-.255.226ZM77.732 24.01c.558.408.66.978.715 4 .029 1.616.005 3.05-.059 3.564-.21 1.682-.29 1.735-2.656 1.779-2.171.04-2.412-.026-2.747-.756-.206-.448-.223-.662-.259-3.29-.056-4.063.096-4.977.895-5.384.304-.154.583-.174 2.088-.15 1.576.026 1.764.048 2.023.237Zm35.712-.058c.673.428.822 1.465.774 5.36-.051 4.047-.059 4.058-2.903 4.058-1.92 0-2.222-.09-2.557-.751-.19-.378-.202-.602-.202-3.908 0-5.071-.054-4.98 2.933-4.935 1.322.02 1.773.06 1.955.176Zm15.462.728c.676.366.835 1.152.833 4.131-.002 3.139-.196 4.044-.943 4.395-.522.246-3.305.237-3.807-.011-.825-.409-1.01-1.457-1.011-5.756l-.001-2.876.531-.04c.292-.023 1.328-.036 2.301-.03 1.487.008 1.822.038 2.097.187Zm16.206 6.59c0 1.913-.016 2.113-.177 2.174-.097.038-1.109.07-2.25.072-1.911.004-2.1-.012-2.427-.201-.539-.313-.652-.635-.69-1.958-.026-.88.004-1.25.122-1.531.256-.606.489-.656 3.122-.66l2.3-.004v2.107Z" fill="#161616"/><path fill-rule="evenodd" clip-rule="evenodd" d="M3.868 3.835 0 7.67l.001 18.435c.001 15.06.026 18.528.136 18.937.414 1.534 1.527 2.56 3.095 2.855.732.137 21.826.137 22.559 0 1.3-.244 2.296-1.005 2.86-2.184l.32-.671.027-20.784c.03-23.117.078-21.476-.66-22.547-.429-.623-1.175-1.222-1.844-1.48-.42-.163-1.153-.179-9.606-.204L7.736 0 3.868 3.835ZM15.855 22.58c.272.269.274.286.307 1.848.043 2.038-.006 2.342-.456 2.835-.65.713-1.545.768-2.25.138-.551-.494-.633-.89-.595-2.871.03-1.595.043-1.678.272-1.92.303-.319.466-.353 1.559-.325.816.021.911.046 1.163.295Zm-5.289 5.822c4.266 1.378 3.665 1.384 8.174-.08 3.44-1.118 3.696-1.168 4.046-.784.19.208.672 1.669.673 2.042.003.57-.282.716-3.234 1.663-2.357.757-2.786.924-2.812 1.097-.02.134.557 1.007 1.694 2.56 1.798 2.456 1.907 2.674 1.575 3.144-.082.116-.463.442-.847.724-.683.501-1.047.613-1.475.45-.089-.034-.916-1.091-1.838-2.35-.923-1.26-1.74-2.342-1.817-2.405-.078-.063-.204-.091-.281-.062-.078.03-.92 1.112-1.87 2.405-.952 1.293-1.802 2.378-1.892 2.412-.504.192-1.224-.135-2.086-.947-.403-.38-.488-.718-.277-1.108.06-.11.835-1.193 1.725-2.406 1.08-1.473 1.607-2.276 1.586-2.414-.027-.177-.435-.336-2.812-1.1-2.96-.95-3.236-1.092-3.236-1.67 0-.234.288-1.188.557-1.844.102-.248.556-.48.859-.439.139.019 1.754.52 3.588 1.112Z" fill="#005DA6"/></svg>