<svg width="173" height="23" viewBox="0 0 173 23" fill="none" xmlns="http://www.w3.org/2000/svg">
<path fill-rule="evenodd" clip-rule="evenodd" d="M103.706 0.518194C100.008 1.03633 99.1969 2.9454 99.202 11.1227C99.2063 17.7078 99.6356 20.1606 101 21.389C102.124 22.4016 103.719 22.6749 108.018 22.5917C111.282 22.5283 112.076 22.3814 113.11 21.6497C114.754 20.4863 115.366 18.0118 115.2 13.2016C115.11 10.5597 114.91 9.38825 114.368 8.31017C113.483 6.54962 111.993 6.14622 106.701 6.2341L103.678 6.28442L103.679 5.48904C103.68 4.47003 103.845 3.89939 104.247 3.53002L104.568 3.23516L108.722 3.17439C113.733 3.1011 113.416 3.21437 113.485 1.46951L113.529 0.378906L109.008 0.393856C106.521 0.402121 104.135 0.458152 103.706 0.518194ZM141.605 0.734176C141.26 1.07158 141.241 1.14183 141.241 2.13192V3.17439H144.656C146.945 3.17439 148.173 3.12881 148.382 3.03595C148.846 2.82933 149.078 2.23207 149.078 1.24174V0.378906H145.523H141.969L141.605 0.734176ZM0.689197 6.22231C0.689197 7.13485 0.713701 7.22795 1.0366 7.54348L1.384 7.88294L4.98574 7.94773C7.11119 7.98589 8.7763 8.06891 9.04833 8.14998C9.94115 8.41652 10.2241 9.15124 10.2919 11.3785L10.3288 12.5939L6.93942 12.6263L3.55 12.6586V13.8721V15.0856H6.98942H10.429L10.3441 16.6352C10.2434 18.4783 10.1114 19.0238 9.65929 19.4656C9.18987 19.9243 8.58811 19.9875 4.57901 19.9986L1.19257 20.008L0.848407 20.3442C0.54056 20.6449 0.499514 20.7827 0.459214 21.6508L0.414062 22.6212H4.95825C10.9544 22.6212 12.146 22.445 13.324 21.3838C14.5336 20.2943 14.7977 19.0241 14.7979 14.2955C14.798 10.5954 14.7033 9.58296 14.2235 8.1586C14.0126 7.53205 13.8127 7.22771 13.2533 6.68113C12.0018 5.45817 10.7433 5.25143 4.51396 5.24474L0.689197 5.24061V6.22231ZM41.7142 5.35717C38.2504 5.63854 37.062 6.51267 36.4203 9.25151C36.099 10.6226 36.1003 17.7727 36.4219 19.0965C37.1281 22.0021 38.5004 22.6223 44.2198 22.6203C49.57 22.6185 51.0549 21.986 51.7669 19.4055C52.2189 17.7673 52.2741 11.8248 51.8591 9.49861C51.4177 7.02619 50.4172 5.98883 48.0471 5.54665C46.917 5.3359 43.3061 5.22773 41.7142 5.35717ZM85.7399 5.35741C81.8974 5.66929 80.708 6.75066 80.2899 10.3121C80.0694 12.1909 80.1867 18.1665 80.4662 19.296C80.977 21.3604 82.1162 22.1988 84.8366 22.5123C86.522 22.7065 91.6602 22.5868 92.705 22.3289C94.7541 21.8231 95.5867 20.8286 95.9712 18.4272C96.1777 17.1373 96.181 11.3427 95.976 10.0415C95.5053 7.05354 94.6035 6.01775 92.0602 5.54325C90.9443 5.33505 87.3262 5.2287 85.7399 5.35741ZM121.558 5.32265L119.226 5.3675V6.22365C119.226 7.90665 119.243 7.91309 123.791 7.91989C125.761 7.92281 127.617 7.97118 127.915 8.02746C129.162 8.26289 129.574 8.94741 129.651 10.9108L129.704 12.2699L125.553 12.3192C122.037 12.3609 121.301 12.4009 120.738 12.5806C119.836 12.8681 119.057 13.5875 118.734 14.4304C118.366 15.3907 118.199 17.0827 118.352 18.287C118.541 19.7668 118.809 20.3885 119.599 21.178C120.868 22.4467 122.13 22.6849 127.059 22.5868C130.219 22.5238 131.587 22.4153 133.219 22.0978L133.965 21.9527L134.001 16.5441C134.022 13.4212 133.983 10.6382 133.909 9.95877C133.617 7.2649 132.6 6.02189 130.294 5.54143C129.28 5.33019 125.753 5.24182 121.558 5.32265ZM18.2279 12.9282C18.2283 17.5069 18.2753 20.2941 18.357 20.5816C18.5289 21.1861 19.039 21.7558 19.6524 22.0281C20.0282 22.1949 20.4612 22.2519 21.3678 22.2539L22.5805 22.2566V18.7318V15.2071H23.4431C23.9175 15.2071 24.4505 15.2609 24.6275 15.3267C24.8417 15.4062 25.2667 15.9243 25.8986 16.8764C29.1463 21.7694 29.1084 21.7183 29.6992 21.9977C30.2162 22.2423 30.4172 22.2601 32.3247 22.2292L34.39 22.1958L31.6393 18.1241C30.1263 15.8847 28.8689 13.9704 28.845 13.8701C28.8212 13.7699 29.9938 11.9103 31.4509 9.73769L34.1001 5.78755L32.2273 5.75158C29.9727 5.70843 29.6631 5.75522 29.1188 6.22219C28.8868 6.42115 27.9303 7.74487 26.9932 9.16364C26.056 10.5823 25.1268 11.8936 24.928 12.0774C24.5959 12.3846 24.4864 12.4116 23.5736 12.4116H22.5805V9.0692V5.72678H20.4038H18.2271L18.2279 12.9282ZM55.7934 13.0497C55.796 19.9093 55.8107 20.4034 56.0257 20.8588C56.4991 21.8611 57.2759 22.2566 58.7707 22.2566H59.7687L59.8009 15.9829L59.8331 9.70924L61.6871 15.4928C62.707 18.6739 63.6199 21.4351 63.7159 21.6288C63.9819 22.1653 64.3395 22.2566 66.1766 22.2566C67.99 22.2566 68.4014 22.1567 68.6511 21.6555C68.7363 21.4848 69.6696 18.7164 70.7251 15.5037L72.6445 9.66245L72.7067 15.5644C72.7409 18.8106 72.8176 21.5643 72.8772 21.6837C73.0986 22.1275 73.6193 22.2566 75.1881 22.2566H76.6869V13.9917V5.72678H73.7777C71.1891 5.72678 70.8388 5.75024 70.5989 5.94009C70.3965 6.10028 69.8377 7.64715 68.3581 12.1423C67.274 15.4361 66.3474 18.2252 66.2989 18.3403C66.2046 18.564 65.7464 17.233 63.5051 10.2239C62.5084 7.10714 62.1767 6.21599 61.9324 6.00025C61.6298 5.73298 61.5562 5.72678 58.7067 5.72678H55.7907L55.7934 13.0497ZM137.759 13.241L137.821 20.7553L138.155 21.2481C138.679 22.0226 139.343 22.2738 140.751 22.2309L141.903 22.1958L145.211 16.9576C147.029 14.0765 148.613 11.5879 148.729 11.4274C148.929 11.1509 148.94 11.4124 148.947 16.3813L148.953 21.6272L149.336 21.9419C149.706 22.2462 149.773 22.2566 151.388 22.2566H153.058V13.9917V5.72678H151.081C149.379 5.72678 149.07 5.75619 148.851 5.93948C148.711 6.0564 147.133 8.47668 145.345 11.3177C143.556 14.1588 142.041 16.5353 141.978 16.5988C141.908 16.6693 141.863 14.7141 141.863 11.5758V6.43732L141.5 6.08205L141.136 5.72678H139.416L137.697 5.72666L137.759 13.241ZM160.968 6.00025C160.721 6.21611 160.324 7.25931 159.085 10.9531C156.945 17.3279 155.398 21.9217 155.328 22.1046C155.284 22.2213 155.641 22.256 156.869 22.2539C158.7 22.2509 159.27 22.083 159.81 21.3886C160.028 21.1081 160.733 19.1163 162.063 15.0248C163.661 10.1114 164.055 9.02131 164.319 8.79573C164.619 8.53928 164.751 8.52226 166.433 8.52226H168.226L168.26 15.0349L168.295 21.5474L168.701 21.902L169.107 22.2566H170.846H172.586V13.9917V5.72678H166.933H161.281L160.968 6.00025ZM46.7953 8.47145C47.4819 8.96674 47.6073 9.65832 47.6746 13.3232C47.7105 15.2844 47.6818 17.0243 47.6031 17.6473C47.3453 19.6869 47.2471 19.7517 44.3358 19.8049C41.6652 19.8537 41.3693 19.7733 40.9568 18.8879C40.7037 18.3442 40.683 18.0849 40.6386 14.8969C40.57 9.96886 40.7568 8.86027 41.7397 8.36632C42.1131 8.17878 42.4567 8.15435 44.3077 8.18401C46.2458 8.21524 46.4773 8.24198 46.7953 8.47145ZM90.7214 8.40072C91.5491 8.9208 91.7334 10.1785 91.6734 14.9032C91.6112 19.8117 91.601 19.8258 88.103 19.8255C85.7416 19.8254 85.3695 19.7174 84.9584 18.9141C84.7238 18.4558 84.7096 18.1849 84.7096 14.174C84.7096 8.0226 84.6424 8.13405 88.3167 8.18765C89.9426 8.21123 90.4982 8.26058 90.7214 8.40072ZM109.739 9.28409C110.571 9.72821 110.767 10.6816 110.764 14.2955C110.762 18.1024 110.523 19.2007 109.605 19.6266C108.962 19.9245 105.539 19.9143 104.922 19.6128C103.907 19.1174 103.68 17.8462 103.679 12.6306L103.678 9.14274L104.331 9.09339C104.69 9.06616 105.963 9.04975 107.161 9.05668C108.99 9.06738 109.402 9.10372 109.739 9.28409ZM129.674 17.2771C129.674 19.5992 129.654 19.8409 129.456 19.9158C129.336 19.9611 128.091 20.0004 126.689 20.003C124.337 20.0077 124.105 19.9886 123.704 19.7589C123.04 19.3792 122.901 18.9888 122.854 17.3839C122.823 16.3167 122.859 15.8663 123.005 15.5264C123.319 14.7909 123.606 14.7311 126.844 14.7257L129.674 14.7209V17.2771Z" fill="#003366"/>
</svg>
