<svg width="40" height="41" viewBox="0 0 40 41" fill="none" xmlns="http://www.w3.org/2000/svg">
<path d="M20 13.8334V20.5001M20 27.1667H20.0167M33.3333 22.1667C33.3333 30.5001 27.5 34.6667 20.5667 37.0834C20.2036 37.2064 19.8092 37.2005 19.45 37.0667C12.5 34.6667 6.66666 30.5001 6.66666 22.1667V10.5001C6.66666 10.058 6.84226 9.63411 7.15482 9.32155C7.46738 9.00899 7.8913 8.83339 8.33333 8.83339C11.6667 8.83339 15.8333 6.83339 18.7333 4.30006C19.0864 3.99839 19.5356 3.83264 20 3.83264C20.4644 3.83264 20.9136 3.99839 21.2667 4.30006C24.1833 6.85006 28.3333 8.83339 31.6667 8.83339C32.1087 8.83339 32.5326 9.00899 32.8452 9.32155C33.1577 9.63411 33.3333 10.058 33.3333 10.5001V22.1667Z" stroke="#003366" stroke-width="3.33333" stroke-linecap="round" stroke-linejoin="round"/>
</svg>
