<svg width="95" height="96" viewBox="0 0 95 96" fill="none" xmlns="http://www.w3.org/2000/svg">
<rect x="2" y="2" width="91" height="92" rx="45.5" stroke="#2C3E50" stroke-width="4"/>
<path d="M71.2324 47.4678L72.9644 48.4678C73.2297 48.0085 73.3015 47.4626 73.1642 46.9502L71.2324 47.4678ZM67.2919 32.7615L65.36 33.2792V33.2792L67.2919 32.7615ZM61.0762 29.1729L61.5939 31.1048L61.0762 29.1729ZM26.7615 38.3675L26.2439 36.4357L26.7615 38.3675ZM23.1729 44.5832L25.1048 44.0655L23.1729 44.5832ZM28.427 64.1916L26.4951 64.7092L28.427 64.1916ZM34.6426 67.7801L35.1602 69.712V69.712L34.6426 67.7801ZM64.0552 59.8991L64.5729 61.8309C65.0852 61.6936 65.5221 61.3584 65.7873 60.8991L64.0552 59.8991ZM36.2132 59.9621L35.6955 58.0303V58.0303L36.2132 59.9621ZM34.9884 59.255L36.9203 58.7374V58.7374L34.9884 59.255ZM52.1458 54.6577L50.2139 55.1754V55.1754L52.1458 54.6577ZM51.4387 55.8825L51.9563 57.8143V57.8143L51.4387 55.8825ZM47.1698 39.9506L46.6521 38.0188V38.0188L47.1698 39.9506ZM48.3945 40.6577L50.3264 40.1401V40.1401L48.3945 40.6577ZM31.9443 44.0303L32.4619 45.9621V45.9621L31.9443 44.0303ZM31.2372 45.255L29.3053 45.7727V45.7727L31.2372 45.255ZM71.2324 47.4678L73.1642 46.9502L69.2237 32.2439L67.2919 32.7615L65.36 33.2792L69.3005 47.9855L71.2324 47.4678ZM67.2919 32.7615L69.2237 32.2439C68.7381 30.4314 67.5523 28.8861 65.9273 27.9479L64.9273 29.6799L63.9273 31.412C64.6335 31.8198 65.1489 32.4914 65.36 33.2792L67.2919 32.7615ZM64.9273 29.6799L65.9273 27.9479C64.3022 27.0097 62.3711 26.7554 60.5586 27.2411L61.0762 29.1729L61.5939 31.1048C62.3816 30.8937 63.221 31.0042 63.9273 31.412L64.9273 29.6799ZM61.0762 29.1729L60.5586 27.2411L26.2439 36.4357L26.7615 38.3675L27.2792 40.2994L61.5939 31.1048L61.0762 29.1729ZM26.7615 38.3675L26.2439 36.4357C24.4314 36.9213 22.8861 38.1071 21.9479 39.7321L23.6799 40.7321L25.412 41.7321C25.8198 41.0258 26.4914 40.5105 27.2792 40.2994L26.7615 38.3675ZM23.6799 40.7321L21.9479 39.7321C21.0097 41.3571 20.7554 43.2883 21.2411 45.1008L23.1729 44.5832L25.1048 44.0655C24.8937 43.2778 25.0042 42.4384 25.412 41.7321L23.6799 40.7321ZM23.1729 44.5832L21.2411 45.1008L26.4951 64.7092L28.427 64.1916L30.3588 63.6739L25.1048 44.0655L23.1729 44.5832ZM28.427 64.1916L26.4951 64.7092C26.9808 66.5217 28.1666 68.067 29.7916 69.0052L30.7916 67.2731L31.7916 65.5411C31.0853 65.1333 30.5699 64.4617 30.3588 63.6739L28.427 64.1916ZM30.7916 67.2731L29.7916 69.0052C31.4166 69.9434 33.3478 70.1977 35.1602 69.712L34.6426 67.7801L34.125 65.8483C33.3372 66.0594 32.4979 65.9489 31.7916 65.5411L30.7916 67.2731ZM34.6426 67.7801L35.1602 69.712L64.5729 61.8309L64.0552 59.8991L63.5376 57.9672L34.125 65.8483L34.6426 67.7801ZM64.0552 59.8991L65.7873 60.8991L72.9644 48.4678L71.2324 47.4678L69.5003 46.4678L62.3232 58.8991L64.0552 59.8991ZM31.9443 44.0303L32.4619 45.9621L47.6874 41.8825L47.1698 39.9506L46.6521 38.0188L31.4266 42.0984L31.9443 44.0303ZM48.3945 40.6577L46.4627 41.1754L50.2139 55.1754L52.1458 54.6577L54.0776 54.1401L50.3264 40.1401L48.3945 40.6577ZM51.4387 55.8825L50.9211 53.9506L35.6955 58.0303L36.2132 59.9621L36.7308 61.894L51.9563 57.8143L51.4387 55.8825ZM34.9884 59.255L36.9203 58.7374L33.169 44.7374L31.2372 45.255L29.3053 45.7727L33.0566 59.7727L34.9884 59.255ZM36.2132 59.9621L35.6955 58.0303C36.229 57.8873 36.7773 58.2039 36.9203 58.7374L34.9884 59.255L33.0566 59.7727C33.4854 61.3731 35.1304 62.3228 36.7308 61.894L36.2132 59.9621ZM52.1458 54.6577L50.2139 55.1754C50.071 54.6419 50.3876 54.0936 50.9211 53.9506L51.4387 55.8825L51.9563 57.8143C53.5567 57.3855 54.5065 55.7405 54.0776 54.1401L52.1458 54.6577ZM47.1698 39.9506L47.6874 41.8825C47.1539 42.0254 46.6056 41.7088 46.4627 41.1754L48.3945 40.6577L50.3264 40.1401C49.8975 38.5397 48.2525 37.59 46.6521 38.0188L47.1698 39.9506ZM31.9443 44.0303L31.4266 42.0984C29.8262 42.5273 28.8765 44.1723 29.3053 45.7727L31.2372 45.255L33.169 44.7374C33.312 45.2709 32.9954 45.8192 32.4619 45.9621L31.9443 44.0303Z" fill="#2C3E50"/>
</svg>
