<svg width="95" height="96" viewBox="0 0 95 96" fill="none" xmlns="http://www.w3.org/2000/svg">
<rect x="2" y="2" width="91" height="92" rx="45.5" stroke="#2C3E50" stroke-width="4"/>
<path d="M47.3577 56.2204C51.9952 56.2204 55.7546 52.4214 55.7546 47.7352C55.7546 43.049 51.9952 39.25 47.3577 39.25C42.7203 39.25 38.9609 43.049 38.9609 47.7352C38.9609 52.4214 42.7203 56.2204 47.3577 56.2204Z" stroke="#2C3E50" stroke-width="4"/>
<path d="M52.2978 19.883C51.2706 19.4531 49.9662 19.4531 47.3576 19.4531C44.749 19.4531 43.4447 19.4531 42.4175 19.883C41.7379 20.1673 41.1204 20.5842 40.6002 21.1098C40.0801 21.6354 39.6676 22.2594 39.3863 22.9462C39.1288 23.5769 39.0252 24.3151 38.986 25.3871C38.9678 26.1619 38.7554 26.9193 38.3687 27.5886C37.982 28.2579 37.4336 28.8171 36.7749 29.2139C36.1054 29.5923 35.3518 29.7928 34.5848 29.7968C33.8177 29.8007 33.0622 29.608 32.3889 29.2366C31.4485 28.7331 30.7683 28.4559 30.0938 28.3654C28.6225 28.1699 27.1345 28.5728 25.957 29.4855C25.0781 30.1728 24.4232 31.3126 23.1189 33.5951C21.8145 35.8776 21.1596 37.0175 21.0168 38.1347C20.9207 38.8714 20.969 39.62 21.1592 40.3377C21.3494 41.0555 21.6777 41.7284 22.1252 42.3179C22.5395 42.861 23.1189 43.3163 24.0173 43.8877C25.3412 44.7277 26.1921 46.1589 26.1921 47.7371C26.1921 49.3154 25.3412 50.7465 24.0173 51.5837C23.1189 52.1579 22.5367 52.6133 22.1252 53.1563C21.6777 53.7459 21.3494 54.4187 21.1592 55.1365C20.969 55.8543 20.9207 56.6029 21.0168 57.3395C21.1624 58.4539 21.8145 59.5966 23.1161 61.8791C24.4232 64.1616 25.0753 65.3015 25.957 65.9888C26.5404 66.4411 27.2062 66.7728 27.9165 66.9649C28.6268 67.1571 29.3676 67.206 30.0966 67.1088C30.7683 67.0183 31.4485 66.7411 32.3889 66.2377C33.0622 65.8662 33.8177 65.6735 34.5848 65.6774C35.3518 65.6814 36.1054 65.8819 36.7749 66.2603C38.1267 67.0523 38.93 68.5089 38.986 70.0871C39.0252 71.1619 39.126 71.8973 39.3863 72.528C39.6676 73.2148 40.0801 73.8388 40.6002 74.3644C41.1204 74.89 41.7379 75.3069 42.4175 75.5912C43.4447 76.0211 44.749 76.0211 47.3576 76.0211C49.9662 76.0211 51.2706 76.0211 52.2978 75.5912C52.9774 75.3069 53.5949 74.89 54.115 74.3644C54.6352 73.8388 55.0477 73.2148 55.329 72.528C55.5865 71.8973 55.6901 71.1619 55.7293 70.0871C55.7852 68.5089 56.5885 67.0494 57.9404 66.2603C58.6099 65.8819 59.3634 65.6814 60.1305 65.6774C60.8976 65.6735 61.6531 65.8662 62.3263 66.2377C63.2668 66.7411 63.9469 67.0183 64.6187 67.1088C65.3477 67.206 66.0885 67.1571 66.7988 66.9649C67.509 66.7728 68.1749 66.4411 68.7583 65.9888C69.64 65.3043 70.2921 64.1616 71.5964 61.8791C72.9007 59.5966 73.5557 58.4567 73.6984 57.3395C73.7946 56.6029 73.7462 55.8543 73.5561 55.1365C73.3659 54.4187 73.0376 53.7459 72.59 53.1563C72.1758 52.6133 71.5964 52.1579 70.698 51.5866C70.0428 51.1832 69.4996 50.6185 69.1193 49.9453C68.7389 49.272 68.5338 48.5123 68.5232 47.7371C68.5232 46.1589 69.3741 44.7277 70.698 43.8905C71.5964 43.3163 72.1786 42.861 72.59 42.3179C73.0376 41.7284 73.3659 41.0555 73.5561 40.3377C73.7462 39.62 73.7946 38.8714 73.6984 38.1347C73.5529 37.0203 72.9007 35.8776 71.5992 33.5951C70.2921 31.3126 69.64 30.1728 68.7583 29.4855C68.1749 29.0332 67.509 28.7015 66.7988 28.5093C66.0885 28.3171 65.3477 28.2682 64.6187 28.3654C63.9469 28.4559 63.2668 28.7331 62.3236 29.2366C61.6506 29.6075 60.8956 29.8 60.1291 29.796C59.3626 29.792 58.6096 29.5918 57.9404 29.2139C57.2817 28.8171 56.7333 28.2579 56.3466 27.5886C55.9599 26.9193 55.7475 26.1619 55.7293 25.3871C55.6901 24.3123 55.5893 23.5769 55.329 22.9462C55.0477 22.2594 54.6352 21.6354 54.115 21.1098C53.5949 20.5842 52.9774 20.1673 52.2978 19.883Z" stroke="#2C3E50" stroke-width="4"/>
</svg>
