<svg width="945" height="737" viewBox="0 0 945 737" fill="none" xmlns="http://www.w3.org/2000/svg">
<g clip-path="url(#clip0_1_96)">
<rect width="945" height="737" rx="20" fill="#EEF1F6"/>
<path d="M537.609 45.5172C422.309 -4.56447 217 -38.257 217 -38.257L945.735 -458.992L1411.45 347.642C1411.45 347.642 1295.87 205.685 1176.99 198.9C1063.43 192.418 1003.77 306.146 886.303 305.822C704.033 305.321 699.102 115.663 537.609 45.5172Z" fill="url(#paint0_linear_1_96)"/>
<g filter="url(#filter0_d_1_96)">
<path d="M1176.99 198.902C1063.43 192.421 1003.77 306.148 886.302 305.825C704.032 305.324 699.101 115.666 537.608 45.52C537.608 45.52 502.688 31.1403 479.806 23.3248C450.757 13.4028 404.296 1.48665 404.296 1.48665" stroke="#EEEFF0"/>
</g>
</g>
<defs>
<filter id="filter0_d_1_96" x="389.472" y="-14.6976" width="802.246" height="334.723" filterUnits="userSpaceOnUse" color-interpolation-filters="sRGB">
<feFlood flood-opacity="0" result="BackgroundImageFix"/>
<feColorMatrix in="SourceAlpha" type="matrix" values="0 0 0 0 0 0 0 0 0 0 0 0 0 0 0 0 0 0 127 0" result="hardAlpha"/>
<feOffset dy="-1"/>
<feGaussianBlur stdDeviation="7.35"/>
<feComposite in2="hardAlpha" operator="out"/>
<feColorMatrix type="matrix" values="0 0 0 0 0 0 0 0 0 0 0 0 0 0 0 0 0 0 1 0"/>
<feBlend mode="normal" in2="BackgroundImageFix" result="effect1_dropShadow_1_96"/>
<feBlend mode="normal" in="SourceGraphic" in2="effect1_dropShadow_1_96" result="shape"/>
</filter>
<linearGradient id="paint0_linear_1_96" x1="282.384" y1="-54.4663" x2="1237.63" y2="385.41" gradientUnits="userSpaceOnUse">
<stop stop-color="#283C5F"/>
<stop offset="1" stop-color="#D2DFF5"/>
</linearGradient>
<clipPath id="clip0_1_96">
<rect width="945" height="737" rx="20" fill="white"/>
</clipPath>
</defs>
</svg>
