<svg width="40" height="40" viewBox="0 0 40 40" fill="none" xmlns="http://www.w3.org/2000/svg">
<path d="M9.4 20H9.4185M31.6 20H31.6185M5.7 9H35.3C37.3435 9 39 10.6416 39 12.6667V27.3333C39 29.3584 37.3435 31 35.3 31H5.7C3.65655 31 2 29.3584 2 27.3333V12.6667C2 10.6416 3.65655 9 5.7 9ZM24.2 20C24.2 22.025 22.5435 23.6667 20.5 23.6667C18.4565 23.6667 16.8 22.025 16.8 20C16.8 17.975 18.4565 16.3333 20.5 16.3333C22.5435 16.3333 24.2 17.975 24.2 20Z" stroke="#2C3E50" stroke-width="2" stroke-linecap="round" stroke-linejoin="round"/>
</svg>
