<svg width="40" height="40" viewBox="0 0 40 40" fill="none" xmlns="http://www.w3.org/2000/svg">
<g clip-path="url(#clip0_9010_50566)">
<g clip-path="url(#clip1_9010_50566)">
<g clip-path="url(#clip2_9010_50566)">
<path d="M21.9102 10.4141C22.4624 10.4141 22.9102 10.8618 22.9102 11.4141V26.6641C22.9102 27.2163 22.4624 27.6641 21.9102 27.6641C21.3579 27.6641 20.9102 27.2163 20.9102 26.6641V11.4141C20.9102 10.8618 21.3579 10.4141 21.9102 10.4141ZM21.9102 31.0821C22.4624 31.0821 22.9102 31.5298 22.9102 32.0821V32.4141C22.9102 32.9663 22.4624 33.4141 21.9102 33.4141C21.3579 33.4141 20.9102 32.9663 20.9102 32.4141V32.0821C20.9102 31.5298 21.3579 31.0821 21.9102 31.0821Z" fill="#2C3E50"/>
</g>
</g>
</g>
<defs>
<clipPath id="clip0_9010_50566">
<rect width="40" height="40" fill="white"/>
</clipPath>
<clipPath id="clip1_9010_50566">
<rect width="40" height="40" fill="white" transform="translate(0.410156 0.414062)"/>
</clipPath>
<clipPath id="clip2_9010_50566">
<rect width="40" height="40" fill="white" transform="translate(0.910156 0.914062)"/>
</clipPath>
</defs>
</svg>
