<svg width="40" height="40" viewBox="0 0 40 40" fill="none" xmlns="http://www.w3.org/2000/svg">
<path d="M5 3.33594V13.3359H15" stroke="#2C3E50" stroke-width="2" stroke-linecap="round" stroke-linejoin="round"/>
<path d="M35 20.002C34.9974 17.1075 34.1573 14.2756 32.5812 11.8479C31.0051 9.42012 28.7603 7.50024 26.1175 6.31978C23.4747 5.13932 20.5468 4.74871 17.6869 5.19506C14.827 5.6414 12.1574 6.90565 10 8.8353L5 13.3353" stroke="#2C3E50" stroke-width="2" stroke-linecap="round" stroke-linejoin="round"/>
<path d="M35 36.6641V26.6641H25" stroke="#2C3E50" stroke-width="2" stroke-linecap="round" stroke-linejoin="round"/>
<path d="M5 20C5.00264 22.8945 5.84266 25.7264 7.41876 28.1541C8.99485 30.5818 11.2397 32.5017 13.8825 33.6822C16.5253 34.8626 19.4532 35.2533 22.3131 34.8069C25.173 34.3606 27.8426 33.0963 30 31.1667L35 26.6667" stroke="#2C3E50" stroke-width="2" stroke-linecap="round" stroke-linejoin="round"/>
</svg>
