<svg width="40" height="40" viewBox="0 0 40 40" fill="none" xmlns="http://www.w3.org/2000/svg">
<path d="M15.0744 22.6895L24.94 28.4605M24.9256 12.5395L15.0744 18.3105M33 10.35C33 12.7524 31.0599 14.7 28.6667 14.7C26.2734 14.7 24.3333 12.7524 24.3333 10.35C24.3333 7.94756 26.2734 6 28.6667 6C31.0599 6 33 7.94756 33 10.35ZM15.6667 20.5C15.6667 22.9024 13.7266 24.85 11.3333 24.85C8.9401 24.85 7 22.9024 7 20.5C7 18.0976 8.9401 16.15 11.3333 16.15C13.7266 16.15 15.6667 18.0976 15.6667 20.5ZM33 30.65C33 33.0524 31.0599 35 28.6667 35C26.2734 35 24.3333 33.0524 24.3333 30.65C24.3333 28.2476 26.2734 26.3 28.6667 26.3C31.0599 26.3 33 28.2476 33 30.65Z" stroke="#2C3E50" stroke-width="2" stroke-linecap="round" stroke-linejoin="round"/>
</svg>
