<svg width="134" height="134" viewBox="0 0 134 134" fill="none" xmlns="http://www.w3.org/2000/svg">
<path d="M32.6784 3.72724H28.9512V1.86362C28.9512 0.807568 29.7587 0 30.8148 0H32.6784V3.72724Z" fill="#2C3E50"/>
<path d="M36.2956 3.72724H32.5684V0H34.432C35.488 0 36.2956 0.807568 36.2956 1.86362V3.72724Z" fill="#2C3E50"/>
<path d="M45.2894 3.72724C46.3187 3.72724 47.153 2.89287 47.153 1.86362C47.153 0.83437 46.3187 0 45.2894 0C44.2602 0 43.4258 0.83437 43.4258 1.86362C43.4258 2.89287 44.2602 3.72724 45.2894 3.72724Z" fill="#2C3E50"/>
<path d="M56.1419 3.72724C57.1712 3.72724 58.0056 2.89287 58.0056 1.86362C58.0056 0.83437 57.1712 0 56.1419 0C55.1127 0 54.2783 0.83437 54.2783 1.86362C54.2783 2.89287 55.1127 3.72724 56.1419 3.72724Z" fill="#2C3E50"/>
<path d="M68.863 3.72724H65.1357V1.86362C65.1357 0.807568 65.9433 0 66.9994 0C68.0554 0 68.863 0.807568 68.863 1.86362V3.72724Z" fill="#2C3E50"/>
<path d="M86.9558 3.72724H85.0921C84.0361 3.72724 83.2285 2.91967 83.2285 1.86362C83.2285 0.807568 84.0361 0 85.0921 0H86.9558V3.72724Z" fill="#2C3E50"/>
<path d="M88.7103 3.72724H86.8467V0H88.7103C89.7664 0 90.5739 0.807568 90.5739 1.86362C90.5739 2.91967 89.7664 3.72724 88.7103 3.72724Z" fill="#2C3E50"/>
<path d="M95.9476 3.72724C96.9769 3.72724 97.8112 2.89287 97.8112 1.86362C97.8112 0.83437 96.9769 0 95.9476 0C94.9184 0 94.084 0.83437 94.084 1.86362C94.084 2.89287 94.9184 3.72724 95.9476 3.72724Z" fill="#2C3E50"/>
<path d="M103.186 3.72724C104.215 3.72724 105.05 2.89287 105.05 1.86362C105.05 0.83437 104.215 0 103.186 0C102.157 0 101.322 0.83437 101.322 1.86362C101.322 2.89287 102.157 3.72724 103.186 3.72724Z" fill="#2C3E50"/>
<path d="M32.6784 3.61719H28.9512V7.34442H32.6784V3.61719Z" fill="#2C3E50"/>
<path d="M34.432 7.34442H32.5684V3.61719H36.2956V5.48081C36.2956 6.53685 35.488 7.34442 34.432 7.34442Z" fill="#2C3E50"/>
<path d="M41.6703 7.34442C42.6995 7.34442 43.5339 6.51005 43.5339 5.48081C43.5339 4.45156 42.6995 3.61719 41.6703 3.61719C40.641 3.61719 39.8066 4.45156 39.8066 5.48081C39.8066 6.51005 40.641 7.34442 41.6703 7.34442Z" fill="#2C3E50"/>
<path d="M65.2429 7.34442H63.3792C62.3232 7.34442 61.5156 6.53685 61.5156 5.48081C61.5156 4.42476 62.3232 3.61719 63.3792 3.61719H65.2429V7.34442Z" fill="#2C3E50"/>
<path d="M68.863 3.61719H65.1357V7.34442H68.863V3.61719Z" fill="#2C3E50"/>
<path d="M72.4802 3.61719H68.7529V7.34442H72.4802V3.61719Z" fill="#2C3E50"/>
<path d="M74.2367 7.34442H72.373V3.61719H74.2367C75.2927 3.61719 76.1003 4.42476 76.1003 5.48081C76.1003 6.53685 75.2927 7.34442 74.2367 7.34442Z" fill="#2C3E50"/>
<path d="M99.5677 7.34442C100.597 7.34442 101.431 6.51005 101.431 5.48081C101.431 4.45156 100.597 3.61719 99.5677 3.61719C98.5385 3.61719 97.7041 4.45156 97.7041 5.48081C97.7041 6.51005 98.5385 7.34442 99.5677 7.34442Z" fill="#2C3E50"/>
<path d="M30.8148 10.9655C29.7587 10.9655 28.9512 10.1579 28.9512 9.1019V7.23828H32.6784V9.1019C32.6784 10.1579 31.8708 10.9655 30.8148 10.9655Z" fill="#2C3E50"/>
<path d="M39.9157 10.9655H36.1885V9.1019C36.1885 8.04585 36.996 7.23828 38.0521 7.23828C39.1081 7.23828 39.9157 8.04585 39.9157 9.1019V10.9655Z" fill="#2C3E50"/>
<path d="M47.153 10.9655H43.4258V9.1019C43.4258 8.04585 44.2334 7.23828 45.2894 7.23828H47.153V10.9655Z" fill="#2C3E50"/>
<path d="M50.7673 10.9655H47.04V7.23828H48.9037C49.9597 7.23828 50.7673 8.04585 50.7673 9.1019V10.9655Z" fill="#2C3E50"/>
<path d="M61.6247 10.9655H57.8975V9.1019C57.8975 8.04585 58.705 7.23828 59.7611 7.23828C60.8171 7.23828 61.6247 8.04585 61.6247 9.1019V10.9655Z" fill="#2C3E50"/>
<path d="M68.863 7.23828H65.1357V10.9655H68.863V7.23828Z" fill="#2C3E50"/>
<path d="M70.6175 10.9655H68.7539V7.23828H72.4811V9.1019C72.4811 10.1579 71.6736 10.9655 70.6175 10.9655Z" fill="#2C3E50"/>
<path d="M86.9558 10.9655H85.0921C84.0361 10.9655 83.2285 10.1579 83.2285 9.1019C83.2285 8.04585 84.0361 7.23828 85.0921 7.23828H86.9558V10.9655Z" fill="#2C3E50"/>
<path d="M90.5739 10.9655H86.8467V7.23828H88.7103C89.7664 7.23828 90.5739 8.04585 90.5739 9.1019V10.9655Z" fill="#2C3E50"/>
<path d="M97.8112 10.9655H94.084V9.1019C94.084 8.04585 94.8916 7.23828 95.9476 7.23828C97.0037 7.23828 97.8112 8.04585 97.8112 9.1019V10.9655Z" fill="#2C3E50"/>
<path d="M103.186 10.9655C104.215 10.9655 105.05 10.1311 105.05 9.1019C105.05 8.07265 104.215 7.23828 103.186 7.23828C102.157 7.23828 101.322 8.07265 101.322 9.1019C101.322 10.1311 102.157 10.9655 103.186 10.9655Z" fill="#2C3E50"/>
<path d="M36.2956 14.5827H34.432C33.3759 14.5827 32.5684 13.7751 32.5684 12.7191C32.5684 11.663 33.3759 10.8555 34.432 10.8555H36.2956V14.5827Z" fill="#2C3E50"/>
<path d="M39.9157 10.8555H36.1885V14.5827H39.9157V10.8555Z" fill="#2C3E50"/>
<path d="M43.5339 10.8555H39.8066V14.5827H43.5339V10.8555Z" fill="#2C3E50"/>
<path d="M47.153 10.8555H43.4258V14.5827H47.153V10.8555Z" fill="#2C3E50"/>
<path d="M50.7673 10.8555H47.04V14.5827H50.7673V10.8555Z" fill="#2C3E50"/>
<path d="M54.3874 10.8555H50.6602V14.5827H54.3874V10.8555Z" fill="#2C3E50"/>
<path d="M58.0056 10.8555H54.2783V14.5827H58.0056V10.8555Z" fill="#2C3E50"/>
<path d="M59.7611 14.5827H57.8975V10.8555H61.6247V12.7191C61.6247 13.7751 60.8171 14.5827 59.7611 14.5827Z" fill="#2C3E50"/>
<path d="M68.863 10.8555H65.1357V14.5827H68.863V10.8555Z" fill="#2C3E50"/>
<path d="M76.1003 14.5827H74.2367C73.1806 14.5827 72.373 13.7751 72.373 12.7191C72.373 11.663 73.1806 10.8555 74.2367 10.8555H76.1003V14.5827Z" fill="#2C3E50"/>
<path d="M79.7185 14.5827H75.9912V10.8555H77.8548C78.9109 10.8555 79.7185 11.663 79.7185 12.7191V14.5827Z" fill="#2C3E50"/>
<path d="M90.5739 10.8555H86.8467V14.5827H90.5739V10.8555Z" fill="#2C3E50"/>
<path d="M94.194 10.8555H90.4668V14.5827H94.194V10.8555Z" fill="#2C3E50"/>
<path d="M97.8112 10.8555H94.084V14.5827H97.8112V10.8555Z" fill="#2C3E50"/>
<path d="M43.5339 14.4766H39.8066V18.2038H43.5339V14.4766Z" fill="#2C3E50"/>
<path d="M47.153 14.4766H43.4258V18.2038H47.153V14.4766Z" fill="#2C3E50"/>
<path d="M65.2429 18.2038H61.5156V16.3402C61.5156 15.2841 62.3232 14.4766 63.3792 14.4766H65.2429V18.2038Z" fill="#2C3E50"/>
<path d="M66.9994 18.2038H65.1357V14.4766H68.863V16.3402C68.863 17.3962 68.0554 18.2038 66.9994 18.2038Z" fill="#2C3E50"/>
<path d="M79.7185 14.4766H75.9912V18.2038H79.7185V14.4766Z" fill="#2C3E50"/>
<path d="M81.473 18.2038H79.6094V14.4766H81.473C82.529 14.4766 83.3366 15.2841 83.3366 16.3402C83.3366 17.3962 82.529 18.2038 81.473 18.2038Z" fill="#2C3E50"/>
<path d="M90.5739 18.2038H88.7103C87.6542 18.2038 86.8467 17.3962 86.8467 16.3402V14.4766H90.5739V18.2038Z" fill="#2C3E50"/>
<path d="M94.194 14.4766H90.4668V18.2038H94.194V14.4766Z" fill="#2C3E50"/>
<path d="M97.8112 14.4766H94.084V18.2038H97.8112V14.4766Z" fill="#2C3E50"/>
<path d="M32.6784 21.821H28.9512V19.9574C28.9512 18.9013 29.7587 18.0938 30.8148 18.0938H32.6784V21.821Z" fill="#2C3E50"/>
<path d="M34.432 21.821H32.5684V18.0938H34.432C35.488 18.0938 36.2956 18.9013 36.2956 19.9574C36.2956 21.0134 35.488 21.821 34.432 21.821Z" fill="#2C3E50"/>
<path d="M43.5339 21.821H41.6703C40.6142 21.821 39.8066 21.0134 39.8066 19.9574V18.0938H43.5339V21.821Z" fill="#2C3E50"/>
<path d="M47.153 18.0938H43.4258V21.821H47.153V18.0938Z" fill="#2C3E50"/>
<path d="M54.3874 21.821H50.6602V19.9574C50.6602 18.9013 51.4677 18.0938 52.5238 18.0938H54.3874V21.821Z" fill="#2C3E50"/>
<path d="M58.0056 18.0938H54.2783V21.821H58.0056V18.0938Z" fill="#2C3E50"/>
<path d="M61.6247 18.0938H57.8975V21.821H61.6247V18.0938Z" fill="#2C3E50"/>
<path d="M63.3792 21.821H61.5156V18.0938H65.2429V19.9574C65.2429 21.0134 64.4353 21.821 63.3792 21.821Z" fill="#2C3E50"/>
<path d="M77.8548 21.821C76.7988 21.821 75.9912 21.0134 75.9912 19.9574V18.0938H79.7185V19.9574C79.7185 21.0134 78.9109 21.821 77.8548 21.821Z" fill="#2C3E50"/>
<path d="M85.0921 21.821C86.1214 21.821 86.9558 20.9866 86.9558 19.9574C86.9558 18.9281 86.1214 18.0938 85.0921 18.0938C84.0629 18.0938 83.2285 18.9281 83.2285 19.9574C83.2285 20.9866 84.0629 21.821 85.0921 21.821Z" fill="#2C3E50"/>
<path d="M94.194 21.821H92.3304C91.2744 21.821 90.4668 21.0134 90.4668 19.9574V18.0938H94.194V21.821Z" fill="#2C3E50"/>
<path d="M97.8112 18.0938H94.084V21.821H97.8112V18.0938Z" fill="#2C3E50"/>
<path d="M101.431 18.0938H97.7041V21.821H101.431V18.0938Z" fill="#2C3E50"/>
<path d="M105.05 21.821H101.322V18.0938H103.186C104.242 18.0938 105.05 18.9013 105.05 19.9574V21.821Z" fill="#2C3E50"/>
<path d="M32.6784 21.7109H28.9512V25.4382H32.6784V21.7109Z" fill="#2C3E50"/>
<path d="M38.0521 25.4382C39.0813 25.4382 39.9157 24.6038 39.9157 23.5746C39.9157 22.5453 39.0813 21.7109 38.0521 21.7109C37.0228 21.7109 36.1885 22.5453 36.1885 23.5746C36.1885 24.6038 37.0228 25.4382 38.0521 25.4382Z" fill="#2C3E50"/>
<path d="M45.2894 25.4382C44.2334 25.4382 43.4258 24.6306 43.4258 23.5746V21.7109H47.153V23.5746C47.153 24.6306 46.3455 25.4382 45.2894 25.4382Z" fill="#2C3E50"/>
<path d="M52.5238 25.4382C51.4677 25.4382 50.6602 24.6306 50.6602 23.5746V21.7109H54.3874V23.5746C54.3874 24.6306 53.5798 25.4382 52.5238 25.4382Z" fill="#2C3E50"/>
<path d="M61.6247 21.7109H57.8975V25.4382H61.6247V21.7109Z" fill="#2C3E50"/>
<path d="M66.9994 25.4382C68.0286 25.4382 68.863 24.6038 68.863 23.5746C68.863 22.5453 68.0286 21.7109 66.9994 21.7109C65.9701 21.7109 65.1357 22.5453 65.1357 23.5746C65.1357 24.6038 65.9701 25.4382 66.9994 25.4382Z" fill="#2C3E50"/>
<path d="M74.2367 25.4382C75.2659 25.4382 76.1003 24.6038 76.1003 23.5746C76.1003 22.5453 75.2659 21.7109 74.2367 21.7109C73.2074 21.7109 72.373 22.5453 72.373 23.5746C72.373 24.6038 73.2074 25.4382 74.2367 25.4382Z" fill="#2C3E50"/>
<path d="M81.473 25.4382C82.5022 25.4382 83.3366 24.6038 83.3366 23.5746C83.3366 22.5453 82.5022 21.7109 81.473 21.7109C80.4437 21.7109 79.6094 22.5453 79.6094 23.5746C79.6094 24.6038 80.4437 25.4382 81.473 25.4382Z" fill="#2C3E50"/>
<path d="M88.7103 25.4382C89.7395 25.4382 90.5739 24.6038 90.5739 23.5746C90.5739 22.5453 89.7395 21.7109 88.7103 21.7109C87.6811 21.7109 86.8467 22.5453 86.8467 23.5746C86.8467 24.6038 87.6811 25.4382 88.7103 25.4382Z" fill="#2C3E50"/>
<path d="M95.9476 25.4382C94.8916 25.4382 94.084 24.6306 94.084 23.5746V21.7109H97.8112V23.5746C97.8112 24.6306 97.0037 25.4382 95.9476 25.4382Z" fill="#2C3E50"/>
<path d="M105.05 21.7109H101.322V25.4382H105.05V21.7109Z" fill="#2C3E50"/>
<path d="M32.6784 25.332H28.9512V29.0593H32.6784V25.332Z" fill="#2C3E50"/>
<path d="M36.2956 29.0593H32.5684V25.332H34.432C35.488 25.332 36.2956 26.1396 36.2956 27.1956V29.0593Z" fill="#2C3E50"/>
<path d="M50.7673 29.0593H47.04V27.1956C47.04 26.1396 47.8476 25.332 48.9037 25.332C49.9597 25.332 50.7673 26.1396 50.7673 27.1956V29.0593Z" fill="#2C3E50"/>
<path d="M61.6247 29.0593H59.7611C58.705 29.0593 57.8975 28.2517 57.8975 27.1956V25.332H61.6247V29.0593Z" fill="#2C3E50"/>
<path d="M63.3792 29.0593H61.5156V25.332H63.3792C64.4353 25.332 65.2429 26.1396 65.2429 27.1956C65.2429 28.2517 64.4353 29.0593 63.3792 29.0593Z" fill="#2C3E50"/>
<path d="M72.4802 29.0593H68.7529V27.1956C68.7529 26.1396 69.5605 25.332 70.6166 25.332C71.6726 25.332 72.4802 26.1396 72.4802 27.1956V29.0593Z" fill="#2C3E50"/>
<path d="M85.0921 29.0593C86.1214 29.0593 86.9558 28.2249 86.9558 27.1956C86.9558 26.1664 86.1214 25.332 85.0921 25.332C84.0629 25.332 83.2285 26.1664 83.2285 27.1956C83.2285 28.2249 84.0629 29.0593 85.0921 29.0593Z" fill="#2C3E50"/>
<path d="M92.3304 29.0593C93.3597 29.0593 94.194 28.2249 94.194 27.1956C94.194 26.1664 93.3597 25.332 92.3304 25.332C91.3012 25.332 90.4668 26.1664 90.4668 27.1956C90.4668 28.2249 91.3012 29.0593 92.3304 29.0593Z" fill="#2C3E50"/>
<path d="M103.186 29.0593C102.13 29.0593 101.322 28.2517 101.322 27.1956V25.332H105.05V27.1956C105.05 28.2517 104.242 29.0593 103.186 29.0593Z" fill="#2C3E50"/>
<path d="M10.9645 32.6765H9.10093C8.04487 32.6765 7.2373 31.8689 7.2373 30.8128C7.2373 29.7568 8.04487 28.9492 9.10093 28.9492H10.9645V32.6765Z" fill="#2C3E50"/>
<path d="M14.5827 28.9492H10.8555V32.6765H14.5827V28.9492Z" fill="#2C3E50"/>
<path d="M18.2028 32.6765H14.4756V28.9492H16.3392C17.3953 28.9492 18.2028 29.7568 18.2028 30.8128V32.6765Z" fill="#2C3E50"/>
<path d="M23.5726 32.6765C24.6019 32.6765 25.4362 31.8421 25.4362 30.8128C25.4362 29.7836 24.6019 28.9492 23.5726 28.9492C22.5434 28.9492 21.709 29.7836 21.709 30.8128C21.709 31.8421 22.5434 32.6765 23.5726 32.6765Z" fill="#2C3E50"/>
<path d="M32.6784 28.9492H28.9512V32.6765H32.6784V28.9492Z" fill="#2C3E50"/>
<path d="M36.2956 28.9492H32.5684V32.6765H36.2956V28.9492Z" fill="#2C3E50"/>
<path d="M47.153 32.6765H45.2894C44.2334 32.6765 43.4258 31.8689 43.4258 30.8128C43.4258 29.7568 44.2334 28.9492 45.2894 28.9492H47.153V32.6765Z" fill="#2C3E50"/>
<path d="M50.7673 28.9492H47.04V32.6765H50.7673V28.9492Z" fill="#2C3E50"/>
<path d="M54.3874 28.9492H50.6602V32.6765H54.3874V28.9492Z" fill="#2C3E50"/>
<path d="M56.1419 32.6765H54.2783V28.9492H56.1419C57.198 28.9492 58.0056 29.7568 58.0056 30.8128C58.0056 31.8689 57.198 32.6765 56.1419 32.6765Z" fill="#2C3E50"/>
<path d="M68.863 32.6765H66.9994C65.9433 32.6765 65.1357 31.8689 65.1357 30.8128C65.1357 29.7568 65.9433 28.9492 66.9994 28.9492H68.863V32.6765Z" fill="#2C3E50"/>
<path d="M72.4802 28.9492H68.7529V32.6765H72.4802V28.9492Z" fill="#2C3E50"/>
<path d="M76.1003 28.9492H72.373V32.6765H76.1003V28.9492Z" fill="#2C3E50"/>
<path d="M79.7185 28.9492H75.9912V32.6765H79.7185V28.9492Z" fill="#2C3E50"/>
<path d="M81.473 32.6765H79.6094V28.9492H81.473C82.529 28.9492 83.3366 29.7568 83.3366 30.8128C83.3366 31.8689 82.529 32.6765 81.473 32.6765Z" fill="#2C3E50"/>
<path d="M90.5739 32.6765H86.8467V30.8128C86.8467 29.7568 87.6542 28.9492 88.7103 28.9492C89.7664 28.9492 90.5739 29.7568 90.5739 30.8128V32.6765Z" fill="#2C3E50"/>
<path d="M95.9476 32.6765C96.9769 32.6765 97.8112 31.8421 97.8112 30.8128C97.8112 29.7836 96.9769 28.9492 95.9476 28.9492C94.9184 28.9492 94.084 29.7836 94.084 30.8128C94.084 31.8421 94.9184 32.6765 95.9476 32.6765Z" fill="#2C3E50"/>
<path d="M108.67 32.6765H106.806C105.75 32.6765 104.942 31.8689 104.942 30.8128C104.942 29.7568 105.75 28.9492 106.806 28.9492H108.67V32.6765Z" fill="#2C3E50"/>
<path d="M112.287 28.9492H108.56V32.6765H112.287V28.9492Z" fill="#2C3E50"/>
<path d="M115.907 32.6765H112.18V28.9492H114.043C115.099 28.9492 115.907 29.7568 115.907 30.8128V32.6765Z" fill="#2C3E50"/>
<path d="M126.762 32.6765H124.899C123.843 32.6765 123.035 31.8689 123.035 30.8128C123.035 29.7568 123.843 28.9492 124.899 28.9492H126.762V32.6765Z" fill="#2C3E50"/>
<path d="M130.381 28.9492H126.653V32.6765H130.381V28.9492Z" fill="#2C3E50"/>
<path d="M132.137 32.6765H130.273V28.9492H132.137C133.193 28.9492 134.001 29.7568 134.001 30.8128C134.001 31.8689 133.193 32.6765 132.137 32.6765Z" fill="#2C3E50"/>
<path d="M3.72724 36.2936H1.86362C0.807569 36.2936 0 35.4861 0 34.43C0 33.374 0.807569 32.5664 1.86362 32.5664H3.72724V36.2936Z" fill="#2C3E50"/>
<path d="M7.34541 36.2936H3.61816V32.5664H5.48178C6.53784 32.5664 7.34541 33.374 7.34541 34.43V36.2936Z" fill="#2C3E50"/>
<path d="M18.2028 32.5664H14.4756V36.2936H18.2028V32.5664Z" fill="#2C3E50"/>
<path d="M19.9564 36.2936H18.0928V32.5664H19.9564C21.0124 32.5664 21.82 33.374 21.82 34.43C21.82 35.4861 21.0124 36.2936 19.9564 36.2936Z" fill="#2C3E50"/>
<path d="M32.6784 36.2936H30.8148C29.7587 36.2936 28.9512 35.4861 28.9512 34.43V32.5664H32.6784V36.2936Z" fill="#2C3E50"/>
<path d="M36.2956 32.5664H32.5684V36.2936H36.2956V32.5664Z" fill="#2C3E50"/>
<path d="M39.9157 32.5664H36.1885V36.2936H39.9157V32.5664Z" fill="#2C3E50"/>
<path d="M43.5339 36.2936H39.8066V32.5664H41.6703C42.7263 32.5664 43.5339 33.374 43.5339 34.43V36.2936Z" fill="#2C3E50"/>
<path d="M52.5238 36.2936C51.4677 36.2936 50.6602 35.4861 50.6602 34.43V32.5664H54.3874V34.43C54.3874 35.4861 53.5798 36.2936 52.5238 36.2936Z" fill="#2C3E50"/>
<path d="M61.6247 36.2936H57.8975V34.43C57.8975 33.374 58.705 32.5664 59.7611 32.5664H61.6247V36.2936Z" fill="#2C3E50"/>
<path d="M65.2429 36.2936H61.5156V32.5664H63.3792C64.4353 32.5664 65.2429 33.374 65.2429 34.43V36.2936Z" fill="#2C3E50"/>
<path d="M76.1003 32.5664H72.373V36.2936H76.1003V32.5664Z" fill="#2C3E50"/>
<path d="M90.5739 36.2936H88.7103C87.6542 36.2936 86.8467 35.4861 86.8467 34.43V32.5664H90.5739V36.2936Z" fill="#2C3E50"/>
<path d="M94.194 36.2936H90.4668V32.5664H92.3304C93.3865 32.5664 94.194 33.374 94.194 34.43V36.2936Z" fill="#2C3E50"/>
<path d="M101.431 36.2936H97.7041V34.43C97.7041 33.374 98.5117 32.5664 99.5677 32.5664C100.624 32.5664 101.431 33.374 101.431 34.43V36.2936Z" fill="#2C3E50"/>
<path d="M115.907 32.5664H112.18V36.2936H115.907V32.5664Z" fill="#2C3E50"/>
<path d="M121.281 36.2936C122.31 36.2936 123.144 35.4593 123.144 34.43C123.144 33.4008 122.31 32.5664 121.281 32.5664C120.251 32.5664 119.417 33.4008 119.417 34.43C119.417 35.4593 120.251 36.2936 121.281 36.2936Z" fill="#2C3E50"/>
<path d="M7.34541 36.1875H3.61816V39.9147H7.34541V36.1875Z" fill="#2C3E50"/>
<path d="M14.5827 39.9147H12.7191C11.663 39.9147 10.8555 39.1072 10.8555 38.0511C10.8555 36.9951 11.663 36.1875 12.7191 36.1875H14.5827V39.9147Z" fill="#2C3E50"/>
<path d="M16.3392 39.9147H14.4756V36.1875H18.2028V38.0511C18.2028 39.1072 17.3953 39.9147 16.3392 39.9147Z" fill="#2C3E50"/>
<path d="M25.4362 39.9147H23.5726C22.5166 39.9147 21.709 39.1072 21.709 38.0511C21.709 36.9951 22.5166 36.1875 23.5726 36.1875H25.4362V39.9147Z" fill="#2C3E50"/>
<path d="M29.0583 39.9147H25.3311V36.1875H27.1947C28.2507 36.1875 29.0583 36.9951 29.0583 38.0511V39.9147Z" fill="#2C3E50"/>
<path d="M39.9157 36.1875H36.1885V39.9147H39.9157V36.1875Z" fill="#2C3E50"/>
<path d="M43.5339 36.1875H39.8066V39.9147H43.5339V36.1875Z" fill="#2C3E50"/>
<path d="M48.9037 39.9147C49.9329 39.9147 50.7673 39.0804 50.7673 38.0511C50.7673 37.0219 49.9329 36.1875 48.9037 36.1875C47.8744 36.1875 47.04 37.0219 47.04 38.0511C47.04 39.0804 47.8744 39.9147 48.9037 39.9147Z" fill="#2C3E50"/>
<path d="M61.6247 36.1875H57.8975V39.9147H61.6247V36.1875Z" fill="#2C3E50"/>
<path d="M65.2429 36.1875H61.5156V39.9147H65.2429V36.1875Z" fill="#2C3E50"/>
<path d="M66.9994 39.9147H65.1357V36.1875H66.9994C68.0554 36.1875 68.863 36.9951 68.863 38.0511C68.863 39.1072 68.0554 39.9147 66.9994 39.9147Z" fill="#2C3E50"/>
<path d="M76.1003 36.1875H72.373V39.9147H76.1003V36.1875Z" fill="#2C3E50"/>
<path d="M83.3366 39.9147H79.6094V38.0511C79.6094 36.9951 80.4169 36.1875 81.473 36.1875H83.3366V39.9147Z" fill="#2C3E50"/>
<path d="M86.9558 39.9147H83.2285V36.1875H85.0921C86.1482 36.1875 86.9558 36.9951 86.9558 38.0511V39.9147Z" fill="#2C3E50"/>
<path d="M94.194 39.9147H92.3304C91.2744 39.9147 90.4668 39.1072 90.4668 38.0511V36.1875H94.194V39.9147Z" fill="#2C3E50"/>
<path d="M97.8112 36.1875H94.084V39.9147H97.8112V36.1875Z" fill="#2C3E50"/>
<path d="M101.431 36.1875H97.7041V39.9147H101.431V36.1875Z" fill="#2C3E50"/>
<path d="M105.05 39.9147H101.322V36.1875H103.186C104.242 36.1875 105.05 36.9951 105.05 38.0511V39.9147Z" fill="#2C3E50"/>
<path d="M112.287 39.9147H108.56V38.0511C108.56 36.9951 109.367 36.1875 110.423 36.1875H112.287V39.9147Z" fill="#2C3E50"/>
<path d="M114.043 39.9147H112.18V36.1875H115.907V38.0511C115.907 39.1072 115.099 39.9147 114.043 39.9147Z" fill="#2C3E50"/>
<path d="M126.762 39.9147H124.899C123.843 39.9147 123.035 39.1072 123.035 38.0511C123.035 36.9951 123.843 36.1875 124.899 36.1875H126.762V39.9147Z" fill="#2C3E50"/>
<path d="M130.381 36.1875H126.653V39.9147H130.381V36.1875Z" fill="#2C3E50"/>
<path d="M134.001 39.9147H130.273V36.1875H132.137C133.193 36.1875 134.001 36.9951 134.001 38.0511V39.9147Z" fill="#2C3E50"/>
<path d="M3.72724 43.5319H0V41.6683C0 40.6123 0.807569 39.8047 1.86362 39.8047H3.72724V43.5319Z" fill="#2C3E50"/>
<path d="M5.48178 43.5319H3.61816V39.8047H7.34541V41.6683C7.34541 42.7244 6.53784 43.5319 5.48178 43.5319Z" fill="#2C3E50"/>
<path d="M27.1947 43.5319C26.1386 43.5319 25.3311 42.7244 25.3311 41.6683V39.8047H29.0583V41.6683C29.0583 42.7244 28.2507 43.5319 27.1947 43.5319Z" fill="#2C3E50"/>
<path d="M39.9157 39.8047H36.1885V43.5319H39.9157V39.8047Z" fill="#2C3E50"/>
<path d="M43.5339 39.8047H39.8066V43.5319H43.5339V39.8047Z" fill="#2C3E50"/>
<path d="M59.7611 43.5319C58.705 43.5319 57.8975 42.7244 57.8975 41.6683V39.8047H61.6247V41.6683C61.6247 42.7244 60.8171 43.5319 59.7611 43.5319Z" fill="#2C3E50"/>
<path d="M72.4802 43.5319H68.7529V41.6683C68.7529 40.6123 69.5605 39.8047 70.6166 39.8047H72.4802V43.5319Z" fill="#2C3E50"/>
<path d="M76.1003 39.8047H72.373V43.5319H76.1003V39.8047Z" fill="#2C3E50"/>
<path d="M79.7185 39.8047H75.9912V43.5319H79.7185V39.8047Z" fill="#2C3E50"/>
<path d="M83.3366 39.8047H79.6094V43.5319H83.3366V39.8047Z" fill="#2C3E50"/>
<path d="M85.0921 43.5319H83.2285V39.8047H86.9558V41.6683C86.9558 42.7244 86.1482 43.5319 85.0921 43.5319Z" fill="#2C3E50"/>
<path d="M97.8112 39.8047H94.084V43.5319H97.8112V39.8047Z" fill="#2C3E50"/>
<path d="M103.186 43.5319C102.13 43.5319 101.322 42.7244 101.322 41.6683V39.8047H105.05V41.6683C105.05 42.7244 104.242 43.5319 103.186 43.5319Z" fill="#2C3E50"/>
<path d="M112.287 39.8047H108.56V43.5319H112.287V39.8047Z" fill="#2C3E50"/>
<path d="M119.525 43.5319H115.798V41.6683C115.798 40.6123 116.605 39.8047 117.661 39.8047C118.718 39.8047 119.525 40.6123 119.525 41.6683V43.5319Z" fill="#2C3E50"/>
<path d="M130.381 39.8047H126.653V43.5319H130.381V39.8047Z" fill="#2C3E50"/>
<path d="M132.137 43.5319H130.273V39.8047H134.001V41.6683C134.001 42.7244 133.193 43.5319 132.137 43.5319Z" fill="#2C3E50"/>
<path d="M1.86362 47.153C0.807569 47.153 0 46.3454 0 45.2894V43.4258H3.72724V45.2894C3.72724 46.3454 2.91967 47.153 1.86362 47.153Z" fill="#2C3E50"/>
<path d="M14.5827 47.153H10.8555V45.2894C10.8555 44.2333 11.663 43.4258 12.7191 43.4258H14.5827V47.153Z" fill="#2C3E50"/>
<path d="M18.2028 43.4258H14.4756V47.153H18.2028V43.4258Z" fill="#2C3E50"/>
<path d="M21.82 43.4258H18.0928V47.153H21.82V43.4258Z" fill="#2C3E50"/>
<path d="M23.5726 47.153H21.709V43.4258H23.5726C24.6287 43.4258 25.4362 44.2333 25.4362 45.2894C25.4362 46.3454 24.6287 47.153 23.5726 47.153Z" fill="#2C3E50"/>
<path d="M36.2956 47.153H34.432C33.3759 47.153 32.5684 46.3454 32.5684 45.2894C32.5684 44.2333 33.3759 43.4258 34.432 43.4258H36.2956V47.153Z" fill="#2C3E50"/>
<path d="M39.9157 43.4258H36.1885V47.153H39.9157V43.4258Z" fill="#2C3E50"/>
<path d="M43.5339 43.4258H39.8066V47.153H43.5339V43.4258Z" fill="#2C3E50"/>
<path d="M45.2894 47.153H43.4258V43.4258H45.2894C46.3455 43.4258 47.153 44.2333 47.153 45.2894C47.153 46.3454 46.3455 47.153 45.2894 47.153Z" fill="#2C3E50"/>
<path d="M52.5238 47.153C53.553 47.153 54.3874 46.3186 54.3874 45.2894C54.3874 44.2602 53.553 43.4258 52.5238 43.4258C51.4945 43.4258 50.6602 44.2602 50.6602 45.2894C50.6602 46.3186 51.4945 47.153 52.5238 47.153Z" fill="#2C3E50"/>
<path d="M65.2429 47.153H61.5156V45.2894C61.5156 44.2333 62.3232 43.4258 63.3792 43.4258H65.2429V47.153Z" fill="#2C3E50"/>
<path d="M68.863 43.4258H65.1357V47.153H68.863V43.4258Z" fill="#2C3E50"/>
<path d="M72.4802 43.4258H68.7529V47.153H72.4802V43.4258Z" fill="#2C3E50"/>
<path d="M74.2367 47.153H72.373V43.4258H76.1003V45.2894C76.1003 46.3454 75.2927 47.153 74.2367 47.153Z" fill="#2C3E50"/>
<path d="M90.5739 47.153H86.8467V45.2894C86.8467 44.2333 87.6542 43.4258 88.7103 43.4258H90.5739V47.153Z" fill="#2C3E50"/>
<path d="M94.194 43.4258H90.4668V47.153H94.194V43.4258Z" fill="#2C3E50"/>
<path d="M95.9476 47.153H94.084V43.4258H97.8112V45.2894C97.8112 46.3454 97.0037 47.153 95.9476 47.153Z" fill="#2C3E50"/>
<path d="M108.67 47.153H104.942V45.2894C104.942 44.2333 105.75 43.4258 106.806 43.4258H108.67V47.153Z" fill="#2C3E50"/>
<path d="M110.423 47.153H108.56V43.4258H112.287V45.2894C112.287 46.3454 111.479 47.153 110.423 47.153Z" fill="#2C3E50"/>
<path d="M119.525 47.153H117.661C116.605 47.153 115.798 46.3454 115.798 45.2894V43.4258H119.525V47.153Z" fill="#2C3E50"/>
<path d="M123.144 43.4258H119.417V47.153H123.144V43.4258Z" fill="#2C3E50"/>
<path d="M126.762 43.4258H123.035V47.153H126.762V43.4258Z" fill="#2C3E50"/>
<path d="M128.517 47.153H126.653V43.4258H130.381V45.2894C130.381 46.3454 129.573 47.153 128.517 47.153Z" fill="#2C3E50"/>
<path d="M7.34541 50.7702H3.61816V48.9066C3.61816 47.8505 4.42573 47.043 5.48178 47.043H7.34541V50.7702Z" fill="#2C3E50"/>
<path d="M10.9645 47.043H7.2373V50.7702H10.9645V47.043Z" fill="#2C3E50"/>
<path d="M14.5827 47.043H10.8555V50.7702H14.5827V47.043Z" fill="#2C3E50"/>
<path d="M30.8148 50.7702C31.844 50.7702 32.6784 49.9358 32.6784 48.9066C32.6784 47.8773 31.844 47.043 30.8148 47.043C29.7855 47.043 28.9512 47.8773 28.9512 48.9066C28.9512 49.9358 29.7855 50.7702 30.8148 50.7702Z" fill="#2C3E50"/>
<path d="M41.6703 50.7702C40.6142 50.7702 39.8066 49.9626 39.8066 48.9066V47.043H43.5339V48.9066C43.5339 49.9626 42.7263 50.7702 41.6703 50.7702Z" fill="#2C3E50"/>
<path d="M48.9037 50.7702C49.9329 50.7702 50.7673 49.9358 50.7673 48.9066C50.7673 47.8773 49.9329 47.043 48.9037 47.043C47.8744 47.043 47.04 47.8773 47.04 48.9066C47.04 49.9358 47.8744 50.7702 48.9037 50.7702Z" fill="#2C3E50"/>
<path d="M61.6247 50.7702H57.8975V48.9066C57.8975 47.8505 58.705 47.043 59.7611 47.043H61.6247V50.7702Z" fill="#2C3E50"/>
<path d="M65.2429 47.043H61.5156V50.7702H65.2429V47.043Z" fill="#2C3E50"/>
<path d="M68.863 47.043H65.1357V50.7702H68.863V47.043Z" fill="#2C3E50"/>
<path d="M70.6175 50.7702H68.7539V47.043H72.4811V48.9066C72.4811 49.9626 71.6736 50.7702 70.6175 50.7702Z" fill="#2C3E50"/>
<path d="M79.7185 50.7702H75.9912V48.9066C75.9912 47.8505 76.7988 47.043 77.8548 47.043C78.9109 47.043 79.7185 47.8505 79.7185 48.9066V50.7702Z" fill="#2C3E50"/>
<path d="M90.5739 47.043H86.8467V50.7702H90.5739V47.043Z" fill="#2C3E50"/>
<path d="M105.05 50.7702H101.322V48.9066C101.322 47.8505 102.13 47.043 103.186 47.043H105.05V50.7702Z" fill="#2C3E50"/>
<path d="M106.806 50.7702H104.942V47.043H108.67V48.9066C108.67 49.9626 107.862 50.7702 106.806 50.7702Z" fill="#2C3E50"/>
<path d="M115.907 50.7702H112.18V48.9066C112.18 47.8505 112.987 47.043 114.043 47.043C115.099 47.043 115.907 47.8505 115.907 48.9066V50.7702Z" fill="#2C3E50"/>
<path d="M123.144 47.043H119.417V50.7702H123.144V47.043Z" fill="#2C3E50"/>
<path d="M124.899 50.7702H123.035V47.043H126.762V48.9066C126.762 49.9626 125.955 50.7702 124.899 50.7702Z" fill="#2C3E50"/>
<path d="M3.72724 54.3874H1.86362C0.807569 54.3874 0 53.5798 0 52.5238C0 51.4677 0.807569 50.6602 1.86362 50.6602H3.72724V54.3874Z" fill="#2C3E50"/>
<path d="M7.34541 50.6602H3.61816V54.3874H7.34541V50.6602Z" fill="#2C3E50"/>
<path d="M10.9645 50.6602H7.2373V54.3874H10.9645V50.6602Z" fill="#2C3E50"/>
<path d="M14.5827 50.6602H10.8555V54.3874H14.5827V50.6602Z" fill="#2C3E50"/>
<path d="M18.2028 50.6602H14.4756V54.3874H18.2028V50.6602Z" fill="#2C3E50"/>
<path d="M21.82 50.6602H18.0928V54.3874H21.82V50.6602Z" fill="#2C3E50"/>
<path d="M25.4362 50.6602H21.709V54.3874H25.4362V50.6602Z" fill="#2C3E50"/>
<path d="M29.0583 54.3874H25.3311V50.6602H27.1947C28.2507 50.6602 29.0583 51.4677 29.0583 52.5238V54.3874Z" fill="#2C3E50"/>
<path d="M39.9157 54.3874H36.1885V52.5238C36.1885 51.4677 36.996 50.6602 38.0521 50.6602C39.1081 50.6602 39.9157 51.4677 39.9157 52.5238V54.3874Z" fill="#2C3E50"/>
<path d="M47.153 54.3874H43.4258V52.5238C43.4258 51.4677 44.2334 50.6602 45.2894 50.6602C46.3455 50.6602 47.153 51.4677 47.153 52.5238V54.3874Z" fill="#2C3E50"/>
<path d="M52.5238 54.3874C53.553 54.3874 54.3874 53.553 54.3874 52.5238C54.3874 51.4945 53.553 50.6602 52.5238 50.6602C51.4945 50.6602 50.6602 51.4945 50.6602 52.5238C50.6602 53.553 51.4945 54.3874 52.5238 54.3874Z" fill="#2C3E50"/>
<path d="M61.6247 50.6602H57.8975V54.3874H61.6247V50.6602Z" fill="#2C3E50"/>
<path d="M65.2429 50.6602H61.5156V54.3874H65.2429V50.6602Z" fill="#2C3E50"/>
<path d="M68.863 50.6602H65.1357V54.3874H68.863V50.6602Z" fill="#2C3E50"/>
<path d="M76.1003 54.3874H72.373V52.5238C72.373 51.4677 73.1806 50.6602 74.2367 50.6602H76.1003V54.3874Z" fill="#2C3E50"/>
<path d="M79.7185 50.6602H75.9912V54.3874H79.7185V50.6602Z" fill="#2C3E50"/>
<path d="M86.9558 54.3874H83.2285V52.5238C83.2285 51.4677 84.0361 50.6602 85.0921 50.6602H86.9558V54.3874Z" fill="#2C3E50"/>
<path d="M90.5739 50.6602H86.8467V54.3874H90.5739V50.6602Z" fill="#2C3E50"/>
<path d="M92.3304 54.3874H90.4668V50.6602H92.3304C93.3865 50.6602 94.194 51.4677 94.194 52.5238C94.194 53.5798 93.3865 54.3874 92.3304 54.3874Z" fill="#2C3E50"/>
<path d="M101.431 54.3874H97.7041V52.5238C97.7041 51.4677 98.5117 50.6602 99.5677 50.6602H101.431V54.3874Z" fill="#2C3E50"/>
<path d="M105.05 50.6602H101.322V54.3874H105.05V50.6602Z" fill="#2C3E50"/>
<path d="M114.043 54.3874C112.987 54.3874 112.18 53.5798 112.18 52.5238V50.6602H115.907V52.5238C115.907 53.5798 115.099 54.3874 114.043 54.3874Z" fill="#2C3E50"/>
<path d="M121.281 54.3874C120.225 54.3874 119.417 53.5798 119.417 52.5238V50.6602H123.144V52.5238C123.144 53.5798 122.337 54.3874 121.281 54.3874Z" fill="#2C3E50"/>
<path d="M130.381 54.3874H126.653V52.5238C126.653 51.4677 127.461 50.6602 128.517 50.6602H130.381V54.3874Z" fill="#2C3E50"/>
<path d="M132.137 54.3874H130.273V50.6602H132.137C133.193 50.6602 134.001 51.4677 134.001 52.5238C134.001 53.5798 133.193 54.3874 132.137 54.3874Z" fill="#2C3E50"/>
<path d="M16.3392 58.0085C15.2832 58.0085 14.4756 57.2009 14.4756 56.1449V54.2812H18.2028V56.1449C18.2028 57.2009 17.3953 58.0085 16.3392 58.0085Z" fill="#2C3E50"/>
<path d="M29.0583 58.0085H27.1947C26.1386 58.0085 25.3311 57.2009 25.3311 56.1449V54.2812H29.0583V58.0085Z" fill="#2C3E50"/>
<path d="M32.6784 58.0085H28.9512V54.2812H30.8148C31.8708 54.2812 32.6784 55.0888 32.6784 56.1449V58.0085Z" fill="#2C3E50"/>
<path d="M39.9157 54.2812H36.1885V58.0085H39.9157V54.2812Z" fill="#2C3E50"/>
<path d="M47.153 54.2812H43.4258V58.0085H47.153V54.2812Z" fill="#2C3E50"/>
<path d="M59.7611 58.0085C58.705 58.0085 57.8975 57.2009 57.8975 56.1449V54.2812H61.6247V56.1449C61.6247 57.2009 60.8171 58.0085 59.7611 58.0085Z" fill="#2C3E50"/>
<path d="M68.863 54.2812H65.1357V58.0085H68.863V54.2812Z" fill="#2C3E50"/>
<path d="M72.4811 54.2812H68.7539V58.0085H72.4811V54.2812Z" fill="#2C3E50"/>
<path d="M76.1003 54.2812H72.373V58.0085H76.1003V54.2812Z" fill="#2C3E50"/>
<path d="M79.7185 54.2812H75.9912V58.0085H79.7185V54.2812Z" fill="#2C3E50"/>
<path d="M83.3366 54.2812H79.6094V58.0085H83.3366V54.2812Z" fill="#2C3E50"/>
<path d="M85.0921 58.0085H83.2285V54.2812H86.9558V56.1449C86.9558 57.2009 86.1482 58.0085 85.0921 58.0085Z" fill="#2C3E50"/>
<path d="M101.431 58.0085H99.5677C98.5117 58.0085 97.7041 57.2009 97.7041 56.1449V54.2812H101.431V58.0085Z" fill="#2C3E50"/>
<path d="M105.05 54.2812H101.322V58.0085H105.05V54.2812Z" fill="#2C3E50"/>
<path d="M108.67 54.2812H104.942V58.0085H108.67V54.2812Z" fill="#2C3E50"/>
<path d="M112.287 58.0085H108.56V54.2812H110.423C111.479 54.2812 112.287 55.0888 112.287 56.1449V58.0085Z" fill="#2C3E50"/>
<path d="M119.525 58.0085H115.798V56.1449C115.798 55.0888 116.605 54.2812 117.661 54.2812C118.718 54.2812 119.525 55.0888 119.525 56.1449V58.0085Z" fill="#2C3E50"/>
<path d="M130.381 54.2812H126.653V58.0085H130.381V54.2812Z" fill="#2C3E50"/>
<path d="M7.34541 61.6257H5.48178C4.42573 61.6257 3.61816 60.8181 3.61816 59.7621C3.61816 58.706 4.42573 57.8984 5.48178 57.8984H7.34541V61.6257Z" fill="#2C3E50"/>
<path d="M10.9645 57.8984H7.2373V61.6257H10.9645V57.8984Z" fill="#2C3E50"/>
<path d="M12.7191 61.6257H10.8555V57.8984H12.7191C13.7751 57.8984 14.5827 58.706 14.5827 59.7621C14.5827 60.8181 13.7751 61.6257 12.7191 61.6257Z" fill="#2C3E50"/>
<path d="M23.5726 61.6257C24.6019 61.6257 25.4362 60.7913 25.4362 59.7621C25.4362 58.7328 24.6019 57.8984 23.5726 57.8984C22.5434 57.8984 21.709 58.7328 21.709 59.7621C21.709 60.7913 22.5434 61.6257 23.5726 61.6257Z" fill="#2C3E50"/>
<path d="M32.6784 57.8984H28.9512V61.6257H32.6784V57.8984Z" fill="#2C3E50"/>
<path d="M38.0521 61.6257C36.996 61.6257 36.1885 60.8181 36.1885 59.7621V57.8984H39.9157V59.7621C39.9157 60.8181 39.1081 61.6257 38.0521 61.6257Z" fill="#2C3E50"/>
<path d="M47.153 57.8984H43.4258V61.6257H47.153V57.8984Z" fill="#2C3E50"/>
<path d="M58.0056 61.6257H54.2783V59.7621C54.2783 58.706 55.0859 57.8984 56.1419 57.8984C57.198 57.8984 58.0056 58.706 58.0056 59.7621V61.6257Z" fill="#2C3E50"/>
<path d="M65.2429 61.6257H63.3792C62.3232 61.6257 61.5156 60.8181 61.5156 59.7621C61.5156 58.706 62.3232 57.8984 63.3792 57.8984H65.2429V61.6257Z" fill="#2C3E50"/>
<path d="M68.863 57.8984H65.1357V61.6257H68.863V57.8984Z" fill="#2C3E50"/>
<path d="M70.6166 61.6257H68.7529V57.8984H72.4802V59.7621C72.4802 60.8181 71.6726 61.6257 70.6166 61.6257Z" fill="#2C3E50"/>
<path d="M83.3366 57.8984H79.6094V61.6257H83.3366V57.8984Z" fill="#2C3E50"/>
<path d="M90.5739 61.6257H86.8467V59.7621C86.8467 58.706 87.6542 57.8984 88.7103 57.8984H90.5739V61.6257Z" fill="#2C3E50"/>
<path d="M94.194 57.8984H90.4668V61.6257H94.194V57.8984Z" fill="#2C3E50"/>
<path d="M97.8112 61.6257H94.084V57.8984H95.9476C97.0037 57.8984 97.8112 58.706 97.8112 59.7621V61.6257Z" fill="#2C3E50"/>
<path d="M108.67 61.6257H106.806C105.75 61.6257 104.942 60.8181 104.942 59.7621V57.8984H108.67V61.6257Z" fill="#2C3E50"/>
<path d="M110.423 61.6257H108.56V57.8984H112.287V59.7621C112.287 60.8181 111.479 61.6257 110.423 61.6257Z" fill="#2C3E50"/>
<path d="M117.661 61.6257C116.605 61.6257 115.798 60.8181 115.798 59.7621V57.8984H119.525V59.7621C119.525 60.8181 118.718 61.6257 117.661 61.6257Z" fill="#2C3E50"/>
<path d="M126.762 61.6257H123.035V59.7621C123.035 58.706 123.843 57.8984 124.899 57.8984H126.762V61.6257Z" fill="#2C3E50"/>
<path d="M128.517 61.6257H126.653V57.8984H130.381V59.7621C130.381 60.8181 129.573 61.6257 128.517 61.6257Z" fill="#2C3E50"/>
<path d="M3.72724 65.2429H0V63.3792C0 62.3232 0.807569 61.5156 1.86362 61.5156C2.91967 61.5156 3.72724 62.3232 3.72724 63.3792V65.2429Z" fill="#2C3E50"/>
<path d="M9.10093 65.2429C8.04487 65.2429 7.2373 64.4353 7.2373 63.3792V61.5156H10.9645V63.3792C10.9645 64.4353 10.157 65.2429 9.10093 65.2429Z" fill="#2C3E50"/>
<path d="M18.2028 65.2429H14.4756V63.3792C14.4756 62.3232 15.2832 61.5156 16.3392 61.5156H18.2028V65.2429Z" fill="#2C3E50"/>
<path d="M21.82 65.2429H18.0928V61.5156H19.9564C21.0124 61.5156 21.82 62.3232 21.82 63.3792V65.2429Z" fill="#2C3E50"/>
<path d="M29.0583 65.2429H25.3311V63.3792C25.3311 62.3232 26.1386 61.5156 27.1947 61.5156H29.0583V65.2429Z" fill="#2C3E50"/>
<path d="M32.6784 61.5156H28.9512V65.2429H32.6784V61.5156Z" fill="#2C3E50"/>
<path d="M34.432 65.2429H32.5684V61.5156H34.432C35.488 61.5156 36.2956 62.3232 36.2956 63.3792C36.2956 64.4353 35.488 65.2429 34.432 65.2429Z" fill="#2C3E50"/>
<path d="M47.153 61.5156H43.4258V65.2429H47.153V61.5156Z" fill="#2C3E50"/>
<path d="M56.1419 65.2429C55.0859 65.2429 54.2783 64.4353 54.2783 63.3792V61.5156H58.0056V63.3792C58.0056 64.4353 57.198 65.2429 56.1419 65.2429Z" fill="#2C3E50"/>
<path d="M81.473 65.2429C80.4169 65.2429 79.6094 64.4353 79.6094 63.3792V61.5156H83.3366V63.3792C83.3366 64.4353 82.529 65.2429 81.473 65.2429Z" fill="#2C3E50"/>
<path d="M88.7103 65.2429C87.6542 65.2429 86.8467 64.4353 86.8467 63.3792V61.5156H90.5739V63.3792C90.5739 64.4353 89.7664 65.2429 88.7103 65.2429Z" fill="#2C3E50"/>
<path d="M95.9476 65.2429C94.8916 65.2429 94.084 64.4353 94.084 63.3792V61.5156H97.8112V63.3792C97.8112 64.4353 97.0037 65.2429 95.9476 65.2429Z" fill="#2C3E50"/>
<path d="M114.043 65.2429C115.073 65.2429 115.907 64.4085 115.907 63.3792C115.907 62.35 115.073 61.5156 114.043 61.5156C113.014 61.5156 112.18 62.35 112.18 63.3792C112.18 64.4085 113.014 65.2429 114.043 65.2429Z" fill="#2C3E50"/>
<path d="M124.899 65.2429C123.843 65.2429 123.035 64.4353 123.035 63.3792V61.5156H126.762V63.3792C126.762 64.4353 125.955 65.2429 124.899 65.2429Z" fill="#2C3E50"/>
<path d="M1.86362 68.864C0.807569 68.864 0 68.0564 0 67.0003V65.1367H3.72724V67.0003C3.72724 68.0564 2.91967 68.864 1.86362 68.864Z" fill="#2C3E50"/>
<path d="M18.2028 65.1367H14.4756V68.864H18.2028V65.1367Z" fill="#2C3E50"/>
<path d="M21.82 65.1367H18.0928V68.864H21.82V65.1367Z" fill="#2C3E50"/>
<path d="M25.4362 65.1367H21.709V68.864H25.4362V65.1367Z" fill="#2C3E50"/>
<path d="M29.0583 65.1367H25.3311V68.864H29.0583V65.1367Z" fill="#2C3E50"/>
<path d="M39.9157 68.864H36.1885V67.0003C36.1885 65.9443 36.996 65.1367 38.0521 65.1367C39.1081 65.1367 39.9157 65.9443 39.9157 67.0003V68.864Z" fill="#2C3E50"/>
<path d="M47.153 68.864H45.2894C44.2334 68.864 43.4258 68.0564 43.4258 67.0003V65.1367H47.153V68.864Z" fill="#2C3E50"/>
<path d="M50.7673 68.864H47.04V65.1367H48.9037C49.9597 65.1367 50.7673 65.9443 50.7673 67.0003V68.864Z" fill="#2C3E50"/>
<path d="M65.2429 68.864H63.3792C62.3232 68.864 61.5156 68.0564 61.5156 67.0003C61.5156 65.9443 62.3232 65.1367 63.3792 65.1367H65.2429V68.864Z" fill="#2C3E50"/>
<path d="M66.9994 68.864H65.1357V65.1367H66.9994C68.0554 65.1367 68.863 65.9443 68.863 67.0003C68.863 68.0564 68.0554 68.864 66.9994 68.864Z" fill="#2C3E50"/>
<path d="M76.1003 68.864H72.373V67.0003C72.373 65.9443 73.1806 65.1367 74.2367 65.1367H76.1003V68.864Z" fill="#2C3E50"/>
<path d="M77.8548 68.864H75.9912V65.1367H77.8548C78.9109 65.1367 79.7185 65.9443 79.7185 67.0003C79.7185 68.0564 78.9109 68.864 77.8548 68.864Z" fill="#2C3E50"/>
<path d="M101.431 68.864H97.7041V67.0003C97.7041 65.9443 98.5117 65.1367 99.5677 65.1367H101.431V68.864Z" fill="#2C3E50"/>
<path d="M105.05 65.1367H101.322V68.864H105.05V65.1367Z" fill="#2C3E50"/>
<path d="M106.806 68.864H104.942V65.1367H106.806C107.862 65.1367 108.67 65.9443 108.67 67.0003C108.67 68.0564 107.862 68.864 106.806 68.864Z" fill="#2C3E50"/>
<path d="M117.661 68.864C118.691 68.864 119.525 68.0296 119.525 67.0003C119.525 65.9711 118.691 65.1367 117.661 65.1367C116.632 65.1367 115.798 65.9711 115.798 67.0003C115.798 68.0296 116.632 68.864 117.661 68.864Z" fill="#2C3E50"/>
<path d="M130.381 68.864H128.517C127.461 68.864 126.653 68.0564 126.653 67.0003C126.653 65.9443 127.461 65.1367 128.517 65.1367H130.381V68.864Z" fill="#2C3E50"/>
<path d="M134.001 68.864H130.273V65.1367H132.137C133.193 65.1367 134.001 65.9443 134.001 67.0003V68.864Z" fill="#2C3E50"/>
<path d="M10.9645 72.4811H7.2373V70.6175C7.2373 69.5615 8.04487 68.7539 9.10093 68.7539H10.9645V72.4811Z" fill="#2C3E50"/>
<path d="M14.5827 68.7539H10.8555V72.4811H14.5827V68.7539Z" fill="#2C3E50"/>
<path d="M18.2028 68.7539H14.4756V72.4811H18.2028V68.7539Z" fill="#2C3E50"/>
<path d="M21.82 68.7539H18.0928V72.4811H21.82V68.7539Z" fill="#2C3E50"/>
<path d="M29.0583 72.4811H27.1947C26.1386 72.4811 25.3311 71.6736 25.3311 70.6175V68.7539H29.0583V72.4811Z" fill="#2C3E50"/>
<path d="M32.6784 72.4811H28.9512V68.7539H30.8148C31.8708 68.7539 32.6784 69.5615 32.6784 70.6175V72.4811Z" fill="#2C3E50"/>
<path d="M39.9157 68.7539H36.1885V72.4811H39.9157V68.7539Z" fill="#2C3E50"/>
<path d="M41.6703 72.4811H39.8066V68.7539H41.6703C42.7263 68.7539 43.5339 69.5615 43.5339 70.6175C43.5339 71.6736 42.7263 72.4811 41.6703 72.4811Z" fill="#2C3E50"/>
<path d="M50.7673 72.4811H48.9037C47.8476 72.4811 47.04 71.6736 47.04 70.6175V68.7539H50.7673V72.4811Z" fill="#2C3E50"/>
<path d="M54.3874 68.7539H50.6602V72.4811H54.3874V68.7539Z" fill="#2C3E50"/>
<path d="M56.1419 72.4811H54.2783V68.7539H56.1419C57.198 68.7539 58.0056 69.5615 58.0056 70.6175C58.0056 71.6736 57.198 72.4811 56.1419 72.4811Z" fill="#2C3E50"/>
<path d="M76.1003 68.7539H72.373V72.4811H76.1003V68.7539Z" fill="#2C3E50"/>
<path d="M83.3366 72.4811H81.473C80.4169 72.4811 79.6094 71.6736 79.6094 70.6175C79.6094 69.5615 80.4169 68.7539 81.473 68.7539H83.3366V72.4811Z" fill="#2C3E50"/>
<path d="M86.9558 68.7539H83.2285V72.4811H86.9558V68.7539Z" fill="#2C3E50"/>
<path d="M88.7103 72.4811H86.8467V68.7539H88.7103C89.7664 68.7539 90.5739 69.5615 90.5739 70.6175C90.5739 71.6736 89.7664 72.4811 88.7103 72.4811Z" fill="#2C3E50"/>
<path d="M101.431 68.7539H97.7041V72.4811H101.431V68.7539Z" fill="#2C3E50"/>
<path d="M103.186 72.4811H101.322V68.7539H105.05V70.6175C105.05 71.6736 104.242 72.4811 103.186 72.4811Z" fill="#2C3E50"/>
<path d="M112.287 72.4811H108.56V70.6175C108.56 69.5615 109.367 68.7539 110.423 68.7539C111.479 68.7539 112.287 69.5615 112.287 70.6175V72.4811Z" fill="#2C3E50"/>
<path d="M132.137 72.4811C131.081 72.4811 130.273 71.6736 130.273 70.6175V68.7539H134.001V70.6175C134.001 71.6736 133.193 72.4811 132.137 72.4811Z" fill="#2C3E50"/>
<path d="M7.34541 76.1022H3.61816V74.2386C3.61816 73.1826 4.42573 72.375 5.48178 72.375H7.34541V76.1022Z" fill="#2C3E50"/>
<path d="M9.10093 76.1022H7.2373V72.375H10.9645V74.2386C10.9645 75.2947 10.157 76.1022 9.10093 76.1022Z" fill="#2C3E50"/>
<path d="M18.2028 76.1022H16.3392C15.2832 76.1022 14.4756 75.2947 14.4756 74.2386V72.375H18.2028V76.1022Z" fill="#2C3E50"/>
<path d="M21.82 72.375H18.0928V76.1022H21.82V72.375Z" fill="#2C3E50"/>
<path d="M23.5726 76.1022H21.709V72.375H23.5726C24.6287 72.375 25.4362 73.1826 25.4362 74.2386C25.4362 75.2947 24.6287 76.1022 23.5726 76.1022Z" fill="#2C3E50"/>
<path d="M32.6784 72.375H28.9512V76.1022H32.6784V72.375Z" fill="#2C3E50"/>
<path d="M39.9157 72.375H36.1885V76.1022H39.9157V72.375Z" fill="#2C3E50"/>
<path d="M72.4802 76.1022H70.6166C69.5605 76.1022 68.7529 75.2947 68.7529 74.2386C68.7529 73.1826 69.5605 72.375 70.6166 72.375H72.4802V76.1022Z" fill="#2C3E50"/>
<path d="M76.1003 72.375H72.373V76.1022H76.1003V72.375Z" fill="#2C3E50"/>
<path d="M94.194 76.1022H92.3304C91.2744 76.1022 90.4668 75.2947 90.4668 74.2386C90.4668 73.1826 91.2744 72.375 92.3304 72.375H94.194V76.1022Z" fill="#2C3E50"/>
<path d="M97.8112 72.375H94.084V76.1022H97.8112V72.375Z" fill="#2C3E50"/>
<path d="M99.5677 76.1022H97.7041V72.375H101.431V74.2386C101.431 75.2947 100.624 76.1022 99.5677 76.1022Z" fill="#2C3E50"/>
<path d="M108.67 76.1022H106.806C105.75 76.1022 104.942 75.2947 104.942 74.2386C104.942 73.1826 105.75 72.375 106.806 72.375H108.67V76.1022Z" fill="#2C3E50"/>
<path d="M112.287 72.375H108.56V76.1022H112.287V72.375Z" fill="#2C3E50"/>
<path d="M115.907 72.375H112.18V76.1022H115.907V72.375Z" fill="#2C3E50"/>
<path d="M119.525 72.375H115.798V76.1022H119.525V72.375Z" fill="#2C3E50"/>
<path d="M123.144 72.375H119.417V76.1022H123.144V72.375Z" fill="#2C3E50"/>
<path d="M126.762 76.1022H123.035V72.375H124.899C125.955 72.375 126.762 73.1826 126.762 74.2386V76.1022Z" fill="#2C3E50"/>
<path d="M7.34541 75.9922H3.61816V79.7194H7.34541V75.9922Z" fill="#2C3E50"/>
<path d="M21.82 75.9922H18.0928V79.7194H21.82V75.9922Z" fill="#2C3E50"/>
<path d="M30.8148 79.7194C29.7587 79.7194 28.9512 78.9119 28.9512 77.8558V75.9922H32.6784V77.8558C32.6784 78.9119 31.8708 79.7194 30.8148 79.7194Z" fill="#2C3E50"/>
<path d="M39.9157 75.9922H36.1885V79.7194H39.9157V75.9922Z" fill="#2C3E50"/>
<path d="M41.6703 79.7194H39.8066V75.9922H41.6703C42.7263 75.9922 43.5339 76.7998 43.5339 77.8558C43.5339 78.9119 42.7263 79.7194 41.6703 79.7194Z" fill="#2C3E50"/>
<path d="M48.9037 79.7194C49.9329 79.7194 50.7673 78.8851 50.7673 77.8558C50.7673 76.8266 49.9329 75.9922 48.9037 75.9922C47.8744 75.9922 47.04 76.8266 47.04 77.8558C47.04 78.8851 47.8744 79.7194 48.9037 79.7194Z" fill="#2C3E50"/>
<path d="M58.0056 79.7194H54.2783V77.8558C54.2783 76.7998 55.0859 75.9922 56.1419 75.9922C57.198 75.9922 58.0056 76.7998 58.0056 77.8558V79.7194Z" fill="#2C3E50"/>
<path d="M65.2429 79.7194H61.5156V77.8558C61.5156 76.7998 62.3232 75.9922 63.3792 75.9922H65.2429V79.7194Z" fill="#2C3E50"/>
<path d="M66.9994 79.7194H65.1357V75.9922H66.9994C68.0554 75.9922 68.863 76.7998 68.863 77.8558C68.863 78.9119 68.0554 79.7194 66.9994 79.7194Z" fill="#2C3E50"/>
<path d="M74.2367 79.7194C73.1806 79.7194 72.373 78.9119 72.373 77.8558V75.9922H76.1003V77.8558C76.1003 78.9119 75.2927 79.7194 74.2367 79.7194Z" fill="#2C3E50"/>
<path d="M83.3366 79.7194H79.6094V77.8558C79.6094 76.7998 80.4169 75.9922 81.473 75.9922C82.529 75.9922 83.3366 76.7998 83.3366 77.8558V79.7194Z" fill="#2C3E50"/>
<path d="M95.9476 79.7194C94.8916 79.7194 94.084 78.9119 94.084 77.8558V75.9922H97.8112V77.8558C97.8112 78.9119 97.0037 79.7194 95.9476 79.7194Z" fill="#2C3E50"/>
<path d="M114.043 79.7194C112.987 79.7194 112.18 78.9119 112.18 77.8558V75.9922H115.907V77.8558C115.907 78.9119 115.099 79.7194 114.043 79.7194Z" fill="#2C3E50"/>
<path d="M126.762 75.9922H123.035V79.7194H126.762V75.9922Z" fill="#2C3E50"/>
<path d="M5.48178 83.3366C4.42573 83.3366 3.61816 82.529 3.61816 81.473V79.6094H7.34541V81.473C7.34541 82.529 6.53784 83.3366 5.48178 83.3366Z" fill="#2C3E50"/>
<path d="M21.82 83.3366H19.9564C18.9003 83.3366 18.0928 82.529 18.0928 81.473V79.6094H21.82V83.3366Z" fill="#2C3E50"/>
<path d="M23.5726 83.3366H21.709V79.6094H23.5726C24.6287 79.6094 25.4362 80.4169 25.4362 81.473C25.4362 82.529 24.6287 83.3366 23.5726 83.3366Z" fill="#2C3E50"/>
<path d="M36.2956 83.3366H34.432C33.3759 83.3366 32.5684 82.529 32.5684 81.473C32.5684 80.4169 33.3759 79.6094 34.432 79.6094H36.2956V83.3366Z" fill="#2C3E50"/>
<path d="M39.9157 79.6094H36.1885V83.3366H39.9157V79.6094Z" fill="#2C3E50"/>
<path d="M54.3874 83.3366H50.6602V81.473C50.6602 80.4169 51.4677 79.6094 52.5238 79.6094H54.3874V83.3366Z" fill="#2C3E50"/>
<path d="M58.0056 79.6094H54.2783V83.3366H58.0056V79.6094Z" fill="#2C3E50"/>
<path d="M65.2429 79.6094H61.5156V83.3366H65.2429V79.6094Z" fill="#2C3E50"/>
<path d="M70.6166 83.3366C71.6458 83.3366 72.4802 82.5022 72.4802 81.473C72.4802 80.4437 71.6458 79.6094 70.6166 79.6094C69.5873 79.6094 68.7529 80.4437 68.7529 81.473C68.7529 82.5022 69.5873 83.3366 70.6166 83.3366Z" fill="#2C3E50"/>
<path d="M83.3366 83.3366H81.473C80.4169 83.3366 79.6094 82.529 79.6094 81.473V79.6094H83.3366V83.3366Z" fill="#2C3E50"/>
<path d="M85.0921 83.3366H83.2285V79.6094H85.0921C86.1482 79.6094 86.9558 80.4169 86.9558 81.473C86.9558 82.529 86.1482 83.3366 85.0921 83.3366Z" fill="#2C3E50"/>
<path d="M99.5677 83.3366C100.597 83.3366 101.431 82.5022 101.431 81.473C101.431 80.4437 100.597 79.6094 99.5677 79.6094C98.5385 79.6094 97.7041 80.4437 97.7041 81.473C97.7041 82.5022 98.5385 83.3366 99.5677 83.3366Z" fill="#2C3E50"/>
<path d="M108.67 83.3366H104.942V81.473C104.942 80.4169 105.75 79.6094 106.806 79.6094C107.862 79.6094 108.67 80.4169 108.67 81.473V83.3366Z" fill="#2C3E50"/>
<path d="M126.762 83.3366H124.899C123.843 83.3366 123.035 82.529 123.035 81.473V79.6094H126.762V83.3366Z" fill="#2C3E50"/>
<path d="M130.381 79.6094H126.653V83.3366H130.381V79.6094Z" fill="#2C3E50"/>
<path d="M134.001 83.3366H130.273V79.6094H132.137C133.193 79.6094 134.001 80.4169 134.001 81.473V83.3366Z" fill="#2C3E50"/>
<path d="M10.9645 86.9577H7.2373V85.0941C7.2373 84.038 8.04487 83.2305 9.10093 83.2305C10.157 83.2305 10.9645 84.038 10.9645 85.0941V86.9577Z" fill="#2C3E50"/>
<path d="M32.6784 86.9577H28.9512V85.0941C28.9512 84.038 29.7587 83.2305 30.8148 83.2305C31.8708 83.2305 32.6784 84.038 32.6784 85.0941V86.9577Z" fill="#2C3E50"/>
<path d="M39.9157 86.9577H38.0521C36.996 86.9577 36.1885 86.1501 36.1885 85.0941V83.2305H39.9157V86.9577Z" fill="#2C3E50"/>
<path d="M41.6703 86.9577H39.8066V83.2305H41.6703C42.7263 83.2305 43.5339 84.038 43.5339 85.0941C43.5339 86.1501 42.7263 86.9577 41.6703 86.9577Z" fill="#2C3E50"/>
<path d="M50.7673 86.9577H48.9037C47.8476 86.9577 47.04 86.1501 47.04 85.0941C47.04 84.038 47.8476 83.2305 48.9037 83.2305H50.7673V86.9577Z" fill="#2C3E50"/>
<path d="M54.3874 83.2305H50.6602V86.9577H54.3874V83.2305Z" fill="#2C3E50"/>
<path d="M58.0056 83.2305H54.2783V86.9577H58.0056V83.2305Z" fill="#2C3E50"/>
<path d="M61.6247 83.2305H57.8975V86.9577H61.6247V83.2305Z" fill="#2C3E50"/>
<path d="M65.2429 83.2305H61.5156V86.9577H65.2429V83.2305Z" fill="#2C3E50"/>
<path d="M76.1003 86.9577H74.2367C73.1806 86.9577 72.373 86.1501 72.373 85.0941C72.373 84.038 73.1806 83.2305 74.2367 83.2305H76.1003V86.9577Z" fill="#2C3E50"/>
<path d="M77.8548 86.9577H75.9912V83.2305H77.8548C78.9109 83.2305 79.7185 84.038 79.7185 85.0941C79.7185 86.1501 78.9109 86.9577 77.8548 86.9577Z" fill="#2C3E50"/>
<path d="M88.7103 86.9577C89.7395 86.9577 90.5739 86.1233 90.5739 85.0941C90.5739 84.0648 89.7395 83.2305 88.7103 83.2305C87.6811 83.2305 86.8467 84.0648 86.8467 85.0941C86.8467 86.1233 87.6811 86.9577 88.7103 86.9577Z" fill="#2C3E50"/>
<path d="M95.9476 86.9577C96.9769 86.9577 97.8112 86.1233 97.8112 85.0941C97.8112 84.0648 96.9769 83.2305 95.9476 83.2305C94.9184 83.2305 94.084 84.0648 94.084 85.0941C94.084 86.1233 94.9184 86.9577 95.9476 86.9577Z" fill="#2C3E50"/>
<path d="M108.67 83.2305H104.942V86.9577H108.67V83.2305Z" fill="#2C3E50"/>
<path d="M114.043 86.9577C115.073 86.9577 115.907 86.1233 115.907 85.0941C115.907 84.0648 115.073 83.2305 114.043 83.2305C113.014 83.2305 112.18 84.0648 112.18 85.0941C112.18 86.1233 113.014 86.9577 114.043 86.9577Z" fill="#2C3E50"/>
<path d="M130.381 86.9577H128.517C127.461 86.9577 126.653 86.1501 126.653 85.0941V83.2305H130.381V86.9577Z" fill="#2C3E50"/>
<path d="M132.137 86.9577H130.273V83.2305H134.001V85.0941C134.001 86.1501 133.193 86.9577 132.137 86.9577Z" fill="#2C3E50"/>
<path d="M3.72724 90.5749H0V88.7113C0 87.6552 0.807569 86.8477 1.86362 86.8477H3.72724V90.5749Z" fill="#2C3E50"/>
<path d="M7.34541 86.8477H3.61816V90.5749H7.34541V86.8477Z" fill="#2C3E50"/>
<path d="M10.9645 86.8477H7.2373V90.5749H10.9645V86.8477Z" fill="#2C3E50"/>
<path d="M14.5827 86.8477H10.8555V90.5749H14.5827V86.8477Z" fill="#2C3E50"/>
<path d="M18.2028 86.8477H14.4756V90.5749H18.2028V86.8477Z" fill="#2C3E50"/>
<path d="M21.82 86.8477H18.0928V90.5749H21.82V86.8477Z" fill="#2C3E50"/>
<path d="M23.5726 90.5749H21.709V86.8477H23.5726C24.6287 86.8477 25.4362 87.6552 25.4362 88.7113C25.4362 89.7673 24.6287 90.5749 23.5726 90.5749Z" fill="#2C3E50"/>
<path d="M32.6784 90.5749H30.8148C29.7587 90.5749 28.9512 89.7673 28.9512 88.7113V86.8477H32.6784V90.5749Z" fill="#2C3E50"/>
<path d="M34.432 90.5749H32.5684V86.8477H34.432C35.488 86.8477 36.2956 87.6552 36.2956 88.7113C36.2956 89.7673 35.488 90.5749 34.432 90.5749Z" fill="#2C3E50"/>
<path d="M52.5238 90.5749C51.4677 90.5749 50.6602 89.7673 50.6602 88.7113V86.8477H54.3874V88.7113C54.3874 89.7673 53.5798 90.5749 52.5238 90.5749Z" fill="#2C3E50"/>
<path d="M61.6247 90.5749H59.7611C58.705 90.5749 57.8975 89.7673 57.8975 88.7113V86.8477H61.6247V90.5749Z" fill="#2C3E50"/>
<path d="M63.3792 90.5749H61.5156V86.8477H65.2429V88.7113C65.2429 89.7673 64.4353 90.5749 63.3792 90.5749Z" fill="#2C3E50"/>
<path d="M85.0921 90.5749C86.1214 90.5749 86.9558 89.7405 86.9558 88.7113C86.9558 87.682 86.1214 86.8477 85.0921 86.8477C84.0629 86.8477 83.2285 87.682 83.2285 88.7113C83.2285 89.7405 84.0629 90.5749 85.0921 90.5749Z" fill="#2C3E50"/>
<path d="M108.67 90.5749H106.806C105.75 90.5749 104.942 89.7673 104.942 88.7113V86.8477H108.67V90.5749Z" fill="#2C3E50"/>
<path d="M110.423 90.5749H108.56V86.8477H110.423C111.479 86.8477 112.287 87.6552 112.287 88.7113C112.287 89.7673 111.479 90.5749 110.423 90.5749Z" fill="#2C3E50"/>
<path d="M119.525 90.5749H117.661C116.605 90.5749 115.798 89.7673 115.798 88.7113C115.798 87.6552 116.605 86.8477 117.661 86.8477H119.525V90.5749Z" fill="#2C3E50"/>
<path d="M123.144 86.8477H119.417V90.5749H123.144V86.8477Z" fill="#2C3E50"/>
<path d="M124.899 90.5749H123.035V86.8477H124.899C125.955 86.8477 126.762 87.6552 126.762 88.7113C126.762 89.7673 125.955 90.5749 124.899 90.5749Z" fill="#2C3E50"/>
<path d="M3.72724 90.4688H0V94.196H3.72724V90.4688Z" fill="#2C3E50"/>
<path d="M7.34541 90.4688H3.61816V94.196H7.34541V90.4688Z" fill="#2C3E50"/>
<path d="M9.10093 94.196H7.2373V90.4688H10.9645V92.3324C10.9645 93.3884 10.157 94.196 9.10093 94.196Z" fill="#2C3E50"/>
<path d="M48.9037 94.196C49.9329 94.196 50.7673 93.3616 50.7673 92.3324C50.7673 91.3031 49.9329 90.4688 48.9037 90.4688C47.8744 90.4688 47.04 91.3031 47.04 92.3324C47.04 93.3616 47.8744 94.196 48.9037 94.196Z" fill="#2C3E50"/>
<path d="M58.0056 94.196H54.2783V92.3324C54.2783 91.2763 55.0859 90.4688 56.1419 90.4688C57.198 90.4688 58.0056 91.2763 58.0056 92.3324V94.196Z" fill="#2C3E50"/>
<path d="M68.863 94.196H65.1357V92.3324C65.1357 91.2763 65.9433 90.4688 66.9994 90.4688C68.0554 90.4688 68.863 91.2763 68.863 92.3324V94.196Z" fill="#2C3E50"/>
<path d="M79.7185 94.196H77.8548C76.7988 94.196 75.9912 93.3884 75.9912 92.3324C75.9912 91.2763 76.7988 90.4688 77.8548 90.4688H79.7185V94.196Z" fill="#2C3E50"/>
<path d="M81.473 94.196H79.6094V90.4688H81.473C82.529 90.4688 83.3366 91.2763 83.3366 92.3324C83.3366 93.3884 82.529 94.196 81.473 94.196Z" fill="#2C3E50"/>
<path d="M88.7103 94.196C89.7395 94.196 90.5739 93.3616 90.5739 92.3324C90.5739 91.3031 89.7395 90.4688 88.7103 90.4688C87.6811 90.4688 86.8467 91.3031 86.8467 92.3324C86.8467 93.3616 87.6811 94.196 88.7103 94.196Z" fill="#2C3E50"/>
<path d="M97.8112 94.196H94.084V92.3324C94.084 91.2763 94.8916 90.4688 95.9476 90.4688C97.0037 90.4688 97.8112 91.2763 97.8112 92.3324V94.196Z" fill="#2C3E50"/>
<path d="M114.043 94.196C115.073 94.196 115.907 93.3616 115.907 92.3324C115.907 91.3031 115.073 90.4688 114.043 90.4688C113.014 90.4688 112.18 91.3031 112.18 92.3324C112.18 93.3616 113.014 94.196 114.043 94.196Z" fill="#2C3E50"/>
<path d="M121.281 94.196C120.225 94.196 119.417 93.3884 119.417 92.3324V90.4688H123.144V92.3324C123.144 93.3884 122.337 94.196 121.281 94.196Z" fill="#2C3E50"/>
<path d="M3.72724 94.0859H0V97.8132H3.72724V94.0859Z" fill="#2C3E50"/>
<path d="M18.2028 97.8132H14.4756V95.9496C14.4756 94.8935 15.2832 94.0859 16.3392 94.0859H18.2028V97.8132Z" fill="#2C3E50"/>
<path d="M21.82 94.0859H18.0928V97.8132H21.82V94.0859Z" fill="#2C3E50"/>
<path d="M23.5726 97.8132H21.709V94.0859H23.5726C24.6287 94.0859 25.4362 94.8935 25.4362 95.9496C25.4362 97.0056 24.6287 97.8132 23.5726 97.8132Z" fill="#2C3E50"/>
<path d="M30.8148 97.8132C31.844 97.8132 32.6784 96.9788 32.6784 95.9496C32.6784 94.9203 31.844 94.0859 30.8148 94.0859C29.7855 94.0859 28.9512 94.9203 28.9512 95.9496C28.9512 96.9788 29.7855 97.8132 30.8148 97.8132Z" fill="#2C3E50"/>
<path d="M39.9157 97.8132H36.1885V95.9496C36.1885 94.8935 36.996 94.0859 38.0521 94.0859C39.1081 94.0859 39.9157 94.8935 39.9157 95.9496V97.8132Z" fill="#2C3E50"/>
<path d="M54.3874 97.8132H52.5238C51.4677 97.8132 50.6602 97.0056 50.6602 95.9496C50.6602 94.8935 51.4677 94.0859 52.5238 94.0859H54.3874V97.8132Z" fill="#2C3E50"/>
<path d="M56.1419 97.8132H54.2783V94.0859H58.0056V95.9496C58.0056 97.0056 57.198 97.8132 56.1419 97.8132Z" fill="#2C3E50"/>
<path d="M66.9994 97.8132C65.9433 97.8132 65.1357 97.0056 65.1357 95.9496V94.0859H68.863V95.9496C68.863 97.0056 68.0554 97.8132 66.9994 97.8132Z" fill="#2C3E50"/>
<path d="M74.2367 97.8132C75.2659 97.8132 76.1003 96.9788 76.1003 95.9496C76.1003 94.9203 75.2659 94.0859 74.2367 94.0859C73.2074 94.0859 72.373 94.9203 72.373 95.9496C72.373 96.9788 73.2074 97.8132 74.2367 97.8132Z" fill="#2C3E50"/>
<path d="M97.8112 94.0859H94.084V97.8132H97.8112V94.0859Z" fill="#2C3E50"/>
<path d="M99.5677 97.8132H97.7041V94.0859H99.5677C100.624 94.0859 101.431 94.8935 101.431 95.9496C101.431 97.0056 100.624 97.8132 99.5677 97.8132Z" fill="#2C3E50"/>
<path d="M110.423 97.8132C111.452 97.8132 112.287 96.9788 112.287 95.9496C112.287 94.9203 111.452 94.0859 110.423 94.0859C109.394 94.0859 108.56 94.9203 108.56 95.9496C108.56 96.9788 109.394 97.8132 110.423 97.8132Z" fill="#2C3E50"/>
<path d="M130.381 97.8132H126.653V95.9496C126.653 94.8935 127.461 94.0859 128.517 94.0859H130.381V97.8132Z" fill="#2C3E50"/>
<path d="M132.137 97.8132H130.273V94.0859H132.137C133.193 94.0859 134.001 94.8935 134.001 95.9496C134.001 97.0056 133.193 97.8132 132.137 97.8132Z" fill="#2C3E50"/>
<path d="M3.72724 97.7031H0V101.43H3.72724V97.7031Z" fill="#2C3E50"/>
<path d="M18.2028 101.43H16.3392C15.2832 101.43 14.4756 100.623 14.4756 99.5667V97.7031H18.2028V101.43Z" fill="#2C3E50"/>
<path d="M21.82 97.7031H18.0928V101.43H21.82V97.7031Z" fill="#2C3E50"/>
<path d="M36.2956 101.43H34.432C33.3759 101.43 32.5684 100.623 32.5684 99.5667C32.5684 98.5107 33.3759 97.7031 34.432 97.7031H36.2956V101.43Z" fill="#2C3E50"/>
<path d="M39.9157 97.7031H36.1885V101.43H39.9157V97.7031Z" fill="#2C3E50"/>
<path d="M47.153 101.43H45.2894C44.2334 101.43 43.4258 100.623 43.4258 99.5667C43.4258 98.5107 44.2334 97.7031 45.2894 97.7031H47.153V101.43Z" fill="#2C3E50"/>
<path d="M48.9037 101.43H47.04V97.7031H48.9037C49.9597 97.7031 50.7673 98.5107 50.7673 99.5667C50.7673 100.623 49.9597 101.43 48.9037 101.43Z" fill="#2C3E50"/>
<path d="M70.6175 101.43C71.6468 101.43 72.4811 100.596 72.4811 99.5667C72.4811 98.5375 71.6468 97.7031 70.6175 97.7031C69.5883 97.7031 68.7539 98.5375 68.7539 99.5667C68.7539 100.596 69.5883 101.43 70.6175 101.43Z" fill="#2C3E50"/>
<path d="M79.7185 101.43H77.8548C76.7988 101.43 75.9912 100.623 75.9912 99.5667C75.9912 98.5107 76.7988 97.7031 77.8548 97.7031H79.7185V101.43Z" fill="#2C3E50"/>
<path d="M81.473 101.43H79.6094V97.7031H81.473C82.529 97.7031 83.3366 98.5107 83.3366 99.5667C83.3366 100.623 82.529 101.43 81.473 101.43Z" fill="#2C3E50"/>
<path d="M90.5739 101.43H86.8467V99.5667C86.8467 98.5107 87.6542 97.7031 88.7103 97.7031C89.7664 97.7031 90.5739 98.5107 90.5739 99.5667V101.43Z" fill="#2C3E50"/>
<path d="M97.8112 97.7031H94.084V101.43H97.8112V97.7031Z" fill="#2C3E50"/>
<path d="M105.05 101.43H101.322V99.5667C101.322 98.5107 102.13 97.7031 103.186 97.7031H105.05V101.43Z" fill="#2C3E50"/>
<path d="M108.67 101.43H104.942V97.7031H106.806C107.862 97.7031 108.67 98.5107 108.67 99.5667V101.43Z" fill="#2C3E50"/>
<path d="M115.907 101.43H112.18V99.5667C112.18 98.5107 112.987 97.7031 114.043 97.7031C115.099 97.7031 115.907 98.5107 115.907 99.5667V101.43Z" fill="#2C3E50"/>
<path d="M130.381 97.7031H126.653V101.43H130.381V97.7031Z" fill="#2C3E50"/>
<path d="M1.86362 105.051C0.807569 105.051 0 104.244 0 103.188V101.324H3.72724V103.188C3.72724 104.244 2.91967 105.051 1.86362 105.051Z" fill="#2C3E50"/>
<path d="M21.82 105.051H19.9564C18.9003 105.051 18.0928 104.244 18.0928 103.188V101.324H21.82V105.051Z" fill="#2C3E50"/>
<path d="M23.5726 105.051H21.709V101.324H23.5726C24.6287 101.324 25.4362 102.132 25.4362 103.188C25.4362 104.244 24.6287 105.051 23.5726 105.051Z" fill="#2C3E50"/>
<path d="M39.9157 105.051H38.0521C36.996 105.051 36.1885 104.244 36.1885 103.188V101.324H39.9157V105.051Z" fill="#2C3E50"/>
<path d="M41.6703 105.051H39.8066V101.324H41.6703C42.7263 101.324 43.5339 102.132 43.5339 103.188C43.5339 104.244 42.7263 105.051 41.6703 105.051Z" fill="#2C3E50"/>
<path d="M61.6247 105.051H57.8975V103.188C57.8975 102.132 58.705 101.324 59.7611 101.324H61.6247V105.051Z" fill="#2C3E50"/>
<path d="M65.2429 105.051H61.5156V101.324H63.3792C64.4353 101.324 65.2429 102.132 65.2429 103.188V105.051Z" fill="#2C3E50"/>
<path d="M76.1003 105.051H72.373V103.188C72.373 102.132 73.1806 101.324 74.2367 101.324C75.2927 101.324 76.1003 102.132 76.1003 103.188V105.051Z" fill="#2C3E50"/>
<path d="M90.5739 105.051H88.7103C87.6542 105.051 86.8467 104.244 86.8467 103.188V101.324H90.5739V105.051Z" fill="#2C3E50"/>
<path d="M94.194 101.324H90.4668V105.051H94.194V101.324Z" fill="#2C3E50"/>
<path d="M95.9476 105.051H94.084V101.324H97.8112V103.188C97.8112 104.244 97.0037 105.051 95.9476 105.051Z" fill="#2C3E50"/>
<path d="M105.05 101.324H101.322V105.051H105.05V101.324Z" fill="#2C3E50"/>
<path d="M108.67 101.324H104.942V105.051H108.67V101.324Z" fill="#2C3E50"/>
<path d="M112.287 101.324H108.56V105.051H112.287V101.324Z" fill="#2C3E50"/>
<path d="M115.907 101.324H112.18V105.051H115.907V101.324Z" fill="#2C3E50"/>
<path d="M119.525 105.051H115.798V101.324H117.661C118.718 101.324 119.525 102.132 119.525 103.188V105.051Z" fill="#2C3E50"/>
<path d="M126.762 105.051H124.899C123.843 105.051 123.035 104.244 123.035 103.188C123.035 102.132 123.843 101.324 124.899 101.324H126.762V105.051Z" fill="#2C3E50"/>
<path d="M128.517 105.051H126.653V101.324H130.381V103.188C130.381 104.244 129.573 105.051 128.517 105.051Z" fill="#2C3E50"/>
<path d="M32.6784 108.669H30.8148C29.7587 108.669 28.9512 107.861 28.9512 106.805C28.9512 105.749 29.7587 104.941 30.8148 104.941H32.6784V108.669Z" fill="#2C3E50"/>
<path d="M36.2956 108.669H32.5684V104.941H34.432C35.488 104.941 36.2956 105.749 36.2956 106.805V108.669Z" fill="#2C3E50"/>
<path d="M47.153 108.669H45.2894C44.2334 108.669 43.4258 107.861 43.4258 106.805C43.4258 105.749 44.2334 104.941 45.2894 104.941H47.153V108.669Z" fill="#2C3E50"/>
<path d="M50.7673 104.941H47.04V108.669H50.7673V104.941Z" fill="#2C3E50"/>
<path d="M54.3874 104.941H50.6602V108.669H54.3874V104.941Z" fill="#2C3E50"/>
<path d="M58.0056 104.941H54.2783V108.669H58.0056V104.941Z" fill="#2C3E50"/>
<path d="M61.6247 104.941H57.8975V108.669H61.6247V104.941Z" fill="#2C3E50"/>
<path d="M65.2429 104.941H61.5156V108.669H65.2429V104.941Z" fill="#2C3E50"/>
<path d="M68.863 108.669H65.1357V104.941H66.9994C68.0554 104.941 68.863 105.749 68.863 106.805V108.669Z" fill="#2C3E50"/>
<path d="M76.1003 108.669H74.2367C73.1806 108.669 72.373 107.861 72.373 106.805V104.941H76.1003V108.669Z" fill="#2C3E50"/>
<path d="M79.7185 104.941H75.9912V108.669H79.7185V104.941Z" fill="#2C3E50"/>
<path d="M83.3366 104.941H79.6094V108.669H83.3366V104.941Z" fill="#2C3E50"/>
<path d="M85.0921 108.669H83.2285V104.941H85.0921C86.1482 104.941 86.9558 105.749 86.9558 106.805C86.9558 107.861 86.1482 108.669 85.0921 108.669Z" fill="#2C3E50"/>
<path d="M101.431 108.669H99.5677C98.5117 108.669 97.7041 107.861 97.7041 106.805C97.7041 105.749 98.5117 104.941 99.5677 104.941H101.431V108.669Z" fill="#2C3E50"/>
<path d="M105.05 104.941H101.322V108.669H105.05V104.941Z" fill="#2C3E50"/>
<path d="M119.525 104.941H115.798V108.669H119.525V104.941Z" fill="#2C3E50"/>
<path d="M36.2956 108.559H32.5684V112.286H36.2956V108.559Z" fill="#2C3E50"/>
<path d="M41.6703 112.286C42.6995 112.286 43.5339 111.451 43.5339 110.422C43.5339 109.393 42.6995 108.559 41.6703 108.559C40.641 108.559 39.8066 109.393 39.8066 110.422C39.8066 111.451 40.641 112.286 41.6703 112.286Z" fill="#2C3E50"/>
<path d="M48.9037 112.286C47.8476 112.286 47.04 111.478 47.04 110.422V108.559H50.7673V110.422C50.7673 111.478 49.9597 112.286 48.9037 112.286Z" fill="#2C3E50"/>
<path d="M59.7611 112.286C58.705 112.286 57.8975 111.478 57.8975 110.422V108.559H61.6247V110.422C61.6247 111.478 60.8171 112.286 59.7611 112.286Z" fill="#2C3E50"/>
<path d="M66.9994 112.286C65.9433 112.286 65.1357 111.478 65.1357 110.422V108.559H68.863V110.422C68.863 111.478 68.0554 112.286 66.9994 112.286Z" fill="#2C3E50"/>
<path d="M79.7185 108.559H75.9912V112.286H79.7185V108.559Z" fill="#2C3E50"/>
<path d="M83.3366 108.559H79.6094V112.286H83.3366V108.559Z" fill="#2C3E50"/>
<path d="M88.7103 112.286C89.7395 112.286 90.5739 111.451 90.5739 110.422C90.5739 109.393 89.7395 108.559 88.7103 108.559C87.6811 108.559 86.8467 109.393 86.8467 110.422C86.8467 111.451 87.6811 112.286 88.7103 112.286Z" fill="#2C3E50"/>
<path d="M97.8112 112.286H94.084V110.422C94.084 109.366 94.8916 108.559 95.9476 108.559C97.0037 108.559 97.8112 109.366 97.8112 110.422V112.286Z" fill="#2C3E50"/>
<path d="M105.05 108.559H101.322V112.286H105.05V108.559Z" fill="#2C3E50"/>
<path d="M110.423 112.286C111.452 112.286 112.287 111.451 112.287 110.422C112.287 109.393 111.452 108.559 110.423 108.559C109.394 108.559 108.56 109.393 108.56 110.422C108.56 111.451 109.394 112.286 110.423 112.286Z" fill="#2C3E50"/>
<path d="M119.525 108.559H115.798V112.286H119.525V108.559Z" fill="#2C3E50"/>
<path d="M121.281 112.286H119.417V108.559H121.281C122.337 108.559 123.144 109.366 123.144 110.422C123.144 111.478 122.337 112.286 121.281 112.286Z" fill="#2C3E50"/>
<path d="M130.381 112.286H126.653V110.422C126.653 109.366 127.461 108.559 128.517 108.559H130.381V112.286Z" fill="#2C3E50"/>
<path d="M132.137 112.286H130.273V108.559H132.137C133.193 108.559 134.001 109.366 134.001 110.422C134.001 111.478 133.193 112.286 132.137 112.286Z" fill="#2C3E50"/>
<path d="M36.2956 112.18H32.5684V115.907H36.2956V112.18Z" fill="#2C3E50"/>
<path d="M56.1419 115.907C57.1712 115.907 58.0056 115.073 58.0056 114.043C58.0056 113.014 57.1712 112.18 56.1419 112.18C55.1127 112.18 54.2783 113.014 54.2783 114.043C54.2783 115.073 55.1127 115.907 56.1419 115.907Z" fill="#2C3E50"/>
<path d="M65.2429 115.907H61.5156V114.043C61.5156 112.987 62.3232 112.18 63.3792 112.18C64.4353 112.18 65.2429 112.987 65.2429 114.043V115.907Z" fill="#2C3E50"/>
<path d="M72.4802 115.907H68.7529V114.043C68.7529 112.987 69.5605 112.18 70.6166 112.18H72.4802V115.907Z" fill="#2C3E50"/>
<path d="M76.1003 112.18H72.373V115.907H76.1003V112.18Z" fill="#2C3E50"/>
<path d="M79.7185 112.18H75.9912V115.907H79.7185V112.18Z" fill="#2C3E50"/>
<path d="M83.3366 112.18H79.6094V115.907H83.3366V112.18Z" fill="#2C3E50"/>
<path d="M97.8112 115.907H95.9476C94.8916 115.907 94.084 115.099 94.084 114.043V112.18H97.8112V115.907Z" fill="#2C3E50"/>
<path d="M101.431 112.18H97.7041V115.907H101.431V112.18Z" fill="#2C3E50"/>
<path d="M105.05 112.18H101.322V115.907H105.05V112.18Z" fill="#2C3E50"/>
<path d="M119.525 112.18H115.798V115.907H119.525V112.18Z" fill="#2C3E50"/>
<path d="M128.517 115.907C127.461 115.907 126.653 115.099 126.653 114.043V112.18H130.381V114.043C130.381 115.099 129.573 115.907 128.517 115.907Z" fill="#2C3E50"/>
<path d="M32.6784 119.524H28.9512V117.66C28.9512 116.604 29.7587 115.797 30.8148 115.797H32.6784V119.524Z" fill="#2C3E50"/>
<path d="M36.2956 115.797H32.5684V119.524H36.2956V115.797Z" fill="#2C3E50"/>
<path d="M39.9157 115.797H36.1885V119.524H39.9157V115.797Z" fill="#2C3E50"/>
<path d="M43.5339 115.797H39.8066V119.524H43.5339V115.797Z" fill="#2C3E50"/>
<path d="M47.153 115.797H43.4258V119.524H47.153V115.797Z" fill="#2C3E50"/>
<path d="M50.7673 119.524H47.04V115.797H48.9037C49.9597 115.797 50.7673 116.604 50.7673 117.66V119.524Z" fill="#2C3E50"/>
<path d="M65.2429 115.797H61.5156V119.524H65.2429V115.797Z" fill="#2C3E50"/>
<path d="M70.6175 119.524C69.5615 119.524 68.7539 118.717 68.7539 117.66V115.797H72.4811V117.66C72.4811 118.717 71.6736 119.524 70.6175 119.524Z" fill="#2C3E50"/>
<path d="M83.3366 119.524H81.473C80.4169 119.524 79.6094 118.717 79.6094 117.66V115.797H83.3366V119.524Z" fill="#2C3E50"/>
<path d="M86.9558 115.797H83.2285V119.524H86.9558V115.797Z" fill="#2C3E50"/>
<path d="M90.5739 115.797H86.8467V119.524H90.5739V115.797Z" fill="#2C3E50"/>
<path d="M92.3304 119.524H90.4668V115.797H92.3304C93.3865 115.797 94.194 116.604 94.194 117.66C94.194 118.717 93.3865 119.524 92.3304 119.524Z" fill="#2C3E50"/>
<path d="M101.431 119.524H99.5677C98.5117 119.524 97.7041 118.717 97.7041 117.66V115.797H101.431V119.524Z" fill="#2C3E50"/>
<path d="M105.05 115.797H101.322V119.524H105.05V115.797Z" fill="#2C3E50"/>
<path d="M108.67 115.797H104.942V119.524H108.67V115.797Z" fill="#2C3E50"/>
<path d="M112.287 115.797H108.56V119.524H112.287V115.797Z" fill="#2C3E50"/>
<path d="M115.907 115.797H112.18V119.524H115.907V115.797Z" fill="#2C3E50"/>
<path d="M119.525 115.797H115.798V119.524H119.525V115.797Z" fill="#2C3E50"/>
<path d="M126.762 119.524H123.035V117.66C123.035 116.604 123.843 115.797 124.899 115.797C125.955 115.797 126.762 116.604 126.762 117.66V119.524Z" fill="#2C3E50"/>
<path d="M32.6784 119.418H28.9512V123.145H32.6784V119.418Z" fill="#2C3E50"/>
<path d="M39.9157 123.145H38.0521C36.996 123.145 36.1885 122.338 36.1885 121.282V119.418H39.9157V123.145Z" fill="#2C3E50"/>
<path d="M41.6703 123.145H39.8066V119.418H43.5339V121.282C43.5339 122.338 42.7263 123.145 41.6703 123.145Z" fill="#2C3E50"/>
<path d="M50.7673 123.145H48.9037C47.8476 123.145 47.04 122.338 47.04 121.282V119.418H50.7673V123.145Z" fill="#2C3E50"/>
<path d="M54.3874 119.418H50.6602V123.145H54.3874V119.418Z" fill="#2C3E50"/>
<path d="M58.0056 119.418H54.2783V123.145H58.0056V119.418Z" fill="#2C3E50"/>
<path d="M61.6247 119.418H57.8975V123.145H61.6247V119.418Z" fill="#2C3E50"/>
<path d="M65.2429 119.418H61.5156V123.145H65.2429V119.418Z" fill="#2C3E50"/>
<path d="M66.9994 123.145H65.1357V119.418H66.9994C68.0554 119.418 68.863 120.226 68.863 121.282C68.863 122.338 68.0554 123.145 66.9994 123.145Z" fill="#2C3E50"/>
<path d="M79.7185 123.145H75.9912V121.282C75.9912 120.226 76.7988 119.418 77.8548 119.418C78.9109 119.418 79.7185 120.226 79.7185 121.282V123.145Z" fill="#2C3E50"/>
<path d="M110.423 123.145C109.367 123.145 108.56 122.338 108.56 121.282V119.418H112.287V121.282C112.287 122.338 111.479 123.145 110.423 123.145Z" fill="#2C3E50"/>
<path d="M117.661 123.145C116.605 123.145 115.798 122.338 115.798 121.282V119.418H119.525V121.282C119.525 122.338 118.718 123.145 117.661 123.145Z" fill="#2C3E50"/>
<path d="M126.762 119.418H123.035V123.145H126.762V119.418Z" fill="#2C3E50"/>
<path d="M30.8148 126.762C29.7587 126.762 28.9512 125.955 28.9512 124.899V123.035H32.6784V124.899C32.6784 125.955 31.8708 126.762 30.8148 126.762Z" fill="#2C3E50"/>
<path d="M47.153 126.762H43.4258V124.899C43.4258 123.843 44.2334 123.035 45.2894 123.035C46.3455 123.035 47.153 123.843 47.153 124.899V126.762Z" fill="#2C3E50"/>
<path d="M56.1419 126.762C55.0859 126.762 54.2783 125.955 54.2783 124.899V123.035H58.0056V124.899C58.0056 125.955 57.198 126.762 56.1419 126.762Z" fill="#2C3E50"/>
<path d="M63.3792 126.762C62.3232 126.762 61.5156 125.955 61.5156 124.899V123.035H65.2429V124.899C65.2429 125.955 64.4353 126.762 63.3792 126.762Z" fill="#2C3E50"/>
<path d="M76.1003 126.762H72.373V124.899C72.373 123.843 73.1806 123.035 74.2367 123.035H76.1003V126.762Z" fill="#2C3E50"/>
<path d="M79.7185 123.035H75.9912V126.762H79.7185V123.035Z" fill="#2C3E50"/>
<path d="M83.3366 123.035H79.6094V126.762H83.3366V123.035Z" fill="#2C3E50"/>
<path d="M86.9558 123.035H83.2285V126.762H86.9558V123.035Z" fill="#2C3E50"/>
<path d="M88.7103 126.762H86.8467V123.035H88.7103C89.7664 123.035 90.5739 123.843 90.5739 124.899C90.5739 125.955 89.7664 126.762 88.7103 126.762Z" fill="#2C3E50"/>
<path d="M108.67 126.762H104.942V124.899C104.942 123.843 105.75 123.035 106.806 123.035C107.862 123.035 108.67 123.843 108.67 124.899V126.762Z" fill="#2C3E50"/>
<path d="M114.043 126.762C115.073 126.762 115.907 125.928 115.907 124.899C115.907 123.87 115.073 123.035 114.043 123.035C113.014 123.035 112.18 123.87 112.18 124.899C112.18 125.928 113.014 126.762 114.043 126.762Z" fill="#2C3E50"/>
<path d="M124.899 126.762C123.843 126.762 123.035 125.955 123.035 124.899V123.035H126.762V124.899C126.762 125.955 125.955 126.762 124.899 126.762Z" fill="#2C3E50"/>
<path d="M134.001 126.762H130.273V124.899C130.273 123.843 131.081 123.035 132.137 123.035C133.193 123.035 134.001 123.843 134.001 124.899V126.762Z" fill="#2C3E50"/>
<path d="M36.2956 130.38H34.432C33.3759 130.38 32.5684 129.572 32.5684 128.516C32.5684 127.46 33.3759 126.652 34.432 126.652H36.2956V130.38Z" fill="#2C3E50"/>
<path d="M39.9157 130.38H36.1885V126.652H38.0521C39.1081 126.652 39.9157 127.46 39.9157 128.516V130.38Z" fill="#2C3E50"/>
<path d="M45.2894 130.38C44.2334 130.38 43.4258 129.572 43.4258 128.516V126.652H47.153V128.516C47.153 129.572 46.3455 130.38 45.2894 130.38Z" fill="#2C3E50"/>
<path d="M59.7611 130.38C60.7903 130.38 61.6247 129.545 61.6247 128.516C61.6247 127.487 60.7903 126.652 59.7611 126.652C58.7318 126.652 57.8975 127.487 57.8975 128.516C57.8975 129.545 58.7318 130.38 59.7611 130.38Z" fill="#2C3E50"/>
<path d="M68.863 130.38H65.1357V128.516C65.1357 127.46 65.9433 126.652 66.9994 126.652H68.863V130.38Z" fill="#2C3E50"/>
<path d="M72.4802 126.652H68.7529V130.38H72.4802V126.652Z" fill="#2C3E50"/>
<path d="M74.2367 130.38H72.373V126.652H76.1003V128.516C76.1003 129.572 75.2927 130.38 74.2367 130.38Z" fill="#2C3E50"/>
<path d="M83.3366 130.38H81.473C80.4169 130.38 79.6094 129.572 79.6094 128.516V126.652H83.3366V130.38Z" fill="#2C3E50"/>
<path d="M86.9558 126.652H83.2285V130.38H86.9558V126.652Z" fill="#2C3E50"/>
<path d="M101.431 130.38H99.5677C98.5117 130.38 97.7041 129.572 97.7041 128.516C97.7041 127.46 98.5117 126.652 99.5677 126.652H101.431V130.38Z" fill="#2C3E50"/>
<path d="M105.05 126.652H101.322V130.38H105.05V126.652Z" fill="#2C3E50"/>
<path d="M106.806 130.38H104.942V126.652H108.67V128.516C108.67 129.572 107.862 130.38 106.806 130.38Z" fill="#2C3E50"/>
<path d="M117.661 130.38C118.691 130.38 119.525 129.545 119.525 128.516C119.525 127.487 118.691 126.652 117.661 126.652C116.632 126.652 115.798 127.487 115.798 128.516C115.798 129.545 116.632 130.38 117.661 130.38Z" fill="#2C3E50"/>
<path d="M134.001 126.652H130.273V130.38H134.001V126.652Z" fill="#2C3E50"/>
<path d="M39.9157 134.001H38.0521C36.996 134.001 36.1885 133.193 36.1885 132.137V130.273H39.9157V134.001Z" fill="#2C3E50"/>
<path d="M41.6703 134.001H39.8066V130.273H41.6703C42.7263 130.273 43.5339 131.081 43.5339 132.137C43.5339 133.193 42.7263 134.001 41.6703 134.001Z" fill="#2C3E50"/>
<path d="M52.5238 134.001C53.553 134.001 54.3874 133.166 54.3874 132.137C54.3874 131.108 53.553 130.273 52.5238 130.273C51.4945 130.273 50.6602 131.108 50.6602 132.137C50.6602 133.166 51.4945 134.001 52.5238 134.001Z" fill="#2C3E50"/>
<path d="M65.2429 134.001H63.3792C62.3232 134.001 61.5156 133.193 61.5156 132.137C61.5156 131.081 62.3232 130.273 63.3792 130.273H65.2429V134.001Z" fill="#2C3E50"/>
<path d="M66.9994 134.001H65.1357V130.273H68.863V132.137C68.863 133.193 68.0554 134.001 66.9994 134.001Z" fill="#2C3E50"/>
<path d="M86.9558 134.001H85.0921C84.0361 134.001 83.2285 133.193 83.2285 132.137V130.273H86.9558V134.001Z" fill="#2C3E50"/>
<path d="M90.5739 130.273H86.8467V134.001H90.5739V130.273Z" fill="#2C3E50"/>
<path d="M94.194 130.273H90.4668V134.001H94.194V130.273Z" fill="#2C3E50"/>
<path d="M95.9476 134.001H94.084V130.273H95.9476C97.0037 130.273 97.8112 131.081 97.8112 132.137C97.8112 133.193 97.0037 134.001 95.9476 134.001Z" fill="#2C3E50"/>
<path d="M110.423 134.001C111.452 134.001 112.287 133.166 112.287 132.137C112.287 131.108 111.452 130.273 110.423 130.273C109.394 130.273 108.56 131.108 108.56 132.137C108.56 133.166 109.394 134.001 110.423 134.001Z" fill="#2C3E50"/>
<path d="M123.144 134.001H121.281C120.225 134.001 119.417 133.193 119.417 132.137C119.417 131.081 120.225 130.273 121.281 130.273H123.144V134.001Z" fill="#2C3E50"/>
<path d="M126.762 130.273H123.035V134.001H126.762V130.273Z" fill="#2C3E50"/>
<path d="M130.381 130.273H126.653V134.001H130.381V130.273Z" fill="#2C3E50"/>
<path d="M132.137 134.001H130.273V130.273H134.001V132.137C134.001 133.193 133.193 134.001 132.137 134.001Z" fill="#2C3E50"/>
<path d="M8.14203 25.3307H17.3697C21.7121 25.3307 25.3308 21.7121 25.3308 17.3696V8.14202C25.3308 3.61867 21.7121 0 17.1887 0H7.9611C3.61868 0 0 3.61867 0 7.96109V17.1887C0 21.712 3.61868 25.3307 8.14203 25.3307ZM21.7121 8.68482V16.6459C21.7121 19.3599 19.3599 21.712 16.6459 21.712H8.68484C5.78989 21.712 3.61868 19.5408 3.61868 16.6459V8.68482C3.61868 5.97081 5.97082 3.61867 8.68484 3.61867H16.6459C19.5409 3.61867 21.7121 5.78988 21.7121 8.68482Z" fill="#2C3E50"/>
<path d="M116.702 25.3307H125.929C130.272 25.3307 133.89 21.7121 133.89 17.3696V8.14202C133.89 3.61867 130.272 0 125.748 0H116.521C112.178 0 108.56 3.61867 108.56 7.96109V17.1887C108.56 21.712 112.178 25.3307 116.702 25.3307ZM130.272 8.68482V16.6459C130.272 19.3599 127.92 21.712 125.206 21.712H117.244C114.349 21.712 112.178 19.5408 112.178 16.6459V8.68482C112.178 5.97081 114.53 3.61867 117.244 3.61867H125.206C128.1 3.61867 130.272 5.78988 130.272 8.68482Z" fill="#2C3E50"/>
<path d="M8.14203 133.889H17.3697C21.7121 133.889 25.3308 130.271 25.3308 125.928V116.701C25.3308 112.177 21.7121 108.559 17.1887 108.559H7.9611C3.61868 108.559 0 112.177 0 116.52V125.747C0 130.271 3.61868 133.889 8.14203 133.889ZM21.7121 117.243V125.204C21.7121 127.919 19.3599 130.271 16.6459 130.271H8.68484C5.78989 130.271 3.61868 128.099 3.61868 125.204V117.243C3.61868 114.529 5.97082 112.177 8.68484 112.177H16.6459C19.5409 112.177 21.7121 114.348 21.7121 117.243Z" fill="#2C3E50"/>
<path d="M18.0933 10.3142V15.1994C18.0933 16.6468 16.6459 18.0943 15.0175 18.0943H10.3132C8.50384 18.0943 7.2373 16.8278 7.2373 15.0184V10.3142C7.2373 8.68575 8.68478 7.23828 10.3132 7.23828H15.1984C16.8268 7.23828 18.0933 8.50482 18.0933 10.3142Z" fill="#2C3E50"/>
<path d="M126.654 10.3142V15.1994C126.654 16.6468 125.206 18.0943 123.578 18.0943H118.874C117.064 18.0943 115.798 16.8278 115.798 15.0184V10.3142C115.798 8.68575 117.245 7.23828 118.874 7.23828H123.759C125.387 7.23828 126.654 8.50482 126.654 10.3142Z" fill="#2C3E50"/>
<path d="M18.0933 118.873V123.758C18.0933 125.205 16.6459 126.653 15.0175 126.653H10.3132C8.50384 126.653 7.2373 125.386 7.2373 123.577V118.873C7.2373 117.244 8.68478 115.797 10.3132 115.797H15.1984C16.8268 115.797 18.0933 117.063 18.0933 118.873Z" fill="#2C3E50"/>
</svg>
