<svg width="292" height="415" viewBox="0 0 292 415" fill="none" xmlns="http://www.w3.org/2000/svg">
<mask id="path-1-inside-1_165_39244" fill="white">
<path d="M292 105C292 124.33 276.33 140 257 140C237.67 140 222 155.67 222 175C222 194.33 237.67 210 257 210C276.33 210 292 225.67 292 245V313C292 332.882 275.882 349 256 349H145C126.775 349 112 363.775 112 382C112 400.225 97.2254 415 79 415H36C16.1178 415 0 398.882 0 379V36C0 16.1178 16.1178 0 36 0H256C275.882 0 292 16.1178 292 36V105Z"/>
</mask>
<path d="M292 105C292 124.33 276.33 140 257 140C237.67 140 222 155.67 222 175C222 194.33 237.67 210 257 210C276.33 210 292 225.67 292 245V313C292 332.882 275.882 349 256 349H145C126.775 349 112 363.775 112 382C112 400.225 97.2254 415 79 415H36C16.1178 415 0 398.882 0 379V36C0 16.1178 16.1178 0 36 0H256C275.882 0 292 16.1178 292 36V105Z" fill="#DEE4EE"/>
<path d="M292 245H290V313H292H294V245H292ZM256 349V347H145V349V351H256V349ZM79 415V413H36V415V417H79V415ZM0 379H2V36H0H-2V379H0ZM36 0V2H256V0V-2H36V0ZM292 36H290V105H292H294V36H292ZM256 0V2C274.778 2 290 17.2223 290 36H292H294C294 15.0132 276.987 -2 256 -2V0ZM0 36H2C2 17.2223 17.2223 2 36 2V0V-2C15.0132 -2 -2 15.0132 -2 36H0ZM36 415V413C17.2223 413 2 397.778 2 379H0H-2C-2 399.987 15.0132 417 36 417V415ZM112 382H110C110 399.121 96.1208 413 79 413V415V417C98.33 417 114 401.33 114 382H112ZM145 349V347C125.67 347 110 362.67 110 382H112H114C114 364.879 127.879 351 145 351V349ZM292 313H290C290 331.778 274.778 347 256 347V349V351C276.987 351 294 333.987 294 313H292ZM257 210V212C275.225 212 290 226.775 290 245H292H294C294 224.565 277.435 208 257 208V210ZM222 175H220C220 195.435 236.565 212 257 212V210V208C238.775 208 224 193.225 224 175H222ZM257 140V138C236.565 138 220 154.565 220 175H222H224C224 156.775 238.775 142 257 142V140ZM257 140V142C277.435 142 294 125.435 294 105H292H290C290 123.225 275.225 138 257 138V140Z" fill="#2C3E50" mask="url(#path-1-inside-1_165_39244)"/>
</svg>
