<svg width="28" height="28" viewBox="0 0 28 28" fill="none" xmlns="http://www.w3.org/2000/svg">
<path d="M10.217 10.1C10.5226 9.23117 11.1259 8.49854 11.9199 8.03187C12.714 7.56521 13.6476 7.39462 14.5553 7.55033C15.4631 7.70603 16.2865 8.17798 16.8796 8.88259C17.4727 9.58719 17.7974 10.479 17.796 11.4C17.796 14 13.896 15.3 13.896 15.3M14 20.5H14.013M27 14C27 21.1797 21.1797 27 14 27C6.8203 27 1 21.1797 1 14C1 6.8203 6.8203 1 14 1C21.1797 1 27 6.8203 27 14Z" stroke="#2C3E50" stroke-width="2" stroke-linecap="round" stroke-linejoin="round"/>
</svg>
