<svg width="565" height="473" viewBox="0 0 565 473" fill="none" xmlns="http://www.w3.org/2000/svg">
<path d="M460 0C479.33 0 495 15.67 495 35C495 54.33 510.67 70 530 70C549.33 70 565 85.67 565 105V437C565 456.882 548.882 473 529 473H105C85.67 473 70 457.33 70 438C70 418.67 54.33 403 35 403C15.67 403 0 387.33 0 368V36C0 16.1177 16.1177 0 36 0H460Z" fill="#2C3E50"/>
<circle cx="25" cy="25" r="25" transform="matrix(-1 0 0 1 54 419)" fill="#2C3E50"/>
<path d="M29 430.359L14.5365 444.823L29 459.286" fill="#2C3E50"/>
<path d="M43.4635 444.823H14.5365H43.4635Z" fill="#2C3E50"/>
</svg>
