<svg width="24" height="25" fill="none" xmlns="http://www.w3.org/2000/svg"><path fill-rule="evenodd" clip-rule="evenodd" d="M13.803.445c.364.395.368.42.412 2.715.056 2.996-.01 3.443-.612 4.168-.872 1.048-2.072 1.128-3.016.202-.74-.726-.85-1.31-.8-4.22.043-2.343.059-2.466.367-2.82.406-.469.624-.519 2.09-.477 1.094.03 1.222.066 1.56.433ZM6.71 9c5.72 2.025 4.914 2.034 10.96-.118 4.613-1.642 4.957-1.715 5.426-1.152.255.306.9 2.453.903 3.002.004.836-.378 1.051-4.338 2.444-3.16 1.112-3.735 1.358-3.77 1.612-.027.197.747 1.48 2.271 3.761 2.412 3.61 2.558 3.93 2.112 4.622-.11.171-.621.65-1.135 1.064-.916.737-1.405.9-1.977.662-.12-.05-1.23-1.605-2.466-3.455-1.237-1.85-2.334-3.441-2.437-3.534-.103-.093-.273-.134-.377-.09-.104.043-1.232 1.633-2.507 3.533-1.276 1.9-2.417 3.496-2.536 3.546-.677.282-1.642-.198-2.797-1.392-.541-.558-.655-1.056-.373-1.628.08-.162 1.12-1.753 2.313-3.537 1.448-2.165 2.155-3.345 2.127-3.548-.036-.26-.583-.494-3.77-1.616C.37 11.781 0 11.571 0 10.722c0-.344.387-1.746.748-2.71.136-.364.745-.705 1.15-.645.187.028 2.352.763 4.813 1.634Z" fill="#003366"/></svg>