<svg width="161" height="48" fill="none" xmlns="http://www.w3.org/2000/svg"><rect x=".5" y=".5" width="160" height="47" rx="5.5" fill="#000"/><path fill-rule="evenodd" clip-rule="evenodd" d="M29.538 24.697a5.946 5.946 0 0 1 2.81-4.983 6.031 6.031 0 0 0-4.76-2.59c-2.002-.21-3.944 1.207-4.964 1.207-1.04 0-2.612-1.185-4.304-1.15a6.334 6.334 0 0 0-5.334 3.273c-2.307 4.018-.586 9.924 1.623 13.172 1.106 1.59 2.398 3.367 4.088 3.303 1.654-.069 2.272-1.06 4.269-1.06 1.978 0 2.558 1.06 4.282 1.02 1.775-.029 2.894-1.597 3.96-3.203a13.19 13.19 0 0 0 1.811-3.71 5.74 5.74 0 0 1-3.481-5.28Zm-3.256-9.708a5.871 5.871 0 0 0 1.33-4.189 5.9 5.9 0 0 0-3.826 1.991 5.585 5.585 0 0 0-1.364 4.034 4.877 4.877 0 0 0 3.86-1.836Z" fill="#fff"/><path d="M53.557 17.78h1.422c.096 0 .216-.006.36-.018.144-.018.297-.054.459-.108.162-.06.321-.144.477-.252.162-.108.306-.255.432-.441a2.39 2.39 0 0 0 .306-.693c.084-.282.126-.621.126-1.017a4.09 4.09 0 0 0-.117-1.026 1.86 1.86 0 0 0-.369-.774 1.537 1.537 0 0 0-.657-.486c-.27-.114-.603-.171-.999-.171h-1.44v4.986Zm-.855-5.706h2.205c.99 0 1.752.252 2.286.756s.801 1.272.801 2.304c0 .54-.06 1.02-.18 1.44-.12.414-.306.765-.558 1.053a2.44 2.44 0 0 1-.963.648c-.39.15-.852.225-1.386.225h-2.205v-6.426Zm6.949 4.104c0 .282.036.534.108.756.078.216.183.399.315.549.132.144.285.255.459.333a1.411 1.411 0 0 0 1.593-.333c.132-.15.234-.333.306-.549.078-.222.117-.474.117-.756 0-.282-.04-.531-.117-.747a1.562 1.562 0 0 0-.306-.558 1.312 1.312 0 0 0-.468-.342 1.411 1.411 0 0 0-1.125 0 1.334 1.334 0 0 0-.46.342c-.131.15-.236.336-.314.558a2.361 2.361 0 0 0-.108.747Zm-.81 0c0-.342.048-.66.144-.954.096-.3.24-.558.432-.774a2.01 2.01 0 0 1 .71-.522 2.37 2.37 0 0 1 .973-.189c.372 0 .696.063.972.189.282.126.519.3.71.522.193.216.337.474.433.774.096.294.144.612.144.954 0 .342-.048.66-.144.954-.096.294-.24.552-.432.774a2.062 2.062 0 0 1-.711.513c-.276.12-.6.18-.972.18-.366 0-.69-.06-.972-.18a2.062 2.062 0 0 1-.711-.513 2.224 2.224 0 0 1-.432-.774 3.057 3.057 0 0 1-.144-.954ZM69.049 18.5h-.81l-.945-3.699h-.018L66.34 18.5h-.828l-1.494-4.653h.846l1.053 3.807h.018l.936-3.807h.837l.972 3.807h.018l1.044-3.807h.792L69.049 18.5Zm2.392-4.653h.72v.738h.018c.318-.564.822-.846 1.512-.846.306 0 .561.042.765.126.204.084.37.201.495.351.126.15.213.33.261.54.054.204.081.432.081.684v3.06h-.765v-3.15c0-.288-.084-.516-.252-.684-.168-.168-.399-.252-.693-.252-.234 0-.438.036-.612.108a1.147 1.147 0 0 0-.423.306 1.37 1.37 0 0 0-.26.468 1.937 1.937 0 0 0-.082.576V18.5h-.765v-4.653Zm5.226-1.773h.765V18.5h-.765v-6.426Zm2.688 4.104c0 .282.036.534.108.756.078.216.183.399.315.549.132.144.285.255.46.333a1.411 1.411 0 0 0 1.592-.333c.132-.15.234-.333.306-.549.078-.222.117-.474.117-.756 0-.282-.039-.531-.117-.747a1.562 1.562 0 0 0-.306-.558 1.312 1.312 0 0 0-.468-.342 1.411 1.411 0 0 0-1.125 0 1.334 1.334 0 0 0-.459.342c-.132.15-.237.336-.315.558a2.361 2.361 0 0 0-.108.747Zm-.81 0c0-.342.048-.66.144-.954.096-.3.24-.558.432-.774a2.01 2.01 0 0 1 .711-.522c.282-.126.606-.189.972-.189.372 0 .696.063.972.189a2 2 0 0 1 .711.522c.192.216.336.474.432.774.096.294.144.612.144.954 0 .342-.048.66-.144.954-.096.294-.24.552-.432.774a2.062 2.062 0 0 1-.71.513c-.277.12-.6.18-.973.18-.366 0-.69-.06-.972-.18a2.062 2.062 0 0 1-.71-.513 2.224 2.224 0 0 1-.433-.774 3.057 3.057 0 0 1-.144-.954Zm9.722 2.304c-.132.078-.315.117-.549.117a.686.686 0 0 1-.477-.162c-.114-.114-.17-.297-.17-.549-.21.252-.457.435-.739.549a2.448 2.448 0 0 1-.9.162c-.21 0-.41-.024-.603-.072a1.394 1.394 0 0 1-.486-.225 1.13 1.13 0 0 1-.333-.396 1.422 1.422 0 0 1-.117-.603c0-.264.045-.48.135-.648.09-.168.207-.303.351-.405.15-.108.318-.189.504-.243.192-.054.387-.099.585-.135.21-.042.408-.072.594-.09a4.3 4.3 0 0 0 .504-.09.913.913 0 0 0 .342-.171c.084-.078.126-.189.126-.333a.736.736 0 0 0-.099-.405.607.607 0 0 0-.243-.234.946.946 0 0 0-.333-.108 2.424 2.424 0 0 0-.36-.027c-.324 0-.594.063-.81.189-.216.12-.333.351-.35.693h-.766c.012-.288.072-.531.18-.729.108-.198.252-.357.432-.477.18-.126.384-.216.612-.27.234-.054.483-.081.747-.081.21 0 .417.015.621.045.21.03.4.093.567.189.168.09.303.219.405.387.102.168.153.387.153.657v2.394c0 .18.01.312.027.396.024.084.096.126.216.126a.758.758 0 0 0 .234-.045v.594Zm-1.242-2.385a1 1 0 0 1-.378.162c-.156.03-.32.057-.495.081a8.096 8.096 0 0 0-.513.072 1.78 1.78 0 0 0-.468.126.87.87 0 0 0-.342.261c-.084.108-.126.258-.126.45a.68.68 0 0 0 .072.324c.054.084.12.153.198.207.084.054.18.093.288.117.108.024.222.036.342.036.252 0 .468-.033.648-.099.18-.072.327-.159.441-.261.114-.108.198-.222.252-.342a.896.896 0 0 0 .081-.351v-.783Zm2.692.117c0 .216.027.429.081.639.06.204.147.387.261.549.12.162.27.291.45.387.186.096.402.144.648.144.258 0 .477-.051.657-.153.18-.102.327-.234.441-.396.114-.168.195-.357.243-.567a2.628 2.628 0 0 0 0-1.296 1.588 1.588 0 0 0-.26-.567 1.229 1.229 0 0 0-.45-.387 1.385 1.385 0 0 0-.676-.153c-.258 0-.477.051-.657.153-.18.102-.324.237-.432.405-.108.168-.186.36-.234.576a3.06 3.06 0 0 0-.072.666Zm3.6 2.286h-.765v-.63h-.018a1.126 1.126 0 0 1-.594.558c-.27.114-.567.171-.89.171-.36 0-.676-.066-.946-.198a1.993 1.993 0 0 1-.666-.531 2.361 2.361 0 0 1-.396-.774 3.18 3.18 0 0 1-.135-.936c0-.33.042-.642.126-.936.09-.294.222-.549.396-.765.18-.222.402-.396.666-.522.27-.132.582-.198.936-.198.12 0 .25.012.387.036.138.024.276.066.414.126.138.054.267.129.387.225.126.09.231.204.315.342h.018v-2.394h.765V18.5Zm4.6-2.322c0 .282.036.534.108.756.078.216.183.399.315.549.132.144.285.255.46.333a1.411 1.411 0 0 0 1.592-.333c.132-.15.234-.333.306-.549.078-.222.117-.474.117-.756 0-.282-.039-.531-.117-.747a1.562 1.562 0 0 0-.306-.558 1.312 1.312 0 0 0-.468-.342 1.411 1.411 0 0 0-1.125 0 1.334 1.334 0 0 0-.459.342c-.132.15-.237.336-.315.558a2.361 2.361 0 0 0-.108.747Zm-.81 0c0-.342.048-.66.144-.954.096-.3.24-.558.432-.774a2.01 2.01 0 0 1 .711-.522c.282-.126.606-.189.972-.189.372 0 .696.063.972.189.282.126.519.3.711.522.192.216.336.474.432.774.096.294.144.612.144.954 0 .342-.048.66-.144.954-.096.294-.24.552-.432.774a2.062 2.062 0 0 1-.711.513c-.276.12-.6.18-.972.18-.366 0-.69-.06-.972-.18a2.062 2.062 0 0 1-.71-.513 2.224 2.224 0 0 1-.433-.774 3.057 3.057 0 0 1-.144-.954Zm5.6-2.331h.72v.738h.018c.318-.564.822-.846 1.512-.846.306 0 .561.042.765.126.204.084.369.201.495.351.126.15.213.33.261.54.054.204.081.432.081.684v3.06h-.765v-3.15c0-.288-.084-.516-.252-.684-.168-.168-.399-.252-.693-.252-.234 0-.438.036-.612.108a1.147 1.147 0 0 0-.423.306 1.37 1.37 0 0 0-.261.468 1.937 1.937 0 0 0-.081.576V18.5h-.765v-4.653Zm8.928 0h.927v.675h-.927v2.889c0 .09.006.162.018.216a.245.245 0 0 0 .09.126c.042.03.099.051.171.063.078.006.177.009.297.009h.351v.675h-.585c-.198 0-.369-.012-.513-.036a.816.816 0 0 1-.342-.153.651.651 0 0 1-.189-.306 1.768 1.768 0 0 1-.063-.522v-2.961h-.792v-.675h.792v-1.395h.765v1.395Zm1.957-1.773h.765v2.457h.018a.975.975 0 0 1 .252-.36c.108-.102.228-.183.36-.243.138-.066.279-.114.423-.144.15-.03.294-.045.432-.045.306 0 .561.042.765.126.204.084.369.201.495.351.126.15.213.33.261.54.054.204.081.432.081.684v3.06h-.765v-3.15c0-.288-.084-.516-.252-.684-.168-.168-.399-.252-.693-.252-.234 0-.438.036-.612.108a1.147 1.147 0 0 0-.423.306 1.37 1.37 0 0 0-.261.468 1.937 1.937 0 0 0-.081.576V18.5h-.765v-6.426Zm8.412 3.654a1.498 1.498 0 0 0-.126-.513 1.173 1.173 0 0 0-.279-.414 1.173 1.173 0 0 0-.414-.279 1.231 1.231 0 0 0-.522-.108c-.198 0-.378.036-.54.108a1.193 1.193 0 0 0-.405.279c-.114.12-.204.261-.27.423a1.548 1.548 0 0 0-.117.504h2.673Zm.738 1.296c-.102.522-.327.915-.675 1.179-.348.264-.786.396-1.314.396-.372 0-.696-.06-.972-.18a1.917 1.917 0 0 1-.684-.504 2.195 2.195 0 0 1-.423-.774 3.86 3.86 0 0 1-.153-.981 2.8 2.8 0 0 1 .162-.972c.108-.294.258-.549.45-.765.198-.216.429-.384.693-.504.27-.12.564-.18.882-.18.414 0 .756.087 1.026.261.276.168.495.384.657.648.168.264.282.552.342.864.066.312.093.609.081.891h-3.483c-.006.204.018.399.072.585.054.18.141.342.261.486.12.138.273.249.459.333.186.084.405.126.657.126.324 0 .588-.075.792-.225.21-.15.348-.378.414-.684h.756ZM68.92 25.977c2.298 0 3.812 1.816 3.812 4.622 0 2.813-1.505 4.62-3.778 4.62a3.07 3.07 0 0 1-2.848-1.583h-.043v4.484h-1.859V26.071h1.799v1.506h.034a3.212 3.212 0 0 1 2.883-1.6Zm9.965 0c2.298 0 3.812 1.816 3.812 4.622 0 2.813-1.506 4.62-3.778 4.62a3.07 3.07 0 0 1-2.849-1.583h-.043v4.484H74.17V26.071h1.799v1.506h.034a3.212 3.212 0 0 1 2.883-1.6ZM92.227 22.5c2.624 0 4.422 1.472 4.483 3.614h-1.876c-.112-1.239-1.137-1.987-2.634-1.987-1.497 0-2.521.757-2.521 1.858 0 .878.654 1.395 2.255 1.79l1.368.336c2.548.603 3.606 1.626 3.606 3.443 0 2.323-1.85 3.778-4.794 3.778-2.754 0-4.613-1.42-4.733-3.667h1.902c.138 1.232 1.334 2.04 2.969 2.04 1.566 0 2.693-.808 2.693-1.919 0-.964-.68-1.54-2.289-1.936l-1.61-.388c-2.28-.55-3.338-1.617-3.338-3.348 0-2.142 1.867-3.614 4.519-3.614Zm15.705 3.46c2.625 0 4.295 1.79 4.295 4.639 0 2.856-1.662 4.638-4.295 4.638s-4.294-1.782-4.294-4.638c0-2.849 1.677-4.639 4.294-4.639Zm15.048 0c2.505 0 4.081 1.72 4.081 4.466v.637h-6.395v.112a2.357 2.357 0 0 0 2.436 2.564 2.047 2.047 0 0 0 2.09-1.273h1.765c-.25 1.643-1.851 2.771-3.898 2.771-2.634 0-4.269-1.764-4.269-4.595 0-2.84 1.644-4.682 4.19-4.682Zm-22.061-2.031v2.142h1.722v1.472h-1.722v4.991c0 .776.345 1.137 1.102 1.137a5.79 5.79 0 0 0 .611-.043v1.463c-.34.063-.686.092-1.032.086-1.833 0-2.548-.689-2.548-2.445v-5.189h-1.317v-1.472h1.317V23.93h1.867Zm-42.353-1.222 4.484 12.418h-2.04l-1.135-3.356h-4.733l-1.137 3.356H52l4.483-12.418h2.083Zm59.186 3.27c.214-.001.428.022.637.069v1.738a2.604 2.604 0 0 0-.835-.112 1.874 1.874 0 0 0-1.937 2.083v5.37h-1.858v-9.054h1.772v1.541h.043a2.16 2.16 0 0 1 2.178-1.635Zm-9.82 1.514c-1.506 0-2.401 1.162-2.401 3.108 0 1.962.895 3.106 2.401 3.106 1.506 0 2.401-1.144 2.401-3.106 0-1.954-.895-3.108-2.401-3.108Zm-39.502.07c-1.42 0-2.375 1.23-2.375 3.038 0 1.824.955 3.046 2.375 3.046 1.445 0 2.392-1.197 2.392-3.046 0-1.833-.947-3.038-2.392-3.038Zm9.964 0c-1.42 0-2.375 1.23-2.375 3.038 0 1.824.956 3.046 2.375 3.046 1.446 0 2.393-1.197 2.393-3.046 0-1.833-.947-3.038-2.393-3.038Zm-20.86-2.788h-.051l-1.851 5.447h3.752l-1.85-5.447Zm65.446 2.693a2.29 2.29 0 0 0-2.305 2.298h4.526a2.178 2.178 0 0 0-2.221-2.298Z" fill="#fff"/><rect x=".5" y=".5" width="160" height="47" rx="5.5" stroke="#A6A6A6"/></svg>