<svg width="79" height="19" viewBox="0 0 79 19" fill="none" xmlns="http://www.w3.org/2000/svg">
<path fill-rule="evenodd" clip-rule="evenodd" d="M11.6934 9.57289C11.7011 8.88413 11.8758 8.20852 12.2012 7.60854C12.5267 7.00856 12.9924 6.5036 13.5554 6.14037C13.2 5.60781 12.7296 5.1691 12.182 4.85931C11.6343 4.54951 11.0245 4.37724 10.4014 4.35626C9.07481 4.2116 7.78801 5.18769 7.11215 5.18769C6.42303 5.18769 5.38141 4.37141 4.26027 4.39552C3.53378 4.42096 2.8261 4.64212 2.20653 5.03734C1.58697 5.43257 1.07677 5.9883 0.725894 6.65011C-0.802752 9.4179 0.337603 13.4862 1.80131 15.7236C2.53416 16.8189 3.39026 18.0429 4.51007 17.9988C5.60603 17.9513 6.01553 17.2687 7.33876 17.2687C8.64941 17.2687 9.03372 17.9988 10.1761 17.9713C11.3522 17.9513 12.0937 16.8712 12.8 15.7649C13.3266 14.9838 13.7315 14.1214 14 13.2093C13.3152 12.9045 12.7315 12.3973 12.3214 11.7508C11.9114 11.1042 11.693 10.3467 11.6934 9.5722V9.57289ZM9.53598 2.88557C10.178 2.07861 10.494 1.0442 10.4173 0C9.43599 0.108168 8.53038 0.598098 7.8821 1.37149C7.23965 2.13732 6.91474 3.13629 6.9783 4.15029C7.46902 4.15521 7.95436 4.04388 8.39752 3.82475C8.84068 3.60562 9.23001 3.28444 9.53598 2.88557Z" fill="white"/>
<path d="M29.0579 4.94333H30.0241C30.0893 4.94333 30.1708 4.93918 30.2687 4.93089C30.3665 4.91845 30.4705 4.89357 30.5805 4.85625C30.6906 4.81479 30.7986 4.75674 30.9046 4.6821C31.0147 4.60746 31.1125 4.50587 31.1982 4.37733C31.2921 4.22995 31.3622 4.06828 31.4061 3.89841C31.4631 3.70352 31.4917 3.46925 31.4917 3.19558C31.4947 2.95676 31.468 2.71851 31.4122 2.48652C31.3707 2.2908 31.2849 2.10763 31.1615 1.95162C31.0452 1.80075 30.8909 1.68469 30.7151 1.61576C30.5316 1.53697 30.3054 1.49758 30.0363 1.49758H29.0579V4.94333ZM28.477 1H29.9752C30.6478 1 31.1655 1.17415 31.5284 1.52246C31.8912 1.87077 32.0726 2.40152 32.0726 3.11472C32.0726 3.48791 32.0318 3.81963 31.9503 4.10988C31.8688 4.39599 31.7424 4.63856 31.5712 4.8376C31.3917 5.03823 31.1672 5.19185 30.9169 5.28542C30.6519 5.38908 30.338 5.44091 29.9752 5.44091H28.477V1ZM33.1985 3.83621C33.1985 4.0311 33.2229 4.20525 33.2718 4.35867C33.3248 4.50795 33.3962 4.63442 33.4859 4.73808C33.5755 4.83759 33.6795 4.91431 33.7977 4.96821C33.9794 5.04823 34.181 5.06906 34.3748 5.02785C34.5686 4.98665 34.7451 4.88542 34.8801 4.73808C34.9698 4.63442 35.0391 4.50795 35.088 4.35867C35.141 4.20525 35.1675 4.0311 35.1675 3.83621C35.1675 3.64133 35.1403 3.46925 35.088 3.31997C35.0454 3.17828 34.9747 3.04701 34.8801 2.93435C34.7927 2.83244 34.6841 2.75168 34.5621 2.698C34.4415 2.64468 34.3114 2.61716 34.1799 2.61716C34.0484 2.61716 33.9183 2.64468 33.7977 2.698C33.6779 2.75281 33.5713 2.83346 33.4852 2.93435C33.3962 3.03801 33.3248 3.16655 33.2718 3.31997C33.2203 3.48694 33.1955 3.66124 33.1985 3.83621ZM32.6481 3.83621C32.6481 3.59986 32.6807 3.3801 32.7459 3.17692C32.8112 2.96959 32.909 2.79129 33.0395 2.64202C33.172 2.48695 33.3368 2.36374 33.5219 2.28127C33.7307 2.19083 33.956 2.14631 34.183 2.15066C34.4357 2.15066 34.6559 2.1942 34.8434 2.28127C35.035 2.36835 35.196 2.4886 35.3258 2.64202C35.4569 2.79129 35.5548 2.96959 35.62 3.17692C35.6852 3.3801 35.7178 3.59986 35.7178 3.83621C35.7178 4.07256 35.6852 4.29233 35.62 4.49551C35.5548 4.69869 35.4569 4.87699 35.3265 5.03041C35.1923 5.18244 35.0275 5.30335 34.8434 5.38493C34.6559 5.46786 34.4357 5.50933 34.183 5.50933C33.9343 5.50933 33.7142 5.46786 33.5225 5.38493C33.3384 5.30335 33.1736 5.18244 33.0395 5.03041C32.9073 4.87395 32.8075 4.69203 32.7459 4.49551C32.6792 4.2824 32.6462 4.05986 32.6481 3.83621ZM39.5839 5.44091H39.0335L38.3915 2.88459H38.3792L37.7433 5.44091H37.1807L36.1656 2.22529H36.7404L37.4559 4.85625H37.4681L38.1041 2.22529H38.6728L39.3332 4.85625H39.3454L40.0548 2.22529H40.5929L39.5839 5.44091ZM41.2091 2.22529H41.6983V2.73531H41.7106C41.9266 2.34554 42.2691 2.15066 42.7379 2.15066C42.9458 2.15066 43.1191 2.17968 43.2577 2.23773C43.3963 2.29578 43.5091 2.37664 43.594 2.4803C43.6796 2.58397 43.7387 2.70836 43.7713 2.85349C43.808 2.99447 43.8264 3.15204 43.8264 3.32619V5.44091H43.3066V3.26399C43.3066 3.06496 43.2495 2.90739 43.1354 2.79129C43.0212 2.67519 42.8643 2.61714 42.6645 2.61714C42.5055 2.61714 42.3669 2.64202 42.2487 2.69178C42.1382 2.73886 42.0398 2.81122 41.9613 2.90325C41.8821 2.99819 41.822 3.1081 41.7846 3.22668C41.7465 3.35575 41.7277 3.48996 41.7289 3.62474V5.44091H41.2091V2.22529ZM44.7599 1H45.2797V5.44091H44.7599V1ZM46.5863 3.83621C46.5863 4.0311 46.6107 4.20525 46.6597 4.35867C46.7127 4.50795 46.784 4.63442 46.8737 4.73808C46.9634 4.83759 47.0673 4.91431 47.1862 4.96821C47.3678 5.04807 47.5693 5.06882 47.763 5.02762C47.9566 4.98641 48.133 4.88528 48.2679 4.73808C48.3576 4.63442 48.4269 4.50795 48.4758 4.35867C48.5288 4.20525 48.5553 4.0311 48.5553 3.83621C48.5553 3.64133 48.5288 3.46925 48.4758 3.31997C48.4333 3.17828 48.3625 3.04701 48.2679 2.93435C48.1806 2.83244 48.0719 2.75168 47.9499 2.698C47.8293 2.64468 47.6992 2.61716 47.5677 2.61716C47.4362 2.61716 47.3062 2.64468 47.1856 2.698C47.066 2.7529 46.9596 2.83354 46.8737 2.93435C46.784 3.03801 46.7127 3.16655 46.6597 3.31997C46.6081 3.48694 46.5834 3.66124 46.5863 3.83621ZM46.0359 3.83621C46.0359 3.59986 46.0685 3.3801 46.1338 3.17692C46.199 2.96959 46.2968 2.79129 46.4273 2.64202C46.5601 2.48687 46.7251 2.36366 46.9104 2.28127C47.102 2.1942 47.3221 2.15066 47.5708 2.15066C47.8236 2.15066 48.0437 2.1942 48.2312 2.28127C48.4166 2.36346 48.5817 2.4867 48.7143 2.64202C48.8448 2.79129 48.9426 2.96959 49.0078 3.17692C49.0731 3.3801 49.1057 3.59986 49.1057 3.83621C49.1057 4.07256 49.0731 4.29233 49.0078 4.49551C48.9426 4.69869 48.8448 4.87699 48.7143 5.03041C48.5803 5.18236 48.4158 5.30326 48.2319 5.38493C48.0437 5.46786 47.8242 5.50933 47.5708 5.50933C47.3221 5.50933 47.102 5.46786 46.9104 5.38493C46.7265 5.30326 46.562 5.18236 46.428 5.03041C46.2956 4.87401 46.1955 4.69209 46.1338 4.49551C46.0671 4.2824 46.034 4.05986 46.0359 3.83621ZM52.6415 5.42847C52.5518 5.48238 52.4275 5.50933 52.2685 5.50933C52.1504 5.51517 52.0346 5.47515 51.9444 5.39737C51.8669 5.31859 51.8289 5.19212 51.8289 5.01797C51.6862 5.19212 51.5184 5.31859 51.3268 5.39737C51.1317 5.47343 50.9242 5.51141 50.7153 5.50933C50.5726 5.50933 50.4367 5.49274 50.3056 5.45957C50.1867 5.42994 50.0745 5.37713 49.9754 5.30408C49.8802 5.23188 49.8027 5.1382 49.7491 5.03041C49.6931 4.89905 49.6659 4.75682 49.6696 4.61368C49.6696 4.43124 49.7002 4.28196 49.7613 4.16586C49.8225 4.04976 49.902 3.95646 49.9998 3.88597C50.1017 3.81133 50.2159 3.75536 50.3423 3.71804C50.4727 3.68072 50.6052 3.64962 50.7397 3.62474C50.8824 3.59572 51.017 3.57498 51.1433 3.56254C51.2586 3.54875 51.3729 3.52798 51.4858 3.50035C51.5706 3.47808 51.6498 3.4378 51.7181 3.38217C51.7752 3.32827 51.8038 3.25155 51.8038 3.15204C51.8083 3.0541 51.785 2.9569 51.7365 2.87215C51.6976 2.80346 51.6403 2.74739 51.5714 2.71044C51.5012 2.67146 51.4245 2.64614 51.3451 2.6358C51.2642 2.6234 51.1824 2.61717 51.1005 2.61714C50.8804 2.61714 50.6969 2.66068 50.5502 2.74775C50.4034 2.83068 50.3239 2.99032 50.3124 3.22668H49.7919C49.8001 3.02764 49.8408 2.85971 49.9142 2.72287C49.9876 2.58604 50.0854 2.47616 50.2077 2.39323C50.33 2.30615 50.4686 2.24395 50.6236 2.20663C50.7825 2.16932 50.9517 2.15066 51.1311 2.15066C51.2738 2.15066 51.4144 2.16102 51.553 2.18176C51.6957 2.20249 51.8248 2.24603 51.9383 2.31237C52.0524 2.37457 52.1442 2.46372 52.2135 2.57982C52.2828 2.69592 52.3174 2.84727 52.3174 3.03386V4.68832C52.3174 4.81272 52.3242 4.90394 52.3358 4.96199C52.3521 5.02004 52.401 5.04907 52.4825 5.04907C52.5368 5.04729 52.5905 5.0368 52.6415 5.01797V5.42847ZM51.7976 3.78024C51.7206 3.83525 51.6331 3.87337 51.5408 3.89219C51.4348 3.91292 51.3234 3.93158 51.2045 3.94817C51.0878 3.96097 50.9716 3.97756 50.8559 3.99793C50.7465 4.01207 50.6395 4.04137 50.5379 4.085C50.4469 4.12439 50.367 4.18641 50.3056 4.26538C50.2485 4.34001 50.22 4.44368 50.22 4.57637C50.2178 4.65397 50.2347 4.73089 50.2689 4.80028C50.3056 4.85833 50.3504 4.90601 50.4034 4.94333C50.4605 4.98065 50.5257 5.0076 50.5991 5.02419C50.6725 5.04077 50.7499 5.04907 50.8315 5.04907C51.0027 5.04907 51.1495 5.02626 51.2718 4.98065C51.3941 4.93089 51.4939 4.87077 51.5714 4.80028C51.6488 4.72564 51.7059 4.64686 51.7426 4.56393C51.7769 4.48769 51.7956 4.40517 51.7976 4.32135V3.78024ZM53.6267 3.86109C53.6267 4.01037 53.6451 4.15757 53.6818 4.3027C53.7225 4.44368 53.7816 4.57015 53.8591 4.6821C53.9406 4.79406 54.0425 4.88321 54.1648 4.94955C54.2912 5.01589 54.438 5.04907 54.6051 5.04907C54.7804 5.04907 54.9292 5.01382 55.0515 4.94333C55.1738 4.87284 55.2737 4.78162 55.3512 4.66966C55.4286 4.55356 55.4836 4.42294 55.5163 4.27782C55.5898 3.98395 55.5898 3.67604 55.5163 3.38217C55.4834 3.24096 55.4234 3.10778 55.3396 2.99032C55.2607 2.87711 55.1557 2.78528 55.0339 2.72287C54.892 2.6486 54.734 2.61222 54.5745 2.61714C54.3993 2.61714 54.2505 2.65238 54.1282 2.72287C54.0058 2.79337 53.908 2.88666 53.8346 3.00276C53.7613 3.11887 53.7083 3.25155 53.6756 3.40083C53.6428 3.55197 53.6264 3.70631 53.6267 3.86109ZM56.0727 5.44091H55.553V5.00553H55.5407C55.4582 5.18082 55.3143 5.31838 55.1371 5.39115C54.9537 5.46994 54.7519 5.50933 54.5324 5.50933C54.2878 5.50933 54.0731 5.46372 53.8897 5.37249C53.7146 5.28477 53.5602 5.15959 53.4372 5.00553C53.3157 4.84571 53.2245 4.66433 53.1681 4.47063C53.106 4.26087 53.0751 4.04284 53.0764 3.82377C53.0764 3.59572 53.1049 3.3801 53.162 3.17692C53.2231 2.97374 53.3128 2.79751 53.431 2.64824C53.5533 2.49482 53.7042 2.37457 53.8836 2.28749C54.067 2.19627 54.279 2.15066 54.5195 2.15066C54.601 2.15066 54.6894 2.15895 54.7825 2.17554C54.8762 2.19212 54.97 2.22115 55.0637 2.26261C55.1575 2.29993 55.2452 2.35176 55.3267 2.41811C55.4123 2.4803 55.4836 2.55909 55.5407 2.65446H55.553V1H56.0727V5.44091ZM59.1982 3.83621C59.1982 4.0311 59.2226 4.20525 59.2716 4.35867C59.3246 4.50795 59.3959 4.63442 59.4856 4.73808C59.5753 4.83759 59.6792 4.91431 59.7981 4.96821C59.9797 5.04807 60.1812 5.06882 60.3749 5.02762C60.5685 4.98641 60.7449 4.88528 60.8798 4.73808C60.9695 4.63442 61.0388 4.50795 61.0877 4.35867C61.1407 4.20525 61.1672 4.0311 61.1672 3.83621C61.1672 3.64133 61.1407 3.46925 61.0877 3.31997C61.0452 3.17828 60.9744 3.04701 60.8798 2.93435C60.7925 2.83244 60.6838 2.75168 60.5618 2.698C60.4412 2.64468 60.3111 2.61716 60.1796 2.61716C60.0481 2.61716 59.9181 2.64468 59.7975 2.698C59.6779 2.7529 59.5715 2.83354 59.4856 2.93435C59.3959 3.03801 59.3246 3.16655 59.2716 3.31997C59.22 3.48694 59.1953 3.66124 59.1982 3.83621ZM58.6478 3.83621C58.6478 3.59986 58.6804 3.3801 58.7457 3.17692C58.8109 2.96959 58.9087 2.79129 59.0392 2.64202C59.172 2.48687 59.337 2.36366 59.5223 2.28127C59.7139 2.1942 59.934 2.15066 60.1827 2.15066C60.4355 2.15066 60.6556 2.1942 60.8431 2.28127C61.0347 2.36835 61.1958 2.4886 61.3262 2.64202C61.4567 2.79129 61.5545 2.96959 61.6197 3.17692C61.685 3.3801 61.7176 3.59986 61.7176 3.83621C61.7176 4.07256 61.685 4.29233 61.6197 4.49551C61.5545 4.69869 61.4567 4.87699 61.3262 5.03041C61.192 5.18244 61.0273 5.30335 60.8431 5.38493C60.6556 5.46786 60.4355 5.50933 60.1827 5.50933C59.934 5.50933 59.7139 5.46786 59.5223 5.38493C59.3384 5.30326 59.1739 5.18236 59.0399 5.03041C58.9075 4.87401 58.8074 4.69209 58.7457 4.49551C58.679 4.2824 58.6459 4.05986 58.6478 3.83621ZM62.4527 2.22529H62.9419V2.73531H62.9542C63.1702 2.34554 63.5127 2.15066 63.9815 2.15066C64.1894 2.15066 64.3627 2.17968 64.5013 2.23773C64.6399 2.29578 64.752 2.37664 64.8376 2.4803C64.9232 2.58397 64.9823 2.70836 65.0149 2.85349C65.0516 2.99447 65.07 3.15204 65.07 3.32619V5.44091H64.5502V3.26399C64.5502 3.06496 64.4931 2.90739 64.379 2.79129C64.2648 2.67519 64.1079 2.61714 63.9081 2.61714C63.7491 2.61714 63.6105 2.64202 63.4923 2.69178C63.3818 2.73886 63.2834 2.81122 63.2049 2.90325C63.1254 2.99813 63.0652 3.10804 63.0276 3.22668C62.9896 3.35579 62.9711 3.48999 62.9725 3.62474V5.44091H62.4527V2.22529ZM68.5188 2.22529H69.1487V2.69178H68.5188V4.68832C68.5188 4.75052 68.5229 4.80028 68.5311 4.8376C68.5417 4.87258 68.5631 4.90313 68.5922 4.92467C68.6208 4.9454 68.6595 4.95992 68.7084 4.96821C68.7614 4.97236 68.8287 4.97443 68.9102 4.97443H69.1487V5.44091H68.7512C68.6167 5.44091 68.5005 5.43262 68.4027 5.41603C68.3182 5.3996 68.2386 5.3634 68.1703 5.3103C68.1088 5.25347 68.0643 5.18018 68.0419 5.09882C68.01 4.98142 67.9956 4.85983 67.9991 4.73808V2.69178H67.4609V2.22529H67.9991V1.26123H68.5188V2.22529ZM69.8485 1H70.3683V2.698H70.3805C70.4182 2.60289 70.4768 2.5178 70.5518 2.4492C70.6251 2.37871 70.7067 2.32274 70.7964 2.28127C70.8901 2.23566 70.9859 2.20249 71.0838 2.18176C71.1857 2.16102 71.2835 2.15066 71.3773 2.15066C71.5852 2.15066 71.7585 2.17968 71.8971 2.23773C72.0357 2.29578 72.1478 2.37664 72.2334 2.4803C72.319 2.58397 72.3781 2.70836 72.4107 2.85349C72.4474 2.99447 72.4658 3.15204 72.4658 3.32619V5.44091H71.946V3.26399C71.946 3.06496 71.8889 2.90739 71.7748 2.79129C71.6606 2.67519 71.5037 2.61714 71.3039 2.61714C71.1449 2.61714 71.0063 2.64202 70.8881 2.69178C70.7776 2.73886 70.6792 2.81122 70.6007 2.90325C70.5212 2.99813 70.4609 3.10804 70.4233 3.22668C70.3854 3.35579 70.3668 3.48999 70.3683 3.62474V5.44091H69.8485V1ZM75.564 3.52522C75.5564 3.40282 75.5274 3.28278 75.4784 3.1707C75.4362 3.0626 75.3715 2.96502 75.2889 2.88459C75.2098 2.80053 75.1138 2.73477 75.0076 2.69178C74.8961 2.64085 74.7751 2.61537 74.6529 2.61714C74.5184 2.61714 74.3961 2.64202 74.286 2.69178C74.1821 2.73591 74.0884 2.80158 74.0108 2.88459C73.9334 2.96752 73.8722 3.06496 73.8274 3.17692C73.7818 3.28766 73.755 3.40541 73.7479 3.52522H75.564ZM76.0655 4.42087C75.9962 4.78162 75.8433 5.05321 75.6068 5.23566C75.3704 5.41811 75.0728 5.50933 74.714 5.50933C74.4613 5.50933 74.2411 5.46786 74.0536 5.38493C73.875 5.30565 73.7162 5.18663 73.5889 5.03663C73.4585 4.87995 73.3607 4.69797 73.3015 4.50173C73.2383 4.28124 73.2033 4.05337 73.1975 3.82377C73.1949 3.595 73.2321 3.36757 73.3076 3.15204C73.381 2.94886 73.4829 2.77263 73.6133 2.62336C73.7479 2.47408 73.9048 2.35798 74.0842 2.27505C74.2677 2.19212 74.4674 2.15066 74.6835 2.15066C74.9648 2.15066 75.1971 2.21078 75.3806 2.33103C75.5681 2.44713 75.7169 2.59641 75.827 2.77885C75.9411 2.9613 76.0186 3.16033 76.0594 3.37595C76.1042 3.59157 76.1225 3.79682 76.1144 3.99171H73.7479C73.7438 4.13269 73.7601 4.26745 73.7968 4.39599C73.8335 4.52039 73.8926 4.63234 73.9741 4.73186C74.0557 4.82723 74.1596 4.90394 74.286 4.96199C74.4124 5.02004 74.5612 5.04907 74.7324 5.04907C74.9525 5.04907 75.1319 4.99724 75.2705 4.89357C75.4132 4.78991 75.507 4.63234 75.5518 4.42087H76.0655ZM39.4962 10.6082C41.0576 10.6082 42.0863 11.8632 42.0863 13.8024C42.0863 15.7464 41.0637 16.9952 39.5194 16.9952C39.1284 17.0159 38.7396 16.9243 38.3974 16.7308C38.0552 16.5374 37.7734 16.2499 37.5843 15.9012H37.5551V19H36.292V10.6731H37.5143V11.7139H37.5374C37.7352 11.3667 38.0218 11.0806 38.3667 10.8859C38.7116 10.6912 39.102 10.5952 39.4962 10.6082ZM46.2669 10.6082C47.8283 10.6082 48.857 11.8632 48.857 13.8024C48.857 15.7464 47.8337 16.9952 46.29 16.9952C45.899 17.016 45.51 16.9245 45.1677 16.731C44.8253 16.5376 44.5435 16.25 44.3543 15.9012H44.3251V19H43.0633V10.6731H44.2857V11.7139H44.3088C44.5065 11.3667 44.7931 11.0806 45.1381 10.8859C45.483 10.6912 45.8727 10.5952 46.2669 10.6082ZM55.3321 8.20525C57.115 8.20525 58.3366 9.22253 58.3781 10.7028H57.1035C57.0274 9.84658 56.3309 9.32965 55.3138 9.32965C54.2966 9.32965 53.6009 9.8528 53.6009 10.6137C53.6009 11.2205 54.0453 11.5777 55.1331 11.8507L56.0625 12.0829C57.7938 12.4997 58.5126 13.2066 58.5126 14.4623C58.5126 16.0677 57.2556 17.0733 55.2554 17.0733C53.3842 17.0733 52.1211 16.0919 52.0395 14.539H53.3318C53.4256 15.3905 54.2382 15.9489 55.3491 15.9489C56.4131 15.9489 57.1789 15.3905 57.1789 14.6227C57.1789 13.9565 56.7168 13.5584 55.6236 13.2847L54.5297 13.0166C52.9806 12.6365 52.2617 11.8991 52.2617 10.7028C52.2617 9.22253 53.5302 8.20525 55.3321 8.20525ZM66.0029 10.5964C67.7864 10.5964 68.9211 11.8334 68.9211 13.8024C68.9211 15.7761 67.7918 17.0076 66.0029 17.0076C64.2139 17.0076 63.0853 15.7761 63.0853 13.8024C63.0853 11.8334 64.2247 10.5964 66.0029 10.5964ZM76.2272 10.5964C77.9292 10.5964 79 11.7851 79 13.6828V14.123H74.6549V14.2004C74.6348 14.4307 74.6631 14.6627 74.738 14.881C74.8128 15.0993 74.9325 15.2989 75.0891 15.4666C75.2457 15.6342 75.4355 15.766 75.646 15.8532C75.8566 15.9404 76.0829 15.981 76.3101 15.9724C76.6084 16.0008 76.9077 15.9306 77.1636 15.7721C77.4194 15.6136 77.6181 15.3752 77.7301 15.0926H78.9293C78.7595 16.2281 77.6717 17.0076 76.2809 17.0076C74.4912 17.0076 73.3803 15.7885 73.3803 13.8321C73.3803 11.8694 74.4973 10.5964 76.2272 10.5964ZM61.2379 9.19281V10.6731H62.4079V11.6904H61.2379V15.1396C61.2379 15.6759 61.4723 15.9254 61.9866 15.9254C62.1254 15.9229 62.264 15.913 62.4018 15.8956V16.9067C62.1708 16.9502 61.9357 16.9703 61.7006 16.9661C60.4552 16.9661 59.9694 16.49 59.9694 15.2764V11.6904H59.0745V10.6731H59.9694V9.1935L61.2379 9.19281ZM32.4613 8.34831L35.5079 16.9302H34.1218L33.3506 14.6109H30.1348L29.3623 16.9302H28L31.046 8.34831H32.4613ZM72.675 10.6082C72.8204 10.6075 72.9658 10.6234 73.1078 10.6558V11.8569C72.9241 11.8 72.7325 11.7739 72.5405 11.7795C72.3571 11.7721 72.1742 11.8051 72.0045 11.8762C71.8348 11.9473 71.6822 12.0549 71.5572 12.1917C71.4322 12.3284 71.3377 12.491 71.2803 12.6683C71.2229 12.8457 71.2038 13.0335 71.2244 13.2191V16.9302H69.962V10.6731H71.166V11.7381H71.1952C71.2768 11.4056 71.4685 11.1118 71.738 10.906C72.0074 10.7003 72.3383 10.5951 72.675 10.6082ZM66.0029 11.6545C64.9796 11.6545 64.3715 12.4575 64.3715 13.8024C64.3715 15.1583 64.9796 15.9489 66.0029 15.9489C67.0261 15.9489 67.6342 15.1583 67.6342 13.8024C67.6342 12.452 67.0261 11.6545 66.0029 11.6545ZM39.1633 11.7028C38.1985 11.7028 37.5496 12.5529 37.5496 13.8024C37.5496 15.0629 38.1985 15.9074 39.1633 15.9074C40.1451 15.9074 40.7886 15.0802 40.7886 13.8024C40.7886 12.5356 40.1451 11.7028 39.1633 11.7028ZM45.9333 11.7028C44.9685 11.7028 44.3196 12.5529 44.3196 13.8024C44.3196 15.0629 44.9692 15.9074 45.9333 15.9074C46.9158 15.9074 47.5593 15.0802 47.5593 13.8024C47.5593 12.5356 46.9158 11.7028 45.9333 11.7028ZM31.7601 9.77609H31.7254L30.4678 13.5404H33.017L31.7601 9.77609ZM76.2272 11.6372C76.0215 11.6358 75.8177 11.6759 75.6274 11.7552C75.437 11.8344 75.2641 11.9513 75.1184 12.099C74.9728 12.2467 74.8574 12.4222 74.7789 12.6156C74.7004 12.8089 74.6603 13.0161 74.6611 13.2253H77.7362C77.7475 13.0182 77.7166 12.811 77.6455 12.6167C77.5743 12.4224 77.4644 12.2451 77.3227 12.096C77.181 11.9469 77.0106 11.8291 76.8221 11.7502C76.6335 11.6712 76.431 11.6328 76.2272 11.6372Z" fill="white"/>
</svg>
