<svg width="179" height="53" fill="none" xmlns="http://www.w3.org/2000/svg"><g clip-path="url(#a)"><path d="M172.329.553H6.671C3.293.553.556 3.272.556 6.626v39.75c0 3.354 2.737 6.073 6.115 6.073h165.658c3.377 0 6.115-2.72 6.115-6.073V6.626c0-3.354-2.738-6.073-6.115-6.073Z" fill="#000"/><path fill-rule="evenodd" clip-rule="evenodd" d="M32.84 27.27a6.53 6.53 0 0 1 .853-3.148 6.585 6.585 0 0 1 2.272-2.354 6.69 6.69 0 0 0-2.305-2.053 6.741 6.741 0 0 0-2.987-.806c-2.226-.232-4.385 1.332-5.52 1.332-1.155 0-2.903-1.308-4.784-1.27a7.076 7.076 0 0 0-3.446 1.03 7.015 7.015 0 0 0-2.485 2.584c-2.565 4.437-.651 10.958 1.805 14.544 1.23 1.756 2.666 3.718 4.545 3.648 1.839-.077 2.526-1.17 4.746-1.17 2.2 0 2.844 1.17 4.76 1.125 1.974-.032 3.218-1.763 4.403-3.536a14.522 14.522 0 0 0 2.014-4.097 6.372 6.372 0 0 1-2.817-2.338 6.307 6.307 0 0 1-1.053-3.492v.001Zm-3.62-10.719a6.453 6.453 0 0 0 1.48-4.625 6.575 6.575 0 0 0-4.254 2.198 6.14 6.14 0 0 0-1.517 4.454 5.454 5.454 0 0 0 2.382-.521 5.416 5.416 0 0 0 1.91-1.506Z" fill="#fff"/><path d="M59.545 19.632h1.58c.107 0 .24-.006.4-.02.16-.02.331-.06.511-.119.18-.066.357-.159.53-.278.18-.12.34-.282.48-.487.154-.235.27-.494.34-.765.094-.312.141-.686.141-1.123a4.486 4.486 0 0 0-.13-1.133 2.047 2.047 0 0 0-.41-.855 1.709 1.709 0 0 0-.73-.536c-.301-.126-.671-.189-1.111-.189h-1.601v5.505Zm-.951-6.3h2.451c1.101 0 1.948.278 2.542.835.594.556.89 1.404.89 2.544a5.74 5.74 0 0 1-.2 1.59c-.133.457-.34.845-.62 1.163a2.71 2.71 0 0 1-1.07.715c-.434.166-.948.248-1.542.248h-2.451v-7.095Zm7.726 4.531c0 .312.04.59.12.835.087.239.203.44.35.607.147.159.317.281.51.367a1.58 1.58 0 0 0 1.772-.367c.146-.166.26-.368.34-.607.087-.245.13-.523.13-.835 0-.31-.045-.586-.13-.824a1.72 1.72 0 0 0-.34-.616 1.457 1.457 0 0 0-.52-.378 1.578 1.578 0 0 0-1.252 0c-.195.088-.37.216-.51.378a1.862 1.862 0 0 0-.35.616 2.59 2.59 0 0 0-.12.824Zm-.9 0c0-.377.053-.728.16-1.053a2.315 2.315 0 0 1 1.27-1.431c.34-.144.71-.215 1.08-.208.414 0 .775.069 1.081.208a2.324 2.324 0 0 1 1.27 1.431c.108.325.161.676.161 1.053 0 .378-.053.73-.16 1.054a2.45 2.45 0 0 1-.48.854c-.22.243-.49.437-.79.567a2.71 2.71 0 0 1-1.081.199c-.407 0-.767-.066-1.08-.199a2.294 2.294 0 0 1-.791-.567 2.45 2.45 0 0 1-.48-.854 3.354 3.354 0 0 1-.16-1.054Zm11.349 2.564h-.901l-1.05-4.084h-.02l-1.041 4.084h-.92l-1.662-5.137h.94l1.171 4.203h.02l1.041-4.203h.93l1.081 4.203h.02l1.161-4.203h.88l-1.65 5.137Zm2.659-5.137h.8v.815h.02c.354-.623.914-.934 1.682-.934.34 0 .623.046.85.139.227.092.411.221.55.387.14.166.237.364.29.596.06.226.09.477.09.756v3.378h-.85V16.95c0-.318-.093-.57-.28-.755-.187-.185-.444-.278-.77-.278-.26 0-.487.04-.68.119a1.25 1.25 0 0 0-.471.338c-.13.152-.228.327-.29.517-.062.206-.093.42-.09.636v2.901h-.851V15.29Zm5.81-1.958h.85v7.095h-.85v-7.095Zm2.989 4.531c0 .312.04.59.12.835.087.239.203.44.35.607.147.159.317.281.511.367a1.58 1.58 0 0 0 1.77-.367 1.73 1.73 0 0 0 .34-.607c.087-.245.13-.523.13-.835a2.4 2.4 0 0 0-.13-.824 1.72 1.72 0 0 0-.34-.616 1.457 1.457 0 0 0-.52-.378 1.578 1.578 0 0 0-1.25 0c-.196.088-.37.216-.51.378a1.843 1.843 0 0 0-.351.616 2.59 2.59 0 0 0-.12.824Zm-.9 0c0-.377.053-.728.16-1.053a2.34 2.34 0 0 1 .48-.854c.217-.248.487-.445.79-.577a2.64 2.64 0 0 1 1.08-.208c.414 0 .775.069 1.081.208.304.132.574.328.791.577.213.238.373.523.48.854.107.325.16.676.16 1.053 0 .378-.053.73-.16 1.054a2.44 2.44 0 0 1-.48.854c-.22.243-.489.436-.79.567a2.716 2.716 0 0 1-1.081.199c-.407 0-.767-.066-1.08-.199a2.274 2.274 0 0 1-.79-.567 2.45 2.45 0 0 1-.482-.854 3.356 3.356 0 0 1-.16-1.054Zm10.808 2.544c-.147.087-.35.13-.61.13a.766.766 0 0 1-.53-.18c-.127-.125-.19-.327-.19-.605-.233.278-.508.48-.821.606a2.76 2.76 0 0 1-1 .179 2.78 2.78 0 0 1-.671-.08 1.553 1.553 0 0 1-.54-.248 1.25 1.25 0 0 1-.37-.438 1.562 1.562 0 0 1-.13-.665c0-.292.05-.53.15-.716.1-.185.23-.334.39-.447a1.78 1.78 0 0 1 .56-.268c.213-.06.43-.11.65-.15.234-.046.454-.079.66-.099.19-.022.376-.055.561-.1.139-.035.268-.099.38-.188.094-.086.14-.209.14-.368a.808.808 0 0 0-.11-.447.674.674 0 0 0-.27-.258 1.058 1.058 0 0 0-.37-.12 2.709 2.709 0 0 0-.4-.03c-.36 0-.66.07-.9.21-.241.132-.371.387-.39.765h-.852c.014-.318.08-.587.2-.805.12-.219.28-.395.48-.527.2-.14.428-.239.681-.298.26-.06.537-.09.83-.09.234 0 .464.017.691.05.234.033.445.103.63.209.187.1.337.242.45.427.114.186.17.428.17.726v2.643c0 .199.012.345.03.437.028.093.108.14.241.14a.85.85 0 0 0 .26-.05v.655Zm-1.38-2.633c-.127.088-.27.149-.42.179-.174.033-.357.063-.551.09-.191.02-.381.046-.57.079a1.99 1.99 0 0 0-.521.139.968.968 0 0 0-.38.288c-.094.12-.14.285-.14.497a.745.745 0 0 0 .08.358c.06.093.133.169.22.228.093.06.2.103.32.13.12.026.247.04.38.04.28 0 .52-.037.72-.11.2-.08.364-.175.491-.288.127-.12.22-.245.28-.378a.984.984 0 0 0 .09-.387v-.865Zm2.992.13c0 .238.03.473.09.705.067.225.164.427.291.606.133.179.3.321.5.427.207.106.447.16.72.16.287 0 .531-.057.731-.17.2-.112.363-.258.49-.437.127-.185.217-.394.27-.626.12-.47.12-.961 0-1.43a1.754 1.754 0 0 0-.289-.627 1.365 1.365 0 0 0-.5-.427 1.55 1.55 0 0 0-.752-.17c-.287 0-.53.057-.73.17-.2.112-.36.261-.481.447-.12.185-.206.397-.26.636-.053.241-.08.488-.08.735Zm4.003 2.523h-.851v-.695h-.02c-.135.28-.37.5-.66.616-.3.126-.631.189-.99.189-.4 0-.751-.073-1.051-.219-.287-.14-.54-.34-.74-.586a2.6 2.6 0 0 1-.441-.855 3.49 3.49 0 0 1-.15-1.033c0-.365.046-.71.14-1.034.1-.325.247-.606.44-.844.2-.246.447-.438.741-.577a2.35 2.35 0 0 1 1.04-.218c.134 0 .278.013.43.04.154.026.307.072.461.138.153.06.297.143.43.249.14.1.257.225.35.377h.02v-2.643h.851v7.095Zm5.114-2.564c0 .312.04.59.12.835.087.239.204.44.35.607.147.159.317.281.512.367a1.578 1.578 0 0 0 1.77-.367 1.73 1.73 0 0 0 .34-.607c.087-.245.13-.523.13-.835a2.4 2.4 0 0 0-.13-.824 1.723 1.723 0 0 0-.34-.616 1.457 1.457 0 0 0-.521-.378 1.576 1.576 0 0 0-1.25 0c-.196.088-.37.216-.511.378a1.862 1.862 0 0 0-.35.616 2.593 2.593 0 0 0-.12.824Zm-.901 0c0-.377.054-.728.161-1.053a2.32 2.32 0 0 1 .48-.854 2.23 2.23 0 0 1 .79-.577 2.646 2.646 0 0 1 1.081-.208c.414 0 .774.069 1.081.208.313.14.577.331.79.577.214.238.374.523.481.854.106.325.16.676.16 1.053 0 .378-.054.73-.16 1.054-.107.324-.267.61-.481.854a2.289 2.289 0 0 1-.79.567 2.71 2.71 0 0 1-1.081.199 2.75 2.75 0 0 1-1.081-.199 2.288 2.288 0 0 1-.789-.567c-.217-.25-.38-.54-.481-.854a3.334 3.334 0 0 1-.161-1.054Zm6.227-2.573h.8v.815h.02c.354-.623.914-.934 1.681-.934.34 0 .624.046.851.139.226.092.41.221.55.387.14.166.237.364.29.596.06.226.09.477.09.756v3.378h-.85V16.95c0-.318-.094-.57-.28-.755-.187-.185-.444-.278-.771-.278-.26 0-.487.04-.68.119-.181.075-.342.19-.471.338-.13.151-.228.327-.29.517a2.14 2.14 0 0 0-.09.636v2.901h-.85V15.29Zm9.926 0h1.03v.745h-1.03v3.19c0 .1.006.179.02.238a.266.266 0 0 0 .1.14.47.47 0 0 0 .19.07c.087.006.197.01.33.01h.39v.744h-.65c-.22 0-.41-.013-.57-.04a.91.91 0 0 1-.381-.168.725.725 0 0 1-.21-.338 1.967 1.967 0 0 1-.07-.576v-3.27h-.88v-.745h.88v-1.54h.851v1.54Zm2.176-1.958h.85v2.713h.02c.062-.152.158-.288.28-.398.12-.112.254-.202.4-.268.154-.073.311-.126.471-.159.167-.033.327-.05.48-.05.34 0 .624.047.851.14.226.092.41.221.55.387.14.166.237.364.29.596.06.226.09.477.09.756v3.378h-.85V16.95c0-.318-.094-.57-.281-.755-.186-.185-.443-.278-.77-.278-.26 0-.487.04-.68.119-.181.075-.342.19-.471.338-.13.151-.228.327-.29.517a2.14 2.14 0 0 0-.09.636v2.901h-.85v-7.095Zm9.352 4.035a1.658 1.658 0 0 0-.14-.567 1.295 1.295 0 0 0-.31-.457 1.312 1.312 0 0 0-.461-.308 1.375 1.375 0 0 0-.58-.12c-.22 0-.42.04-.6.12a1.33 1.33 0 0 0-.451.308 1.505 1.505 0 0 0-.3.467 1.721 1.721 0 0 0-.13.557h2.972Zm.821 1.43c-.114.577-.364 1.011-.751 1.302-.387.292-.874.438-1.461.438-.413 0-.774-.066-1.081-.199a2.128 2.128 0 0 1-.76-.556 2.426 2.426 0 0 1-.47-.855 4.187 4.187 0 0 1-.17-1.083 3.044 3.044 0 0 1 .18-1.074c.12-.324.287-.606.5-.844.22-.239.477-.424.771-.557a2.4 2.4 0 0 1 .98-.198c.46 0 .841.096 1.141.288.307.185.55.424.73.715.187.292.314.61.381.954.073.345.103.673.09.984h-3.873c-.007.225.02.44.08.646.06.199.157.378.29.537.134.152.304.274.511.367.207.093.45.14.73.14.36 0 .654-.084.881-.25.233-.165.387-.416.46-.754h.841Zm-59.84 9.886c2.555 0 4.238 2.005 4.238 5.104 0 3.106-1.673 5.101-4.2 5.101a3.433 3.433 0 0 1-1.836-.422 3.402 3.402 0 0 1-1.33-1.326h-.048v4.951h-2.067V28.787h2v1.663h.038a3.56 3.56 0 0 1 1.357-1.323 3.59 3.59 0 0 1 1.848-.444Zm11.08 0c2.554 0 4.237 2.005 4.237 5.104 0 3.106-1.674 5.101-4.2 5.101a3.432 3.432 0 0 1-1.837-.422 3.402 3.402 0 0 1-1.33-1.326h-.048v4.951h-2.065V28.787h2v1.663h.038a3.56 3.56 0 0 1 1.357-1.323 3.586 3.586 0 0 1 1.847-.444Zm14.833-3.839c2.917 0 4.916 1.625 4.984 3.99h-2.086c-.124-1.367-1.264-2.193-2.928-2.193s-2.803.835-2.803 2.051c0 .97.727 1.54 2.507 1.977l1.521.37c2.833.666 4.009 1.796 4.009 3.802 0 2.565-2.057 4.172-5.33 4.172-3.062 0-5.129-1.568-5.262-4.05h2.115c.153 1.361 1.483 2.253 3.301 2.253 1.741 0 2.994-.892 2.994-2.119 0-1.064-.756-1.7-2.545-2.137l-1.79-.429c-2.535-.607-3.711-1.785-3.711-3.697 0-2.365 2.075-3.99 5.024-3.99Zm17.461 3.82c2.918 0 4.775 1.977 4.775 5.123 0 3.153-1.848 5.12-4.775 5.12-2.928 0-4.774-1.967-4.774-5.12 0-3.146 1.864-5.122 4.774-5.122Zm16.73 0c2.785 0 4.537 1.9 4.537 4.932v.703h-7.11v.124a2.593 2.593 0 0 0 .711 2.023 2.623 2.623 0 0 0 1.998.808c.488.045.978-.067 1.396-.32a2.26 2.26 0 0 0 .927-1.086h1.963c-.278 1.814-2.058 3.06-4.334 3.06-2.929 0-4.746-1.948-4.746-5.074 0-3.136 1.827-5.17 4.658-5.17Zm-24.527-2.242v2.365h1.914v1.625h-1.914v5.511c0 .857.383 1.256 1.225 1.256.227-.004.454-.02.679-.048v1.616a5.8 5.8 0 0 1-1.147.095c-2.038 0-2.833-.761-2.833-2.7v-5.73h-1.464v-1.625h1.464v-2.364l2.076-.001Zm-47.088-1.35 4.985 13.712H67.83l-1.262-3.705h-5.262l-1.264 3.705h-2.23l4.985-13.711h2.316Zm65.803 3.611c.238 0 .475.025.708.076v1.92a2.916 2.916 0 0 0-.929-.124 2.098 2.098 0 0 0-1.608.658 2.062 2.062 0 0 0-.545 1.642v5.93h-2.066v-9.998h1.97v1.702h.048a2.385 2.385 0 0 1 .888-1.33 2.414 2.414 0 0 1 1.534-.476Zm-10.918 1.672c-1.675 0-2.67 1.283-2.67 3.432 0 2.166.995 3.43 2.67 3.43 1.674 0 2.669-1.264 2.669-3.43 0-2.158-.995-3.432-2.669-3.432Zm-43.919.077c-1.578 0-2.64 1.358-2.64 3.355 0 2.014 1.062 3.363 2.64 3.363 1.607 0 2.66-1.322 2.66-3.363 0-2.024-1.053-3.355-2.66-3.355Zm11.078 0c-1.578 0-2.64 1.358-2.64 3.355 0 2.014 1.063 3.363 2.64 3.363 1.608 0 2.66-1.322 2.66-3.363 0-2.024-1.052-3.355-2.66-3.355Zm-23.192-3.078h-.056l-2.058 6.014h4.171l-2.057-6.014Zm72.763 2.973a2.56 2.56 0 0 0-1.814.738 2.525 2.525 0 0 0-.749 1.8h5.032a2.387 2.387 0 0 0-.676-1.805 2.429 2.429 0 0 0-1.793-.733Z" fill="#fff"/><path d="M172.329.553H6.671C3.293.553.556 3.272.556 6.626v39.75c0 3.354 2.737 6.073 6.115 6.073h165.658c3.377 0 6.115-2.72 6.115-6.073V6.626c0-3.354-2.738-6.073-6.115-6.073Z" stroke="#A6A6A6"/></g><defs><clipPath id="a"><path fill="#fff" d="M0 0h179v53H0z"/></clipPath></defs></svg>