<svg width="36" height="36" fill="none" xmlns="http://www.w3.org/2000/svg"><path d="m13.447 5.786 1.106-2.855a2.571 2.571 0 0 1 2.391-1.645h2.109a2.571 2.571 0 0 1 2.391 1.645l1.106 2.855 3.754 2.16 3.035-.463a2.571 2.571 0 0 1 2.57 1.26l1.03 1.8a2.572 2.572 0 0 1-.206 2.906l-1.877 2.391v4.32l1.928 2.391a2.572 2.572 0 0 1 .206 2.906l-1.029 1.8a2.572 2.572 0 0 1-2.571 1.26l-3.034-.463-3.755 2.16-1.105 2.855a2.572 2.572 0 0 1-2.392 1.645h-2.16a2.572 2.572 0 0 1-2.391-1.645l-1.106-2.855-3.754-2.16-3.035.463a2.572 2.572 0 0 1-2.571-1.26l-1.029-1.8a2.571 2.571 0 0 1 .206-2.906l1.877-2.391v-4.32l-1.928-2.391a2.572 2.572 0 0 1-.206-2.906l1.029-1.8a2.571 2.571 0 0 1 2.571-1.26l3.034.463 3.806-2.16ZM12.856 18a5.143 5.143 0 1 0 10.285 0 5.143 5.143 0 0 0-10.285 0v0Z" stroke="#003366" stroke-width="2" stroke-linecap="round" stroke-linejoin="round"/></svg>