<svg width="40" height="40" fill="none" xmlns="http://www.w3.org/2000/svg"><path d="m30.46 25.23 5.231-1.307L37 29.153" stroke="#003366" stroke-width="2" stroke-linecap="round" stroke-linejoin="round"/><path d="M35.692 23.923A17.261 17.261 0 0 1 20 35.692v0a15.691 15.691 0 0 1-14.75-10.33M9.538 14.77l-5.23 1.307L3 10.847" stroke="#003366" stroke-width="2" stroke-linecap="round" stroke-linejoin="round"/><path d="M4.307 16.077A17.758 17.758 0 0 1 19.998 4.31v0a15.691 15.691 0 0 1 14.75 10.46M20 10.847v10.46m-.001 7.846a1.308 1.308 0 1 0 0-2.615 1.308 1.308 0 0 0 0 2.615Z" stroke="#003366" stroke-width="2" stroke-linecap="round" stroke-linejoin="round"/></svg>