<svg width="41" height="40" fill="none" xmlns="http://www.w3.org/2000/svg"><g clip-path="url(#a)" stroke="#003366" stroke-width="2" stroke-linecap="round" stroke-linejoin="round"><path d="M36.047 12.857H4.62a2.857 2.857 0 0 0-2.857 2.857v20a2.857 2.857 0 0 0 2.857 2.857h31.428a2.857 2.857 0 0 0 2.858-2.857v-20a2.857 2.857 0 0 0-2.858-2.857ZM1.762 24.286h37.143m-18.571-2.857v5.714"/><path d="M28.905 12.857a8.572 8.572 0 0 0-8.572-8.571v0a8.572 8.572 0 0 0-8.571 8.571"/></g><defs><clipPath id="a"><path fill="#fff" transform="translate(.334)" d="M0 0h40v40H0z"/></clipPath></defs></svg>