<svg width="41" height="40" fill="none" xmlns="http://www.w3.org/2000/svg"><path d="M25.666 19.5c0 3.114-2.312 5.5-5 5.5s-5-2.386-5-5.5 2.312-5.5 5-5.5 5 2.386 5 5.5Zm-5-11.5v7m0 17v-7m12-5h-8m-16 0h7" stroke="#003366" stroke-width="2"/><circle cx="20.666" cy="5" r="3" stroke="#003366" stroke-width="2"/><path d="M23.666 34.5c0-2.047-1.45-3.5-3-3.5s-3 1.453-3 3.5c0 2.047 1.45 3.5 3 3.5s3-1.453 3-3.5Zm11.5-11.5c-2.047 0-3.5-1.45-3.5-3s1.453-3 3.5-3c2.047 0 3.5 1.45 3.5 3s-1.453 3-3.5 3Zm-29.5-6a3 3 0 1 1 0 6 3 3 0 0 1 0-6Z" stroke="#003366" stroke-width="2"/><circle cx="10.015" cy="9.167" r="3.28" transform="rotate(-45 10.015 9.167)" stroke="#003366" stroke-width="2"/><circle cx="4.28" cy="4.28" r="3.28" transform="scale(1 -1) rotate(45 59.386 19.397)" stroke="#003366" stroke-width="2"/><circle cx="30.924" cy="9.167" r="3.28" transform="rotate(45 30.924 9.167)" stroke="#003366" stroke-width="2"/><circle cx="9.832" cy="30.259" r="3.28" transform="rotate(-135 9.832 30.259)" stroke="#003366" stroke-width="2"/><path d="m11.852 11 5.043 5.044m12.38 12.381-5.043-5.044M29 11.092l-5.044 5.044M11.76 28.333l5.043-5.044" stroke="#003366" stroke-width="2"/></svg>