<svg width="41" height="48" fill="none" xmlns="http://www.w3.org/2000/svg"><path d="M28.724 32.457c-.787-.048-2.68.064-4.576.425-1.096-1.11-2.046-2.509-2.75-3.662 2.257-6.49.828-8.335-1.097-8.335-1.511 0-2.265 1.595-2.098 3.357.085.887.837 2.75 1.761 4.52-.567 1.492-1.58 4.014-2.584 5.838a23.13 23.13 0 0 0-2.909 1.09c-3.606 1.677-3.896 3.916-3.145 4.865 1.424 1.802 4.46.247 7.506-5.2 2.085-.593 4.829-1.383 5.076-1.383.028 0 .068.009.113.024 1.52 1.34 3.315 2.875 4.793 3.077 2.138.294 3.355-1.257 3.271-2.221-.084-.965-.647-2.232-3.36-2.395Zm-13.498 5.875c-.882 1.048-2.307 2.054-2.81 1.72-.504-.336-.588-1.3.545-2.391 1.133-1.09 3.028-1.655 3.312-1.761.337-.126.42 0 .42.168 0 .167-.587 1.215-1.467 2.264Zm3.859-14.091c-.085-1.05.124-2.055 1.006-2.18.88-.127 1.3.88.965 2.515-.336 1.637-.505 2.726-.672 2.853-.168.126-.335-.294-.335-.294-.336-.672-.88-1.846-.964-2.894Zm.335 9.855c.461-.755 1.636-3.815 1.636-3.815.251.462 2.221 2.808 2.221 2.808s-3.02.672-3.857 1.008Zm9.14 1.341c-1.257-.166-3.395-1.678-3.395-1.678-.293-.125 2.343-.483 3.355-.418 1.3.084 1.762.63 1.762 1.174 0 .546-.461 1.09-1.721.922Z" fill="#003366"/><path d="M39.373 10.093 30.154.873 29.281 0H9.243c-4.44 0-8.05 3.612-8.05 8.053v.616H0V18.3h1.192v21.648c0 4.44 3.612 8.052 8.051 8.052h22.95c4.442 0 8.053-3.612 8.053-8.052V10.967l-.873-.874Zm-7.18 34.925H9.244a5.07 5.07 0 0 1-5.07-5.07V18.3H18.92V8.67H4.173v-.617a5.07 5.07 0 0 1 5.07-5.072h18.089V8.69a4.226 4.226 0 0 0 4.226 4.225h5.708v27.032a5.07 5.07 0 0 1-5.072 5.071ZM4.383 15.571v-4.459c0-.078.064-.143.142-.143h1.417c.233 0 .449.039.64.114.191.075.358.18.498.312.14.133.248.294.321.48.074.181.111.38.111.59 0 .214-.037.414-.111.593a1.37 1.37 0 0 1-.32.474 1.46 1.46 0 0 1-.5.312c-.19.073-.406.11-.64.11h-.597v1.617a.143.143 0 0 1-.143.142h-.675a.143.143 0 0 1-.143-.142Zm4.368 0v-4.459c0-.078.064-.143.143-.143h1.565c.298 0 .56.05.78.148.224.1.424.257.596.47.088.11.158.234.21.366.049.13.086.269.11.413.024.144.038.299.043.465a19.423 19.423 0 0 1 0 1.02 3.518 3.518 0 0 1-.042.466 2.143 2.143 0 0 1-.112.412 1.386 1.386 0 0 1-.209.367 1.595 1.595 0 0 1-.595.47 1.914 1.914 0 0 1-.78.147H8.892a.143.143 0 0 1-.143-.142Zm7.46-2.635c.08 0 .144.064.144.143v.607a.143.143 0 0 1-.143.143H14.5v1.742a.143.143 0 0 1-.143.143h-.676a.143.143 0 0 1-.143-.143v-4.458c0-.08.064-.143.143-.143h2.592c.079 0 .143.064.143.143v.607a.143.143 0 0 1-.143.143H14.5v1.073h1.71Z" fill="#003366"/><path d="M6.381 12.91c.114-.102.169-.248.169-.445s-.055-.342-.169-.445c-.118-.106-.274-.157-.478-.157h-.56v1.204h.56c.204 0 .36-.051.478-.157Zm4.38 1.854a.692.692 0 0 0 .279-.196.756.756 0 0 0 .166-.423c.024-.207.036-.477.036-.803a7.24 7.24 0 0 0-.036-.803.755.755 0 0 0-.165-.423.698.698 0 0 0-.279-.196 1.057 1.057 0 0 0-.379-.064h-.672v2.97h.672c.14 0 .268-.02.378-.062Z" fill="#003366"/></svg>