<svg width="321" height="42" viewBox="0 0 321 42" fill="none" xmlns="http://www.w3.org/2000/svg">
<path fill-rule="evenodd" clip-rule="evenodd" d="M192.554 0.259655C185.659 1.22555 184.148 4.78437 184.157 20.0282C184.165 32.304 184.966 36.8763 187.508 39.1663C189.604 41.0539 192.578 41.5635 200.591 41.4083C206.676 41.2902 208.157 41.0163 210.084 39.6523C213.148 37.4835 214.289 32.8707 213.981 23.9037C213.812 18.9787 213.44 16.7949 212.43 14.7852C210.78 11.5032 208.002 10.7512 198.137 10.9151L192.501 11.0089L192.503 9.52615C192.504 7.62654 192.813 6.56276 193.562 5.8742L194.161 5.32453L201.904 5.21124C211.245 5.07462 210.654 5.28579 210.784 2.03307L210.865 0L202.437 0.0278691C197.801 0.0432762 193.354 0.147726 192.554 0.259655ZM263.204 0.662282C262.56 1.29126 262.526 1.42222 262.526 3.2679V5.21124H268.891C273.158 5.21124 275.448 5.12627 275.836 4.95317C276.702 4.56799 277.134 3.4546 277.134 1.60846V0H270.507H263.881L263.204 0.662282ZM0.512897 10.8931C0.512897 12.5942 0.558576 12.7678 1.16051 13.356L1.80812 13.9888L8.52238 14.1096C12.4846 14.1807 15.5886 14.3354 16.0957 14.4866C17.7601 14.9835 18.2876 16.3531 18.4139 20.5051L18.4828 22.7709L12.1644 22.8311L5.8459 22.8914V25.1535V27.4157H12.2576H18.6695L18.5113 30.3045C18.3235 33.7403 18.0775 34.7572 17.2347 35.5808C16.3596 36.4359 15.2378 36.5537 7.76417 36.5743L1.45127 36.592L0.809691 37.2187C0.235813 37.7792 0.159296 38.0362 0.0841703 39.6544L0 41.4633H8.47113C19.6489 41.4633 21.8702 41.1348 24.0662 39.1566C26.3212 37.1256 26.8134 34.7578 26.8139 25.9429C26.8141 19.0453 26.6374 17.1579 25.7431 14.5027C25.3499 13.3347 24.9773 12.7673 23.9345 11.7484C21.6015 9.4686 19.2554 9.08319 7.6429 9.07073L0.512897 9.06303V10.8931ZM76.9903 9.28032C70.5332 9.80484 68.3179 11.4344 67.1217 16.54C66.5228 19.096 66.5251 32.425 67.1247 34.8927C68.441 40.3092 70.9992 41.4654 81.6613 41.4618C91.635 41.4584 94.403 40.2793 95.7303 35.4688C96.5729 32.4148 96.6758 21.3371 95.9021 17.0007C95.0794 12.3916 93.2142 10.4578 88.796 9.63355C86.6892 9.24066 79.958 9.03901 76.9903 9.28032ZM159.062 9.28077C151.899 9.86216 149.681 11.878 148.902 18.5171C148.491 22.0195 148.71 33.1591 149.231 35.2647C150.183 39.1131 152.307 40.676 157.378 41.2603C160.52 41.6224 170.098 41.3992 172.046 40.9184C175.866 39.9757 177.418 38.1216 178.134 33.6451C178.519 31.2405 178.526 20.4383 178.144 18.0128C177.266 12.4426 175.585 10.5118 170.844 9.6272C168.763 9.23907 162.019 9.04082 159.062 9.28077ZM225.832 9.21596L221.485 9.29957V10.8956C221.485 14.033 221.517 14.045 229.994 14.0577C233.667 14.0631 237.127 14.1533 237.683 14.2582C240.008 14.6971 240.776 15.9731 240.92 19.6332L241.019 22.1668L233.281 22.2588C226.725 22.3365 225.353 22.4111 224.303 22.7459C222.622 23.282 221.17 24.6231 220.568 26.1944C219.882 27.9846 219.57 31.1387 219.856 33.3837C220.208 36.1422 220.708 37.3012 222.18 38.773C224.547 41.138 226.898 41.5821 236.087 41.3992C241.978 41.2819 244.529 41.0795 247.57 40.4877L248.961 40.2172L249.028 30.1346C249.067 24.3129 248.994 19.125 248.857 17.8585C248.312 12.8366 246.416 10.5195 242.117 9.6238C240.228 9.23002 233.653 9.06529 225.832 9.21596ZM33.2079 23.3939C33.2086 31.9295 33.2963 37.1253 33.4486 37.6612C33.7691 38.7882 34.72 39.8501 35.8635 40.3577C36.564 40.6687 37.3712 40.775 39.0613 40.7786L41.322 40.7836V34.2129V27.6422H42.93C43.8144 27.6422 44.8079 27.7426 45.1379 27.8652C45.5371 28.0134 46.3295 28.9793 47.5074 30.754C53.5617 39.8755 53.491 39.7801 54.5924 40.301C55.5562 40.7571 55.931 40.7902 59.4867 40.7326L63.3369 40.6703L58.2091 33.08C55.3886 28.9054 53.0446 25.3368 53.0001 25.1499C52.9556 24.963 55.1417 21.4964 57.8578 17.4463L62.7964 10.0826L59.3051 10.0156C55.1022 9.93512 54.5251 10.0223 53.5105 10.8928C53.078 11.2638 51.2949 13.7314 49.548 16.3762C47.8009 19.0208 46.0686 21.4653 45.6981 21.8079C45.079 22.3807 44.8749 22.431 43.1732 22.431H41.322V16.2002V9.96933H37.2643H33.2065L33.2079 23.3939ZM103.236 23.6205C103.241 36.408 103.269 37.329 103.669 38.178C104.552 40.0463 106 40.7836 108.787 40.7836H110.647L110.707 29.0885L110.767 17.3933L114.223 28.1749C116.124 34.1049 117.826 39.2522 118.005 39.6134C118.501 40.6135 119.168 40.7836 122.592 40.7836C125.973 40.7836 126.74 40.5974 127.205 39.6632C127.364 39.3449 129.104 34.1842 131.072 28.1951L134.65 17.3061L134.766 28.3084C134.829 34.3597 134.972 39.493 135.083 39.7158C135.496 40.543 136.467 40.7836 139.391 40.7836H142.185V25.3765V9.96933H136.762C131.936 9.96933 131.284 10.0131 130.836 10.367C130.459 10.6656 129.417 13.5492 126.659 21.9289C124.638 28.0691 122.911 33.2686 122.82 33.4831C122.645 33.9 121.79 31.4188 117.612 18.3526C115.754 12.5426 115.136 10.8813 114.681 10.4791C114.116 9.98089 113.979 9.96933 108.667 9.96933H103.231L103.236 23.6205ZM256.033 23.9771L256.149 37.985L256.772 38.9037C257.75 40.3475 258.987 40.8158 261.611 40.7358L263.759 40.6703L269.925 30.9054C273.316 25.5346 276.267 20.8955 276.484 20.5962C276.857 20.0807 276.878 20.5683 276.89 29.8312L276.902 39.6104L277.615 40.197C278.305 40.7644 278.431 40.7836 281.441 40.7836H284.553V25.3765V9.96933H280.869C277.695 9.96933 277.119 10.0242 276.711 10.3658C276.451 10.5838 273.509 15.0956 270.175 20.3918C266.841 25.688 264.017 30.1183 263.899 30.2365C263.768 30.3679 263.685 26.7232 263.685 20.8728V11.2939L263.007 10.6316L262.33 9.96933H259.124L255.918 9.9691L256.033 23.9771ZM299.299 10.4791C298.839 10.8815 298.099 12.8262 295.788 19.7121C291.801 31.5958 288.916 40.1594 288.786 40.5004C288.703 40.7179 289.369 40.7825 291.659 40.7786C295.071 40.773 296.134 40.4601 297.14 39.1656C297.546 38.6427 298.861 34.9296 301.341 27.3024C304.319 18.143 305.055 16.1109 305.547 15.6904C306.106 15.2123 306.351 15.1806 309.486 15.1806H312.83L312.894 27.3212L312.958 39.4616L313.715 40.1227L314.472 40.7836H317.715H320.957V25.3765V9.96933H310.42H299.883L299.299 10.4791ZM86.4624 15.0859C87.7423 16.0092 87.9761 17.2984 88.1015 24.1303C88.1685 27.7863 88.115 31.0298 87.9682 32.1912C87.4877 35.9934 87.3046 36.1141 81.8774 36.2134C76.8989 36.3042 76.3473 36.1545 75.5784 34.5038C75.1066 33.4904 75.0681 33.0069 74.9853 27.064C74.8573 17.8773 75.2056 15.8107 77.0378 14.8899C77.7339 14.5403 78.3746 14.4947 81.825 14.55C85.438 14.6082 85.8695 14.6581 86.4624 15.0859ZM168.348 14.954C169.891 15.9235 170.234 18.2681 170.123 27.0758C170.007 36.2261 169.988 36.2523 163.467 36.2517C159.065 36.2514 158.371 36.0502 157.605 34.5528C157.167 33.6984 157.141 33.1933 157.141 25.7163C157.141 14.2491 157.016 14.4569 163.865 14.5568C166.896 14.6008 167.932 14.6928 168.348 14.954ZM203.801 16.6007C205.352 17.4287 205.715 19.2059 205.711 25.9429C205.707 33.0395 205.262 35.0871 203.55 35.881C202.352 36.4363 195.971 36.4173 194.82 35.8551C192.928 34.9316 192.506 32.5619 192.503 22.8393L192.501 16.3372L193.718 16.2453C194.388 16.1945 196.762 16.1639 198.993 16.1768C202.403 16.1968 203.171 16.2645 203.801 16.6007ZM240.962 31.501C240.962 35.8298 240.925 36.2804 240.556 36.42C240.333 36.5045 238.011 36.5777 235.397 36.5827C231.014 36.5913 230.581 36.5557 229.832 36.1275C228.596 35.4197 228.336 34.6919 228.249 31.7002C228.191 29.7106 228.259 28.8712 228.53 28.2374C229.116 26.8664 229.651 26.755 235.687 26.7448L240.962 26.7359V31.501Z" fill="white"/>
</svg>
