<svg width="116" height="116" viewBox="0 0 116 116" fill="none" xmlns="http://www.w3.org/2000/svg">
<path d="M28.4409 3.44774H24.9932V1.72387C24.9932 0.74701 25.7402 0 26.717 0H28.4409V3.44774Z" fill="#2C3E50"/>
<path d="M31.8891 3.44774H28.4414V0H30.1653C31.1421 0 31.8891 0.74701 31.8891 1.72387V3.44774Z" fill="#2C3E50"/>
<path d="M38.7883 3.44774C39.7404 3.44774 40.5122 2.67593 40.5122 1.72387C40.5122 0.771802 39.7404 0 38.7883 0C37.8363 0 37.0645 0.771802 37.0645 1.72387C37.0645 2.67593 37.8363 3.44774 38.7883 3.44774Z" fill="#2C3E50"/>
<path d="M48.2659 3.44774C49.2179 3.44774 49.9897 2.67593 49.9897 1.72387C49.9897 0.771802 49.2179 0 48.2659 0C47.3138 0 46.542 0.771802 46.542 1.72387C46.542 2.67593 47.3138 3.44774 48.2659 3.44774Z" fill="#2C3E50"/>
<path d="M59.4722 3.44774H56.0244V1.72387C56.0244 0.74701 56.7714 0 57.7483 0C58.7251 0 59.4722 0.74701 59.4722 1.72387V3.44774Z" fill="#2C3E50"/>
<path d="M74.9878 3.44774H73.2639C72.287 3.44774 71.54 2.70073 71.54 1.72387C71.54 0.74701 72.287 0 73.2639 0H74.9878V3.44774Z" fill="#2C3E50"/>
<path d="M76.7126 3.44774H74.9888V0H76.7126C77.6895 0 78.4365 0.74701 78.4365 1.72387C78.4365 2.70073 77.6895 3.44774 76.7126 3.44774Z" fill="#2C3E50"/>
<path d="M82.7454 3.44774C83.6974 3.44774 84.4692 2.67593 84.4692 1.72387C84.4692 0.771802 83.6974 0 82.7454 0C81.7933 0 81.0215 0.771802 81.0215 1.72387C81.0215 2.67593 81.7933 3.44774 82.7454 3.44774Z" fill="#2C3E50"/>
<path d="M88.7805 3.44774C89.7326 3.44774 90.5044 2.67593 90.5044 1.72387C90.5044 0.771802 89.7326 0 88.7805 0C87.8284 0 87.0566 0.771802 87.0566 1.72387C87.0566 2.67593 87.8284 3.44774 88.7805 3.44774Z" fill="#2C3E50"/>
<path d="M28.4409 3.44849H24.9932V6.89622H28.4409V3.44849Z" fill="#2C3E50"/>
<path d="M30.1653 6.89622H28.4414V3.44849H31.8891V5.17235C31.8891 6.14921 31.1421 6.89622 30.1653 6.89622Z" fill="#2C3E50"/>
<path d="M36.1995 6.89622C37.1515 6.89622 37.9233 6.12442 37.9233 5.17235C37.9233 4.22029 37.1515 3.44849 36.1995 3.44849C35.2474 3.44849 34.4756 4.22029 34.4756 5.17235C34.4756 6.12442 35.2474 6.89622 36.1995 6.89622Z" fill="#2C3E50"/>
<path d="M56.8882 6.89622H55.1643C54.1874 6.89622 53.4404 6.14921 53.4404 5.17235C53.4404 4.1955 54.1874 3.44849 55.1643 3.44849H56.8882V6.89622Z" fill="#2C3E50"/>
<path d="M59.4722 3.44849H56.0244V6.89622H59.4722V3.44849Z" fill="#2C3E50"/>
<path d="M62.9214 3.44849H59.4736V6.89622H62.9214V3.44849Z" fill="#2C3E50"/>
<path d="M63.7815 6.89622H62.0576V3.44849H63.7815C64.7583 3.44849 65.5054 4.1955 65.5054 5.17235C65.5054 6.14921 64.7583 6.89622 63.7815 6.89622Z" fill="#2C3E50"/>
<path d="M86.1907 6.89622C87.1427 6.89622 87.9145 6.12442 87.9145 5.17235C87.9145 4.22029 87.1427 3.44849 86.1907 3.44849C85.2386 3.44849 84.4668 4.22029 84.4668 5.17235C84.4668 6.12442 85.2386 6.89622 86.1907 6.89622Z" fill="#2C3E50"/>
<path d="M26.717 9.48192C25.7402 9.48192 24.9932 8.73491 24.9932 7.75805V6.03418H28.4409V7.75805C28.4409 8.73491 27.6939 9.48192 26.717 9.48192Z" fill="#2C3E50"/>
<path d="M34.479 9.48192H31.0312V7.75805C31.0312 6.78119 31.7783 6.03418 32.7551 6.03418C33.732 6.03418 34.479 6.78119 34.479 7.75805V9.48192Z" fill="#2C3E50"/>
<path d="M40.5122 9.48192H37.0645V7.75805C37.0645 6.78119 37.8115 6.03418 38.7883 6.03418H40.5122V9.48192Z" fill="#2C3E50"/>
<path d="M43.9565 9.48192H40.5088V6.03418H42.2327C43.2095 6.03418 43.9565 6.78119 43.9565 7.75805V9.48192Z" fill="#2C3E50"/>
<path d="M53.4389 9.48192H49.9912V7.75805C49.9912 6.78119 50.7382 6.03418 51.7151 6.03418C52.6919 6.03418 53.4389 6.78119 53.4389 7.75805V9.48192Z" fill="#2C3E50"/>
<path d="M59.4722 6.03418H56.0244V9.48192H59.4722V6.03418Z" fill="#2C3E50"/>
<path d="M61.1975 9.48192H59.4736V6.03418H62.9214V7.75805C62.9214 8.73491 62.1744 9.48192 61.1975 9.48192Z" fill="#2C3E50"/>
<path d="M74.9878 9.48192H73.2639C72.287 9.48192 71.54 8.73491 71.54 7.75805C71.54 6.78119 72.287 6.03418 73.2639 6.03418H74.9878V9.48192Z" fill="#2C3E50"/>
<path d="M78.437 9.48192H74.9893V6.03418H76.7131C77.69 6.03418 78.437 6.78119 78.437 7.75805V9.48192Z" fill="#2C3E50"/>
<path d="M84.4692 9.48192H81.0215V7.75805C81.0215 6.78119 81.7685 6.03418 82.7454 6.03418C83.7222 6.03418 84.4692 6.78119 84.4692 7.75805V9.48192Z" fill="#2C3E50"/>
<path d="M88.7805 9.48192C89.7326 9.48192 90.5044 8.71011 90.5044 7.75805C90.5044 6.80598 89.7326 6.03418 88.7805 6.03418C87.8284 6.03418 87.0566 6.80598 87.0566 7.75805C87.0566 8.71011 87.8284 9.48192 88.7805 9.48192Z" fill="#2C3E50"/>
<path d="M31.8891 12.9304H30.1653C29.1884 12.9304 28.4414 12.1834 28.4414 11.2065C28.4414 10.2297 29.1884 9.48267 30.1653 9.48267H31.8891V12.9304Z" fill="#2C3E50"/>
<path d="M34.479 9.48267H31.0312V12.9304H34.479V9.48267Z" fill="#2C3E50"/>
<path d="M37.9233 9.48267H34.4756V12.9304H37.9233V9.48267Z" fill="#2C3E50"/>
<path d="M40.5122 9.48267H37.0645V12.9304H40.5122V9.48267Z" fill="#2C3E50"/>
<path d="M43.9565 9.48267H40.5088V12.9304H43.9565V9.48267Z" fill="#2C3E50"/>
<path d="M47.4048 9.48267H43.957V12.9304H47.4048V9.48267Z" fill="#2C3E50"/>
<path d="M49.9897 9.48267H46.542V12.9304H49.9897V9.48267Z" fill="#2C3E50"/>
<path d="M51.7151 12.9304H49.9912V9.48267H53.4389V11.2065C53.4389 12.1834 52.6919 12.9304 51.7151 12.9304Z" fill="#2C3E50"/>
<path d="M59.4722 9.48267H56.0244V12.9304H59.4722V9.48267Z" fill="#2C3E50"/>
<path d="M65.5054 12.9304H63.7815C62.8046 12.9304 62.0576 12.1834 62.0576 11.2065C62.0576 10.2297 62.8046 9.48267 63.7815 9.48267H65.5054V12.9304Z" fill="#2C3E50"/>
<path d="M68.9536 12.9304H65.5059V9.48267H67.2297C68.2066 9.48267 68.9536 10.2297 68.9536 11.2065V12.9304Z" fill="#2C3E50"/>
<path d="M78.437 9.48267H74.9893V12.9304H78.437V9.48267Z" fill="#2C3E50"/>
<path d="M81.021 9.48267H77.5732V12.9304H81.021V9.48267Z" fill="#2C3E50"/>
<path d="M84.4692 9.48267H81.0215V12.9304H84.4692V9.48267Z" fill="#2C3E50"/>
<path d="M37.9233 12.0659H34.4756V15.5137H37.9233V12.0659Z" fill="#2C3E50"/>
<path d="M40.5122 12.0659H37.0645V15.5137H40.5122V12.0659Z" fill="#2C3E50"/>
<path d="M56.8882 15.5137H53.4404V13.7898C53.4404 12.8129 54.1874 12.0659 55.1643 12.0659H56.8882V15.5137Z" fill="#2C3E50"/>
<path d="M57.7483 15.5137H56.0244V12.0659H59.4722V13.7898C59.4722 14.7666 58.7251 15.5137 57.7483 15.5137Z" fill="#2C3E50"/>
<path d="M68.9536 12.0659H65.5059V15.5137H68.9536V12.0659Z" fill="#2C3E50"/>
<path d="M70.6799 15.5137H68.9561V12.0659H70.6799C71.6568 12.0659 72.4038 12.8129 72.4038 13.7898C72.4038 14.7666 71.6568 15.5137 70.6799 15.5137Z" fill="#2C3E50"/>
<path d="M78.437 15.5137H76.7131C75.7363 15.5137 74.9893 14.7666 74.9893 13.7898V12.0659H78.437V15.5137Z" fill="#2C3E50"/>
<path d="M81.021 12.0659H77.5732V15.5137H81.021V12.0659Z" fill="#2C3E50"/>
<path d="M84.4692 12.0659H81.0215V15.5137H84.4692V12.0659Z" fill="#2C3E50"/>
<path d="M28.4409 18.9624H24.9932V17.2385C24.9932 16.2617 25.7402 15.5146 26.717 15.5146H28.4409V18.9624Z" fill="#2C3E50"/>
<path d="M30.1653 18.9624H28.4414V15.5146H30.1653C31.1421 15.5146 31.8891 16.2617 31.8891 17.2385C31.8891 18.2154 31.1421 18.9624 30.1653 18.9624Z" fill="#2C3E50"/>
<path d="M37.9233 18.9624H36.1995C35.2226 18.9624 34.4756 18.2154 34.4756 17.2385V15.5146H37.9233V18.9624Z" fill="#2C3E50"/>
<path d="M40.5122 15.5146H37.0645V18.9624H40.5122V15.5146Z" fill="#2C3E50"/>
<path d="M47.4048 18.9624H43.957V17.2385C43.957 16.2617 44.704 15.5146 45.6809 15.5146H47.4048V18.9624Z" fill="#2C3E50"/>
<path d="M49.9897 15.5146H46.542V18.9624H49.9897V15.5146Z" fill="#2C3E50"/>
<path d="M53.4389 15.5146H49.9912V18.9624H53.4389V15.5146Z" fill="#2C3E50"/>
<path d="M55.1643 18.9624H53.4404V15.5146H56.8882V17.2385C56.8882 18.2154 56.1412 18.9624 55.1643 18.9624Z" fill="#2C3E50"/>
<path d="M67.2297 18.9624C66.2529 18.9624 65.5059 18.2154 65.5059 17.2385V15.5146H68.9536V17.2385C68.9536 18.2154 68.2066 18.9624 67.2297 18.9624Z" fill="#2C3E50"/>
<path d="M73.2639 18.9624C74.216 18.9624 74.9878 18.1906 74.9878 17.2385C74.9878 16.2865 74.216 15.5146 73.2639 15.5146C72.3118 15.5146 71.54 16.2865 71.54 17.2385C71.54 18.1906 72.3118 18.9624 73.2639 18.9624Z" fill="#2C3E50"/>
<path d="M81.021 18.9624H79.2971C78.3203 18.9624 77.5732 18.2154 77.5732 17.2385V15.5146H81.021V18.9624Z" fill="#2C3E50"/>
<path d="M84.4692 15.5146H81.0215V18.9624H84.4692V15.5146Z" fill="#2C3E50"/>
<path d="M87.9145 15.5146H84.4668V18.9624H87.9145V15.5146Z" fill="#2C3E50"/>
<path d="M90.5044 18.9624H87.0566V15.5146H88.7805C89.7574 15.5146 90.5044 16.2617 90.5044 17.2385V18.9624Z" fill="#2C3E50"/>
<path d="M28.4409 18.9553H24.9932V22.4031H28.4409V18.9553Z" fill="#2C3E50"/>
<path d="M32.7551 22.4031C33.7072 22.4031 34.479 21.6313 34.479 20.6792C34.479 19.7271 33.7072 18.9553 32.7551 18.9553C31.8031 18.9553 31.0312 19.7271 31.0312 20.6792C31.0312 21.6313 31.8031 22.4031 32.7551 22.4031Z" fill="#2C3E50"/>
<path d="M38.7883 22.4031C37.8115 22.4031 37.0645 21.656 37.0645 20.6792V18.9553H40.5122V20.6792C40.5122 21.656 39.7652 22.4031 38.7883 22.4031Z" fill="#2C3E50"/>
<path d="M45.6809 22.4031C44.704 22.4031 43.957 21.656 43.957 20.6792V18.9553H47.4048V20.6792C47.4048 21.656 46.6578 22.4031 45.6809 22.4031Z" fill="#2C3E50"/>
<path d="M53.4389 18.9553H49.9912V22.4031H53.4389V18.9553Z" fill="#2C3E50"/>
<path d="M57.7483 22.4031C58.7003 22.4031 59.4722 21.6313 59.4722 20.6792C59.4722 19.7271 58.7003 18.9553 57.7483 18.9553C56.7962 18.9553 56.0244 19.7271 56.0244 20.6792C56.0244 21.6313 56.7962 22.4031 57.7483 22.4031Z" fill="#2C3E50"/>
<path d="M63.7815 22.4031C64.7336 22.4031 65.5054 21.6313 65.5054 20.6792C65.5054 19.7271 64.7336 18.9553 63.7815 18.9553C62.8294 18.9553 62.0576 19.7271 62.0576 20.6792C62.0576 21.6313 62.8294 22.4031 63.7815 22.4031Z" fill="#2C3E50"/>
<path d="M70.6799 22.4031C71.632 22.4031 72.4038 21.6313 72.4038 20.6792C72.4038 19.7271 71.632 18.9553 70.6799 18.9553C69.7279 18.9553 68.9561 19.7271 68.9561 20.6792C68.9561 21.6313 69.7279 22.4031 70.6799 22.4031Z" fill="#2C3E50"/>
<path d="M76.7131 22.4031C77.6652 22.4031 78.437 21.6313 78.437 20.6792C78.437 19.7271 77.6652 18.9553 76.7131 18.9553C75.7611 18.9553 74.9893 19.7271 74.9893 20.6792C74.9893 21.6313 75.7611 22.4031 76.7131 22.4031Z" fill="#2C3E50"/>
<path d="M82.7454 22.4031C81.7685 22.4031 81.0215 21.656 81.0215 20.6792V18.9553H84.4692V20.6792C84.4692 21.656 83.7222 22.4031 82.7454 22.4031Z" fill="#2C3E50"/>
<path d="M90.5044 18.9553H87.0566V22.4031H90.5044V18.9553Z" fill="#2C3E50"/>
<path d="M28.4409 21.5488H24.9932V24.9966H28.4409V21.5488Z" fill="#2C3E50"/>
<path d="M31.8891 24.9966H28.4414V21.5488H30.1653C31.1421 21.5488 31.8891 22.2958 31.8891 23.2727V24.9966Z" fill="#2C3E50"/>
<path d="M43.9565 24.9966H40.5088V23.2727C40.5088 22.2958 41.2558 21.5488 42.2327 21.5488C43.2095 21.5488 43.9565 22.2958 43.9565 23.2727V24.9966Z" fill="#2C3E50"/>
<path d="M53.4389 24.9966H51.7151C50.7382 24.9966 49.9912 24.2496 49.9912 23.2727V21.5488H53.4389V24.9966Z" fill="#2C3E50"/>
<path d="M55.1643 24.9966H53.4404V21.5488H55.1643C56.1412 21.5488 56.8882 22.2958 56.8882 23.2727C56.8882 24.2496 56.1412 24.9966 55.1643 24.9966Z" fill="#2C3E50"/>
<path d="M62.9214 24.9966H59.4736V23.2727C59.4736 22.2958 60.2206 21.5488 61.1975 21.5488C62.1744 21.5488 62.9214 22.2958 62.9214 23.2727V24.9966Z" fill="#2C3E50"/>
<path d="M73.2639 24.9966C74.216 24.9966 74.9878 24.2248 74.9878 23.2727C74.9878 22.3206 74.216 21.5488 73.2639 21.5488C72.3118 21.5488 71.54 22.3206 71.54 23.2727C71.54 24.2248 72.3118 24.9966 73.2639 24.9966Z" fill="#2C3E50"/>
<path d="M79.2971 24.9966C80.2492 24.9966 81.021 24.2248 81.021 23.2727C81.021 22.3206 80.2492 21.5488 79.2971 21.5488C78.345 21.5488 77.5732 22.3206 77.5732 23.2727C77.5732 24.2248 78.345 24.9966 79.2971 24.9966Z" fill="#2C3E50"/>
<path d="M88.7805 24.9966C87.8037 24.9966 87.0566 24.2496 87.0566 23.2727V21.5488H90.5044V23.2727C90.5044 24.2496 89.7574 24.9966 88.7805 24.9966Z" fill="#2C3E50"/>
<path d="M9.48094 28.4451H7.75707C6.78021 28.4451 6.0332 27.698 6.0332 26.7212C6.0332 25.7443 6.78021 24.9973 7.75707 24.9973H9.48094V28.4451Z" fill="#2C3E50"/>
<path d="M12.9253 24.9973H9.47754V28.4451H12.9253V24.9973Z" fill="#2C3E50"/>
<path d="M15.5151 28.4451H12.0674V24.9973H13.7913C14.7681 24.9973 15.5151 25.7443 15.5151 26.7212V28.4451Z" fill="#2C3E50"/>
<path d="M20.6838 28.4451C21.6359 28.4451 22.4077 27.6732 22.4077 26.7212C22.4077 25.7691 21.6359 24.9973 20.6838 24.9973C19.7318 24.9973 18.96 25.7691 18.96 26.7212C18.96 27.6732 19.7318 28.4451 20.6838 28.4451Z" fill="#2C3E50"/>
<path d="M28.4409 24.9973H24.9932V28.4451H28.4409V24.9973Z" fill="#2C3E50"/>
<path d="M31.8891 24.9973H28.4414V28.4451H31.8891V24.9973Z" fill="#2C3E50"/>
<path d="M40.5122 28.4451H38.7883C37.8115 28.4451 37.0645 27.698 37.0645 26.7212C37.0645 25.7443 37.8115 24.9973 38.7883 24.9973H40.5122V28.4451Z" fill="#2C3E50"/>
<path d="M43.9565 24.9973H40.5088V28.4451H43.9565V24.9973Z" fill="#2C3E50"/>
<path d="M47.4048 24.9973H43.957V28.4451H47.4048V24.9973Z" fill="#2C3E50"/>
<path d="M48.2659 28.4451H46.542V24.9973H48.2659C49.2427 24.9973 49.9897 25.7443 49.9897 26.7212C49.9897 27.698 49.2427 28.4451 48.2659 28.4451Z" fill="#2C3E50"/>
<path d="M59.4722 28.4451H57.7483C56.7714 28.4451 56.0244 27.698 56.0244 26.7212C56.0244 25.7443 56.7714 24.9973 57.7483 24.9973H59.4722V28.4451Z" fill="#2C3E50"/>
<path d="M62.9214 24.9973H59.4736V28.4451H62.9214V24.9973Z" fill="#2C3E50"/>
<path d="M65.5054 24.9973H62.0576V28.4451H65.5054V24.9973Z" fill="#2C3E50"/>
<path d="M68.9536 24.9973H65.5059V28.4451H68.9536V24.9973Z" fill="#2C3E50"/>
<path d="M70.6799 28.4451H68.9561V24.9973H70.6799C71.6568 24.9973 72.4038 25.7443 72.4038 26.7212C72.4038 27.698 71.6568 28.4451 70.6799 28.4451Z" fill="#2C3E50"/>
<path d="M78.437 28.4451H74.9893V26.7212C74.9893 25.7443 75.7363 24.9973 76.7131 24.9973C77.69 24.9973 78.437 25.7443 78.437 26.7212V28.4451Z" fill="#2C3E50"/>
<path d="M82.7454 28.4451C83.6974 28.4451 84.4692 27.6732 84.4692 26.7212C84.4692 25.7691 83.6974 24.9973 82.7454 24.9973C81.7933 24.9973 81.0215 25.7691 81.0215 26.7212C81.0215 27.6732 81.7933 28.4451 82.7454 28.4451Z" fill="#2C3E50"/>
<path d="M93.9526 28.4451H92.2288C91.2519 28.4451 90.5049 27.698 90.5049 26.7212C90.5049 25.7443 91.2519 24.9973 92.2288 24.9973H93.9526V28.4451Z" fill="#2C3E50"/>
<path d="M97.397 24.9973H93.9492V28.4451H97.397V24.9973Z" fill="#2C3E50"/>
<path d="M99.9858 28.4451H96.5381V24.9973H98.262C99.2388 24.9973 99.9858 25.7443 99.9858 26.7212V28.4451Z" fill="#2C3E50"/>
<path d="M109.468 28.4451H107.744C106.768 28.4451 106.021 27.698 106.021 26.7212C106.021 25.7443 106.768 24.9973 107.744 24.9973H109.468V28.4451Z" fill="#2C3E50"/>
<path d="M112.913 24.9973H109.465V28.4451H112.913V24.9973Z" fill="#2C3E50"/>
<path d="M113.778 28.4451H112.054V24.9973H113.778C114.754 24.9973 115.501 25.7443 115.501 26.7212C115.501 27.698 114.754 28.4451 113.778 28.4451Z" fill="#2C3E50"/>
<path d="M3.44774 31.8857H1.72387C0.74701 31.8857 0 31.1387 0 30.1619C0 29.185 0.74701 28.438 1.72387 28.438H3.44774V31.8857Z" fill="#2C3E50"/>
<path d="M6.89207 31.8857H3.44434V28.438H5.1682C6.14506 28.438 6.89207 29.185 6.89207 30.1619V31.8857Z" fill="#2C3E50"/>
<path d="M15.5151 28.438H12.0674V31.8857H15.5151V28.438Z" fill="#2C3E50"/>
<path d="M17.2395 31.8857H15.5156V28.438H17.2395C18.2164 28.438 18.9634 29.185 18.9634 30.1619C18.9634 31.1387 18.2164 31.8857 17.2395 31.8857Z" fill="#2C3E50"/>
<path d="M28.4409 31.8857H26.717C25.7402 31.8857 24.9932 31.1387 24.9932 30.1619V28.438H28.4409V31.8857Z" fill="#2C3E50"/>
<path d="M31.8891 28.438H28.4414V31.8857H31.8891V28.438Z" fill="#2C3E50"/>
<path d="M34.479 28.438H31.0312V31.8857H34.479V28.438Z" fill="#2C3E50"/>
<path d="M37.9233 31.8857H34.4756V28.438H36.1995C37.1763 28.438 37.9233 29.185 37.9233 30.1619V31.8857Z" fill="#2C3E50"/>
<path d="M45.6809 31.8857C44.704 31.8857 43.957 31.1387 43.957 30.1619V28.438H47.4048V30.1619C47.4048 31.1387 46.6578 31.8857 45.6809 31.8857Z" fill="#2C3E50"/>
<path d="M53.4389 31.8857H49.9912V30.1619C49.9912 29.185 50.7382 28.438 51.7151 28.438H53.4389V31.8857Z" fill="#2C3E50"/>
<path d="M56.8882 31.8857H53.4404V28.438H55.1643C56.1412 28.438 56.8882 29.185 56.8882 30.1619V31.8857Z" fill="#2C3E50"/>
<path d="M65.5054 28.438H62.0576V31.8857H65.5054V28.438Z" fill="#2C3E50"/>
<path d="M78.437 31.8857H76.7131C75.7363 31.8857 74.9893 31.1387 74.9893 30.1619V28.438H78.437V31.8857Z" fill="#2C3E50"/>
<path d="M81.021 31.8857H77.5732V28.438H79.2971C80.274 28.438 81.021 29.185 81.021 30.1619V31.8857Z" fill="#2C3E50"/>
<path d="M87.9145 31.8857H84.4668V30.1619C84.4668 29.185 85.2138 28.438 86.1907 28.438C87.1675 28.438 87.9145 29.185 87.9145 30.1619V31.8857Z" fill="#2C3E50"/>
<path d="M99.9858 28.438H96.5381V31.8857H99.9858V28.438Z" fill="#2C3E50"/>
<path d="M104.29 31.8857C105.242 31.8857 106.014 31.1139 106.014 30.1619C106.014 29.2098 105.242 28.438 104.29 28.438C103.338 28.438 102.566 29.2098 102.566 30.1619C102.566 31.1139 103.338 31.8857 104.29 31.8857Z" fill="#2C3E50"/>
<path d="M6.89207 31.0315H3.44434V34.4792H6.89207V31.0315Z" fill="#2C3E50"/>
<path d="M12.9253 34.4792H11.2014C10.2245 34.4792 9.47754 33.7322 9.47754 32.7554C9.47754 31.7785 10.2245 31.0315 11.2014 31.0315H12.9253V34.4792Z" fill="#2C3E50"/>
<path d="M13.7913 34.4792H12.0674V31.0315H15.5151V32.7554C15.5151 33.7322 14.7681 34.4792 13.7913 34.4792Z" fill="#2C3E50"/>
<path d="M22.4077 34.4792H20.6838C19.707 34.4792 18.96 33.7322 18.96 32.7554C18.96 31.7785 19.707 31.0315 20.6838 31.0315H22.4077V34.4792Z" fill="#2C3E50"/>
<path d="M24.9966 34.4792H21.5488V31.0315H23.2727C24.2496 31.0315 24.9966 31.7785 24.9966 32.7554V34.4792Z" fill="#2C3E50"/>
<path d="M34.479 31.0315H31.0312V34.4792H34.479V31.0315Z" fill="#2C3E50"/>
<path d="M37.9233 31.0315H34.4756V34.4792H37.9233V31.0315Z" fill="#2C3E50"/>
<path d="M42.2327 34.4792C43.1847 34.4792 43.9565 33.7074 43.9565 32.7554C43.9565 31.8033 43.1847 31.0315 42.2327 31.0315C41.2806 31.0315 40.5088 31.8033 40.5088 32.7554C40.5088 33.7074 41.2806 34.4792 42.2327 34.4792Z" fill="#2C3E50"/>
<path d="M53.4389 31.0315H49.9912V34.4792H53.4389V31.0315Z" fill="#2C3E50"/>
<path d="M56.8882 31.0315H53.4404V34.4792H56.8882V31.0315Z" fill="#2C3E50"/>
<path d="M57.7483 34.4792H56.0244V31.0315H57.7483C58.7251 31.0315 59.4722 31.7785 59.4722 32.7554C59.4722 33.7322 58.7251 34.4792 57.7483 34.4792Z" fill="#2C3E50"/>
<path d="M65.5054 31.0315H62.0576V34.4792H65.5054V31.0315Z" fill="#2C3E50"/>
<path d="M72.4038 34.4792H68.9561V32.7554C68.9561 31.7785 69.7031 31.0315 70.6799 31.0315H72.4038V34.4792Z" fill="#2C3E50"/>
<path d="M74.9878 34.4792H71.54V31.0315H73.2639C74.2408 31.0315 74.9878 31.7785 74.9878 32.7554V34.4792Z" fill="#2C3E50"/>
<path d="M81.021 34.4792H79.2971C78.3203 34.4792 77.5732 33.7322 77.5732 32.7554V31.0315H81.021V34.4792Z" fill="#2C3E50"/>
<path d="M84.4692 31.0315H81.0215V34.4792H84.4692V31.0315Z" fill="#2C3E50"/>
<path d="M87.9145 31.0315H84.4668V34.4792H87.9145V31.0315Z" fill="#2C3E50"/>
<path d="M90.5044 34.4792H87.0566V31.0315H88.7805C89.7574 31.0315 90.5044 31.7785 90.5044 32.7554V34.4792Z" fill="#2C3E50"/>
<path d="M97.397 34.4792H93.9492V32.7554C93.9492 31.7785 94.6962 31.0315 95.6731 31.0315H97.397V34.4792Z" fill="#2C3E50"/>
<path d="M98.262 34.4792H96.5381V31.0315H99.9858V32.7554C99.9858 33.7322 99.2388 34.4792 98.262 34.4792Z" fill="#2C3E50"/>
<path d="M109.468 34.4792H107.744C106.768 34.4792 106.021 33.7322 106.021 32.7554C106.021 31.7785 106.768 31.0315 107.744 31.0315H109.468V34.4792Z" fill="#2C3E50"/>
<path d="M112.913 31.0315H109.465V34.4792H112.913V31.0315Z" fill="#2C3E50"/>
<path d="M115.501 34.4792H112.054V31.0315H113.778C114.754 31.0315 115.501 31.7785 115.501 32.7554V34.4792Z" fill="#2C3E50"/>
<path d="M3.44774 37.9277H0V36.2038C0 35.227 0.74701 34.48 1.72387 34.48H3.44774V37.9277Z" fill="#2C3E50"/>
<path d="M5.1682 37.9277H3.44434V34.48H6.89207V36.2038C6.89207 37.1807 6.14506 37.9277 5.1682 37.9277Z" fill="#2C3E50"/>
<path d="M23.2727 37.9277C22.2958 37.9277 21.5488 37.1807 21.5488 36.2038V34.48H24.9966V36.2038C24.9966 37.1807 24.2496 37.9277 23.2727 37.9277Z" fill="#2C3E50"/>
<path d="M34.479 34.48H31.0312V37.9277H34.479V34.48Z" fill="#2C3E50"/>
<path d="M37.9233 34.48H34.4756V37.9277H37.9233V34.48Z" fill="#2C3E50"/>
<path d="M51.7151 37.9277C50.7382 37.9277 49.9912 37.1807 49.9912 36.2038V34.48H53.4389V36.2038C53.4389 37.1807 52.6919 37.9277 51.7151 37.9277Z" fill="#2C3E50"/>
<path d="M62.9214 37.9277H59.4736V36.2038C59.4736 35.227 60.2206 34.48 61.1975 34.48H62.9214V37.9277Z" fill="#2C3E50"/>
<path d="M65.5054 34.48H62.0576V37.9277H65.5054V34.48Z" fill="#2C3E50"/>
<path d="M68.9536 34.48H65.5059V37.9277H68.9536V34.48Z" fill="#2C3E50"/>
<path d="M72.4038 34.48H68.9561V37.9277H72.4038V34.48Z" fill="#2C3E50"/>
<path d="M73.2639 37.9277H71.54V34.48H74.9878V36.2038C74.9878 37.1807 74.2408 37.9277 73.2639 37.9277Z" fill="#2C3E50"/>
<path d="M84.4692 34.48H81.0215V37.9277H84.4692V34.48Z" fill="#2C3E50"/>
<path d="M88.7805 37.9277C87.8037 37.9277 87.0566 37.1807 87.0566 36.2038V34.48H90.5044V36.2038C90.5044 37.1807 89.7574 37.9277 88.7805 37.9277Z" fill="#2C3E50"/>
<path d="M97.397 34.48H93.9492V37.9277H97.397V34.48Z" fill="#2C3E50"/>
<path d="M103.43 37.9277H99.9824V36.2038C99.9824 35.227 100.729 34.48 101.706 34.48C102.683 34.48 103.43 35.227 103.43 36.2038V37.9277Z" fill="#2C3E50"/>
<path d="M112.913 34.48H109.465V37.9277H112.913V34.48Z" fill="#2C3E50"/>
<path d="M113.778 37.9277H112.054V34.48H115.501V36.2038C115.501 37.1807 114.754 37.9277 113.778 37.9277Z" fill="#2C3E50"/>
<path d="M1.72387 40.5032C0.74701 40.5032 0 39.7561 0 38.7793V37.0554H3.44774V38.7793C3.44774 39.7561 2.70073 40.5032 1.72387 40.5032Z" fill="#2C3E50"/>
<path d="M12.9253 40.5032H9.47754V38.7793C9.47754 37.8024 10.2245 37.0554 11.2014 37.0554H12.9253V40.5032Z" fill="#2C3E50"/>
<path d="M15.5151 37.0554H12.0674V40.5032H15.5151V37.0554Z" fill="#2C3E50"/>
<path d="M18.9634 37.0554H15.5156V40.5032H18.9634V37.0554Z" fill="#2C3E50"/>
<path d="M20.6838 40.5032H18.96V37.0554H20.6838C21.6607 37.0554 22.4077 37.8024 22.4077 38.7793C22.4077 39.7561 21.6607 40.5032 20.6838 40.5032Z" fill="#2C3E50"/>
<path d="M31.8891 40.5032H30.1653C29.1884 40.5032 28.4414 39.7561 28.4414 38.7793C28.4414 37.8024 29.1884 37.0554 30.1653 37.0554H31.8891V40.5032Z" fill="#2C3E50"/>
<path d="M34.479 37.0554H31.0312V40.5032H34.479V37.0554Z" fill="#2C3E50"/>
<path d="M37.9233 37.0554H34.4756V40.5032H37.9233V37.0554Z" fill="#2C3E50"/>
<path d="M38.7883 40.5032H37.0645V37.0554H38.7883C39.7652 37.0554 40.5122 37.8024 40.5122 38.7793C40.5122 39.7561 39.7652 40.5032 38.7883 40.5032Z" fill="#2C3E50"/>
<path d="M45.6809 40.5032C46.633 40.5032 47.4048 39.7314 47.4048 38.7793C47.4048 37.8272 46.633 37.0554 45.6809 37.0554C44.7288 37.0554 43.957 37.8272 43.957 38.7793C43.957 39.7314 44.7288 40.5032 45.6809 40.5032Z" fill="#2C3E50"/>
<path d="M56.8882 40.5032H53.4404V38.7793C53.4404 37.8024 54.1874 37.0554 55.1643 37.0554H56.8882V40.5032Z" fill="#2C3E50"/>
<path d="M59.4722 37.0554H56.0244V40.5032H59.4722V37.0554Z" fill="#2C3E50"/>
<path d="M62.9214 37.0554H59.4736V40.5032H62.9214V37.0554Z" fill="#2C3E50"/>
<path d="M63.7815 40.5032H62.0576V37.0554H65.5054V38.7793C65.5054 39.7561 64.7583 40.5032 63.7815 40.5032Z" fill="#2C3E50"/>
<path d="M78.437 40.5032H74.9893V38.7793C74.9893 37.8024 75.7363 37.0554 76.7131 37.0554H78.437V40.5032Z" fill="#2C3E50"/>
<path d="M81.021 37.0554H77.5732V40.5032H81.021V37.0554Z" fill="#2C3E50"/>
<path d="M82.7454 40.5032H81.0215V37.0554H84.4692V38.7793C84.4692 39.7561 83.7222 40.5032 82.7454 40.5032Z" fill="#2C3E50"/>
<path d="M93.9526 40.5032H90.5049V38.7793C90.5049 37.8024 91.2519 37.0554 92.2288 37.0554H93.9526V40.5032Z" fill="#2C3E50"/>
<path d="M95.6731 40.5032H93.9492V37.0554H97.397V38.7793C97.397 39.7561 96.6499 40.5032 95.6731 40.5032Z" fill="#2C3E50"/>
<path d="M103.43 40.5032H101.706C100.729 40.5032 99.9824 39.7561 99.9824 38.7793V37.0554H103.43V40.5032Z" fill="#2C3E50"/>
<path d="M106.014 37.0554H102.566V40.5032H106.014V37.0554Z" fill="#2C3E50"/>
<path d="M109.468 37.0554H106.021V40.5032H109.468V37.0554Z" fill="#2C3E50"/>
<path d="M111.189 40.5032H109.465V37.0554H112.913V38.7793C112.913 39.7561 112.166 40.5032 111.189 40.5032Z" fill="#2C3E50"/>
<path d="M6.89207 43.9619H3.44434V42.238C3.44434 41.2612 4.19135 40.5142 5.1682 40.5142H6.89207V43.9619Z" fill="#2C3E50"/>
<path d="M9.48094 40.5142H6.0332V43.9619H9.48094V40.5142Z" fill="#2C3E50"/>
<path d="M12.9253 40.5142H9.47754V43.9619H12.9253V40.5142Z" fill="#2C3E50"/>
<path d="M26.717 43.9619C27.6691 43.9619 28.4409 43.1901 28.4409 42.238C28.4409 41.286 27.6691 40.5142 26.717 40.5142C25.765 40.5142 24.9932 41.286 24.9932 42.238C24.9932 43.1901 25.765 43.9619 26.717 43.9619Z" fill="#2C3E50"/>
<path d="M36.1995 43.9619C35.2226 43.9619 34.4756 43.2149 34.4756 42.238V40.5142H37.9233V42.238C37.9233 43.2149 37.1763 43.9619 36.1995 43.9619Z" fill="#2C3E50"/>
<path d="M42.2327 43.9619C43.1847 43.9619 43.9565 43.1901 43.9565 42.238C43.9565 41.286 43.1847 40.5142 42.2327 40.5142C41.2806 40.5142 40.5088 41.286 40.5088 42.238C40.5088 43.1901 41.2806 43.9619 42.2327 43.9619Z" fill="#2C3E50"/>
<path d="M53.4389 43.9619H49.9912V42.238C49.9912 41.2612 50.7382 40.5142 51.7151 40.5142H53.4389V43.9619Z" fill="#2C3E50"/>
<path d="M56.8882 40.5142H53.4404V43.9619H56.8882V40.5142Z" fill="#2C3E50"/>
<path d="M59.4722 40.5142H56.0244V43.9619H59.4722V40.5142Z" fill="#2C3E50"/>
<path d="M61.1975 43.9619H59.4736V40.5142H62.9214V42.238C62.9214 43.2149 62.1744 43.9619 61.1975 43.9619Z" fill="#2C3E50"/>
<path d="M68.9536 43.9619H65.5059V42.238C65.5059 41.2612 66.2529 40.5142 67.2297 40.5142C68.2066 40.5142 68.9536 41.2612 68.9536 42.238V43.9619Z" fill="#2C3E50"/>
<path d="M78.437 40.5142H74.9893V43.9619H78.437V40.5142Z" fill="#2C3E50"/>
<path d="M90.5044 43.9619H87.0566V42.238C87.0566 41.2612 87.8037 40.5142 88.7805 40.5142H90.5044V43.9619Z" fill="#2C3E50"/>
<path d="M92.2288 43.9619H90.5049V40.5142H93.9526V42.238C93.9526 43.2149 93.2056 43.9619 92.2288 43.9619Z" fill="#2C3E50"/>
<path d="M99.9858 43.9619H96.5381V42.238C96.5381 41.2612 97.2851 40.5142 98.262 40.5142C99.2388 40.5142 99.9858 41.2612 99.9858 42.238V43.9619Z" fill="#2C3E50"/>
<path d="M106.014 40.5142H102.566V43.9619H106.014V40.5142Z" fill="#2C3E50"/>
<path d="M107.744 43.9619H106.021V40.5142H109.468V42.238C109.468 43.2149 108.721 43.9619 107.744 43.9619Z" fill="#2C3E50"/>
<path d="M3.44774 47.4106H1.72387C0.74701 47.4106 0 46.6636 0 45.6868C0 44.7099 0.74701 43.9629 1.72387 43.9629H3.44774V47.4106Z" fill="#2C3E50"/>
<path d="M6.89207 43.9629H3.44434V47.4106H6.89207V43.9629Z" fill="#2C3E50"/>
<path d="M9.48094 43.9629H6.0332V47.4106H9.48094V43.9629Z" fill="#2C3E50"/>
<path d="M12.9253 43.9629H9.47754V47.4106H12.9253V43.9629Z" fill="#2C3E50"/>
<path d="M15.5151 43.9629H12.0674V47.4106H15.5151V43.9629Z" fill="#2C3E50"/>
<path d="M18.9634 43.9629H15.5156V47.4106H18.9634V43.9629Z" fill="#2C3E50"/>
<path d="M22.4077 43.9629H18.96V47.4106H22.4077V43.9629Z" fill="#2C3E50"/>
<path d="M24.9966 47.4106H21.5488V43.9629H23.2727C24.2496 43.9629 24.9966 44.7099 24.9966 45.6868V47.4106Z" fill="#2C3E50"/>
<path d="M34.479 47.4106H31.0312V45.6868C31.0312 44.7099 31.7783 43.9629 32.7551 43.9629C33.732 43.9629 34.479 44.7099 34.479 45.6868V47.4106Z" fill="#2C3E50"/>
<path d="M40.5122 47.4106H37.0645V45.6868C37.0645 44.7099 37.8115 43.9629 38.7883 43.9629C39.7652 43.9629 40.5122 44.7099 40.5122 45.6868V47.4106Z" fill="#2C3E50"/>
<path d="M45.6809 47.4106C46.633 47.4106 47.4048 46.6388 47.4048 45.6868C47.4048 44.7347 46.633 43.9629 45.6809 43.9629C44.7288 43.9629 43.957 44.7347 43.957 45.6868C43.957 46.6388 44.7288 47.4106 45.6809 47.4106Z" fill="#2C3E50"/>
<path d="M53.4389 43.9629H49.9912V47.4106H53.4389V43.9629Z" fill="#2C3E50"/>
<path d="M56.8882 43.9629H53.4404V47.4106H56.8882V43.9629Z" fill="#2C3E50"/>
<path d="M59.4722 43.9629H56.0244V47.4106H59.4722V43.9629Z" fill="#2C3E50"/>
<path d="M65.5054 47.4106H62.0576V45.6868C62.0576 44.7099 62.8046 43.9629 63.7815 43.9629H65.5054V47.4106Z" fill="#2C3E50"/>
<path d="M68.9536 43.9629H65.5059V47.4106H68.9536V43.9629Z" fill="#2C3E50"/>
<path d="M74.9878 47.4106H71.54V45.6868C71.54 44.7099 72.287 43.9629 73.2639 43.9629H74.9878V47.4106Z" fill="#2C3E50"/>
<path d="M78.437 43.9629H74.9893V47.4106H78.437V43.9629Z" fill="#2C3E50"/>
<path d="M79.2971 47.4106H77.5732V43.9629H79.2971C80.274 43.9629 81.021 44.7099 81.021 45.6868C81.021 46.6636 80.274 47.4106 79.2971 47.4106Z" fill="#2C3E50"/>
<path d="M87.9145 47.4106H84.4668V45.6868C84.4668 44.7099 85.2138 43.9629 86.1907 43.9629H87.9145V47.4106Z" fill="#2C3E50"/>
<path d="M90.5044 43.9629H87.0566V47.4106H90.5044V43.9629Z" fill="#2C3E50"/>
<path d="M98.262 47.4106C97.2851 47.4106 96.5381 46.6636 96.5381 45.6868V43.9629H99.9858V45.6868C99.9858 46.6636 99.2388 47.4106 98.262 47.4106Z" fill="#2C3E50"/>
<path d="M104.29 47.4106C103.313 47.4106 102.566 46.6636 102.566 45.6868V43.9629H106.014V45.6868C106.014 46.6636 105.267 47.4106 104.29 47.4106Z" fill="#2C3E50"/>
<path d="M112.913 47.4106H109.465V45.6868C109.465 44.7099 110.212 43.9629 111.189 43.9629H112.913V47.4106Z" fill="#2C3E50"/>
<path d="M113.778 47.4106H112.054V43.9629H113.778C114.754 43.9629 115.501 44.7099 115.501 45.6868C115.501 46.6636 114.754 47.4106 113.778 47.4106Z" fill="#2C3E50"/>
<path d="M13.7913 49.9939C12.8144 49.9939 12.0674 49.2469 12.0674 48.27V46.5461H15.5151V48.27C15.5151 49.2469 14.7681 49.9939 13.7913 49.9939Z" fill="#2C3E50"/>
<path d="M24.9966 49.9939H23.2727C22.2958 49.9939 21.5488 49.2469 21.5488 48.27V46.5461H24.9966V49.9939Z" fill="#2C3E50"/>
<path d="M28.4409 49.9939H24.9932V46.5461H26.717C27.6939 46.5461 28.4409 47.2932 28.4409 48.27V49.9939Z" fill="#2C3E50"/>
<path d="M34.479 46.5461H31.0312V49.9939H34.479V46.5461Z" fill="#2C3E50"/>
<path d="M40.5122 46.5461H37.0645V49.9939H40.5122V46.5461Z" fill="#2C3E50"/>
<path d="M51.7151 49.9939C50.7382 49.9939 49.9912 49.2469 49.9912 48.27V46.5461H53.4389V48.27C53.4389 49.2469 52.6919 49.9939 51.7151 49.9939Z" fill="#2C3E50"/>
<path d="M59.4722 46.5461H56.0244V49.9939H59.4722V46.5461Z" fill="#2C3E50"/>
<path d="M62.9214 46.5461H59.4736V49.9939H62.9214V46.5461Z" fill="#2C3E50"/>
<path d="M65.5054 46.5461H62.0576V49.9939H65.5054V46.5461Z" fill="#2C3E50"/>
<path d="M68.9536 46.5461H65.5059V49.9939H68.9536V46.5461Z" fill="#2C3E50"/>
<path d="M72.4038 46.5461H68.9561V49.9939H72.4038V46.5461Z" fill="#2C3E50"/>
<path d="M73.2639 49.9939H71.54V46.5461H74.9878V48.27C74.9878 49.2469 74.2408 49.9939 73.2639 49.9939Z" fill="#2C3E50"/>
<path d="M87.9145 49.9939H86.1907C85.2138 49.9939 84.4668 49.2469 84.4668 48.27V46.5461H87.9145V49.9939Z" fill="#2C3E50"/>
<path d="M90.5044 46.5461H87.0566V49.9939H90.5044V46.5461Z" fill="#2C3E50"/>
<path d="M93.9526 46.5461H90.5049V49.9939H93.9526V46.5461Z" fill="#2C3E50"/>
<path d="M97.397 49.9939H93.9492V46.5461H95.6731C96.6499 46.5461 97.397 47.2932 97.397 48.27V49.9939Z" fill="#2C3E50"/>
<path d="M103.43 49.9939H99.9824V48.27C99.9824 47.2932 100.729 46.5461 101.706 46.5461C102.683 46.5461 103.43 47.2932 103.43 48.27V49.9939Z" fill="#2C3E50"/>
<path d="M112.913 46.5461H109.465V49.9939H112.913V46.5461Z" fill="#2C3E50"/>
<path d="M6.89207 53.4346H5.1682C4.19135 53.4346 3.44434 52.6875 3.44434 51.7107C3.44434 50.7338 4.19135 49.9868 5.1682 49.9868H6.89207V53.4346Z" fill="#2C3E50"/>
<path d="M9.48094 49.9868H6.0332V53.4346H9.48094V49.9868Z" fill="#2C3E50"/>
<path d="M11.2009 53.4346H9.47705V49.9868H11.2009C12.1778 49.9868 12.9248 50.7338 12.9248 51.7107C12.9248 52.6875 12.1778 53.4346 11.2009 53.4346Z" fill="#2C3E50"/>
<path d="M20.6838 53.4346C21.6359 53.4346 22.4077 52.6628 22.4077 51.7107C22.4077 50.7586 21.6359 49.9868 20.6838 49.9868C19.7318 49.9868 18.96 50.7586 18.96 51.7107C18.96 52.6628 19.7318 53.4346 20.6838 53.4346Z" fill="#2C3E50"/>
<path d="M28.4409 49.9868H24.9932V53.4346H28.4409V49.9868Z" fill="#2C3E50"/>
<path d="M32.7551 53.4346C31.7783 53.4346 31.0312 52.6875 31.0312 51.7107V49.9868H34.479V51.7107C34.479 52.6875 33.732 53.4346 32.7551 53.4346Z" fill="#2C3E50"/>
<path d="M40.5122 49.9868H37.0645V53.4346H40.5122V49.9868Z" fill="#2C3E50"/>
<path d="M49.9897 53.4346H46.542V51.7107C46.542 50.7338 47.289 49.9868 48.2659 49.9868C49.2427 49.9868 49.9897 50.7338 49.9897 51.7107V53.4346Z" fill="#2C3E50"/>
<path d="M56.8882 53.4346H55.1643C54.1874 53.4346 53.4404 52.6875 53.4404 51.7107C53.4404 50.7338 54.1874 49.9868 55.1643 49.9868H56.8882V53.4346Z" fill="#2C3E50"/>
<path d="M59.4722 49.9868H56.0244V53.4346H59.4722V49.9868Z" fill="#2C3E50"/>
<path d="M61.1975 53.4346H59.4736V49.9868H62.9214V51.7107C62.9214 52.6875 62.1744 53.4346 61.1975 53.4346Z" fill="#2C3E50"/>
<path d="M72.4038 49.9868H68.9561V53.4346H72.4038V49.9868Z" fill="#2C3E50"/>
<path d="M78.4365 53.4346H74.9888V51.7107C74.9888 50.7338 75.7358 49.9868 76.7126 49.9868H78.4365V53.4346Z" fill="#2C3E50"/>
<path d="M81.021 49.9868H77.5732V53.4346H81.021V49.9868Z" fill="#2C3E50"/>
<path d="M84.4692 53.4346H81.0215V49.9868H82.7454C83.7222 49.9868 84.4692 50.7338 84.4692 51.7107V53.4346Z" fill="#2C3E50"/>
<path d="M93.9526 53.4346H92.2288C91.2519 53.4346 90.5049 52.6875 90.5049 51.7107V49.9868H93.9526V53.4346Z" fill="#2C3E50"/>
<path d="M95.6731 53.4346H93.9492V49.9868H97.397V51.7107C97.397 52.6875 96.6499 53.4346 95.6731 53.4346Z" fill="#2C3E50"/>
<path d="M101.706 53.4346C100.729 53.4346 99.9824 52.6875 99.9824 51.7107V49.9868H103.43V51.7107C103.43 52.6875 102.683 53.4346 101.706 53.4346Z" fill="#2C3E50"/>
<path d="M109.468 53.4346H106.021V51.7107C106.021 50.7338 106.768 49.9868 107.744 49.9868H109.468V53.4346Z" fill="#2C3E50"/>
<path d="M111.189 53.4346H109.465V49.9868H112.913V51.7107C112.913 52.6875 112.166 53.4346 111.189 53.4346Z" fill="#2C3E50"/>
<path d="M3.44774 56.883H0V55.1592C0 54.1823 0.74701 53.4353 1.72387 53.4353C2.70073 53.4353 3.44774 54.1823 3.44774 55.1592V56.883Z" fill="#2C3E50"/>
<path d="M7.75707 56.883C6.78021 56.883 6.0332 56.136 6.0332 55.1592V53.4353H9.48094V55.1592C9.48094 56.136 8.73393 56.883 7.75707 56.883Z" fill="#2C3E50"/>
<path d="M15.5151 56.883H12.0674V55.1592C12.0674 54.1823 12.8144 53.4353 13.7913 53.4353H15.5151V56.883Z" fill="#2C3E50"/>
<path d="M18.9634 56.883H15.5156V53.4353H17.2395C18.2164 53.4353 18.9634 54.1823 18.9634 55.1592V56.883Z" fill="#2C3E50"/>
<path d="M24.9966 56.883H21.5488V55.1592C21.5488 54.1823 22.2958 53.4353 23.2727 53.4353H24.9966V56.883Z" fill="#2C3E50"/>
<path d="M28.4409 53.4353H24.9932V56.883H28.4409V53.4353Z" fill="#2C3E50"/>
<path d="M30.1653 56.883H28.4414V53.4353H30.1653C31.1421 53.4353 31.8891 54.1823 31.8891 55.1592C31.8891 56.136 31.1421 56.883 30.1653 56.883Z" fill="#2C3E50"/>
<path d="M40.5122 53.4353H37.0645V56.883H40.5122V53.4353Z" fill="#2C3E50"/>
<path d="M48.2659 56.883C47.289 56.883 46.542 56.136 46.542 55.1592V53.4353H49.9897V55.1592C49.9897 56.136 49.2427 56.883 48.2659 56.883Z" fill="#2C3E50"/>
<path d="M70.6799 56.883C69.7031 56.883 68.9561 56.136 68.9561 55.1592V53.4353H72.4038V55.1592C72.4038 56.136 71.6568 56.883 70.6799 56.883Z" fill="#2C3E50"/>
<path d="M76.7131 56.883C75.7363 56.883 74.9893 56.136 74.9893 55.1592V53.4353H78.437V55.1592C78.437 56.136 77.69 56.883 76.7131 56.883Z" fill="#2C3E50"/>
<path d="M82.7454 56.883C81.7685 56.883 81.0215 56.136 81.0215 55.1592V53.4353H84.4692V55.1592C84.4692 56.136 83.7222 56.883 82.7454 56.883Z" fill="#2C3E50"/>
<path d="M98.262 56.883C99.214 56.883 99.9858 56.1112 99.9858 55.1592C99.9858 54.2071 99.214 53.4353 98.262 53.4353C97.3099 53.4353 96.5381 54.2071 96.5381 55.1592C96.5381 56.1112 97.3099 56.883 98.262 56.883Z" fill="#2C3E50"/>
<path d="M107.744 56.883C106.768 56.883 106.021 56.136 106.021 55.1592V53.4353H109.468V55.1592C109.468 56.136 108.721 56.883 107.744 56.883Z" fill="#2C3E50"/>
<path d="M1.72387 59.4765C0.74701 59.4765 0 58.7295 0 57.7527V56.0288H3.44774V57.7527C3.44774 58.7295 2.70073 59.4765 1.72387 59.4765Z" fill="#2C3E50"/>
<path d="M15.5151 56.0288H12.0674V59.4765H15.5151V56.0288Z" fill="#2C3E50"/>
<path d="M18.9634 56.0288H15.5156V59.4765H18.9634V56.0288Z" fill="#2C3E50"/>
<path d="M22.4077 56.0288H18.96V59.4765H22.4077V56.0288Z" fill="#2C3E50"/>
<path d="M24.9966 56.0288H21.5488V59.4765H24.9966V56.0288Z" fill="#2C3E50"/>
<path d="M34.479 59.4765H31.0312V57.7527C31.0312 56.7758 31.7783 56.0288 32.7551 56.0288C33.732 56.0288 34.479 56.7758 34.479 57.7527V59.4765Z" fill="#2C3E50"/>
<path d="M40.5122 59.4765H38.7883C37.8115 59.4765 37.0645 58.7295 37.0645 57.7527V56.0288H40.5122V59.4765Z" fill="#2C3E50"/>
<path d="M43.9565 59.4765H40.5088V56.0288H42.2327C43.2095 56.0288 43.9565 56.7758 43.9565 57.7527V59.4765Z" fill="#2C3E50"/>
<path d="M56.8882 59.4765H55.1643C54.1874 59.4765 53.4404 58.7295 53.4404 57.7527C53.4404 56.7758 54.1874 56.0288 55.1643 56.0288H56.8882V59.4765Z" fill="#2C3E50"/>
<path d="M57.7483 59.4765H56.0244V56.0288H57.7483C58.7251 56.0288 59.4722 56.7758 59.4722 57.7527C59.4722 58.7295 58.7251 59.4765 57.7483 59.4765Z" fill="#2C3E50"/>
<path d="M65.5054 59.4765H62.0576V57.7527C62.0576 56.7758 62.8046 56.0288 63.7815 56.0288H65.5054V59.4765Z" fill="#2C3E50"/>
<path d="M67.2297 59.4765H65.5059V56.0288H67.2297C68.2066 56.0288 68.9536 56.7758 68.9536 57.7527C68.9536 58.7295 68.2066 59.4765 67.2297 59.4765Z" fill="#2C3E50"/>
<path d="M87.9145 59.4765H84.4668V57.7527C84.4668 56.7758 85.2138 56.0288 86.1907 56.0288H87.9145V59.4765Z" fill="#2C3E50"/>
<path d="M90.5044 56.0288H87.0566V59.4765H90.5044V56.0288Z" fill="#2C3E50"/>
<path d="M92.2288 59.4765H90.5049V56.0288H92.2288C93.2056 56.0288 93.9526 56.7758 93.9526 57.7527C93.9526 58.7295 93.2056 59.4765 92.2288 59.4765Z" fill="#2C3E50"/>
<path d="M101.706 59.4765C102.658 59.4765 103.43 58.7047 103.43 57.7527C103.43 56.8006 102.658 56.0288 101.706 56.0288C100.754 56.0288 99.9824 56.8006 99.9824 57.7527C99.9824 58.7047 100.754 59.4765 101.706 59.4765Z" fill="#2C3E50"/>
<path d="M112.913 59.4765H111.189C110.212 59.4765 109.465 58.7295 109.465 57.7527C109.465 56.7758 110.212 56.0288 111.189 56.0288H112.913V59.4765Z" fill="#2C3E50"/>
<path d="M115.501 59.4765H112.054V56.0288H113.778C114.754 56.0288 115.501 56.7758 115.501 57.7527V59.4765Z" fill="#2C3E50"/>
<path d="M9.48094 62.9172H6.0332V61.1934C6.0332 60.2165 6.78021 59.4695 7.75707 59.4695H9.48094V62.9172Z" fill="#2C3E50"/>
<path d="M12.9253 59.4695H9.47754V62.9172H12.9253V59.4695Z" fill="#2C3E50"/>
<path d="M15.5151 59.4695H12.0674V62.9172H15.5151V59.4695Z" fill="#2C3E50"/>
<path d="M18.9634 59.4695H15.5156V62.9172H18.9634V59.4695Z" fill="#2C3E50"/>
<path d="M24.9966 62.9172H23.2727C22.2958 62.9172 21.5488 62.1702 21.5488 61.1934V59.4695H24.9966V62.9172Z" fill="#2C3E50"/>
<path d="M28.4409 62.9172H24.9932V59.4695H26.717C27.6939 59.4695 28.4409 60.2165 28.4409 61.1934V62.9172Z" fill="#2C3E50"/>
<path d="M34.479 59.4695H31.0312V62.9172H34.479V59.4695Z" fill="#2C3E50"/>
<path d="M36.1995 62.9172H34.4756V59.4695H36.1995C37.1763 59.4695 37.9233 60.2165 37.9233 61.1934C37.9233 62.1702 37.1763 62.9172 36.1995 62.9172Z" fill="#2C3E50"/>
<path d="M43.9565 62.9172H42.2327C41.2558 62.9172 40.5088 62.1702 40.5088 61.1934V59.4695H43.9565V62.9172Z" fill="#2C3E50"/>
<path d="M47.4048 59.4695H43.957V62.9172H47.4048V59.4695Z" fill="#2C3E50"/>
<path d="M48.2659 62.9172H46.542V59.4695H48.2659C49.2427 59.4695 49.9897 60.2165 49.9897 61.1934C49.9897 62.1702 49.2427 62.9172 48.2659 62.9172Z" fill="#2C3E50"/>
<path d="M65.5054 59.4695H62.0576V62.9172H65.5054V59.4695Z" fill="#2C3E50"/>
<path d="M72.4038 62.9172H70.6799C69.7031 62.9172 68.9561 62.1702 68.9561 61.1934C68.9561 60.2165 69.7031 59.4695 70.6799 59.4695H72.4038V62.9172Z" fill="#2C3E50"/>
<path d="M74.9878 59.4695H71.54V62.9172H74.9878V59.4695Z" fill="#2C3E50"/>
<path d="M76.7131 62.9172H74.9893V59.4695H76.7131C77.69 59.4695 78.437 60.2165 78.437 61.1934C78.437 62.1702 77.69 62.9172 76.7131 62.9172Z" fill="#2C3E50"/>
<path d="M87.9145 59.4695H84.4668V62.9172H87.9145V59.4695Z" fill="#2C3E50"/>
<path d="M88.7805 62.9172H87.0566V59.4695H90.5044V61.1934C90.5044 62.1702 89.7574 62.9172 88.7805 62.9172Z" fill="#2C3E50"/>
<path d="M97.397 62.9172H93.9492V61.1934C93.9492 60.2165 94.6962 59.4695 95.6731 59.4695C96.6499 59.4695 97.397 60.2165 97.397 61.1934V62.9172Z" fill="#2C3E50"/>
<path d="M113.778 62.9172C112.801 62.9172 112.054 62.1702 112.054 61.1934V59.4695H115.501V61.1934C115.501 62.1702 114.754 62.9172 113.778 62.9172Z" fill="#2C3E50"/>
<path d="M6.89207 65.5107H3.44434V63.7869C3.44434 62.81 4.19135 62.063 5.1682 62.063H6.89207V65.5107Z" fill="#2C3E50"/>
<path d="M7.75707 65.5107H6.0332V62.063H9.48094V63.7869C9.48094 64.7637 8.73393 65.5107 7.75707 65.5107Z" fill="#2C3E50"/>
<path d="M15.5151 65.5107H13.7913C12.8144 65.5107 12.0674 64.7637 12.0674 63.7869V62.063H15.5151V65.5107Z" fill="#2C3E50"/>
<path d="M18.9634 62.063H15.5156V65.5107H18.9634V62.063Z" fill="#2C3E50"/>
<path d="M20.6838 65.5107H18.96V62.063H20.6838C21.6607 62.063 22.4077 62.81 22.4077 63.7869C22.4077 64.7637 21.6607 65.5107 20.6838 65.5107Z" fill="#2C3E50"/>
<path d="M28.4409 62.063H24.9932V65.5107H28.4409V62.063Z" fill="#2C3E50"/>
<path d="M34.479 62.063H31.0312V65.5107H34.479V62.063Z" fill="#2C3E50"/>
<path d="M62.9214 65.5107H61.1975C60.2206 65.5107 59.4736 64.7637 59.4736 63.7869C59.4736 62.81 60.2206 62.063 61.1975 62.063H62.9214V65.5107Z" fill="#2C3E50"/>
<path d="M65.5054 62.063H62.0576V65.5107H65.5054V62.063Z" fill="#2C3E50"/>
<path d="M81.021 65.5107H79.2971C78.3203 65.5107 77.5732 64.7637 77.5732 63.7869C77.5732 62.81 78.3203 62.063 79.2971 62.063H81.021V65.5107Z" fill="#2C3E50"/>
<path d="M84.4692 62.063H81.0215V65.5107H84.4692V62.063Z" fill="#2C3E50"/>
<path d="M86.1907 65.5107H84.4668V62.063H87.9145V63.7869C87.9145 64.7637 87.1675 65.5107 86.1907 65.5107Z" fill="#2C3E50"/>
<path d="M93.9526 65.5107H92.2288C91.2519 65.5107 90.5049 64.7637 90.5049 63.7869C90.5049 62.81 91.2519 62.063 92.2288 62.063H93.9526V65.5107Z" fill="#2C3E50"/>
<path d="M97.397 62.063H93.9492V65.5107H97.397V62.063Z" fill="#2C3E50"/>
<path d="M99.9858 62.063H96.5381V65.5107H99.9858V62.063Z" fill="#2C3E50"/>
<path d="M103.43 62.063H99.9824V65.5107H103.43V62.063Z" fill="#2C3E50"/>
<path d="M106.014 62.063H102.566V65.5107H106.014V62.063Z" fill="#2C3E50"/>
<path d="M109.468 65.5107H106.021V62.063H107.744C108.721 62.063 109.468 62.81 109.468 63.7869V65.5107Z" fill="#2C3E50"/>
<path d="M6.89207 65.5115H3.44434V68.9592H6.89207V65.5115Z" fill="#2C3E50"/>
<path d="M18.9634 65.5116H15.5156V68.9593H18.9634V65.5116Z" fill="#2C3E50"/>
<path d="M26.717 68.9593C25.7402 68.9593 24.9932 68.2123 24.9932 67.2355V65.5116H28.4409V67.2355C28.4409 68.2123 27.6939 68.9593 26.717 68.9593Z" fill="#2C3E50"/>
<path d="M34.479 65.5115H31.0312V68.9592H34.479V65.5115Z" fill="#2C3E50"/>
<path d="M36.1995 68.9592H34.4756V65.5115H36.1995C37.1763 65.5115 37.9233 66.2585 37.9233 67.2353C37.9233 68.2122 37.1763 68.9592 36.1995 68.9592Z" fill="#2C3E50"/>
<path d="M42.2331 68.9593C43.1852 68.9593 43.957 68.1875 43.957 67.2355C43.957 66.2834 43.1852 65.5116 42.2331 65.5116C41.2811 65.5116 40.5093 66.2834 40.5093 67.2355C40.5093 68.1875 41.2811 68.9593 42.2331 68.9593Z" fill="#2C3E50"/>
<path d="M49.9897 68.9592H46.542V67.2353C46.542 66.2585 47.289 65.5115 48.2659 65.5115C49.2427 65.5115 49.9897 66.2585 49.9897 67.2353V68.9592Z" fill="#2C3E50"/>
<path d="M56.8882 68.9592H53.4404V67.2353C53.4404 66.2585 54.1874 65.5115 55.1643 65.5115H56.8882V68.9592Z" fill="#2C3E50"/>
<path d="M57.7483 68.9592H56.0244V65.5115H57.7483C58.7251 65.5115 59.4722 66.2585 59.4722 67.2353C59.4722 68.2122 58.7251 68.9592 57.7483 68.9592Z" fill="#2C3E50"/>
<path d="M63.7815 68.9592C62.8046 68.9592 62.0576 68.2122 62.0576 67.2353V65.5115H65.5054V67.2353C65.5054 68.2122 64.7583 68.9592 63.7815 68.9592Z" fill="#2C3E50"/>
<path d="M72.4038 68.9592H68.9561V67.2353C68.9561 66.2585 69.7031 65.5115 70.6799 65.5115C71.6568 65.5115 72.4038 66.2585 72.4038 67.2353V68.9592Z" fill="#2C3E50"/>
<path d="M82.7454 68.9592C81.7685 68.9592 81.0215 68.2122 81.0215 67.2353V65.5115H84.4692V67.2353C84.4692 68.2122 83.7222 68.9592 82.7454 68.9592Z" fill="#2C3E50"/>
<path d="M98.262 68.9592C97.2851 68.9592 96.5381 68.2122 96.5381 67.2353V65.5115H99.9858V67.2353C99.9858 68.2122 99.2388 68.9592 98.262 68.9592Z" fill="#2C3E50"/>
<path d="M109.468 65.5116H106.021V68.9593H109.468V65.5116Z" fill="#2C3E50"/>
<path d="M5.1682 72.4079C4.19135 72.4079 3.44434 71.6609 3.44434 70.6841V68.9602H6.89207V70.6841C6.89207 71.6609 6.14506 72.4079 5.1682 72.4079Z" fill="#2C3E50"/>
<path d="M18.9634 72.4079H17.2395C16.2626 72.4079 15.5156 71.6609 15.5156 70.6841V68.9602H18.9634V72.4079Z" fill="#2C3E50"/>
<path d="M20.6838 72.4079H18.96V68.9602H20.6838C21.6607 68.9602 22.4077 69.7072 22.4077 70.6841C22.4077 71.6609 21.6607 72.4079 20.6838 72.4079Z" fill="#2C3E50"/>
<path d="M31.8891 72.4079H30.1653C29.1884 72.4079 28.4414 71.6609 28.4414 70.6841C28.4414 69.7072 29.1884 68.9602 30.1653 68.9602H31.8891V72.4079Z" fill="#2C3E50"/>
<path d="M34.479 68.9602H31.0312V72.4079H34.479V68.9602Z" fill="#2C3E50"/>
<path d="M47.4048 72.4079H43.957V70.6841C43.957 69.7072 44.704 68.9602 45.6809 68.9602H47.4048V72.4079Z" fill="#2C3E50"/>
<path d="M49.9897 68.9602H46.542V72.4079H49.9897V68.9602Z" fill="#2C3E50"/>
<path d="M56.8882 68.9602H53.4404V72.4079H56.8882V68.9602Z" fill="#2C3E50"/>
<path d="M61.1975 72.4079C62.1496 72.4079 62.9214 71.6361 62.9214 70.6841C62.9214 69.732 62.1496 68.9602 61.1975 68.9602C60.2454 68.9602 59.4736 69.732 59.4736 70.6841C59.4736 71.6361 60.2454 72.4079 61.1975 72.4079Z" fill="#2C3E50"/>
<path d="M72.4038 72.4079H70.6799C69.7031 72.4079 68.9561 71.6609 68.9561 70.6841V68.9602H72.4038V72.4079Z" fill="#2C3E50"/>
<path d="M73.2639 72.4079H71.54V68.9602H73.2639C74.2408 68.9602 74.9878 69.7072 74.9878 70.6841C74.9878 71.6609 74.2408 72.4079 73.2639 72.4079Z" fill="#2C3E50"/>
<path d="M86.1907 72.4079C87.1427 72.4079 87.9145 71.6361 87.9145 70.6841C87.9145 69.732 87.1427 68.9602 86.1907 68.9602C85.2386 68.9602 84.4668 69.732 84.4668 70.6841C84.4668 71.6361 85.2386 72.4079 86.1907 72.4079Z" fill="#2C3E50"/>
<path d="M93.9526 72.4079H90.5049V70.6841C90.5049 69.7072 91.2519 68.9602 92.2288 68.9602C93.2056 68.9602 93.9526 69.7072 93.9526 70.6841V72.4079Z" fill="#2C3E50"/>
<path d="M109.468 72.4079H107.744C106.768 72.4079 106.021 71.6609 106.021 70.6841V68.9602H109.468V72.4079Z" fill="#2C3E50"/>
<path d="M112.913 68.9602H109.465V72.4079H112.913V68.9602Z" fill="#2C3E50"/>
<path d="M115.501 72.4079H112.054V68.9602H113.778C114.754 68.9602 115.501 69.7072 115.501 70.6841V72.4079Z" fill="#2C3E50"/>
<path d="M9.48094 74.9834H6.0332V73.2595C6.0332 72.2827 6.78021 71.5356 7.75707 71.5356C8.73393 71.5356 9.48094 72.2827 9.48094 73.2595V74.9834Z" fill="#2C3E50"/>
<path d="M28.4409 74.9834H24.9932V73.2595C24.9932 72.2827 25.7402 71.5356 26.717 71.5356C27.6939 71.5356 28.4409 72.2827 28.4409 73.2595V74.9834Z" fill="#2C3E50"/>
<path d="M34.479 74.9834H32.7551C31.7783 74.9834 31.0312 74.2364 31.0312 73.2595V71.5356H34.479V74.9834Z" fill="#2C3E50"/>
<path d="M36.1995 74.9834H34.4756V71.5356H36.1995C37.1763 71.5356 37.9233 72.2827 37.9233 73.2595C37.9233 74.2364 37.1763 74.9834 36.1995 74.9834Z" fill="#2C3E50"/>
<path d="M43.9565 74.9834H42.2327C41.2558 74.9834 40.5088 74.2364 40.5088 73.2595C40.5088 72.2827 41.2558 71.5356 42.2327 71.5356H43.9565V74.9834Z" fill="#2C3E50"/>
<path d="M47.4048 71.5356H43.957V74.9834H47.4048V71.5356Z" fill="#2C3E50"/>
<path d="M49.9897 71.5356H46.542V74.9834H49.9897V71.5356Z" fill="#2C3E50"/>
<path d="M53.4389 71.5356H49.9912V74.9834H53.4389V71.5356Z" fill="#2C3E50"/>
<path d="M56.8882 71.5356H53.4404V74.9834H56.8882V71.5356Z" fill="#2C3E50"/>
<path d="M65.5054 74.9834H63.7815C62.8046 74.9834 62.0576 74.2364 62.0576 73.2595C62.0576 72.2827 62.8046 71.5356 63.7815 71.5356H65.5054V74.9834Z" fill="#2C3E50"/>
<path d="M67.2297 74.9834H65.5059V71.5356H67.2297C68.2066 71.5356 68.9536 72.2827 68.9536 73.2595C68.9536 74.2364 68.2066 74.9834 67.2297 74.9834Z" fill="#2C3E50"/>
<path d="M76.7131 74.9834C77.6652 74.9834 78.437 74.2116 78.437 73.2595C78.437 72.3074 77.6652 71.5356 76.7131 71.5356C75.7611 71.5356 74.9893 72.3074 74.9893 73.2595C74.9893 74.2116 75.7611 74.9834 76.7131 74.9834Z" fill="#2C3E50"/>
<path d="M82.7454 74.9834C83.6974 74.9834 84.4692 74.2116 84.4692 73.2595C84.4692 72.3074 83.6974 71.5356 82.7454 71.5356C81.7933 71.5356 81.0215 72.3074 81.0215 73.2595C81.0215 74.2116 81.7933 74.9834 82.7454 74.9834Z" fill="#2C3E50"/>
<path d="M93.9526 71.5356H90.5049V74.9834H93.9526V71.5356Z" fill="#2C3E50"/>
<path d="M98.262 74.9834C99.214 74.9834 99.9858 74.2116 99.9858 73.2595C99.9858 72.3074 99.214 71.5356 98.262 71.5356C97.3099 71.5356 96.5381 72.3074 96.5381 73.2595C96.5381 74.2116 97.3099 74.9834 98.262 74.9834Z" fill="#2C3E50"/>
<path d="M112.913 74.9834H111.189C110.212 74.9834 109.465 74.2364 109.465 73.2595V71.5356H112.913V74.9834Z" fill="#2C3E50"/>
<path d="M113.778 74.9834H112.054V71.5356H115.501V73.2595C115.501 74.2364 114.754 74.9834 113.778 74.9834Z" fill="#2C3E50"/>
<path d="M3.44774 78.4319H0V76.708C0 75.7311 0.74701 74.9841 1.72387 74.9841H3.44774V78.4319Z" fill="#2C3E50"/>
<path d="M6.89207 74.9841H3.44434V78.4319H6.89207V74.9841Z" fill="#2C3E50"/>
<path d="M9.48094 74.9841H6.0332V78.4319H9.48094V74.9841Z" fill="#2C3E50"/>
<path d="M12.9253 74.9841H9.47754V78.4319H12.9253V74.9841Z" fill="#2C3E50"/>
<path d="M15.5151 74.9841H12.0674V78.4319H15.5151V74.9841Z" fill="#2C3E50"/>
<path d="M18.9634 74.9841H15.5156V78.4319H18.9634V74.9841Z" fill="#2C3E50"/>
<path d="M20.6838 78.4319H18.96V74.9841H20.6838C21.6607 74.9841 22.4077 75.7311 22.4077 76.708C22.4077 77.6849 21.6607 78.4319 20.6838 78.4319Z" fill="#2C3E50"/>
<path d="M28.4409 78.4319H26.717C25.7402 78.4319 24.9932 77.6849 24.9932 76.708V74.9841H28.4409V78.4319Z" fill="#2C3E50"/>
<path d="M30.1653 78.4319H28.4414V74.9841H30.1653C31.1421 74.9841 31.8891 75.7311 31.8891 76.708C31.8891 77.6849 31.1421 78.4319 30.1653 78.4319Z" fill="#2C3E50"/>
<path d="M45.6809 78.4319C44.704 78.4319 43.957 77.6849 43.957 76.708V74.9841H47.4048V76.708C47.4048 77.6849 46.6578 78.4319 45.6809 78.4319Z" fill="#2C3E50"/>
<path d="M53.4389 78.4319H51.7151C50.7382 78.4319 49.9912 77.6849 49.9912 76.708V74.9841H53.4389V78.4319Z" fill="#2C3E50"/>
<path d="M55.1643 78.4319H53.4404V74.9841H56.8882V76.708C56.8882 77.6849 56.1412 78.4319 55.1643 78.4319Z" fill="#2C3E50"/>
<path d="M73.2639 78.4319C74.216 78.4319 74.9878 77.6601 74.9878 76.708C74.9878 75.7559 74.216 74.9841 73.2639 74.9841C72.3118 74.9841 71.54 75.7559 71.54 76.708C71.54 77.6601 72.3118 78.4319 73.2639 78.4319Z" fill="#2C3E50"/>
<path d="M93.9526 78.4319H92.2288C91.2519 78.4319 90.5049 77.6849 90.5049 76.708V74.9841H93.9526V78.4319Z" fill="#2C3E50"/>
<path d="M95.6731 78.4319H93.9492V74.9841H95.6731C96.6499 74.9841 97.397 75.7311 97.397 76.708C97.397 77.6849 96.6499 78.4319 95.6731 78.4319Z" fill="#2C3E50"/>
<path d="M103.43 78.4319H101.706C100.729 78.4319 99.9824 77.6849 99.9824 76.708C99.9824 75.7311 100.729 74.9841 101.706 74.9841H103.43V78.4319Z" fill="#2C3E50"/>
<path d="M106.014 74.9841H102.566V78.4319H106.014V74.9841Z" fill="#2C3E50"/>
<path d="M107.744 78.4319H106.021V74.9841H107.744C108.721 74.9841 109.468 75.7311 109.468 76.708C109.468 77.6849 108.721 78.4319 107.744 78.4319Z" fill="#2C3E50"/>
<path d="M3.44774 77.5776H0V81.0254H3.44774V77.5776Z" fill="#2C3E50"/>
<path d="M6.89207 77.5776H3.44434V81.0254H6.89207V77.5776Z" fill="#2C3E50"/>
<path d="M7.75707 81.0254H6.0332V77.5776H9.48094V79.3015C9.48094 80.2784 8.73393 81.0254 7.75707 81.0254Z" fill="#2C3E50"/>
<path d="M42.2327 81.0254C43.1847 81.0254 43.9565 80.2536 43.9565 79.3015C43.9565 78.3494 43.1847 77.5776 42.2327 77.5776C41.2806 77.5776 40.5088 78.3494 40.5088 79.3015C40.5088 80.2536 41.2806 81.0254 42.2327 81.0254Z" fill="#2C3E50"/>
<path d="M49.9897 81.0254H46.542V79.3015C46.542 78.3246 47.289 77.5776 48.2659 77.5776C49.2427 77.5776 49.9897 78.3246 49.9897 79.3015V81.0254Z" fill="#2C3E50"/>
<path d="M59.4722 81.0254H56.0244V79.3015C56.0244 78.3246 56.7714 77.5776 57.7483 77.5776C58.7251 77.5776 59.4722 78.3246 59.4722 79.3015V81.0254Z" fill="#2C3E50"/>
<path d="M68.9536 81.0254H67.2297C66.2529 81.0254 65.5059 80.2784 65.5059 79.3015C65.5059 78.3246 66.2529 77.5776 67.2297 77.5776H68.9536V81.0254Z" fill="#2C3E50"/>
<path d="M70.6799 81.0254H68.9561V77.5776H70.6799C71.6568 77.5776 72.4038 78.3246 72.4038 79.3015C72.4038 80.2784 71.6568 81.0254 70.6799 81.0254Z" fill="#2C3E50"/>
<path d="M76.7131 81.0254C77.6652 81.0254 78.437 80.2536 78.437 79.3015C78.437 78.3494 77.6652 77.5776 76.7131 77.5776C75.7611 77.5776 74.9893 78.3494 74.9893 79.3015C74.9893 80.2536 75.7611 81.0254 76.7131 81.0254Z" fill="#2C3E50"/>
<path d="M84.4692 81.0254H81.0215V79.3015C81.0215 78.3246 81.7685 77.5776 82.7454 77.5776C83.7222 77.5776 84.4692 78.3246 84.4692 79.3015V81.0254Z" fill="#2C3E50"/>
<path d="M98.262 81.0254C99.214 81.0254 99.9858 80.2536 99.9858 79.3015C99.9858 78.3494 99.214 77.5776 98.262 77.5776C97.3099 77.5776 96.5381 78.3494 96.5381 79.3015C96.5381 80.2536 97.3099 81.0254 98.262 81.0254Z" fill="#2C3E50"/>
<path d="M104.29 81.0254C103.313 81.0254 102.566 80.2784 102.566 79.3015V77.5776H106.014V79.3015C106.014 80.2784 105.267 81.0254 104.29 81.0254Z" fill="#2C3E50"/>
<path d="M3.44774 81.0183H0V84.466H3.44774V81.0183Z" fill="#2C3E50"/>
<path d="M15.5151 84.466H12.0674V82.7422C12.0674 81.7653 12.8144 81.0183 13.7913 81.0183H15.5151V84.466Z" fill="#2C3E50"/>
<path d="M18.9634 81.0183H15.5156V84.466H18.9634V81.0183Z" fill="#2C3E50"/>
<path d="M20.6838 84.466H18.96V81.0183H20.6838C21.6607 81.0183 22.4077 81.7653 22.4077 82.7422C22.4077 83.719 21.6607 84.466 20.6838 84.466Z" fill="#2C3E50"/>
<path d="M26.717 84.466C27.6691 84.466 28.4409 83.6942 28.4409 82.7422C28.4409 81.7901 27.6691 81.0183 26.717 81.0183C25.765 81.0183 24.9932 81.7901 24.9932 82.7422C24.9932 83.6942 25.765 84.466 26.717 84.466Z" fill="#2C3E50"/>
<path d="M34.479 84.466H31.0312V82.7422C31.0312 81.7653 31.7783 81.0183 32.7551 81.0183C33.732 81.0183 34.479 81.7653 34.479 82.7422V84.466Z" fill="#2C3E50"/>
<path d="M47.4048 84.466H45.6809C44.704 84.466 43.957 83.719 43.957 82.7422C43.957 81.7653 44.704 81.0183 45.6809 81.0183H47.4048V84.466Z" fill="#2C3E50"/>
<path d="M48.2659 84.466H46.542V81.0183H49.9897V82.7422C49.9897 83.719 49.2427 84.466 48.2659 84.466Z" fill="#2C3E50"/>
<path d="M57.7483 84.466C56.7714 84.466 56.0244 83.719 56.0244 82.7422V81.0183H59.4722V82.7422C59.4722 83.719 58.7251 84.466 57.7483 84.466Z" fill="#2C3E50"/>
<path d="M63.7815 84.466C64.7336 84.466 65.5054 83.6942 65.5054 82.7422C65.5054 81.7901 64.7336 81.0183 63.7815 81.0183C62.8294 81.0183 62.0576 81.7901 62.0576 82.7422C62.0576 83.6942 62.8294 84.466 63.7815 84.466Z" fill="#2C3E50"/>
<path d="M84.4692 81.0183H81.0215V84.466H84.4692V81.0183Z" fill="#2C3E50"/>
<path d="M86.1907 84.466H84.4668V81.0183H86.1907C87.1675 81.0183 87.9145 81.7653 87.9145 82.7422C87.9145 83.719 87.1675 84.466 86.1907 84.466Z" fill="#2C3E50"/>
<path d="M95.6731 84.466C96.6252 84.466 97.397 83.6942 97.397 82.7422C97.397 81.7901 96.6252 81.0183 95.6731 81.0183C94.721 81.0183 93.9492 81.7901 93.9492 82.7422C93.9492 83.6942 94.721 84.466 95.6731 84.466Z" fill="#2C3E50"/>
<path d="M112.913 84.466H109.465V82.7422C109.465 81.7653 110.212 81.0183 111.189 81.0183H112.913V84.466Z" fill="#2C3E50"/>
<path d="M113.778 84.466H112.054V81.0183H113.778C114.754 81.0183 115.501 81.7653 115.501 82.7422C115.501 83.719 114.754 84.466 113.778 84.466Z" fill="#2C3E50"/>
<path d="M3.44774 84.4668H0V87.9145H3.44774V84.4668Z" fill="#2C3E50"/>
<path d="M15.5151 87.9145H13.7913C12.8144 87.9145 12.0674 87.1675 12.0674 86.1907V84.4668H15.5151V87.9145Z" fill="#2C3E50"/>
<path d="M18.9634 84.4668H15.5156V87.9145H18.9634V84.4668Z" fill="#2C3E50"/>
<path d="M31.8891 87.9145H30.1653C29.1884 87.9145 28.4414 87.1675 28.4414 86.1907C28.4414 85.2138 29.1884 84.4668 30.1653 84.4668H31.8891V87.9145Z" fill="#2C3E50"/>
<path d="M34.479 84.4668H31.0312V87.9145H34.479V84.4668Z" fill="#2C3E50"/>
<path d="M40.5122 87.9145H38.7883C37.8115 87.9145 37.0645 87.1675 37.0645 86.1907C37.0645 85.2138 37.8115 84.4668 38.7883 84.4668H40.5122V87.9145Z" fill="#2C3E50"/>
<path d="M42.2327 87.9145H40.5088V84.4668H42.2327C43.2095 84.4668 43.9565 85.2138 43.9565 86.1907C43.9565 87.1675 43.2095 87.9145 42.2327 87.9145Z" fill="#2C3E50"/>
<path d="M61.1975 87.9145C62.1496 87.9145 62.9214 87.1427 62.9214 86.1907C62.9214 85.2386 62.1496 84.4668 61.1975 84.4668C60.2454 84.4668 59.4736 85.2386 59.4736 86.1907C59.4736 87.1427 60.2454 87.9145 61.1975 87.9145Z" fill="#2C3E50"/>
<path d="M68.9536 87.9145H67.2297C66.2529 87.9145 65.5059 87.1675 65.5059 86.1907C65.5059 85.2138 66.2529 84.4668 67.2297 84.4668H68.9536V87.9145Z" fill="#2C3E50"/>
<path d="M70.6799 87.9145H68.9561V84.4668H70.6799C71.6568 84.4668 72.4038 85.2138 72.4038 86.1907C72.4038 87.1675 71.6568 87.9145 70.6799 87.9145Z" fill="#2C3E50"/>
<path d="M78.437 87.9145H74.9893V86.1907C74.9893 85.2138 75.7363 84.4668 76.7131 84.4668C77.69 84.4668 78.437 85.2138 78.437 86.1907V87.9145Z" fill="#2C3E50"/>
<path d="M84.4692 84.4668H81.0215V87.9145H84.4692V84.4668Z" fill="#2C3E50"/>
<path d="M90.5044 87.9145H87.0566V86.1907C87.0566 85.2138 87.8037 84.4668 88.7805 84.4668H90.5044V87.9145Z" fill="#2C3E50"/>
<path d="M93.9526 87.9145H90.5049V84.4668H92.2288C93.2056 84.4668 93.9526 85.2138 93.9526 86.1907V87.9145Z" fill="#2C3E50"/>
<path d="M99.9858 87.9145H96.5381V86.1907C96.5381 85.2138 97.2851 84.4668 98.262 84.4668C99.2388 84.4668 99.9858 85.2138 99.9858 86.1907V87.9145Z" fill="#2C3E50"/>
<path d="M112.913 84.4668H109.465V87.9145H112.913V84.4668Z" fill="#2C3E50"/>
<path d="M1.72387 90.508C0.74701 90.508 0 89.761 0 88.7842V87.0603H3.44774V88.7842C3.44774 89.761 2.70073 90.508 1.72387 90.508Z" fill="#2C3E50"/>
<path d="M18.9634 90.508H17.2395C16.2626 90.508 15.5156 89.761 15.5156 88.7842V87.0603H18.9634V90.508Z" fill="#2C3E50"/>
<path d="M20.6838 90.508H18.96V87.0603H20.6838C21.6607 87.0603 22.4077 87.8073 22.4077 88.7842C22.4077 89.761 21.6607 90.508 20.6838 90.508Z" fill="#2C3E50"/>
<path d="M34.479 90.508H32.7551C31.7783 90.508 31.0312 89.761 31.0312 88.7842V87.0603H34.479V90.508Z" fill="#2C3E50"/>
<path d="M36.1995 90.508H34.4756V87.0603H36.1995C37.1763 87.0603 37.9233 87.8073 37.9233 88.7842C37.9233 89.761 37.1763 90.508 36.1995 90.508Z" fill="#2C3E50"/>
<path d="M53.4389 90.508H49.9912V88.7842C49.9912 87.8073 50.7382 87.0603 51.7151 87.0603H53.4389V90.508Z" fill="#2C3E50"/>
<path d="M56.8882 90.508H53.4404V87.0603H55.1643C56.1412 87.0603 56.8882 87.8073 56.8882 88.7842V90.508Z" fill="#2C3E50"/>
<path d="M65.5054 90.508H62.0576V88.7842C62.0576 87.8073 62.8046 87.0603 63.7815 87.0603C64.7583 87.0603 65.5054 87.8073 65.5054 88.7842V90.508Z" fill="#2C3E50"/>
<path d="M78.437 90.508H76.7131C75.7363 90.508 74.9893 89.761 74.9893 88.7842V87.0603H78.437V90.508Z" fill="#2C3E50"/>
<path d="M81.021 87.0603H77.5732V90.508H81.021V87.0603Z" fill="#2C3E50"/>
<path d="M82.7454 90.508H81.0215V87.0603H84.4692V88.7842C84.4692 89.761 83.7222 90.508 82.7454 90.508Z" fill="#2C3E50"/>
<path d="M90.5044 87.0603H87.0566V90.508H90.5044V87.0603Z" fill="#2C3E50"/>
<path d="M93.9526 87.0603H90.5049V90.508H93.9526V87.0603Z" fill="#2C3E50"/>
<path d="M97.397 87.0603H93.9492V90.508H97.397V87.0603Z" fill="#2C3E50"/>
<path d="M99.9858 87.0603H96.5381V90.508H99.9858V87.0603Z" fill="#2C3E50"/>
<path d="M103.43 90.508H99.9824V87.0603H101.706C102.683 87.0603 103.43 87.8073 103.43 88.7842V90.508Z" fill="#2C3E50"/>
<path d="M109.468 90.508H107.744C106.768 90.508 106.021 89.761 106.021 88.7842C106.021 87.8073 106.768 87.0603 107.744 87.0603H109.468V90.508Z" fill="#2C3E50"/>
<path d="M111.189 90.508H109.465V87.0603H112.913V88.7842C112.913 89.761 112.166 90.508 111.189 90.508Z" fill="#2C3E50"/>
<path d="M28.4409 93.9487H26.717C25.7402 93.9487 24.9932 93.2017 24.9932 92.2248C24.9932 91.248 25.7402 90.501 26.717 90.501H28.4409V93.9487Z" fill="#2C3E50"/>
<path d="M31.8891 93.9487H28.4414V90.501H30.1653C31.1421 90.501 31.8891 91.248 31.8891 92.2248V93.9487Z" fill="#2C3E50"/>
<path d="M40.5122 93.9487H38.7883C37.8115 93.9487 37.0645 93.2017 37.0645 92.2248C37.0645 91.248 37.8115 90.501 38.7883 90.501H40.5122V93.9487Z" fill="#2C3E50"/>
<path d="M43.9565 90.501H40.5088V93.9487H43.9565V90.501Z" fill="#2C3E50"/>
<path d="M47.4048 90.501H43.957V93.9487H47.4048V90.501Z" fill="#2C3E50"/>
<path d="M49.9897 90.501H46.542V93.9487H49.9897V90.501Z" fill="#2C3E50"/>
<path d="M53.4389 90.501H49.9912V93.9487H53.4389V90.501Z" fill="#2C3E50"/>
<path d="M56.8882 90.501H53.4404V93.9487H56.8882V90.501Z" fill="#2C3E50"/>
<path d="M59.4722 93.9487H56.0244V90.501H57.7483C58.7251 90.501 59.4722 91.248 59.4722 92.2248V93.9487Z" fill="#2C3E50"/>
<path d="M65.5054 93.9487H63.7815C62.8046 93.9487 62.0576 93.2017 62.0576 92.2248V90.501H65.5054V93.9487Z" fill="#2C3E50"/>
<path d="M68.9536 90.501H65.5059V93.9487H68.9536V90.501Z" fill="#2C3E50"/>
<path d="M72.4038 90.501H68.9561V93.9487H72.4038V90.501Z" fill="#2C3E50"/>
<path d="M73.2639 93.9487H71.54V90.501H73.2639C74.2408 90.501 74.9878 91.248 74.9878 92.2248C74.9878 93.2017 74.2408 93.9487 73.2639 93.9487Z" fill="#2C3E50"/>
<path d="M87.9145 93.9487H86.1907C85.2138 93.9487 84.4668 93.2017 84.4668 92.2248C84.4668 91.248 85.2138 90.501 86.1907 90.501H87.9145V93.9487Z" fill="#2C3E50"/>
<path d="M90.5044 90.501H87.0566V93.9487H90.5044V90.501Z" fill="#2C3E50"/>
<path d="M103.43 90.501H99.9824V93.9487H103.43V90.501Z" fill="#2C3E50"/>
<path d="M31.8891 93.9497H28.4414V97.3974H31.8891V93.9497Z" fill="#2C3E50"/>
<path d="M36.1995 97.3974C37.1515 97.3974 37.9233 96.6256 37.9233 95.6736C37.9233 94.7215 37.1515 93.9497 36.1995 93.9497C35.2474 93.9497 34.4756 94.7215 34.4756 95.6736C34.4756 96.6256 35.2474 97.3974 36.1995 97.3974Z" fill="#2C3E50"/>
<path d="M42.2327 97.3974C41.2558 97.3974 40.5088 96.6504 40.5088 95.6736V93.9497H43.9565V95.6736C43.9565 96.6504 43.2095 97.3974 42.2327 97.3974Z" fill="#2C3E50"/>
<path d="M51.7151 97.3974C50.7382 97.3974 49.9912 96.6504 49.9912 95.6736V93.9497H53.4389V95.6736C53.4389 96.6504 52.6919 97.3974 51.7151 97.3974Z" fill="#2C3E50"/>
<path d="M57.7483 97.3974C56.7714 97.3974 56.0244 96.6504 56.0244 95.6736V93.9497H59.4722V95.6736C59.4722 96.6504 58.7251 97.3974 57.7483 97.3974Z" fill="#2C3E50"/>
<path d="M68.9536 93.9497H65.5059V97.3974H68.9536V93.9497Z" fill="#2C3E50"/>
<path d="M72.4038 93.9497H68.9561V97.3974H72.4038V93.9497Z" fill="#2C3E50"/>
<path d="M76.7131 97.3974C77.6652 97.3974 78.437 96.6256 78.437 95.6736C78.437 94.7215 77.6652 93.9497 76.7131 93.9497C75.7611 93.9497 74.9893 94.7215 74.9893 95.6736C74.9893 96.6256 75.7611 97.3974 76.7131 97.3974Z" fill="#2C3E50"/>
<path d="M84.4692 97.3974H81.0215V95.6736C81.0215 94.6967 81.7685 93.9497 82.7454 93.9497C83.7222 93.9497 84.4692 94.6967 84.4692 95.6736V97.3974Z" fill="#2C3E50"/>
<path d="M90.5044 93.9497H87.0566V97.3974H90.5044V93.9497Z" fill="#2C3E50"/>
<path d="M95.6731 97.3974C96.6252 97.3974 97.397 96.6256 97.397 95.6736C97.397 94.7215 96.6252 93.9497 95.6731 93.9497C94.721 93.9497 93.9492 94.7215 93.9492 95.6736C93.9492 96.6256 94.721 97.3974 95.6731 97.3974Z" fill="#2C3E50"/>
<path d="M103.43 93.9497H99.9824V97.3974H103.43V93.9497Z" fill="#2C3E50"/>
<path d="M104.29 97.3974H102.566V93.9497H104.29C105.267 93.9497 106.014 94.6967 106.014 95.6736C106.014 96.6504 105.267 97.3974 104.29 97.3974Z" fill="#2C3E50"/>
<path d="M112.913 97.3974H109.465V95.6736C109.465 94.6967 110.212 93.9497 111.189 93.9497H112.913V97.3974Z" fill="#2C3E50"/>
<path d="M113.778 97.3974H112.054V93.9497H113.778C114.754 93.9497 115.501 94.6967 115.501 95.6736C115.501 96.6504 114.754 97.3974 113.778 97.3974Z" fill="#2C3E50"/>
<path d="M31.8891 96.5431H28.4414V99.9908H31.8891V96.5431Z" fill="#2C3E50"/>
<path d="M48.2659 99.9908C49.2179 99.9908 49.9897 99.219 49.9897 98.267C49.9897 97.3149 49.2179 96.5431 48.2659 96.5431C47.3138 96.5431 46.542 97.3149 46.542 98.267C46.542 99.219 47.3138 99.9908 48.2659 99.9908Z" fill="#2C3E50"/>
<path d="M56.8882 99.9908H53.4404V98.267C53.4404 97.2901 54.1874 96.5431 55.1643 96.5431C56.1412 96.5431 56.8882 97.2901 56.8882 98.267V99.9908Z" fill="#2C3E50"/>
<path d="M62.9214 99.9908H59.4736V98.267C59.4736 97.2901 60.2206 96.5431 61.1975 96.5431H62.9214V99.9908Z" fill="#2C3E50"/>
<path d="M65.5054 96.5431H62.0576V99.9908H65.5054V96.5431Z" fill="#2C3E50"/>
<path d="M68.9536 96.5431H65.5059V99.9908H68.9536V96.5431Z" fill="#2C3E50"/>
<path d="M72.4038 96.5431H68.9561V99.9908H72.4038V96.5431Z" fill="#2C3E50"/>
<path d="M84.4692 99.9908H82.7454C81.7685 99.9908 81.0215 99.2438 81.0215 98.267V96.5431H84.4692V99.9908Z" fill="#2C3E50"/>
<path d="M87.9145 96.5431H84.4668V99.9908H87.9145V96.5431Z" fill="#2C3E50"/>
<path d="M90.5044 96.5431H87.0566V99.9908H90.5044V96.5431Z" fill="#2C3E50"/>
<path d="M103.43 96.5431H99.9824V99.9908H103.43V96.5431Z" fill="#2C3E50"/>
<path d="M111.189 99.9908C110.212 99.9908 109.465 99.2438 109.465 98.267V96.5431H112.913V98.267C112.913 99.2438 112.166 99.9908 111.189 99.9908Z" fill="#2C3E50"/>
<path d="M28.4409 103.439H24.9932V101.716C24.9932 100.739 25.7402 99.9917 26.717 99.9917H28.4409V103.439Z" fill="#2C3E50"/>
<path d="M31.8891 99.9917H28.4414V103.439H31.8891V99.9917Z" fill="#2C3E50"/>
<path d="M34.479 99.9917H31.0312V103.439H34.479V99.9917Z" fill="#2C3E50"/>
<path d="M37.9233 99.9917H34.4756V103.439H37.9233V99.9917Z" fill="#2C3E50"/>
<path d="M40.5122 99.9917H37.0645V103.439H40.5122V99.9917Z" fill="#2C3E50"/>
<path d="M43.9565 103.439H40.5088V99.9917H42.2327C43.2095 99.9917 43.9565 100.739 43.9565 101.716V103.439Z" fill="#2C3E50"/>
<path d="M56.8882 99.9917H53.4404V103.439H56.8882V99.9917Z" fill="#2C3E50"/>
<path d="M61.1975 103.439C60.2206 103.439 59.4736 102.692 59.4736 101.716V99.9917H62.9214V101.716C62.9214 102.692 62.1744 103.439 61.1975 103.439Z" fill="#2C3E50"/>
<path d="M72.4038 103.439H70.6799C69.7031 103.439 68.9561 102.692 68.9561 101.716V99.9917H72.4038V103.439Z" fill="#2C3E50"/>
<path d="M74.9878 99.9917H71.54V103.439H74.9878V99.9917Z" fill="#2C3E50"/>
<path d="M78.437 99.9917H74.9893V103.439H78.437V99.9917Z" fill="#2C3E50"/>
<path d="M79.2971 103.439H77.5732V99.9917H79.2971C80.274 99.9917 81.021 100.739 81.021 101.716C81.021 102.692 80.274 103.439 79.2971 103.439Z" fill="#2C3E50"/>
<path d="M87.9145 103.439H86.1907C85.2138 103.439 84.4668 102.692 84.4668 101.716V99.9917H87.9145V103.439Z" fill="#2C3E50"/>
<path d="M90.5044 99.9917H87.0566V103.439H90.5044V99.9917Z" fill="#2C3E50"/>
<path d="M93.9526 99.9917H90.5049V103.439H93.9526V99.9917Z" fill="#2C3E50"/>
<path d="M97.397 99.9917H93.9492V103.439H97.397V99.9917Z" fill="#2C3E50"/>
<path d="M99.9858 99.9917H96.5381V103.439H99.9858V99.9917Z" fill="#2C3E50"/>
<path d="M103.43 99.9917H99.9824V103.439H103.43V99.9917Z" fill="#2C3E50"/>
<path d="M109.468 103.439H106.021V101.716C106.021 100.739 106.768 99.9917 107.744 99.9917C108.721 99.9917 109.468 100.739 109.468 101.716V103.439Z" fill="#2C3E50"/>
<path d="M28.4409 102.567H24.9932V106.015H28.4409V102.567Z" fill="#2C3E50"/>
<path d="M34.479 106.015H32.7551C31.7783 106.015 31.0312 105.268 31.0312 104.291V102.567H34.479V106.015Z" fill="#2C3E50"/>
<path d="M36.1995 106.015H34.4756V102.567H37.9233V104.291C37.9233 105.268 37.1763 106.015 36.1995 106.015Z" fill="#2C3E50"/>
<path d="M43.9565 106.015H42.2327C41.2558 106.015 40.5088 105.268 40.5088 104.291V102.567H43.9565V106.015Z" fill="#2C3E50"/>
<path d="M47.4048 102.567H43.957V106.015H47.4048V102.567Z" fill="#2C3E50"/>
<path d="M49.9897 102.567H46.542V106.015H49.9897V102.567Z" fill="#2C3E50"/>
<path d="M53.4389 102.567H49.9912V106.015H53.4389V102.567Z" fill="#2C3E50"/>
<path d="M56.8882 102.567H53.4404V106.015H56.8882V102.567Z" fill="#2C3E50"/>
<path d="M57.7483 106.015H56.0244V102.567H57.7483C58.7251 102.567 59.4722 103.314 59.4722 104.291C59.4722 105.268 58.7251 106.015 57.7483 106.015Z" fill="#2C3E50"/>
<path d="M68.9536 106.015H65.5059V104.291C65.5059 103.314 66.2529 102.567 67.2297 102.567C68.2066 102.567 68.9536 103.314 68.9536 104.291V106.015Z" fill="#2C3E50"/>
<path d="M95.6731 106.015C94.6962 106.015 93.9492 105.268 93.9492 104.291V102.567H97.397V104.291C97.397 105.268 96.6499 106.015 95.6731 106.015Z" fill="#2C3E50"/>
<path d="M101.706 106.015C100.729 106.015 99.9824 105.268 99.9824 104.291V102.567H103.43V104.291C103.43 105.268 102.683 106.015 101.706 106.015Z" fill="#2C3E50"/>
<path d="M109.468 102.567H106.021V106.015H109.468V102.567Z" fill="#2C3E50"/>
<path d="M26.717 109.463C25.7402 109.463 24.9932 108.716 24.9932 107.739V106.016H28.4409V107.739C28.4409 108.716 27.6939 109.463 26.717 109.463Z" fill="#2C3E50"/>
<path d="M40.5122 109.463H37.0645V107.739C37.0645 106.763 37.8115 106.016 38.7883 106.016C39.7652 106.016 40.5122 106.763 40.5122 107.739V109.463Z" fill="#2C3E50"/>
<path d="M48.2659 109.463C47.289 109.463 46.542 108.716 46.542 107.739V106.016H49.9897V107.739C49.9897 108.716 49.2427 109.463 48.2659 109.463Z" fill="#2C3E50"/>
<path d="M55.1643 109.463C54.1874 109.463 53.4404 108.716 53.4404 107.739V106.016H56.8882V107.739C56.8882 108.716 56.1412 109.463 55.1643 109.463Z" fill="#2C3E50"/>
<path d="M65.5054 109.463H62.0576V107.739C62.0576 106.763 62.8046 106.016 63.7815 106.016H65.5054V109.463Z" fill="#2C3E50"/>
<path d="M68.9536 106.016H65.5059V109.463H68.9536V106.016Z" fill="#2C3E50"/>
<path d="M72.4038 106.016H68.9561V109.463H72.4038V106.016Z" fill="#2C3E50"/>
<path d="M74.9878 106.016H71.54V109.463H74.9878V106.016Z" fill="#2C3E50"/>
<path d="M76.7131 109.463H74.9893V106.016H76.7131C77.69 106.016 78.437 106.763 78.437 107.739C78.437 108.716 77.69 109.463 76.7131 109.463Z" fill="#2C3E50"/>
<path d="M93.9526 109.463H90.5049V107.739C90.5049 106.763 91.2519 106.016 92.2288 106.016C93.2056 106.016 93.9526 106.763 93.9526 107.739V109.463Z" fill="#2C3E50"/>
<path d="M98.262 109.463C99.214 109.463 99.9858 108.692 99.9858 107.739C99.9858 106.787 99.214 106.016 98.262 106.016C97.3099 106.016 96.5381 106.787 96.5381 107.739C96.5381 108.692 97.3099 109.463 98.262 109.463Z" fill="#2C3E50"/>
<path d="M107.744 109.463C106.768 109.463 106.021 108.716 106.021 107.739V106.016H109.468V107.739C109.468 108.716 108.721 109.463 107.744 109.463Z" fill="#2C3E50"/>
<path d="M115.501 109.463H112.054V107.739C112.054 106.763 112.801 106.016 113.778 106.016C114.754 106.016 115.501 106.763 115.501 107.739V109.463Z" fill="#2C3E50"/>
<path d="M31.8891 112.912H30.1653C29.1884 112.912 28.4414 112.165 28.4414 111.188C28.4414 110.211 29.1884 109.464 30.1653 109.464H31.8891V112.912Z" fill="#2C3E50"/>
<path d="M34.479 112.912H31.0312V109.464H32.7551C33.732 109.464 34.479 110.211 34.479 111.188V112.912Z" fill="#2C3E50"/>
<path d="M38.7883 112.912C37.8115 112.912 37.0645 112.165 37.0645 111.188V109.464H40.5122V111.188C40.5122 112.165 39.7652 112.912 38.7883 112.912Z" fill="#2C3E50"/>
<path d="M51.7151 112.912C52.6671 112.912 53.4389 112.14 53.4389 111.188C53.4389 110.236 52.6671 109.464 51.7151 109.464C50.763 109.464 49.9912 110.236 49.9912 111.188C49.9912 112.14 50.763 112.912 51.7151 112.912Z" fill="#2C3E50"/>
<path d="M59.4722 112.912H56.0244V111.188C56.0244 110.211 56.7714 109.464 57.7483 109.464H59.4722V112.912Z" fill="#2C3E50"/>
<path d="M62.9214 109.464H59.4736V112.912H62.9214V109.464Z" fill="#2C3E50"/>
<path d="M63.7815 112.912H62.0576V109.464H65.5054V111.188C65.5054 112.165 64.7583 112.912 63.7815 112.912Z" fill="#2C3E50"/>
<path d="M72.4038 112.912H70.6799C69.7031 112.912 68.9561 112.165 68.9561 111.188V109.464H72.4038V112.912Z" fill="#2C3E50"/>
<path d="M74.9878 109.464H71.54V112.912H74.9878V109.464Z" fill="#2C3E50"/>
<path d="M87.9145 112.912H86.1907C85.2138 112.912 84.4668 112.165 84.4668 111.188C84.4668 110.211 85.2138 109.464 86.1907 109.464H87.9145V112.912Z" fill="#2C3E50"/>
<path d="M90.5044 109.464H87.0566V112.912H90.5044V109.464Z" fill="#2C3E50"/>
<path d="M92.2288 112.912H90.5049V109.464H93.9526V111.188C93.9526 112.165 93.2056 112.912 92.2288 112.912Z" fill="#2C3E50"/>
<path d="M101.706 112.912C102.658 112.912 103.43 112.14 103.43 111.188C103.43 110.236 102.658 109.464 101.706 109.464C100.754 109.464 99.9824 110.236 99.9824 111.188C99.9824 112.14 100.754 112.912 101.706 112.912Z" fill="#2C3E50"/>
<path d="M115.501 109.464H112.054V112.912H115.501V109.464Z" fill="#2C3E50"/>
<path d="M34.479 115.498H32.7551C31.7783 115.498 31.0312 114.751 31.0312 113.774V112.05H34.479V115.498Z" fill="#2C3E50"/>
<path d="M36.1995 115.498H34.4756V112.05H36.1995C37.1763 112.05 37.9233 112.797 37.9233 113.774C37.9233 114.751 37.1763 115.498 36.1995 115.498Z" fill="#2C3E50"/>
<path d="M45.6809 115.498C46.633 115.498 47.4048 114.726 47.4048 113.774C47.4048 112.822 46.633 112.05 45.6809 112.05C44.7288 112.05 43.957 112.822 43.957 113.774C43.957 114.726 44.7288 115.498 45.6809 115.498Z" fill="#2C3E50"/>
<path d="M56.8882 115.498H55.1643C54.1874 115.498 53.4404 114.751 53.4404 113.774C53.4404 112.797 54.1874 112.05 55.1643 112.05H56.8882V115.498Z" fill="#2C3E50"/>
<path d="M57.7483 115.498H56.0244V112.05H59.4722V113.774C59.4722 114.751 58.7251 115.498 57.7483 115.498Z" fill="#2C3E50"/>
<path d="M74.9878 115.498H73.2639C72.287 115.498 71.54 114.751 71.54 113.774V112.05H74.9878V115.498Z" fill="#2C3E50"/>
<path d="M78.437 112.05H74.9893V115.498H78.437V112.05Z" fill="#2C3E50"/>
<path d="M81.021 112.05H77.5732V115.498H81.021V112.05Z" fill="#2C3E50"/>
<path d="M82.7454 115.498H81.0215V112.05H82.7454C83.7222 112.05 84.4692 112.797 84.4692 113.774C84.4692 114.751 83.7222 115.498 82.7454 115.498Z" fill="#2C3E50"/>
<path d="M95.6731 115.498C96.6252 115.498 97.397 114.726 97.397 113.774C97.397 112.822 96.6252 112.05 95.6731 112.05C94.721 112.05 93.9492 112.822 93.9492 113.774C93.9492 114.726 94.721 115.498 95.6731 115.498Z" fill="#2C3E50"/>
<path d="M106.014 115.498H104.29C103.313 115.498 102.566 114.751 102.566 113.774C102.566 112.797 103.313 112.05 104.29 112.05H106.014V115.498Z" fill="#2C3E50"/>
<path d="M109.468 112.05H106.021V115.498H109.468V112.05Z" fill="#2C3E50"/>
<path d="M112.913 112.05H109.465V115.498H112.913V112.05Z" fill="#2C3E50"/>
<path d="M113.778 115.498H112.054V112.05H115.501V113.774C115.501 114.751 114.754 115.498 113.778 115.498Z" fill="#2C3E50"/>
<path d="M6.92675 21.5484H14.7765C18.4705 21.5484 21.5488 18.47 21.5488 14.776V6.92626C21.5488 3.07834 18.4705 0 14.6226 0H6.77283C3.07882 0 0.000488281 3.07834 0.000488281 6.77234V14.6221C0.000488281 18.47 3.07882 21.5484 6.92675 21.5484ZM18.4705 7.38801V14.1603C18.4705 16.4691 16.4696 18.47 14.1608 18.47H7.3885C4.92583 18.47 3.07882 16.623 3.07882 14.1603V7.38801C3.07882 5.07926 5.07974 3.07834 7.3885 3.07834H14.1608C16.6235 3.07834 18.4705 4.92534 18.4705 7.38801Z" fill="#2C3E50"/>
<path d="M100.874 21.5484H108.724C112.418 21.5484 115.496 18.47 115.496 14.776V6.92626C115.496 3.07834 112.418 0 108.57 0H100.72C97.0261 0 93.9478 3.07834 93.9478 6.77234V14.6221C93.9478 18.47 97.0261 21.5484 100.874 21.5484ZM112.418 7.38801V14.1603C112.418 16.4691 110.417 18.47 108.108 18.47H101.336C98.8731 18.47 97.0261 16.623 97.0261 14.1603V7.38801C97.0261 5.07926 99.027 3.07834 101.336 3.07834H108.108C110.571 3.07834 112.418 4.92534 112.418 7.38801Z" fill="#2C3E50"/>
<path d="M6.92675 115.496H14.7765C18.4705 115.496 21.5488 112.418 21.5488 108.724V100.874C21.5488 97.0263 18.4705 93.948 14.6226 93.948H6.77283C3.07882 93.948 0.000488281 97.0263 0.000488281 100.72V108.57C0.000488281 112.418 3.07882 115.496 6.92675 115.496ZM18.4705 101.336V108.108C18.4705 110.417 16.4696 112.418 14.1608 112.418H7.3885C4.92583 112.418 3.07882 110.571 3.07882 108.108V101.336C3.07882 99.0273 5.07974 97.0263 7.3885 97.0263H14.1608C16.6235 97.0263 18.4705 98.8733 18.4705 101.336Z" fill="#2C3E50"/>
<path d="M15.5159 8.7181V12.9847C15.5159 14.2488 14.2518 15.513 12.8296 15.513H8.72103C7.14082 15.513 6.03467 14.4069 6.03467 12.8267V8.7181C6.03467 7.29591 7.29884 6.03174 8.72103 6.03174H12.9876C14.4098 6.03174 15.5159 7.13789 15.5159 8.7181Z" fill="#2C3E50"/>
<path d="M109.463 8.7181V12.9847C109.463 14.2488 108.199 15.513 106.777 15.513H102.668C101.088 15.513 99.9819 14.4069 99.9819 12.8267V8.7181C99.9819 7.29591 101.246 6.03174 102.668 6.03174H106.935C108.357 6.03174 109.463 7.13789 109.463 8.7181Z" fill="#2C3E50"/>
<path d="M15.5159 102.682V106.948C15.5159 108.212 14.2518 109.477 12.8296 109.477H8.72103C7.14082 109.477 6.03467 108.37 6.03467 106.79V102.682C6.03467 101.26 7.29884 99.9954 8.72103 99.9954H12.9876C14.4098 99.9954 15.5159 101.102 15.5159 102.682Z" fill="#2C3E50"/>
</svg>
