<svg width="16" height="16" fill="none" xmlns="http://www.w3.org/2000/svg"><mask id="a" style="mask-type:alpha" maskUnits="userSpaceOnUse" x="0" y="2" width="16" height="12"><path d="M.473 7.3C2.54 4.338 5.245 2.75 7.99 2.75c3.214 0 5.955 2.09 7.56 4.57l.002.002a1.254 1.254 0 0 1 0 1.356c-1.605 2.514-4.33 4.572-7.562 4.572-3.266 0-5.939-2.055-7.54-4.56a1.25 1.25 0 0 1 .02-1.388L.473 7.3Zm1.329.719c1.426 2.154 3.642 3.731 6.187 3.731 2.52 0 4.785-1.588 6.214-3.749-1.436-2.14-3.72-3.751-6.214-3.751-2.09 0-4.338 1.189-6.187 3.769Z" fill="#9F9F9F"/><path d="M8 6.75a1.25 1.25 0 1 0 0 2.5 1.25 1.25 0 0 0 0-2.5ZM5.25 8a2.75 2.75 0 1 1 5.5 0 2.75 2.75 0 0 1-5.5 0Z" fill="#9F9F9F"/></mask><g mask="url(#a)"><path fill="#000" d="M0 0h16v16H0z"/></g></svg>