<svg width="179" height="54" fill="none" xmlns="http://www.w3.org/2000/svg"><g clip-path="url(#a)"><path d="M172.329.563H6.671C3.294.563.556 3.333.556 6.75v40.5c0 3.417 2.738 6.188 6.115 6.188h165.658c3.377 0 6.115-2.77 6.115-6.188V6.75c0-3.417-2.738-6.188-6.115-6.188Z" fill="#000"/><path fill-rule="evenodd" clip-rule="evenodd" d="M133.298 39.322h2.075V25.258h-2.075v14.064Zm18.686-8.998-2.378 6.098h-.071l-2.468-6.098h-2.235l3.701 8.522-2.11 4.741h2.165l5.703-13.263h-2.307Zm-11.765 7.4c-.68 0-1.628-.342-1.628-1.193 0-1.086 1.181-1.502 2.2-1.502.912 0 1.34.2 1.895.47a2.555 2.555 0 0 1-.821 1.58 2.5 2.5 0 0 1-1.646.646Zm.25-7.707c-1.502 0-3.057.67-3.701 2.153l1.841.778c.394-.778 1.126-1.032 1.896-1.032 1.073 0 2.163.652 2.181 1.81v.144c-.376-.217-1.179-.542-2.163-.542-1.985 0-4.006 1.104-4.006 3.166 0 1.882 1.627 3.095 3.451 3.095 1.395 0 2.163-.634 2.647-1.376h.071v1.085h2.003v-5.39c0-2.498-1.842-3.89-4.22-3.89Zm-12.821 2.02h-2.951v-4.821h2.951c1.551 0 2.431 1.3 2.431 2.41 0 1.09-.88 2.41-2.431 2.41Zm-.053-6.778h-4.971v14.063h2.073v-5.328h2.898c2.299 0 4.559-1.685 4.559-4.368 0-2.683-2.26-4.367-4.559-4.367Zm-27.107 12.468c-1.433 0-2.633-1.214-2.633-2.881 0-1.685 1.2-2.918 2.633-2.918 1.415 0 2.525 1.232 2.525 2.918 0 1.667-1.11 2.88-2.525 2.88Zm2.381-6.615h-.071c-.466-.561-1.361-1.069-2.489-1.069-2.365 0-4.532 2.102-4.532 4.803 0 2.682 2.167 4.766 4.532 4.766 1.128 0 2.023-.507 2.489-1.087h.071v.688c0 1.831-.966 2.81-2.525 2.81-1.272 0-2.06-.925-2.382-1.704l-1.81.761c.52 1.27 1.9 2.828 4.192 2.828 2.436 0 4.496-1.45 4.496-4.984v-8.592h-1.971v.78Zm3.405 8.21h2.078V25.257h-2.078v14.065Zm5.139-4.64c-.053-1.848 1.416-2.79 2.472-2.79.825 0 1.523.416 1.756 1.014l-4.228 1.777Zm6.449-1.595c-.394-1.068-1.594-3.044-4.048-3.044-2.436 0-4.46 1.939-4.46 4.785 0 2.682 2.006 4.784 4.692 4.784 2.168 0 3.422-1.34 3.942-2.12l-1.613-1.088c-.537.797-1.271 1.323-2.329 1.323-1.056 0-1.809-.49-2.292-1.45l6.322-2.645-.214-.545Zm-50.374-1.576v2.03h4.8c-.143 1.142-.52 1.975-1.092 2.556-.7.706-1.792 1.485-3.708 1.485-2.955 0-5.266-2.41-5.266-5.4 0-2.992 2.311-5.401 5.266-5.401 1.595 0 2.759.634 3.618 1.45l1.416-1.432c-1.201-1.16-2.794-2.049-5.034-2.049-4.048 0-7.45 3.336-7.45 7.432s3.402 7.43 7.45 7.43c2.185 0 3.833-.724 5.123-2.084 1.325-1.341 1.737-3.226 1.737-4.749 0-.471-.035-.906-.108-1.268h-6.752Zm12.318 6.216c-1.433 0-2.67-1.196-2.67-2.9 0-1.722 1.237-2.9 2.67-2.9 1.432 0 2.668 1.178 2.668 2.9 0 1.704-1.236 2.9-2.668 2.9Zm0-7.684c-2.616 0-4.747 2.012-4.747 4.785 0 2.754 2.131 4.784 4.747 4.784 2.615 0 4.746-2.03 4.746-4.784 0-2.773-2.131-4.785-4.746-4.785Zm10.354 7.684c-1.433 0-2.67-1.196-2.67-2.9 0-1.722 1.237-2.9 2.67-2.9 1.433 0 2.669 1.178 2.669 2.9 0 1.704-1.236 2.9-2.669 2.9Zm0-7.684c-2.615 0-4.746 2.012-4.746 4.785 0 2.754 2.131 4.784 4.746 4.784 2.615 0 4.746-2.03 4.746-4.784 0-2.773-2.13-4.785-4.746-4.785Z" fill="#FFFFFE"/><path d="M66.12 16.664V19.3c-.12.167-.261.316-.42.445-.193.161-.457.304-.796.426-.336.118-.77.177-1.3.177a3.09 3.09 0 0 1-1.197-.227 2.7 2.7 0 0 1-.943-.672 3.159 3.159 0 0 1-.615-1.078 4.506 4.506 0 0 1-.216-1.444v-.559c0-.536.063-1.016.186-1.438.127-.422.312-.78.557-1.073a2.34 2.34 0 0 1 .9-.672c.386-.161.802-.24 1.22-.232.545 0 .999.095 1.363.287.368.188.656.447.86.78.209.333.343.713.401 1.137h-.943a2.015 2.015 0 0 0-.253-.711 1.366 1.366 0 0 0-.534-.514c-.23-.132-.528-.198-.894-.198a1.87 1.87 0 0 0-.855.183c-.24.12-.444.3-.596.523a2.487 2.487 0 0 0-.351.826 4.814 4.814 0 0 0-.112 1.092v.57c0 .415.046.786.14 1.112.099.326.236.604.417.835.177.228.392.4.639.52.251.118.528.177.83.177.336 0 .609-.028.816-.084a1.72 1.72 0 0 0 .49-.207 1.45 1.45 0 0 0 .268-.233v-1.612h-1.646v-.77h2.584Zm5.782 2.808v.778h-3.766v-.777h3.767Zm-3.575-6.421v7.197h-.944v-7.197h.944Zm3.077 3.094v.776h-3.268v-.776h3.268Zm.45-3.094v.78h-3.718v-.781h3.718Zm3.643 0v7.197h-.928v-7.197h.928Zm2.286 0v.78h-5.496v-.781h5.497-.001Zm3.753 0v7.197h-.943v-7.197h.943Zm3.897 0v7.197h-.928v-7.197h.928Zm2.286 0v.78h-5.496v-.781h5.497-.001Zm8.22 3.371v.455c0 .54-.067 1.025-.2 1.453-.12.4-.316.771-.579 1.093a2.5 2.5 0 0 1-.903.687 2.805 2.805 0 0 1-1.172.236c-.42 0-.806-.078-1.158-.236a2.605 2.605 0 0 1-.91-.686 3.213 3.213 0 0 1-.59-1.094 4.669 4.669 0 0 1-.21-1.453v-.455c0-.54.068-1.023.205-1.449.124-.4.325-.77.591-1.092.254-.304.556-.534.904-.692a2.78 2.78 0 0 1 1.157-.237c.434 0 .826.079 1.174.236.352.159.653.39.903.693.255.3.448.664.582 1.092.137.426.206.908.206 1.45Zm-.934.455v-.465a4.47 4.47 0 0 0-.132-1.136c-.07-.3-.198-.583-.377-.832a1.627 1.627 0 0 0-.61-.509 1.836 1.836 0 0 0-.811-.173 1.81 1.81 0 0 0-.797.173c-.239.12-.446.294-.606.51a2.5 2.5 0 0 0-.385.83 4.28 4.28 0 0 0-.137 1.136v.466c0 .432.046.814.137 1.147.09.33.222.608.391.835.172.225.376.394.61.51.238.114.504.173.797.173.306 0 .578-.059.816-.173a1.6 1.6 0 0 0 .6-.51c.167-.227.292-.506.378-.835.09-.375.131-.76.126-1.147Zm7.518-3.826v7.197h-.949l-3.58-5.551v5.552h-.944V13.05h.943l3.596 5.566V13.05h.934Z" fill="#fff"/><path d="M27.173 26.018 12.526 41.26c0 .004 0 .007.002.01.45 1.654 1.99 2.874 3.821 2.874a4.01 4.01 0 0 0 2.007-.535l.047-.027 16.488-9.327-7.718-8.237Z" fill="#E43D32"/><path d="m41.99 23.423-.013-.01-7.119-4.046-8.018 6.998 8.047 7.888 7.08-4.005c1.242-.658 2.085-1.94 2.085-3.42 0-1.47-.832-2.746-2.062-3.405Z" fill="#F8BD01"/><path d="M12.524 12.33a3.746 3.746 0 0 0-.133.998v26.935c0 .345.045.68.135.997l15.151-14.853L12.525 12.33Z" fill="#5A7FBF"/><path d="m27.282 26.797 7.581-7.432-16.469-9.361a4.021 4.021 0 0 0-2.045-.555c-1.83 0-3.373 1.221-3.823 2.878v.005l14.756 14.465Z" fill="#34A24A"/><path d="M172.329.563H6.671C3.294.563.556 3.333.556 6.75v40.5c0 3.417 2.738 6.188 6.115 6.188h165.658c3.377 0 6.115-2.77 6.115-6.188V6.75c0-3.417-2.738-6.188-6.115-6.188Z" stroke="#B0ADAB"/></g><defs><clipPath id="a"><path fill="#fff" d="M0 0h179v54H0z"/></clipPath></defs></svg>