<svg width="161" height="48" fill="none" xmlns="http://www.w3.org/2000/svg"><rect x=".5" y=".5" width="160" height="47" rx="5.5" fill="#000"/><path fill-rule="evenodd" clip-rule="evenodd" d="M119.894 34.953h1.866V22.452h-1.866v12.501Zm16.807-7.998-2.139 5.42h-.064l-2.22-5.42h-2.01l3.329 7.575-1.898 4.214h1.947l5.13-11.789h-2.075Zm-10.582 6.578c-.612 0-1.464-.305-1.464-1.061 0-.965 1.062-1.335 1.978-1.335.821 0 1.206.177 1.705.418a2.262 2.262 0 0 1-2.219 1.978Zm.225-6.851c-1.351 0-2.75.595-3.329 1.914l1.656.691c.354-.691 1.013-.917 1.705-.917.965 0 1.946.579 1.962 1.609v.128c-.338-.193-1.061-.482-1.946-.482-1.785 0-3.603.981-3.603 2.814 0 1.673 1.464 2.751 3.104 2.751 1.255 0 1.946-.563 2.381-1.223h.064v.965h1.801V30.14c0-2.22-1.656-3.458-3.795-3.458Zm-11.532 1.795h-2.654v-4.285h2.654c1.395 0 2.187 1.155 2.187 2.142 0 .969-.792 2.143-2.187 2.143Zm-.048-6.025h-4.471v12.501h1.865v-4.736h2.606c2.068 0 4.101-1.498 4.101-3.883s-2.033-3.882-4.101-3.882ZM90.383 33.535c-1.289 0-2.368-1.079-2.368-2.561 0-1.498 1.079-2.594 2.368-2.594 1.273 0 2.271 1.096 2.271 2.594 0 1.482-.998 2.561-2.271 2.561Zm2.142-5.88h-.064c-.419-.499-1.224-.95-2.239-.95-2.127 0-4.076 1.868-4.076 4.269 0 2.384 1.949 4.237 4.076 4.237 1.015 0 1.82-.451 2.239-.967h.064v.612c0 1.628-.869 2.498-2.271 2.498-1.144 0-1.853-.822-2.143-1.515l-1.627.677c.467 1.128 1.708 2.513 3.77 2.513 2.191 0 4.044-1.289 4.044-4.43v-7.637h-1.773v.693Zm3.062 7.298h1.869V22.451h-1.869v12.502Zm4.623-4.124c-.048-1.643 1.273-2.481 2.223-2.481.742 0 1.37.37 1.579.902l-3.802 1.579Zm5.8-1.418c-.354-.95-1.434-2.706-3.641-2.706-2.191 0-4.011 1.723-4.011 4.253 0 2.384 1.804 4.253 4.22 4.253 1.95 0 3.078-1.192 3.545-1.885l-1.45-.967c-.483.709-1.144 1.176-2.095 1.176-.95 0-1.627-.435-2.062-1.288l5.687-2.352-.193-.484ZM60.702 28.01v1.804h4.317c-.129 1.015-.467 1.756-.982 2.272-.629.628-1.612 1.32-3.335 1.32-2.658 0-4.737-2.142-4.737-4.8 0-2.659 2.079-4.801 4.737-4.801 1.434 0 2.481.564 3.254 1.289l1.273-1.273C64.149 22.79 62.716 22 60.702 22 57.061 22 54 24.965 54 28.606s3.061 6.605 6.702 6.605c1.965 0 3.447-.644 4.607-1.853 1.192-1.192 1.563-2.867 1.563-4.221 0-.419-.032-.805-.097-1.127h-6.073Zm11.079 5.525c-1.289 0-2.401-1.063-2.401-2.577 0-1.531 1.112-2.578 2.401-2.578 1.288 0 2.4 1.047 2.4 2.578 0 1.514-1.112 2.577-2.4 2.577Zm0-6.83c-2.353 0-4.27 1.788-4.27 4.253 0 2.448 1.917 4.253 4.27 4.253 2.352 0 4.269-1.805 4.269-4.253 0-2.465-1.917-4.253-4.269-4.253Zm9.313 6.83c-1.289 0-2.401-1.063-2.401-2.577 0-1.531 1.112-2.578 2.401-2.578 1.289 0 2.4 1.047 2.4 2.578 0 1.514-1.111 2.577-2.4 2.577Zm0-6.83c-2.352 0-4.269 1.788-4.269 4.253 0 2.448 1.917 4.253 4.269 4.253 2.352 0 4.269-1.805 4.269-4.253 0-2.465-1.917-4.253-4.269-4.253Z" fill="#FFFFFE"/><path d="M59.471 14.813v2.342a2.08 2.08 0 0 1-.378.396c-.173.143-.411.27-.716.378-.302.105-.692.158-1.169.158-.39 0-.748-.067-1.077-.202a2.428 2.428 0 0 1-.848-.598 2.8 2.8 0 0 1-.553-.958 3.963 3.963 0 0 1-.194-1.283v-.497c0-.477.056-.903.167-1.278.114-.376.281-.693.501-.954a2.1 2.1 0 0 1 .809-.598 2.76 2.76 0 0 1 1.098-.206c.49 0 .898.085 1.226.255.331.167.59.398.774.694.187.296.308.633.36 1.01h-.848a1.777 1.777 0 0 0-.228-.632 1.222 1.222 0 0 0-.48-.457c-.207-.117-.475-.176-.804-.176a1.7 1.7 0 0 0-.769.163 1.415 1.415 0 0 0-.536.465c-.14.203-.246.447-.316.734a4.229 4.229 0 0 0-.101.971v.506c0 .369.042.699.127.989.088.29.212.537.374.742.16.203.353.356.575.462.226.105.475.158.747.158.302 0 .547-.025.734-.075a1.57 1.57 0 0 0 .44-.184 1.3 1.3 0 0 0 .241-.207v-1.433h-1.48v-.685h2.324Zm5.201 2.496V18h-3.388v-.69h3.388Zm-3.216-5.708v6.398h-.849v-6.398h.849Zm2.768 2.75v.69h-2.94v-.69h2.94Zm.404-2.75v.694h-3.344V11.6h3.344Zm3.277 0v6.398h-.835v-6.398h.835Zm2.056 0v.694h-4.943V11.6h4.944Zm3.376 0v6.398h-.848v-6.398h.848Zm3.505 0v6.398h-.835v-6.398h.835Zm2.056 0v.694h-4.943V11.6h4.944Zm7.393 2.997v.404c0 .48-.06.911-.18 1.292a2.78 2.78 0 0 1-.52.971c-.225.267-.496.47-.812.611-.313.14-.665.21-1.055.21-.378 0-.725-.07-1.041-.21a2.34 2.34 0 0 1-.818-.61 2.846 2.846 0 0 1-.531-.972 4.106 4.106 0 0 1-.19-1.292v-.404c0-.48.062-.91.185-1.288a2.84 2.84 0 0 1 .532-.971c.228-.27.5-.475.813-.615a2.526 2.526 0 0 1 1.041-.211c.39 0 .742.07 1.055.21.317.141.588.346.813.616.229.266.403.59.523.971.123.378.185.807.185 1.288Zm-.84.404v-.413c0-.381-.04-.718-.118-1.01a2.098 2.098 0 0 0-.339-.74 1.46 1.46 0 0 0-.549-.452 1.668 1.668 0 0 0-.73-.154c-.263 0-.502.052-.716.154a1.516 1.516 0 0 0-.545.453c-.15.2-.265.445-.347.738a3.76 3.76 0 0 0-.123 1.01v.414c0 .384.041.724.123 1.02.082.293.2.54.352.742.155.2.338.35.549.453.214.102.453.154.716.154.276 0 .52-.052.734-.154.214-.103.394-.254.54-.453.15-.202.263-.45.34-.742a4.11 4.11 0 0 0 .113-1.02Zm6.762-3.401v6.398h-.853l-3.221-4.935v4.935h-.848v-6.398h.848l3.234 4.948V11.6h.84Z" fill="#fff"/><path d="M24.44 23.126 11.266 36.675c0 .003 0 .006.002.008.404 1.471 1.79 2.555 3.437 2.555a3.64 3.64 0 0 0 1.805-.475l.042-.024 14.83-8.291-6.942-7.322Z" fill="#E43D32"/><path d="m37.768 20.819-.012-.008-6.403-3.597-7.212 6.22 7.238 7.012 6.368-3.56c1.117-.585 1.875-1.725 1.875-3.04 0-1.307-.748-2.441-1.854-3.027Z" fill="#F8BD01"/><path d="M11.265 10.96c-.079.283-.12.58-.12.887v23.942c0 .307.04.605.121.886l13.628-13.202L11.265 10.96Z" fill="#5A7FBF"/><path d="m24.538 23.818 6.819-6.606-14.813-8.321a3.649 3.649 0 0 0-1.839-.493c-1.646 0-3.034 1.085-3.439 2.558v.004l13.272 12.858Z" fill="#34A24A"/><rect x=".5" y=".5" width="160" height="47" rx="5.5" stroke="#B0ADAB"/></svg>