<svg width="115" height="29" viewBox="0 0 115 29" fill="none" xmlns="http://www.w3.org/2000/svg">
<path d="M12.7077 14.0977L1.11548 26.2763C1.11548 26.279 1.11548 26.2817 1.11724 26.2835C1.47273 27.6057 2.69232 28.58 4.14156 28.58C4.69832 28.5812 5.24574 28.434 5.72984 28.1531L5.7668 28.1315L18.8162 20.6791L12.7077 14.0977Z" fill="#E43D32"/>
<path d="M24.4189 11.7539L24.4083 11.7466L18.7511 8.46582L12.3792 14.139L18.7741 20.5345L24.4004 17.2875C25.3873 16.7539 26.057 15.7141 26.057 14.5147C26.057 13.3227 25.3961 12.2884 24.4189 11.7539Z" fill="#F8BD01"/>
<path d="M0.418078 2.8335C0.348733 3.09028 0.312744 3.35976 0.312744 3.63832V25.3623C0.312744 25.6409 0.347855 25.9113 0.418956 26.1662L12.3814 14.1873L0.418078 2.8335Z" fill="#5A7FBF"/>
<path d="M12.8085 14.0977L18.8162 8.2381L5.76554 0.857228C5.27342 0.569677 4.71432 0.418773 4.14533 0.419928C2.69516 0.419928 1.47229 1.38234 1.11548 2.68892V2.69247L12.8085 14.0977Z" fill="#34A24A"/>
<path fill-rule="evenodd" clip-rule="evenodd" d="M97.8422 24.9209H99.5069V13.6987H97.8422V24.9209ZM112.836 17.7411L110.928 22.6066H110.871L108.89 17.7411H107.097L110.067 24.5412L108.374 28.3241H110.111L114.687 17.7411H112.836ZM103.396 23.6462C102.85 23.6462 102.09 23.3724 102.09 22.6937C102.09 21.8274 103.037 21.4953 103.854 21.4953C104.587 21.4953 104.93 21.6542 105.375 21.8705C105.314 22.3572 105.08 22.8051 104.716 23.1315C104.352 23.4579 103.883 23.6407 103.396 23.6462ZM103.596 17.496C102.391 17.496 101.143 18.0301 100.626 19.2142L102.104 19.8345C102.42 19.2142 103.008 19.0113 103.625 19.0113C104.486 19.0113 105.361 19.5311 105.375 20.4557V20.5706C105.074 20.3974 104.429 20.1379 103.639 20.1379C102.047 20.1379 100.425 21.0186 100.425 22.6641C100.425 24.1659 101.731 25.1337 103.194 25.1337C104.314 25.1337 104.93 24.6283 105.318 24.0358H105.375V24.9021H106.982V20.6003C106.982 18.6074 105.505 17.496 103.596 17.496ZM93.3084 19.1074H90.9407V15.2607H93.3084C94.5529 15.2607 95.2595 16.2976 95.2595 17.1836C95.2595 18.0535 94.5529 19.1074 93.3084 19.1074ZM93.2656 13.6987H89.2769V24.9209H90.9407V20.6694H93.2656C95.1105 20.6694 96.9242 19.3246 96.9242 17.1836C96.9242 15.0426 95.1105 13.6987 93.2656 13.6987ZM71.5149 23.648C70.3649 23.648 69.4023 22.6793 69.4023 21.349C69.4023 20.0042 70.3649 19.0203 71.5149 19.0203C72.6505 19.0203 73.5409 20.0042 73.5409 21.349C73.5409 22.6793 72.6505 23.648 71.5149 23.648ZM73.4258 18.3695H73.3687C72.9949 17.9215 72.2767 17.5167 71.3712 17.5167C69.4737 17.5167 67.7349 19.1936 67.7349 21.349C67.7349 23.4891 69.4737 25.1525 71.3712 25.1525C72.2767 25.1525 72.9949 24.7477 73.3687 24.2844H73.4258V24.8338C73.4258 26.2953 72.6505 27.0763 71.3998 27.0763C70.3792 27.0763 69.7467 26.3384 69.488 25.7163L68.0365 26.324C68.4531 27.3366 69.5602 28.5799 71.3998 28.5799C73.3544 28.5799 75.0075 27.4228 75.0075 24.6031V17.7474H73.4258V18.3695ZM76.1574 24.9209H77.8248V13.6978H76.1574V24.9209ZM80.2817 21.2188C80.2389 19.7439 81.4174 18.9916 82.2649 18.9916C82.9268 18.9916 83.4871 19.3237 83.6735 19.8013L80.2817 21.2188ZM85.456 19.9458C85.1402 19.093 84.1767 17.5167 82.2078 17.5167C80.2532 17.5167 78.6295 19.0634 78.6295 21.3346C78.6295 23.4747 80.2389 25.1525 82.3942 25.1525C84.1339 25.1525 85.1402 24.0825 85.5568 23.4603L84.2632 22.5923C83.8323 23.2287 83.2426 23.648 82.3942 23.648C81.5467 23.648 80.9428 23.2575 80.5547 22.4917L85.6282 20.3803L85.456 19.9458ZM45.0359 18.6882V20.3076H48.8871C48.7721 21.2188 48.4705 21.884 48.0111 22.3472C47.4499 22.911 46.573 23.5322 45.0359 23.5322C42.6646 23.5322 40.8099 21.6093 40.8099 19.2232C40.8099 16.8362 42.6646 14.9133 45.0359 14.9133C46.3152 14.9133 47.2492 15.4196 47.9388 16.0705L49.0745 14.9277C48.111 14.0022 46.8326 13.293 45.0359 13.293C41.7877 13.293 39.0569 15.9547 39.0569 19.2232C39.0569 22.4917 41.7877 25.1525 45.0359 25.1525C46.7889 25.1525 48.111 24.5744 49.1459 23.4891C50.2093 22.419 50.5402 20.9154 50.5402 19.6999C50.5402 19.3237 50.5117 18.9772 50.4537 18.6882H45.0359ZM54.9197 23.648C53.7697 23.648 52.7777 22.6937 52.7777 21.3346C52.7777 19.9602 53.7697 19.0203 54.9197 19.0203C56.0687 19.0203 57.0607 19.9602 57.0607 21.3346C57.0607 22.6937 56.0687 23.648 54.9197 23.648ZM54.9197 17.5167C52.8205 17.5167 51.1103 19.1218 51.1103 21.3346C51.1103 23.5322 52.8205 25.1525 54.9197 25.1525C57.0179 25.1525 58.7281 23.5322 58.7281 21.3346C58.7281 19.1218 57.0179 17.5167 54.9197 17.5167ZM63.228 23.648C62.078 23.648 61.086 22.6937 61.086 21.3346C61.086 19.9602 62.078 19.0203 63.228 19.0203C64.3779 19.0203 65.369 19.9602 65.369 21.3346C65.369 22.6937 64.3779 23.648 63.228 23.648ZM63.228 17.5167C61.1297 17.5167 59.4195 19.1218 59.4195 21.3346C59.4195 23.5322 61.1297 25.1525 63.228 25.1525C65.3262 25.1525 67.0364 23.5322 67.0364 21.3346C67.0364 19.1218 65.3262 17.5167 63.228 17.5167Z" fill="#FFFFFE"/>
<path d="M44.2881 6.46554V8.47182C44.1912 8.59868 44.0772 8.71274 43.949 8.81106C43.7939 8.93356 43.5804 9.04236 43.3069 9.13488C43.036 9.22482 42.6862 9.27023 42.2584 9.27023C41.9086 9.27023 41.5875 9.21283 41.2925 9.09718C41.0033 8.98076 40.7438 8.80602 40.5319 8.5849C40.3111 8.34557 40.1425 8.06657 40.0359 7.76423C39.9151 7.40948 39.8563 7.03815 39.8619 6.66514V6.23938C39.8619 5.83076 39.9122 5.46582 40.0117 5.14458C40.114 4.82248 40.2637 4.55092 40.4611 4.32733C40.6559 4.10294 40.9049 3.92714 41.1866 3.81505C41.4989 3.69273 41.834 3.63267 42.1714 3.63858C42.6109 3.63858 42.9768 3.7114 43.271 3.85703C43.5679 4.00009 43.8002 4.19798 43.9652 4.45155C44.1329 4.70512 44.2414 4.99381 44.2881 5.31677H43.5275C43.496 5.12552 43.4266 4.94177 43.323 4.77536C43.22 4.60948 43.071 4.474 42.8925 4.38387C42.7069 4.28364 42.4665 4.2331 42.1714 4.2331C41.9333 4.22754 41.697 4.27536 41.4817 4.37273C41.2886 4.46436 41.1232 4.60145 41.001 4.77108C40.8754 4.94498 40.7804 5.154 40.7176 5.39986C40.6539 5.67286 40.6235 5.95199 40.627 6.23167V6.66514C40.627 6.98125 40.6647 7.26394 40.7409 7.51237C40.8198 7.7608 40.931 7.9724 41.0763 8.14801C41.2198 8.32191 41.3929 8.45298 41.592 8.54378C41.7947 8.63373 42.0181 8.67913 42.262 8.67913C42.5329 8.67913 42.7526 8.65772 42.9203 8.61489C43.0595 8.58185 43.1926 8.52869 43.3149 8.45726C43.3943 8.40682 43.4669 8.34726 43.5311 8.27993V7.05235H42.2037V6.46554H44.2881ZM48.9528 8.60375V9.1957H45.9141V8.60461L48.9528 8.60375ZM46.0684 3.71397V9.19484H45.3069V3.71397H46.0684ZM48.551 6.06977V6.66086H45.9141V6.06977H48.551ZM48.9133 3.71397V4.30848H45.9141V3.71311L48.9133 3.71397ZM51.8524 3.71397V9.19484H51.1035V3.71397H51.8524ZM53.6964 3.71397V4.30848H49.2631V3.71311H53.6973L53.6964 3.71397ZM56.7243 3.71397V9.19484H55.9637V3.71397H56.7243ZM59.8678 3.71397V9.19484H59.1189V3.71397H59.8678ZM61.7118 3.71397V4.30848H57.2785V3.71311H61.7127L61.7118 3.71397ZM68.3425 6.28136V6.62745C68.3425 7.03864 68.2887 7.40786 68.181 7.73425C68.0852 8.03845 67.9267 8.32127 67.7147 8.56606C67.5129 8.79478 67.2698 8.96868 66.9864 9.08947C66.7057 9.2094 66.39 9.26937 66.0402 9.26937C65.7012 9.26937 65.3899 9.2094 65.1065 9.08947C64.8247 8.96896 64.5742 8.79053 64.3729 8.56691C64.1586 8.32183 63.9968 8.03891 63.8966 7.73425C63.7784 7.37636 63.7208 7.0027 63.7262 6.62745V6.28136C63.7262 5.87017 63.7818 5.5018 63.8922 5.17799C63.9925 4.87351 64.1546 4.59086 64.3693 4.34618C64.5738 4.11488 64.8177 3.93927 65.0985 3.81934C65.3927 3.69656 65.711 3.63495 66.0321 3.63858C66.3819 3.63858 66.6976 3.69855 66.9783 3.81848C67.2626 3.93927 67.5057 4.11488 67.7075 4.34618C67.9129 4.57405 68.0689 4.8516 68.1766 5.17799C68.2869 5.5018 68.3425 5.86931 68.3425 6.28136ZM67.5891 6.62745V6.27365C67.5891 5.94726 67.5532 5.65857 67.4833 5.40843C67.4262 5.18019 67.3229 4.96483 67.1792 4.7745C67.051 4.60865 66.8819 4.47563 66.6868 4.3873C66.4818 4.29667 66.258 4.25157 66.0321 4.25537C65.7962 4.25537 65.5819 4.29992 65.3899 4.3873C65.1972 4.47795 65.0297 4.61094 64.9011 4.77536C64.7666 4.94669 64.6635 5.15657 64.5899 5.40757C64.5123 5.68987 64.4752 5.98094 64.4796 6.27279V6.62745C64.4796 6.9564 64.5164 7.24766 64.5899 7.50123C64.6635 7.75223 64.7693 7.96383 64.9056 8.13687C65.0446 8.3082 65.2088 8.4367 65.398 8.52494C65.59 8.61231 65.8043 8.65686 66.0402 8.65686C66.2877 8.65686 66.5066 8.61231 66.6985 8.52494C66.8904 8.4367 67.0519 8.30735 67.1828 8.13687C67.3173 7.96383 67.4187 7.75138 67.4878 7.50123C67.5596 7.21516 67.5937 6.92161 67.5891 6.62745ZM73.6538 3.71397V9.19484H72.8888L69.9999 4.96725V9.19484H69.2394V3.71397H69.9999L72.9004 7.95269V3.71311L73.6538 3.71397Z" fill="white"/>
</svg>
