<svg width="105" height="25" viewBox="0 0 105 25" fill="none" xmlns="http://www.w3.org/2000/svg">
<path fill-rule="evenodd" clip-rule="evenodd" d="M16.3139 13.2425C16.3241 12.3497 16.5549 11.4739 16.9851 10.6962C17.4153 9.91844 18.0309 9.26388 18.775 8.79303C18.3052 8.1027 17.6835 7.53401 16.9596 7.13244C16.2357 6.73087 15.4297 6.50755 14.606 6.48036C12.8526 6.29284 11.1517 7.55812 10.2583 7.55812C9.34742 7.55812 7.97059 6.5 6.48867 6.53125C5.52839 6.56423 4.59297 6.85091 3.77403 7.36322C2.95509 7.87553 2.2807 8.59591 1.81691 9.4538C-0.20366 13.0416 1.30367 18.3152 3.23841 21.2154C4.20709 22.6352 5.33868 24.2219 6.81886 24.1647C8.26751 24.1031 8.80878 23.2182 10.5578 23.2182C12.2903 23.2182 12.7982 24.1647 14.3082 24.129C15.8628 24.1031 16.8429 22.703 17.7765 21.269C18.4725 20.2565 19.0078 19.1385 19.3627 17.9562C18.4575 17.5611 17.686 16.9037 17.144 16.0656C16.602 15.2274 16.3133 14.2455 16.3139 13.2416V13.2425ZM13.4621 4.57396C14.3108 3.52793 14.7284 2.18705 14.627 0.833496C13.33 0.97371 12.1329 1.60879 11.276 2.61131C10.4268 3.60403 9.99737 4.89895 10.0814 6.21337C10.73 6.21975 11.3715 6.07543 11.9573 5.79138C12.5431 5.50733 13.0577 5.09099 13.4621 4.57396Z" fill="white"/>
<path d="M38.748 5.94509H40.0131C40.0985 5.94509 40.2053 5.93972 40.3334 5.92897C40.4615 5.91284 40.5977 5.88059 40.7418 5.83222C40.8859 5.77847 41.0274 5.70322 41.1662 5.60647C41.3103 5.50972 41.4384 5.37803 41.5505 5.21141C41.6734 5.02036 41.7653 4.81079 41.8227 4.5906C41.8975 4.33798 41.9348 4.03429 41.9348 3.67954C41.9388 3.36997 41.9039 3.06114 41.8307 2.76042C41.7764 2.50671 41.664 2.26928 41.5025 2.06705C41.3502 1.87148 41.1482 1.72103 40.9179 1.63168C40.6777 1.52955 40.3815 1.47849 40.0292 1.47849H38.748V5.94509ZM37.9873 0.833496H39.9491C40.8299 0.833496 41.5078 1.05924 41.9829 1.51074C42.458 1.96224 42.6955 2.65024 42.6955 3.57473C42.6955 4.05848 42.6421 4.48848 42.5354 4.86472C42.4286 5.2356 42.2631 5.55003 42.0389 5.80803C41.8039 6.06811 41.51 6.26724 41.1822 6.38853C40.8352 6.5229 40.4242 6.59009 39.9491 6.59009H37.9873V0.833496ZM44.1697 4.50998C44.1697 4.7626 44.2017 4.98835 44.2658 5.18722C44.3352 5.38072 44.4286 5.54466 44.546 5.67903C44.6635 5.80803 44.7996 5.90747 44.9544 5.97734C45.1923 6.08106 45.4563 6.10807 45.71 6.05466C45.9638 6.00124 46.1949 5.87003 46.3716 5.67903C46.4891 5.54466 46.5798 5.38072 46.6439 5.18722C46.7133 4.98835 46.748 4.7626 46.748 4.50998C46.748 4.25735 46.7124 4.03429 46.6439 3.84079C46.5882 3.65712 46.4955 3.48697 46.3716 3.34092C46.2573 3.20882 46.115 3.10414 45.9553 3.03455C45.7974 2.96543 45.627 2.92976 45.4548 2.92976C45.2827 2.92976 45.1123 2.96543 44.9544 3.03455C44.7975 3.1056 44.6579 3.21014 44.5451 3.34092C44.4286 3.47529 44.3352 3.64192 44.2658 3.84079C44.1983 4.05722 44.1659 4.28317 44.1697 4.50998ZM43.4491 4.50998C43.4491 4.2036 43.4918 3.91873 43.5772 3.65536C43.6626 3.38661 43.7907 3.15548 43.9615 2.96198C44.1351 2.76098 44.3509 2.60127 44.5932 2.49436C44.8667 2.37712 45.1617 2.31942 45.4588 2.32505C45.7898 2.32505 46.0781 2.38149 46.3236 2.49436C46.5745 2.60724 46.7853 2.76311 46.9553 2.96198C47.127 3.15548 47.2551 3.38661 47.3405 3.65536C47.4259 3.91873 47.4686 4.2036 47.4686 4.50998C47.4686 4.81635 47.4259 5.10122 47.3405 5.3646C47.2551 5.62797 47.127 5.85909 46.9562 6.05797C46.7805 6.25504 46.5647 6.41177 46.3236 6.51753C46.0781 6.62503 45.7898 6.67878 45.4588 6.67878C45.1332 6.67878 44.845 6.62503 44.5941 6.51753C44.3529 6.41177 44.1372 6.25504 43.9615 6.05797C43.7885 5.85515 43.6578 5.61935 43.5772 5.3646C43.4898 5.08835 43.4466 4.79988 43.4491 4.50998ZM52.5309 6.59009H51.8102L50.9695 3.27642H50.9535L50.1207 6.59009H49.3841L48.0549 2.4218H48.8076L49.7444 5.83222H49.7604L50.5932 2.4218H51.3378L52.2026 5.83222H52.2186L53.1474 2.4218H53.852L52.5309 6.59009ZM54.659 2.4218H55.2995V3.08292H55.3156C55.5985 2.57767 56.0469 2.32505 56.6607 2.32505C56.933 2.32505 57.1599 2.36267 57.3413 2.43792C57.5228 2.51317 57.6705 2.61799 57.7817 2.75236C57.8938 2.88673 57.9712 3.04798 58.0139 3.23611C58.062 3.41886 58.086 3.62311 58.086 3.84885V6.59009H57.4054V3.76823C57.4054 3.51023 57.3307 3.30598 57.1812 3.15548C57.0317 3.00498 56.8262 2.92973 56.5647 2.92973C56.3565 2.92973 56.175 2.96198 56.0202 3.02648C55.8755 3.08752 55.7467 3.18132 55.6438 3.30061C55.5401 3.42368 55.4615 3.56615 55.4125 3.71985C55.3626 3.88717 55.338 4.06114 55.3396 4.23585V6.59009H54.659V2.4218ZM59.3084 0.833496H59.989V6.59009H59.3084V0.833496ZM61.6999 4.50998C61.6999 4.7626 61.7319 4.98835 61.7959 5.18722C61.8653 5.38072 61.9588 5.54466 62.0762 5.67903C62.1936 5.80803 62.3298 5.90747 62.4854 5.97734C62.7232 6.08086 62.987 6.10776 63.2406 6.05435C63.4942 6.00094 63.7252 5.86984 63.9018 5.67903C64.0193 5.54466 64.11 5.38072 64.1741 5.18722C64.2435 4.98835 64.2781 4.7626 64.2781 4.50998C64.2781 4.25735 64.2435 4.03429 64.1741 3.84079C64.1183 3.65712 64.0257 3.48697 63.9018 3.34092C63.7874 3.20882 63.6452 3.10414 63.4854 3.03455C63.3275 2.96543 63.1572 2.92976 62.985 2.92976C62.8128 2.92976 62.6425 2.96543 62.4846 3.03455C62.328 3.10572 62.1887 3.21025 62.0762 3.34092C61.9588 3.47529 61.8653 3.64192 61.7959 3.84079C61.7285 4.05722 61.6961 4.28317 61.6999 4.50998ZM60.9792 4.50998C60.9792 4.2036 61.0219 3.91873 61.1073 3.65536C61.1928 3.38661 61.3209 3.15548 61.4917 2.96198C61.6656 2.76087 61.8816 2.60115 62.1242 2.49436C62.3751 2.38149 62.6634 2.32505 62.989 2.32505C63.32 2.32505 63.6082 2.38149 63.8538 2.49436C64.0966 2.60089 64.3127 2.76065 64.4863 2.96198C64.6571 3.15548 64.7853 3.38661 64.8707 3.65536C64.9561 3.91873 64.9988 4.2036 64.9988 4.50998C64.9988 4.81635 64.9561 5.10122 64.8707 5.3646C64.7853 5.62797 64.6571 5.85909 64.4863 6.05797C64.3109 6.25494 64.0955 6.41166 63.8547 6.51753C63.6082 6.62503 63.3209 6.67878 62.989 6.67878C62.6634 6.67878 62.3751 6.62503 62.1242 6.51753C61.8834 6.41166 61.668 6.25494 61.4926 6.05797C61.3192 5.85523 61.1882 5.61942 61.1073 5.3646C61.02 5.08835 60.9767 4.79988 60.9792 4.50998ZM69.6287 6.57397C69.5112 6.64384 69.3484 6.67878 69.1402 6.67878C68.9856 6.68634 68.8339 6.63447 68.7158 6.53365C68.6144 6.43153 68.5646 6.26759 68.5646 6.04184C68.3778 6.26759 68.158 6.43153 67.9071 6.53365C67.6517 6.63224 67.38 6.68147 67.1064 6.67878C66.9196 6.67878 66.7417 6.65728 66.57 6.61428C66.4142 6.57586 66.2674 6.50741 66.1376 6.41272C66.0129 6.31913 65.9115 6.1977 65.8413 6.05797C65.7679 5.88769 65.7324 5.70333 65.7372 5.51778C65.7372 5.28128 65.7772 5.08779 65.8573 4.93729C65.9374 4.78679 66.0415 4.66585 66.1696 4.57448C66.303 4.47773 66.4525 4.40516 66.618 4.35679C66.7888 4.30841 66.9623 4.2681 67.1385 4.23585C67.3253 4.19823 67.5014 4.17135 67.6669 4.15523C67.8178 4.13734 67.9676 4.11042 68.1153 4.0746C68.2263 4.04574 68.33 3.99353 68.4196 3.92142C68.4943 3.85154 68.5317 3.7521 68.5317 3.62311C68.5377 3.49615 68.5071 3.37016 68.4436 3.2603C68.3927 3.17126 68.3177 3.09857 68.2274 3.05067C68.1355 3.00014 68.035 2.96733 67.9312 2.95392C67.8251 2.93785 67.7181 2.92977 67.6109 2.92973C67.3226 2.92973 67.0824 2.98617 66.8902 3.09905C66.6981 3.20655 66.594 3.41348 66.5788 3.71985H65.8974C65.908 3.46186 65.9614 3.24417 66.0575 3.0668C66.1536 2.88942 66.2817 2.74699 66.4418 2.63949C66.602 2.52661 66.7835 2.44599 66.9863 2.39761C67.1945 2.34924 67.416 2.32505 67.6509 2.32505C67.8377 2.32505 68.0219 2.33849 68.2034 2.36536C68.3902 2.39224 68.5593 2.44867 68.7078 2.53467C68.8573 2.6153 68.9774 2.73086 69.0682 2.88136C69.1589 3.03186 69.2043 3.22805 69.2043 3.46992V5.61453C69.2043 5.77578 69.2132 5.89403 69.2283 5.96928C69.2497 6.04453 69.3137 6.08216 69.4205 6.08216C69.4915 6.07985 69.5618 6.06625 69.6287 6.04184V6.57397ZM68.5237 4.43741C68.4228 4.50873 68.3083 4.55815 68.1874 4.58254C68.0486 4.60941 67.9027 4.6336 67.747 4.6551C67.5942 4.67169 67.442 4.6932 67.2906 4.7196C67.1473 4.73793 67.0072 4.77591 66.8742 4.83247C66.755 4.88353 66.6503 4.96393 66.57 5.06629C66.4952 5.16303 66.4579 5.29741 66.4579 5.46941C66.4551 5.57 66.4771 5.66972 66.5219 5.75966C66.57 5.83491 66.6287 5.89672 66.6981 5.94509C66.7728 5.99347 66.8582 6.0284 66.9543 6.0499C67.0504 6.0714 67.1518 6.08216 67.2586 6.08216C67.4828 6.08216 67.6749 6.05259 67.8351 5.99347C67.9952 5.92897 68.126 5.85103 68.2274 5.75966C68.3288 5.66291 68.4036 5.56078 68.4516 5.45328C68.4965 5.35447 68.521 5.24749 68.5237 5.13885V4.43741ZM70.9187 4.54223C70.9187 4.73573 70.9427 4.92654 70.9907 5.11466C71.0441 5.29741 71.1215 5.46135 71.2229 5.60647C71.3297 5.75159 71.4632 5.86716 71.6233 5.95316C71.7888 6.03915 71.981 6.08216 72.1998 6.08216C72.4294 6.08216 72.6242 6.03647 72.7843 5.94509C72.9445 5.85372 73.0753 5.73547 73.1767 5.59035C73.2781 5.43985 73.3502 5.27053 73.3929 5.08241C73.4891 4.70148 73.4891 4.30235 73.3929 3.92142C73.3499 3.73837 73.2713 3.56573 73.1616 3.41348C73.0582 3.26672 72.9208 3.14769 72.7612 3.0668C72.5755 2.97052 72.3685 2.92336 72.1598 2.92973C71.9302 2.92973 71.7354 2.97542 71.5753 3.0668C71.4151 3.15817 71.287 3.27911 71.1909 3.42961C71.0948 3.58011 71.0254 3.75211 70.9827 3.9456C70.9398 4.14152 70.9183 4.34159 70.9187 4.54223ZM74.1215 6.59009H73.4409V6.02572H73.4249C73.3169 6.25294 73.1284 6.43125 72.8964 6.52559C72.6562 6.62771 72.392 6.67878 72.1046 6.67878C71.7843 6.67878 71.5032 6.61965 71.263 6.5014C71.0337 6.38769 70.8316 6.22542 70.6705 6.02572C70.5114 5.81855 70.3919 5.58344 70.3182 5.33235C70.2368 5.06044 70.1964 4.77781 70.198 4.49385C70.198 4.19823 70.2354 3.91873 70.3101 3.65536C70.3902 3.39198 70.5077 3.16355 70.6625 2.97005C70.8226 2.77117 71.0201 2.6153 71.255 2.50242C71.4952 2.38418 71.7728 2.32505 72.0877 2.32505C72.1945 2.32505 72.3101 2.3358 72.432 2.3573C72.5548 2.3788 72.6776 2.41642 72.8003 2.47017C72.9231 2.51855 73.0379 2.58574 73.1447 2.67174C73.2568 2.75236 73.3502 2.85449 73.4249 2.97811H73.4409V0.833496H74.1215V6.59009ZM78.214 4.50998C78.214 4.7626 78.2461 4.98835 78.3101 5.18722C78.3795 5.38072 78.4729 5.54466 78.5904 5.67903C78.7078 5.80803 78.8439 5.90747 78.9996 5.97734C79.2374 6.08086 79.5012 6.10776 79.7548 6.05435C80.0083 6.00094 80.2393 5.86984 80.416 5.67903C80.5334 5.54466 80.6242 5.38072 80.6882 5.18722C80.7576 4.98835 80.7923 4.7626 80.7923 4.50998C80.7923 4.25735 80.7576 4.03429 80.6882 3.84079C80.6325 3.65712 80.5398 3.48697 80.416 3.34092C80.3016 3.20882 80.1593 3.10414 79.9996 3.03455C79.8417 2.96543 79.6713 2.92976 79.4992 2.92976C79.327 2.92976 79.1566 2.96543 78.9987 3.03455C78.8422 3.10572 78.7029 3.21025 78.5904 3.34092C78.4729 3.47529 78.3795 3.64192 78.3101 3.84079C78.2426 4.05722 78.2102 4.28317 78.214 4.50998ZM77.4934 4.50998C77.4934 4.2036 77.5361 3.91873 77.6215 3.65536C77.7069 3.38661 77.835 3.15548 78.0058 2.96198C78.1797 2.76087 78.3958 2.60115 78.6384 2.49436C78.8893 2.38149 79.1775 2.32505 79.5032 2.32505C79.8341 2.32505 80.1224 2.38149 80.3679 2.49436C80.6188 2.60724 80.8297 2.76311 81.0005 2.96198C81.1713 3.15548 81.2994 3.38661 81.3848 3.65536C81.4702 3.91873 81.5129 4.2036 81.5129 4.50998C81.5129 4.81635 81.4702 5.10122 81.3848 5.3646C81.2994 5.62797 81.1713 5.85909 81.0005 6.05797C80.8248 6.25504 80.6091 6.41177 80.3679 6.51753C80.1224 6.62503 79.8341 6.67878 79.5032 6.67878C79.1775 6.67878 78.8893 6.62503 78.6384 6.51753C78.3976 6.41166 78.1822 6.25494 78.0067 6.05797C77.8334 5.85523 77.7024 5.61942 77.6215 5.3646C77.5341 5.08835 77.4909 4.79988 77.4934 4.50998ZM82.4756 2.4218H83.1161V3.08292H83.1321C83.4151 2.57767 83.8635 2.32505 84.4773 2.32505C84.7496 2.32505 84.9764 2.36267 85.1579 2.43792C85.3394 2.51317 85.4862 2.61799 85.5983 2.75236C85.7104 2.88673 85.7878 3.04798 85.8305 3.23611C85.8786 3.41886 85.9026 3.62311 85.9026 3.84885V6.59009H85.222V3.76823C85.222 3.51023 85.1473 3.30598 84.9978 3.15548C84.8483 3.00498 84.6428 2.92973 84.3813 2.92973C84.1731 2.92973 83.9916 2.96198 83.8368 3.02648C83.6921 3.08752 83.5633 3.18132 83.4604 3.30061C83.3564 3.4236 83.2775 3.56608 83.2282 3.71985C83.1786 3.88722 83.1543 4.06118 83.1562 4.23585V6.59009H82.4756V2.4218ZM90.4186 2.4218H91.2433V3.02648H90.4186V5.61453C90.4186 5.69516 90.4239 5.75966 90.4346 5.80803C90.4485 5.85338 90.4766 5.89299 90.5147 5.92091C90.552 5.94778 90.6028 5.96659 90.6668 5.97734C90.7362 5.98272 90.8243 5.98541 90.931 5.98541H91.2433V6.59009H90.7229C90.5467 6.59009 90.3946 6.57934 90.2665 6.55784C90.1558 6.53653 90.0517 6.48961 89.9622 6.42078C89.8817 6.34712 89.8234 6.25211 89.794 6.14665C89.7523 5.99446 89.7334 5.83685 89.738 5.67903V3.02648H89.0334V2.4218H89.738V1.17212H90.4186V2.4218ZM92.1597 0.833496H92.8403V3.03455H92.8563C92.9057 2.91127 92.9824 2.80097 93.0805 2.71205C93.1766 2.62067 93.2833 2.54811 93.4008 2.49436C93.5236 2.43524 93.649 2.39224 93.7771 2.36536C93.9106 2.33849 94.0387 2.32505 94.1615 2.32505C94.4337 2.32505 94.6606 2.36267 94.8421 2.43792C95.0236 2.51317 95.1703 2.61799 95.2824 2.75236C95.3945 2.88673 95.4719 3.04798 95.5147 3.23611C95.5627 3.41886 95.5867 3.62311 95.5867 3.84885V6.59009H94.9061V3.76823C94.9061 3.51023 94.8314 3.30598 94.6819 3.15548C94.5325 3.00498 94.3269 2.92973 94.0654 2.92973C93.8572 2.92973 93.6757 2.96198 93.5209 3.02648C93.3762 3.08752 93.2474 3.18132 93.1446 3.30061C93.0405 3.4236 92.9616 3.56608 92.9124 3.71985C92.8627 3.88722 92.8384 4.06118 92.8403 4.23585V6.59009H92.1597V0.833496ZM99.6436 4.10685C99.6336 3.94819 99.5956 3.79258 99.5315 3.64729C99.4762 3.50717 99.3915 3.38068 99.2833 3.27642C99.1798 3.16746 99.0542 3.08222 98.915 3.02648C98.7691 2.96047 98.6105 2.92744 98.4506 2.92973C98.2744 2.92973 98.1143 2.96198 97.9702 3.02648C97.8341 3.08369 97.7114 3.16881 97.6098 3.27642C97.5084 3.38392 97.4283 3.51023 97.3696 3.65536C97.31 3.79891 97.2748 3.95154 97.2655 4.10685H99.6436ZM100.3 5.26785C100.209 5.73547 100.009 6.08753 99.6997 6.32403C99.3901 6.56053 99.0004 6.67878 98.5307 6.67878C98.1997 6.67878 97.9114 6.62503 97.6659 6.51753C97.4321 6.41476 97.2241 6.26047 97.0574 6.06603C96.8866 5.86293 96.7586 5.62704 96.681 5.37266C96.5983 5.08685 96.5525 4.79147 96.5449 4.49385C96.5414 4.19731 96.5902 3.90249 96.689 3.62311C96.7851 3.35973 96.9186 3.1313 97.0894 2.9378C97.2655 2.7443 97.471 2.5938 97.7059 2.4863C97.9461 2.3788 98.2077 2.32505 98.4906 2.32505C98.8589 2.32505 99.1632 2.40299 99.4034 2.55886C99.649 2.70936 99.8438 2.90286 99.9879 3.13936C100.137 3.37586 100.239 3.63386 100.292 3.91335C100.351 4.19285 100.375 4.45891 100.364 4.71154H97.2655C97.2602 4.89429 97.2815 5.06897 97.3296 5.2356C97.3776 5.39685 97.455 5.54197 97.5618 5.67097C97.6686 5.79459 97.8047 5.89403 97.9702 5.96928C98.1356 6.04453 98.3305 6.08216 98.5547 6.08216C98.8429 6.08216 99.0778 6.01497 99.2593 5.88059C99.4461 5.74622 99.5689 5.54197 99.6276 5.26785H100.3ZM52.4161 13.2882C54.4606 13.2882 55.8075 14.915 55.8075 17.4287C55.8075 19.9487 54.4686 21.5674 52.4464 21.5674C51.9344 21.5943 51.4253 21.4756 50.9772 21.2248C50.5291 20.974 50.1602 20.6013 49.9126 20.1493H49.8743V24.1662H48.2204V13.3724H49.8209V14.7215H49.8512C50.1101 14.2715 50.4854 13.9006 50.937 13.6482C51.3887 13.3958 51.8998 13.2714 52.4161 13.2882ZM61.2817 13.2882C63.3262 13.2882 64.6732 14.915 64.6732 17.4287C64.6732 19.9487 63.3333 21.5674 61.312 21.5674C60.7999 21.5945 60.2906 21.4758 59.8423 21.225C59.394 20.9743 59.025 20.6015 58.7773 20.1493H58.739V24.1662H57.0869V13.3724H58.6874V14.7215H58.7177C58.9766 14.2715 59.3519 13.9006 59.8036 13.6482C60.2552 13.3958 60.7655 13.2714 61.2817 13.2882ZM73.1518 10.1734C75.4863 10.1734 77.0859 11.4921 77.1402 13.4109H75.4712C75.3715 12.301 74.4596 11.6309 73.1277 11.6309C71.7959 11.6309 70.8849 12.3091 70.8849 13.2954C70.8849 14.0819 71.4667 14.545 72.8911 14.8989L74.1082 15.1999C76.3751 15.7401 77.3163 16.6565 77.3163 18.2842C77.3163 20.3652 75.6704 21.6687 73.0512 21.6687C70.6011 21.6687 68.9472 20.3966 68.8404 18.3837H70.5326C70.6553 19.4873 71.7194 20.2112 73.174 20.2112C74.5672 20.2112 75.5699 19.4873 75.5699 18.4921C75.5699 17.6285 74.9649 17.1125 73.5334 16.7577L72.1011 16.4102C70.0726 15.9175 69.1313 14.9616 69.1313 13.4109C69.1313 11.4921 70.7923 10.1734 73.1518 10.1734ZM87.1241 13.273C89.4595 13.273 90.9453 14.8765 90.9453 17.4287C90.9453 19.9872 89.4666 21.5836 87.1241 21.5836C84.7816 21.5836 83.3039 19.9872 83.3039 17.4287C83.3039 14.8765 84.7958 13.273 87.1241 13.273ZM100.512 13.273C102.741 13.273 104.143 14.8138 104.143 17.2737V17.8444H98.4533V17.9447C98.4269 18.2432 98.464 18.544 98.562 18.827C98.66 19.11 98.8167 19.3687 99.0217 19.586C99.2268 19.8032 99.4754 19.9741 99.751 20.0871C100.027 20.2002 100.323 20.2528 100.62 20.2416C101.011 20.2785 101.403 20.1875 101.738 19.982C102.073 19.7765 102.333 19.4676 102.48 19.1012H104.05C103.828 20.5731 102.403 21.5836 100.582 21.5836C98.2388 21.5836 96.7842 20.0033 96.7842 17.4672C96.7842 14.9231 98.2468 13.273 100.512 13.273ZM80.8848 11.4535V13.3724H82.4168V14.6911H80.8848V19.1621C80.8848 19.8573 81.1918 20.1807 81.8653 20.1807C82.047 20.1775 82.2285 20.1647 82.4088 20.1422V21.4528C82.1064 21.5092 81.7985 21.5352 81.4907 21.5298C79.8599 21.5298 79.2238 20.9126 79.2238 19.3395V14.6911H78.0521V13.3724H79.2238V11.4544L80.8848 11.4535ZM43.2044 10.3588L47.1937 21.4832H45.3788L44.369 18.4768H40.1582L39.1466 21.4832H37.3628L41.3512 10.3588H43.2044ZM95.8607 13.2882C96.0511 13.2873 96.2415 13.3079 96.4275 13.35V14.907C96.1869 14.8331 95.936 14.7992 95.6846 14.8066C95.4444 14.797 95.205 14.8397 94.9828 14.9319C94.7605 15.0241 94.5607 15.1636 94.397 15.3409C94.2334 15.5181 94.1097 15.7289 94.0345 15.9587C93.9592 16.1886 93.9343 16.4321 93.9613 16.6726V21.4832H92.3083V13.3724H93.8848V14.7529H93.923C94.0299 14.3219 94.2809 13.941 94.6337 13.6743C94.9866 13.4076 95.4198 13.2713 95.8607 13.2882ZM87.1241 14.6445C85.7843 14.6445 84.988 15.6854 84.988 17.4287C84.988 19.1863 85.7843 20.2112 87.1241 20.2112C88.464 20.2112 89.2602 19.1863 89.2602 17.4287C89.2602 15.6783 88.464 14.6445 87.1241 14.6445ZM51.9802 14.7072C50.7168 14.7072 49.8672 15.8091 49.8672 17.4287C49.8672 19.0627 50.7168 20.1574 51.9802 20.1574C53.2657 20.1574 54.1083 19.0851 54.1083 17.4287C54.1083 15.7867 53.2657 14.7072 51.9802 14.7072ZM60.8449 14.7072C59.5815 14.7072 58.7319 15.8091 58.7319 17.4287C58.7319 19.0627 59.5824 20.1574 60.8449 20.1574C62.1314 20.1574 62.9739 19.0851 62.9739 17.4287C62.9739 15.7867 62.1314 14.7072 60.8449 14.7072ZM42.2863 12.2096H42.2409L40.5941 17.0892H43.9322L42.2863 12.2096ZM100.512 14.6221C100.243 14.6203 99.9757 14.6723 99.7265 14.775C99.4774 14.8778 99.2509 15.0293 99.0602 15.2207C98.8695 15.4121 98.7183 15.6397 98.6156 15.8903C98.5128 16.1409 98.4603 16.4096 98.4613 16.6807H102.488C102.503 16.4123 102.462 16.1437 102.369 15.8918C102.276 15.6399 102.132 15.4101 101.947 15.2168C101.761 15.0235 101.538 14.8709 101.291 14.7686C101.044 14.6662 100.779 14.6164 100.512 14.6221Z" fill="white"/>
</svg>
