<svg width="41" height="41" fill="none" xmlns="http://www.w3.org/2000/svg"><path d="M25.986 21.876c6.324 0 11.45-2.278 11.45-5.089 0-2.81-5.126-5.09-11.45-5.09-6.324 0-11.45 2.28-11.45 5.09s5.126 5.09 11.45 5.09Z" stroke="#003366" stroke-width="2" stroke-linecap="round" stroke-linejoin="round"/><path d="M14.535 16.787v15.268c0 2.799 5.09 5.09 11.451 5.09 6.362 0 11.45-2.291 11.45-5.09V16.787" stroke="#003366" stroke-width="2" stroke-linecap="round" stroke-linejoin="round"/><path d="M37.437 24.42c0 2.8-5.09 5.09-11.451 5.09-6.362 0-11.45-2.29-11.45-5.09m-2.544-10.226c-3.701-.844-6.234-2.556-6.234-4.532 0-2.81 5.127-5.09 11.45-5.09 5.003 0 9.256 1.426 10.815 3.413" stroke="#003366" stroke-width="2" stroke-linecap="round" stroke-linejoin="round"/><path d="M5.758 9.662V24.93c0 1.97 2.522 3.689 6.234 4.533" stroke="#003366" stroke-width="2" stroke-linecap="round" stroke-linejoin="round"/><path d="M5.758 17.296c0 1.97 2.522 3.689 6.234 4.533" stroke="#003366" stroke-width="2" stroke-linecap="round" stroke-linejoin="round"/></svg>