<svg width="41" height="41" fill="none" xmlns="http://www.w3.org/2000/svg"><g clip-path="url(#a)" stroke="#003366" stroke-width="2" stroke-linecap="round" stroke-linejoin="round"><path d="M20.813 11.792a4.286 4.286 0 1 0 0-8.571 4.286 4.286 0 0 0 0 8.571ZM6.528 37.506a4.286 4.286 0 1 0 0-8.571 4.286 4.286 0 0 0 0 8.571Zm14.285 0a4.286 4.286 0 1 0 0-8.571 4.286 4.286 0 0 0 0 8.571Zm14.285 0a4.286 4.286 0 1 0 0-8.571 4.286 4.286 0 0 0 0 8.571Z"/><path d="M6.527 28.935V23.22a2.857 2.857 0 0 1 2.857-2.858h22.858a2.857 2.857 0 0 1 2.857 2.858v5.714M20.813 11.792v17.143"/></g><defs><clipPath id="a"><path fill="#fff" transform="translate(.813 .363)" d="M0 0h40v40H0z"/></clipPath></defs></svg>