<svg width="41" height="41" fill="none" xmlns="http://www.w3.org/2000/svg"><path d="M29.428 6.265h6.154a1.23 1.23 0 0 1 1.23 1.23v19.693a1.23 1.23 0 0 1-1.23 1.231H6.043a1.23 1.23 0 0 1-1.23-1.23V7.495a1.23 1.23 0 0 1 1.23-1.23h6.154M18.35 28.42l-2.461 6.153m7.384-6.153 2.462 6.153m-12.307 0h14.769" stroke="#003366" stroke-width="2" stroke-linecap="round" stroke-linejoin="round"/><path d="M25.735 14.88h-9.846v7.385h9.846v-7.384Z" stroke="#003366" stroke-width="2" stroke-linecap="round" stroke-linejoin="round"/><path d="M17.121 14.881v-2.462a3.692 3.692 0 1 1 7.385 0v2.462" stroke="#003366" stroke-width="2" stroke-linecap="round" stroke-linejoin="round"/></svg>