<svg width="40" height="40" fill="none" xmlns="http://www.w3.org/2000/svg"><path d="M30 16.667a13.333 13.333 0 1 0-26.667 0c0 8.321 9.232 16.988 12.332 19.665.289.216.64.333 1.002.333M30 36.667v-5m-5 5A1.667 1.667 0 0 1 23.333 35v-6.667a1.666 1.666 0 0 1 .742-1.386l5-3.334a1.666 1.666 0 0 1 1.85 0l5 3.334a1.667 1.667 0 0 1 .742 1.386V35A1.667 1.667 0 0 1 35 36.667H25Zm-3.333-20a5 5 0 1 1-10 0 5 5 0 0 1 10 0Z" stroke="#003366" stroke-width="2" stroke-linecap="round" stroke-linejoin="round"/></svg>