<svg width="40" height="40" viewBox="0 0 40 40" fill="none" xmlns="http://www.w3.org/2000/svg">
<path d="M5.01709 22.8557H9.48195C10.9621 22.8557 12.3817 23.4437 13.4284 24.4904C14.475 25.537 15.063 26.9566 15.063 28.4368" stroke="#003366" stroke-width="2" stroke-linecap="round" stroke-linejoin="round"/>
<path d="M8.36573 28.4368H19.5279C20.712 28.4368 21.8477 28.9072 22.685 29.7445C23.5223 30.5818 23.9927 31.7175 23.9927 32.9016C23.9927 33.1977 23.8751 33.4816 23.6658 33.6909C23.4565 33.9002 23.1726 34.0178 22.8765 34.0178H5.01709" stroke="#003366" stroke-width="2" stroke-linecap="round" stroke-linejoin="round"/>
<path d="M23.4343 22.8554L14.5046 14.5954C9.63787 9.70642 16.737 0.240922 23.4343 7.89815C30.1316 0.263246 37.2977 9.72874 32.364 14.5954L23.4343 22.8554Z" stroke="#003366" stroke-width="2" stroke-linecap="round" stroke-linejoin="round"/>
</svg>
