<svg width="40" height="40" viewBox="0 0 40 40" fill="none" xmlns="http://www.w3.org/2000/svg">
<path d="M26.9862 17.2861C26.8549 17.2861 26.7249 17.3121 26.6036 17.3626C26.4824 17.4131 26.3723 17.4871 26.2798 17.5804C26.1873 17.6736 26.1141 17.7843 26.0645 17.906C26.0149 18.0277 25.9899 18.158 25.9908 18.2894V34.2047C25.9908 34.6829 25.801 35.1416 25.4631 35.4797C25.1251 35.8179 24.6668 36.0078 24.1889 36.0078H8.79296C8.31566 36.0059 7.85845 35.8153 7.52095 35.4776C7.18344 35.1399 6.99298 34.6823 6.99107 34.2047V8.03062L12.0044 3.01392H24.1889C24.6662 3.01583 25.1234 3.20641 25.461 3.54415C25.7985 3.88188 25.9889 4.3394 25.9908 4.81702V6.42382C25.9908 6.68799 26.0957 6.94135 26.2824 7.12815C26.469 7.31495 26.7222 7.41989 26.9862 7.41989C27.2502 7.41989 27.5034 7.31495 27.6901 7.12815C27.8768 6.94135 27.9816 6.68799 27.9816 6.42382V4.79521C27.9816 3.78865 27.582 2.82331 26.8708 2.11157C26.1595 1.39982 25.1948 0.999964 24.1889 0.999964H11.5975C11.4631 0.997223 11.3295 1.02156 11.2047 1.07152C11.0799 1.12148 10.9664 1.19605 10.8709 1.29079L5.2909 6.88914C5.19588 6.98439 5.12115 7.09793 5.07119 7.22289C5.02124 7.34785 4.99712 7.48164 5.00027 7.6162V34.2265C5.00027 35.2331 5.39986 36.1984 6.11113 36.9102C6.82239 37.6219 7.78708 38.0218 8.79296 38.0218H24.1889C25.1948 38.0218 26.1595 37.6219 26.8708 36.9102C27.582 36.1984 27.9816 35.2331 27.9816 34.2265V18.2894C27.9826 18.158 27.9575 18.0277 27.908 17.906C27.8584 17.7843 27.7852 17.6736 27.6927 17.5804C27.6001 17.4871 27.4901 17.4131 27.3688 17.3626C27.2476 17.3121 27.1176 17.2861 26.9862 17.2861Z" fill="#003366"/>
<path d="M30.9096 7.89988C30.1376 7.94845 29.3864 8.16961 28.7112 8.54708C28.036 8.92456 27.4539 9.44874 27.0079 10.0811C26.563 9.43423 25.9733 8.90025 25.2859 8.52159C24.5985 8.14293 23.8322 7.93005 23.0481 7.89988C22.4969 7.87661 21.9467 7.96517 21.4306 8.16021C20.9144 8.35525 20.4431 8.65275 20.0449 9.0348C19.6466 9.41686 19.3297 9.87558 19.1132 10.3834C18.8968 10.8912 18.7852 11.4375 18.7852 11.9896C18.7852 12.5416 18.8968 13.088 19.1132 13.5958C19.3297 14.1036 19.6466 14.5623 20.0449 14.9444C20.4431 15.3264 20.9144 15.6239 21.4306 15.819C21.9467 16.014 22.4969 16.1025 23.0481 16.0793C24.8137 16.0793 26.136 14.8796 26.9498 13.8545C27.3891 14.5102 27.9765 15.0532 28.6643 15.4397C29.3522 15.8262 30.1214 16.0453 30.9096 16.0793C31.4608 16.1025 32.011 16.014 32.5271 15.819C33.0432 15.6239 33.5146 15.3264 33.9128 14.9444C34.311 14.5623 34.6279 14.1036 34.8444 13.5958C35.0609 13.088 35.1725 12.5416 35.1725 11.9896C35.1725 11.4375 35.0609 10.8912 34.8444 10.3834C34.6279 9.87558 34.311 9.41686 33.9128 9.0348C33.5146 8.65275 33.0432 8.35525 32.5271 8.16021C32.011 7.96517 31.4608 7.87661 30.9096 7.89988ZM23.0481 14.0871C22.5116 14.0556 22.0074 13.8201 21.6388 13.4288C21.2701 13.0375 21.0647 12.5201 21.0647 11.9823C21.0647 11.4445 21.2701 10.9271 21.6388 10.5358C22.0074 10.1445 22.5116 9.90904 23.0481 9.87747C24.5012 9.87747 25.4458 11.2516 25.8526 11.9569C25.4094 12.6839 24.3995 14.0871 23.0481 14.0871ZM30.9096 14.0871C29.4564 14.0871 28.5119 12.7057 28.105 12.0005C28.6136 11.1644 29.6744 9.87747 30.9096 9.87747C31.446 9.90904 31.9502 10.1445 32.3189 10.5358C32.6876 10.9271 32.8929 11.4445 32.8929 11.9823C32.8929 12.5201 32.6876 13.0375 32.3189 13.4288C31.9502 13.8201 31.446 14.0556 30.9096 14.0871Z" fill="#003366"/>
<path d="M16.4436 33.5942C16.7076 33.5942 16.9608 33.4892 17.1474 33.3024C17.3341 33.1156 17.439 32.8623 17.439 32.5981V20.4853H23.1643C23.4283 20.4853 23.6815 20.3804 23.8682 20.1936C24.0549 20.0068 24.1597 19.7534 24.1597 19.4892C24.1597 19.2251 24.0549 18.9717 23.8682 18.7849C23.6815 18.5981 23.4283 18.4932 23.1643 18.4932H9.70829C9.44429 18.4932 9.19111 18.5981 9.00444 18.7849C8.81776 18.9717 8.71289 19.2251 8.71289 19.4892C8.71289 19.7534 8.81776 20.0068 9.00444 20.1936C9.19111 20.3804 9.44429 20.4853 9.70829 20.4853H15.4554V32.5981C15.4545 32.7286 15.4793 32.8579 15.5286 32.9787C15.5778 33.0995 15.6504 33.2094 15.7423 33.302C15.8341 33.3946 15.9434 33.4681 16.0637 33.5182C16.1841 33.5684 16.3132 33.5942 16.4436 33.5942Z" fill="#003366"/>
</svg>
