<svg width="40" height="40" viewBox="0 0 40 40" fill="none" xmlns="http://www.w3.org/2000/svg">
<path d="M17.8724 20.0999H17.1861C17.1427 20.0991 17.0997 20.1072 17.0595 20.1235C17.0194 20.1398 16.983 20.1641 16.9524 20.1948C16.8097 20.333 16.6585 20.4623 16.4998 20.5818C16.2953 20.7278 16.0836 20.8738 15.8645 21.0126C15.6429 21.1494 15.4138 21.2737 15.1782 21.3849L14.7913 21.5748C14.715 21.607 14.6546 21.6681 14.6231 21.7446C14.5917 21.8212 14.5918 21.9071 14.6233 21.9836L14.8935 22.7138C14.926 22.7919 14.9874 22.8546 15.0649 22.8886C15.1425 22.9226 15.2301 22.9253 15.3096 22.8963L15.8061 22.6918C16.0595 22.5743 16.3036 22.4376 16.5363 22.283V27.4961C16.5363 27.5813 16.5701 27.663 16.6304 27.7232C16.6906 27.7835 16.7723 27.8173 16.8575 27.8173H17.8724C17.9576 27.8173 18.0393 27.7835 18.0996 27.7232C18.1598 27.663 18.1936 27.5813 18.1936 27.4961V20.4212C18.1917 20.3353 18.1563 20.2536 18.0949 20.1935C18.0335 20.1335 17.951 20.0999 17.8651 20.0999" fill="#003366"/>
<path d="M28.8224 15.3613C28.5561 15.3599 28.2953 15.4377 28.0733 15.5847C27.8512 15.7318 27.6779 15.9415 27.5753 16.1873C27.4728 16.4331 27.4455 16.7038 27.4971 16.9651C27.5487 17.2263 27.6768 17.4664 27.8652 17.6547C28.0535 17.843 28.2935 17.9711 28.5548 18.0227C28.8161 18.0743 29.0868 18.0471 29.3326 17.9445C29.5784 17.8419 29.7881 17.6686 29.9352 17.4466C30.0822 17.2245 30.16 16.9638 30.1585 16.6975C30.1585 16.3431 30.0178 16.0033 29.7672 15.7527C29.5166 15.5021 29.1768 15.3613 28.8224 15.3613Z" fill="#003366"/>
<path d="M32.4019 1H7.83316C6.81654 1 5.84156 1.40385 5.12271 2.12271C4.40385 2.84156 4 3.81654 4 4.83316L4 24.4224C4.00193 25.4378 4.40664 26.4109 5.12528 27.1282C5.84393 27.8454 6.81781 28.2483 7.83316 28.2483C8.09845 28.2483 8.35287 28.1429 8.54046 27.9553C8.72804 27.7677 8.83343 27.5133 8.83343 27.248C8.83343 26.9827 8.72804 26.7283 8.54046 26.5407C8.35287 26.3531 8.09845 26.2477 7.83316 26.2477C7.34838 26.2477 6.88335 26.0557 6.53988 25.7136C6.19641 25.3715 6.00248 24.9072 6.00054 24.4224V8.77584C6.00248 8.29106 6.19641 7.8268 6.53988 7.4847C6.88335 7.1426 7.34838 6.95052 7.83316 6.95052H32.4019C32.886 6.95052 33.3503 7.14283 33.6926 7.48514C34.0349 7.82746 34.2272 8.29173 34.2272 8.77584V11.6598H28.8243C28.1461 11.634 27.4696 11.7453 26.8354 11.987C26.2013 12.2288 25.6224 12.596 25.1334 13.0667C24.6445 13.5374 24.2555 14.1019 23.9898 14.7264C23.7241 15.3509 23.5872 16.0227 23.5872 16.7013C23.5872 17.38 23.7241 18.0518 23.9898 18.6763C24.2555 19.3008 24.6445 19.8653 25.1334 20.336C25.6224 20.8067 26.2013 21.1739 26.8354 21.4157C27.4696 21.6574 28.1461 21.7687 28.8243 21.7429H34.2272V24.4224C34.2272 24.9065 34.0349 25.3708 33.6926 25.7131C33.3503 26.0554 32.886 26.2477 32.4019 26.2477H26.904C26.6387 26.2477 26.3843 26.3531 26.1967 26.5407C26.0091 26.7283 25.9038 26.9827 25.9038 27.248C25.9038 27.5133 26.0091 27.7677 26.1967 27.9553C26.3843 28.1429 26.6387 28.2483 26.904 28.2483H32.4019C33.4172 28.2483 34.3911 27.8454 35.1098 27.1282C35.8284 26.4109 36.2331 25.4378 36.235 24.4224V4.83316C36.2331 3.81713 35.8286 2.84328 35.1102 2.12484C34.3918 1.4064 33.4179 1.00193 32.4019 1ZM32.4019 4.94998H7.83316C7.19265 4.94866 6.56222 5.10941 6.00054 5.41726V4.83316C6.00247 4.34771 6.19616 3.88269 6.53943 3.53943C6.88269 3.19616 7.34771 3.00247 7.83316 3.00054H32.4019C32.8867 3.00248 33.3509 3.19641 33.693 3.53988C34.0351 3.88335 34.2272 4.34838 34.2272 4.83316V5.38075C33.6666 5.0778 33.0391 4.91969 32.4019 4.92077M25.8308 16.6685C25.8401 15.8761 26.1581 15.1186 26.7171 14.5569C27.276 13.9953 28.032 13.6736 28.8243 13.6604H34.2272V19.7423H28.8243C28.0168 19.7423 27.2424 19.4215 26.6714 18.8506C26.1004 18.2796 25.7796 17.5052 25.7796 16.6977" fill="#003366"/>
<path d="M16.799 16.0625C15.3085 16.0625 13.8515 16.5041 12.6118 17.3316C11.3721 18.1591 10.4054 19.3353 9.83374 20.7117C9.26204 22.0882 9.11098 23.6032 9.39964 25.0654C9.6883 26.5276 10.4037 27.8716 11.4556 28.9275C12.5075 29.9835 13.8486 30.7041 15.3097 30.9984C16.7709 31.2927 18.2864 31.1475 19.6651 30.5811C21.0437 30.0148 22.2237 29.0526 23.0559 27.8161C23.8882 26.5797 24.3354 25.1244 24.3412 23.6339C24.345 22.641 24.1528 21.6571 23.7755 20.7387C23.3982 19.8202 22.8432 18.9853 22.1425 18.2819C21.4417 17.5784 20.609 17.0203 19.692 16.6394C18.775 16.2585 17.7919 16.0625 16.799 16.0625ZM16.799 29.139C15.7011 29.1405 14.6275 28.8157 13.7145 28.2061C12.8014 27.5964 12.09 26.7293 11.6705 25.7146C11.2511 24.7 11.1425 23.5837 11.3584 22.5073C11.5744 21.4308 12.1053 20.4428 12.8836 19.6685C13.662 18.8942 14.6528 18.3686 15.7304 18.1583C16.808 17.9481 17.9237 18.0626 18.9361 18.4874C19.9485 18.9122 20.8119 19.6282 21.4167 20.5445C22.0215 21.4608 22.3406 22.536 22.3333 23.6339C22.3314 25.1018 21.7479 26.5091 20.7107 27.5477C19.6734 28.5864 18.2669 29.1717 16.799 29.1756" fill="#003366"/>
<path d="M16.8562 32.9575C16.5902 32.9575 16.3351 33.0627 16.1463 33.25C15.9576 33.4374 15.8506 33.6918 15.8486 33.9578V37.2215C15.8701 37.4729 15.9852 37.7072 16.1711 37.8779C16.357 38.0486 16.6002 38.1433 16.8526 38.1433C17.1049 38.1433 17.3481 38.0486 17.534 37.8779C17.7199 37.7072 17.835 37.4729 17.8565 37.2215V33.9578C17.8546 33.6931 17.7486 33.4398 17.5614 33.2526C17.3742 33.0654 17.1209 32.9594 16.8562 32.9575Z" fill="#003366"/>
<path d="M9.54957 30.3144C9.41759 30.3135 9.28674 30.3386 9.16454 30.3885C9.04233 30.4383 8.9312 30.5118 8.83754 30.6048C8.74388 30.6978 8.66955 30.8084 8.61883 30.9302C8.5681 31.0521 8.54199 31.1827 8.54199 31.3147V34.5857C8.54199 34.8548 8.64892 35.113 8.83924 35.3033C9.02957 35.4936 9.28771 35.6006 9.55687 35.6006C9.82603 35.6006 10.0842 35.4936 10.2745 35.3033C10.4648 35.113 10.5717 34.8548 10.5717 34.5857V31.3147C10.5718 31.1815 10.5452 31.0496 10.4936 30.9268C10.4419 30.804 10.3663 30.6927 10.2711 30.5996C10.1759 30.5064 10.063 30.4332 9.93908 30.3842C9.81519 30.3352 9.68275 30.3115 9.54957 30.3144Z" fill="#003366"/>
<path d="M24.0559 30.3145C23.9246 30.3145 23.7945 30.3403 23.6731 30.3906C23.5518 30.4409 23.4415 30.5145 23.3486 30.6074C23.2558 30.7003 23.1821 30.8106 23.1318 30.9319C23.0815 31.0533 23.0557 31.1834 23.0557 31.3147V34.5857C23.0557 34.851 23.161 35.1054 23.3486 35.293C23.5362 35.4806 23.7906 35.586 24.0559 35.586C24.3212 35.586 24.5756 35.4806 24.7632 35.293C24.9508 35.1054 25.0562 34.851 25.0562 34.5857V31.3147C25.0562 31.0494 24.9508 30.795 24.7632 30.6074C24.5756 30.4198 24.3212 30.3145 24.0559 30.3145Z" fill="#003366"/>
</svg>
