<svg width="40" height="40" viewBox="0 0 40 40" fill="none" xmlns="http://www.w3.org/2000/svg">
<path d="M20 4C23.1645 4 26.2579 4.93838 28.8891 6.69649C31.5203 8.45459 33.5711 10.9534 34.7821 13.8771C35.9931 16.8007 36.3099 20.0177 35.6926 23.1214C35.0752 26.2251 33.5514 29.0761 31.3137 31.3137C29.0761 33.5513 26.2251 35.0752 23.1215 35.6926C20.0178 36.3099 16.8007 35.9931 13.8771 34.7821C10.9535 33.5711 8.4546 31.5203 6.6965 28.8891C4.93839 26.2579 4.00001 23.1645 4.00001 20C3.99494 15.4165 5.75842 11.0079 8.92309 7.69231" stroke="#003366" stroke-width="2" stroke-linecap="round" stroke-linejoin="round"/>
<path d="M4 8.92291L8.92308 7.69214L10.1538 12.6152" stroke="#003366" stroke-width="2" stroke-linecap="round" stroke-linejoin="round"/>
<path d="M20 11.3848V21.2309L26.4 24.4309" stroke="#003366" stroke-width="2" stroke-linecap="round" stroke-linejoin="round"/>
</svg>
