<svg width="40" height="40" fill="none" xmlns="http://www.w3.org/2000/svg"><path d="M30.076 5.027H9.924A2.962 2.962 0 0 0 7.572 6.3l-5.038 6.975a2.906 2.906 0 0 0 .166 3.571l15.113 17.41a2.767 2.767 0 0 0 4.374 0L37.3 16.847a2.907 2.907 0 0 0 .166-3.57L32.428 6.3a2.962 2.962 0 0 0-2.352-1.273v0Z" stroke="#003366" stroke-width="2" stroke-linecap="round" stroke-linejoin="round"/><path d="m18.56 5-6.753 10.463L20 35.254" stroke="#003366" stroke-width="2" stroke-linecap="round" stroke-linejoin="round"/><path d="m21.518 5 6.727 10.463-8.249 19.791M2.064 15.462h35.874" stroke="#003366" stroke-width="2" stroke-linecap="round" stroke-linejoin="round"/></svg>