<svg width="40" height="40" fill="none" xmlns="http://www.w3.org/2000/svg"><path d="M29.848 7.038h3.45a1.15 1.15 0 0 1 1.15 1.15v18.397a1.15 1.15 0 0 1-1.15 1.15H5.703a1.15 1.15 0 0 1-1.15-1.15V8.188a1.15 1.15 0 0 1 1.15-1.15h3.449M17.2 27.735l-2.3 5.749m6.899-5.749 2.3 5.749m-11.497 0h13.797" stroke="#003366" stroke-width="2" stroke-linecap="round" stroke-linejoin="round"/><path d="M18.235 7.866a1.357 1.357 0 0 1 2.53 0l1.471 3.771h3.932a1.403 1.403 0 0 1 1.288.897 1.358 1.358 0 0 1-.368 1.403l-3.472 3.081 1.472 2.944a1.333 1.333 0 0 1-.276 1.586 1.357 1.357 0 0 1-1.61.23L19.5 19.755l-3.703 2.023a1.357 1.357 0 0 1-1.61-.23 1.333 1.333 0 0 1-.275-1.586l1.471-2.944-3.472-3.081a1.356 1.356 0 0 1-.368-1.495 1.403 1.403 0 0 1 1.288-.805h3.932l1.472-3.771Z" stroke="#003366" stroke-width="2" stroke-linecap="round" stroke-linejoin="round"/></svg>