<svg width="40" height="40" fill="none" xmlns="http://www.w3.org/2000/svg"><path d="M25.175 21.304c6.325 0 11.451-2.279 11.451-5.09 0-2.81-5.126-5.089-11.45-5.089-6.325 0-11.451 2.279-11.451 5.09 0 2.81 5.126 5.089 11.45 5.089Z" stroke="#003366" stroke-width="2" stroke-linecap="round" stroke-linejoin="round"/><path d="M13.725 16.214v15.268c0 2.8 5.089 5.09 11.45 5.09 6.362 0 11.451-2.29 11.451-5.09V16.214" stroke="#003366" stroke-width="2" stroke-linecap="round" stroke-linejoin="round"/><path d="M36.626 23.848c0 2.8-5.089 5.09-11.45 5.09-6.362 0-11.451-2.29-11.451-5.09M11.18 13.621c-3.702-.843-6.235-2.556-6.235-4.532C4.945 6.28 10.072 4 16.396 4c5.002 0 9.255 1.426 10.815 3.412" stroke="#003366" stroke-width="2" stroke-linecap="round" stroke-linejoin="round"/><path d="M4.945 9.09v15.267c0 1.97 2.522 3.689 6.235 4.534" stroke="#003366" stroke-width="2" stroke-linecap="round" stroke-linejoin="round"/><path d="M4.945 16.723c0 1.97 2.522 3.689 6.235 4.534" stroke="#003366" stroke-width="2" stroke-linecap="round" stroke-linejoin="round"/></svg>