<svg width="40" height="40" fill="none" xmlns="http://www.w3.org/2000/svg"><path d="M26.046 21.46h-3.512l-1.078-3.49c-.1-.32-.296-.6-.557-.797a1.486 1.486 0 0 0-.897-.304c-.322 0-.636.107-.897.304a1.597 1.597 0 0 0-.557.797l-1.085 3.49h-3.477a1.477 1.477 0 0 0-.921.292 1.589 1.589 0 0 0-.57.81c-.1.328-.097.68.01 1.006.106.326.311.606.583.8l2.838 2.18-1.085 3.49c-.098.322-.097.668.004.988.1.32.295.6.557.797a1.48 1.48 0 0 0 1.797-.003l2.838-2.181 2.838 2.181c.26.196.574.3.895.3.322-.001.634-.108.894-.305s.455-.475.555-.793c.101-.32.103-.663.007-.983l-1.085-3.49 2.837-2.181c.272-.194.477-.474.584-.8a1.66 1.66 0 0 0 .01-1.006 1.59 1.59 0 0 0-.57-.81 1.477 1.477 0 0 0-.92-.293m-3.29 3.636c-.26.192-.455.465-.558.779a1.66 1.66 0 0 0-.02.973l.807 2.595-2.087-1.606a1.493 1.493 0 0 0-.9-.305c-.324 0-.64.107-.901.305l-2.087 1.607.814-2.596a1.676 1.676 0 0 0-.002-.988 1.606 1.606 0 0 0-.555-.8l-2.086-1.608h2.615c.321.001.635-.105.895-.302s.453-.476.552-.795l.814-2.603.73 2.595c.098.323.292.604.553.802.262.2.577.305.9.303h2.609l-2.094 1.644Z" fill="#005DA5"/><path d="M27.37 1H15.308a.916.916 0 0 0-.376.07.95.95 0 0 0-.32.22l-5.335 5.6A1.036 1.036 0 0 0 9 7.616v26.61c0 1.006.383 1.971 1.064 2.683a3.553 3.553 0 0 0 2.567 1.112h14.738c.963 0 1.887-.4 2.568-1.112A3.884 3.884 0 0 0 31 34.227V4.795a3.884 3.884 0 0 0-1.063-2.683A3.552 3.552 0 0 0 27.369 1Zm1.724 33.205c0 .478-.181.937-.505 1.275a1.688 1.688 0 0 1-1.22.528H12.631a1.695 1.695 0 0 1-1.218-.53 1.853 1.853 0 0 1-.507-1.273V8.03l4.8-5.017h11.663c.457.002.895.192 1.218.53.323.338.506.795.508 1.273v29.388Z" fill="#005DA5"/></svg>