<svg width="40" height="40" fill="none" xmlns="http://www.w3.org/2000/svg"><path d="M26.5 5.6h3.9A2.6 2.6 0 0 1 33 8.2v26a2.6 2.6 0 0 1-2.6 2.6H9.6A2.6 2.6 0 0 1 7 34.2v-26a2.6 2.6 0 0 1 2.6-2.6h3.9" stroke="#003366" stroke-width="2" stroke-linecap="round" stroke-linejoin="round"/><path d="M23.9 3h-7.8a2.6 2.6 0 0 0-2.6 2.6v1.3a2.6 2.6 0 0 0 2.6 2.6h7.8a2.6 2.6 0 0 0 2.6-2.6V5.6A2.6 2.6 0 0 0 23.9 3ZM13.5 23.8l5.2 3.9 6.5-10.4" stroke="#003366" stroke-width="2" stroke-linecap="round" stroke-linejoin="round"/></svg>