<svg width="20" height="20" fill="none" xmlns="http://www.w3.org/2000/svg"><path d="M16 9.667V7.222c0-.324-.128-.635-.357-.864a1.215 1.215 0 0 0-.86-.358H3.217A1.223 1.223 0 0 0 2 7.222v8.556A1.222 1.222 0 0 0 3.217 17h11.566A1.223 1.223 0 0 0 16 15.778V13.5M6 3l6.915-.988a1.078 1.078 0 0 1 .465.033c.07.023.13.053.178.088a.3.3 0 0 1 .1.12L14 3" stroke="#161616" stroke-width="1.5" stroke-linecap="round" stroke-linejoin="round"/><path d="M17.429 10H14.57c-.315 0-.571.269-.571.6v1.8c0 .331.256.6.571.6h2.858c.315 0 .571-.269.571-.6v-1.8c0-.331-.256-.6-.571-.6Z" stroke="#161616" stroke-width="1.5" stroke-linecap="round" stroke-linejoin="round"/></svg>