<svg width="40" height="40" fill="none" xmlns="http://www.w3.org/2000/svg"><g clip-path="url(#a)" stroke="#003366" stroke-width="2" stroke-linecap="round" stroke-linejoin="round"><path d="M4.57 13.571a1.285 1.285 0 0 1-1.285-1.285V4.57a1.286 1.286 0 0 1 1.286-1.285h30.857a1.286 1.286 0 0 1 1.286 1.285v7.715a1.286 1.286 0 0 1-1.286 1.285"/><path d="M27.714 9.714H12.286C11.576 9.714 11 10.29 11 11v18c0 .71.576 1.286 1.286 1.286h15.428c.71 0 1.286-.576 1.286-1.286V11c0-.71-.576-1.286-1.286-1.286Z"/><path d="M20 23.857a3.857 3.857 0 1 0 0-7.714 3.857 3.857 0 0 0 0 7.714Zm-9 12.857h18"/></g><defs><clipPath id="a"><path fill="#fff" transform="translate(2 2)" d="M0 0h36v36H0z"/></clipPath></defs></svg>