<svg width="40" height="40" fill="none" xmlns="http://www.w3.org/2000/svg"><g clip-path="url(#a)" stroke="#003366" stroke-width="2" stroke-linecap="round" stroke-linejoin="round"><path d="M5.857 23.857V35.43a1.286 1.286 0 0 0 1.286 1.285h25.714a1.286 1.286 0 0 0 1.286-1.285V23.857m1.285-6.428H4.571a1.286 1.286 0 0 1-1.286-1.286V11l3.137-6.3a2.571 2.571 0 0 1 2.315-1.414h22.525A2.572 2.572 0 0 1 33.577 4.7l3.137 6.3v5.143a1.286 1.286 0 0 1-1.286 1.286ZM22.57 23.857v12.857m-16.713-9h16.715M3.285 11h33.429"/></g><defs><clipPath id="a"><path fill="#fff" transform="translate(2 2)" d="M0 0h36v36H0z"/></clipPath></defs></svg>