<svg width="40" height="40" fill="none" xmlns="http://www.w3.org/2000/svg"><g clip-path="url(#a)" stroke="#003366" stroke-width="2" stroke-linecap="round" stroke-linejoin="round"><path d="M35.196 16.143H4.802c-1.44 0-2.057-1.569-.926-2.314l15.197-9.952a1.826 1.826 0 0 1 1.852 0l15.197 9.952c1.132.745.514 2.314-.926 2.314Zm.232 14.143H4.571c-.71 0-1.286.575-1.286 1.285v3.858c0 .71.576 1.285 1.286 1.285h30.857c.71 0 1.286-.575 1.286-1.285V31.57c0-.71-.576-1.285-1.286-1.285ZM7.143 16.143v14.143m6.427-14.143v14.143M20 16.143v14.143m6.428-14.143v14.143m6.429-14.143v14.143"/></g><defs><clipPath id="a"><path fill="#fff" transform="translate(2 2)" d="M0 0h36v36H0z"/></clipPath></defs></svg>