<svg width="32" height="33" fill="none" xmlns="http://www.w3.org/2000/svg"><path fill-rule="evenodd" clip-rule="evenodd" d="M25.719 32.5c-1.331 0-2.94-.334-4.708-1.001-3.877-1.462-8.095-4.35-11.877-8.133-3.783-3.783-6.672-8.002-8.135-11.879C-.33 7.962-.333 5.069.992 3.745c.19-.19.384-.395.584-.606C2.785 1.868 4.151.438 5.961.502c1.247.052 2.456.827 3.694 2.367 3.657 4.548 2.008 6.17.1 8.049l-.337.333c-.312.312-.902 1.758 4.585 7.245 1.791 1.791 3.319 3.102 4.54 3.895.768.5 2.142 1.255 2.706.691l.34-.342c1.876-1.904 3.497-3.548 8.043.107 1.54 1.237 2.314 2.445 2.365 3.694.075 1.81-1.367 3.179-2.639 4.386-.21.2-.414.394-.605.584-.657.659-1.709.989-3.034.989Z" fill="#161616"/></svg>