<svg width="6" height="10" fill="none" xmlns="http://www.w3.org/2000/svg"><path d="M2.665 1.728c-.28 0-.548.036-.804.108a3.453 3.453 0 0 0-.804.324L.649 1.044c.296-.168.632-.3 1.008-.396A4.479 4.479 0 0 1 2.833.492c.48 0 .876.068 1.188.204.312.128.56.292.744.492.184.2.312.42.384.66.072.24.108.472.108.696 0 .272-.052.516-.156.732a2.59 2.59 0 0 1-.372.6c-.152.184-.316.36-.492.528-.176.16-.34.328-.492.504a2.77 2.77 0 0 0-.384.54 1.429 1.429 0 0 0-.144.648v.144c0 .048.004.096.012.144H1.981a2.387 2.387 0 0 1-.036-.252 3.199 3.199 0 0 1-.012-.264c0-.264.044-.5.132-.708.088-.208.2-.4.336-.576.136-.176.28-.34.432-.492.16-.152.308-.304.444-.456a2.54 2.54 0 0 0 .336-.468c.088-.16.132-.336.132-.528a.838.838 0 0 0-.276-.648c-.176-.176-.444-.264-.804-.264Zm.936 6.48c0 .28-.092.508-.276.684a.951.951 0 0 1-.684.264.978.978 0 0 1-.684-.264.904.904 0 0 1-.276-.684c0-.28.092-.508.276-.684a.955.955 0 0 1 .684-.276c.272 0 .5.092.684.276a.904.904 0 0 1 .276.684Z" fill="#003366"/></svg>