<svg width="40" height="40" fill="none" xmlns="http://www.w3.org/2000/svg"><path d="M27.515 21.698a1.337 1.337 0 1 0 1.308-1.337 1.336 1.336 0 0 0-1.337 1.337" fill="#003366"/><path d="M32.402 6H7.833A3.833 3.833 0 0 0 4 9.833v19.59a3.833 3.833 0 0 0 3.833 3.825h24.569a3.834 3.834 0 0 0 3.833-3.826V9.833A3.84 3.84 0 0 0 32.402 6ZM7.833 8h24.569a1.833 1.833 0 0 1 1.825 1.833v.548a3.825 3.825 0 0 0-1.825-.46H7.833c-.64 0-1.269.158-1.832.46v-.548a1.84 1.84 0 0 1 1.832-1.832Zm24.569 23.248H7.833a1.833 1.833 0 0 1-1.832-1.826V13.776a1.833 1.833 0 0 1 1.832-1.825h24.569a1.825 1.825 0 0 1 1.825 1.825v2.884h-5.403a5.046 5.046 0 1 0 0 10.083h5.403v2.68a1.825 1.825 0 0 1-1.825 1.825Zm1.825-6.506h-5.403a3.045 3.045 0 1 1 0-6.082h5.403v6.082Z" fill="#003366"/></svg>