<svg width="40" height="40" fill="none" xmlns="http://www.w3.org/2000/svg"><path d="M20.185 36.37c9.491 0 17.185-7.694 17.185-17.185C37.37 9.695 29.676 2 20.185 2 10.695 2 3 9.694 3 19.185S10.694 36.37 20.185 36.37Z" stroke="#003366" stroke-width="2" stroke-linecap="round" stroke-linejoin="round"/><path d="M30 34c1.902.934 3.605 2.297 5 4M5 38a17.923 17.923 0 0 1 6-4m9.184-5.722a9.093 9.093 0 1 0 0-18.185 9.093 9.093 0 0 0 0 18.185Z" stroke="#003366" stroke-width="2" stroke-linecap="round" stroke-linejoin="round"/><path d="M20.185 21.534a2.349 2.349 0 1 0 0-4.698 2.349 2.349 0 0 0 0 4.698Z" stroke="#003366" stroke-width="2" stroke-linecap="round" stroke-linejoin="round"/></svg>