<svg width="40" height="40" fill="none" xmlns="http://www.w3.org/2000/svg"><path d="M17.872 20.1h-.686a.321.321 0 0 0-.234.095 4.808 4.808 0 0 1-.452.387c-.205.146-.416.292-.636.43a6.97 6.97 0 0 1-.686.373l-.387.19a.314.314 0 0 0-.168.409l.27.73a.329.329 0 0 0 .417.182l.496-.204c.254-.118.498-.254.73-.409v5.213a.32.32 0 0 0 .322.321h1.014a.321.321 0 0 0 .322-.32V20.42a.329.329 0 0 0-.329-.321m10.958-4.738a1.343 1.343 0 1 0 1.337 1.337 1.336 1.336 0 0 0-1.337-1.337Z" fill="#003366"/><path d="M32.402 1H7.833A3.833 3.833 0 0 0 4 4.833v19.59a3.833 3.833 0 0 0 3.833 3.825 1 1 0 0 0 0-2 1.833 1.833 0 0 1-1.832-1.826V8.776A1.833 1.833 0 0 1 7.833 6.95h24.569a1.825 1.825 0 0 1 1.825 1.825v2.884h-5.403a5.046 5.046 0 1 0 0 10.083h5.403v2.68a1.825 1.825 0 0 1-1.825 1.825h-5.498a1 1 0 0 0 0 2h5.498a3.834 3.834 0 0 0 3.833-3.826V4.833A3.84 3.84 0 0 0 32.402 1Zm0 3.95H7.833a3.81 3.81 0 0 0-1.832.467v-.584a1.84 1.84 0 0 1 1.832-1.832h24.569a1.833 1.833 0 0 1 1.825 1.832v.548a3.826 3.826 0 0 0-1.825-.46M25.83 16.669a3.044 3.044 0 0 1 2.993-3.009h5.403v6.082h-5.403a3.045 3.045 0 0 1-3.044-3.044" fill="#003366"/><path d="M16.8 16.062a7.544 7.544 0 0 0-1.49 14.936 7.543 7.543 0 1 0 1.49-14.936Zm0 13.077a5.542 5.542 0 1 1 5.534-5.505 5.549 5.549 0 0 1-5.534 5.541m.055 3.783a1.008 1.008 0 0 0-1.007 1v3.264a1.007 1.007 0 0 0 2.007 0v-3.264a1.008 1.008 0 0 0-1-1ZM9.55 30.314a1 1 0 0 0-1.007 1v3.272a1.015 1.015 0 1 0 2.03 0v-3.271a1 1 0 0 0-1.022-1Zm14.505 0a1 1 0 0 0-1 1v3.272a1 1 0 0 0 2 0v-3.271a1 1 0 0 0-1-1Z" fill="#003366"/></svg>