<svg width="40" height="40" fill="none" xmlns="http://www.w3.org/2000/svg"><path d="M19.143 17.216v12.785a2.701 2.701 0 0 0 2.701 2.701h9.404a2.702 2.702 0 0 0 2.701-2.701V17.216a2.701 2.701 0 0 0-2.7-2.701h-9.383a2.702 2.702 0 0 0-2.701 2.701m2.7-.693h3.725v2.19h-4.381v-1.46a.73.73 0 0 1 .694-.694m10.075 10.112H21.172V20.7h10.77l.036 5.972Zm-10.806 3.33v-1.366h4.381v2.03H21.83a.73.73 0 0 1-.693-.693m10.076.693H27.56v-2.03h4.38v1.366a.73.73 0 0 1-.73.693m.73-13.478v1.46h-4.38v-2.19h3.65a.684.684 0 0 1 .73.694" fill="#003366"/><path d="M36.986 5.497a.995.995 0 0 0-.995 1.003v28.705a1.803 1.803 0 0 1-1.802 1.803H18.793a1.809 1.809 0 0 1-1.802-1.803V9.031l5.013-5.017H34.19a1.809 1.809 0 0 1 1.802 1.803v1.607a.996.996 0 1 0 1.99 0V5.795A3.797 3.797 0 0 0 34.19 2H21.598a1.002 1.002 0 0 0-.727.291l-5.58 5.598a.996.996 0 0 0-.29.727v26.61a3.797 3.797 0 0 0 3.792 3.796h15.396a3.791 3.791 0 0 0 3.793-3.795V6.5a.998.998 0 0 0-.996-1.003Z" fill="#003366"/><path d="M20 5h-9a2 2 0 0 0-2 2v24a2 2 0 0 0 2 2h4.5M8.455 8H5a2 2 0 0 0-2 2v18a2 2 0 0 0 2 2h4" stroke="#003366" stroke-width="2"/></svg>