<svg width="40" height="40" fill="none" xmlns="http://www.w3.org/2000/svg"><path d="M19.999 11.428a4.286 4.286 0 1 0 0-8.57 4.286 4.286 0 0 0 0 8.57ZM5.713 37.143a4.286 4.286 0 1 0 0-8.572 4.286 4.286 0 0 0 0 8.572Zm14.286 0a4.286 4.286 0 1 0 0-8.572 4.286 4.286 0 0 0 0 8.572Zm14.287 0a4.286 4.286 0 1 0 0-8.572 4.286 4.286 0 0 0 0 8.572ZM5.713 28.571v-5.714A2.857 2.857 0 0 1 8.57 20h22.857a2.857 2.857 0 0 1 2.857 2.857v5.714M20 11.428v17.143" stroke="#003366" stroke-width="2" stroke-linecap="round" stroke-linejoin="round"/></svg>