<svg width="40" height="40" fill="none" xmlns="http://www.w3.org/2000/svg"><path clip-rule="evenodd" d="M20 35c8.284 0 15-6.716 15-15 0-8.284-6.716-15-15-15-8.284 0-15 6.716-15 15 0 8.284 6.716 15 15 15Z" stroke="#003366" stroke-width="2" stroke-linecap="round" stroke-linejoin="round"/><path d="M5 20h30" stroke="#003366" stroke-width="2" stroke-linecap="round" stroke-linejoin="round"/><path clip-rule="evenodd" d="M20 5a22.95 22.95 0 0 1 6 15 22.95 22.95 0 0 1-6 15 22.95 22.95 0 0 1-6-15 22.95 22.95 0 0 1 6-15v0Z" stroke="#003366" stroke-width="2" stroke-linecap="round" stroke-linejoin="round"/></svg>