<svg width="40" height="40" fill="none" xmlns="http://www.w3.org/2000/svg"><path d="M36.221 10.214h-2.417a16.004 16.004 0 0 0-26.752 0H4.555A2.556 2.556 0 0 0 2 12.769v12.675A2.556 2.556 0 0 0 4.555 28h3.512a2.556 2.556 0 0 0 2.556-2.556V12.77a2.562 2.562 0 0 0-1.606-2.373 14.296 14.296 0 0 1 22.801 0 2.563 2.563 0 0 0-1.664 2.395v12.653a2.556 2.556 0 0 0 1.54 2.38 14.303 14.303 0 0 1-8.104 5.111 3.395 3.395 0 1 0 .182 1.716 16.063 16.063 0 0 0 9.894-6.659h2.555a2.556 2.556 0 0 0 2.555-2.555V12.769a2.556 2.556 0 0 0-2.555-2.555ZM8.907 25.444a.84.84 0 0 1-.84.84H4.555a.84.84 0 0 1-.84-.84V12.77a.847.847 0 0 1 .84-.84h3.512a.847.847 0 0 1 .84.84v12.675Zm11.521 10.412a1.672 1.672 0 1 1 1.672-1.672 1.68 1.68 0 0 1-1.672 1.672Zm16.618-10.412a.84.84 0 0 1-.84.84H32.71a.84.84 0 0 1-.84-.84V12.77a.847.847 0 0 1 .84-.84h3.512a.847.847 0 0 1 .825.84v12.675Z" fill="#003366"/></svg>