<svg width="40" height="40" fill="none" xmlns="http://www.w3.org/2000/svg"><path d="M19.231 13.054a.998.998 0 0 0 .037 1.417 1.022 1.022 0 0 0 1.092.198.976.976 0 0 0 .332-.235l3.84-4.045.051-.065.059-.08.05-.088.044-.08v-.183a.869.869 0 0 0 0-.387v-.183l-.043-.087-.051-.088-.059-.08-.058-.037-3.84-4.074a1.004 1.004 0 1 0-1.46 1.38l2.233 2.358H8.725a1 1 0 0 0 0 2.001h12.74l-2.234 2.358Z" fill="#003366"/><path d="m35.921 6.914-5.636-5.622a.978.978 0 0 0-.73-.292H16.93a3.818 3.818 0 0 0-3.57 2.482H7.307A3.307 3.307 0 0 0 4 6.79v25.48a3.315 3.315 0 0 0 3.307 3.315h6.017a3.818 3.818 0 0 0 3.606 2.57h15.465a3.818 3.818 0 0 0 3.818-3.811V7.629a1.037 1.037 0 0 0-.292-.73m-1.708 27.446a1.818 1.818 0 0 1-1.818 1.81H16.93a1.81 1.81 0 0 1-1.81-1.81V13.668a1 1 0 0 0-2 0v20.188H7.277A1.585 1.585 0 0 1 5.7 32.271V6.79a1.577 1.577 0 0 1 1.606-1.577h5.841v1.292a1 1 0 0 0 2.001 0V4.811a1.818 1.818 0 0 1 1.81-1.81h12.216l5.038 5.037v26.307Z" fill="#003366"/><path d="M17.143 18.216v12.785a2.701 2.701 0 0 0 2.701 2.701h9.404a2.702 2.702 0 0 0 2.701-2.701V18.216a2.701 2.701 0 0 0-2.7-2.701h-9.383a2.702 2.702 0 0 0-2.701 2.701m2.7-.693h3.725v2.19h-4.381v-1.46a.73.73 0 0 1 .694-.694m10.075 10.112H19.172V21.7h10.77l.036 5.972Zm-10.806 3.33v-1.366h4.381v2.03H19.83a.73.73 0 0 1-.693-.693m10.076.693H25.56v-2.03h4.38v1.366a.73.73 0 0 1-.73.693m.73-13.478v1.46h-4.38v-2.19h3.65a.684.684 0 0 1 .73.694" fill="#003366"/></svg>