<svg width="40" height="40" fill="none" xmlns="http://www.w3.org/2000/svg"><path d="M17.75 25v-3.925a.075.075 0 0 0-.075-.075h-3.85a.075.075 0 0 0-.075.075v11.85c0 .041.034.075.075.075h3.85a.075.075 0 0 0 .075-.075V25Zm-8.5-4.667v-6.258A.075.075 0 0 0 9.175 14h-3.85a.075.075 0 0 0-.075.075v18.85c0 .041.034.075.075.075h3.85a.075.075 0 0 0 .075-.075V20.333ZM26.252 21.5v-5.675a.075.075 0 0 0-.075-.075h-3.85a.075.075 0 0 0-.075.075v17.1c0 .041.034.075.075.075h3.85a.075.075 0 0 0 .075-.075V21.5Zm8.498-5.833V7.075A.075.075 0 0 0 34.675 7h-3.85a.075.075 0 0 0-.075.075v25.85c0 .041.034.075.075.075h3.85a.075.075 0 0 0 .075-.075V15.667Z" stroke="#003366" stroke-width="2" stroke-linecap="round"/></svg>