<svg width="40" height="40" fill="none" xmlns="http://www.w3.org/2000/svg"><path d="M24.852 36.59a8.805 8.805 0 0 0 11.054-1.218l1.244-1.218a2.992 2.992 0 0 0 0-4.179l-5.279-5.23a2.955 2.955 0 0 0-4.145 0v0a2.982 2.982 0 0 1-4.173 0l-8.29-8.304a2.934 2.934 0 0 1 0-4.18v0a2.964 2.964 0 0 0 0-4.15l-5.25-5.26a2.982 2.982 0 0 0-4.173 0L4.624 4.098a8.834 8.834 0 0 0-1.216 11.071A80.036 80.036 0 0 0 24.852 36.59v0Z" stroke="#003366" stroke-width="2" stroke-linecap="round" stroke-linejoin="round"/></svg>