<svg version="1.1" id="Layer_1" xmlns="http://www.w3.org/2000/svg" xmlns:xlink="http://www.w3.org/1999/xlink" x="0px" y="0px"
	 width="161px" height="48px" viewBox="0 0 161 48" enable-background="new 0 0 161 48" xml:space="preserve">
<path d="M6,0.5h149c3,0,5.5,2.5,5.5,5.5v36c0,3-2.5,5.5-5.5,5.5H6c-3,0-5.5-2.5-5.5-5.5V6C0.5,3,3,0.5,6,0.5z"/>
<path fill="#FFFFFF" d="M53.6,17.8H55c0.1,0,0.2,0,0.4,0c0.1,0,0.3-0.1,0.5-0.1c0.2-0.1,0.3-0.1,0.5-0.3c0.2-0.1,0.3-0.3,0.4-0.4
	c0.1-0.2,0.2-0.4,0.3-0.7c0.1-0.3,0.1-0.6,0.1-1c0-0.3,0-0.7-0.1-1c-0.1-0.3-0.2-0.5-0.4-0.8c-0.2-0.2-0.4-0.4-0.7-0.5
	c-0.3-0.1-0.6-0.2-1-0.2h-1.4C53.6,12.8,53.6,17.8,53.6,17.8z M52.7,12.1h2.2c1,0,1.8,0.3,2.3,0.8s0.8,1.3,0.8,2.3
	c0,0.5-0.1,1-0.2,1.4c-0.1,0.4-0.3,0.8-0.6,1.1c-0.3,0.3-0.6,0.5-1,0.6c-0.4,0.1-0.9,0.2-1.4,0.2h-2.2
	C52.7,18.5,52.7,12.1,52.7,12.1z M59.7,16.2c0,0.3,0,0.5,0.1,0.8c0.1,0.2,0.2,0.4,0.3,0.5c0.1,0.1,0.3,0.3,0.5,0.3
	c0.5,0.2,1.2,0.1,1.6-0.3c0.1-0.1,0.2-0.3,0.3-0.5c0.1-0.2,0.1-0.5,0.1-0.8c0-0.3,0-0.5-0.1-0.7c-0.1-0.2-0.2-0.4-0.3-0.6
	c-0.1-0.1-0.3-0.3-0.5-0.3c-0.4-0.2-0.8-0.2-1.1,0c-0.2,0.1-0.3,0.2-0.5,0.3c-0.1,0.1-0.2,0.3-0.3,0.6
	C59.7,15.7,59.6,15.9,59.7,16.2z M58.8,16.2c0-0.3,0-0.7,0.1-1c0.1-0.3,0.2-0.6,0.4-0.8c0.2-0.2,0.4-0.4,0.7-0.5
	c0.3-0.1,0.6-0.2,1-0.2c0.4,0,0.7,0.1,1,0.2c0.3,0.1,0.5,0.3,0.7,0.5c0.2,0.2,0.3,0.5,0.4,0.8c0.1,0.3,0.1,0.6,0.1,1
	c0,0.3,0,0.7-0.1,1s-0.2,0.6-0.4,0.8c-0.2,0.2-0.4,0.4-0.7,0.5c-0.3,0.1-0.6,0.2-1,0.2c-0.4,0-0.7-0.1-1-0.2
	c-0.3-0.1-0.5-0.3-0.7-0.5c-0.2-0.2-0.3-0.5-0.4-0.8C58.9,16.8,58.8,16.5,58.8,16.2z M69,18.5h-0.8l-0.9-3.7h0l-0.9,3.7h-0.8
	L64,13.8h0.8l1.1,3.8h0l0.9-3.8h0.8l1,3.8h0l1-3.8h0.8L69,18.5z M71.4,13.8h0.7v0.7h0c0.3-0.6,0.8-0.8,1.5-0.8c0.3,0,0.6,0,0.8,0.1
	c0.2,0.1,0.4,0.2,0.5,0.4c0.1,0.1,0.2,0.3,0.3,0.5c0.1,0.2,0.1,0.4,0.1,0.7v3.1h-0.8v-3.1c0-0.3-0.1-0.5-0.3-0.7s-0.4-0.3-0.7-0.3
	c-0.2,0-0.4,0-0.6,0.1c-0.2,0.1-0.3,0.2-0.4,0.3c-0.1,0.1-0.2,0.3-0.3,0.5c-0.1,0.2-0.1,0.4-0.1,0.6v2.6h-0.8
	C71.4,18.5,71.4,13.8,71.4,13.8z M76.7,12.1h0.8v6.4h-0.8C76.7,18.5,76.7,12.1,76.7,12.1z M79.4,16.2c0,0.3,0,0.5,0.1,0.8
	c0.1,0.2,0.2,0.4,0.3,0.5c0.1,0.1,0.3,0.3,0.5,0.3c0.5,0.2,1.2,0.1,1.6-0.3c0.1-0.1,0.2-0.3,0.3-0.5c0.1-0.2,0.1-0.5,0.1-0.8
	c0-0.3,0-0.5-0.1-0.7c-0.1-0.2-0.2-0.4-0.3-0.6c-0.1-0.1-0.3-0.3-0.5-0.3c-0.4-0.2-0.8-0.2-1.1,0c-0.2,0.1-0.3,0.2-0.5,0.3
	c-0.1,0.1-0.2,0.3-0.3,0.6C79.4,15.7,79.4,15.9,79.4,16.2z M78.5,16.2c0-0.3,0-0.7,0.1-1c0.1-0.3,0.2-0.6,0.4-0.8
	c0.2-0.2,0.4-0.4,0.7-0.5c0.3-0.1,0.6-0.2,1-0.2c0.4,0,0.7,0.1,1,0.2c0.3,0.1,0.5,0.3,0.7,0.5c0.2,0.2,0.3,0.5,0.4,0.8
	c0.1,0.3,0.1,0.6,0.1,1c0,0.3,0,0.7-0.1,1s-0.2,0.6-0.4,0.8c-0.2,0.2-0.4,0.4-0.7,0.5c-0.3,0.1-0.6,0.2-1,0.2c-0.4,0-0.7-0.1-1-0.2
	c-0.3-0.1-0.5-0.3-0.7-0.5c-0.2-0.2-0.3-0.5-0.4-0.8C78.6,16.8,78.5,16.5,78.5,16.2z M88.3,18.5c-0.1,0.1-0.3,0.1-0.5,0.1
	c-0.2,0-0.3,0-0.5-0.2c-0.1-0.1-0.2-0.3-0.2-0.5c-0.2,0.3-0.5,0.4-0.7,0.5c-0.3,0.1-0.6,0.2-0.9,0.2c-0.2,0-0.4,0-0.6-0.1
	c-0.2,0-0.3-0.1-0.5-0.2c-0.1-0.1-0.3-0.2-0.3-0.4c-0.1-0.2-0.1-0.4-0.1-0.6c0-0.3,0-0.5,0.1-0.6c0.1-0.2,0.2-0.3,0.4-0.4
	c0.2-0.1,0.3-0.2,0.5-0.2c0.2-0.1,0.4-0.1,0.6-0.1c0.2,0,0.4-0.1,0.6-0.1c0.2,0,0.3-0.1,0.5-0.1c0.1,0,0.2-0.1,0.3-0.2
	c0.1-0.1,0.1-0.2,0.1-0.3c0-0.1,0-0.3-0.1-0.4c-0.1-0.1-0.1-0.2-0.2-0.2c-0.1-0.1-0.2-0.1-0.3-0.1c-0.1,0-0.2,0-0.4,0
	c-0.3,0-0.6,0.1-0.8,0.2c-0.2,0.1-0.3,0.4-0.3,0.7h-0.8c0-0.3,0.1-0.5,0.2-0.7s0.3-0.4,0.4-0.5c0.2-0.1,0.4-0.2,0.6-0.3
	c0.2-0.1,0.5-0.1,0.7-0.1c0.2,0,0.4,0,0.6,0c0.2,0,0.4,0.1,0.6,0.2c0.2,0.1,0.3,0.2,0.4,0.4s0.2,0.4,0.2,0.7v2.4c0,0.2,0,0.3,0,0.4
	c0,0.1,0.1,0.1,0.2,0.1c0.1,0,0.2,0,0.2,0L88.3,18.5L88.3,18.5z M87,16.1c-0.1,0.1-0.2,0.1-0.4,0.2c-0.2,0-0.3,0.1-0.5,0.1
	c-0.2,0-0.3,0-0.5,0.1c-0.2,0-0.3,0.1-0.5,0.1c-0.1,0.1-0.3,0.1-0.3,0.3c-0.1,0.1-0.1,0.3-0.1,0.5c0,0.1,0,0.2,0.1,0.3
	c0.1,0.1,0.1,0.2,0.2,0.2c0.1,0.1,0.2,0.1,0.3,0.1s0.2,0,0.3,0c0.3,0,0.5,0,0.6-0.1c0.2-0.1,0.3-0.2,0.4-0.3
	c0.1-0.1,0.2-0.2,0.3-0.3C87,17.1,87,17,87,16.9C87,16.9,87,16.1,87,16.1z M89.7,16.2c0,0.2,0,0.4,0.1,0.6c0.1,0.2,0.1,0.4,0.3,0.5
	c0.1,0.2,0.3,0.3,0.4,0.4c0.2,0.1,0.4,0.1,0.6,0.1c0.3,0,0.5-0.1,0.7-0.2s0.3-0.2,0.4-0.4c0.1-0.2,0.2-0.4,0.2-0.6
	c0.1-0.4,0.1-0.9,0-1.3c0-0.2-0.1-0.4-0.3-0.6c-0.1-0.2-0.3-0.3-0.4-0.4c-0.2-0.1-0.4-0.2-0.7-0.2c-0.3,0-0.5,0.1-0.7,0.2
	S90.1,14.8,90,15c-0.1,0.2-0.2,0.4-0.2,0.6C89.7,15.8,89.7,16,89.7,16.2z M93.3,18.5h-0.8v-0.6h0c-0.1,0.3-0.3,0.5-0.6,0.6
	c-0.3,0.1-0.6,0.2-0.9,0.2c-0.4,0-0.7-0.1-0.9-0.2c-0.3-0.1-0.5-0.3-0.7-0.5c-0.2-0.2-0.3-0.5-0.4-0.8c-0.1-0.3-0.1-0.6-0.1-0.9
	c0-0.3,0-0.6,0.1-0.9c0.1-0.3,0.2-0.5,0.4-0.8c0.2-0.2,0.4-0.4,0.7-0.5c0.3-0.1,0.6-0.2,0.9-0.2c0.1,0,0.3,0,0.4,0
	c0.1,0,0.3,0.1,0.4,0.1c0.1,0.1,0.3,0.1,0.4,0.2c0.1,0.1,0.2,0.2,0.3,0.3h0v-2.4h0.8C93.3,12.1,93.3,18.5,93.3,18.5z M97.9,16.2
	c0,0.3,0,0.5,0.1,0.8c0.1,0.2,0.2,0.4,0.3,0.5c0.1,0.1,0.3,0.3,0.5,0.3c0.5,0.2,1.2,0.1,1.6-0.3c0.1-0.1,0.2-0.3,0.3-0.5
	c0.1-0.2,0.1-0.5,0.1-0.8c0-0.3,0-0.5-0.1-0.7c-0.1-0.2-0.2-0.4-0.3-0.6c-0.1-0.1-0.3-0.3-0.5-0.3c-0.4-0.2-0.8-0.2-1.1,0
	c-0.2,0.1-0.3,0.2-0.5,0.3c-0.1,0.1-0.2,0.3-0.3,0.6C97.9,15.7,97.9,15.9,97.9,16.2z M97.1,16.2c0-0.3,0-0.7,0.1-1
	c0.1-0.3,0.2-0.6,0.4-0.8c0.2-0.2,0.4-0.4,0.7-0.5c0.3-0.1,0.6-0.2,1-0.2c0.4,0,0.7,0.1,1,0.2c0.3,0.1,0.5,0.3,0.7,0.5
	c0.2,0.2,0.3,0.5,0.4,0.8c0.1,0.3,0.1,0.6,0.1,1c0,0.3,0,0.7-0.1,1s-0.2,0.6-0.4,0.8c-0.2,0.2-0.4,0.4-0.7,0.5
	c-0.3,0.1-0.6,0.2-1,0.2c-0.4,0-0.7-0.1-1-0.2c-0.3-0.1-0.5-0.3-0.7-0.5c-0.2-0.2-0.3-0.5-0.4-0.8C97.2,16.8,97.1,16.5,97.1,16.2z
	 M102.7,13.8h0.7v0.7h0c0.3-0.6,0.8-0.8,1.5-0.8c0.3,0,0.6,0,0.8,0.1c0.2,0.1,0.4,0.2,0.5,0.4s0.2,0.3,0.3,0.5
	c0.1,0.2,0.1,0.4,0.1,0.7v3.1h-0.8v-3.1c0-0.3-0.1-0.5-0.3-0.7s-0.4-0.3-0.7-0.3c-0.2,0-0.4,0-0.6,0.1c-0.2,0.1-0.3,0.2-0.4,0.3
	c-0.1,0.1-0.2,0.3-0.3,0.5c-0.1,0.2-0.1,0.4-0.1,0.6v2.6h-0.8C102.7,18.5,102.7,13.8,102.7,13.8z M111.6,13.8h0.9v0.7h-0.9v2.9
	c0,0.1,0,0.2,0,0.2c0,0.1,0,0.1,0.1,0.1c0,0,0.1,0.1,0.2,0.1c0.1,0,0.2,0,0.3,0h0.4v0.7H112c-0.2,0-0.4,0-0.5,0
	c-0.1,0-0.2-0.1-0.3-0.2c-0.1-0.1-0.2-0.2-0.2-0.3c0-0.2-0.1-0.3-0.1-0.5v-3h-0.8v-0.7h0.8v-1.4h0.8L111.6,13.8L111.6,13.8z
	 M113.6,12.1h0.8v2.5h0c0.1-0.1,0.1-0.3,0.3-0.4c0.1-0.1,0.2-0.2,0.4-0.2c0.1-0.1,0.3-0.1,0.4-0.1c0.2,0,0.3,0,0.4,0
	c0.3,0,0.6,0,0.8,0.1c0.2,0.1,0.4,0.2,0.5,0.4s0.2,0.3,0.3,0.5c0.1,0.2,0.1,0.4,0.1,0.7v3.1h-0.8v-3.1c0-0.3-0.1-0.5-0.3-0.7
	s-0.4-0.3-0.7-0.3c-0.2,0-0.4,0-0.6,0.1c-0.2,0.1-0.3,0.2-0.4,0.3c-0.1,0.1-0.2,0.3-0.3,0.5c-0.1,0.2-0.1,0.4-0.1,0.6v2.6h-0.8
	C113.6,18.5,113.6,12.1,113.6,12.1z M122,15.7c0-0.2-0.1-0.4-0.1-0.5c-0.1-0.2-0.2-0.3-0.3-0.4c-0.1-0.1-0.3-0.2-0.4-0.3
	c-0.2-0.1-0.3-0.1-0.5-0.1c-0.2,0-0.4,0-0.5,0.1c-0.2,0.1-0.3,0.2-0.4,0.3c-0.1,0.1-0.2,0.3-0.3,0.4c-0.1,0.2-0.1,0.3-0.1,0.5
	C119.3,15.7,122,15.7,122,15.7z M122.7,17c-0.1,0.5-0.3,0.9-0.7,1.2s-0.8,0.4-1.3,0.4c-0.4,0-0.7-0.1-1-0.2
	c-0.3-0.1-0.5-0.3-0.7-0.5c-0.2-0.2-0.3-0.5-0.4-0.8c-0.1-0.3-0.1-0.6-0.2-1c0-0.3,0.1-0.7,0.2-1c0.1-0.3,0.3-0.5,0.4-0.8
	c0.2-0.2,0.4-0.4,0.7-0.5c0.3-0.1,0.6-0.2,0.9-0.2c0.4,0,0.8,0.1,1,0.3c0.3,0.2,0.5,0.4,0.7,0.6c0.2,0.3,0.3,0.6,0.3,0.9
	c0.1,0.3,0.1,0.6,0.1,0.9h-3.5c0,0.2,0,0.4,0.1,0.6c0.1,0.2,0.1,0.3,0.3,0.5c0.1,0.1,0.3,0.2,0.5,0.3s0.4,0.1,0.7,0.1
	c0.3,0,0.6-0.1,0.8-0.2c0.2-0.1,0.3-0.4,0.4-0.7C122,17,122.7,17,122.7,17z M59.6,30.4c2.2-0.6,3.6-2.2,3.6-4.4
	c0-2.7-2.1-4.6-5.1-4.6h-5.3v14.5h2.5v-5.3h1.7l3.8,5.3h2.9L59.6,30.4L59.6,30.4z M58,23.7c1.5,0,2.6,0.9,2.6,2.3
	c0,1.4-1.1,2.3-2.6,2.3h-2.9v-4.6L58,23.7L58,23.7z M69.2,36.1c1.3,0,2.5-0.7,3.2-1.8l0.5,1.6h1.8V25.2h-2.4v6.2
	c0,1.5-1,2.6-2.4,2.6s-2.3-1.1-2.3-2.6v-6.2h-2.4v6.4C65.2,34.2,66.9,36.1,69.2,36.1z M82.1,36.1c2.7,0,5-1.6,5-4.1
	c0-2.9-2.4-3.7-4.4-4.4c-1.6-0.5-3-1-3-2.3c0-1.1,1-1.7,2.3-1.7c1.3,0,2.2,0.7,2.7,1.8l2.3-0.4c-0.7-2.3-2.6-3.7-5.2-3.7
	s-4.7,1.5-4.7,4.1c0,2.9,2.4,3.7,4.4,4.4c1.6,0.5,3,1,3,2.3c0,1.2-1,1.8-2.4,1.8c-1.6,0-2.5-0.8-3.2-2.1l-2.4,0.4
	C77.2,34.5,79.4,36.1,82.1,36.1z M93.5,33.8c-0.8,0-1.2-0.4-1.2-1.2v-5.4h3.2v-2.1h-3.2v-3.1h-1.8L90,25.2h-1.7v2.1H90v5.4
	c0,2.1,1.2,3.2,3.6,3.2h2l0.2-2.1H93.5z M102.4,36.1c3.3,0,5.7-2.3,5.7-5.5c0-3.2-2.4-5.5-5.7-5.5c-3.3,0-5.7,2.3-5.7,5.5
	C96.7,33.8,99.1,36.1,102.4,36.1z M102.4,33.9c-1.9,0-3.2-1.4-3.2-3.4c0-2,1.3-3.4,3.2-3.4c1.9,0,3.2,1.4,3.2,3.4
	C105.7,32.6,104.4,33.9,102.4,33.9z M112.6,35.9v-6.3c0-1.4,0.7-2.1,2.1-2.1h1.4l-0.2-2.3h-0.5c-1.3,0-2.2,0.3-2.9,1.5l-0.5-1.5
	h-1.8v10.7H112.6z M127.6,30.4c0-3.1-2.3-5.4-5.5-5.4c-3.2,0-5.5,2.3-5.5,5.5c0,3.2,2.3,5.5,5.5,5.5c2.2,0,4.3-1,5.1-3.1l-2.2-0.4
	c-0.5,0.8-1.5,1.3-2.7,1.3c-1.8,0-3-1.1-3.2-2.7h8.6C127.6,31,127.6,30.7,127.6,30.4 M122.1,27.1c1.5,0,2.6,0.9,3,2.3h-5.9
	C119.5,28,120.7,27.1,122.1,27.1"/>
<path fill="none" stroke="#A6A6A6" d="M6,0.5h149c3,0,5.5,2.5,5.5,5.5v36c0,3-2.5,5.5-5.5,5.5H6c-3,0-5.5-2.5-5.5-5.5V6
	C0.5,3,3,0.5,6,0.5z"/>
<path fill="#0077FF" d="M10.9,36.1c2,2,5.2,2,11.7,2h1.1c6.5,0,9.7,0,11.7-2s2-5.2,2-11.7v-1.1c0-6.5,0-9.7-2-11.7
	c-2-2-5.2-2-11.7-2h-1.1c-6.5,0-9.7,0-11.7,2c-2,2-2,5.2-2,11.7v1.1C8.9,30.9,8.9,34.1,10.9,36.1z"/>
<path fill="#FFFFFF" d="M30.9,28.5L29,28c-0.2-0.1-0.4-0.3-0.4-0.5l-0.2-7.1c-0.1-0.9-0.8-1.7-1.5-1.9c0,0-0.1,0-0.1,0
	c0,0,0,0.1,0,0.1c0.2,0.1,0.7,0.6,0.7,1.4v9.3c0,0.9-0.9,1.6-1.7,1.3l-2-0.5c-0.2-0.1-0.4-0.3-0.4-0.5l-0.2-7.1
	c-0.1-0.9-0.8-1.7-1.5-1.9c0,0-0.1,0-0.1,0c0,0,0,0.1,0,0.1c0.2,0.1,0.7,0.6,0.7,1.4v7.7v1.5c0,0.9-0.8,1.6-1.7,1.3L15,31.4
	c-0.8-0.2-1.3-0.9-1.3-1.7v-9.3c0-0.9,0.8-1.6,1.7-1.3l3.5,0.9v-1.7c0-0.9,0.8-1.6,1.7-1.3l3.5,0.9v-1.7c0-0.9,0.8-1.6,1.7-1.3
	l5.5,1.4c0.8,0.2,1.3,0.9,1.3,1.7v9.3C32.7,28.1,31.8,28.7,30.9,28.5"/>
</svg>
