<svg width="145" height="44" viewBox="0 0 145 44" fill="none" xmlns="http://www.w3.org/2000/svg">
<g clip-path="url(#clip0_1702_2052)">
<path d="M140.004 0.276428H5.55448C2.58431 0.276428 0.176514 2.70792 0.176514 5.70733V38.2927C0.176514 41.2921 2.58431 43.7236 5.55448 43.7236H140.004C142.974 43.7236 145.382 41.2921 145.382 38.2927V5.70733C145.382 2.70792 142.974 0.276428 140.004 0.276428Z" fill="black"/>
<path d="M140.004 1.14537C141.202 1.14537 142.351 1.626 143.198 2.48154C144.045 3.33707 144.521 4.49742 144.521 5.70733V38.2927C144.521 39.5026 144.045 40.663 143.198 41.5185C142.351 42.374 141.202 42.8547 140.004 42.8547H5.55448C4.35637 42.8547 3.20732 42.374 2.36013 41.5185C1.51294 40.663 1.03699 39.5026 1.03699 38.2927V5.70733C1.03699 4.49742 1.51294 3.33707 2.36013 2.48154C3.20732 1.626 4.35637 1.14537 5.55448 1.14537H140.004ZM140.004 0.276428H5.55448C4.12815 0.276428 2.76025 0.848611 1.75168 1.8671C0.743119 2.88559 0.176514 4.26696 0.176514 5.70733V38.2927C0.176514 39.7331 0.743119 41.1144 1.75168 42.1329C2.76025 43.1514 4.12815 43.7236 5.55448 43.7236H140.004C141.43 43.7236 142.798 43.1514 143.806 42.1329C144.815 41.1144 145.382 39.7331 145.382 38.2927V5.70733C145.382 4.26696 144.815 2.88559 143.806 1.8671C142.798 0.848611 141.43 0.276428 140.004 0.276428Z" fill="#B0ADAB"/>
<g clip-path="url(#clip1_1702_2052)">
<path fill-rule="evenodd" clip-rule="evenodd" d="M28.1162 37.2317C21.3184 37.2317 17.9194 37.2317 15.8076 35.1254C13.6958 33.0191 13.6958 29.6291 13.6958 22.8491L13.6958 21.6505C13.6958 14.8705 13.6958 11.4805 15.8076 9.37425C17.9194 7.2681 21.3184 7.2681 28.1161 7.2681L29.3179 7.2681C36.1157 7.2681 39.5146 7.2681 41.6264 9.37424C43.7382 11.4805 43.7382 14.8705 43.7382 21.6505V22.8491C43.7382 29.6291 43.7382 33.0191 41.6264 35.1254C39.5146 37.2317 36.1157 37.2317 29.3179 37.2317H28.1162Z" fill="#0077FF"/>
<path d="M31.0954 25.7458C30.2858 25.5436 29.718 24.8199 29.718 23.9898V14.2105C29.718 13.2676 30.6096 12.5762 31.5293 12.8057L37.3533 14.2595C38.163 14.4616 38.7307 15.1853 38.7307 16.0154V25.7948C38.7307 26.7376 37.8391 27.4291 36.9195 27.1995L31.0954 25.7458Z" fill="white"/>
<path d="M20.0801 30.2404C19.2704 30.0382 18.7026 29.3145 18.7026 28.4844V18.7051C18.7026 17.7622 19.5942 17.0708 20.5139 17.3003L26.3379 18.7541C27.1476 18.9562 27.7154 19.6799 27.7154 20.51V30.2894C27.7154 31.2322 26.8238 31.9237 25.9041 31.6941L20.0801 30.2404Z" fill="white"/>
<path d="M25.5884 28.2427C24.7787 28.0405 24.2109 27.3168 24.2109 26.4867V16.7074C24.2109 15.7646 25.1025 15.0731 26.0222 15.3026L31.8462 16.7564C32.6559 16.9585 33.2237 17.6823 33.2237 18.5124V28.2917C33.2237 29.2345 32.3321 29.926 31.4124 29.6964L25.5884 28.2427Z" fill="white"/>
<path d="M29.2179 28.742C28.9522 28.6773 28.7631 28.453 28.7538 28.1913L28.4898 20.7556C28.4134 19.7715 27.6484 18.9888 26.8489 18.7584C26.804 18.7454 26.7561 18.7628 26.7295 18.7997C26.7025 18.8372 26.7129 18.8891 26.7506 18.9169C26.948 19.0628 27.4914 19.5391 27.4914 20.3604L27.4898 28.3238L29.2179 28.742Z" fill="#0077FF"/>
<path d="M34.7262 26.7443C34.4607 26.6808 34.2713 26.4571 34.2621 26.1958L33.998 18.7585C33.9217 17.7741 33.1567 16.9912 32.3572 16.7607C32.3123 16.7477 32.2644 16.7652 32.2378 16.802C32.2108 16.8395 32.2212 16.8914 32.2589 16.9193C32.4563 17.0653 32.9997 17.5416 32.9997 18.3632L32.9981 26.3316L34.7262 26.7443Z" fill="#0077FF"/>
<path d="M61.0258 29.5386C63.2987 28.9648 64.7923 27.2435 64.7923 24.9909C64.7923 22.2071 62.5408 20.252 59.3804 20.252H53.7522V35.2338H56.3499V29.7299H58.19L62.2161 35.2338H65.2685L61.0258 29.5386ZM59.3804 22.5896C61.0039 22.5896 62.1298 23.5671 62.1298 24.9909C62.1298 26.4147 61.0039 27.3923 59.3804 27.3923H56.3499V22.5896H59.3804Z" fill="white"/>
<path d="M71.0341 35.7331C72.4115 35.7331 73.6796 35.0179 74.4013 33.8259L74.904 35.5164H76.7847V24.247H74.2701V30.7702C74.2701 32.3739 73.1987 33.5009 71.7338 33.5009C70.2907 33.5009 69.2847 32.3739 69.2847 30.7702V24.247H66.7705V31.052C66.7705 33.7609 68.6071 35.7331 71.0341 35.7331Z" fill="white"/>
<path d="M84.6054 35.7332C87.4501 35.7332 89.8032 34.1103 89.8032 31.4198C89.8032 28.409 87.3433 27.5335 85.2259 26.8075C83.5789 26.2523 82.1459 25.7399 82.1459 24.3946C82.1459 23.2201 83.2365 22.6009 84.5198 22.6009C85.8675 22.6009 86.83 23.3055 87.3649 24.5013L89.8032 24.0957C89.0331 21.7468 87.0865 20.252 84.4346 20.252C81.6967 20.252 79.5149 21.8322 79.5149 24.5227C79.5149 27.5549 81.9747 28.3877 84.0922 29.0923C85.7179 29.6262 87.1721 30.1386 87.1721 31.5052C87.1721 32.701 86.0815 33.3843 84.627 33.3843C82.9585 33.3843 82.0603 32.5943 81.269 31.1636L78.7876 31.5907C79.5149 34.1317 81.8251 35.7332 84.6054 35.7332Z" fill="white"/>
<path d="M96.4672 33.5717C95.6112 33.5717 95.1942 33.161 95.1942 32.318V26.6548H98.5961V24.4932H95.1942V21.2509H93.3066L92.6699 24.4932H90.8044V26.6548H92.6699V32.318C92.6699 34.5228 93.965 35.7333 96.4672 35.7333H98.5961L98.8158 33.5717H96.4672Z" fill="white"/>
<path d="M105.826 35.7331C109.349 35.7331 111.834 33.3508 111.834 29.9901C111.834 26.6293 109.349 24.247 105.826 24.247C102.303 24.247 99.8171 26.6293 99.8171 29.9901C99.8171 33.3508 102.303 35.7331 105.826 35.7331ZM105.826 33.4997C103.794 33.4997 102.411 32.0746 102.411 29.9901C102.411 27.9055 103.794 26.4804 105.826 26.4804C107.858 26.4804 109.24 27.9055 109.24 29.9901C109.24 32.0746 107.858 33.4997 105.826 33.4997Z" fill="white"/>
<path d="M116.278 35.2337V28.7473C116.278 27.3529 116.958 26.5711 118.444 26.5711H119.845L119.633 24.247H119.166C117.871 24.247 116.873 24.6062 116.13 25.8316L115.663 24.247H113.837V35.2337H116.278Z" fill="white"/>
<path d="M132.363 29.8624C132.363 26.6719 129.975 24.247 126.605 24.247C123.236 24.247 120.847 26.6506 120.847 29.9901C120.847 33.3295 123.236 35.7331 126.605 35.7331C128.909 35.7331 131.084 34.6483 131.916 32.5425L129.612 32.1596C129.079 32.9466 128.055 33.4997 126.755 33.4997C124.878 33.4997 123.641 32.3511 123.406 30.6494H132.321C132.342 30.4154 132.363 30.1602 132.363 29.8624ZM126.605 26.3741C128.141 26.3741 129.292 27.3525 129.698 28.7351H123.556C123.961 27.31 125.112 26.3741 126.605 26.3741Z" fill="white"/>
<path d="M53.7529 17.0336V14.7863H53.896C54.0815 14.7863 54.2299 14.7397 54.3411 14.6464C54.4524 14.5531 54.5452 14.3665 54.6193 14.0866C54.6988 13.8012 54.7598 13.3814 54.8022 12.8271L55.0327 9.76494H58.5619V14.7863H59.3807V17.0336H58.5619V15.5683H54.5717V17.0336H53.7529ZM57.7432 14.7863V10.547H55.7878L55.6209 12.8683C55.5573 13.7958 55.393 14.4351 55.1281 14.7863H57.7432Z" fill="white"/>
<path d="M61.9833 15.6506C61.5646 15.6506 61.191 15.5573 60.8625 15.3708C60.5339 15.1842 60.2769 14.9235 60.0915 14.5887C59.906 14.254 59.8132 13.8726 59.8132 13.4445C59.8132 13.0165 59.906 12.6351 60.0915 12.3003C60.2769 11.9656 60.5339 11.7049 60.8625 11.5183C61.191 11.3262 61.5646 11.2302 61.9833 11.2302C62.4019 11.2302 62.7755 11.3262 63.104 11.5183C63.4326 11.7049 63.6896 11.9656 63.8751 12.3003C64.0605 12.6351 64.1533 13.0165 64.1533 13.4445C64.1533 13.8726 64.0605 14.254 63.8751 14.5887C63.6896 14.9235 63.4326 15.1842 63.104 15.3708C62.7755 15.5573 62.4019 15.6506 61.9833 15.6506ZM61.9833 14.9098C62.386 14.9098 62.7119 14.7753 62.961 14.5064C63.2153 14.2375 63.3425 13.8836 63.3425 13.4445C63.3425 13.0055 63.2153 12.6515 62.961 12.3826C62.7119 12.1082 62.386 11.971 61.9833 11.971C61.5805 11.971 61.2546 12.1082 61.0056 12.3826C60.7565 12.6515 60.632 13.0055 60.632 13.4445C60.632 13.8781 60.7565 14.232 61.0056 14.5064C61.2546 14.7753 61.5805 14.9098 61.9833 14.9098Z" fill="white"/>
<path d="M66.8805 15.6506C66.4724 15.6506 66.1041 15.5573 65.7756 15.3708C65.4523 15.1787 65.2006 14.9153 65.0204 14.5805C64.8403 14.2458 64.7502 13.8671 64.7502 13.4445C64.7502 13.0165 64.8403 12.6351 65.0204 12.3003C65.2006 11.9656 65.4523 11.7049 65.7756 11.5183C66.0988 11.3262 66.4671 11.2302 66.8805 11.2302C67.3203 11.2302 67.7124 11.3399 68.0569 11.5595C68.4066 11.779 68.6557 12.0945 68.8041 12.5061L68.0728 12.6296C67.9774 12.432 67.8264 12.2729 67.6197 12.1521C67.4183 12.0314 67.1878 11.971 66.9281 11.971C66.5254 11.971 66.1969 12.1082 65.9425 12.3826C65.6934 12.657 65.5689 13.011 65.5689 13.4445C65.5689 13.8781 65.6934 14.232 65.9425 14.5064C66.1969 14.7753 66.5254 14.9098 66.9281 14.9098C67.1984 14.9098 67.4369 14.8467 67.6435 14.7205C67.8555 14.5942 68.0092 14.4269 68.1046 14.2183L68.8359 14.3418C68.6875 14.7589 68.4331 15.0826 68.0728 15.3131C67.7177 15.5381 67.3203 15.6506 66.8805 15.6506Z" fill="white"/>
<path d="M71.2409 15.5683H70.4619V12.0534H69.0391V11.3125H72.6637V12.0534H71.2409V15.5683Z" fill="white"/>
<path d="M76.3438 11.3125H77.1467L75.4297 16.2104C75.3026 16.5781 75.1356 16.8442 74.929 17.0089C74.7223 17.1735 74.4467 17.2558 74.1023 17.2558H73.4902L73.4187 16.515H74.15C74.3037 16.515 74.4229 16.4793 74.5077 16.408C74.5925 16.3421 74.664 16.2241 74.7223 16.054L74.8097 15.807L72.9815 11.3125H73.8161L75.1197 14.597H75.231L76.3438 11.3125Z" fill="white"/>
<path d="M78.63 15.5683H77.8511V11.3125H81.3485V15.5683H80.5695V12.0534H78.63V15.5683Z" fill="white"/>
<path d="M85.1814 13.0494V11.3125H85.9604V15.5683H85.1814V13.7903H83.2021V15.5683H82.4232V11.3125H83.2021V13.0494H85.1814Z" fill="white"/>
<path d="M88.9656 15.6506C88.547 15.6506 88.1734 15.5573 87.8449 15.3708C87.5163 15.1842 87.2593 14.9235 87.0738 14.5887C86.8884 14.254 86.7956 13.8726 86.7956 13.4445C86.7956 13.0165 86.8884 12.6351 87.0738 12.3003C87.2593 11.9656 87.5163 11.7049 87.8449 11.5183C88.1734 11.3262 88.547 11.2302 88.9656 11.2302C89.3843 11.2302 89.7579 11.3262 90.0864 11.5183C90.415 11.7049 90.672 11.9656 90.8574 12.3003C91.0429 12.6351 91.1356 13.0165 91.1356 13.4445C91.1356 13.8726 91.0429 14.254 90.8574 14.5887C90.672 14.9235 90.415 15.1842 90.0864 15.3708C89.7579 15.5573 89.3843 15.6506 88.9656 15.6506ZM88.9656 14.9098C89.3684 14.9098 89.6943 14.7753 89.9433 14.5064C90.1977 14.2375 90.3249 13.8836 90.3249 13.4445C90.3249 13.0055 90.1977 12.6515 89.9433 12.3826C89.6943 12.1082 89.3684 11.971 88.9656 11.971C88.5629 11.971 88.237 12.1082 87.9879 12.3826C87.7389 12.6515 87.6143 13.0055 87.6143 13.4445C87.6143 13.8781 87.7389 14.232 87.9879 14.5064C88.237 14.7753 88.5629 14.9098 88.9656 14.9098Z" fill="white"/>
<path d="M96.607 13.3375C96.819 13.4198 96.9886 13.5543 97.1157 13.7409C97.2482 13.922 97.3145 14.136 97.3145 14.383C97.3145 14.608 97.2509 14.811 97.1237 14.9921C97.0018 15.1732 96.8296 15.3159 96.607 15.4202C96.3844 15.5189 96.1301 15.5683 95.8439 15.5683H93.8806V11.3125H95.7724C96.0426 11.3125 96.2838 11.3619 96.4957 11.4607C96.7077 11.5595 96.872 11.6939 96.9886 11.864C97.1104 12.0342 97.1714 12.229 97.1714 12.4485C97.1714 12.657 97.121 12.8381 97.0203 12.9918C96.925 13.14 96.7872 13.2552 96.607 13.3375ZM94.6596 11.9957V13.0412H95.7724C95.9526 13.0412 96.1009 12.9945 96.2175 12.9012C96.3341 12.8025 96.3924 12.6762 96.3924 12.5226C96.3924 12.3689 96.3341 12.2427 96.2175 12.1439C96.1009 12.0451 95.9526 11.9957 95.7724 11.9957H94.6596ZM95.8439 14.8851C96.0506 14.8851 96.2175 14.8302 96.3447 14.7205C96.4719 14.6107 96.5355 14.468 96.5355 14.2924C96.5355 14.1168 96.4719 13.9741 96.3447 13.8644C96.2175 13.7546 96.0506 13.6997 95.8439 13.6997H94.6596V14.8851H95.8439Z" fill="white"/>
</g>
</g>
<defs>
<clipPath id="clip0_1702_2052">
<rect width="144.824" height="43.4472" fill="white" transform="translate(0.176025 0.276428)"/>
</clipPath>
<clipPath id="clip1_1702_2052">
<rect width="118.668" height="29.9636" fill="white" transform="translate(13.6958 7.26793)"/>
</clipPath>
</defs>
</svg>
