<svg width="119" height="31" viewBox="0 0 119 31" fill="none" xmlns="http://www.w3.org/2000/svg">
<g clip-path="url(#clip0_2059_13835)">
<path fill-rule="evenodd" clip-rule="evenodd" d="M14.5866 30.4816C7.78881 30.4816 4.38988 30.4816 2.27808 28.3754C0.16626 26.2691 0.16626 22.8791 0.16626 16.0991L0.16626 14.9005C0.166259 8.1205 0.166259 4.7305 2.27807 2.62422C4.38988 0.518067 7.78881 0.518067 14.5866 0.518066L15.7883 0.518066C22.5861 0.518066 25.9851 0.518066 28.0969 2.62421C30.2087 4.73047 30.2087 8.1205 30.2087 14.9005V16.0991C30.2087 22.8791 30.2087 26.2691 28.0969 28.3754C25.9851 30.4816 22.5861 30.4816 15.7883 30.4816H14.5866Z" fill="#0077FF"/>
<path d="M17.5671 18.996C16.7574 18.7939 16.1897 18.0702 16.1897 17.2401V7.46075C16.1897 6.51793 17.0813 5.82647 18.001 6.05602L23.825 7.50979C24.6347 7.71188 25.2024 8.43562 25.2024 9.2657V19.045C25.2024 19.9879 24.3108 20.6794 23.3912 20.4498L17.5671 18.996Z" fill="white"/>
<path d="M6.5515 23.4907C5.74179 23.2886 5.17407 22.5648 5.17407 21.7347V11.9554C5.17407 11.0126 6.06564 10.3211 6.98531 10.5507L12.8094 12.0044C13.619 12.2065 14.1868 12.9303 14.1868 13.7603V23.5397C14.1868 24.4825 13.2952 25.174 12.3755 24.9444L6.5515 23.4907Z" fill="white"/>
<path d="M12.0593 21.4931C11.2496 21.291 10.6819 20.5672 10.6819 19.7372V9.95786C10.6819 9.01503 11.5735 8.32354 12.4932 8.55309L18.3172 10.0069C19.1269 10.209 19.6946 10.9327 19.6946 11.7628V21.5421C19.6946 22.485 18.803 23.1764 17.8833 22.9469L12.0593 21.4931Z" fill="white"/>
<path d="M15.6891 21.9923C15.4234 21.9276 15.2342 21.7033 15.225 21.4416L14.961 14.0059C14.8846 13.0218 14.1196 12.2391 13.3201 12.0086C13.2752 11.9957 13.2273 12.0131 13.2007 12.05C13.1737 12.0875 13.1841 12.1393 13.2218 12.1672C13.4192 12.3131 13.9626 12.7893 13.9626 13.6107L13.961 21.5741L15.6891 21.9923Z" fill="#0077FF"/>
<path d="M21.1971 19.9947C20.9316 19.9312 20.7423 19.7075 20.733 19.4462L20.469 12.0089C20.3926 11.0245 19.6276 10.2416 18.8281 10.0111C18.7833 9.99814 18.7353 10.0156 18.7087 10.0524C18.6817 10.0899 18.6922 10.1418 18.7298 10.1697C18.9272 10.3157 19.4706 10.792 19.4706 11.6136L19.469 19.582L21.1971 19.9947Z" fill="#0077FF"/>
<path d="M47.4962 22.789C49.7692 22.2152 51.2628 20.4939 51.2628 18.2414C51.2628 15.4575 49.0113 13.5024 45.8508 13.5024H40.2227V28.4842H42.8203V22.9803H44.6605L48.6866 28.4842H51.7389L47.4962 22.789ZM45.8508 15.84C47.4744 15.84 48.6003 16.8175 48.6003 18.2414C48.6003 19.6651 47.4744 20.6427 45.8508 20.6427H42.8203V15.84H45.8508Z" fill="white"/>
<path d="M57.5039 28.9836C58.8812 28.9836 60.1493 28.2684 60.8711 27.0765L61.3737 28.7669H63.2544V17.4976H60.7398V24.0208C60.7398 25.6245 59.6684 26.7514 58.2036 26.7514C56.7604 26.7514 55.7544 25.6245 55.7544 24.0208V17.4976H53.2402V24.3025C53.2402 27.0115 55.0768 28.9836 57.5039 28.9836Z" fill="white"/>
<path d="M71.0754 28.9836C73.9201 28.9836 76.2731 27.3608 76.2731 24.6702C76.2731 21.6594 73.8133 20.7839 71.6958 20.0579C70.0489 19.5028 68.6159 18.9903 68.6159 17.645C68.6159 16.4705 69.7065 15.8513 70.9898 15.8513C72.3375 15.8513 73.3 16.556 73.8348 17.7518L76.2731 17.3461C75.5031 14.9972 73.5565 13.5024 70.9045 13.5024C68.1667 13.5024 65.9848 15.0826 65.9848 17.7731C65.9848 20.8053 68.4447 21.6381 70.5621 22.3427C72.1879 22.8766 73.6421 23.389 73.6421 24.7557C73.6421 25.9514 72.5515 26.6348 71.097 26.6348C69.4284 26.6348 68.5303 25.8447 67.739 24.414L65.2576 24.8411C65.9848 27.3821 68.2951 28.9836 71.0754 28.9836Z" fill="white"/>
<path d="M82.9381 26.8218C82.0822 26.8218 81.6651 26.4111 81.6651 25.5681V19.9049H85.0671V17.7433H81.6651V14.501H79.7775L79.1408 17.7433H77.2754V19.9049H79.1408V25.5681C79.1408 27.7729 80.436 28.9834 82.9381 28.9834H85.0671L85.2867 26.8218H82.9381Z" fill="white"/>
<path d="M92.2958 28.9836C95.8187 28.9836 98.3041 26.6013 98.3041 23.2406C98.3041 19.8798 95.8187 17.4976 92.2958 17.4976C88.7728 17.4976 86.2871 19.8798 86.2871 23.2406C86.2871 26.6013 88.7728 28.9836 92.2958 28.9836ZM92.2958 26.7502C90.264 26.7502 88.8807 25.3251 88.8807 23.2406C88.8807 21.1561 90.264 19.731 92.2958 19.731C94.3275 19.731 95.7105 21.1561 95.7105 23.2406C95.7105 25.3251 94.3275 26.7502 92.2958 26.7502Z" fill="white"/>
<path d="M102.748 28.4842V21.9979C102.748 20.6034 103.428 19.8216 104.914 19.8216H106.315L106.103 17.4976H105.636C104.341 17.4976 103.343 17.8567 102.6 19.0822L102.133 17.4976H100.307V28.4842H102.748Z" fill="white"/>
<path d="M118.833 23.113C118.833 19.9224 116.444 17.4976 113.075 17.4976C109.705 17.4976 107.316 19.9011 107.316 23.2406C107.316 26.58 109.705 28.9836 113.075 28.9836C115.378 28.9836 117.553 27.8988 118.385 25.793L116.082 25.4102C115.549 26.1972 114.525 26.7502 113.224 26.7502C111.347 26.7502 110.11 25.6016 109.876 23.9H118.79C118.812 23.666 118.833 23.4107 118.833 23.113ZM113.075 19.6246C114.61 19.6246 115.762 20.603 116.167 21.9856H110.025C110.43 20.5605 111.582 19.6246 113.075 19.6246Z" fill="white"/>
<path d="M40.2249 10.2843V8.03699H40.3679C40.5534 8.03699 40.7018 7.99035 40.8131 7.89705C40.9243 7.80376 41.0171 7.61717 41.0913 7.33729C41.1708 7.05193 41.2317 6.63211 41.2741 6.07784L41.5046 3.01562H45.0339V8.03699H45.8526V10.2843H45.0339V8.81901H41.0436V10.2843H40.2249ZM44.2151 8.03699V3.79764H42.2597L42.0928 6.119C42.0292 7.04644 41.865 7.68577 41.6 8.03699H44.2151Z" fill="white"/>
<path d="M48.4552 8.90133C48.0366 8.90133 47.663 8.80803 47.3344 8.62145C47.0059 8.43486 46.7489 8.17419 46.5634 7.83943C46.3779 7.50467 46.2852 7.12327 46.2852 6.69522C46.2852 6.26717 46.3779 5.88576 46.5634 5.551C46.7489 5.21625 47.0059 4.95557 47.3344 4.76899C47.663 4.57691 48.0366 4.48088 48.4552 4.48088C48.8738 4.48088 49.2474 4.57691 49.576 4.76899C49.9045 4.95557 50.1615 5.21625 50.347 5.551C50.5325 5.88576 50.6252 6.26717 50.6252 6.69522C50.6252 7.12327 50.5325 7.50467 50.347 7.83943C50.1615 8.17419 49.9045 8.43486 49.576 8.62145C49.2474 8.80803 48.8738 8.90133 48.4552 8.90133ZM48.4552 8.16047C48.8579 8.16047 49.1838 8.02602 49.4329 7.75711C49.6872 7.48821 49.8144 7.13424 49.8144 6.69522C49.8144 6.25619 49.6872 5.90223 49.4329 5.63332C49.1838 5.35893 48.8579 5.22173 48.4552 5.22173C48.0525 5.22173 47.7266 5.35893 47.4775 5.63332C47.2284 5.90223 47.1039 6.25619 47.1039 6.69522C47.1039 7.12876 47.2284 7.48272 47.4775 7.75711C47.7266 8.02602 48.0525 8.16047 48.4552 8.16047Z" fill="white"/>
<path d="M53.3524 8.90133C52.9443 8.90133 52.576 8.80803 52.2475 8.62145C51.9242 8.42937 51.6725 8.16596 51.4924 7.8312C51.3122 7.49644 51.2221 7.11778 51.2221 6.69522C51.2221 6.26717 51.3122 5.88576 51.4924 5.551C51.6725 5.21625 51.9242 4.95557 52.2475 4.76899C52.5708 4.57691 52.939 4.48088 53.3524 4.48088C53.7922 4.48088 54.1844 4.59063 54.5288 4.81015C54.8785 5.02966 55.1276 5.34521 55.276 5.7568L54.5447 5.88027C54.4493 5.68271 54.2983 5.52357 54.0916 5.40283C53.8902 5.2821 53.6597 5.22173 53.4001 5.22173C52.9973 5.22173 52.6688 5.35893 52.4144 5.63332C52.1654 5.90771 52.0408 6.26168 52.0408 6.69522C52.0408 7.12876 52.1654 7.48272 52.4144 7.75711C52.6688 8.02602 52.9973 8.16047 53.4001 8.16047C53.6703 8.16047 53.9088 8.09736 54.1155 7.97114C54.3274 7.84492 54.4811 7.67754 54.5765 7.469L55.3078 7.59248C55.1594 8.00955 54.905 8.33334 54.5447 8.56383C54.1896 8.78883 53.7922 8.90133 53.3524 8.90133Z" fill="white"/>
<path d="M57.7128 8.81901H56.9339V5.30405H55.511V4.56319H59.1357V5.30405H57.7128V8.81901Z" fill="white"/>
<path d="M62.8158 4.56319H63.6186L61.9017 9.46109C61.7745 9.82877 61.6076 10.0949 61.4009 10.2596C61.1942 10.4242 60.9187 10.5065 60.5742 10.5065H59.9622L59.8906 9.76566H60.6219C60.7756 9.76566 60.8948 9.72999 60.9796 9.65865C61.0644 9.59279 61.1359 9.47481 61.1942 9.30468L61.2817 9.05773L59.4534 4.56319H60.2881L61.5917 7.84766H61.7029L62.8158 4.56319Z" fill="white"/>
<path d="M65.102 8.81901H64.323V4.56319H67.8205V8.81901H67.0415V5.30405H65.102V8.81901Z" fill="white"/>
<path d="M71.6533 6.30009V4.56319H72.4323V8.81901H71.6533V7.04095H69.6741V8.81901H68.8951V4.56319H69.6741V6.30009H71.6533Z" fill="white"/>
<path d="M75.4376 8.90133C75.0189 8.90133 74.6453 8.80803 74.3168 8.62145C73.9882 8.43486 73.7312 8.17419 73.5457 7.83943C73.3603 7.50467 73.2675 7.12327 73.2675 6.69522C73.2675 6.26717 73.3603 5.88576 73.5457 5.551C73.7312 5.21625 73.9882 4.95557 74.3168 4.76899C74.6453 4.57691 75.0189 4.48088 75.4376 4.48088C75.8562 4.48088 76.2298 4.57691 76.5583 4.76899C76.8869 4.95557 77.1439 5.21625 77.3294 5.551C77.5148 5.88576 77.6076 6.26717 77.6076 6.69522C77.6076 7.12327 77.5148 7.50467 77.3294 7.83943C77.1439 8.17419 76.8869 8.43486 76.5583 8.62145C76.2298 8.80803 75.8562 8.90133 75.4376 8.90133ZM75.4376 8.16047C75.8403 8.16047 76.1662 8.02602 76.4153 7.75711C76.6696 7.48821 76.7968 7.13424 76.7968 6.69522C76.7968 6.25619 76.6696 5.90223 76.4153 5.63332C76.1662 5.35893 75.8403 5.22173 75.4376 5.22173C75.0348 5.22173 74.7089 5.35893 74.4599 5.63332C74.2108 5.90223 74.0863 6.25619 74.0863 6.69522C74.0863 7.12876 74.2108 7.48272 74.4599 7.75711C74.7089 8.02602 75.0348 8.16047 75.4376 8.16047Z" fill="white"/>
<path d="M83.0789 6.5882C83.2909 6.67052 83.4605 6.80497 83.5877 6.99156C83.7201 7.17266 83.7864 7.38668 83.7864 7.63364C83.7864 7.85864 83.7228 8.06169 83.5956 8.24279C83.4737 8.42389 83.3015 8.56657 83.0789 8.67084C82.8564 8.76962 82.602 8.81901 82.3159 8.81901H80.3525V4.56319H82.2443C82.5146 4.56319 82.7557 4.61258 82.9677 4.71137C83.1796 4.81015 83.3439 4.9446 83.4605 5.11472C83.5824 5.28484 83.6433 5.47966 83.6433 5.69918C83.6433 5.90771 83.593 6.08881 83.4923 6.24247C83.3969 6.39064 83.2591 6.50589 83.0789 6.5882ZM81.1315 5.24643V6.29186H82.2443C82.4245 6.29186 82.5729 6.24522 82.6894 6.15192C82.806 6.05314 82.8643 5.92692 82.8643 5.77326C82.8643 5.6196 82.806 5.49338 82.6894 5.3946C82.5729 5.29582 82.4245 5.24643 82.2443 5.24643H81.1315ZM82.3159 8.13577C82.5225 8.13577 82.6894 8.0809 82.8166 7.97114C82.9438 7.86138 83.0074 7.7187 83.0074 7.54309C83.0074 7.36748 82.9438 7.22479 82.8166 7.11504C82.6894 7.00528 82.5225 6.9504 82.3159 6.9504H81.1315V8.13577H82.3159Z" fill="white"/>
</g>
<defs>
<clipPath id="clip0_2059_13835">
<rect width="118.668" height="29.9636" fill="white" transform="translate(0.16626 0.518066)"/>
</clipPath>
</defs>
</svg>
