<svg width="49" height="28" fill="none" xmlns="http://www.w3.org/2000/svg"><g clip-path="url(#a)"><path d="M48.922 11.79v6.845h-2.48v-4.802h-2.388v4.802h-2.48v-6.846h7.348Z" fill="#fff"/><path fill-rule="evenodd" clip-rule="evenodd" d="M36.48 18.88c2.22 0 3.869-1.342 3.869-3.376 0-1.969-1.216-3.247-3.249-3.247-.938 0-1.712.326-2.295.887.139-1.16 1.135-2.008 2.231-2.008l2.158-.004L40.272 9.1s-2.392.054-3.504.054c-2.54.043-4.256 2.32-4.256 5.084 0 3.22 1.673 4.642 3.968 4.642Zm.014-4.823c.824 0 1.396.534 1.396 1.447 0 .821-.508 1.498-1.396 1.5-.85 0-1.42-.627-1.42-1.486 0-.913.57-1.46 1.42-1.46Z" fill="#fff"/><path d="M30.494 16.343s-.586.333-1.46.396c-1.006.03-1.902-.597-1.902-1.71 0-1.084.79-1.706 1.876-1.706.666 0 1.546.455 1.546.455s.645-1.166.979-1.748c-.612-.457-1.426-.707-2.373-.707-2.39 0-4.24 1.535-4.24 3.693 0 2.186 1.74 3.686 4.24 3.64.7-.025 1.664-.267 2.252-.64l-.918-1.673Z" fill="#fff"/><path d="m0 6.095 3.44 6.06v3.697l-3.436 6.05L0 6.094Z" fill="#5B57A2"/><path d="m13.207 9.95 3.223-1.947 6.597-.006-9.82 5.93V9.95Z" fill="#D90751"/><path d="m13.19 6.059.018 8.024-3.448-2.088V0l3.43 6.059Z" fill="#FAB718"/><path d="m23.028 7.997-6.597.006-3.242-1.944L9.76 0l13.269 7.997Z" fill="#ED6F26"/><path d="M13.208 21.935v-3.893L9.76 15.993 9.762 28l3.446-6.065Z" fill="#63B22F"/><path d="M16.423 20.005 3.44 12.155 0 6.096l23.014 13.902-6.59.008Z" fill="#1487C9"/><path d="m9.762 28 3.445-6.065 3.216-1.93 6.59-.008L9.763 28Z" fill="#017F36"/><path d="m.004 21.901 9.784-5.908-3.29-1.989-3.058 1.848-3.436 6.05Z" fill="#984995"/></g><defs><clipPath id="a"><path fill="#fff" d="M0 0h49v28H0z"/></clipPath></defs></svg>