<svg width="19" height="19" viewBox="0 0 19 19" fill="none" xmlns="http://www.w3.org/2000/svg">
<path d="M17.4011 10.9462L12.2669 17.8L8.84 15.2329" stroke="#003366" stroke-width="1.5" stroke-linecap="round" stroke-linejoin="round"/>
<path d="M6.80769 7.2077C8.35621 7.2077 9.61154 5.95237 9.61154 4.40385C9.61154 2.85533 8.35621 1.60001 6.80769 1.60001C5.25917 1.60001 4.00385 2.85533 4.00385 4.40385C4.00385 5.95237 5.25917 7.2077 6.80769 7.2077Z" stroke="#003366" stroke-width="1.5" stroke-linecap="round" stroke-linejoin="round"/>
<path d="M4.31538 16.5538H1.2V14.6845C1.20097 13.5762 1.53039 12.4929 2.14663 11.5717C2.76288 10.6504 3.63832 9.9324 4.66238 9.50837C5.68645 9.08435 6.8132 8.9733 7.90034 9.18927C8.98747 9.40524 9.98623 9.93853 10.7705 10.7218" stroke="#003366" stroke-width="1.5" stroke-linecap="round" stroke-linejoin="round"/>
</svg>
