<svg width="21" height="22" viewBox="0 0 21 22" fill="none" xmlns="http://www.w3.org/2000/svg">
<path d="M13.1053 11.7821C16.8998 11.7821 19.9758 10.415 19.9758 8.72856C19.9758 7.04212 16.8998 5.67499 13.1053 5.67499C9.3108 5.67499 6.23476 7.04212 6.23476 8.72856C6.23476 10.415 9.3108 11.7821 13.1053 11.7821Z" stroke="#003366" stroke-width="1.5" stroke-linecap="round" stroke-linejoin="round"/>
<path d="M6.23475 8.72855V17.8893C6.23475 19.5687 9.28832 20.9428 13.1053 20.9428C16.9222 20.9428 19.9758 19.5687 19.9758 17.8893V8.72855" stroke="#003366" stroke-width="1.5" stroke-linecap="round" stroke-linejoin="round"/>
<path d="M19.9758 13.3089C19.9758 14.9884 16.9222 16.3625 13.1053 16.3625C9.28832 16.3625 6.23475 14.9884 6.23475 13.3089" stroke="#003366" stroke-width="1.5" stroke-linecap="round" stroke-linejoin="round"/>
<path d="M4.70782 7.1726C2.48699 6.66662 0.967196 5.63897 0.967196 4.45357C0.967196 2.76712 4.04324 1.39999 7.83773 1.39999C10.839 1.39999 13.3909 2.25531 14.3266 3.44742" stroke="#003366" stroke-width="1.5" stroke-linecap="round" stroke-linejoin="round"/>
<path d="M0.967206 4.45355V13.6143C0.967206 14.7965 2.48038 15.8275 4.70783 16.3343" stroke="#003366" stroke-width="1.5" stroke-linecap="round" stroke-linejoin="round"/>
<path d="M0.967206 9.03394C0.967206 10.2162 2.48038 11.2471 4.70783 11.7539" stroke="#003366" stroke-width="1.5" stroke-linecap="round" stroke-linejoin="round"/>
</svg>
