<svg width="24" height="24" viewBox="0 0 24 24" fill="none" xmlns="http://www.w3.org/2000/svg">
<path d="M14.9113 21.954C15.9324 22.6138 17.1492 22.9013 18.357 22.7682C19.5649 22.6352 20.6901 22.0896 21.5436 21.2234L22.2897 20.4927C22.6169 20.1576 22.8 19.7076 22.8 19.2389C22.8 18.7703 22.6169 18.3203 22.2897 17.9852L19.1228 14.8466C18.791 14.52 18.3445 14.337 17.8793 14.337C17.4141 14.337 16.9675 14.52 16.6357 14.8466V14.8466C16.3011 15.1742 15.8518 15.3576 15.3839 15.3576C14.916 15.3576 14.4666 15.1742 14.132 14.8466L9.15781 9.86472C8.99187 9.70094 8.8601 9.50576 8.77016 9.29052C8.68022 9.07528 8.6339 8.84428 8.6339 8.61095C8.6339 8.37762 8.68022 8.14662 8.77016 7.93138C8.8601 7.71614 8.99187 7.52095 9.15781 7.35718V7.35718C9.48388 7.02488 9.66659 6.57762 9.66659 6.11171C9.66659 5.64581 9.48388 5.19854 9.15781 4.86625L6.00747 1.71106C5.67289 1.38345 5.22355 1.20001 4.75563 1.20001C4.28771 1.20001 3.83837 1.38345 3.50378 1.71106L2.77423 2.45834C1.90929 3.31314 1.3646 4.44013 1.23173 5.64984C1.09887 6.85954 1.38594 8.07818 2.04468 9.10083C5.47696 14.1669 9.84415 18.5296 14.9113 21.954V21.954Z" stroke="#003366" stroke-width="2" stroke-linecap="round" stroke-linejoin="round"/>
</svg>
