<svg width="16" height="20" viewBox="0 0 16 20" fill="none" xmlns="http://www.w3.org/2000/svg">
<path d="M11.3846 2.38461H13.4615C13.8288 2.38461 14.1809 2.53049 14.4406 2.79016C14.7003 3.04982 14.8462 3.40201 14.8462 3.76923V17.6154C14.8462 17.9826 14.7003 18.3348 14.4406 18.5944C14.1809 18.8541 13.8288 19 13.4615 19H2.38462C2.01739 19 1.66521 18.8541 1.40554 18.5944C1.14588 18.3348 1 17.9826 1 17.6154V3.76923C1 3.40201 1.14588 3.04982 1.40554 2.79016C1.66521 2.53049 2.01739 2.38461 2.38462 2.38461H4.46154" stroke="#003366" stroke-width="1.5" stroke-linecap="round" stroke-linejoin="round"/>
<path d="M10 1H5.84616C5.08146 1 4.46155 1.61991 4.46155 2.38462V3.07692C4.46155 3.84162 5.08146 4.46154 5.84616 4.46154H10C10.7647 4.46154 11.3846 3.84162 11.3846 3.07692V2.38462C11.3846 1.61991 10.7647 1 10 1Z" stroke="#003366" stroke-width="1.5" stroke-linecap="round" stroke-linejoin="round"/>
<path d="M4.46155 12.0772L7.23078 14.1541L10.6923 8.61566" stroke="#003366" stroke-width="1.5" stroke-linecap="round" stroke-linejoin="round"/>
</svg>
