<svg width="22" height="20" viewBox="0 0 22 20" fill="none" xmlns="http://www.w3.org/2000/svg">
<path d="M16.1693 1.71548H19.8616C20.0574 1.71548 20.2452 1.79329 20.3837 1.93178C20.5222 2.07026 20.6 2.25809 20.6 2.45395V14.2693C20.6 14.4652 20.5222 14.653 20.3837 14.7915C20.2452 14.93 20.0574 15.0078 19.8616 15.0078H2.13849C1.94263 15.0078 1.7548 14.93 1.61631 14.7915C1.47783 14.653 1.40002 14.4652 1.40002 14.2693V2.45395C1.40002 2.25809 1.47783 2.07026 1.61631 1.93178C1.7548 1.79329 1.94263 1.71548 2.13849 1.71548H5.83079" stroke="#003366" stroke-width="1.5" stroke-linecap="round" stroke-linejoin="round"/>
<path d="M9.52313 15.0079L8.0462 18.7002" stroke="#003366" stroke-width="1.5" stroke-linecap="round" stroke-linejoin="round"/>
<path d="M12.4766 15.0079L13.9535 18.7002" stroke="#003366" stroke-width="1.5" stroke-linecap="round" stroke-linejoin="round"/>
<path d="M6.56903 18.7H15.4306" stroke="#003366" stroke-width="1.5" stroke-linecap="round" stroke-linejoin="round"/>
<path d="M13.9539 6.8848H8.0462V11.3156H13.9539V6.8848Z" stroke="#003366" stroke-width="1.5" stroke-linecap="round" stroke-linejoin="round"/>
<path d="M8.78485 6.885V5.40807C8.78485 4.82052 9.01826 4.25702 9.43372 3.84156C9.84919 3.42609 10.4127 3.19269 11.0002 3.19269C11.5878 3.19269 12.1513 3.42609 12.5667 3.84156C12.9822 4.25702 13.2156 4.82052 13.2156 5.40807V6.885" stroke="#003366" stroke-width="1.5" stroke-linecap="round" stroke-linejoin="round"/>
</svg>
