<svg width="124" height="124" viewBox="0 0 124 124" fill="none" xmlns="http://www.w3.org/2000/svg">
<path d="M30.2394 3.44909H26.7903V1.72454C26.7903 0.747303 27.5376 0 28.5149 0H30.2394V3.44909Z" fill="#2C3E50"/>
<path d="M33.5872 3.44909H30.1381V0H31.8627C32.8399 0 33.5872 0.747303 33.5872 1.72454V3.44909Z" fill="#2C3E50"/>
<path d="M41.91 3.44909C42.8625 3.44909 43.6346 2.67698 43.6346 1.72454C43.6346 0.772105 42.8625 0 41.91 0C40.9576 0 40.1855 0.772105 40.1855 1.72454C40.1855 2.67698 40.9576 3.44909 41.91 3.44909Z" fill="#2C3E50"/>
<path d="M51.952 3.44909C52.9044 3.44909 53.6765 2.67698 53.6765 1.72454C53.6765 0.772105 52.9044 0 51.952 0C50.9995 0 50.2274 0.772105 50.2274 1.72454C50.2274 2.67698 50.9995 3.44909 51.952 3.44909Z" fill="#2C3E50"/>
<path d="M63.7239 3.44909H60.2748V1.72454C60.2748 0.747303 61.0221 0 61.9993 0C62.9766 0 63.7239 0.747303 63.7239 1.72454V3.44909Z" fill="#2C3E50"/>
<path d="M80.4668 3.44909H78.7422C77.765 3.44909 77.0177 2.70179 77.0177 1.72454C77.0177 0.747303 77.765 0 78.7422 0H80.4668V3.44909Z" fill="#2C3E50"/>
<path d="M82.0901 3.44909H80.3656V0H82.0901C83.0673 0 83.8146 0.747303 83.8146 1.72454C83.8146 2.70179 83.0673 3.44909 82.0901 3.44909Z" fill="#2C3E50"/>
<path d="M88.7877 3.44909C89.7401 3.44909 90.5122 2.67698 90.5122 1.72454C90.5122 0.772105 89.7401 0 88.7877 0C87.8352 0 87.0631 0.772105 87.0631 1.72454C87.0631 2.67698 87.8352 3.44909 88.7877 3.44909Z" fill="#2C3E50"/>
<path d="M95.4853 3.44909C96.4377 3.44909 97.2098 2.67698 97.2098 1.72454C97.2098 0.772105 96.4377 0 95.4853 0C94.5328 0 93.7607 0.772105 93.7607 1.72454C93.7607 2.67698 94.5328 3.44909 95.4853 3.44909Z" fill="#2C3E50"/>
<path d="M30.2394 3.34888H26.7903V6.79797H30.2394V3.34888Z" fill="#2C3E50"/>
<path d="M31.8627 6.79797H30.1381V3.34888H33.5872V5.07342C33.5872 6.05066 32.8399 6.79797 31.8627 6.79797Z" fill="#2C3E50"/>
<path d="M38.5604 6.79784C39.5128 6.79784 40.2849 6.02574 40.2849 5.0733C40.2849 4.12086 39.5128 3.34875 38.5604 3.34875C37.6079 3.34875 36.8358 4.12086 36.8358 5.0733C36.8358 6.02574 37.6079 6.79784 38.5604 6.79784Z" fill="#2C3E50"/>
<path d="M60.3741 6.79797H58.6496C57.6723 6.79797 56.925 6.05066 56.925 5.07342C56.925 4.09618 57.6723 3.34888 58.6496 3.34888H60.3741V6.79797Z" fill="#2C3E50"/>
<path d="M63.7239 3.34888H60.2748V6.79797H63.7239V3.34888Z" fill="#2C3E50"/>
<path d="M67.0717 3.34888H63.6226V6.79797H67.0717V3.34888Z" fill="#2C3E50"/>
<path d="M68.6969 6.79797H66.9724V3.34888H68.6969C69.6741 3.34888 70.4214 4.09618 70.4214 5.07342C70.4214 6.05066 69.6741 6.79797 68.6969 6.79797Z" fill="#2C3E50"/>
<path d="M92.1374 6.79797C93.0899 6.79797 93.862 6.02586 93.862 5.07342C93.862 4.12098 93.0899 3.34888 92.1374 3.34888C91.185 3.34888 90.4129 4.12098 90.4129 5.07342C90.4129 6.02586 91.185 6.79797 92.1374 6.79797Z" fill="#2C3E50"/>
<path d="M28.5149 10.1464C27.5376 10.1464 26.7903 9.39905 26.7903 8.42181V6.69727H30.2394V8.42181C30.2394 9.39905 29.4921 10.1464 28.5149 10.1464Z" fill="#2C3E50"/>
<path d="M36.937 10.1464H33.4879V8.42181C33.4879 7.44457 34.2352 6.69727 35.2124 6.69727C36.1897 6.69727 36.937 7.44457 36.937 8.42181V10.1464Z" fill="#2C3E50"/>
<path d="M43.6346 10.1464H40.1855V8.42181C40.1855 7.44457 40.9328 6.69727 41.91 6.69727H43.6346V10.1464Z" fill="#2C3E50"/>
<path d="M46.9789 10.1464H43.5298V6.69727H45.2544C46.2316 6.69727 46.9789 7.44457 46.9789 8.42181V10.1464Z" fill="#2C3E50"/>
<path d="M57.0263 10.1464H53.5772V8.42181C53.5772 7.44457 54.3245 6.69727 55.3017 6.69727C56.279 6.69727 57.0263 7.44457 57.0263 8.42181V10.1464Z" fill="#2C3E50"/>
<path d="M63.7239 6.69727H60.2748V10.1464H63.7239V6.69727Z" fill="#2C3E50"/>
<path d="M65.3471 10.1464H63.6226V6.69727H67.0717V8.42181C67.0717 9.39905 66.3244 10.1464 65.3471 10.1464Z" fill="#2C3E50"/>
<path d="M80.4668 10.1462H78.7422C77.765 10.1462 77.0177 9.39893 77.0177 8.42169C77.0177 7.44445 77.765 6.69714 78.7422 6.69714H80.4668V10.1462Z" fill="#2C3E50"/>
<path d="M83.8146 10.1464H80.3656V6.69727H82.0901C83.0673 6.69727 83.8146 7.44457 83.8146 8.42181V10.1464Z" fill="#2C3E50"/>
<path d="M90.5122 10.1464H87.0631V8.42181C87.0631 7.44457 87.8104 6.69727 88.7877 6.69727C89.7649 6.69727 90.5122 7.44457 90.5122 8.42181V10.1464Z" fill="#2C3E50"/>
<path d="M95.4853 10.1464C96.4377 10.1464 97.2098 9.37425 97.2098 8.42181C97.2098 7.46937 96.4377 6.69727 95.4853 6.69727C94.5328 6.69727 93.7607 7.46937 93.7607 8.42181C93.7607 9.37425 94.5328 10.1464 95.4853 10.1464Z" fill="#2C3E50"/>
<path d="M33.5872 13.4947H31.8627C30.8854 13.4947 30.1381 12.7474 30.1381 11.7702C30.1381 10.793 30.8854 10.0457 31.8627 10.0457H33.5872V13.4947Z" fill="#2C3E50"/>
<path d="M36.937 10.0457H33.4879V13.4947H36.937V10.0457Z" fill="#2C3E50"/>
<path d="M40.2849 10.0458H36.8358V13.4949H40.2849V10.0458Z" fill="#2C3E50"/>
<path d="M43.6346 10.0457H40.1855V13.4947H43.6346V10.0457Z" fill="#2C3E50"/>
<path d="M46.9789 10.0457H43.5298V13.4947H46.9789V10.0457Z" fill="#2C3E50"/>
<path d="M50.3287 10.0457H46.8796V13.4947H50.3287V10.0457Z" fill="#2C3E50"/>
<path d="M53.6765 10.0457H50.2274V13.4947H53.6765V10.0457Z" fill="#2C3E50"/>
<path d="M55.3017 13.4947H53.5772V10.0457H57.0263V11.7702C57.0263 12.7474 56.279 13.4947 55.3017 13.4947Z" fill="#2C3E50"/>
<path d="M63.7239 10.0457H60.2748V13.4947H63.7239V10.0457Z" fill="#2C3E50"/>
<path d="M70.4214 13.4947H68.6969C67.7197 13.4947 66.9724 12.7474 66.9724 11.7702C66.9724 10.793 67.7197 10.0457 68.6969 10.0457H70.4214V13.4947Z" fill="#2C3E50"/>
<path d="M73.7693 13.4949H70.3202V10.0458H72.0448C73.022 10.0458 73.7693 10.7931 73.7693 11.7703V13.4949Z" fill="#2C3E50"/>
<path d="M83.8146 10.0457H80.3656V13.4947H83.8146V10.0457Z" fill="#2C3E50"/>
<path d="M87.1644 10.0457H83.7153V13.4947H87.1644V10.0457Z" fill="#2C3E50"/>
<path d="M90.5122 10.0457H87.0631V13.4947H90.5122V10.0457Z" fill="#2C3E50"/>
<path d="M40.2849 13.3945H36.8358V16.8436H40.2849V13.3945Z" fill="#2C3E50"/>
<path d="M43.6346 13.3945H40.1855V16.8436H43.6346V13.3945Z" fill="#2C3E50"/>
<path d="M60.3741 16.8436H56.925V15.1191C56.925 14.1418 57.6723 13.3945 58.6496 13.3945H60.3741V16.8436Z" fill="#2C3E50"/>
<path d="M61.9993 16.8436H60.2748V13.3945H63.7239V15.1191C63.7239 16.0963 62.9766 16.8436 61.9993 16.8436Z" fill="#2C3E50"/>
<path d="M73.7693 13.3945H70.3202V16.8436H73.7693V13.3945Z" fill="#2C3E50"/>
<path d="M75.3925 16.8436H73.668V13.3945H75.3925C76.3698 13.3945 77.1171 14.1418 77.1171 15.1191C77.1171 16.0963 76.3698 16.8436 75.3925 16.8436Z" fill="#2C3E50"/>
<path d="M83.8146 16.8436H82.0901C81.1129 16.8436 80.3656 16.0963 80.3656 15.1191V13.3945H83.8146V16.8436Z" fill="#2C3E50"/>
<path d="M87.1644 13.3945H83.7153V16.8436H87.1644V13.3945Z" fill="#2C3E50"/>
<path d="M90.5122 13.3945H87.0631V16.8436H90.5122V13.3945Z" fill="#2C3E50"/>
<path d="M30.2394 20.1923H26.7903V18.4677C26.7903 17.4905 27.5376 16.7432 28.5149 16.7432H30.2394V20.1923Z" fill="#2C3E50"/>
<path d="M31.8627 20.1923H30.1381V16.7432H31.8627C32.8399 16.7432 33.5872 17.4905 33.5872 18.4677C33.5872 19.445 32.8399 20.1923 31.8627 20.1923Z" fill="#2C3E50"/>
<path d="M40.2849 20.1923H38.5604C37.5831 20.1923 36.8358 19.445 36.8358 18.4677V16.7432H40.2849V20.1923Z" fill="#2C3E50"/>
<path d="M43.6346 16.7432H40.1855V20.1923H43.6346V16.7432Z" fill="#2C3E50"/>
<path d="M50.3287 20.1923H46.8796V18.4677C46.8796 17.4905 47.6269 16.7432 48.6042 16.7432H50.3287V20.1923Z" fill="#2C3E50"/>
<path d="M53.6765 16.7432H50.2274V20.1923H53.6765V16.7432Z" fill="#2C3E50"/>
<path d="M57.0263 16.7432H53.5772V20.1923H57.0263V16.7432Z" fill="#2C3E50"/>
<path d="M58.6496 20.1923H56.925V16.7432H60.3741V18.4677C60.3741 19.445 59.6268 20.1923 58.6496 20.1923Z" fill="#2C3E50"/>
<path d="M72.0448 20.1923C71.0675 20.1923 70.3202 19.445 70.3202 18.4677V16.7432H73.7693V18.4677C73.7693 19.445 73.022 20.1923 72.0448 20.1923Z" fill="#2C3E50"/>
<path d="M78.7422 20.1923C79.6947 20.1923 80.4668 19.4201 80.4668 18.4677C80.4668 17.5153 79.6947 16.7432 78.7422 16.7432C77.7898 16.7432 77.0177 17.5153 77.0177 18.4677C77.0177 19.4201 77.7898 20.1923 78.7422 20.1923Z" fill="#2C3E50"/>
<path d="M87.1644 20.1923H85.4399C84.4626 20.1923 83.7153 19.445 83.7153 18.4677V16.7432H87.1644V20.1923Z" fill="#2C3E50"/>
<path d="M90.5122 16.7432H87.0631V20.1923H90.5122V16.7432Z" fill="#2C3E50"/>
<path d="M93.862 16.7432H90.4129V20.1923H93.862V16.7432Z" fill="#2C3E50"/>
<path d="M97.2098 20.1923H93.7607V16.7432H95.4853C96.4625 16.7432 97.2098 17.4905 97.2098 18.4677V20.1923Z" fill="#2C3E50"/>
<path d="M30.2394 20.0918H26.7903V23.5409H30.2394V20.0918Z" fill="#2C3E50"/>
<path d="M35.2124 23.5409C36.1649 23.5409 36.937 22.7688 36.937 21.8163C36.937 20.8639 36.1649 20.0918 35.2124 20.0918C34.26 20.0918 33.4879 20.8639 33.4879 21.8163C33.4879 22.7688 34.26 23.5409 35.2124 23.5409Z" fill="#2C3E50"/>
<path d="M41.91 23.5409C40.9328 23.5409 40.1855 22.7936 40.1855 21.8163V20.0918H43.6346V21.8163C43.6346 22.7936 42.8873 23.5409 41.91 23.5409Z" fill="#2C3E50"/>
<path d="M48.6042 23.5409C47.6269 23.5409 46.8796 22.7936 46.8796 21.8163V20.0918H50.3287V21.8163C50.3287 22.7936 49.5814 23.5409 48.6042 23.5409Z" fill="#2C3E50"/>
<path d="M57.0263 20.0918H53.5772V23.5409H57.0263V20.0918Z" fill="#2C3E50"/>
<path d="M61.9993 23.5409C62.9518 23.5409 63.7239 22.7688 63.7239 21.8163C63.7239 20.8639 62.9518 20.0918 61.9993 20.0918C61.0469 20.0918 60.2748 20.8639 60.2748 21.8163C60.2748 22.7688 61.0469 23.5409 61.9993 23.5409Z" fill="#2C3E50"/>
<path d="M68.6969 23.5409C69.6493 23.5409 70.4214 22.7688 70.4214 21.8163C70.4214 20.8639 69.6493 20.0918 68.6969 20.0918C67.7445 20.0918 66.9724 20.8639 66.9724 21.8163C66.9724 22.7688 67.7445 23.5409 68.6969 23.5409Z" fill="#2C3E50"/>
<path d="M75.3925 23.5409C76.345 23.5409 77.1171 22.7688 77.1171 21.8163C77.1171 20.8639 76.345 20.0918 75.3925 20.0918C74.4401 20.0918 73.668 20.8639 73.668 21.8163C73.668 22.7688 74.4401 23.5409 75.3925 23.5409Z" fill="#2C3E50"/>
<path d="M82.0901 23.5409C83.0425 23.5409 83.8146 22.7688 83.8146 21.8163C83.8146 20.8639 83.0425 20.0918 82.0901 20.0918C81.1377 20.0918 80.3656 20.8639 80.3656 21.8163C80.3656 22.7688 81.1377 23.5409 82.0901 23.5409Z" fill="#2C3E50"/>
<path d="M88.7877 23.5409C87.8104 23.5409 87.0631 22.7936 87.0631 21.8163V20.0918H90.5122V21.8163C90.5122 22.7936 89.7649 23.5409 88.7877 23.5409Z" fill="#2C3E50"/>
<path d="M97.2098 20.0918H93.7607V23.5409H97.2098V20.0918Z" fill="#2C3E50"/>
<path d="M30.2394 23.4404H26.7903V26.8895H30.2394V23.4404Z" fill="#2C3E50"/>
<path d="M33.5872 26.8895H30.1381V23.4404H31.8627C32.8399 23.4404 33.5872 24.1877 33.5872 25.165V26.8895Z" fill="#2C3E50"/>
<path d="M46.9789 26.8895H43.5298V25.165C43.5298 24.1877 44.2771 23.4404 45.2544 23.4404C46.2316 23.4404 46.9789 24.1877 46.9789 25.165V26.8895Z" fill="#2C3E50"/>
<path d="M57.0263 26.8895H55.3017C54.3245 26.8895 53.5772 26.1422 53.5772 25.165V23.4404H57.0263V26.8895Z" fill="#2C3E50"/>
<path d="M58.6496 26.8895H56.925V23.4404H58.6496C59.6268 23.4404 60.3741 24.1877 60.3741 25.165C60.3741 26.1422 59.6268 26.8895 58.6496 26.8895Z" fill="#2C3E50"/>
<path d="M67.0717 26.8895H63.6226V25.165C63.6226 24.1877 64.3699 23.4404 65.3471 23.4404C66.3244 23.4404 67.0717 24.1877 67.0717 25.165V26.8895Z" fill="#2C3E50"/>
<path d="M78.7422 26.8894C79.6947 26.8894 80.4668 26.1173 80.4668 25.1649C80.4668 24.2124 79.6947 23.4403 78.7422 23.4403C77.7898 23.4403 77.0177 24.2124 77.0177 25.1649C77.0177 26.1173 77.7898 26.8894 78.7422 26.8894Z" fill="#2C3E50"/>
<path d="M85.4399 26.8893C86.3923 26.8893 87.1644 26.1172 87.1644 25.1647C87.1644 24.2123 86.3923 23.4402 85.4399 23.4402C84.4874 23.4402 83.7153 24.2123 83.7153 25.1647C83.7153 26.1172 84.4874 26.8893 85.4399 26.8893Z" fill="#2C3E50"/>
<path d="M95.4853 26.8895C94.508 26.8895 93.7607 26.1422 93.7607 25.165V23.4404H97.2098V25.165C97.2098 26.1422 96.4625 26.8895 95.4853 26.8895Z" fill="#2C3E50"/>
<path d="M10.1465 30.2382H8.42197C7.44473 30.2382 6.69743 29.4908 6.69743 28.5136C6.69743 27.5364 7.44473 26.7891 8.42197 26.7891H10.1465V30.2382Z" fill="#2C3E50"/>
<path d="M13.4945 26.7891H10.0454V30.2382H13.4945V26.7891Z" fill="#2C3E50"/>
<path d="M16.8442 30.2382H13.3952V26.7891H15.1197C16.0969 26.7891 16.8442 27.5364 16.8442 28.5136V30.2382Z" fill="#2C3E50"/>
<path d="M21.8138 30.2382C22.7663 30.2382 23.5384 29.466 23.5384 28.5136C23.5384 27.5612 22.7663 26.7891 21.8138 26.7891C20.8614 26.7891 20.0893 27.5612 20.0893 28.5136C20.0893 29.466 20.8614 30.2382 21.8138 30.2382Z" fill="#2C3E50"/>
<path d="M30.2394 26.7891H26.7903V30.2382H30.2394V26.7891Z" fill="#2C3E50"/>
<path d="M33.5872 26.7891H30.1381V30.2382H33.5872V26.7891Z" fill="#2C3E50"/>
<path d="M43.6346 30.2382H41.91C40.9328 30.2382 40.1855 29.4908 40.1855 28.5136C40.1855 27.5364 40.9328 26.7891 41.91 26.7891H43.6346V30.2382Z" fill="#2C3E50"/>
<path d="M46.9789 26.7891H43.5298V30.2382H46.9789V26.7891Z" fill="#2C3E50"/>
<path d="M50.3287 26.7891H46.8796V30.2382H50.3287V26.7891Z" fill="#2C3E50"/>
<path d="M51.952 30.2382H50.2274V26.7891H51.952C52.9292 26.7891 53.6765 27.5364 53.6765 28.5136C53.6765 29.4908 52.9292 30.2382 51.952 30.2382Z" fill="#2C3E50"/>
<path d="M63.7239 30.2382H61.9993C61.0221 30.2382 60.2748 29.4908 60.2748 28.5136C60.2748 27.5364 61.0221 26.7891 61.9993 26.7891H63.7239V30.2382Z" fill="#2C3E50"/>
<path d="M67.0717 26.7891H63.6226V30.2382H67.0717V26.7891Z" fill="#2C3E50"/>
<path d="M70.4214 26.7891H66.9724V30.2382H70.4214V26.7891Z" fill="#2C3E50"/>
<path d="M73.7693 26.7891H70.3202V30.2382H73.7693V26.7891Z" fill="#2C3E50"/>
<path d="M75.3925 30.2382H73.668V26.7891H75.3925C76.3698 26.7891 77.1171 27.5364 77.1171 28.5136C77.1171 29.4908 76.3698 30.2382 75.3925 30.2382Z" fill="#2C3E50"/>
<path d="M83.8146 30.2382H80.3656V28.5136C80.3656 27.5364 81.1129 26.7891 82.0901 26.7891C83.0673 26.7891 83.8146 27.5364 83.8146 28.5136V30.2382Z" fill="#2C3E50"/>
<path d="M88.7877 30.2382C89.7401 30.2382 90.5122 29.466 90.5122 28.5136C90.5122 27.5612 89.7401 26.7891 88.7877 26.7891C87.8352 26.7891 87.0631 27.5612 87.0631 28.5136C87.0631 29.466 87.8352 30.2382 88.7877 30.2382Z" fill="#2C3E50"/>
<path d="M100.56 30.2382H98.835C97.8578 30.2382 97.1105 29.4908 97.1105 28.5136C97.1105 27.5364 97.8578 26.7891 98.835 26.7891H100.56V30.2382Z" fill="#2C3E50"/>
<path d="M103.907 26.7891H100.458V30.2382H103.907V26.7891Z" fill="#2C3E50"/>
<path d="M107.257 30.2382H103.808V26.7891H105.533C106.51 26.7891 107.257 27.5364 107.257 28.5136V30.2382Z" fill="#2C3E50"/>
<path d="M117.303 30.2382H115.578C114.601 30.2382 113.853 29.4908 113.853 28.5136C113.853 27.5364 114.601 26.7891 115.578 26.7891H117.303V30.2382Z" fill="#2C3E50"/>
<path d="M120.65 26.7891H117.201V30.2382H120.65V26.7891Z" fill="#2C3E50"/>
<path d="M122.276 30.2382H120.551V26.7891H122.276C123.253 26.7891 124 27.5364 124 28.5136C124 29.4908 123.253 30.2382 122.276 30.2382Z" fill="#2C3E50"/>
<path d="M3.44909 33.5868H1.72454C0.747303 33.5868 0 32.8395 0 31.8622C0 30.885 0.747303 30.1377 1.72454 30.1377H3.44909V33.5868Z" fill="#2C3E50"/>
<path d="M6.7969 33.5868H3.34781V30.1377H5.07235C6.0496 30.1377 6.7969 30.885 6.7969 31.8622V33.5868Z" fill="#2C3E50"/>
<path d="M16.8442 30.1377H13.3952V33.5868H16.8442V30.1377Z" fill="#2C3E50"/>
<path d="M18.4675 33.5868H16.743V30.1377H18.4675C19.4448 30.1377 20.1921 30.885 20.1921 31.8622C20.1921 32.8395 19.4448 33.5868 18.4675 33.5868Z" fill="#2C3E50"/>
<path d="M30.2394 33.5868H28.5149C27.5376 33.5868 26.7903 32.8395 26.7903 31.8622V30.1377H30.2394V33.5868Z" fill="#2C3E50"/>
<path d="M33.5872 30.1377H30.1381V33.5868H33.5872V30.1377Z" fill="#2C3E50"/>
<path d="M36.937 30.1377H33.4879V33.5868H36.937V30.1377Z" fill="#2C3E50"/>
<path d="M40.2849 33.5868H36.8358V30.1377H38.5604C39.5376 30.1377 40.2849 30.885 40.2849 31.8622V33.5868Z" fill="#2C3E50"/>
<path d="M48.6042 33.5868C47.6269 33.5868 46.8796 32.8395 46.8796 31.8622V30.1377H50.3287V31.8622C50.3287 32.8395 49.5814 33.5868 48.6042 33.5868Z" fill="#2C3E50"/>
<path d="M57.0263 33.5868H53.5772V31.8622C53.5772 30.885 54.3245 30.1377 55.3017 30.1377H57.0263V33.5868Z" fill="#2C3E50"/>
<path d="M60.3741 33.5868H56.925V30.1377H58.6496C59.6268 30.1377 60.3741 30.885 60.3741 31.8622V33.5868Z" fill="#2C3E50"/>
<path d="M70.4214 30.1377H66.9724V33.5868H70.4214V30.1377Z" fill="#2C3E50"/>
<path d="M83.8146 33.5868H82.0901C81.1129 33.5868 80.3656 32.8395 80.3656 31.8622V30.1377H83.8146V33.5868Z" fill="#2C3E50"/>
<path d="M87.1644 33.5868H83.7153V30.1377H85.4399C86.4171 30.1377 87.1644 30.885 87.1644 31.8622V33.5868Z" fill="#2C3E50"/>
<path d="M93.862 33.5868H90.4129V31.8622C90.4129 30.885 91.1602 30.1377 92.1374 30.1377C93.1147 30.1377 93.862 30.885 93.862 31.8622V33.5868Z" fill="#2C3E50"/>
<path d="M107.257 30.1377H103.808V33.5868H107.257V30.1377Z" fill="#2C3E50"/>
<path d="M112.23 33.5868C113.183 33.5868 113.955 32.8147 113.955 31.8622C113.955 30.9098 113.183 30.1377 112.23 30.1377C111.278 30.1377 110.506 30.9098 110.506 31.8622C110.506 32.8147 111.278 33.5868 112.23 33.5868Z" fill="#2C3E50"/>
<path d="M6.7969 33.4866H3.34781V36.9357H6.7969V33.4866Z" fill="#2C3E50"/>
<path d="M13.4945 36.9357H11.7699C10.7927 36.9357 10.0454 36.1884 10.0454 35.2111C10.0454 34.2339 10.7927 33.4866 11.7699 33.4866H13.4945V36.9357Z" fill="#2C3E50"/>
<path d="M15.1197 36.9357H13.3952V33.4866H16.8442V35.2111C16.8442 36.1884 16.0969 36.9357 15.1197 36.9357Z" fill="#2C3E50"/>
<path d="M23.5384 36.9357H21.8138C20.8366 36.9357 20.0893 36.1884 20.0893 35.2111C20.0893 34.2339 20.8366 33.4866 21.8138 33.4866H23.5384V36.9357Z" fill="#2C3E50"/>
<path d="M26.8896 36.9357H23.4406V33.4866H25.1651C26.1423 33.4866 26.8896 34.2339 26.8896 35.2111V36.9357Z" fill="#2C3E50"/>
<path d="M36.937 33.4866H33.4879V36.9357H36.937V33.4866Z" fill="#2C3E50"/>
<path d="M40.2849 33.4865H36.8358V36.9355H40.2849V33.4865Z" fill="#2C3E50"/>
<path d="M45.2544 36.9357C46.2068 36.9357 46.9789 36.1636 46.9789 35.2111C46.9789 34.2587 46.2068 33.4866 45.2544 33.4866C44.302 33.4866 43.5298 34.2587 43.5298 35.2111C43.5298 36.1636 44.302 36.9357 45.2544 36.9357Z" fill="#2C3E50"/>
<path d="M57.0263 33.4866H53.5772V36.9357H57.0263V33.4866Z" fill="#2C3E50"/>
<path d="M60.3741 33.4866H56.925V36.9357H60.3741V33.4866Z" fill="#2C3E50"/>
<path d="M61.9993 36.9357H60.2748V33.4866H61.9993C62.9766 33.4866 63.7239 34.2339 63.7239 35.2111C63.7239 36.1884 62.9766 36.9357 61.9993 36.9357Z" fill="#2C3E50"/>
<path d="M70.4214 33.4866H66.9724V36.9357H70.4214V33.4866Z" fill="#2C3E50"/>
<path d="M77.1171 36.9357H73.668V35.2111C73.668 34.2339 74.4153 33.4866 75.3925 33.4866H77.1171V36.9357Z" fill="#2C3E50"/>
<path d="M80.4668 36.9355H77.0177V33.4865H78.7422C79.7195 33.4865 80.4668 34.2338 80.4668 35.211V36.9355Z" fill="#2C3E50"/>
<path d="M87.1644 36.9355H85.4399C84.4626 36.9355 83.7153 36.1882 83.7153 35.211V33.4865H87.1644V36.9355Z" fill="#2C3E50"/>
<path d="M90.5122 33.4866H87.0631V36.9357H90.5122V33.4866Z" fill="#2C3E50"/>
<path d="M93.862 33.4866H90.4129V36.9357H93.862V33.4866Z" fill="#2C3E50"/>
<path d="M97.2098 36.9357H93.7607V33.4866H95.4853C96.4625 33.4866 97.2098 34.2339 97.2098 35.2111V36.9357Z" fill="#2C3E50"/>
<path d="M103.907 36.9357H100.458V35.2111C100.458 34.2339 101.206 33.4866 102.183 33.4866H103.907V36.9357Z" fill="#2C3E50"/>
<path d="M105.533 36.9357H103.808V33.4866H107.257V35.2111C107.257 36.1884 106.51 36.9357 105.533 36.9357Z" fill="#2C3E50"/>
<path d="M117.303 36.9355H115.578C114.601 36.9355 113.853 36.1882 113.853 35.211C113.853 34.2338 114.601 33.4865 115.578 33.4865H117.303V36.9355Z" fill="#2C3E50"/>
<path d="M120.65 33.4866H117.201V36.9357H120.65V33.4866Z" fill="#2C3E50"/>
<path d="M124 36.9357H120.551V33.4866H122.276C123.253 33.4866 124 34.2339 124 35.2111V36.9357Z" fill="#2C3E50"/>
<path d="M3.44909 40.2839H0V38.5594C0 37.5821 0.747303 36.8348 1.72454 36.8348H3.44909V40.2839Z" fill="#2C3E50"/>
<path d="M5.07235 40.284H3.34781V36.835H6.7969V38.5595C6.7969 39.5367 6.0496 40.284 5.07235 40.284Z" fill="#2C3E50"/>
<path d="M25.1651 40.284C24.1879 40.284 23.4406 39.5367 23.4406 38.5595V36.835H26.8896V38.5595C26.8896 39.5367 26.1423 40.284 25.1651 40.284Z" fill="#2C3E50"/>
<path d="M36.937 36.835H33.4879V40.284H36.937V36.835Z" fill="#2C3E50"/>
<path d="M40.2849 36.8348H36.8358V40.2839H40.2849V36.8348Z" fill="#2C3E50"/>
<path d="M55.3017 40.284C54.3245 40.284 53.5772 39.5367 53.5772 38.5595V36.835H57.0263V38.5595C57.0263 39.5367 56.279 40.284 55.3017 40.284Z" fill="#2C3E50"/>
<path d="M67.0717 40.284H63.6226V38.5595C63.6226 37.5823 64.3699 36.835 65.3471 36.835H67.0717V40.284Z" fill="#2C3E50"/>
<path d="M70.4214 36.835H66.9724V40.284H70.4214V36.835Z" fill="#2C3E50"/>
<path d="M73.7693 36.8348H70.3202V40.2839H73.7693V36.8348Z" fill="#2C3E50"/>
<path d="M77.1171 36.835H73.668V40.284H77.1171V36.835Z" fill="#2C3E50"/>
<path d="M78.7422 40.2839H77.0177V36.8348H80.4668V38.5594C80.4668 39.5366 79.7195 40.2839 78.7422 40.2839Z" fill="#2C3E50"/>
<path d="M90.5122 36.835H87.0631V40.284H90.5122V36.835Z" fill="#2C3E50"/>
<path d="M95.4853 40.284C94.508 40.284 93.7607 39.5367 93.7607 38.5595V36.835H97.2098V38.5595C97.2098 39.5367 96.4625 40.284 95.4853 40.284Z" fill="#2C3E50"/>
<path d="M103.907 36.835H100.458V40.284H103.907V36.835Z" fill="#2C3E50"/>
<path d="M110.605 40.2839H107.156V38.5594C107.156 37.5821 107.903 36.8348 108.881 36.8348C109.858 36.8348 110.605 37.5821 110.605 38.5594V40.2839Z" fill="#2C3E50"/>
<path d="M120.65 36.835H117.201V40.284H120.65V36.835Z" fill="#2C3E50"/>
<path d="M122.276 40.284H120.551V36.835H124V38.5595C124 39.5367 123.253 40.284 122.276 40.284Z" fill="#2C3E50"/>
<path d="M1.72454 43.6326C0.747303 43.6326 0 42.8853 0 41.908V40.1835H3.44909V41.908C3.44909 42.8853 2.70179 43.6326 1.72454 43.6326Z" fill="#2C3E50"/>
<path d="M13.4945 43.6324H10.0454V41.9079C10.0454 40.9307 10.7927 40.1833 11.7699 40.1833H13.4945V43.6324Z" fill="#2C3E50"/>
<path d="M16.8442 40.1833H13.3952V43.6324H16.8442V40.1833Z" fill="#2C3E50"/>
<path d="M20.1921 40.1833H16.743V43.6324H20.1921V40.1833Z" fill="#2C3E50"/>
<path d="M21.8138 43.6324H20.0893V40.1833H21.8138C22.7911 40.1833 23.5384 40.9307 23.5384 41.9079C23.5384 42.8851 22.7911 43.6324 21.8138 43.6324Z" fill="#2C3E50"/>
<path d="M33.5872 43.6324H31.8627C30.8854 43.6324 30.1381 42.8851 30.1381 41.9079C30.1381 40.9307 30.8854 40.1833 31.8627 40.1833H33.5872V43.6324Z" fill="#2C3E50"/>
<path d="M36.937 40.1833H33.4879V43.6324H36.937V40.1833Z" fill="#2C3E50"/>
<path d="M40.2849 40.1835H36.8358V43.6326H40.2849V40.1835Z" fill="#2C3E50"/>
<path d="M41.91 43.6324H40.1855V40.1833H41.91C42.8873 40.1833 43.6346 40.9307 43.6346 41.9079C43.6346 42.8851 42.8873 43.6324 41.91 43.6324Z" fill="#2C3E50"/>
<path d="M48.6042 43.6324C49.5566 43.6324 50.3287 42.8603 50.3287 41.9079C50.3287 40.9555 49.5566 40.1833 48.6042 40.1833C47.6517 40.1833 46.8796 40.9555 46.8796 41.9079C46.8796 42.8603 47.6517 43.6324 48.6042 43.6324Z" fill="#2C3E50"/>
<path d="M60.3741 43.6324H56.925V41.9079C56.925 40.9307 57.6723 40.1833 58.6496 40.1833H60.3741V43.6324Z" fill="#2C3E50"/>
<path d="M63.7239 40.1833H60.2748V43.6324H63.7239V40.1833Z" fill="#2C3E50"/>
<path d="M67.0717 40.1833H63.6226V43.6324H67.0717V40.1833Z" fill="#2C3E50"/>
<path d="M68.6969 43.6324H66.9724V40.1833H70.4214V41.9079C70.4214 42.8851 69.6741 43.6324 68.6969 43.6324Z" fill="#2C3E50"/>
<path d="M83.8146 43.6324H80.3656V41.9079C80.3656 40.9307 81.1129 40.1833 82.0901 40.1833H83.8146V43.6324Z" fill="#2C3E50"/>
<path d="M87.1644 40.1835H83.7153V43.6326H87.1644V40.1835Z" fill="#2C3E50"/>
<path d="M88.7877 43.6324H87.0631V40.1833H90.5122V41.9079C90.5122 42.8851 89.7649 43.6324 88.7877 43.6324Z" fill="#2C3E50"/>
<path d="M100.56 43.6324H97.1105V41.9079C97.1105 40.9307 97.8578 40.1833 98.835 40.1833H100.56V43.6324Z" fill="#2C3E50"/>
<path d="M102.183 43.6324H100.458V40.1833H103.907V41.9079C103.907 42.8851 103.16 43.6324 102.183 43.6324Z" fill="#2C3E50"/>
<path d="M110.605 43.6326H108.881C107.903 43.6326 107.156 42.8853 107.156 41.908V40.1835H110.605V43.6326Z" fill="#2C3E50"/>
<path d="M113.955 40.1833H110.506V43.6324H113.955V40.1833Z" fill="#2C3E50"/>
<path d="M117.303 40.1835H113.853V43.6326H117.303V40.1835Z" fill="#2C3E50"/>
<path d="M118.926 43.6324H117.201V40.1833H120.65V41.9079C120.65 42.8851 119.903 43.6324 118.926 43.6324Z" fill="#2C3E50"/>
<path d="M6.7969 46.9813H3.34781V45.2568C3.34781 44.2795 4.09511 43.5322 5.07235 43.5322H6.7969V46.9813Z" fill="#2C3E50"/>
<path d="M10.1465 43.5322H6.69743V46.9813H10.1465V43.5322Z" fill="#2C3E50"/>
<path d="M13.4945 43.5322H10.0454V46.9813H13.4945V43.5322Z" fill="#2C3E50"/>
<path d="M28.5149 46.9813C29.4673 46.9813 30.2394 46.2092 30.2394 45.2568C30.2394 44.3043 29.4673 43.5322 28.5149 43.5322C27.5624 43.5322 26.7903 44.3043 26.7903 45.2568C26.7903 46.2092 27.5624 46.9813 28.5149 46.9813Z" fill="#2C3E50"/>
<path d="M38.5604 46.9813C37.5831 46.9813 36.8358 46.234 36.8358 45.2568V43.5322H40.2849V45.2568C40.2849 46.234 39.5376 46.9813 38.5604 46.9813Z" fill="#2C3E50"/>
<path d="M45.2544 46.9813C46.2068 46.9813 46.9789 46.2092 46.9789 45.2568C46.9789 44.3043 46.2068 43.5322 45.2544 43.5322C44.302 43.5322 43.5298 44.3043 43.5298 45.2568C43.5298 46.2092 44.302 46.9813 45.2544 46.9813Z" fill="#2C3E50"/>
<path d="M57.0263 46.9813H53.5772V45.2568C53.5772 44.2795 54.3245 43.5322 55.3017 43.5322H57.0263V46.9813Z" fill="#2C3E50"/>
<path d="M60.3741 43.5322H56.925V46.9813H60.3741V43.5322Z" fill="#2C3E50"/>
<path d="M63.7239 43.5322H60.2748V46.9813H63.7239V43.5322Z" fill="#2C3E50"/>
<path d="M65.3471 46.9813H63.6226V43.5322H67.0717V45.2568C67.0717 46.234 66.3244 46.9813 65.3471 46.9813Z" fill="#2C3E50"/>
<path d="M73.7693 46.9813H70.3202V45.2568C70.3202 44.2795 71.0675 43.5322 72.0448 43.5322C73.022 43.5322 73.7693 44.2795 73.7693 45.2568V46.9813Z" fill="#2C3E50"/>
<path d="M83.8146 43.5322H80.3656V46.9813H83.8146V43.5322Z" fill="#2C3E50"/>
<path d="M97.2098 46.9813H93.7607V45.2568C93.7607 44.2795 94.508 43.5322 95.4853 43.5322H97.2098V46.9813Z" fill="#2C3E50"/>
<path d="M98.835 46.9813H97.1105V43.5322H100.56V45.2568C100.56 46.234 99.8123 46.9813 98.835 46.9813Z" fill="#2C3E50"/>
<path d="M107.257 46.9813H103.808V45.2568C103.808 44.2795 104.555 43.5322 105.533 43.5322C106.51 43.5322 107.257 44.2795 107.257 45.2568V46.9813Z" fill="#2C3E50"/>
<path d="M113.955 43.5322H110.506V46.9813H113.955V43.5322Z" fill="#2C3E50"/>
<path d="M115.578 46.9813H113.853V43.5322H117.303V45.2568C117.303 46.234 116.555 46.9813 115.578 46.9813Z" fill="#2C3E50"/>
<path d="M3.44909 50.3297H1.72454C0.747303 50.3297 0 49.5824 0 48.6052C0 47.6279 0.747303 46.8806 1.72454 46.8806H3.44909V50.3297Z" fill="#2C3E50"/>
<path d="M6.7969 46.8806H3.34781V50.3297H6.7969V46.8806Z" fill="#2C3E50"/>
<path d="M10.1465 46.8806H6.69743V50.3297H10.1465V46.8806Z" fill="#2C3E50"/>
<path d="M13.4945 46.8806H10.0454V50.3297H13.4945V46.8806Z" fill="#2C3E50"/>
<path d="M16.8442 46.8806H13.3952V50.3297H16.8442V46.8806Z" fill="#2C3E50"/>
<path d="M20.1921 46.8806H16.743V50.3297H20.1921V46.8806Z" fill="#2C3E50"/>
<path d="M23.5384 46.8806H20.0893V50.3297H23.5384V46.8806Z" fill="#2C3E50"/>
<path d="M26.8896 50.3297H23.4406V46.8806H25.1651C26.1423 46.8806 26.8896 47.6279 26.8896 48.6052V50.3297Z" fill="#2C3E50"/>
<path d="M36.937 50.3297H33.4879V48.6052C33.4879 47.6279 34.2352 46.8806 35.2124 46.8806C36.1897 46.8806 36.937 47.6279 36.937 48.6052V50.3297Z" fill="#2C3E50"/>
<path d="M43.6346 50.3297H40.1855V48.6052C40.1855 47.6279 40.9328 46.8806 41.91 46.8806C42.8873 46.8806 43.6346 47.6279 43.6346 48.6052V50.3297Z" fill="#2C3E50"/>
<path d="M48.6042 50.3297C49.5566 50.3297 50.3287 49.5576 50.3287 48.6052C50.3287 47.6527 49.5566 46.8806 48.6042 46.8806C47.6517 46.8806 46.8796 47.6527 46.8796 48.6052C46.8796 49.5576 47.6517 50.3297 48.6042 50.3297Z" fill="#2C3E50"/>
<path d="M57.0263 46.8806H53.5772V50.3297H57.0263V46.8806Z" fill="#2C3E50"/>
<path d="M60.3741 46.8806H56.925V50.3297H60.3741V46.8806Z" fill="#2C3E50"/>
<path d="M63.7239 46.8806H60.2748V50.3297H63.7239V46.8806Z" fill="#2C3E50"/>
<path d="M70.4214 50.3297H66.9724V48.6052C66.9724 47.6279 67.7197 46.8806 68.6969 46.8806H70.4214V50.3297Z" fill="#2C3E50"/>
<path d="M73.7693 46.8806H70.3202V50.3297H73.7693V46.8806Z" fill="#2C3E50"/>
<path d="M80.4668 50.3297H77.0177V48.6052C77.0177 47.6279 77.765 46.8806 78.7422 46.8806H80.4668V50.3297Z" fill="#2C3E50"/>
<path d="M83.8146 46.8806H80.3656V50.3297H83.8146V46.8806Z" fill="#2C3E50"/>
<path d="M85.4399 50.3298H83.7153V46.8807H85.4399C86.4171 46.8807 87.1644 47.628 87.1644 48.6053C87.1644 49.5825 86.4171 50.3298 85.4399 50.3298Z" fill="#2C3E50"/>
<path d="M93.862 50.3297H90.4129V48.6052C90.4129 47.6279 91.1602 46.8806 92.1374 46.8806H93.862V50.3297Z" fill="#2C3E50"/>
<path d="M97.2098 46.8806H93.7607V50.3297H97.2098V46.8806Z" fill="#2C3E50"/>
<path d="M105.533 50.3297C104.555 50.3297 103.808 49.5824 103.808 48.6052V46.8806H107.257V48.6052C107.257 49.5824 106.51 50.3297 105.533 50.3297Z" fill="#2C3E50"/>
<path d="M112.23 50.3297C111.253 50.3297 110.506 49.5824 110.506 48.6052V46.8806H113.955V48.6052C113.955 49.5824 113.207 50.3297 112.23 50.3297Z" fill="#2C3E50"/>
<path d="M120.65 50.3297H117.201V48.6052C117.201 47.6279 117.949 46.8806 118.926 46.8806H120.65V50.3297Z" fill="#2C3E50"/>
<path d="M122.276 50.3297H120.551V46.8806H122.276C123.253 46.8806 124 47.6279 124 48.6052C124 49.5824 123.253 50.3297 122.276 50.3297Z" fill="#2C3E50"/>
<path d="M15.1197 53.6786C14.1425 53.6786 13.3952 52.9313 13.3952 51.954V50.2295H16.8442V51.954C16.8442 52.9313 16.0969 53.6786 15.1197 53.6786Z" fill="#2C3E50"/>
<path d="M26.8896 53.6786H25.1651C24.1879 53.6786 23.4406 52.9313 23.4406 51.954V50.2295H26.8896V53.6786Z" fill="#2C3E50"/>
<path d="M30.2394 53.6786H26.7903V50.2295H28.5149C29.4921 50.2295 30.2394 50.9768 30.2394 51.954V53.6786Z" fill="#2C3E50"/>
<path d="M36.937 50.2295H33.4879V53.6786H36.937V50.2295Z" fill="#2C3E50"/>
<path d="M43.6346 50.2295H40.1855V53.6786H43.6346V50.2295Z" fill="#2C3E50"/>
<path d="M55.3017 53.6786C54.3245 53.6786 53.5772 52.9313 53.5772 51.954V50.2295H57.0263V51.954C57.0263 52.9313 56.279 53.6786 55.3017 53.6786Z" fill="#2C3E50"/>
<path d="M63.7239 50.2295H60.2748V53.6786H63.7239V50.2295Z" fill="#2C3E50"/>
<path d="M67.0717 50.2295H63.6226V53.6786H67.0717V50.2295Z" fill="#2C3E50"/>
<path d="M70.4214 50.2295H66.9724V53.6786H70.4214V50.2295Z" fill="#2C3E50"/>
<path d="M73.7693 50.2294H70.3202V53.6785H73.7693V50.2294Z" fill="#2C3E50"/>
<path d="M77.1171 50.2295H73.668V53.6786H77.1171V50.2295Z" fill="#2C3E50"/>
<path d="M78.7422 53.6785H77.0177V50.2294H80.4668V51.9539C80.4668 52.9312 79.7195 53.6785 78.7422 53.6785Z" fill="#2C3E50"/>
<path d="M93.862 53.6786H92.1374C91.1602 53.6786 90.4129 52.9313 90.4129 51.954V50.2295H93.862V53.6786Z" fill="#2C3E50"/>
<path d="M97.2098 50.2295H93.7607V53.6786H97.2098V50.2295Z" fill="#2C3E50"/>
<path d="M100.56 50.2295H97.1105V53.6786H100.56V50.2295Z" fill="#2C3E50"/>
<path d="M103.907 53.6786H100.458V50.2295H102.183C103.16 50.2295 103.907 50.9768 103.907 51.954V53.6786Z" fill="#2C3E50"/>
<path d="M110.605 53.6785H107.156V51.9539C107.156 50.9767 107.903 50.2294 108.881 50.2294C109.858 50.2294 110.605 50.9767 110.605 51.9539V53.6785Z" fill="#2C3E50"/>
<path d="M120.65 50.2295H117.201V53.6786H120.65V50.2295Z" fill="#2C3E50"/>
<path d="M6.7969 57.027H5.07235C4.09511 57.027 3.34781 56.2797 3.34781 55.3024C3.34781 54.3252 4.09511 53.5779 5.07235 53.5779H6.7969V57.027Z" fill="#2C3E50"/>
<path d="M10.1465 53.578H6.69743V57.0271H10.1465V53.578Z" fill="#2C3E50"/>
<path d="M11.7699 57.027H10.0454V53.5779H11.7699C12.7472 53.5779 13.4945 54.3252 13.4945 55.3024C13.4945 56.2797 12.7472 57.027 11.7699 57.027Z" fill="#2C3E50"/>
<path d="M21.8138 57.027C22.7663 57.027 23.5384 56.2549 23.5384 55.3024C23.5384 54.35 22.7663 53.5779 21.8138 53.5779C20.8614 53.5779 20.0893 54.35 20.0893 55.3024C20.0893 56.2549 20.8614 57.027 21.8138 57.027Z" fill="#2C3E50"/>
<path d="M30.2394 53.5779H26.7903V57.027H30.2394V53.5779Z" fill="#2C3E50"/>
<path d="M35.2124 57.027C34.2352 57.027 33.4879 56.2797 33.4879 55.3024V53.5779H36.937V55.3024C36.937 56.2797 36.1897 57.027 35.2124 57.027Z" fill="#2C3E50"/>
<path d="M43.6346 53.5779H40.1855V57.027H43.6346V53.5779Z" fill="#2C3E50"/>
<path d="M53.6765 57.027H50.2274V55.3024C50.2274 54.3252 50.9747 53.5779 51.952 53.5779C52.9292 53.5779 53.6765 54.3252 53.6765 55.3024V57.027Z" fill="#2C3E50"/>
<path d="M60.3741 57.027H58.6496C57.6723 57.027 56.925 56.2797 56.925 55.3024C56.925 54.3252 57.6723 53.5779 58.6496 53.5779H60.3741V57.027Z" fill="#2C3E50"/>
<path d="M63.7239 53.5779H60.2748V57.027H63.7239V53.5779Z" fill="#2C3E50"/>
<path d="M65.3471 57.027H63.6226V53.5779H67.0717V55.3024C67.0717 56.2797 66.3244 57.027 65.3471 57.027Z" fill="#2C3E50"/>
<path d="M77.1171 53.5779H73.668V57.027H77.1171V53.5779Z" fill="#2C3E50"/>
<path d="M83.8146 57.027H80.3656V55.3024C80.3656 54.3252 81.1129 53.5779 82.0901 53.5779H83.8146V57.027Z" fill="#2C3E50"/>
<path d="M87.1644 53.578H83.7153V57.0271H87.1644V53.578Z" fill="#2C3E50"/>
<path d="M90.5122 57.027H87.0631V53.5779H88.7877C89.7649 53.5779 90.5122 54.3252 90.5122 55.3024V57.027Z" fill="#2C3E50"/>
<path d="M100.56 57.027H98.835C97.8578 57.027 97.1105 56.2797 97.1105 55.3024V53.5779H100.56V57.027Z" fill="#2C3E50"/>
<path d="M102.183 57.027H100.458V53.5779H103.907V55.3024C103.907 56.2797 103.16 57.027 102.183 57.027Z" fill="#2C3E50"/>
<path d="M108.881 57.0271C107.903 57.0271 107.156 56.2798 107.156 55.3025V53.578H110.605V55.3025C110.605 56.2798 109.858 57.0271 108.881 57.0271Z" fill="#2C3E50"/>
<path d="M117.303 57.0271H113.853V55.3025C113.853 54.3253 114.601 53.578 115.578 53.578H117.303V57.0271Z" fill="#2C3E50"/>
<path d="M118.926 57.027H117.201V53.5779H120.65V55.3024C120.65 56.2797 119.903 57.027 118.926 57.027Z" fill="#2C3E50"/>
<path d="M3.44909 60.3758H0V58.6513C0 57.6741 0.747303 56.9268 1.72454 56.9268C2.70179 56.9268 3.44909 57.6741 3.44909 58.6513V60.3758Z" fill="#2C3E50"/>
<path d="M8.42197 60.3758C7.44473 60.3758 6.69743 59.6285 6.69743 58.6513V56.9268H10.1465V58.6513C10.1465 59.6285 9.39921 60.3758 8.42197 60.3758Z" fill="#2C3E50"/>
<path d="M16.8442 60.3758H13.3952V58.6513C13.3952 57.6741 14.1425 56.9268 15.1197 56.9268H16.8442V60.3758Z" fill="#2C3E50"/>
<path d="M20.1921 60.3758H16.743V56.9268H18.4675C19.4448 56.9268 20.1921 57.6741 20.1921 58.6513V60.3758Z" fill="#2C3E50"/>
<path d="M26.8896 60.3758H23.4406V58.6513C23.4406 57.6741 24.1879 56.9268 25.1651 56.9268H26.8896V60.3758Z" fill="#2C3E50"/>
<path d="M30.2394 56.9268H26.7903V60.3758H30.2394V56.9268Z" fill="#2C3E50"/>
<path d="M31.8627 60.3758H30.1381V56.9268H31.8627C32.8399 56.9268 33.5872 57.6741 33.5872 58.6513C33.5872 59.6285 32.8399 60.3758 31.8627 60.3758Z" fill="#2C3E50"/>
<path d="M43.6346 56.9268H40.1855V60.3758H43.6346V56.9268Z" fill="#2C3E50"/>
<path d="M51.952 60.3758C50.9747 60.3758 50.2274 59.6285 50.2274 58.6513V56.9268H53.6765V58.6513C53.6765 59.6285 52.9292 60.3758 51.952 60.3758Z" fill="#2C3E50"/>
<path d="M75.3925 60.3758C74.4153 60.3758 73.668 59.6285 73.668 58.6513V56.9268H77.1171V58.6513C77.1171 59.6285 76.3698 60.3758 75.3925 60.3758Z" fill="#2C3E50"/>
<path d="M82.0901 60.3758C81.1129 60.3758 80.3656 59.6285 80.3656 58.6513V56.9268H83.8146V58.6513C83.8146 59.6285 83.0673 60.3758 82.0901 60.3758Z" fill="#2C3E50"/>
<path d="M88.7877 60.3758C87.8104 60.3758 87.0631 59.6285 87.0631 58.6513V56.9268H90.5122V58.6513C90.5122 59.6285 89.7649 60.3758 88.7877 60.3758Z" fill="#2C3E50"/>
<path d="M105.533 60.3758C106.485 60.3758 107.257 59.6037 107.257 58.6513C107.257 57.6989 106.485 56.9268 105.533 56.9268C104.58 56.9268 103.808 57.6989 103.808 58.6513C103.808 59.6037 104.58 60.3758 105.533 60.3758Z" fill="#2C3E50"/>
<path d="M115.578 60.3758C114.601 60.3758 113.853 59.6285 113.853 58.6513V56.9268H117.303V58.6513C117.303 59.6285 116.555 60.3758 115.578 60.3758Z" fill="#2C3E50"/>
<path d="M1.72454 63.7245C0.747303 63.7245 0 62.9772 0 61.9999V60.2754H3.44909V61.9999C3.44909 62.9772 2.70179 63.7245 1.72454 63.7245Z" fill="#2C3E50"/>
<path d="M16.8442 60.2755H13.3952V63.7246H16.8442V60.2755Z" fill="#2C3E50"/>
<path d="M20.1921 60.2755H16.743V63.7246H20.1921V60.2755Z" fill="#2C3E50"/>
<path d="M23.5384 60.2755H20.0893V63.7246H23.5384V60.2755Z" fill="#2C3E50"/>
<path d="M26.8896 60.2755H23.4406V63.7246H26.8896V60.2755Z" fill="#2C3E50"/>
<path d="M36.937 63.7246H33.4879V62.0001C33.4879 61.0228 34.2352 60.2755 35.2124 60.2755C36.1897 60.2755 36.937 61.0228 36.937 62.0001V63.7246Z" fill="#2C3E50"/>
<path d="M43.6346 63.7246H41.91C40.9328 63.7246 40.1855 62.9773 40.1855 62.0001V60.2755H43.6346V63.7246Z" fill="#2C3E50"/>
<path d="M46.9789 63.7246H43.5298V60.2755H45.2544C46.2316 60.2755 46.9789 61.0228 46.9789 62.0001V63.7246Z" fill="#2C3E50"/>
<path d="M60.3741 63.7246H58.6496C57.6723 63.7246 56.925 62.9773 56.925 62.0001C56.925 61.0228 57.6723 60.2755 58.6496 60.2755H60.3741V63.7246Z" fill="#2C3E50"/>
<path d="M61.9993 63.7246H60.2748V60.2755H61.9993C62.9766 60.2755 63.7239 61.0228 63.7239 62.0001C63.7239 62.9773 62.9766 63.7246 61.9993 63.7246Z" fill="#2C3E50"/>
<path d="M70.4214 63.7246H66.9724V62.0001C66.9724 61.0228 67.7197 60.2755 68.6969 60.2755H70.4214V63.7246Z" fill="#2C3E50"/>
<path d="M72.0448 63.7245H70.3202V60.2754H72.0448C73.022 60.2754 73.7693 61.0227 73.7693 61.9999C73.7693 62.9772 73.022 63.7245 72.0448 63.7245Z" fill="#2C3E50"/>
<path d="M93.862 63.7246H90.4129V62.0001C90.4129 61.0228 91.1602 60.2755 92.1374 60.2755H93.862V63.7246Z" fill="#2C3E50"/>
<path d="M97.2098 60.2755H93.7607V63.7246H97.2098V60.2755Z" fill="#2C3E50"/>
<path d="M98.835 63.7246H97.1105V60.2755H98.835C99.8123 60.2755 100.56 61.0228 100.56 62.0001C100.56 62.9773 99.8123 63.7246 98.835 63.7246Z" fill="#2C3E50"/>
<path d="M108.881 63.7245C109.833 63.7245 110.605 62.9524 110.605 61.9999C110.605 61.0475 109.833 60.2754 108.881 60.2754C107.928 60.2754 107.156 61.0475 107.156 61.9999C107.156 62.9524 107.928 63.7245 108.881 63.7245Z" fill="#2C3E50"/>
<path d="M120.65 63.7246H118.926C117.949 63.7246 117.201 62.9773 117.201 62.0001C117.201 61.0228 117.949 60.2755 118.926 60.2755H120.65V63.7246Z" fill="#2C3E50"/>
<path d="M124 63.7246H120.551V60.2755H122.276C123.253 60.2755 124 61.0228 124 62.0001V63.7246Z" fill="#2C3E50"/>
<path d="M10.1465 67.0729H6.69743V65.3483C6.69743 64.3711 7.44473 63.6238 8.42197 63.6238H10.1465V67.0729Z" fill="#2C3E50"/>
<path d="M13.4945 63.6238H10.0454V67.0729H13.4945V63.6238Z" fill="#2C3E50"/>
<path d="M16.8442 63.6238H13.3952V67.0729H16.8442V63.6238Z" fill="#2C3E50"/>
<path d="M20.1921 63.6238H16.743V67.0729H20.1921V63.6238Z" fill="#2C3E50"/>
<path d="M26.8896 67.0729H25.1651C24.1879 67.0729 23.4406 66.3256 23.4406 65.3483V63.6238H26.8896V67.0729Z" fill="#2C3E50"/>
<path d="M30.2394 67.0729H26.7903V63.6238H28.5149C29.4921 63.6238 30.2394 64.3711 30.2394 65.3483V67.0729Z" fill="#2C3E50"/>
<path d="M36.937 63.6238H33.4879V67.0729H36.937V63.6238Z" fill="#2C3E50"/>
<path d="M38.5604 67.0729H36.8358V63.6238H38.5604C39.5376 63.6238 40.2849 64.3711 40.2849 65.3483C40.2849 66.3256 39.5376 67.0729 38.5604 67.0729Z" fill="#2C3E50"/>
<path d="M46.9789 67.0729H45.2544C44.2771 67.0729 43.5298 66.3256 43.5298 65.3483V63.6238H46.9789V67.0729Z" fill="#2C3E50"/>
<path d="M50.3287 63.6238H46.8796V67.0729H50.3287V63.6238Z" fill="#2C3E50"/>
<path d="M51.952 67.0729H50.2274V63.6238H51.952C52.9292 63.6238 53.6765 64.3711 53.6765 65.3483C53.6765 66.3256 52.9292 67.0729 51.952 67.0729Z" fill="#2C3E50"/>
<path d="M70.4214 63.6238H66.9724V67.0729H70.4214V63.6238Z" fill="#2C3E50"/>
<path d="M77.1171 67.0729H75.3925C74.4153 67.0729 73.668 66.3256 73.668 65.3483C73.668 64.3711 74.4153 63.6238 75.3925 63.6238H77.1171V67.0729Z" fill="#2C3E50"/>
<path d="M80.4668 63.6238H77.0177V67.0729H80.4668V63.6238Z" fill="#2C3E50"/>
<path d="M82.0901 67.0729H80.3656V63.6238H82.0901C83.0673 63.6238 83.8146 64.3711 83.8146 65.3483C83.8146 66.3256 83.0673 67.0729 82.0901 67.0729Z" fill="#2C3E50"/>
<path d="M93.862 63.6238H90.4129V67.0729H93.862V63.6238Z" fill="#2C3E50"/>
<path d="M95.4853 67.0729H93.7607V63.6238H97.2098V65.3483C97.2098 66.3256 96.4625 67.0729 95.4853 67.0729Z" fill="#2C3E50"/>
<path d="M103.907 67.0729H100.458V65.3483C100.458 64.3711 101.206 63.6238 102.183 63.6238C103.16 63.6238 103.907 64.3711 103.907 65.3483V67.0729Z" fill="#2C3E50"/>
<path d="M122.276 67.0729C121.298 67.0729 120.551 66.3256 120.551 65.3483V63.6238H124V65.3483C124 66.3256 123.253 67.0729 122.276 67.0729Z" fill="#2C3E50"/>
<path d="M6.7969 70.4215H3.34781V68.697C3.34781 67.7197 4.09511 66.9724 5.07235 66.9724H6.7969V70.4215Z" fill="#2C3E50"/>
<path d="M8.42197 70.4216H6.69743V66.9725H10.1465V68.6971C10.1465 69.6743 9.39921 70.4216 8.42197 70.4216Z" fill="#2C3E50"/>
<path d="M16.8442 70.4215H15.1197C14.1425 70.4215 13.3952 69.6742 13.3952 68.697V66.9724H16.8442V70.4215Z" fill="#2C3E50"/>
<path d="M20.1921 66.9724H16.743V70.4215H20.1921V66.9724Z" fill="#2C3E50"/>
<path d="M21.8138 70.4215H20.0893V66.9724H21.8138C22.7911 66.9724 23.5384 67.7197 23.5384 68.697C23.5384 69.6742 22.7911 70.4215 21.8138 70.4215Z" fill="#2C3E50"/>
<path d="M30.2394 66.9724H26.7903V70.4215H30.2394V66.9724Z" fill="#2C3E50"/>
<path d="M36.937 66.9724H33.4879V70.4215H36.937V66.9724Z" fill="#2C3E50"/>
<path d="M67.0717 70.4215H65.3471C64.3699 70.4215 63.6226 69.6742 63.6226 68.697C63.6226 67.7197 64.3699 66.9724 65.3471 66.9724H67.0717V70.4215Z" fill="#2C3E50"/>
<path d="M70.4214 66.9724H66.9724V70.4215H70.4214V66.9724Z" fill="#2C3E50"/>
<path d="M87.1644 70.4215H85.4399C84.4626 70.4215 83.7153 69.6742 83.7153 68.697C83.7153 67.7197 84.4626 66.9724 85.4399 66.9724H87.1644V70.4215Z" fill="#2C3E50"/>
<path d="M90.5122 66.9724H87.0631V70.4215H90.5122V66.9724Z" fill="#2C3E50"/>
<path d="M92.1374 70.4215H90.4129V66.9724H93.862V68.697C93.862 69.6742 93.1147 70.4215 92.1374 70.4215Z" fill="#2C3E50"/>
<path d="M100.56 70.4215H98.835C97.8578 70.4215 97.1105 69.6742 97.1105 68.697C97.1105 67.7197 97.8578 66.9724 98.835 66.9724H100.56V70.4215Z" fill="#2C3E50"/>
<path d="M103.907 66.9724H100.458V70.4215H103.907V66.9724Z" fill="#2C3E50"/>
<path d="M107.257 66.9724H103.808V70.4215H107.257V66.9724Z" fill="#2C3E50"/>
<path d="M110.605 66.9725H107.156V70.4216H110.605V66.9725Z" fill="#2C3E50"/>
<path d="M113.955 66.9724H110.506V70.4215H113.955V66.9724Z" fill="#2C3E50"/>
<path d="M117.303 70.4216H113.853V66.9725H115.578C116.555 66.9725 117.303 67.7198 117.303 68.6971V70.4216Z" fill="#2C3E50"/>
<path d="M6.7969 70.3213H3.34781V73.7704H6.7969V70.3213Z" fill="#2C3E50"/>
<path d="M20.1921 70.3213H16.743V73.7704H20.1921V70.3213Z" fill="#2C3E50"/>
<path d="M28.5149 73.7704C27.5376 73.7704 26.7903 73.0231 26.7903 72.0458V70.3213H30.2394V72.0458C30.2394 73.0231 29.4921 73.7704 28.5149 73.7704Z" fill="#2C3E50"/>
<path d="M36.937 70.3213H33.4879V73.7704H36.937V70.3213Z" fill="#2C3E50"/>
<path d="M38.5604 73.7704H36.8358V70.3213H38.5604C39.5376 70.3213 40.2849 71.0686 40.2849 72.0458C40.2849 73.0231 39.5376 73.7704 38.5604 73.7704Z" fill="#2C3E50"/>
<path d="M45.2544 73.7704C46.2068 73.7704 46.9789 72.9983 46.9789 72.0458C46.9789 71.0934 46.2068 70.3213 45.2544 70.3213C44.302 70.3213 43.5298 71.0934 43.5298 72.0458C43.5298 72.9983 44.302 73.7704 45.2544 73.7704Z" fill="#2C3E50"/>
<path d="M53.6765 73.7704H50.2274V72.0458C50.2274 71.0686 50.9747 70.3213 51.952 70.3213C52.9292 70.3213 53.6765 71.0686 53.6765 72.0458V73.7704Z" fill="#2C3E50"/>
<path d="M60.3741 73.7704H56.925V72.0458C56.925 71.0686 57.6723 70.3213 58.6496 70.3213H60.3741V73.7704Z" fill="#2C3E50"/>
<path d="M61.9993 73.7704H60.2748V70.3213H61.9993C62.9766 70.3213 63.7239 71.0686 63.7239 72.0458C63.7239 73.0231 62.9766 73.7704 61.9993 73.7704Z" fill="#2C3E50"/>
<path d="M68.6969 73.7704C67.7197 73.7704 66.9724 73.0231 66.9724 72.0458V70.3213H70.4214V72.0458C70.4214 73.0231 69.6741 73.7704 68.6969 73.7704Z" fill="#2C3E50"/>
<path d="M77.1171 73.7704H73.668V72.0458C73.668 71.0686 74.4153 70.3213 75.3925 70.3213C76.3698 70.3213 77.1171 71.0686 77.1171 72.0458V73.7704Z" fill="#2C3E50"/>
<path d="M88.7877 73.7704C87.8104 73.7704 87.0631 73.0231 87.0631 72.0458V70.3213H90.5122V72.0458C90.5122 73.0231 89.7649 73.7704 88.7877 73.7704Z" fill="#2C3E50"/>
<path d="M105.533 73.7704C104.555 73.7704 103.808 73.0231 103.808 72.0458V70.3213H107.257V72.0458C107.257 73.0231 106.51 73.7704 105.533 73.7704Z" fill="#2C3E50"/>
<path d="M117.303 70.3213H113.853V73.7704H117.303V70.3213Z" fill="#2C3E50"/>
<path d="M5.07235 77.119C4.09511 77.119 3.34781 76.3717 3.34781 75.3945V73.6699H6.7969V75.3945C6.7969 76.3717 6.0496 77.119 5.07235 77.119Z" fill="#2C3E50"/>
<path d="M20.1921 77.119H18.4675C17.4903 77.119 16.743 76.3717 16.743 75.3945V73.6699H20.1921V77.119Z" fill="#2C3E50"/>
<path d="M21.8138 77.119H20.0893V73.6699H21.8138C22.7911 73.6699 23.5384 74.4172 23.5384 75.3945C23.5384 76.3717 22.7911 77.119 21.8138 77.119Z" fill="#2C3E50"/>
<path d="M33.5872 77.119H31.8627C30.8854 77.119 30.1381 76.3717 30.1381 75.3945C30.1381 74.4172 30.8854 73.6699 31.8627 73.6699H33.5872V77.119Z" fill="#2C3E50"/>
<path d="M36.937 73.6699H33.4879V77.119H36.937V73.6699Z" fill="#2C3E50"/>
<path d="M50.3287 77.119H46.8796V75.3945C46.8796 74.4172 47.6269 73.6699 48.6042 73.6699H50.3287V77.119Z" fill="#2C3E50"/>
<path d="M53.6765 73.6699H50.2274V77.119H53.6765V73.6699Z" fill="#2C3E50"/>
<path d="M60.3741 73.6699H56.925V77.119H60.3741V73.6699Z" fill="#2C3E50"/>
<path d="M65.3471 77.119C66.2996 77.119 67.0717 76.3469 67.0717 75.3945C67.0717 74.442 66.2996 73.6699 65.3471 73.6699C64.3947 73.6699 63.6226 74.442 63.6226 75.3945C63.6226 76.3469 64.3947 77.119 65.3471 77.119Z" fill="#2C3E50"/>
<path d="M77.1171 77.119H75.3925C74.4153 77.119 73.668 76.3717 73.668 75.3945V73.6699H77.1171V77.119Z" fill="#2C3E50"/>
<path d="M78.7422 77.119H77.0177V73.6699H78.7422C79.7195 73.6699 80.4668 74.4172 80.4668 75.3945C80.4668 76.3717 79.7195 77.119 78.7422 77.119Z" fill="#2C3E50"/>
<path d="M92.1374 77.119C93.0899 77.119 93.862 76.3469 93.862 75.3945C93.862 74.442 93.0899 73.6699 92.1374 73.6699C91.185 73.6699 90.4129 74.442 90.4129 75.3945C90.4129 76.3469 91.185 77.119 92.1374 77.119Z" fill="#2C3E50"/>
<path d="M100.56 77.119H97.1105V75.3945C97.1105 74.4172 97.8578 73.6699 98.835 73.6699C99.8123 73.6699 100.56 74.4172 100.56 75.3945V77.119Z" fill="#2C3E50"/>
<path d="M117.303 77.119H115.578C114.601 77.119 113.853 76.3717 113.853 75.3945V73.6699H117.303V77.119Z" fill="#2C3E50"/>
<path d="M120.65 73.6699H117.201V77.119H120.65V73.6699Z" fill="#2C3E50"/>
<path d="M124 77.119H120.551V73.6699H122.276C123.253 73.6699 124 74.4172 124 75.3945V77.119Z" fill="#2C3E50"/>
<path d="M10.1465 80.4674H6.69743V78.7429C6.69743 77.7656 7.44473 77.0183 8.42197 77.0183C9.39921 77.0183 10.1465 77.7656 10.1465 78.7429V80.4674Z" fill="#2C3E50"/>
<path d="M30.2394 80.4674H26.7903V78.7429C26.7903 77.7656 27.5376 77.0183 28.5149 77.0183C29.4921 77.0183 30.2394 77.7656 30.2394 78.7429V80.4674Z" fill="#2C3E50"/>
<path d="M36.937 80.4674H35.2124C34.2352 80.4674 33.4879 79.7201 33.4879 78.7429V77.0183H36.937V80.4674Z" fill="#2C3E50"/>
<path d="M38.5604 80.4674H36.8358V77.0183H38.5604C39.5376 77.0183 40.2849 77.7656 40.2849 78.7429C40.2849 79.7201 39.5376 80.4674 38.5604 80.4674Z" fill="#2C3E50"/>
<path d="M46.9789 80.4674H45.2544C44.2771 80.4674 43.5298 79.7201 43.5298 78.7429C43.5298 77.7656 44.2771 77.0183 45.2544 77.0183H46.9789V80.4674Z" fill="#2C3E50"/>
<path d="M50.3287 77.0183H46.8796V80.4674H50.3287V77.0183Z" fill="#2C3E50"/>
<path d="M53.6765 77.0183H50.2274V80.4674H53.6765V77.0183Z" fill="#2C3E50"/>
<path d="M57.0263 77.0183H53.5772V80.4674H57.0263V77.0183Z" fill="#2C3E50"/>
<path d="M60.3741 77.0183H56.925V80.4674H60.3741V77.0183Z" fill="#2C3E50"/>
<path d="M70.4214 80.4674H68.6969C67.7197 80.4674 66.9724 79.7201 66.9724 78.7429C66.9724 77.7656 67.7197 77.0183 68.6969 77.0183H70.4214V80.4674Z" fill="#2C3E50"/>
<path d="M72.0448 80.4674H70.3202V77.0183H72.0448C73.022 77.0183 73.7693 77.7656 73.7693 78.7429C73.7693 79.7201 73.022 80.4674 72.0448 80.4674Z" fill="#2C3E50"/>
<path d="M82.0901 80.4674C83.0425 80.4674 83.8146 79.6953 83.8146 78.7429C83.8146 77.7904 83.0425 77.0183 82.0901 77.0183C81.1377 77.0183 80.3656 77.7904 80.3656 78.7429C80.3656 79.6953 81.1377 80.4674 82.0901 80.4674Z" fill="#2C3E50"/>
<path d="M88.7877 80.4674C89.7401 80.4674 90.5122 79.6953 90.5122 78.7429C90.5122 77.7904 89.7401 77.0183 88.7877 77.0183C87.8352 77.0183 87.0631 77.7904 87.0631 78.7429C87.0631 79.6953 87.8352 80.4674 88.7877 80.4674Z" fill="#2C3E50"/>
<path d="M100.56 77.0183H97.1105V80.4674H100.56V77.0183Z" fill="#2C3E50"/>
<path d="M105.533 80.4674C106.485 80.4674 107.257 79.6953 107.257 78.7429C107.257 77.7904 106.485 77.0183 105.533 77.0183C104.58 77.0183 103.808 77.7904 103.808 78.7429C103.808 79.6953 104.58 80.4674 105.533 80.4674Z" fill="#2C3E50"/>
<path d="M120.65 80.4674H118.926C117.949 80.4674 117.201 79.7201 117.201 78.7429V77.0183H120.65V80.4674Z" fill="#2C3E50"/>
<path d="M122.276 80.4674H120.551V77.0183H124V78.7429C124 79.7201 123.253 80.4674 122.276 80.4674Z" fill="#2C3E50"/>
<path d="M3.44909 83.8162H0V82.0916C0 81.1144 0.747303 80.3671 1.72454 80.3671H3.44909V83.8162Z" fill="#2C3E50"/>
<path d="M6.7969 80.3672H3.34781V83.8163H6.7969V80.3672Z" fill="#2C3E50"/>
<path d="M10.1465 80.3671H6.69743V83.8162H10.1465V80.3671Z" fill="#2C3E50"/>
<path d="M13.4945 80.3672H10.0454V83.8163H13.4945V80.3672Z" fill="#2C3E50"/>
<path d="M16.8442 80.3672H13.3952V83.8163H16.8442V80.3672Z" fill="#2C3E50"/>
<path d="M20.1921 80.3672H16.743V83.8163H20.1921V80.3672Z" fill="#2C3E50"/>
<path d="M21.8138 83.8163H20.0893V80.3672H21.8138C22.7911 80.3672 23.5384 81.1145 23.5384 82.0917C23.5384 83.069 22.7911 83.8163 21.8138 83.8163Z" fill="#2C3E50"/>
<path d="M30.2394 83.8163H28.5149C27.5376 83.8163 26.7903 83.069 26.7903 82.0917V80.3672H30.2394V83.8163Z" fill="#2C3E50"/>
<path d="M31.8627 83.8163H30.1381V80.3672H31.8627C32.8399 80.3672 33.5872 81.1145 33.5872 82.0917C33.5872 83.069 32.8399 83.8163 31.8627 83.8163Z" fill="#2C3E50"/>
<path d="M48.6042 83.8163C47.6269 83.8163 46.8796 83.069 46.8796 82.0917V80.3672H50.3287V82.0917C50.3287 83.069 49.5814 83.8163 48.6042 83.8163Z" fill="#2C3E50"/>
<path d="M57.0263 83.8163H55.3017C54.3245 83.8163 53.5772 83.069 53.5772 82.0917V80.3672H57.0263V83.8163Z" fill="#2C3E50"/>
<path d="M58.6496 83.8163H56.925V80.3672H60.3741V82.0917C60.3741 83.069 59.6268 83.8163 58.6496 83.8163Z" fill="#2C3E50"/>
<path d="M78.7422 83.8162C79.6947 83.8162 80.4668 83.044 80.4668 82.0916C80.4668 81.1392 79.6947 80.3671 78.7422 80.3671C77.7898 80.3671 77.0177 81.1392 77.0177 82.0916C77.0177 83.044 77.7898 83.8162 78.7422 83.8162Z" fill="#2C3E50"/>
<path d="M100.56 83.8163H98.835C97.8578 83.8163 97.1105 83.069 97.1105 82.0917V80.3672H100.56V83.8163Z" fill="#2C3E50"/>
<path d="M102.183 83.8163H100.458V80.3672H102.183C103.16 80.3672 103.907 81.1145 103.907 82.0917C103.907 83.069 103.16 83.8163 102.183 83.8163Z" fill="#2C3E50"/>
<path d="M110.605 83.8162H108.881C107.903 83.8162 107.156 83.0689 107.156 82.0916C107.156 81.1144 107.903 80.3671 108.881 80.3671H110.605V83.8162Z" fill="#2C3E50"/>
<path d="M113.955 80.3672H110.506V83.8163H113.955V80.3672Z" fill="#2C3E50"/>
<path d="M115.578 83.8162H113.853V80.3671H115.578C116.555 80.3671 117.303 81.1144 117.303 82.0916C117.303 83.0689 116.555 83.8162 115.578 83.8162Z" fill="#2C3E50"/>
<path d="M3.44909 83.7158H0V87.1649H3.44909V83.7158Z" fill="#2C3E50"/>
<path d="M6.7969 83.7157H3.34781V87.1648H6.7969V83.7157Z" fill="#2C3E50"/>
<path d="M8.42197 87.1649H6.69743V83.7158H10.1465V85.4404C10.1465 86.4176 9.39921 87.1649 8.42197 87.1649Z" fill="#2C3E50"/>
<path d="M45.2544 87.1648C46.2068 87.1648 46.9789 86.3927 46.9789 85.4402C46.9789 84.4878 46.2068 83.7157 45.2544 83.7157C44.302 83.7157 43.5298 84.4878 43.5298 85.4402C43.5298 86.3927 44.302 87.1648 45.2544 87.1648Z" fill="#2C3E50"/>
<path d="M53.6765 87.1648H50.2274V85.4402C50.2274 84.463 50.9747 83.7157 51.952 83.7157C52.9292 83.7157 53.6765 84.463 53.6765 85.4402V87.1648Z" fill="#2C3E50"/>
<path d="M63.7239 87.1648H60.2748V85.4402C60.2748 84.463 61.0221 83.7157 61.9993 83.7157C62.9766 83.7157 63.7239 84.463 63.7239 85.4402V87.1648Z" fill="#2C3E50"/>
<path d="M73.7693 87.1649H72.0448C71.0675 87.1649 70.3202 86.4176 70.3202 85.4404C70.3202 84.4631 71.0675 83.7158 72.0448 83.7158H73.7693V87.1649Z" fill="#2C3E50"/>
<path d="M75.3925 87.1648H73.668V83.7157H75.3925C76.3698 83.7157 77.1171 84.463 77.1171 85.4402C77.1171 86.4175 76.3698 87.1648 75.3925 87.1648Z" fill="#2C3E50"/>
<path d="M82.0901 87.1648C83.0425 87.1648 83.8146 86.3927 83.8146 85.4402C83.8146 84.4878 83.0425 83.7157 82.0901 83.7157C81.1377 83.7157 80.3656 84.4878 80.3656 85.4402C80.3656 86.3927 81.1377 87.1648 82.0901 87.1648Z" fill="#2C3E50"/>
<path d="M90.5122 87.1648H87.0631V85.4402C87.0631 84.463 87.8104 83.7157 88.7877 83.7157C89.7649 83.7157 90.5122 84.463 90.5122 85.4402V87.1648Z" fill="#2C3E50"/>
<path d="M105.533 87.1648C106.485 87.1648 107.257 86.3927 107.257 85.4402C107.257 84.4878 106.485 83.7157 105.533 83.7157C104.58 83.7157 103.808 84.4878 103.808 85.4402C103.808 86.3927 104.58 87.1648 105.533 87.1648Z" fill="#2C3E50"/>
<path d="M112.23 87.1648C111.253 87.1648 110.506 86.4175 110.506 85.4402V83.7157H113.955V85.4402C113.955 86.4175 113.207 87.1648 112.23 87.1648Z" fill="#2C3E50"/>
<path d="M3.44909 87.0645H0V90.5135H3.44909V87.0645Z" fill="#2C3E50"/>
<path d="M16.8442 90.5135H13.3952V88.789C13.3952 87.8118 14.1425 87.0645 15.1197 87.0645H16.8442V90.5135Z" fill="#2C3E50"/>
<path d="M20.1921 87.0645H16.743V90.5135H20.1921V87.0645Z" fill="#2C3E50"/>
<path d="M21.8138 90.5135H20.0893V87.0645H21.8138C22.7911 87.0645 23.5384 87.8118 23.5384 88.789C23.5384 89.7662 22.7911 90.5135 21.8138 90.5135Z" fill="#2C3E50"/>
<path d="M28.5149 90.5135C29.4673 90.5135 30.2394 89.7414 30.2394 88.789C30.2394 87.8366 29.4673 87.0645 28.5149 87.0645C27.5624 87.0645 26.7903 87.8366 26.7903 88.789C26.7903 89.7414 27.5624 90.5135 28.5149 90.5135Z" fill="#2C3E50"/>
<path d="M36.937 90.5135H33.4879V88.789C33.4879 87.8118 34.2352 87.0645 35.2124 87.0645C36.1897 87.0645 36.937 87.8118 36.937 88.789V90.5135Z" fill="#2C3E50"/>
<path d="M50.3287 90.5135H48.6042C47.6269 90.5135 46.8796 89.7662 46.8796 88.789C46.8796 87.8118 47.6269 87.0645 48.6042 87.0645H50.3287V90.5135Z" fill="#2C3E50"/>
<path d="M51.952 90.5135H50.2274V87.0645H53.6765V88.789C53.6765 89.7662 52.9292 90.5135 51.952 90.5135Z" fill="#2C3E50"/>
<path d="M61.9993 90.5135C61.0221 90.5135 60.2748 89.7662 60.2748 88.789V87.0645H63.7239V88.789C63.7239 89.7662 62.9766 90.5135 61.9993 90.5135Z" fill="#2C3E50"/>
<path d="M68.6969 90.5135C69.6493 90.5135 70.4214 89.7414 70.4214 88.789C70.4214 87.8366 69.6493 87.0645 68.6969 87.0645C67.7445 87.0645 66.9724 87.8366 66.9724 88.789C66.9724 89.7414 67.7445 90.5135 68.6969 90.5135Z" fill="#2C3E50"/>
<path d="M90.5122 87.0645H87.0631V90.5135H90.5122V87.0645Z" fill="#2C3E50"/>
<path d="M92.1374 90.5135H90.4129V87.0645H92.1374C93.1147 87.0645 93.862 87.8118 93.862 88.789C93.862 89.7662 93.1147 90.5135 92.1374 90.5135Z" fill="#2C3E50"/>
<path d="M102.183 90.5135C103.135 90.5135 103.907 89.7414 103.907 88.789C103.907 87.8366 103.135 87.0645 102.183 87.0645C101.23 87.0645 100.458 87.8366 100.458 88.789C100.458 89.7414 101.23 90.5135 102.183 90.5135Z" fill="#2C3E50"/>
<path d="M120.65 90.5135H117.201V88.789C117.201 87.8118 117.949 87.0645 118.926 87.0645H120.65V90.5135Z" fill="#2C3E50"/>
<path d="M122.276 90.5135H120.551V87.0645H122.276C123.253 87.0645 124 87.8118 124 88.789C124 89.7662 123.253 90.5135 122.276 90.5135Z" fill="#2C3E50"/>
<path d="M3.44909 90.4128H0V93.8619H3.44909V90.4128Z" fill="#2C3E50"/>
<path d="M16.8442 93.8619H15.1197C14.1425 93.8619 13.3952 93.1146 13.3952 92.1374V90.4128H16.8442V93.8619Z" fill="#2C3E50"/>
<path d="M20.1921 90.4128H16.743V93.8619H20.1921V90.4128Z" fill="#2C3E50"/>
<path d="M33.5872 93.8619H31.8627C30.8854 93.8619 30.1381 93.1146 30.1381 92.1374C30.1381 91.1601 30.8854 90.4128 31.8627 90.4128H33.5872V93.8619Z" fill="#2C3E50"/>
<path d="M36.937 90.4128H33.4879V93.8619H36.937V90.4128Z" fill="#2C3E50"/>
<path d="M43.6346 93.8619H41.91C40.9328 93.8619 40.1855 93.1146 40.1855 92.1374C40.1855 91.1601 40.9328 90.4128 41.91 90.4128H43.6346V93.8619Z" fill="#2C3E50"/>
<path d="M45.2544 93.8619H43.5298V90.4128H45.2544C46.2316 90.4128 46.9789 91.1601 46.9789 92.1374C46.9789 93.1146 46.2316 93.8619 45.2544 93.8619Z" fill="#2C3E50"/>
<path d="M65.3471 93.8619C66.2996 93.8619 67.0717 93.0898 67.0717 92.1374C67.0717 91.1849 66.2996 90.4128 65.3471 90.4128C64.3947 90.4128 63.6226 91.1849 63.6226 92.1374C63.6226 93.0898 64.3947 93.8619 65.3471 93.8619Z" fill="#2C3E50"/>
<path d="M73.7693 93.8619H72.0448C71.0675 93.8619 70.3202 93.1146 70.3202 92.1374C70.3202 91.1601 71.0675 90.4128 72.0448 90.4128H73.7693V93.8619Z" fill="#2C3E50"/>
<path d="M75.3925 93.8619H73.668V90.4128H75.3925C76.3698 90.4128 77.1171 91.1601 77.1171 92.1374C77.1171 93.1146 76.3698 93.8619 75.3925 93.8619Z" fill="#2C3E50"/>
<path d="M83.8146 93.8619H80.3656V92.1374C80.3656 91.1601 81.1129 90.4128 82.0901 90.4128C83.0673 90.4128 83.8146 91.1601 83.8146 92.1374V93.8619Z" fill="#2C3E50"/>
<path d="M90.5122 90.4128H87.0631V93.8619H90.5122V90.4128Z" fill="#2C3E50"/>
<path d="M97.2098 93.8619H93.7607V92.1374C93.7607 91.1601 94.508 90.4128 95.4853 90.4128H97.2098V93.8619Z" fill="#2C3E50"/>
<path d="M100.56 93.8619H97.1105V90.4128H98.835C99.8123 90.4128 100.56 91.1601 100.56 92.1374V93.8619Z" fill="#2C3E50"/>
<path d="M107.257 93.8619H103.808V92.1374C103.808 91.1601 104.555 90.4128 105.533 90.4128C106.51 90.4128 107.257 91.1601 107.257 92.1374V93.8619Z" fill="#2C3E50"/>
<path d="M120.65 90.4128H117.201V93.8619H120.65V90.4128Z" fill="#2C3E50"/>
<path d="M1.72454 97.2107C0.747303 97.2107 0 96.4634 0 95.4861V93.7616H3.44909V95.4861C3.44909 96.4634 2.70179 97.2107 1.72454 97.2107Z" fill="#2C3E50"/>
<path d="M20.1921 97.2108H18.4675C17.4903 97.2108 16.743 96.4635 16.743 95.4863V93.7617H20.1921V97.2108Z" fill="#2C3E50"/>
<path d="M21.8138 97.2108H20.0893V93.7617H21.8138C22.7911 93.7617 23.5384 94.509 23.5384 95.4863C23.5384 96.4635 22.7911 97.2108 21.8138 97.2108Z" fill="#2C3E50"/>
<path d="M36.937 97.2108H35.2124C34.2352 97.2108 33.4879 96.4635 33.4879 95.4863V93.7617H36.937V97.2108Z" fill="#2C3E50"/>
<path d="M38.5604 97.2107H36.8358V93.7616H38.5604C39.5376 93.7616 40.2849 94.5089 40.2849 95.4861C40.2849 96.4634 39.5376 97.2107 38.5604 97.2107Z" fill="#2C3E50"/>
<path d="M57.0263 97.2108H53.5772V95.4863C53.5772 94.509 54.3245 93.7617 55.3017 93.7617H57.0263V97.2108Z" fill="#2C3E50"/>
<path d="M60.3741 97.2108H56.925V93.7617H58.6496C59.6268 93.7617 60.3741 94.509 60.3741 95.4863V97.2108Z" fill="#2C3E50"/>
<path d="M70.4214 97.2108H66.9724V95.4863C66.9724 94.509 67.7197 93.7617 68.6969 93.7617C69.6741 93.7617 70.4214 94.509 70.4214 95.4863V97.2108Z" fill="#2C3E50"/>
<path d="M83.8146 97.2108H82.0901C81.1129 97.2108 80.3656 96.4635 80.3656 95.4863V93.7617H83.8146V97.2108Z" fill="#2C3E50"/>
<path d="M87.1644 93.7616H83.7153V97.2107H87.1644V93.7616Z" fill="#2C3E50"/>
<path d="M88.7877 97.2108H87.0631V93.7617H90.5122V95.4863C90.5122 96.4635 89.7649 97.2108 88.7877 97.2108Z" fill="#2C3E50"/>
<path d="M97.2098 93.7617H93.7607V97.2108H97.2098V93.7617Z" fill="#2C3E50"/>
<path d="M100.56 93.7617H97.1105V97.2108H100.56V93.7617Z" fill="#2C3E50"/>
<path d="M103.907 93.7617H100.458V97.2108H103.907V93.7617Z" fill="#2C3E50"/>
<path d="M107.257 93.7617H103.808V97.2108H107.257V93.7617Z" fill="#2C3E50"/>
<path d="M110.605 97.2107H107.156V93.7616H108.881C109.858 93.7616 110.605 94.5089 110.605 95.4861V97.2107Z" fill="#2C3E50"/>
<path d="M117.303 97.2107H115.578C114.601 97.2107 113.853 96.4634 113.853 95.4861C113.853 94.5089 114.601 93.7616 115.578 93.7616H117.303V97.2107Z" fill="#2C3E50"/>
<path d="M118.926 97.2108H117.201V93.7617H120.65V95.4863C120.65 96.4635 119.903 97.2108 118.926 97.2108Z" fill="#2C3E50"/>
<path d="M30.2394 100.559H28.5149C27.5376 100.559 26.7903 99.8119 26.7903 98.8347C26.7903 97.8574 27.5376 97.1101 28.5149 97.1101H30.2394V100.559Z" fill="#2C3E50"/>
<path d="M33.5872 100.559H30.1381V97.1101H31.8627C32.8399 97.1101 33.5872 97.8574 33.5872 98.8347V100.559Z" fill="#2C3E50"/>
<path d="M43.6346 100.559H41.91C40.9328 100.559 40.1855 99.8119 40.1855 98.8347C40.1855 97.8574 40.9328 97.1101 41.91 97.1101H43.6346V100.559Z" fill="#2C3E50"/>
<path d="M46.9789 97.1101H43.5298V100.559H46.9789V97.1101Z" fill="#2C3E50"/>
<path d="M50.3287 97.1101H46.8796V100.559H50.3287V97.1101Z" fill="#2C3E50"/>
<path d="M53.6765 97.1101H50.2274V100.559H53.6765V97.1101Z" fill="#2C3E50"/>
<path d="M57.0263 97.1101H53.5772V100.559H57.0263V97.1101Z" fill="#2C3E50"/>
<path d="M60.3741 97.1101H56.925V100.559H60.3741V97.1101Z" fill="#2C3E50"/>
<path d="M63.7239 100.559H60.2748V97.1101H61.9993C62.9766 97.1101 63.7239 97.8574 63.7239 98.8347V100.559Z" fill="#2C3E50"/>
<path d="M70.4214 100.559H68.6969C67.7197 100.559 66.9724 99.8119 66.9724 98.8347V97.1101H70.4214V100.559Z" fill="#2C3E50"/>
<path d="M73.7693 97.1102H70.3202V100.559H73.7693V97.1102Z" fill="#2C3E50"/>
<path d="M77.1171 97.1101H73.668V100.559H77.1171V97.1101Z" fill="#2C3E50"/>
<path d="M78.7422 100.559H77.0177V97.1102H78.7422C79.7195 97.1102 80.4668 97.8575 80.4668 98.8348C80.4668 99.812 79.7195 100.559 78.7422 100.559Z" fill="#2C3E50"/>
<path d="M93.862 100.559H92.1374C91.1602 100.559 90.4129 99.8119 90.4129 98.8347C90.4129 97.8574 91.1602 97.1101 92.1374 97.1101H93.862V100.559Z" fill="#2C3E50"/>
<path d="M97.2098 97.1101H93.7607V100.559H97.2098V97.1101Z" fill="#2C3E50"/>
<path d="M110.605 97.1102H107.156V100.559H110.605V97.1102Z" fill="#2C3E50"/>
<path d="M33.5872 100.459H30.1381V103.908H33.5872V100.459Z" fill="#2C3E50"/>
<path d="M38.5604 103.908C39.5128 103.908 40.2849 103.136 40.2849 102.184C40.2849 101.231 39.5128 100.459 38.5604 100.459C37.6079 100.459 36.8358 101.231 36.8358 102.184C36.8358 103.136 37.6079 103.908 38.5604 103.908Z" fill="#2C3E50"/>
<path d="M45.2544 103.908C44.2771 103.908 43.5298 103.161 43.5298 102.184V100.459H46.9789V102.184C46.9789 103.161 46.2316 103.908 45.2544 103.908Z" fill="#2C3E50"/>
<path d="M55.3017 103.908C54.3245 103.908 53.5772 103.161 53.5772 102.184V100.459H57.0263V102.184C57.0263 103.161 56.279 103.908 55.3017 103.908Z" fill="#2C3E50"/>
<path d="M61.9993 103.908C61.0221 103.908 60.2748 103.161 60.2748 102.184V100.459H63.7239V102.184C63.7239 103.161 62.9766 103.908 61.9993 103.908Z" fill="#2C3E50"/>
<path d="M73.7693 100.459H70.3202V103.908H73.7693V100.459Z" fill="#2C3E50"/>
<path d="M77.1171 100.459H73.668V103.908H77.1171V100.459Z" fill="#2C3E50"/>
<path d="M82.0901 103.908C83.0425 103.908 83.8146 103.136 83.8146 102.184C83.8146 101.231 83.0425 100.459 82.0901 100.459C81.1377 100.459 80.3656 101.231 80.3656 102.184C80.3656 103.136 81.1377 103.908 82.0901 103.908Z" fill="#2C3E50"/>
<path d="M90.5122 103.908H87.0631V102.184C87.0631 101.206 87.8104 100.459 88.7877 100.459C89.7649 100.459 90.5122 101.206 90.5122 102.184V103.908Z" fill="#2C3E50"/>
<path d="M97.2098 100.459H93.7607V103.908H97.2098V100.459Z" fill="#2C3E50"/>
<path d="M102.183 103.908C103.135 103.908 103.907 103.136 103.907 102.184C103.907 101.231 103.135 100.459 102.183 100.459C101.23 100.459 100.458 101.231 100.458 102.184C100.458 103.136 101.23 103.908 102.183 103.908Z" fill="#2C3E50"/>
<path d="M110.605 100.459H107.156V103.908H110.605V100.459Z" fill="#2C3E50"/>
<path d="M112.23 103.908H110.506V100.459H112.23C113.207 100.459 113.955 101.206 113.955 102.184C113.955 103.161 113.207 103.908 112.23 103.908Z" fill="#2C3E50"/>
<path d="M120.65 103.908H117.201V102.184C117.201 101.206 117.949 100.459 118.926 100.459H120.65V103.908Z" fill="#2C3E50"/>
<path d="M122.276 103.908H120.551V100.459H122.276C123.253 100.459 124 101.206 124 102.184C124 103.161 123.253 103.908 122.276 103.908Z" fill="#2C3E50"/>
<path d="M33.5872 103.807H30.1381V107.256H33.5872V103.807Z" fill="#2C3E50"/>
<path d="M51.952 107.256C52.9044 107.256 53.6765 106.484 53.6765 105.532C53.6765 104.579 52.9044 103.807 51.952 103.807C50.9995 103.807 50.2274 104.579 50.2274 105.532C50.2274 106.484 50.9995 107.256 51.952 107.256Z" fill="#2C3E50"/>
<path d="M60.3741 107.256H56.925V105.532C56.925 104.555 57.6723 103.807 58.6496 103.807C59.6268 103.807 60.3741 104.555 60.3741 105.532V107.256Z" fill="#2C3E50"/>
<path d="M67.0717 107.256H63.6226V105.532C63.6226 104.555 64.3699 103.807 65.3471 103.807H67.0717V107.256Z" fill="#2C3E50"/>
<path d="M70.4214 103.807H66.9724V107.256H70.4214V103.807Z" fill="#2C3E50"/>
<path d="M73.7693 103.807H70.3202V107.256H73.7693V103.807Z" fill="#2C3E50"/>
<path d="M77.1171 103.807H73.668V107.256H77.1171V103.807Z" fill="#2C3E50"/>
<path d="M90.5122 107.256H88.7877C87.8104 107.256 87.0631 106.509 87.0631 105.532V103.807H90.5122V107.256Z" fill="#2C3E50"/>
<path d="M93.862 103.807H90.4129V107.256H93.862V103.807Z" fill="#2C3E50"/>
<path d="M97.2098 103.807H93.7607V107.256H97.2098V103.807Z" fill="#2C3E50"/>
<path d="M110.605 103.807H107.156V107.256H110.605V103.807Z" fill="#2C3E50"/>
<path d="M118.926 107.256C117.949 107.256 117.201 106.509 117.201 105.532V103.807H120.65V105.532C120.65 106.509 119.903 107.256 118.926 107.256Z" fill="#2C3E50"/>
<path d="M30.2394 110.605H26.7903V108.881C26.7903 107.903 27.5376 107.156 28.5149 107.156H30.2394V110.605Z" fill="#2C3E50"/>
<path d="M33.5872 107.156H30.1381V110.605H33.5872V107.156Z" fill="#2C3E50"/>
<path d="M36.937 107.156H33.4879V110.605H36.937V107.156Z" fill="#2C3E50"/>
<path d="M40.2849 107.156H36.8358V110.605H40.2849V107.156Z" fill="#2C3E50"/>
<path d="M43.6346 107.156H40.1855V110.605H43.6346V107.156Z" fill="#2C3E50"/>
<path d="M46.9789 110.605H43.5298V107.156H45.2544C46.2316 107.156 46.9789 107.903 46.9789 108.881V110.605Z" fill="#2C3E50"/>
<path d="M60.3741 107.156H56.925V110.605H60.3741V107.156Z" fill="#2C3E50"/>
<path d="M65.3471 110.605C64.3699 110.605 63.6226 109.858 63.6226 108.881V107.156H67.0717V108.881C67.0717 109.858 66.3244 110.605 65.3471 110.605Z" fill="#2C3E50"/>
<path d="M77.1171 110.605H75.3925C74.4153 110.605 73.668 109.858 73.668 108.881V107.156H77.1171V110.605Z" fill="#2C3E50"/>
<path d="M80.4668 107.156H77.0177V110.605H80.4668V107.156Z" fill="#2C3E50"/>
<path d="M83.8146 107.156H80.3656V110.605H83.8146V107.156Z" fill="#2C3E50"/>
<path d="M85.4399 110.605H83.7153V107.156H85.4399C86.4171 107.156 87.1644 107.903 87.1644 108.88C87.1644 109.858 86.4171 110.605 85.4399 110.605Z" fill="#2C3E50"/>
<path d="M93.862 110.605H92.1374C91.1602 110.605 90.4129 109.858 90.4129 108.881V107.156H93.862V110.605Z" fill="#2C3E50"/>
<path d="M97.2098 107.156H93.7607V110.605H97.2098V107.156Z" fill="#2C3E50"/>
<path d="M100.56 107.156H97.1105V110.605H100.56V107.156Z" fill="#2C3E50"/>
<path d="M103.907 107.156H100.458V110.605H103.907V107.156Z" fill="#2C3E50"/>
<path d="M107.257 107.156H103.808V110.605H107.257V107.156Z" fill="#2C3E50"/>
<path d="M110.605 107.156H107.156V110.605H110.605V107.156Z" fill="#2C3E50"/>
<path d="M117.303 110.605H113.853V108.881C113.853 107.903 114.601 107.156 115.578 107.156C116.555 107.156 117.303 107.903 117.303 108.881V110.605Z" fill="#2C3E50"/>
<path d="M30.2394 110.505H26.7903V113.954H30.2394V110.505Z" fill="#2C3E50"/>
<path d="M36.937 113.954H35.2124C34.2352 113.954 33.4879 113.206 33.4879 112.229V110.505H36.937V113.954Z" fill="#2C3E50"/>
<path d="M38.5604 113.954H36.8358V110.505H40.2849V112.229C40.2849 113.207 39.5376 113.954 38.5604 113.954Z" fill="#2C3E50"/>
<path d="M46.9789 113.954H45.2544C44.2771 113.954 43.5298 113.206 43.5298 112.229V110.505H46.9789V113.954Z" fill="#2C3E50"/>
<path d="M50.3287 110.505H46.8796V113.954H50.3287V110.505Z" fill="#2C3E50"/>
<path d="M53.6765 110.505H50.2274V113.954H53.6765V110.505Z" fill="#2C3E50"/>
<path d="M57.0263 110.505H53.5772V113.954H57.0263V110.505Z" fill="#2C3E50"/>
<path d="M60.3741 110.505H56.925V113.954H60.3741V110.505Z" fill="#2C3E50"/>
<path d="M61.9993 113.954H60.2748V110.505H61.9993C62.9766 110.505 63.7239 111.252 63.7239 112.229C63.7239 113.206 62.9766 113.954 61.9993 113.954Z" fill="#2C3E50"/>
<path d="M73.7693 113.954H70.3202V112.229C70.3202 111.252 71.0675 110.505 72.0448 110.505C73.022 110.505 73.7693 111.252 73.7693 112.229V113.954Z" fill="#2C3E50"/>
<path d="M102.183 113.954C101.206 113.954 100.458 113.206 100.458 112.229V110.505H103.907V112.229C103.907 113.206 103.16 113.954 102.183 113.954Z" fill="#2C3E50"/>
<path d="M108.881 113.954C107.903 113.954 107.156 113.207 107.156 112.229V110.505H110.605V112.229C110.605 113.207 109.858 113.954 108.881 113.954Z" fill="#2C3E50"/>
<path d="M117.303 110.505H113.853V113.954H117.303V110.505Z" fill="#2C3E50"/>
<path d="M28.5149 117.303C27.5376 117.303 26.7903 116.555 26.7903 115.578V113.854H30.2394V115.578C30.2394 116.555 29.4921 117.303 28.5149 117.303Z" fill="#2C3E50"/>
<path d="M43.6346 117.303H40.1855V115.578C40.1855 114.601 40.9328 113.854 41.91 113.854C42.8873 113.854 43.6346 114.601 43.6346 115.578V117.303Z" fill="#2C3E50"/>
<path d="M51.952 117.303C50.9747 117.303 50.2274 116.555 50.2274 115.578V113.854H53.6765V115.578C53.6765 116.555 52.9292 117.303 51.952 117.303Z" fill="#2C3E50"/>
<path d="M58.6496 117.303C57.6723 117.303 56.925 116.555 56.925 115.578V113.854H60.3741V115.578C60.3741 116.555 59.6268 117.303 58.6496 117.303Z" fill="#2C3E50"/>
<path d="M70.4214 117.303H66.9724V115.578C66.9724 114.601 67.7197 113.854 68.6969 113.854H70.4214V117.303Z" fill="#2C3E50"/>
<path d="M73.7693 113.854H70.3202V117.303H73.7693V113.854Z" fill="#2C3E50"/>
<path d="M77.1171 113.854H73.668V117.303H77.1171V113.854Z" fill="#2C3E50"/>
<path d="M80.4668 113.854H77.0177V117.303H80.4668V113.854Z" fill="#2C3E50"/>
<path d="M82.0901 117.303H80.3656V113.854H82.0901C83.0673 113.854 83.8146 114.601 83.8146 115.578C83.8146 116.555 83.0673 117.303 82.0901 117.303Z" fill="#2C3E50"/>
<path d="M100.56 117.303H97.1105V115.578C97.1105 114.601 97.8578 113.854 98.835 113.854C99.8123 113.854 100.56 114.601 100.56 115.578V117.303Z" fill="#2C3E50"/>
<path d="M105.533 117.303C106.485 117.303 107.257 116.53 107.257 115.578C107.257 114.626 106.485 113.854 105.533 113.854C104.58 113.854 103.808 114.626 103.808 115.578C103.808 116.53 104.58 117.303 105.533 117.303Z" fill="#2C3E50"/>
<path d="M115.578 117.303C114.601 117.303 113.853 116.555 113.853 115.578V113.854H117.303V115.578C117.303 116.555 116.555 117.303 115.578 117.303Z" fill="#2C3E50"/>
<path d="M124 117.303H120.551V115.578C120.551 114.601 121.298 113.854 122.276 113.854C123.253 113.854 124 114.601 124 115.578V117.303Z" fill="#2C3E50"/>
<path d="M33.5872 120.651H31.8627C30.8854 120.651 30.1381 119.904 30.1381 118.927C30.1381 117.949 30.8854 117.202 31.8627 117.202H33.5872V120.651Z" fill="#2C3E50"/>
<path d="M36.937 120.651H33.4879V117.202H35.2124C36.1897 117.202 36.937 117.949 36.937 118.927V120.651Z" fill="#2C3E50"/>
<path d="M41.91 120.651C40.9328 120.651 40.1855 119.904 40.1855 118.927V117.202H43.6346V118.927C43.6346 119.904 42.8873 120.651 41.91 120.651Z" fill="#2C3E50"/>
<path d="M55.3017 120.651C56.2542 120.651 57.0263 119.879 57.0263 118.927C57.0263 117.974 56.2542 117.202 55.3017 117.202C54.3493 117.202 53.5772 117.974 53.5772 118.927C53.5772 119.879 54.3493 120.651 55.3017 120.651Z" fill="#2C3E50"/>
<path d="M63.7239 120.651H60.2748V118.927C60.2748 117.949 61.0221 117.202 61.9993 117.202H63.7239V120.651Z" fill="#2C3E50"/>
<path d="M67.0717 117.202H63.6226V120.651H67.0717V117.202Z" fill="#2C3E50"/>
<path d="M68.6969 120.651H66.9724V117.202H70.4214V118.927C70.4214 119.904 69.6741 120.651 68.6969 120.651Z" fill="#2C3E50"/>
<path d="M77.1171 120.651H75.3925C74.4153 120.651 73.668 119.904 73.668 118.927V117.202H77.1171V120.651Z" fill="#2C3E50"/>
<path d="M80.4668 117.202H77.0177V120.651H80.4668V117.202Z" fill="#2C3E50"/>
<path d="M93.862 120.651H92.1374C91.1602 120.651 90.4129 119.904 90.4129 118.927C90.4129 117.949 91.1602 117.202 92.1374 117.202H93.862V120.651Z" fill="#2C3E50"/>
<path d="M97.2098 117.202H93.7607V120.651H97.2098V117.202Z" fill="#2C3E50"/>
<path d="M98.835 120.651H97.1105V117.202H100.56V118.927C100.56 119.904 99.8123 120.651 98.835 120.651Z" fill="#2C3E50"/>
<path d="M108.881 120.651C109.833 120.651 110.605 119.879 110.605 118.927C110.605 117.974 109.833 117.202 108.881 117.202C107.928 117.202 107.156 117.974 107.156 118.927C107.156 119.879 107.928 120.651 108.881 120.651Z" fill="#2C3E50"/>
<path d="M124 117.202H120.551V120.651H124V117.202Z" fill="#2C3E50"/>
<path d="M36.937 124H35.2124C34.2352 124 33.4879 123.252 33.4879 122.275V120.551H36.937V124Z" fill="#2C3E50"/>
<path d="M38.5604 124H36.8358V120.551H38.5604C39.5376 120.551 40.2849 121.298 40.2849 122.275C40.2849 123.252 39.5376 124 38.5604 124Z" fill="#2C3E50"/>
<path d="M48.6042 124C49.5566 124 50.3287 123.228 50.3287 122.275C50.3287 121.323 49.5566 120.551 48.6042 120.551C47.6517 120.551 46.8796 121.323 46.8796 122.275C46.8796 123.228 47.6517 124 48.6042 124Z" fill="#2C3E50"/>
<path d="M60.3741 124H58.6496C57.6723 124 56.925 123.252 56.925 122.275C56.925 121.298 57.6723 120.551 58.6496 120.551H60.3741V124Z" fill="#2C3E50"/>
<path d="M61.9993 124H60.2748V120.551H63.7239V122.275C63.7239 123.252 62.9766 124 61.9993 124Z" fill="#2C3E50"/>
<path d="M80.4668 124H78.7422C77.765 124 77.0177 123.252 77.0177 122.275V120.551H80.4668V124Z" fill="#2C3E50"/>
<path d="M83.8146 120.551H80.3656V124H83.8146V120.551Z" fill="#2C3E50"/>
<path d="M87.1644 120.55H83.7153V124H87.1644V120.55Z" fill="#2C3E50"/>
<path d="M88.7877 124H87.0631V120.551H88.7877C89.7649 120.551 90.5122 121.298 90.5122 122.275C90.5122 123.252 89.7649 124 88.7877 124Z" fill="#2C3E50"/>
<path d="M102.183 124C103.135 124 103.907 123.228 103.907 122.275C103.907 121.323 103.135 120.551 102.183 120.551C101.23 120.551 100.458 121.323 100.458 122.275C100.458 123.228 101.23 124 102.183 124Z" fill="#2C3E50"/>
<path d="M113.955 124H112.23C111.253 124 110.506 123.252 110.506 122.275C110.506 121.298 111.253 120.551 112.23 120.551H113.955V124Z" fill="#2C3E50"/>
<path d="M117.303 120.551H113.853V124H117.303V120.551Z" fill="#2C3E50"/>
<path d="M120.65 120.551H117.201V124H120.65V120.551Z" fill="#2C3E50"/>
<path d="M122.276 124H120.551V120.551H124V122.275C124 123.252 123.253 124 122.276 124Z" fill="#2C3E50"/>
<path d="M7.53442 23.4404H16.0734C20.0918 23.4404 23.4404 20.0918 23.4404 16.0734V7.53442C23.4404 3.34863 20.0918 0 15.906 0H7.36699C3.34863 0 0 3.34863 0 7.36699V15.906C0 20.0918 3.34863 23.4404 7.53442 23.4404ZM20.0918 8.03671V15.4037C20.0918 17.9152 17.9152 20.0918 15.4037 20.0918H8.03671C5.35781 20.0918 3.34863 18.0826 3.34863 15.4037V8.03671C3.34863 5.52524 5.52524 3.34863 8.03671 3.34863H15.4037C18.0826 3.34863 20.0918 5.35781 20.0918 8.03671Z" fill="#2C3E50"/>
<path d="M107.992 23.4404H116.531C120.55 23.4404 123.898 20.0918 123.898 16.0734V7.53442C123.898 3.34863 120.55 0 116.364 0H107.825C103.807 0 100.458 3.34863 100.458 7.36699V15.906C100.458 20.0918 103.807 23.4404 107.992 23.4404ZM120.55 8.03671V15.4037C120.55 17.9152 118.373 20.0918 115.862 20.0918H108.495C105.816 20.0918 103.807 18.0826 103.807 15.4037V8.03671C103.807 5.52524 105.983 3.34863 108.495 3.34863H115.862C118.541 3.34863 120.55 5.35781 120.55 8.03671Z" fill="#2C3E50"/>
<path d="M7.53442 123.899H16.0734C20.0918 123.899 23.4404 120.551 23.4404 116.532V107.993C23.4404 103.808 20.0918 100.459 15.906 100.459H7.36699C3.34863 100.459 0 103.808 0 107.826V116.365C0 120.551 3.34863 123.899 7.53442 123.899ZM20.0918 108.496V115.863C20.0918 118.374 17.9152 120.551 15.4037 120.551H8.03671C5.35781 120.551 3.34863 118.542 3.34863 115.863V108.496C3.34863 105.984 5.52524 103.808 8.03671 103.808H15.4037C18.0826 103.808 20.0918 105.817 20.0918 108.496Z" fill="#2C3E50"/>
<path d="M16.7433 9.54348V14.0641C16.7433 15.4036 15.4039 16.743 13.897 16.743H9.54376C7.86945 16.743 6.69743 15.571 6.69743 13.8967V9.54348C6.69743 8.0366 8.03688 6.69714 9.54376 6.69714H14.0644C15.5713 6.69714 16.7433 7.86916 16.7433 9.54348Z" fill="#2C3E50"/>
<path d="M117.202 9.54348V14.0641C117.202 15.4036 115.863 16.743 114.356 16.743H110.002C108.328 16.743 107.156 15.571 107.156 13.8967V9.54348C107.156 8.0366 108.496 6.69714 110.002 6.69714H114.523C116.03 6.69714 117.202 7.86916 117.202 9.54348Z" fill="#2C3E50"/>
<path d="M16.7433 110.002V114.523C16.7433 115.862 15.4039 117.202 13.897 117.202H9.54376C7.86945 117.202 6.69743 116.03 6.69743 114.356V110.002C6.69743 108.495 8.03688 107.156 9.54376 107.156H14.0644C15.5713 107.156 16.7433 108.328 16.7433 110.002Z" fill="#2C3E50"/>
</svg>
