<svg width="40" height="40" fill="none" xmlns="http://www.w3.org/2000/svg"><path d="M26.986 17.286a.995.995 0 0 0-.995 1.003v15.916a1.804 1.804 0 0 1-1.802 1.803H8.793a1.809 1.809 0 0 1-1.802-1.803V8.03l5.013-5.017H24.19a1.809 1.809 0 0 1 1.802 1.803v1.607a.996.996 0 1 0 1.99 0V4.795A3.797 3.797 0 0 0 24.19 1H11.598a1.002 1.002 0 0 0-.727.29l-5.58 5.6a.996.996 0 0 0-.29.726v26.61a3.797 3.797 0 0 0 3.792 3.796h15.396a3.792 3.792 0 0 0 3.793-3.795V18.288a.998.998 0 0 0-.996-1.003Z" fill="#003366"/><path d="M30.91 7.9a5.17 5.17 0 0 0-3.902 2.181 5.043 5.043 0 0 0-3.96-2.181 4.088 4.088 0 0 0-3.935 2.483 4.097 4.097 0 0 0 2.318 5.436 4.09 4.09 0 0 0 1.617.26c1.766 0 3.088-1.2 3.902-2.225a5.03 5.03 0 0 0 3.96 2.225 4.09 4.09 0 0 0 4.262-4.09A4.095 4.095 0 0 0 30.91 7.9Zm-7.862 6.187a2.106 2.106 0 0 1-1.983-2.105 2.11 2.11 0 0 1 1.983-2.105c1.453 0 2.398 1.375 2.805 2.08-.444.727-1.454 2.13-2.805 2.13Zm7.862 0c-1.454 0-2.398-1.381-2.805-2.086.509-.837 1.57-2.124 2.805-2.124a2.106 2.106 0 0 1 1.983 2.105 2.11 2.11 0 0 1-1.983 2.105ZM16.444 33.594a.995.995 0 0 0 .995-.996V20.485h5.725a.995.995 0 0 0 0-1.992H9.708a.995.995 0 1 0 0 1.992h5.747v12.113a.989.989 0 0 0 .989.996Z" fill="#003366"/></svg>