<svg width="40" height="40" fill="none" xmlns="http://www.w3.org/2000/svg"><path d="M37.004 23.129a1.008 1.008 0 0 0-.707.29.98.98 0 0 0-.29.7 1.771 1.771 0 0 1-.532 1.267 1.821 1.821 0 0 1-1.285.524H4.817c-.483 0-.946-.188-1.288-.524a1.787 1.787 0 0 1-.537-1.268V8.763c.002-.476.195-.933.537-1.27a1.845 1.845 0 0 1 1.288-.529h3.2c.263 0 .517-.103.703-.287a.975.975 0 0 0 0-1.39A1.003 1.003 0 0 0 8.016 5H4.817a3.845 3.845 0 0 0-2.699 1.102A3.737 3.737 0 0 0 1 8.763v15.355a3.737 3.737 0 0 0 1.12 2.657 3.845 3.845 0 0 0 2.697 1.1H34.19a3.845 3.845 0 0 0 2.692-1.103A3.737 3.737 0 0 0 38 24.118a.97.97 0 0 0-.29-.699.997.997 0 0 0-.706-.29Z" fill="#003366"/><path d="M6.438 21.358a.997.997 0 0 0 .727.294.986.986 0 0 0 .727-.294l8.725-8.602a.733.733 0 0 1 .982 0l4.79 4.724a2.717 2.717 0 0 0 1.902.773c.712 0 1.396-.278 1.901-.773l6.18-6.1a.976.976 0 0 0 .296-.695.962.962 0 0 0-.296-.696 1.01 1.01 0 0 0-1.41 0l-6.18 6.1a.733.733 0 0 1-.982 0l-4.835-4.716a2.717 2.717 0 0 0-1.9-.773c-.713 0-1.397.278-1.902.773l-8.725 8.602a.982.982 0 0 0 0 1.39m5.853 7.936a1.008 1.008 0 0 0-.707.29.982.982 0 0 0-.29.7v3.727a.97.97 0 0 0 .293.694.998.998 0 0 0 .704.288 1.01 1.01 0 0 0 .704-.288.983.983 0 0 0 .292-.694V30.29a.972.972 0 0 0-.29-.699.996.996 0 0 0-.706-.29Z" fill="#003366"/><path d="M26.672 29.301a1.009 1.009 0 0 0-.707.29.983.983 0 0 0-.29.7v3.727c0 .26.106.51.293.694a1.003 1.003 0 0 0 1.408 0 .975.975 0 0 0 .292-.694V30.29a.968.968 0 0 0-.29-.699.996.996 0 0 0-.706-.29Z" fill="#005DA5"/></svg>