<svg width="24" height="24" fill="none" xmlns="http://www.w3.org/2000/svg"><path d="M15.385 4.385h2.077a1.385 1.385 0 0 1 1.384 1.384v13.846A1.384 1.384 0 0 1 17.462 21H6.385A1.385 1.385 0 0 1 5 19.615V5.77a1.385 1.385 0 0 1 1.385-1.384h2.077" stroke="#9747FF" stroke-width="1.5" stroke-linecap="round" stroke-linejoin="round"/><path d="M14 3H9.845C9.08 3 8.46 3.62 8.46 4.385v.692c0 .765.62 1.385 1.385 1.385h4.153c.765 0 1.385-.62 1.385-1.385v-.692c0-.765-.62-1.385-1.385-1.385ZM8.46 14.077l2.77 2.077 3.462-5.538" stroke="#9747FF" stroke-width="1.5" stroke-linecap="round" stroke-linejoin="round"/></svg>