<svg width="24" height="24" fill="none" xmlns="http://www.w3.org/2000/svg"><path fill-rule="evenodd" clip-rule="evenodd" d="M13.206 4.362c.243.264.246.281.275 1.815.038 2.004-.006 2.303-.409 2.787-.583.7-1.385.755-2.017.135-.494-.485-.568-.875-.534-2.82.028-1.568.039-1.65.244-1.888.272-.313.418-.346 1.398-.319.732.021.817.045 1.043.29Zm-4.742 5.721c3.825 1.354 3.286 1.36 7.329-.08 3.084-1.097 3.314-1.146 3.628-.769.17.204.602 1.64.603 2.007.003.56-.253.703-2.9 1.635-2.113.743-2.498.907-2.521 1.077-.018.132.5.99 1.519 2.515 1.612 2.414 1.71 2.628 1.412 3.09-.074.115-.416.435-.76.712-.612.493-.939.602-1.322.442-.08-.033-.822-1.072-1.649-2.31-.827-1.237-1.56-2.3-1.629-2.363-.069-.062-.182-.09-.252-.06-.07.029-.824 1.092-1.676 2.363-.853 1.27-1.616 2.337-1.696 2.37-.453.189-1.098-.132-1.87-.93-.362-.374-.438-.706-.25-1.089.054-.108.75-1.172 1.547-2.365.968-1.447 1.441-2.236 1.423-2.372-.024-.174-.39-.33-2.522-1.08-2.653-.934-2.901-1.074-2.901-1.643 0-.23.258-1.167.5-1.811.09-.244.498-.472.769-.432.125.019 1.573.51 3.218 1.093Z" fill="#FFC909"/></svg>