<svg width="24" height="24" fill="none" xmlns="http://www.w3.org/2000/svg"><path d="M14.426 20.295a4.402 4.402 0 0 0 5.527-.609l.622-.609a1.495 1.495 0 0 0 0-2.09l-2.64-2.615a1.478 1.478 0 0 0-2.072 0 1.49 1.49 0 0 1-2.086 0l-4.145-4.151a1.467 1.467 0 0 1 0-2.09 1.482 1.482 0 0 0 0-2.076l-2.626-2.63a1.491 1.491 0 0 0-2.086 0l-.608.624a4.417 4.417 0 0 0-.608 5.535 40.016 40.016 0 0 0 10.722 10.711Z" fill="#4BB0FF" stroke="#4BB0FF" stroke-width="1.5" stroke-linecap="round" stroke-linejoin="round"/></svg>