<svg width="40" height="16" fill="none" xmlns="http://www.w3.org/2000/svg"><path d="M28.496 7.827v5.885h3.588v-3.314h3.61c1.886 0 3.496-1.069 4.117-2.57H28.496Z" fill="#064"/><path d="M28.33 2.5c.016.3.059.593.125.876.017.063.03.127.049.189.008.025.013.05.022.077a5.016 5.016 0 0 0 4.783 3.506h6.625c.04-.227.066-.46.066-.698a3.938 3.938 0 0 0-1.284-2.91A3.936 3.936 0 0 0 36.05 2.5h-7.72Z" fill="url(#a)"/><path d="m22.137 3.684-2.511 5.443h-.255V2.5h-3.568v11.214h3.027a2.04 2.04 0 0 0 1.852-1.184l2.51-5.44h.256v6.626h3.568V2.5h-3.029c-.794 0-1.517.462-1.85 1.184Zm-16.615.29 1.486 5.153h.254L8.75 3.974A2.04 2.04 0 0 1 10.71 2.5h3.563v11.214h-3.568V7.088h-.255l-2.04 6.626H5.862L3.823 7.088h-.255v6.626H0V2.5h3.563a2.04 2.04 0 0 1 1.959 1.474Z" fill="#064"/><defs><linearGradient id="a" x1="28.33" y1="4.824" x2="39.999" y2="4.824" gradientUnits="userSpaceOnUse"><stop stop-color="#50A9DF"/><stop offset="1" stop-color="#2D3E91"/></linearGradient></defs></svg>