<svg width="41" height="14" fill="none" xmlns="http://www.w3.org/2000/svg"><g clip-path="url(#a)"><path d="M38.17 1.035h-2.567c-.776 0-1.373.234-1.73.994l-4.896 10.936h3.463s.596-1.462.716-1.813h4.238c.12.41.418 1.755.418 1.755h3.105L38.17 1.035Zm-4.06 7.661c.3-.702 1.314-3.333 1.314-3.333 0 .058.299-.702.418-1.111l.24 1.052s.656 2.866.775 3.45H34.11v-.058Zm-4.895.351c0 2.456-2.268 4.093-5.79 4.093-1.493 0-2.926-.292-3.702-.643l.478-2.69.418.175c1.074.468 1.79.644 3.104.644.955 0 1.97-.351 1.97-1.17 0-.526-.418-.877-1.731-1.462-1.254-.585-2.925-1.52-2.925-3.216 0-2.34 2.328-3.919 5.61-3.919 1.255 0 2.329.234 2.986.527l-.478 2.573-.238-.234a6.53 6.53 0 0 0-2.508-.468c-1.253.059-1.85.585-1.85 1.053 0 .526.716.935 1.85 1.462 1.91.877 2.806 1.871 2.806 3.275Z" fill="#3362AB"/><path d="m.082 1.152.06-.234h5.133c.717 0 1.254.234 1.433.994l1.134 5.263C6.709 4.368 4.082 2.088.082 1.152Z" fill="#F9B50B"/><path d="M15.068 1.035 9.874 12.906H6.352L3.367 2.965c2.15 1.345 3.94 3.45 4.597 4.912l.358 1.228L11.546.977h3.522v.058Zm1.37-.058h3.283l-2.09 11.93h-3.283l2.09-11.93Z" fill="#3362AB"/></g><defs><clipPath id="a"><path fill="#fff" d="M0 0h41v14H0z"/></clipPath></defs></svg>