<svg width="41" height="26" fill="none" xmlns="http://www.w3.org/2000/svg"><g clip-path="url(#a)"><path d="m25.603 3.528-10.537.034.327 18.911 10.536-.034-.326-18.911Z" fill="#FF5F00"/><path d="M15.769 13.06a11.857 11.857 0 0 1 4.436-9.48 12.233 12.233 0 0 0-7.511-2.552C6 1.05.684 6.451.804 13.108c.12 6.655 5.632 12.023 12.324 12.002a11.912 11.912 0 0 0 7.418-2.599 12.204 12.204 0 0 1-4.777-9.451Z" fill="#EB001B"/><path d="M40.203 12.895c.116 6.656-5.205 12.058-11.896 12.08a12.224 12.224 0 0 1-7.51-2.55c2.786-2.217 4.51-5.635 4.442-9.481-.066-3.847-1.941-7.252-4.77-9.45a11.92 11.92 0 0 1 7.42-2.6c6.69-.022 12.2 5.378 12.314 12v.001Z" fill="#F79E1B"/></g><defs><clipPath id="a"><path fill="#fff" d="M0 0h41v26H0z"/></clipPath></defs></svg>