<svg width="49" height="49" viewBox="0 0 49 49" fill="none" xmlns="http://www.w3.org/2000/svg">
<path fill-rule="evenodd" clip-rule="evenodd" d="M35 42C42.7467 42 49 39.5 49 35V6C49 3 42.7778 0 35 0C27.2222 0 21 3 21 6V17C24.64 18.47 27.7911 20.88 30 24C31.5244 24.288 33.1644 24 35 24C39.0756 24 42.5733 23.275 45 22C45.3445 21.8174 45.675 21.2132 46 21V25C46 25.705 44.9133 26.992 43 28C41.1458 28.975 38.7022 30 35 30C34.2596 30 33.6699 30.054 33 30C33.2489 30.986 32.917 31.966 33 33C33.5247 33.028 34.4462 33 35 33C39.0756 33 42.5733 32.275 45 31C45.3445 30.8174 45.675 30.2132 46 30V34C46 34.708 44.9973 35.962 43 37C41.0338 38.02 38.5156 39 35 39C34.2844 39 33.6699 39.056 33 39C32.7608 39.9972 32.4007 41.0523 32 42C32.979 42.106 33.9547 42 35 42ZM43 19C44.9133 17.992 46 17.705 46 17V12C45.6785 12.212 45.3484 12.816 45 13C42.5796 14.275 39.0756 15 35 15C30.9244 15 27.4267 14.275 25 13C24.6555 12.8174 24.325 12.2132 24 12V17C24 17.705 25.0867 17.995 27 19C28.8542 19.975 31.2978 21 35 21C38.7022 21 41.1333 19.975 43 19ZM24 8C24 7.136 24.2751 5.507 25 5C25.3951 4.724 25.6609 5.15 26 5C26.8493 4.622 31.4844 3 35 3C38.5156 3 41.9467 4.082 44 5C44.3858 5.171 44.6236 4.736 45 5C45.7187 5.501 46 6.145 46 7C46 7.705 44.9133 8.992 43 10C41.1458 10.975 38.7022 12 35 12C31.2978 12 28.8667 10.972 27 10C25.0867 8.995 24 8.702 24 8Z" fill="#2C3E50"/>
<path fill-rule="evenodd" clip-rule="evenodd" d="M28 35C28 42.7467 21.7467 49 14 49C6.25333 49 0 42.7467 0 35C0 27.2533 6.25333 21 14 21C21.7467 21 28 27.2533 28 35ZM25 35C25 41.0044 20.0044 46 14 46C7.99556 46 3 41.0044 3 35C3 28.9956 7.99556 24 14 24C20.0044 24 25 28.9956 25 35Z" fill="#2C3E50"/>
</svg>
