<svg width="40" height="39" viewBox="0 0 40 39" fill="none" xmlns="http://www.w3.org/2000/svg">
<path d="M25.9536 15.0642H23.9675C23.9055 14.8334 23.9293 15.3004 23.9675 15.0642C24.0294 15.2951 24.81 15.8789 24.9605 16.0616C25.1111 16.2442 24.7492 16.9582 24.9605 17.0589C25.1718 17.1595 25.7207 17.0589 25.9536 17.0589V15.0642ZM2.11981 15.0642V13.0696C1.69451 13.0696 0.434393 13.7577 0.133659 14.0669C-0.167074 14.3762 0.133659 14.6269 0.133659 15.0642H2.11981ZM6.09211 39H30.919V36.008H6.09211V39ZM33.8982 13.0696H25.9536V17.0589H33.8982V13.0696ZM27.9398 15.0642L28.9328 5.091L25.9536 4.09367L23.9675 15.0642H27.9398ZM25.9536 0.10438H24.9605V3.09635H25.9536V0.10438ZM18.009 4.09367L13.0436 12.0723L15.0298 14.0669L20.9882 6.08832L18.009 4.09367ZM10.0644 13.0696H2.11981V17.0589H10.0644V13.0696ZM0.133659 15.0642V33.0161H3.11289V15.0642H0.133659ZM36.8774 34.0134L39.8567 21.0482L36.8774 20.0509L33.8982 33.0161L36.8774 34.0134ZM13.0436 12.0723C12.7997 12.4489 12.4385 12.856 12.0506 13.0696C11.6626 13.2832 10.5045 13.0695 10.0644 13.0696V17.0589C12.0315 17.0589 13.9393 15.7489 15.0298 14.0669L13.0436 12.0723ZM28.9328 5.091C29.0219 4.53995 29.0773 3.63485 28.9328 3.09635C28.7884 2.55785 29.284 1.52789 28.9328 1.1017C28.5817 0.675517 27.4396 0.339284 26.9467 0.10438C26.4538 -0.130524 26.4969 0.104478 25.9536 0.10438V3.09635C25.8834 3.06271 26.0311 3.09655 25.9536 3.09635C26.0239 3.12999 25.9036 4.03281 25.9536 4.09367C25.9331 4.01684 26.0037 4.15454 25.9536 4.09367C25.9663 4.01506 25.9742 4.17051 25.9536 4.09367L28.9328 5.091ZM33.8982 17.0589C35.5873 17.0589 37.2067 18.3513 36.8774 20.0509L39.8567 21.0482C40.0268 20.1711 40.0676 18.9238 39.8567 18.0562C39.6457 17.1886 39.4152 16.753 38.8636 16.0616C38.312 15.3701 37.6636 14.4494 36.8774 14.0669C36.0913 13.6845 34.7679 13.0695 33.8982 13.0696V17.0589ZM30.919 39C32.2782 39.0003 33.84 38.8885 34.8913 38.0027C35.9426 37.1168 36.6105 35.3839 36.8774 34.0134L33.8982 33.0161C33.777 33.6396 33.3835 34.6078 32.9051 35.0107C32.4268 35.4136 31.5374 36.0087 30.919 36.008V39ZM24.9605 0.10438C23.6406 0.104479 22.152 0.46119 20.9882 1.1017C19.8245 1.74222 18.7411 2.96431 18.009 4.09367L20.9882 6.08832C21.4277 5.4104 22.2758 4.478 22.9744 4.09367C23.673 3.70935 24.1682 3.09605 24.9605 3.09635V0.10438ZM6.09211 36.008C4.6168 36.008 3.11289 34.5331 3.11289 33.0161H0.133659C0.133659 34.6196 1.01712 35.8715 2.11981 37.0054C3.2225 38.1392 4.53267 39 6.09211 39V36.008Z" fill="#EEF1F6"/>
<path d="M30.4189 36.5078V38.5H6.5918V36.5078H30.4189ZM36.29 34.3438C36.1585 34.8792 35.9707 35.449 35.7246 35.9795C35.4096 36.6587 35.0181 37.2419 34.5693 37.6201C33.7823 38.2833 32.6195 38.4601 31.4189 38.4932V36.4336C31.6985 36.3562 31.9716 36.228 32.207 36.0977C32.5996 35.8802 32.9683 35.6119 33.2275 35.3936C33.5494 35.1224 33.8042 34.701 33.9883 34.3076C34.0878 34.0949 34.1734 33.8726 34.2432 33.6582L36.29 34.3438ZM2.65723 33.5156C2.78501 34.2471 3.18049 34.9216 3.69629 35.4355C4.20898 35.9463 4.87684 36.3351 5.5918 36.4629V38.4658C4.43573 38.3079 3.4087 37.6136 2.47852 36.6572C1.53173 35.6837 0.825797 34.6927 0.667969 33.5156H2.65723ZM39.2676 21.3779L36.5137 33.3643L34.4863 32.6855L37.2402 20.6992L39.2676 21.3779ZM1.62012 15.5645V17.5586H2.61328V32.5156H0.633789V15.5645H1.62012ZM34.3984 13.6338C34.6524 13.6896 34.9402 13.7787 35.2441 13.8926C35.7587 14.0854 36.2688 14.3267 36.6592 14.5166C36.9664 14.6662 37.274 14.9359 37.5879 15.2832C37.9034 15.6324 38.1826 16.0095 38.4727 16.373C38.7383 16.7061 38.9101 16.9577 39.041 17.2178C39.1713 17.4765 39.2711 17.7635 39.3711 18.1748C39.5198 18.7868 39.5288 19.6424 39.4482 20.3838L37.417 19.7041C37.4468 18.8435 37.0677 18.0943 36.4854 17.5518C35.9305 17.0348 35.1852 16.6945 34.3984 16.5918V13.6338ZM25.4541 16.5938C25.4518 16.5939 25.4496 16.5946 25.4473 16.5947C25.4495 16.5842 25.4519 16.5735 25.4541 16.5625V16.5938ZM33.3984 13.5693V16.5586H26.4541V15.5645H28.3926L28.4375 15.1143L28.5918 13.5693H33.3984ZM9.56445 13.5693V16.5586H3.61328V14.5645H2.62012V13.5693H9.56445ZM14.3799 14.123C13.4405 15.3914 12.0235 16.3415 10.5645 16.5234V13.6064C10.7125 13.6206 10.8784 13.6373 11.043 13.6484C11.2472 13.6623 11.4668 13.671 11.668 13.6592C11.8531 13.6483 12.0927 13.6176 12.292 13.5078C12.5936 13.3417 12.8667 13.0936 13.0947 12.832L14.3799 14.123ZM25.4541 15.5645V15.9336C25.432 15.8723 25.3985 15.806 25.3467 15.7432C25.3001 15.6867 25.2329 15.6235 25.168 15.5645H25.4541ZM27.5859 13.5693L27.4873 14.5645H26.4541V13.5693H27.5859ZM28.3955 5.43848L27.6855 12.5693H25.4541V14.5645H24.5654L26.3418 4.75L28.3955 5.43848ZM1.62012 14.5645H0.552734C0.545404 14.5391 0.539129 14.515 0.533203 14.4951C0.52081 14.4534 0.512699 14.4256 0.506836 14.4014C0.549478 14.3623 0.639927 14.2922 0.782227 14.2002C0.934458 14.1018 1.12002 13.9954 1.31055 13.8965C1.4161 13.8417 1.52061 13.79 1.62012 13.7451V14.5645ZM20.2725 6.21094L14.9746 13.3037L13.6768 12L18.1602 4.7959L20.2725 6.21094ZM24.4609 2.66113C24.1525 2.74042 23.8894 2.88246 23.6602 3.03125C23.4934 3.13949 23.3247 3.26451 23.1787 3.36816C23.0255 3.47694 22.8822 3.57343 22.7334 3.65527C22.3215 3.88187 21.8949 4.25122 21.5254 4.63281C21.2855 4.8806 21.0586 5.14655 20.8633 5.40234L18.7061 3.95801C19.3933 2.99569 20.2986 2.05238 21.2295 1.54004C22.1709 1.02186 23.3533 0.698496 24.4609 0.62207V2.66113ZM26.7314 0.555664C26.8738 0.623525 27.0554 0.694932 27.2334 0.764648C27.4183 0.837049 27.6099 0.911488 27.7969 0.991211C27.9843 1.07109 28.1543 1.15108 28.293 1.23145C28.4385 1.31577 28.5153 1.3816 28.5469 1.41992C28.5336 1.40376 28.5569 1.41815 28.5605 1.5332C28.5641 1.64552 28.5471 1.78927 28.5166 1.97559C28.4891 2.14349 28.4473 2.36612 28.4248 2.56055C28.4025 2.75371 28.3888 2.99646 28.4502 3.22559C28.5042 3.42688 28.5271 3.73253 28.5205 4.0791C28.5183 4.19356 28.5116 4.30848 28.5039 4.41992L26.4541 3.7334V3.71582C26.4561 3.68398 26.4578 3.65058 26.46 3.61621C26.4673 3.49992 26.4758 3.36749 26.4766 3.26074C26.4768 3.22643 26.4733 3.18609 26.4707 3.14453C26.4722 3.13 26.4763 3.11541 26.4766 3.10059C26.4775 3.04318 26.4675 2.99243 26.4541 2.94824V0.538086C26.5199 0.52064 26.5659 0.507676 26.5889 0.501953L26.5898 0.500977C26.6025 0.503576 26.6438 0.513882 26.7314 0.555664Z" stroke="#EEF1F6"/>
</svg>
