<svg width="43" height="44" viewBox="0 0 43 44" fill="none" xmlns="http://www.w3.org/2000/svg">
<path d="M7.5 1.5H35.5C38.6657 1.5 41.5 4.25514 41.5 7.5V36.5C41.5 39.7449 38.6657 42.5 35.5 42.5H7.5C4.33429 42.5 1.5 39.7449 1.5 36.5V7.5C1.5 4.25514 4.33429 1.5 7.5 1.5Z" stroke="#2C3E50" stroke-width="3" stroke-linecap="round" stroke-linejoin="round"/>
<path d="M10.5 10.5H13.5" stroke="#2C3E50" stroke-width="3" stroke-linecap="round" stroke-linejoin="round"/>
<path d="M15.5004 13.5C14.7047 13.5 14.063 13.0626 13.5004 12.5C12.9378 11.9374 12.5004 11.2956 12.5004 10.5C12.5004 9.70434 12.9378 9.0626 13.5004 8.49999C14.063 7.93738 14.7047 7.49999 15.5004 7.49999C15.8943 7.49999 16.1364 7.34923 16.5004 7.49999C16.8644 7.65075 17.2218 8.22141 17.5004 8.49999C17.779 8.77857 18.3496 9.13601 18.5004 9.49999C18.6511 9.86397 18.5004 10.106 18.5004 10.5C18.5004 10.894 18.6511 11.136 18.5004 11.5C18.3496 11.864 17.779 12.2214 17.5004 12.5C17.2218 12.7786 16.8644 13.3492 16.5004 13.5C16.1364 13.6508 15.8943 13.5 15.5004 13.5Z" stroke="#2C3E50" stroke-width="3" stroke-linecap="round" stroke-linejoin="round"/>
<path d="M18.5 10.5H32.5" stroke="#2C3E50" stroke-width="3" stroke-linecap="round" stroke-linejoin="round"/>
<path d="M33.5 21.5H30.5" stroke="#2C3E50" stroke-width="3" stroke-linecap="round" stroke-linejoin="round"/>
<path d="M27.5 25.5C28.2956 25.5 28.9374 25.0626 29.5 24.5C30.0626 23.9374 30.5 23.2956 30.5 22.5C30.5 21.7044 30.0626 21.0626 29.5 20.5C28.9374 19.9374 28.2956 19.5 27.5 19.5C26.7044 19.5 26.0626 19.9374 25.5 20.5C24.9374 21.0626 24.5 21.7044 24.5 22.5C24.5 23.2956 24.9374 23.9374 25.5 24.5C26.0626 25.0626 26.7044 25.5 27.5 25.5Z" stroke="#2C3E50" stroke-width="3" stroke-linecap="round" stroke-linejoin="round"/>
<path d="M24.5 21.5H10.5" stroke="#2C3E50" stroke-width="3" stroke-linecap="round" stroke-linejoin="round"/>
<path d="M10.5 33.5H13.5" stroke="#2C3E50" stroke-width="3" stroke-linecap="round" stroke-linejoin="round"/>
<path d="M15.5004 36.5C14.7047 36.5 14.063 36.0626 13.5004 35.5C12.9378 34.9374 12.5004 34.2956 12.5004 33.5C12.5004 32.7043 12.9378 32.0626 13.5004 31.5C14.063 30.9374 14.7047 30.5 15.5004 30.5C15.8943 30.5 16.1364 30.3492 16.5004 30.5C16.8644 30.6508 17.2218 31.2214 17.5004 31.5C17.779 31.7786 18.3496 32.136 18.5004 32.5C18.6511 32.864 18.5004 33.106 18.5004 33.5C18.5004 33.894 18.6511 34.136 18.5004 34.5C18.3496 34.864 17.779 35.2214 17.5004 35.5C17.2218 35.7786 16.8644 36.3492 16.5004 36.5C16.1364 36.6508 15.8943 36.5 15.5004 36.5Z" stroke="#2C3E50" stroke-width="3" stroke-linecap="round" stroke-linejoin="round"/>
<path d="M18.5 33.5H32.5" stroke="#2C3E50" stroke-width="3" stroke-linecap="round" stroke-linejoin="round"/>
</svg>
