<svg width="80" height="40" viewBox="0 0 80 40" fill="none" xmlns="http://www.w3.org/2000/svg">
<path d="M20.7254 40C16.0915 40 12.23 39.0603 9.14076 37.1809C6.05153 35.3014 3.73461 32.8369 2.18999 29.7872C0.688284 26.7021 -0.041118 23.4043 0.00178773 19.8936C0.0446938 16.3121 0.881361 13.0142 2.51179 10C4.18512 6.98582 6.5664 4.57447 9.65564 2.76596C12.7878 0.921986 16.585 0 21.0472 0C26.153 0 30.3578 1.31206 33.6615 3.93617C37.0082 6.56028 39.7113 10.5319 41.7708 15.8511H38.2954C39.7113 12.3404 41.4061 9.4149 43.3797 7.07447C45.3534 4.69858 47.6274 2.92553 50.2018 1.75532C52.8191 0.585108 55.801 0 59.1477 0C63.4383 0 67.1282 0.851064 70.2174 2.55319C73.3496 4.25532 75.7523 6.59575 77.4256 9.57447C79.1419 12.5532 80 15.9574 80 19.7872C80 23.5106 79.1848 26.8972 77.5544 29.9468C75.9239 32.9965 73.5426 35.4433 70.4105 37.2872C67.3213 39.0957 63.567 40 59.1477 40C55.7581 40 52.7547 39.4326 50.1374 38.2979C47.5631 37.1277 45.2891 35.3723 43.3154 33.0319C41.3846 30.6915 39.7113 27.7128 38.2954 24.0957H41.7708C40.312 27.7128 38.5743 30.6915 36.5577 33.0319C34.584 35.3723 32.2885 37.1277 29.6713 38.2979C27.054 39.4326 24.072 40 20.7254 40ZM21.2402 32.4468C24.4153 32.4468 27.3115 31.5248 29.9287 29.6809C32.546 27.8014 34.9916 24.5745 37.2656 20C34.9916 15.3901 32.546 12.1631 29.9287 10.3191C27.3115 8.43972 24.4153 7.5 21.2402 7.5C18.3226 7.5 15.9414 8.10284 14.0964 9.30851C12.2514 10.4787 10.8999 12.0213 10.0418 13.9362C9.18367 15.8156 8.75461 17.8369 8.75461 20C8.75461 22.1277 9.18367 24.1489 10.0418 26.0638C10.8999 27.9787 12.2514 29.5213 14.0964 30.6915C15.9414 31.8617 18.3226 32.4468 21.2402 32.4468ZM58.8259 32.4468C61.7435 32.4468 64.1248 31.8617 65.9697 30.6915C67.8147 29.5213 69.1662 27.9787 70.0244 26.0638C70.8825 24.1489 71.3115 22.1277 71.3115 20C71.3115 17.8369 70.8825 15.8156 70.0244 13.9362C69.1662 12.0213 67.8147 10.4787 65.9697 9.30851C64.1248 8.10284 61.7435 7.5 58.8259 7.5C55.6509 7.5 52.7547 8.43972 50.1374 10.3191C47.5202 12.1631 45.0745 15.3901 42.8005 20C45.0745 24.5745 47.5202 27.8014 50.1374 29.6809C52.7547 31.5248 55.6509 32.4468 58.8259 32.4468Z" fill="#2C3E50"/>
</svg>
