<svg width="125" height="76" viewBox="0 0 125 76" fill="none" xmlns="http://www.w3.org/2000/svg">
<path d="M32.3001 75.1998C25.1001 75.1998 19.1001 73.4331 14.3001 69.8998C9.5001 66.3665 5.9001 61.7331 3.5001 55.9998C1.16676 50.1998 0.0334314 43.9998 0.100098 37.3998C0.166764 30.6665 1.46676 24.4665 4.0001 18.7998C6.6001 13.1331 10.3001 8.5998 15.1001 5.1998C19.9668 1.73313 25.8668 -0.000202179 32.8001 -0.000202179C40.7334 -0.000202179 47.2668 2.46646 52.4001 7.3998C57.6001 12.3331 61.8001 19.7998 65.0001 29.7998H59.6001C61.8001 23.1998 64.4334 17.6998 67.5001 13.2998C70.5668 8.83313 74.1001 5.4998 78.1001 3.2998C82.1668 1.0998 86.8001 -0.000202179 92.0001 -0.000202179C98.6668 -0.000202179 104.4 1.5998 109.2 4.7998C114.067 7.9998 117.8 12.3998 120.4 17.9998C123.067 23.5998 124.4 29.9998 124.4 37.1998C124.4 44.1998 123.133 50.5665 120.6 56.2998C118.067 62.0331 114.367 66.6331 109.5 70.0998C104.7 73.4998 98.8668 75.1998 92.0001 75.1998C86.7334 75.1998 82.0668 74.1331 78.0001 71.9998C74.0001 69.7998 70.4668 66.4998 67.4001 62.0998C64.4001 57.6998 61.8001 52.0998 59.6001 45.2998H65.0001C62.7334 52.0998 60.0334 57.6998 56.9001 62.0998C53.8334 66.4998 50.2668 69.7998 46.2001 71.9998C42.1334 74.1331 37.5001 75.1998 32.3001 75.1998ZM33.1001 60.9998C38.0334 60.9998 42.5334 59.2665 46.6001 55.7998C50.6668 52.2665 54.4668 46.1998 58.0001 37.5998C54.4668 28.9331 50.6668 22.8665 46.6001 19.3998C42.5334 15.8665 38.0334 14.0998 33.1001 14.0998C28.5668 14.0998 24.8668 15.2331 22.0001 17.4998C19.1334 19.6998 17.0334 22.5998 15.7001 26.1998C14.3668 29.7331 13.7001 33.5331 13.7001 37.5998C13.7001 41.5998 14.3668 45.3998 15.7001 48.9998C17.0334 52.5998 19.1334 55.4998 22.0001 57.6998C24.8668 59.8998 28.5668 60.9998 33.1001 60.9998ZM91.5001 60.9998C96.0334 60.9998 99.7334 59.8998 102.6 57.6998C105.467 55.4998 107.567 52.5998 108.9 48.9998C110.233 45.3998 110.9 41.5998 110.9 37.5998C110.9 33.5331 110.233 29.7331 108.9 26.1998C107.567 22.5998 105.467 19.6998 102.6 17.4998C99.7334 15.2331 96.0334 14.0998 91.5001 14.0998C86.5668 14.0998 82.0668 15.8665 78.0001 19.3998C73.9334 22.8665 70.1334 28.9331 66.6001 37.5998C70.1334 46.1998 73.9334 52.2665 78.0001 55.7998C82.0668 59.2665 86.5668 60.9998 91.5001 60.9998Z" fill="url(#paint0_linear_2030_57)"/>
<defs>
<linearGradient id="paint0_linear_2030_57" x1="62.2407" y1="-1.7002" x2="62.2407" y2="78.2998" gradientUnits="userSpaceOnUse">
<stop stop-color="#063C62"/>
<stop offset="1" stop-color="#590660"/>
</linearGradient>
</defs>
</svg>
