<svg width="45" height="45" viewBox="0 0 45 45" fill="none" xmlns="http://www.w3.org/2000/svg">
<path d="M44 22.0949C44 21.8899 43.8294 21.7202 43.6194 21.7106C36.0847 21.432 31.499 20.4937 28.2909 17.3618C25.0763 14.2235 24.1185 9.74335 23.8331 2.37148C23.8266 2.16652 23.6527 2 23.4395 2H22.5604C22.3505 2 22.1766 2.16652 22.1668 2.37148C21.8814 9.74014 20.9236 14.2235 17.709 17.3618C14.4976 20.4969 9.91515 21.432 2.38051 21.7106C2.17057 21.717 2 21.8867 2 22.0949V22.9531C2 23.1581 2.17057 23.3278 2.38051 23.3374C9.91515 23.616 14.5009 24.5543 17.709 27.6863C20.917 30.8182 21.8748 35.2856 22.1635 42.6284C22.1701 42.8334 22.3439 43 22.5571 43H23.4395C23.6494 43 23.8233 42.8334 23.8331 42.6284C24.1218 35.2856 25.0796 30.8182 28.2876 27.6863C31.499 24.5511 36.0814 23.616 43.6161 23.3374C43.8261 23.331 43.9967 23.1613 43.9967 22.9531V22.0949H44Z" fill="#E1E7ED"/>
</svg>
