<svg width="74" height="74" viewBox="0 0 74 74" fill="none" xmlns="http://www.w3.org/2000/svg">
<g clip-path="url(#clip0_6227_458222)">
<path d="M75 68.1481C75 71.9323 71.9323 75 68.1481 75H58.8519C55.0677 75 52 71.9323 52 68.1481V56.8519C52 53.0677 48.9323 50 45.1481 50H31.8519C28.0677 50 25 46.9323 25 43.1481V31.8519C25 28.0677 28.0677 25 31.8519 25H45.1481C48.9323 25 52 21.9323 52 18.1481V6.85185C52 3.06768 55.0677 0 58.8519 0H68.1481C71.9323 0 75 3.06768 75 6.85185V68.1481Z" fill="#2C3E50"/>
<rect width="47" height="20" rx="6.85185" fill="#2C3E50"/>
<path d="M20.002 48.1481C20.002 51.9323 23.0696 55 26.8538 55H41.1481C44.9323 55 48 58.0677 48 61.8519V68.1481C48 71.9323 44.9323 75 41.1481 75H6.85185C3.06768 75 0 71.9323 0 68.1481V55.001C0 55.0004 0.000437222 55 0.000976562 55C0.0015159 55 0.00195312 54.9996 0.00195312 54.999V31.8519C0.00195312 28.0677 3.06963 25 6.85381 25H13.1501C16.9343 25 20.002 28.0677 20.002 31.8519V48.1481Z" fill="#2C3E50"/>
</g>
<defs>
<clipPath id="clip0_6227_458222">
<rect width="74" height="74" rx="27.4074" fill="white"/>
</clipPath>
</defs>
</svg>
