<svg width="74" height="74" viewBox="0 0 74 74" fill="none" xmlns="http://www.w3.org/2000/svg">
<path fill-rule="evenodd" clip-rule="evenodd" d="M25.3117 0H37.7821C41.2003 0 43.9986 2.95929 43.9986 6.64889V13.3521C43.9986 17.0416 41.2004 20.0009 37.7821 20.0009H6.57444C5.64743 20.0009 5.02842 20.0353 4.21996 19.8211C3.28015 19.5706 2.43083 18.8361 2.0152 17.5294C1.96021 17.147 2.02707 16.6603 2.17524 16.1492C2.32465 15.6335 2.54795 15.123 2.77062 14.7212C7.48877 6.23412 15.5001 0 25.3117 0Z" fill="#2C3E50"/>
<path fill-rule="evenodd" clip-rule="evenodd" d="M6.61918 24.9922H13.3107C16.9673 24.9922 19.9299 27.9386 19.9299 31.5752V46.9773C19.9299 50.9686 23.1817 54.2026 27.195 54.2026H37.6101C39.4269 54.2026 42.1335 54.9363 43.0479 56.1257C43.9698 57.3246 43.926 58.2607 43.926 60.1168L44.0026 67.9293C44.0026 72.1999 41.3921 73.8407 36.8582 73.9994H26.516C11.9423 74.0052 0.190104 62.3766 0 47.9048V31.5752C0 27.9386 2.96259 24.9922 6.61918 24.9922Z" fill="#2C3E50"/>
<path fill-rule="evenodd" clip-rule="evenodd" d="M51.115 1.00782C52.3178 1.00906 53.6125 1.16938 54.5686 1.26684C60.1986 2.09433 62.9645 4.20987 67.0004 7.88222C73.7263 14.0027 74.0391 24.0663 73.9966 32.4963C73.8916 33.4194 73.4982 34.0718 73.0339 34.5388C71.7658 35.8144 70.1945 35.8535 68.4889 35.9417C64.9636 36.124 59.7412 35.9196 58.2473 35.7427C55.5499 35.4231 53.3189 34.5391 51.6377 33.1327C51.5184 33.0329 51.4019 32.9305 51.2881 32.8254C50.1931 31.814 49.3484 30.5523 48.7886 29.0428C48.2385 27.5591 48.2762 26.7477 48.2417 25.2032C48.1609 21.5964 48.1784 17.9959 48.1688 14.3551C48.1671 13.7711 48.1318 12.741 48.0938 11.5171C48.0559 10.2894 48.015 8.85906 48.0022 7.46392C47.9893 6.06744 48.0045 4.71258 48.0774 3.63425C48.1667 2.31679 48.0208 1.46268 49.4716 1.1496C49.9483 1.04675 50.513 1.0072 51.115 1.00782Z" fill="#2C3E50"/>
<path fill-rule="evenodd" clip-rule="evenodd" d="M23.9961 30.389C24.019 27.4008 25.3894 25.8153 27.853 25.1934C28.5754 25.0111 28.971 25.0248 29.7016 25.0223L37.5853 24.995C40.663 24.9843 43.1699 24.8628 43.7757 28.4257C43.9046 29.1841 44.027 29.8337 44.1734 30.4381C44.4765 31.6894 44.8841 32.7478 45.6714 34.1781C47.2457 37.0379 51.7653 39.9662 54.9732 40.5643C59.3724 41.3845 63.4154 41.0479 67.8916 41.0606C70.4256 41.1026 72.4154 41.7185 73.3 44.2607C74.0438 46.3988 74.1299 48.9174 73.8567 51.9416C73.6995 53.6824 73.1648 55.6425 72.4528 57.4513C71.9564 58.7124 71.3311 59.8967 70.8654 60.8976C70.3903 61.9191 69.6151 62.9955 68.795 64.0861C68.0547 65.0706 67.2891 66.0845 66.462 66.7761C65.5196 67.564 64.701 68.4159 63.8307 69.1016C62.2753 70.3274 60.6814 71.2733 58.8264 72.1531C57.5216 72.7718 56.0332 73.4443 54.3125 73.7763C52.4864 74.0472 48.0064 74.5413 48.0064 71.9104L48.022 57.9524C48.0237 56.438 47.9773 56.0567 47.4849 54.5484C47.0607 53.2487 46.2098 52.5181 45.2093 51.8734C43.73 50.9199 42.1051 50.2196 39.9713 50.1754L30.802 50.1837C26.4405 50.4803 24.1192 49.684 24.1016 44.6832L23.9961 30.389Z" fill="#2C3E50"/>
</svg>
