<svg width="18" height="18" viewBox="0 0 18 18" fill="none" xmlns="http://www.w3.org/2000/svg">
<path d="M7.14174 12.1499C7.06139 11.8385 6.89905 11.5542 6.67161 11.3268C6.44417 11.0993 6.15993 10.937 5.84847 10.8567L0.327119 9.43289C0.232919 9.40615 0.150012 9.34942 0.0909764 9.27129C0.031941 9.19317 0 9.09792 0 9C0 8.90208 0.031941 8.80683 0.0909764 8.7287C0.150012 8.65058 0.232919 8.59385 0.327119 8.56711L5.84847 7.14245C6.15982 7.06217 6.44398 6.89997 6.67141 6.67269C6.89885 6.44542 7.06125 6.16137 7.14174 5.85008L8.5655 0.328716C8.59197 0.234145 8.64865 0.150828 8.72689 0.091477C8.80513 0.0321261 8.90064 0 8.99884 0C9.09705 0 9.19255 0.0321261 9.2708 0.091477C9.34904 0.150828 9.40571 0.234145 9.43218 0.328716L10.855 5.85008C10.9354 6.16153 11.0977 6.44577 11.3252 6.67321C11.5526 6.90066 11.8369 7.063 12.1483 7.14335L17.6697 8.56621C17.7646 8.5924 17.8483 8.64902 17.908 8.72738C17.9677 8.80573 18 8.90151 18 9C18 9.09849 17.9677 9.19426 17.908 9.27262C17.8483 9.35098 17.7646 9.4076 17.6697 9.43379L12.1483 10.8567C11.8369 10.937 11.5526 11.0993 11.3252 11.3268C11.0977 11.5542 10.9354 11.8385 10.855 12.1499L9.43128 17.6713C9.40481 17.7659 9.34814 17.8492 9.2699 17.9085C9.19166 17.9679 9.09615 18 8.99794 18C8.89974 18 8.80423 17.9679 8.72599 17.9085C8.64775 17.8492 8.59107 17.7659 8.5646 17.6713L7.14174 12.1499Z" fill="#2C3E50"/>
</svg>
