<svg width="37" height="34" viewBox="0 0 37 34" fill="none" xmlns="http://www.w3.org/2000/svg">
<g clip-path="url(#clip0_6227_461051)">
<path d="M6.48219 1.80331C14.242 -0.267771 22.4083 -0.267771 30.1681 1.80331C32.773 2.4984 34.7624 4.63286 35.2796 7.28714C36.1958 11.9909 36.1958 16.8288 35.2796 21.5326C34.7626 24.1868 32.7731 26.3213 30.1681 27.0171C29.9714 27.0696 29.7742 27.1209 29.5768 27.1707C29.1862 27.2692 28.9103 27.6245 28.9103 28.029V33.6517C28.9103 33.7892 28.8304 33.9146 28.706 33.9726C28.5817 34.0306 28.4345 34.011 28.3299 33.9221L22.6151 29.0801C22.1334 28.6722 21.5138 28.4639 20.8844 28.4989C16.0358 28.7699 11.175 28.2697 6.48219 27.0171C3.87721 26.3213 1.88773 24.1868 1.37074 21.5326C0.454547 16.8288 0.454547 11.9909 1.37074 7.28714C1.88786 4.63286 3.87734 2.4984 6.48219 1.80331ZM21.5008 21.4901C21.6944 21.4901 21.8536 21.3303 21.8536 21.1361V14.4098H28.5574C28.751 14.4098 28.9103 14.2501 28.9103 14.0559V7.68353C28.9103 7.4894 28.751 7.32957 28.5574 7.32957H8.09322C7.89964 7.32957 7.74037 7.4894 7.74037 7.68353V14.0559C7.74037 14.2501 7.89964 14.4098 8.09322 14.4098H14.7971V21.1361C14.7971 21.3303 14.9563 21.4901 15.1498 21.4901H21.5008Z" fill="#E1E7ED"/>
<path d="M29.3476 3.47656H7.37305V25.4511H29.3476V3.47656Z" fill="#E1E7ED"/>
<path fill-rule="evenodd" clip-rule="evenodd" d="M26.4783 7.29913C26.4783 6.7715 26.0506 6.34375 25.5229 6.34375H11.1917C10.6641 6.34375 10.2363 6.7715 10.2363 7.29913V10.6431C10.2363 11.1708 10.6641 11.5986 11.1917 11.5986H14.5384C15.066 11.5986 15.4938 12.0263 15.4938 12.554V21.6257C15.4938 22.1534 15.9215 22.5811 16.4491 22.5811H20.2708C20.7985 22.5811 21.2262 22.1534 21.2262 21.6257V12.554C21.2262 12.0263 21.654 11.5986 22.1817 11.5986H25.5229C26.0506 11.5986 26.4783 11.1708 26.4783 10.6431V7.29913Z" fill="#2C3E50"/>
<path d="M6.38181 1.77643C14.0073 -0.258809 22.0323 -0.258809 29.6577 1.77643C32.2176 2.45948 34.1726 4.557 34.6807 7.16534C35.5811 11.7876 35.5811 16.5419 34.6807 21.1642C34.1727 23.7725 32.2176 25.87 29.6577 26.5537C29.4644 26.6054 29.2706 26.6557 29.0766 26.7048C28.6928 26.8015 28.4217 27.1506 28.4217 27.5482V33.0735C28.4217 33.2086 28.3431 33.3319 28.221 33.3889C28.0988 33.4458 27.9542 33.4266 27.8513 33.3392L22.2354 28.581C21.7622 28.1802 21.1532 27.9755 20.5348 28.0099C15.7701 28.2763 10.9934 27.7847 6.38181 26.5537C3.82192 25.87 1.86689 23.7725 1.35884 21.1642C0.45851 16.5419 0.45851 11.7876 1.35884 7.16534C1.86702 4.557 3.82206 2.45948 6.38181 1.77643ZM21.1404 21.1224C21.3307 21.1224 21.4872 20.9654 21.4872 20.7746V14.1647H28.075C28.2651 14.1647 28.4217 14.0077 28.4217 13.8169V7.55484C28.4217 7.36409 28.2651 7.20702 28.075 7.20702H7.96495C7.77475 7.20702 7.61823 7.36409 7.61823 7.55484V13.8169C7.61823 14.0077 7.77475 14.1647 7.96495 14.1647H14.5527V20.7746C14.5527 20.9654 14.7092 21.1224 14.8994 21.1224H21.1404Z" fill="#E1E7ED"/>
<path fill-rule="evenodd" clip-rule="evenodd" d="M26.4783 7.29914C26.4783 6.7715 26.0506 6.34375 25.5229 6.34375H11.1917C10.6641 6.34375 10.2363 6.7715 10.2363 7.29914V10.6431C10.2363 11.1708 10.6641 11.5986 11.1917 11.5986H25.5229C26.0506 11.5986 26.4783 11.1708 26.4783 10.6431V7.29914ZM20.2708 22.5865C20.7985 22.5865 21.2262 22.1587 21.2262 21.6311V12.5546C21.2262 12.027 20.7985 11.5992 20.2708 11.5992H16.4491C15.9215 11.5992 15.4938 12.027 15.4938 12.5546V21.6311C15.4938 22.1587 15.9215 22.5865 16.4491 22.5865H20.2708Z" fill="#2C3E50"/>
</g>
<defs>
<clipPath id="clip0_6227_461051">
<rect width="36.5111" height="33.7556" fill="white" transform="translate(0 0.25)"/>
</clipPath>
</defs>
</svg>
