<svg width="45" height="45" viewBox="0 0 45 45" fill="none" xmlns="http://www.w3.org/2000/svg">
<path d="M5.78817 21.3961C5.85706 21.3614 5.92599 21.3285 5.99316 21.2972C7.16092 20.7527 8.34418 20.2427 9.52572 19.7328C9.58945 19.7328 9.69621 19.6583 9.75649 19.634C9.84778 19.5941 9.93908 19.5559 10.0304 19.516C10.206 19.4397 10.3817 19.3651 10.5557 19.2888C10.9071 19.1379 11.2567 18.9871 11.608 18.8362C12.309 18.5344 13.01 18.2326 13.711 17.9291C15.113 17.3255 16.5168 16.7202 17.9188 16.1167C19.3208 15.5131 20.7245 14.9078 22.1265 14.3043C23.5285 13.7007 24.9322 13.0954 26.3342 12.4919C27.7362 11.8883 29.14 11.283 30.542 10.6794C30.8537 10.5441 31.1913 10.343 31.5254 10.284C31.8062 10.2337 32.08 10.1366 32.3625 10.0828C32.8981 9.98048 33.4889 9.93885 34.0022 10.1626C34.1796 10.2406 34.3432 10.3499 34.4793 10.4869C35.1303 11.1356 35.039 12.2005 34.9012 13.1127C33.9419 19.4709 32.9825 25.8309 32.0215 32.1891C31.8906 33.0615 31.7114 34.0188 31.0276 34.5704C30.4489 35.0369 29.6256 35.089 28.9109 34.8912C28.1961 34.6918 27.5657 34.2738 26.9474 33.8627C24.3828 32.1527 21.8165 30.4426 19.2519 28.7325C18.6422 28.3266 17.9636 27.7959 17.9705 27.0588C17.9739 26.6148 18.2374 26.2194 18.5061 25.8673C20.7348 22.9397 23.9505 20.9278 26.3428 18.1355C26.6804 17.7418 26.9457 17.0307 26.4824 16.8035C26.2068 16.6682 25.8898 16.8521 25.6384 17.0272C22.4761 19.2386 19.3156 21.4516 16.1534 23.6629C15.1217 24.3844 14.04 25.1267 12.7965 25.3036C11.6838 25.4632 10.5643 25.151 9.48784 24.8319C8.58532 24.5648 7.68449 24.2908 6.78714 24.0081C6.31005 23.8589 5.81745 23.6976 5.44887 23.3594C5.08028 23.0212 4.86846 22.4523 5.09064 22.0014C5.23016 21.7187 5.50057 21.54 5.78476 21.3944L5.78817 21.3961Z" fill="#E1E7ED"/>
</svg>
