<svg width="45" height="45" viewBox="0 0 45 45" fill="none" xmlns="http://www.w3.org/2000/svg">
<path d="M24.4291 33C13.4959 33 7.25984 25.4925 7 13H12.4766C12.6565 22.1692 16.6939 26.0531 19.8919 26.8539V13H25.0487V20.9079C28.2067 20.5676 31.5247 16.964 32.644 13H37.8008C37.379 15.0558 36.5382 17.0024 35.3311 18.7179C34.1239 20.4334 32.5763 21.8809 30.7851 22.97C32.7845 23.9651 34.5505 25.3736 35.9666 27.1025C37.3826 28.8314 38.4165 30.8415 39 33H33.3236C32.7997 31.1252 31.7351 29.4469 30.2631 28.1755C28.7911 26.9041 26.9772 26.0961 25.0487 25.8529V33H24.4291Z" fill="#E1E7ED"/>
</svg>
